<svg width="290" height="290" viewBox="0 0 290 290" fill="none" xmlns="http://www.w3.org/2000/svg">
<path d="M167.833 145C167.833 157.61 157.611 167.833 145 167.833C132.39 167.833 122.167 157.61 122.167 145C122.167 132.389 132.39 122.167 145 122.167C157.611 122.167 167.833 132.389 167.833 145Z" fill="#FF2A50"/>
<path fill-rule="evenodd" clip-rule="evenodd" d="M90.6985 241.973L138.428 194.243C141.357 191.314 146.106 191.314 149.035 194.243L196.764 241.973C199.693 244.902 199.693 249.65 196.764 252.579C193.836 255.508 189.087 255.508 186.158 252.579L151.231 217.653L151.231 282C151.231 286.142 147.874 289.5 143.731 289.5C139.589 289.5 136.231 286.142 136.231 282L136.231 217.653L101.305 252.579C98.3761 255.508 93.6274 255.508 90.6985 252.579C87.7695 249.65 87.7695 244.902 90.6985 241.973Z" fill="#000"/>
<path fill-rule="evenodd" clip-rule="evenodd" d="M48.0273 91.967L95.757 139.697C98.6859 142.626 98.6859 147.374 95.757 150.303L48.0273 198.033C45.0984 200.962 40.3496 200.962 37.4207 198.033C34.4918 195.104 34.4918 190.355 37.4207 187.426L72.3471 152.5H8C3.85786 152.5 0.5 149.142 0.5 145C0.5 140.858 3.85786 137.5 8 137.5H72.3471L37.4207 102.574C34.4918 99.6446 34.4918 94.8959 37.4207 91.967C40.3496 89.038 45.0984 89.038 48.0273 91.967Z" fill="#000"/>
<path fill-rule="evenodd" clip-rule="evenodd" d="M196.764 48.0273L149.035 95.757C146.106 98.6859 141.357 98.6859 138.428 95.757L90.6985 48.0273C87.7695 45.0984 87.7695 40.3496 90.6985 37.4207C93.6274 34.4918 98.3761 34.4918 101.305 37.4207L136.231 72.3471L136.231 8.00001C136.231 3.85787 139.589 0.500005 143.731 0.500004C147.874 0.500004 151.231 3.85787 151.231 8L151.231 72.3471L186.158 37.4207C189.087 34.4918 193.836 34.4918 196.764 37.4207C199.693 40.3496 199.693 45.0984 196.764 48.0273Z" fill="#000"/>
<path fill-rule="evenodd" clip-rule="evenodd" d="M241.973 198.033L194.243 150.303C191.314 147.374 191.314 142.626 194.243 139.697L241.973 91.967C244.902 89.0381 249.65 89.0381 252.579 91.967C255.508 94.896 255.508 99.6447 252.579 102.574L217.653 137.5L282 137.5C286.142 137.5 289.5 140.858 289.5 145C289.5 149.142 286.142 152.5 282 152.5L217.653 152.5L252.579 187.426C255.508 190.355 255.508 195.104 252.579 198.033C249.65 200.962 244.902 200.962 241.973 198.033Z" fill="#000"/>
</svg>
