<svg width="290" height="289" viewBox="0 0 290 289" fill="none" xmlns="http://www.w3.org/2000/svg">
<path d="M169 145C169 158.807 157.807 170 144 170C130.193 170 119 158.807 119 145C119 131.193 130.193 120 144 120C157.807 120 169 131.193 169 145Z" fill="#FF2A50"/>
<path fill-rule="evenodd" clip-rule="evenodd" d="M90.6984 241.473L138.428 193.743C141.357 190.814 146.106 190.814 149.035 193.743L196.764 241.473C199.693 244.402 199.693 249.15 196.764 252.079C193.835 255.008 189.087 255.008 186.158 252.079L151.231 217.153L151.231 281.5C151.231 285.642 147.874 289 143.731 289C139.589 289 136.231 285.642 136.231 281.5L136.231 217.153L101.305 252.079C98.3761 255.008 93.6273 255.008 90.6984 252.079C87.7695 249.15 87.7695 244.402 90.6984 241.473Z" fill="black"/>
<path fill-rule="evenodd" clip-rule="evenodd" d="M48.0273 91.467L95.757 139.197C98.6859 142.126 98.6859 146.874 95.757 149.803L48.0273 197.533C45.0984 200.462 40.3496 200.462 37.4207 197.533C34.4918 194.604 34.4918 189.855 37.4207 186.926L72.3471 152H8C3.85786 152 0.5 148.642 0.5 144.5C0.5 140.358 3.85786 137 8 137H72.3471L37.4207 102.074C34.4918 99.1446 34.4918 94.3959 37.4207 91.467C40.3496 88.538 45.0984 88.538 48.0273 91.467Z" fill="black"/>
<path fill-rule="evenodd" clip-rule="evenodd" d="M196.764 47.5273L149.035 95.257C146.106 98.1859 141.357 98.1859 138.428 95.257L90.6985 47.5273C87.7695 44.5984 87.7695 39.8496 90.6985 36.9207C93.6274 33.9918 98.3761 33.9918 101.305 36.9207L136.231 71.8471L136.231 7.50001C136.231 3.35787 139.589 4.81925e-06 143.731 4.48303e-06C147.874 4.14681e-06 151.231 3.35787 151.231 7.5L151.231 71.8471L186.158 36.9207C189.087 33.9918 193.836 33.9918 196.764 36.9207C199.693 39.8496 199.693 44.5984 196.764 47.5273Z" fill="black"/>
<path fill-rule="evenodd" clip-rule="evenodd" d="M241.973 197.533L194.243 149.803C191.314 146.874 191.314 142.126 194.243 139.197L241.973 91.467C244.902 88.5381 249.65 88.5381 252.579 91.467C255.508 94.396 255.508 99.1447 252.579 102.074L217.653 137L282 137C286.142 137 289.5 140.358 289.5 144.5C289.5 148.642 286.142 152 282 152L217.653 152L252.579 186.926C255.508 189.855 255.508 194.604 252.579 197.533C249.65 200.462 244.902 200.462 241.973 197.533Z" fill="black"/>
</svg>
