<svg width="290" height="290" viewBox="0 0 290 290" fill="none" xmlns="http://www.w3.org/2000/svg">
<circle cx="145" cy="145" r="22.8333" fill="#FF2A50"/>
<path d="M136.232 282C136.232 286.142 139.589 289.5 143.732 289.5C147.874 289.5 151.232 286.142 151.232 282L136.232 282ZM149.035 194.243C146.106 191.314 141.357 191.314 138.428 194.243L90.6985 241.973C87.7696 244.902 87.7696 249.65 90.6985 252.579C93.6274 255.508 98.3762 255.508 101.305 252.579L143.732 210.153L186.158 252.579C189.087 255.508 193.836 255.508 196.765 252.579C199.693 249.65 199.693 244.902 196.765 241.973L149.035 194.243ZM151.232 282L151.232 199.546L136.232 199.546L136.232 282L151.232 282Z" fill="#212529"/>
<path d="M8 137.5C3.85786 137.5 0.5 140.858 0.5 145C0.5 149.142 3.85786 152.5 8 152.5L8 137.5ZM95.757 150.303C98.6859 147.374 98.6859 142.626 95.757 139.697L48.0273 91.967C45.0984 89.0381 40.3496 89.0381 37.4207 91.967C34.4918 94.8959 34.4918 99.6447 37.4207 102.574L79.8471 145L37.4207 187.426C34.4918 190.355 34.4918 195.104 37.4207 198.033C40.3496 200.962 45.0984 200.962 48.0273 198.033L95.757 150.303ZM8 152.5H90.4537V137.5H8L8 152.5Z" fill="#212529"/>
<path d="M151.232 8C151.232 3.85786 147.874 0.5 143.732 0.5C139.589 0.5 136.232 3.85786 136.232 8L151.232 8ZM138.428 95.757C141.357 98.6859 146.106 98.6859 149.035 95.757L196.765 48.0273C199.693 45.0984 199.693 40.3496 196.765 37.4207C193.836 34.4918 189.087 34.4918 186.158 37.4207L143.732 79.8471L101.305 37.4207C98.3762 34.4918 93.6274 34.4918 90.6985 37.4207C87.7696 40.3496 87.7696 45.0984 90.6985 48.0273L138.428 95.757ZM136.232 8L136.232 90.4537L151.232 90.4537L151.232 8L136.232 8Z" fill="#212529"/>
<path d="M282 152.5C286.142 152.5 289.5 149.142 289.5 145C289.5 140.858 286.142 137.5 282 137.5L282 152.5ZM194.243 139.697C191.314 142.626 191.314 147.374 194.243 150.303L241.973 198.033C244.902 200.962 249.65 200.962 252.579 198.033C255.508 195.104 255.508 190.355 252.579 187.426L210.153 145L252.579 102.574C255.508 99.6447 255.508 94.8959 252.579 91.967C249.65 89.0381 244.902 89.0381 241.973 91.967L194.243 139.697ZM282 137.5L199.546 137.5L199.546 152.5L282 152.5L282 137.5Z" fill="#212529"/>
</svg>
