<svg id="eh0CbxcDzPy1" xmlns="http://www.w3.org/2000/svg" xmlns:xlink="http://www.w3.org/1999/xlink" viewBox="0 0 332 433" shape-rendering="geometricPrecision" text-rendering="geometricPrecision"><style><![CDATA[#eh0CbxcDzPy2 {animation: eh0CbxcDzPy2_c_o 12000ms linear infinite normal forwards}@keyframes eh0CbxcDzPy2_c_o { 0% {opacity: 0} 33.333333% {opacity: 0} 66.666667% {opacity: 1} 100% {opacity: 0}} #eh0CbxcDzPy52 {animation: eh0CbxcDzPy52_c_o 12000ms linear infinite normal forwards}@keyframes eh0CbxcDzPy52_c_o { 0% {opacity: 1} 33.333333% {opacity: 0} 66.666667% {opacity: 0} 100% {opacity: 1}} #eh0CbxcDzPy102 {animation: eh0CbxcDzPy102_c_o 12000ms linear infinite normal forwards}@keyframes eh0CbxcDzPy102_c_o { 0% {opacity: 0} 33.333333% {opacity: 1} 66.666667% {opacity: 0} 100% {opacity: 0}}]]></style><defs><filter id="eh0CbxcDzPy50-filter" x="-150%" width="400%" y="-150%" height="400%"><feGaussianBlur id="eh0CbxcDzPy50-filter-blur-0" stdDeviation="70,70" result="result"/></filter><filter id="eh0CbxcDzPy101-filter" x="-150%" width="400%" y="-150%" height="400%"><feGaussianBlur id="eh0CbxcDzPy101-filter-blur-0" stdDeviation="70,70" result="result"/></filter><filter id="eh0CbxcDzPy150-filter" x="-150%" width="400%" y="-150%" height="400%"><feGaussianBlur id="eh0CbxcDzPy150-filter-blur-0" stdDeviation="70,70" result="result"/></filter></defs><g id="eh0CbxcDzPy2" style="mix-blend-mode:multiply" transform="translate(.344002-13.193535)" opacity="0"><path d="M162.122,303.29c2.51-.1,5-.08,7.54.06" fill="none" stroke="#ff2a50" stroke-miterlimit="10"/><path d="M179.392,304.5c6.603,1.131,12.966,3.373,18.82,6.63c18.15,10.48,18.26,27.41.24,37.81s-47.34,10.34-65.49-.14-18.26-27.4-.24-37.81c6.063-3.362,12.671-5.626,19.52-6.69" fill="none" stroke="#ff2a50" stroke-miterlimit="10"/><path d="M128.362,387.37c3.557,6.808,8.913,12.511,15.486,16.488c6.572,3.976,14.11,6.074,21.792,6.065c7.681-.01,15.214-2.126,21.777-6.118s11.905-9.708,15.445-16.525" fill="#ff2a50"/><path d="M128.362,387.37c3.557,6.808,8.913,12.511,15.486,16.488c6.572,3.976,14.11,6.074,21.792,6.065c7.681-.01,15.214-2.126,21.777-6.118s11.905-9.708,15.445-16.525" fill="none" stroke="#ff2a50" stroke-miterlimit="10"/><path d="M218.622,358.37c1.27,11.61-5.55,23.11-15.71,29s-23.61,8.94-37,9c-13.61,0-27.25-3-37.68-9-10.15-5.86-17-17.35-15.71-29" fill="#fff"/><path d="M218.622,358.37c1.27,11.61-5.55,23.11-15.71,29s-23.61,8.94-37,9c-13.61,0-27.25-3-37.68-9-10.15-5.86-17-17.35-15.71-29" fill="none" stroke="#ff2a50" stroke-miterlimit="10"/><path d="M218.622,358.42c.53,8.18-4.58,16.44-15.36,22.66-20.63,11.91-54.2,11.84-75-.16-10.73-6.19-16-14.36-15.65-22.44" fill="#fff"/><path d="M218.622,358.42c.53,8.18-4.58,16.44-15.36,22.66-20.63,11.91-54.2,11.84-75-.16-10.73-6.19-16-14.36-15.65-22.44" fill="none" stroke="#ff2a50" stroke-miterlimit="10"/><path d="M220.812,342.57c1.93,12.51-5.31,25.09-16.26,31.41-10.7,6.18-24.66,9.34-38.64,9.45-14.21,0-28.46-3.16-39.35-9.45s-18.19-18.9-16.25-31.41" fill="#fff"/><path d="M220.812,342.57c1.93,12.51-5.31,25.09-16.26,31.41-10.7,6.18-24.66,9.34-38.64,9.45-14.21,0-28.46-3.16-39.35-9.45s-18.19-18.9-16.25-31.41" fill="none" stroke="#ff2a50" stroke-miterlimit="10"/><path d="M220.092,339.37c3.09,9.93-2,20.51-15.2,28.14-21.55,12.45-56.62,12.37-78.33-.16-13.29-7.67-18.49-18.24-15.58-28.13" fill="#fff"/><path d="M220.092,339.37c3.09,9.93-2,20.51-15.2,28.14-21.55,12.45-56.62,12.37-78.33-.16-13.29-7.67-18.49-18.24-15.58-28.13" fill="none" stroke="#ff2a50" stroke-miterlimit="10"/><path d="M220.5,328.98c1.928,12.56-5.159,24.18-16.097,30.52-10.688,6.2-24.632,9.36-38.597,9.48-14.194,0-28.428-3.17-39.306-9.48s-17.982-17.96-16.044-30.52" fill="#fff"/><path d="M220.5,328.98c1.928,12.56-5.159,24.18-16.097,30.52-10.688,6.2-24.632,9.36-38.597,9.48-14.194,0-28.428-3.17-39.306-9.48s-17.982-17.96-16.044-30.52" fill="none" stroke="#ff2a50" stroke-linejoin="round" stroke-miterlimit="10"/><path d="M220.5,330c0,8.582-6.037,16.447-16.005,22.194-9.955,5.74-23.741,9.306-38.995,9.306s-29.04-3.566-38.995-9.306C116.537,346.447,110.5,338.582,110.5,330s6.037-16.447,16.005-22.194c9.955-5.74,23.741-9.306,38.995-9.306s29.04,3.566,38.995,9.306C214.463,313.553,220.5,321.418,220.5,330Z" fill="#fff" stroke="#ff2a50"/><path d="M211.953,329.693c.094-14.869-20.766-27.054-46.592-27.216s-46.839,11.761-46.932,26.63c-.094,14.87,20.766,27.055,46.592,27.217c25.827.162,46.839-11.761,46.932-26.631Z" fill="#ff2a50" stroke="#ff2a50" stroke-miterlimit="10"/><path d="M208.12,340.203c10.033-10.747,15.596-24.893,15.564-39.576.18-43.715,26.877-87.59,26.877-87.59c7.321-14.499,10.798-30.625,10.1-46.843s-5.548-31.988-14.087-45.808c-8.54-13.82-20.485-25.231-34.698-33.1456-14.214-7.9147-30.222-12.0698-46.502-12.0698-16.279,0-32.288,4.1551-46.501,12.0698-14.214,7.9146-26.1589,19.3256-34.6984,33.1456s-13.389,29.59-14.0869,45.808s2.7791,32.344,10.0999,46.843c0,0,26.6864,43.885,26.8764,87.59-.028,14.684,5.539,28.83,15.574,39.576" fill="none" stroke="#ff2a50" stroke-miterlimit="10"/><path d="M153.912,187.34l6.373,5.31-3.187-6.372-1.062-4.249-1.062-8.497l1.062-8.497l2.124-10.621l2.125-5.311l4.248-7.435l5.311-4.248h5.31l-2.124-1.062-4.248-2.125-3.187-1.062-3.186,1.062-4.249,4.249-4.248,6.373-2.124,6.372-2.125,8.497-1.062,9.56l1.062,8.497l4.249,9.559Z" fill="#fff"/><path d="M170.906,150.165l-2.124-6.372l4.248,1.062l2.125,3.186l2.124,6.373v9.559l-1.292,8.116-2.957,7.816-4.024,8.763-5.235,7.853-6.673,7.813-3.186-7.435l2.124-2.124l7.435-10.622l3.187-6.372l2.124-6.373l2.124-8.497v-12.746Z" fill="#fff"/><path d="M117.8,212.831l4.96,2.887-4.96-7.136-1.062-4.248v-6.373l2.124-5.311l4.248-5.31l5.311-3.187l6.373-1.062l7.435,1.062-1.063-1.062-5.317-2.276-6.108-1.745-5.189.835-3.566,1.062-6.373,5.311-3.186,4.627-1.062,9.18l2.797,7.779l4.638,4.967Z" fill="#fff"/><path d="M143.291,195.837l-3.952-6.297l3.49,1.746l4.71,4.551l3.187,6.372l1.062,4.249v2.124l-1.106,1.027-6.329,3.222-8.497,2.124-4.249-1.062-4.484-2.538v-.648h6.108l6.873-2.125l6.215-4.208-1.966-5.351-1.062-3.186Z" fill="#fff"/><path d="M171.968,190.526l2.124-3.186l5.311,3.186-4.249,1.062-3.186-1.062Z" fill="#fff"/><path d="M186.458,181.687l-1.746,7.853l7.436-4.324l6.526-5.274l6.108-7.853l5.235-8.726l3.49-7.853l2.008-8.531-1.062-4.249-1.818-1.181-3.491,1.745-.872,4.363-2.316,7.819-4.665,9.632-5.235,6.981-4.97,5.692-4.628,3.906Z" fill="#fff"/><path d="M174.092,187.34l6.373,3.186l4.249-16.994l6.372-13.808l9.559-13.807l11.684-10.621l4.248-1.063-5.31-3.186h-3.187l-4.248,2.124-6.373,5.311-7.435,9.559-7.435,12.746-3.186,14.869-5.311,11.684Z" fill="#fff"/><path d="M171.624,321.298l5.655,3.056-1.292-20.507-.833-19.854-.912-17.666.912-18.446l1.063-26.553l3.186-24.429-6.906.495-2.653,21.81-1.062,28.677-.648,17.573.648,18.539l1.097,19.854l1.745,17.451Z" fill="#fff"/><path d="M148.937,333.514l6.108,3.491.873-11.344l1.745-34.902v-17.452l-.565-30.737L153.3,213.1l-4.699,2.917l2.081,20.642c.873,14.834.873,27.922.873,27.922s.371,12.438,0,27.923c-.341,14.202-1.365,30.157-2.618,41.01Z" fill="#fff"/><path d="M176.217,191.588l4.248-1.062-1.062,6.373h-2.124-8.497l3.186-6.373l4.249,1.062Z" fill="#fff"/><path d="M157.098,204.334l7.435-9.559-6.373-6.373-3.186-12.746l1.062-14.869l4.249-12.746l5.31-7.435l4.249-3.186h4.248l4.249,4.248l3.186,8.497v9.559v5.311l-2.124,8.497-2.124,6.373-2.124,4.248-4.249,8.497-5.311,7.435-5.31,6.373-4.249,4.249-7.435,5.31-10.621,4.249h-6.373l-7.435-3.187-5.31-6.372-2.124-7.435v-6.373l3.186-6.373l4.248-4.248l4.249-2.125l4.248-1.062h7.435l5.311,2.125l4.248,4.248l3.187,5.311l3.186,6.372l1.062,3.187Zm5.8-19.118l5.536,4.324l1.41-2.2l2.124-4.249l2.124-5.31l1.062-4.249l2.125-7.435v-10.621l-1.063-6.373-3.186-4.248-4.248-1.062-5.311,6.372-3.186,10.622-1.063,9.559l1.063,8.497l2.613,6.373Zm-13.235,13.807l2.125,8.497-1.062,2.124-4.249,2.125-4.248,2.124-5.311,1.062-6.373-1.062-5.31-4.249-3.187-5.31-1.062-5.311l2.647-5.992l4.788-3.567l6.373-1.062l6.372,2.124l4.249,3.186l4.248,5.311Z" clip-rule="evenodd" fill="#fff" fill-rule="evenodd"/><path d="M184.6,189.574c4.581-1.926,8.757-4.697,12.308-8.168c4.12-3.959,7.661-8.476,10.52-13.418c7.085-12.23,9.968-23.792,6.447-25.861-3.521-2.068-12.138,6.248-19.233,18.489-6.713,11.594-9.181,23.336-11.053,34.835v.191c-2.459,15.771-3.915,31.682-4.362,47.637-.805,26.306-.006,52.636,2.394,78.845l-4.159,2.386c-.341-3.84-.656-7.697-.947-11.572-1.999-24.94-2.461-49.978-1.383-74.973.59-13.815,1.975-27.585,4.149-41.242.184-1.124.375-2.248.574-3.373.138-.827.298-1.654.457-2.471c2.054-10.745,5.043-21.088,11.383-32.066c9.298-16.07,21.063-26.678,26.265-23.686c5.202,2.991,1.862,18.456-7.447,34.527-3.166,5.574-7.03,10.725-11.499,15.327-4.321,4.513-9.553,8.06-15.351,10.406" fill="#fff"/><path d="M155.045,337.005l4.363-1.745.872-14.834l1.746-24.432.383-21.56-.383-19.451-.873-22.687-3.49-22.686-4.363,3.49l3.798,26.284c1.062,38.237,0,64.79,0,64.79s-.991,25.75-2.053,32.831Z" fill="#fff"/><path d="M186.344,181.576c1.548-1.152,3.026-2.396,4.426-3.723c4.12-3.959,7.661-8.476,10.52-13.418c4.862-8.401,7.745-16.484,7.936-21.385" fill="none" stroke="#ff2a50" stroke-miterlimit="10"/><path d="M163.1,184.663c2.421-4.27,4.375-8.786,5.83-13.471c1.495-4.704,2.301-9.599,2.394-14.532c0-5.304-.851-9.611-2.245-12.475" fill="none" stroke="#ff2a50" stroke-miterlimit="10"/><path d="M154.314,197.084c1.568-1.773,3.045-3.625,4.425-5.547" fill="none" stroke="#ff2a50" stroke-miterlimit="10"/><path d="M126.261,210.587c2.513.624,5.137.645,7.66.064c4.432-1.063,8.579-3.08,12.148-5.908v0c-1.489-6.184-3.542-11.806-7.319-15.381" fill="none" stroke="#ff2a50" stroke-miterlimit="10"/><path d="M164.866,195.037c-6.382-3.575-9.765-11.148-9.765-22.01c0-15.158,5.968-30.868,13.318-35.1c7.351-4.232,13.319,4.614,13.319,19.772c0,10.851-3.436,22.371-9.766,33.254-1.12,1.909-2.304,3.769-3.553,5.58-.68.986-1.372,1.941-2.127,2.917-2.617,3.49-5.528,6.751-8.702,9.748-1.436,1.347-2.904,2.599-4.383,3.744-5.149,4.01-10.446,6.513-15.35,7.256-3.964.628-8.024-.121-11.5-2.122-9.308-5.367-12.638-16.972-7.446-25.967c5.191-8.995,17.02-11.869,26.328-6.46c6.383,3.639,9.34,10.608,11.383,18.956" fill="none" stroke="#ff2a50" stroke-miterlimit="10"/><path d="M179.217,196.777c-2.853.649-5.804.739-8.691.265-.718-.128-1.428-.295-2.128-.499" fill="none" stroke="#ff2a50" stroke-miterlimit="10"/><path d="M184.6,189.574c4.581-1.926,8.757-4.697,12.308-8.168c4.12-3.959,7.661-8.476,10.52-13.418c7.085-12.23,9.968-23.792,6.447-25.861-3.521-2.068-12.138,6.248-19.233,18.489-6.713,11.594-9.181,23.336-11.053,34.835v.191c-2.459,15.771-3.915,31.682-4.362,47.637-.805,26.306-.006,52.636,2.394,78.845l-4.159,2.386c-.341-3.84-.656-7.697-.947-11.572-1.999-24.94-2.461-49.978-1.383-74.973.59-13.815,1.975-27.585,4.149-41.242.184-1.124.375-2.248.574-3.373.138-.827.298-1.654.457-2.471c2.054-10.745,5.043-21.088,11.383-32.066c9.298-16.07,21.063-26.678,26.265-23.686c5.202,2.991,1.862,18.456-7.447,34.527-3.166,5.574-7.03,10.725-11.499,15.327-4.321,4.513-9.553,8.06-15.351,10.406" fill="none" stroke="#ff2a50" stroke-linejoin="round" stroke-miterlimit="10"/><path d="M171.972,190.953c2.724.621,5.553.621,8.277,0" fill="none" stroke="#ff2a50" stroke-miterlimit="10"/><path d="M152.207,208.232c-1.808-7.531-4.457-14.213-10.021-17.406-7.084-4.084-15.68-2.45-19.233,3.649s-.638,14.33,6.447,18.435c3.268,1.713,7.055,2.166,10.638,1.273c4.541-1.105,8.78-3.199,12.414-6.131c1.435-1.084,2.809-2.245,4.117-3.479c3.063-2.907,5.835-6.104,8.276-9.547c1.255-1.76,2.447-3.585,3.553-5.462c2.794-4.673,5.026-9.657,6.649-14.851c1.491-4.704,2.294-9.599,2.383-14.532c0-11.541-4.043-18.563-9.032-15.688s-9.031,14.543-9.031,26.083c-.063,4.046.757,8.056,2.404,11.753c1.362,3.06,3.689,5.593,6.627,7.213" fill="none" stroke="#ff2a50" stroke-miterlimit="10"/><path d="M157.622,209.208c2.266,12.04,3.645,24.228,4.127,36.468c1.234,24.525.426,50.364-1.383,76.554-.29,4.243-.606,8.486-.946,12.729l-4.181,2.376c2.191-27.898,3.34-55.403,2.383-81.603-.543-14.797-1.692-29.329-4.351-42.62v-.149" fill="none" stroke="#ff2a50" stroke-linejoin="round" stroke-miterlimit="10"/><path d="M155.239,337.335l-6.138-3.533c2.191-27.897,3.34-55.402,2.393-81.602-.34-12.022-1.406-24.012-3.191-35.906" fill="none" stroke="#ff2a50" stroke-miterlimit="10"/><path d="M177.43,324.489l-6.128-3.532c-.355-3.84-.674-7.698-.957-11.573-1.994-24.929-2.452-49.956-1.373-74.941.514-12.428,1.682-24.82,3.5-37.125" fill="none" stroke="#ff2a50" stroke-miterlimit="10"/><path d="M146.069,204.7l6.138,3.533" fill="none" stroke="#ff2a50" stroke-miterlimit="10"/><path d="M174.111,187.4l6.138,3.532" fill="none" stroke="#ff2a50" stroke-miterlimit="10"/><path d="M175.185,137.821l-6.138-3.532c-1.014-.641-2.193-.972-3.393-.953s-2.369.387-3.362,1.059c-7.361,4.243-13.319,19.942-13.319,35.099c0,10.862,3.405,18.436,9.766,22.011l6.127,3.532" fill="none" stroke="#ff2a50" stroke-miterlimit="10"/><path d="M217.875,135.127l-6.138-3.575c-5.202-2.991-16.957,7.616-26.265,23.686-1.479,2.554-2.828,5.181-4.043,7.871" fill="none" stroke="#ff2a50" stroke-miterlimit="10"/><path d="M125.261,217.471l-6.138-3.532c-8.436-5.632-11.297-16.664-6.287-25.266c5.213-8.974,16.957-11.913,26.265-6.556l6.138,3.532" fill="none" stroke="#ff2a50" stroke-miterlimit="10"/><g style="mix-blend-mode:multiply" opacity="0.25" filter="url(#eh0CbxcDzPy50-filter)"><path d="M208.528,344.025c11.329-12.587,15.642-25.738,15.61-40.919.18-45.198,26.956-90.562,26.956-90.562c7.343-14.991,10.83-31.664,10.13-48.432s-5.564-33.073-14.129-47.362c-8.564-14.29-20.545-26.0875-34.8-34.2707C198.039,74.2961,181.984,70,165.656,70s-32.384,4.2961-46.639,12.4793-26.2359,19.9807-34.8005,34.2707c-8.5647,14.289-13.4286,30.594-14.1285,47.362s2.7873,33.441,10.1297,48.432c0,0,26.7653,45.374,26.9563,90.562-.029,15.182,4.287,28.333,15.62,40.919" fill="#ff2a50"/></g></g><g id="eh0CbxcDzPy52" style="mix-blend-mode:multiply" transform="translate(.344002-13.193535)"><path d="M162.122,303.29c2.51-.1,5-.08,7.54.06" fill="none" stroke="#2ab2ff" stroke-miterlimit="10"/><path d="M179.392,304.5c6.603,1.131,12.966,3.373,18.82,6.63c18.15,10.48,18.26,27.41.24,37.81s-47.34,10.34-65.49-.14-18.26-27.4-.24-37.81c6.063-3.362,12.671-5.626,19.52-6.69" fill="none" stroke="#2ab2ff" stroke-miterlimit="10"/><path d="M128.362,387.37c3.557,6.808,8.913,12.511,15.486,16.488c6.572,3.976,14.11,6.074,21.792,6.065c7.681-.01,15.214-2.126,21.777-6.118s11.905-9.708,15.445-16.525" fill="#2ab2ff"/><path d="M128.362,387.37c3.557,6.808,8.913,12.511,15.486,16.488c6.572,3.976,14.11,6.074,21.792,6.065c7.681-.01,15.214-2.126,21.777-6.118s11.905-9.708,15.445-16.525" fill="none" stroke="#2ab2ff" stroke-miterlimit="10"/><path d="M218.622,358.37c1.27,11.61-5.55,23.11-15.71,29s-23.61,8.94-37,9c-13.61,0-27.25-3-37.68-9-10.15-5.86-17-17.35-15.71-29" fill="#fff"/><path d="M218.622,358.37c1.27,11.61-5.55,23.11-15.71,29s-23.61,8.94-37,9c-13.61,0-27.25-3-37.68-9-10.15-5.86-17-17.35-15.71-29" fill="none" stroke="#2ab2ff" stroke-miterlimit="10"/><path d="M218.622,358.42c.53,8.18-4.58,16.44-15.36,22.66-20.63,11.91-54.2,11.84-75-.16-10.73-6.19-16-14.36-15.65-22.44" fill="#fff"/><path d="M218.622,358.42c.53,8.18-4.58,16.44-15.36,22.66-20.63,11.91-54.2,11.84-75-.16-10.73-6.19-16-14.36-15.65-22.44" fill="none" stroke="#2ab2ff" stroke-miterlimit="10"/><path d="M220.812,342.57c1.93,12.51-5.31,25.09-16.26,31.41-10.7,6.18-24.66,9.34-38.64,9.45-14.21,0-28.46-3.16-39.35-9.45s-18.19-18.9-16.25-31.41" fill="#fff"/><path d="M220.812,342.57c1.93,12.51-5.31,25.09-16.26,31.41-10.7,6.18-24.66,9.34-38.64,9.45-14.21,0-28.46-3.16-39.35-9.45s-18.19-18.9-16.25-31.41" fill="none" stroke="#2ab2ff" stroke-miterlimit="10"/><path d="M220.092,339.37c3.09,9.93-2,20.51-15.2,28.14-21.55,12.45-56.62,12.37-78.33-.16-13.29-7.67-18.49-18.24-15.58-28.13" fill="#fff"/><path d="M220.092,339.37c3.09,9.93-2,20.51-15.2,28.14-21.55,12.45-56.62,12.37-78.33-.16-13.29-7.67-18.49-18.24-15.58-28.13" fill="none" stroke="#2ab2ff" stroke-miterlimit="10"/><path d="M220.5,328.98c1.928,12.56-5.159,24.18-16.097,30.52-10.688,6.2-24.632,9.36-38.597,9.48-14.194,0-28.428-3.17-39.306-9.48s-17.982-17.96-16.044-30.52" fill="#fff"/><path d="M220.5,328.98c1.928,12.56-5.159,24.18-16.097,30.52-10.688,6.2-24.632,9.36-38.597,9.48-14.194,0-28.428-3.17-39.306-9.48s-17.982-17.96-16.044-30.52" fill="none" stroke="#2ab2ff" stroke-linejoin="round" stroke-miterlimit="10"/><path d="M220.5,330c0,8.582-6.037,16.447-16.005,22.194-9.955,5.74-23.741,9.306-38.995,9.306s-29.04-3.566-38.995-9.306C116.537,346.447,110.5,338.582,110.5,330s6.037-16.447,16.005-22.194c9.955-5.74,23.741-9.306,38.995-9.306s29.04,3.566,38.995,9.306C214.463,313.553,220.5,321.418,220.5,330Z" fill="#fff" stroke="#2ab2ff"/><path d="M211.953,329.693c.094-14.869-20.766-27.054-46.592-27.216s-46.839,11.761-46.932,26.63c-.094,14.87,20.766,27.055,46.592,27.217c25.827.162,46.839-11.761,46.932-26.631Z" fill="#2ab2ff" stroke="#2ab2ff" stroke-miterlimit="10"/><path d="M208.12,340.203c10.033-10.747,15.596-24.893,15.564-39.576.18-43.715,26.877-87.59,26.877-87.59c7.321-14.499,10.798-30.625,10.1-46.843s-5.548-31.988-14.087-45.808c-8.54-13.82-20.485-25.231-34.698-33.1456-14.214-7.9147-30.222-12.0698-46.502-12.0698-16.279,0-32.288,4.1551-46.501,12.0698-14.214,7.9146-26.1589,19.3256-34.6984,33.1456s-13.389,29.59-14.0869,45.808s2.7791,32.344,10.0999,46.843c0,0,26.6864,43.885,26.8764,87.59-.028,14.684,5.539,28.83,15.574,39.576" fill="none" stroke="#2ab2ff" stroke-miterlimit="10"/><path d="M153.912,187.34l6.373,5.31-3.187-6.372-1.062-4.249-1.062-8.497l1.062-8.497l2.124-10.621l2.125-5.311l4.248-7.435l5.311-4.248h5.31l-2.124-1.062-4.248-2.125-3.187-1.062-3.186,1.062-4.249,4.249-4.248,6.373-2.124,6.372-2.125,8.497-1.062,9.56l1.062,8.497l4.249,9.559Z" fill="#fff"/><path d="M170.906,150.165l-2.124-6.372l4.248,1.062l2.125,3.186l2.124,6.373v9.559l-1.292,8.116-2.957,7.816-4.024,8.763-5.235,7.853-6.673,7.813-3.186-7.435l2.124-2.124l7.435-10.622l3.187-6.372l2.124-6.373l2.124-8.497v-12.746Z" fill="#fff"/><path d="M117.8,212.831l4.96,2.887-4.96-7.136-1.062-4.248v-6.373l2.124-5.311l4.248-5.31l5.311-3.187l6.373-1.062l7.435,1.062-1.063-1.062-5.317-2.276-6.108-1.745-5.189.835-3.566,1.062-6.373,5.311-3.186,4.627-1.062,9.18l2.797,7.779l4.638,4.967Z" fill="#fff"/><path d="M143.291,195.837l-3.952-6.297l3.49,1.746l4.71,4.551l3.187,6.372l1.062,4.249v2.124l-1.106,1.027-6.329,3.222-8.497,2.124-4.249-1.062-4.484-2.538v-.648h6.108l6.873-2.125l6.215-4.208-1.966-5.351-1.062-3.186Z" fill="#fff"/><path d="M171.968,190.526l2.124-3.186l5.311,3.186-4.249,1.062-3.186-1.062Z" fill="#fff"/><path d="M186.458,181.687l-1.746,7.853l7.436-4.324l6.526-5.274l6.108-7.853l5.235-8.726l3.49-7.853l2.008-8.531-1.062-4.249-1.818-1.181-3.491,1.745-.872,4.363-2.316,7.819-4.665,9.632-5.235,6.981-4.97,5.692-4.628,3.906Z" fill="#fff"/><path d="M174.092,187.34l6.373,3.186l4.249-16.994l6.372-13.808l9.559-13.807l11.684-10.621l4.248-1.063-5.31-3.186h-3.187l-4.248,2.124-6.373,5.311-7.435,9.559-7.435,12.746-3.186,14.869-5.311,11.684Z" fill="#fff"/><path d="M171.624,321.298l5.655,3.056-1.292-20.507-.833-19.854-.912-17.666.912-18.446l1.063-26.553l3.186-24.429-6.906.495-2.653,21.81-1.062,28.677-.648,17.573.648,18.539l1.097,19.854l1.745,17.451Z" fill="#fff"/><path d="M148.937,333.514l6.108,3.491.873-11.344l1.745-34.902v-17.452l-.565-30.737L153.3,213.1l-4.699,2.917l2.081,20.642c.873,14.834.873,27.922.873,27.922s.371,12.438,0,27.923c-.341,14.202-1.365,30.157-2.618,41.01Z" fill="#fff"/><path d="M176.217,191.588l4.248-1.062-1.062,6.373h-2.124-8.497l3.186-6.373l4.249,1.062Z" fill="#fff"/><path d="M157.098,204.334l7.435-9.559-6.373-6.373-3.186-12.746l1.062-14.869l4.249-12.746l5.31-7.435l4.249-3.186h4.248l4.249,4.248l3.186,8.497v9.559v5.311l-2.124,8.497-2.124,6.373-2.124,4.248-4.249,8.497-5.311,7.435-5.31,6.373-4.249,4.249-7.435,5.31-10.621,4.249h-6.373l-7.435-3.187-5.31-6.372-2.124-7.435v-6.373l3.186-6.373l4.248-4.248l4.249-2.125l4.248-1.062h7.435l5.311,2.125l4.248,4.248l3.187,5.311l3.186,6.372l1.062,3.187Zm5.8-19.118l5.536,4.324l1.41-2.2l2.124-4.249l2.124-5.31l1.062-4.249l2.125-7.435v-10.621l-1.063-6.373-3.186-4.248-4.248-1.062-5.311,6.372-3.186,10.622-1.063,9.559l1.063,8.497l2.613,6.373Zm-13.235,13.807l2.125,8.497-1.062,2.124-4.249,2.125-4.248,2.124-5.311,1.062-6.373-1.062-5.31-4.249-3.187-5.31-1.062-5.311l2.647-5.992l4.788-3.567l6.373-1.062l6.372,2.124l4.249,3.186l4.248,5.311Z" clip-rule="evenodd" fill="#fff" fill-rule="evenodd"/><path d="M184.6,189.574c4.581-1.926,8.757-4.697,12.308-8.168c4.12-3.959,7.661-8.476,10.52-13.418c7.085-12.23,9.968-23.792,6.447-25.861-3.521-2.068-12.138,6.248-19.233,18.489-6.713,11.594-9.181,23.336-11.053,34.835v.191c-2.459,15.771-3.915,31.682-4.362,47.637-.805,26.306-.006,52.636,2.394,78.845l-4.159,2.386c-.341-3.84-.656-7.697-.947-11.572-1.999-24.94-2.461-49.978-1.383-74.973.59-13.815,1.975-27.585,4.149-41.242.184-1.124.375-2.248.574-3.373.138-.827.298-1.654.457-2.471c2.054-10.745,5.043-21.088,11.383-32.066c9.298-16.07,21.063-26.678,26.265-23.686c5.202,2.991,1.862,18.456-7.447,34.527-3.166,5.574-7.03,10.725-11.499,15.327-4.321,4.513-9.553,8.06-15.351,10.406" fill="#fff"/><path d="M155.045,337.005l4.363-1.745.872-14.834l1.746-24.432.383-21.56-.383-19.451-.873-22.687-3.49-22.686-4.363,3.49l3.798,26.284c1.062,38.237,0,64.79,0,64.79s-.991,25.75-2.053,32.831Z" fill="#fff"/><path d="M186.344,181.576c1.548-1.152,3.026-2.396,4.426-3.723c4.12-3.959,7.661-8.476,10.52-13.418c4.862-8.401,7.745-16.484,7.936-21.385" fill="none" stroke="#2ab2ff" stroke-miterlimit="10"/><path d="M163.1,184.663c2.421-4.27,4.375-8.786,5.83-13.471c1.495-4.704,2.301-9.599,2.394-14.532c0-5.304-.851-9.611-2.245-12.475" fill="none" stroke="#2ab2ff" stroke-miterlimit="10"/><path d="M154.314,197.084c1.568-1.773,3.045-3.625,4.425-5.547" fill="none" stroke="#2ab2ff" stroke-miterlimit="10"/><path d="M126.261,210.587c2.513.624,5.137.645,7.66.064c4.432-1.063,8.579-3.08,12.148-5.908v0c-1.489-6.184-3.542-11.806-7.319-15.381" fill="none" stroke="#2ab2ff" stroke-miterlimit="10"/><path d="M164.866,195.037c-6.382-3.575-9.765-11.148-9.765-22.01c0-15.158,5.968-30.868,13.318-35.1c7.351-4.232,13.319,4.614,13.319,19.772c0,10.851-3.436,22.371-9.766,33.254-1.12,1.909-2.304,3.769-3.553,5.58-.68.986-1.372,1.941-2.127,2.917-2.617,3.49-5.528,6.751-8.702,9.748-1.436,1.347-2.904,2.599-4.383,3.744-5.149,4.01-10.446,6.513-15.35,7.256-3.964.628-8.024-.121-11.5-2.122-9.308-5.367-12.638-16.972-7.446-25.967c5.191-8.995,17.02-11.869,26.328-6.46c6.383,3.639,9.34,10.608,11.383,18.956" fill="none" stroke="#2ab2ff" stroke-miterlimit="10"/><path d="M179.217,196.777c-2.853.649-5.804.739-8.691.265-.718-.128-1.428-.295-2.128-.499" fill="none" stroke="#2ab2ff" stroke-miterlimit="10"/><path d="M184.6,189.574c4.581-1.926,8.757-4.697,12.308-8.168c4.12-3.959,7.661-8.476,10.52-13.418c7.085-12.23,9.968-23.792,6.447-25.861-3.521-2.068-12.138,6.248-19.233,18.489-6.713,11.594-9.181,23.336-11.053,34.835v.191c-2.459,15.771-3.915,31.682-4.362,47.637-.805,26.306-.006,52.636,2.394,78.845l-4.159,2.386c-.341-3.84-.656-7.697-.947-11.572-1.999-24.94-2.461-49.978-1.383-74.973.59-13.815,1.975-27.585,4.149-41.242.184-1.124.375-2.248.574-3.373.138-.827.298-1.654.457-2.471c2.054-10.745,5.043-21.088,11.383-32.066c9.298-16.07,21.063-26.678,26.265-23.686c5.202,2.991,1.862,18.456-7.447,34.527-3.166,5.574-7.03,10.725-11.499,15.327-4.321,4.513-9.553,8.06-15.351,10.406" fill="none" stroke="#2ab2ff" stroke-linejoin="round" stroke-miterlimit="10"/><path d="M171.972,190.953c2.724.621,5.553.621,8.277,0" fill="none" stroke="#2ab2ff" stroke-miterlimit="10"/><path d="M152.207,208.232c-1.808-7.531-4.457-14.213-10.021-17.406-7.084-4.084-15.68-2.45-19.233,3.649s-.638,14.33,6.447,18.435c3.268,1.713,7.055,2.166,10.638,1.273c4.541-1.105,8.78-3.199,12.414-6.131c1.435-1.084,2.809-2.245,4.117-3.479c3.063-2.907,5.835-6.104,8.276-9.547c1.255-1.76,2.447-3.585,3.553-5.462c2.794-4.673,5.026-9.657,6.649-14.851c1.491-4.704,2.294-9.599,2.383-14.532c0-11.541-4.043-18.563-9.032-15.688s-9.031,14.543-9.031,26.083c-.063,4.046.757,8.056,2.404,11.753c1.362,3.06,3.689,5.593,6.627,7.213" fill="none" stroke="#2ab2ff" stroke-miterlimit="10"/><path d="M157.622,209.208c2.266,12.04,3.645,24.228,4.127,36.468c1.234,24.525.426,50.364-1.383,76.554-.29,4.243-.606,8.486-.946,12.729l-4.181,2.376c2.191-27.898,3.34-55.403,2.383-81.603-.543-14.797-1.692-29.329-4.351-42.62v-.149" fill="none" stroke="#2ab2ff" stroke-linejoin="round" stroke-miterlimit="10"/><path d="M155.239,337.335l-6.138-3.533c2.191-27.897,3.34-55.402,2.393-81.602-.34-12.022-1.406-24.012-3.191-35.906" fill="none" stroke="#2ab2ff" stroke-miterlimit="10"/><path d="M177.43,324.489l-6.128-3.532c-.355-3.84-.674-7.698-.957-11.573-1.994-24.929-2.452-49.956-1.373-74.941.514-12.428,1.682-24.82,3.5-37.125" fill="none" stroke="#2ab2ff" stroke-miterlimit="10"/><path d="M146.069,204.7l6.138,3.533" fill="none" stroke="#2ab2ff" stroke-miterlimit="10"/><path d="M174.111,187.4l6.138,3.532" fill="none" stroke="#2ab2ff" stroke-miterlimit="10"/><path d="M175.185,137.821l-6.138-3.532c-1.014-.641-2.193-.972-3.393-.953s-2.369.387-3.362,1.059c-7.361,4.243-13.319,19.942-13.319,35.099c0,10.862,3.405,18.436,9.766,22.011l6.127,3.532" fill="none" stroke="#2ab2ff" stroke-miterlimit="10"/><path d="M217.875,135.127l-6.138-3.575c-5.202-2.991-16.957,7.616-26.265,23.686-1.479,2.554-2.828,5.181-4.043,7.871" fill="none" stroke="#2ab2ff" stroke-miterlimit="10"/><path d="M125.261,217.471l-6.138-3.532c-8.436-5.632-11.297-16.664-6.287-25.266c5.213-8.974,16.957-11.913,26.265-6.556l6.138,3.532" fill="none" stroke="#2ab2ff" stroke-miterlimit="10"/><g style="mix-blend-mode:multiply" opacity="0.25"><path d="M208.528,344.025c11.329-12.587,15.642-25.738,15.61-40.919.18-45.198,26.956-90.562,26.956-90.562c7.343-14.991,10.83-31.664,10.13-48.432s-5.564-33.073-14.129-47.362c-8.564-14.29-20.545-26.0875-34.8-34.2707C198.039,74.2961,181.984,70,165.656,70s-32.384,4.2961-46.639,12.4793-26.2359,19.9807-34.8005,34.2707c-8.5647,14.289-13.4286,30.594-14.1285,47.362s2.7873,33.441,10.1297,48.432c0,0,26.7653,45.374,26.9563,90.562-.029,15.182,4.287,28.333,15.62,40.919" filter="url(#eh0CbxcDzPy101-filter)" fill="#2ab2ff"/></g></g><g id="eh0CbxcDzPy102" style="mix-blend-mode:multiply" transform="translate(.344002-13.193535)" opacity="0"><path d="M162.122,303.29c2.51-.1,5-.08,7.54.06" fill="none" stroke="#ffe100" stroke-miterlimit="10"/><path d="M179.392,304.5c6.603,1.131,12.966,3.373,18.82,6.63c18.15,10.48,18.26,27.41.24,37.81s-47.34,10.34-65.49-.14-18.26-27.4-.24-37.81c6.063-3.362,12.671-5.626,19.52-6.69" fill="none" stroke="#ffe100" stroke-miterlimit="10"/><path d="M128.362,387.37c3.557,6.808,8.913,12.511,15.486,16.488c6.572,3.976,14.11,6.074,21.792,6.065c7.681-.01,15.214-2.126,21.777-6.118s11.905-9.708,15.445-16.525" fill="#ffe100"/><path d="M128.362,387.37c3.557,6.808,8.913,12.511,15.486,16.488c6.572,3.976,14.11,6.074,21.792,6.065c7.681-.01,15.214-2.126,21.777-6.118s11.905-9.708,15.445-16.525" fill="none" stroke="#ffe100" stroke-miterlimit="10"/><path d="M218.622,358.37c1.27,11.61-5.55,23.11-15.71,29s-23.61,8.94-37,9c-13.61,0-27.25-3-37.68-9-10.15-5.86-17-17.35-15.71-29" fill="#fff"/><path d="M218.622,358.37c1.27,11.61-5.55,23.11-15.71,29s-23.61,8.94-37,9c-13.61,0-27.25-3-37.68-9-10.15-5.86-17-17.35-15.71-29" fill="none" stroke="#ffe100" stroke-miterlimit="10"/><path d="M218.622,358.42c.53,8.18-4.58,16.44-15.36,22.66-20.63,11.91-54.2,11.84-75-.16-10.73-6.19-16-14.36-15.65-22.44" fill="#fff"/><path d="M218.622,358.42c.53,8.18-4.58,16.44-15.36,22.66-20.63,11.91-54.2,11.84-75-.16-10.73-6.19-16-14.36-15.65-22.44" fill="none" stroke="#ffe100" stroke-miterlimit="10"/><path d="M220.812,342.57c1.93,12.51-5.31,25.09-16.26,31.41-10.7,6.18-24.66,9.34-38.64,9.45-14.21,0-28.46-3.16-39.35-9.45s-18.19-18.9-16.25-31.41" fill="#fff"/><path d="M220.812,342.57c1.93,12.51-5.31,25.09-16.26,31.41-10.7,6.18-24.66,9.34-38.64,9.45-14.21,0-28.46-3.16-39.35-9.45s-18.19-18.9-16.25-31.41" fill="none" stroke="#ffe100" stroke-miterlimit="10"/><path d="M220.092,339.37c3.09,9.93-2,20.51-15.2,28.14-21.55,12.45-56.62,12.37-78.33-.16-13.29-7.67-18.49-18.24-15.58-28.13" fill="#fff"/><path d="M220.092,339.37c3.09,9.93-2,20.51-15.2,28.14-21.55,12.45-56.62,12.37-78.33-.16-13.29-7.67-18.49-18.24-15.58-28.13" fill="none" stroke="#ffe100" stroke-miterlimit="10"/><path d="M220.5,328.98c1.928,12.56-5.159,24.18-16.097,30.52-10.688,6.2-24.632,9.36-38.597,9.48-14.194,0-28.428-3.17-39.306-9.48s-17.982-17.96-16.044-30.52" fill="#fff"/><path d="M220.5,328.98c1.928,12.56-5.159,24.18-16.097,30.52-10.688,6.2-24.632,9.36-38.597,9.48-14.194,0-28.428-3.17-39.306-9.48s-17.982-17.96-16.044-30.52" fill="none" stroke="#ffe100" stroke-linejoin="round" stroke-miterlimit="10"/><path d="M220.5,330c0,8.582-6.037,16.447-16.005,22.194-9.955,5.74-23.741,9.306-38.995,9.306s-29.04-3.566-38.995-9.306C116.537,346.447,110.5,338.582,110.5,330s6.037-16.447,16.005-22.194c9.955-5.74,23.741-9.306,38.995-9.306s29.04,3.566,38.995,9.306C214.463,313.553,220.5,321.418,220.5,330Z" fill="#fff" stroke="#ffe100"/><path d="M211.953,329.693c.094-14.869-20.766-27.054-46.592-27.216s-46.839,11.761-46.932,26.63c-.094,14.87,20.766,27.055,46.592,27.217c25.827.162,46.839-11.761,46.932-26.631Z" fill="#ffe100" stroke="#ffe100" stroke-miterlimit="10"/><path d="M208.12,340.203c10.033-10.747,15.596-24.893,15.564-39.576.18-43.715,26.877-87.59,26.877-87.59c7.321-14.499,10.798-30.625,10.1-46.843s-5.548-31.988-14.087-45.808c-8.54-13.82-20.485-25.231-34.698-33.1456-14.214-7.9147-30.222-12.0698-46.502-12.0698-16.279,0-32.288,4.1551-46.501,12.0698-14.214,7.9146-26.1589,19.3256-34.6984,33.1456s-13.389,29.59-14.0869,45.808s2.7791,32.344,10.0999,46.843c0,0,26.6864,43.885,26.8764,87.59-.028,14.684,5.539,28.83,15.574,39.576" fill="none" stroke="#ffe100" stroke-miterlimit="10"/><path d="M153.912,187.34l6.373,5.31-3.187-6.372-1.062-4.249-1.062-8.497l1.062-8.497l2.124-10.621l2.125-5.311l4.248-7.435l5.311-4.248h5.31l-2.124-1.062-4.248-2.125-3.187-1.062-3.186,1.062-4.249,4.249-4.248,6.373-2.124,6.372-2.125,8.497-1.062,9.56l1.062,8.497l4.249,9.559Z" fill="#fff"/><path d="M170.906,150.165l-2.124-6.372l4.248,1.062l2.125,3.186l2.124,6.373v9.559l-1.292,8.116-2.957,7.816-4.024,8.763-5.235,7.853-6.673,7.813-3.186-7.435l2.124-2.124l7.435-10.622l3.187-6.372l2.124-6.373l2.124-8.497v-12.746Z" fill="#fff"/><path d="M117.8,212.831l4.96,2.887-4.96-7.136-1.062-4.248v-6.373l2.124-5.311l4.248-5.31l5.311-3.187l6.373-1.062l7.435,1.062-1.063-1.062-5.317-2.276-6.108-1.745-5.189.835-3.566,1.062-6.373,5.311-3.186,4.627-1.062,9.18l2.797,7.779l4.638,4.967Z" fill="#fff"/><path d="M143.291,195.837l-3.952-6.297l3.49,1.746l4.71,4.551l3.187,6.372l1.062,4.249v2.124l-1.106,1.027-6.329,3.222-8.497,2.124-4.249-1.062-4.484-2.538v-.648h6.108l6.873-2.125l6.215-4.208-1.966-5.351-1.062-3.186Z" fill="#fff"/><path d="M171.968,190.526l2.124-3.186l5.311,3.186-4.249,1.062-3.186-1.062Z" fill="#fff"/><path d="M186.458,181.687l-1.746,7.853l7.436-4.324l6.526-5.274l6.108-7.853l5.235-8.726l3.49-7.853l2.008-8.531-1.062-4.249-1.818-1.181-3.491,1.745-.872,4.363-2.316,7.819-4.665,9.632-5.235,6.981-4.97,5.692-4.628,3.906Z" fill="#fff"/><path d="M174.092,187.34l6.373,3.186l4.249-16.994l6.372-13.808l9.559-13.807l11.684-10.621l4.248-1.063-5.31-3.186h-3.187l-4.248,2.124-6.373,5.311-7.435,9.559-7.435,12.746-3.186,14.869-5.311,11.684Z" fill="#fff"/><path d="M171.624,321.298l5.655,3.056-1.292-20.507-.833-19.854-.912-17.666.912-18.446l1.063-26.553l3.186-24.429-6.906.495-2.653,21.81-1.062,28.677-.648,17.573.648,18.539l1.097,19.854l1.745,17.451Z" fill="#fff"/><path d="M148.937,333.514l6.108,3.491.873-11.344l1.745-34.902v-17.452l-.565-30.737L153.3,213.1l-4.699,2.917l2.081,20.642c.873,14.834.873,27.922.873,27.922s.371,12.438,0,27.923c-.341,14.202-1.365,30.157-2.618,41.01Z" fill="#fff"/><path d="M176.217,191.588l4.248-1.062-1.062,6.373h-2.124-8.497l3.186-6.373l4.249,1.062Z" fill="#fff"/><path d="M157.098,204.334l7.435-9.559-6.373-6.373-3.186-12.746l1.062-14.869l4.249-12.746l5.31-7.435l4.249-3.186h4.248l4.249,4.248l3.186,8.497v9.559v5.311l-2.124,8.497-2.124,6.373-2.124,4.248-4.249,8.497-5.311,7.435-5.31,6.373-4.249,4.249-7.435,5.31-10.621,4.249h-6.373l-7.435-3.187-5.31-6.372-2.124-7.435v-6.373l3.186-6.373l4.248-4.248l4.249-2.125l4.248-1.062h7.435l5.311,2.125l4.248,4.248l3.187,5.311l3.186,6.372l1.062,3.187Zm5.8-19.118l5.536,4.324l1.41-2.2l2.124-4.249l2.124-5.31l1.062-4.249l2.125-7.435v-10.621l-1.063-6.373-3.186-4.248-4.248-1.062-5.311,6.372-3.186,10.622-1.063,9.559l1.063,8.497l2.613,6.373Zm-13.235,13.807l2.125,8.497-1.062,2.124-4.249,2.125-4.248,2.124-5.311,1.062-6.373-1.062-5.31-4.249-3.187-5.31-1.062-5.311l2.647-5.992l4.788-3.567l6.373-1.062l6.372,2.124l4.249,3.186l4.248,5.311Z" clip-rule="evenodd" fill="#fff" fill-rule="evenodd"/><path d="M184.6,189.574c4.581-1.926,8.757-4.697,12.308-8.168c4.12-3.959,7.661-8.476,10.52-13.418c7.085-12.23,9.968-23.792,6.447-25.861-3.521-2.068-12.138,6.248-19.233,18.489-6.713,11.594-9.181,23.336-11.053,34.835v.191c-2.459,15.771-3.915,31.682-4.362,47.637-.805,26.306-.006,52.636,2.394,78.845l-4.159,2.386c-.341-3.84-.656-7.697-.947-11.572-1.999-24.94-2.461-49.978-1.383-74.973.59-13.815,1.975-27.585,4.149-41.242.184-1.124.375-2.248.574-3.373.138-.827.298-1.654.457-2.471c2.054-10.745,5.043-21.088,11.383-32.066c9.298-16.07,21.063-26.678,26.265-23.686c5.202,2.991,1.862,18.456-7.447,34.527-3.166,5.574-7.03,10.725-11.499,15.327-4.321,4.513-9.553,8.06-15.351,10.406" fill="#fff"/><path d="M155.045,337.005l4.363-1.745.872-14.834l1.746-24.432.383-21.56-.383-19.451-.873-22.687-3.49-22.686-4.363,3.49l3.798,26.284c1.062,38.237,0,64.79,0,64.79s-.991,25.75-2.053,32.831Z" fill="#fff"/><path d="M186.344,181.576c1.548-1.152,3.026-2.396,4.426-3.723c4.12-3.959,7.661-8.476,10.52-13.418c4.862-8.401,7.745-16.484,7.936-21.385" fill="none" stroke="#ffe100" stroke-miterlimit="10"/><path d="M163.1,184.663c2.421-4.27,4.375-8.786,5.83-13.471c1.495-4.704,2.301-9.599,2.394-14.532c0-5.304-.851-9.611-2.245-12.475" fill="none" stroke="#ffe100" stroke-miterlimit="10"/><path d="M154.314,197.084c1.568-1.773,3.045-3.625,4.425-5.547" fill="none" stroke="#ffe100" stroke-miterlimit="10"/><path d="M126.261,210.587c2.513.624,5.137.645,7.66.064c4.432-1.063,8.579-3.08,12.148-5.908v0c-1.489-6.184-3.542-11.806-7.319-15.381" fill="none" stroke="#ffe100" stroke-miterlimit="10"/><path d="M164.866,195.037c-6.382-3.575-9.765-11.148-9.765-22.01c0-15.158,5.968-30.868,13.318-35.1c7.351-4.232,13.319,4.614,13.319,19.772c0,10.851-3.436,22.371-9.766,33.254-1.12,1.909-2.304,3.769-3.553,5.58-.68.986-1.372,1.941-2.127,2.917-2.617,3.49-5.528,6.751-8.702,9.748-1.436,1.347-2.904,2.599-4.383,3.744-5.149,4.01-10.446,6.513-15.35,7.256-3.964.628-8.024-.121-11.5-2.122-9.308-5.367-12.638-16.972-7.446-25.967c5.191-8.995,17.02-11.869,26.328-6.46c6.383,3.639,9.34,10.608,11.383,18.956" fill="none" stroke="#ffe100" stroke-miterlimit="10"/><path d="M179.217,196.777c-2.853.649-5.804.739-8.691.265-.718-.128-1.428-.295-2.128-.499" fill="none" stroke="#ffe100" stroke-miterlimit="10"/><path d="M184.6,189.574c4.581-1.926,8.757-4.697,12.308-8.168c4.12-3.959,7.661-8.476,10.52-13.418c7.085-12.23,9.968-23.792,6.447-25.861-3.521-2.068-12.138,6.248-19.233,18.489-6.713,11.594-9.181,23.336-11.053,34.835v.191c-2.459,15.771-3.915,31.682-4.362,47.637-.805,26.306-.006,52.636,2.394,78.845l-4.159,2.386c-.341-3.84-.656-7.697-.947-11.572-1.999-24.94-2.461-49.978-1.383-74.973.59-13.815,1.975-27.585,4.149-41.242.184-1.124.375-2.248.574-3.373.138-.827.298-1.654.457-2.471c2.054-10.745,5.043-21.088,11.383-32.066c9.298-16.07,21.063-26.678,26.265-23.686c5.202,2.991,1.862,18.456-7.447,34.527-3.166,5.574-7.03,10.725-11.499,15.327-4.321,4.513-9.553,8.06-15.351,10.406" fill="none" stroke="#ffe100" stroke-linejoin="round" stroke-miterlimit="10"/><path d="M171.972,190.953c2.724.621,5.553.621,8.277,0" fill="none" stroke="#ffe100" stroke-miterlimit="10"/><path d="M152.207,208.232c-1.808-7.531-4.457-14.213-10.021-17.406-7.084-4.084-15.68-2.45-19.233,3.649s-.638,14.33,6.447,18.435c3.268,1.713,7.055,2.166,10.638,1.273c4.541-1.105,8.78-3.199,12.414-6.131c1.435-1.084,2.809-2.245,4.117-3.479c3.063-2.907,5.835-6.104,8.276-9.547c1.255-1.76,2.447-3.585,3.553-5.462c2.794-4.673,5.026-9.657,6.649-14.851c1.491-4.704,2.294-9.599,2.383-14.532c0-11.541-4.043-18.563-9.032-15.688s-9.031,14.543-9.031,26.083c-.063,4.046.757,8.056,2.404,11.753c1.362,3.06,3.689,5.593,6.627,7.213" fill="none" stroke="#ffe100" stroke-miterlimit="10"/><path d="M157.622,209.208c2.266,12.04,3.645,24.228,4.127,36.468c1.234,24.525.426,50.364-1.383,76.554-.29,4.243-.606,8.486-.946,12.729l-4.181,2.376c2.191-27.898,3.34-55.403,2.383-81.603-.543-14.797-1.692-29.329-4.351-42.62v-.149" fill="none" stroke="#ffe100" stroke-linejoin="round" stroke-miterlimit="10"/><path d="M155.239,337.335l-6.138-3.533c2.191-27.897,3.34-55.402,2.393-81.602-.34-12.022-1.406-24.012-3.191-35.906" fill="none" stroke="#ffe100" stroke-miterlimit="10"/><path d="M177.43,324.489l-6.128-3.532c-.355-3.84-.674-7.698-.957-11.573-1.994-24.929-2.452-49.956-1.373-74.941.514-12.428,1.682-24.82,3.5-37.125" fill="none" stroke="#ffe100" stroke-miterlimit="10"/><path d="M146.069,204.7l6.138,3.533" fill="none" stroke="#ffe100" stroke-miterlimit="10"/><path d="M174.111,187.4l6.138,3.532" fill="none" stroke="#ffe100" stroke-miterlimit="10"/><path d="M175.185,137.821l-6.138-3.532c-1.014-.641-2.193-.972-3.393-.953s-2.369.387-3.362,1.059c-7.361,4.243-13.319,19.942-13.319,35.099c0,10.862,3.405,18.436,9.766,22.011l6.127,3.532" fill="none" stroke="#ffe100" stroke-miterlimit="10"/><path d="M217.875,135.127l-6.138-3.575c-5.202-2.991-16.957,7.616-26.265,23.686-1.479,2.554-2.828,5.181-4.043,7.871" fill="none" stroke="#ffe100" stroke-miterlimit="10"/><path d="M125.261,217.471l-6.138-3.532c-8.436-5.632-11.297-16.664-6.287-25.266c5.213-8.974,16.957-11.913,26.265-6.556l6.138,3.532" fill="none" stroke="#ffe100" stroke-miterlimit="10"/><g style="mix-blend-mode:multiply" opacity="0.25" filter="url(#eh0CbxcDzPy150-filter)"><path d="M208.528,344.025c11.329-12.587,15.642-25.738,15.61-40.919.18-45.198,26.956-90.562,26.956-90.562c7.343-14.991,10.83-31.664,10.13-48.432s-5.564-33.073-14.129-47.362c-8.564-14.29-20.545-26.0875-34.8-34.2707C198.039,74.2961,181.984,70,165.656,70s-32.384,4.2961-46.639,12.4793-26.2359,19.9807-34.8005,34.2707c-8.5647,14.289-13.4286,30.594-14.1285,47.362s2.7873,33.441,10.1297,48.432c0,0,26.7653,45.374,26.9563,90.562-.029,15.182,4.287,28.333,15.62,40.919" fill="#ffe100"/></g></g></svg>