<svg id="e7qdoiIOsz51" xmlns="http://www.w3.org/2000/svg" xmlns:xlink="http://www.w3.org/1999/xlink" viewBox="0 0 154 154" shape-rendering="geometricPrecision" text-rendering="geometricPrecision">
<style><![CDATA[
#e7qdoiIOsz52_to {animation: e7qdoiIOsz52_to__to 3000ms linear infinite normal forwards}@keyframes e7qdoiIOsz52_to__to { 0% {transform: translate(76.674498px,71.576802px);animation-timing-function: cubic-bezier(0.42,0,0.58,1)} 50% {transform: translate(76.674498px,81.576802px);animation-timing-function: cubic-bezier(0.42,0,0.58,1)} 100% {transform: translate(76.674498px,71.576802px)}} #e7qdoiIOsz522 {animation: e7qdoiIOsz522_c_o 3000ms linear infinite normal forwards}@keyframes e7qdoiIOsz522_c_o { 0% {opacity: 0} 10% {opacity: 0;animation-timing-function: cubic-bezier(0.42,0,0.58,1)} 33.333333% {opacity: 1;animation-timing-function: cubic-bezier(0.42,0,0.58,1)} 83.333333% {opacity: 1;animation-timing-function: cubic-bezier(0.42,0,0.58,1)} 100% {opacity: 0}} #e7qdoiIOsz523 {animation: e7qdoiIOsz523_c_o 3000ms linear infinite normal forwards}@keyframes e7qdoiIOsz523_c_o { 0% {opacity: 0} 10% {opacity: 0;animation-timing-function: cubic-bezier(0.42,0,0.58,1)} 33.333333% {opacity: 0;animation-timing-function: cubic-bezier(0.42,0,0.58,1)} 60% {opacity: 1;animation-timing-function: cubic-bezier(0.42,0,0.58,1)} 83.333333% {opacity: 1;animation-timing-function: cubic-bezier(0.42,0,0.58,1)} 100% {opacity: 0}} #e7qdoiIOsz524 {animation: e7qdoiIOsz524_c_o 3000ms linear infinite normal forwards}@keyframes e7qdoiIOsz524_c_o { 0% {opacity: 0} 10% {opacity: 0;animation-timing-function: cubic-bezier(0.42,0,0.58,1)} 60% {opacity: 0;animation-timing-function: cubic-bezier(0.42,0,0.58,1)} 83.333333% {opacity: 1;animation-timing-function: cubic-bezier(0.42,0,0.58,1)} 100% {opacity: 0}}
]]></style>
<g id="e7qdoiIOsz52_to" transform="translate(76.674498,71.576802)"><g transform="translate(-77,-77)"><path d="M104.408,19.2086l-57.1005,32.97c-.1195.069-.2165.2369-.2165.375L47.088,133.72c-.0001.58.1943,1.026.5423,1.244l.9923.622c.3667.229.8733.187,1.4031-.118L105.392,103.6c1.077-.62,1.952-2.133,1.952-3.377v-79.2728c0-.581-.195-1.0271-.543-1.2449l-.988-.6167c-.367-.2295-.874-.1862-1.405.12Z" fill="#ffe100" stroke="#ffe100" stroke-width="1.5"/><path d="M106.697,20.1858L49.9105,52.9743c-.4783.2761-.866.9477-.8661,1.5l-.003,80.8107c0,.553.3877.776.866.5l56.7866-32.788c.478-.276.866-.948.866-1.5l.003-80.8112c0-.5523-.388-.7761-.866-.5Z" fill="#fff" stroke="#ffe100"/><g transform="translate(.000001 0)"><rect width="10.0044" height="10.0044" rx="0" ry="0" transform="matrix(-.866007 0.500033-.000038 1.000001 64.640858 67.282933)" fill="none" stroke="#ffe100" stroke-width="1.5"/><rect width="40.2344" height="2.1261" rx="0" ry="0" transform="matrix(-.866007 0.500033-.000038 1.000001 101.647229 45.512618)" fill="#4f9a2c" stroke="#fff" stroke-width="0.75"/><rect width="40.2344" height="2.1261" rx="0" ry="0" transform="matrix(-.866007 0.500033-.000038 1.000001 101.647229 49.826718)" fill="#4f9a2c" stroke="#fff" stroke-width="0.75"/><rect width="15.0686" height="2.1261" rx="0" ry="0" transform="matrix(-.866007 0.500033-.000038 1.000001 79.845229 66.695618)" fill="#4f9a2c" stroke="#fff" stroke-width="0.75"/></g><g transform="translate(.000001 0)"><rect width="10.0044" height="10.0044" rx="0" ry="0" transform="matrix(-.866007 0.500033-.000038 1.000001 64.640858 86.516533)" fill="none" stroke="#ffe100" stroke-width="1.5"/><rect width="40.2344" height="2.1261" rx="0" ry="0" transform="matrix(-.866007 0.500033-.000038 1.000001 101.647229 64.746218)" fill="#4f9a2c" stroke="#fff" stroke-width="0.75"/><rect width="40.2344" height="2.1261" rx="0" ry="0" transform="matrix(-.866007 0.500033-.000038 1.000001 101.647229 69.060318)" fill="#4f9a2c" stroke="#fff" stroke-width="0.75"/><rect width="15.0686" height="2.1261" rx="0" ry="0" transform="matrix(-.866007 0.500033-.000038 1.000001 79.845229 85.929218)" fill="#4f9a2c" stroke="#fff" stroke-width="0.75"/></g><g transform="translate(.000001 1)"><rect width="40.2344" height="2.1261" rx="0" ry="0" transform="matrix(-.866007 0.500033-.000038 1.000001 101.647229 82.967518)" fill="#4f9a2c" stroke="#fff" stroke-width="0.75"/><rect width="40.2344" height="2.1261" rx="0" ry="0" transform="matrix(-.866007 0.500033-.000038 1.000001 101.647229 87.281718)" fill="#4f9a2c" stroke="#fff" stroke-width="0.75"/><rect width="15.0686" height="2.1261" rx="0" ry="0" transform="matrix(-.866007 0.500033-.000038 1.000001 79.845229 104.150118)" fill="#4f9a2c" stroke="#fff" stroke-width="0.75"/><rect width="10.0044" height="10.0044" rx="0" ry="0" transform="matrix(-.866007 0.500033-.000038 1.000001 64.640858 104.738233)" fill="none" stroke="#ffe100" stroke-width="1.5"/></g><g style="mix-blend-mode:multiply"><path d="M89.2545,27.8051c-.3228-.1952-.7654-.1547-1.2287.1124L62.9851,42.3518c-.3822.2203-.5796.8647-.3152,1.0288l2.0898,1.2969c.1542.0958.2403.2929.2403.5503v7.2557c0,1.6488,1.154,2.3131,2.582,1.4862L89.9963,40.9895c.9509-.5507,1.727-1.8866,1.7373-2.9906l.0751-8.0253c.0037-.3973-.128-.7012-.3664-.8454l-2.1878-1.3231Z" fill="#2ab2ff"/></g><path id="e7qdoiIOsz522" style="mix-blend-mode:multiply" d="M66.6597,67.4268L58.6059,81.3763L53.375,78.3562l1.9957-3.4567l3.2354,1.868l6.058-10.4928l1.9956,1.1521Z" opacity="0" clip-rule="evenodd" fill="#2ab2ff" fill-rule="evenodd"/><path id="e7qdoiIOsz523" style="mix-blend-mode:multiply" d="M66.6597,86.6604L58.6059,100.61L53.375,97.5898l1.9957-3.4566l3.2354,1.8679l6.058-10.4928l1.9956,1.1521Z" opacity="0" clip-rule="evenodd" fill="#2ab2ff" fill-rule="evenodd"/><path id="e7qdoiIOsz524" style="mix-blend-mode:multiply" d="M66.6597,104.882l-8.0538,13.949-5.2309-3.02l1.9957-3.457l3.2354,1.868l6.058-10.492l1.9956,1.152Z" transform="translate(0 1)" opacity="0" clip-rule="evenodd" fill="#2ab2ff" fill-rule="evenodd"/></g></g></svg>
