<svg id="eGUox0QSuJM1" xmlns="http://www.w3.org/2000/svg" xmlns:xlink="http://www.w3.org/1999/xlink" viewBox="0 0 154 154" shape-rendering="geometricPrecision" text-rendering="geometricPrecision">
<style><![CDATA[
#eGUox0QSuJM2_to {animation: eGUox0QSuJM2_to__to 6000ms linear infinite normal forwards}@keyframes eGUox0QSuJM2_to__to { 0% {transform: translate(83.454903px,78.430198px);animation-timing-function: cubic-bezier(0.42,0,0.58,1)} 50% {transform: translate(73.454903px,70.430198px);animation-timing-function: cubic-bezier(0.42,0,0.58,1)} 100% {transform: translate(83.454903px,78.430198px)}} #eGUox0QSuJM48_ts {animation: eGUox0QSuJM48_ts__ts 6000ms linear infinite normal forwards}@keyframes eGUox0QSuJM48_ts__ts { 0% {transform: translate(41.2462px,91.3345px) rotate(56.714171deg) skewX(-0.642544deg) skewY(0deg) scale(1,0.999937)} 16.666667% {transform: translate(41.2462px,91.3345px) rotate(56.714171deg) skewX(-0.642544deg) skewY(0deg) scale(0.75,0.75)} 33.333333% {transform: translate(41.2462px,91.3345px) rotate(56.714171deg) skewX(-0.642544deg) skewY(0deg) scale(1,1)} 50% {transform: translate(41.2462px,91.3345px) rotate(56.714171deg) skewX(-0.642544deg) skewY(0deg) scale(0.75,0.75)} 66.666667% {transform: translate(41.2462px,91.3345px) rotate(56.714171deg) skewX(-0.642544deg) skewY(0deg) scale(1,1)} 83.333333% {transform: translate(41.2462px,91.3345px) rotate(56.714171deg) skewX(-0.642544deg) skewY(0deg) scale(0.75,0.75)} 100% {transform: translate(41.2462px,91.3345px) rotate(56.714171deg) skewX(-0.642544deg) skewY(0deg) scale(1,1)}} #eGUox0QSuJM53_to {animation: eGUox0QSuJM53_to__to 6000ms linear infinite normal forwards}@keyframes eGUox0QSuJM53_to__to { 0% {transform: translate(85.454903px,79.430199px);animation-timing-function: cubic-bezier(0.245,0,0.745,0.99)} 50% {transform: translate(71.454903px,69.430199px);animation-timing-function: cubic-bezier(0.245,0,0.745,0.99)} 100% {transform: translate(85.454903px,79.430199px)}} #eGUox0QSuJM99_ts {animation: eGUox0QSuJM99_ts__ts 6000ms linear infinite normal forwards}@keyframes eGUox0QSuJM99_ts__ts { 0% {transform: translate(41.2462px,91.3345px) rotate(56.714171deg) skewX(-0.642544deg) skewY(0deg) scale(1,0.999937)} 16.666667% {transform: translate(41.2462px,91.3345px) rotate(56.714171deg) skewX(-0.642544deg) skewY(0deg) scale(0.75,0.75)} 33.333333% {transform: translate(41.2462px,91.3345px) rotate(56.714171deg) skewX(-0.642544deg) skewY(0deg) scale(1,1)} 50% {transform: translate(41.2462px,91.3345px) rotate(56.714171deg) skewX(-0.642544deg) skewY(0deg) scale(0.75,0.75)} 66.666667% {transform: translate(41.2462px,91.3345px) rotate(56.714171deg) skewX(-0.642544deg) skewY(0deg) scale(1,1)} 83.333333% {transform: translate(41.2462px,91.3345px) rotate(56.714171deg) skewX(-0.642544deg) skewY(0deg) scale(0.75,0.75)} 100% {transform: translate(41.2462px,91.3345px) rotate(56.714171deg) skewX(-0.642544deg) skewY(0deg) scale(1,1)}}
]]></style>
<defs><filter id="eGUox0QSuJM48-filter" x="-150%" width="400%" y="-150%" height="400%"><feGaussianBlur id="eGUox0QSuJM48-filter-blur-0" stdDeviation="10,10" result="result"/></filter><filter id="eGUox0QSuJM99-filter" x="-150%" width="400%" y="-150%" height="400%"><feGaussianBlur id="eGUox0QSuJM99-filter-blur-0" stdDeviation="10,10" result="result"/></filter></defs><g id="eGUox0QSuJM2_to" transform="translate(83.454903,78.430198)"><g style="mix-blend-mode:multiply" transform="translate(-78.454903,-74.377769)"><g style="mix-blend-mode:multiply"><path d="M137.57,41.0374c-.95-5.725-5.666-8.595-7.899-9.058c7.758-1.8157,11.794-.2644,13.379,1.7523c2.69,5.5834-5.502,13.976-9.866,17.6653c0,0-25.157,22.1128-27.664,24.7343-2.506,2.6215-6.0498,4.7532-6.4591,9.38-.4093,4.6267.8232,13.8343.3794,16.9227-.4438,3.088-6.54,5.79-6.54,5.79l-1.0486-1.002c0,0,4.3573-3.176,5.0016-5.756s-1.8834-15.35-.4599-20.5125C97.8168,75.791,127.1,54.6118,127.1,54.6118l3.532-2.6445c.392-.8297.405-4.7977.363-6.678c1.222-.4378,5.572-3.2033,6.575-4.2519Z" fill="#2ab2ff"/><path d="M129.671,31.9794c2.233.463,6.949,3.333,7.899,9.058-1.003,1.0486-5.353,3.8141-6.575,4.2519.042,1.8803.029,5.8483-.363,6.678L127.1,54.6118c0,0-29.2832,21.1792-30.7066,26.3417-1.4235,5.1626,1.1042,17.9325.4599,20.5125s-5.0016,5.756-5.0016,5.756l1.0486,1.002c0,0,6.0962-2.702,6.54-5.79.4438-3.0884-.7887-12.296-.3794-16.9227.4093-4.6268,3.9531-6.7585,6.4591-9.38c2.507-2.6215,27.664-24.7343,27.664-24.7343c4.364-3.6893,12.556-12.0819,9.866-17.6653-1.585-2.0167-5.621-3.568-13.379-1.7523Zm0,0l-3.567,1.1061c-.524-.5013-1.778-1.4993-4.65-1.435-3.589.0805-10.198,2.794-15.77,5.9973-4.43,2.5469-31.2177,18.9732-44.2988,27.0161" fill="none" stroke="#2ab2ff" stroke-linecap="round" stroke-linejoin="round"/><path d="M127.1,54.6119c0,0-15.725,8.0485-26.356,14.4436-2.2378,1.3464-12.013,7.5567-14.1629,9.0397-5.6737,3.9138-9.1315,5.8307-14.1286,10.578-2.0538,1.9512-4.3524,4.2021-5.0131,5.2431-.6608,1.0409-.4669,2.0627-.4669,2.0627l2.5181-2.1087L93.8684,105.637" fill="none" stroke="#2ab2ff" stroke-linejoin="round"/><path d="M65.9699,97.0276l-5.0361,4.2174l28.9357,9.099l3.0308-2.12L65.9699,97.0276Z" fill="none" stroke="#2ab2ff" stroke-linejoin="round"/><path d="M69.4906,93.8703l-3.5207,3.1573L92.9003,108.224l2.5296-1.596L69.4906,93.8703Z" fill="none" stroke="#2ab2ff" stroke-linejoin="round"/><path d="M66.9726,95.979l25.9277,12.245L65.9699,97.0276l1.0027-1.0486Z" fill="#2ab2ff" stroke="#2ab2ff" stroke-linejoin="round"/><path d="M46.1958,84.6443L22.562,70l21.5,15.5l2.1338-.8557Z" fill="#2ab2ff"/><path d="M25.062,68.5l9.8813,5.9352M22.562,70L46.1958,84.6443L44.062,85.5L22.562,70Z" fill="none" stroke="#2ab2ff" stroke-linejoin="round"/><path d="M84.0101,100.728l-7.0643,5.289" fill="none" stroke="#2ab2ff"/><path d="M34.7413,74L27.677,79.289" fill="none" stroke="#2ab2ff"/><path d="M70.6312,98.9753l3.5293-2.7727" fill="none" stroke="#2ab2ff"/><path d="M75.8052,100.912l3.1613-2.484" fill="none" stroke="#2ab2ff"/><path d="M88.68,103.06l-2.857,2.245" fill="none" stroke="#2ab2ff"/><path d="M29.8961,71.4477l-2.2948,1.8029" fill="none" stroke="#2ab2ff"/><path d="M70.76,58.9534c2.203-.9045,9.2535.8187,14.0527,8.9201l.0881,3.9262" fill="none" stroke="#2ab2ff" stroke-linecap="round" stroke-linejoin="round"/><path d="M98.058,63.6605l-.092-4.1024c-4.3918-7.4137-10.6689-9.4861-13.3912-9.0914" fill="none" stroke="#2ab2ff" stroke-linecap="round" stroke-linejoin="round"/><path d="M112.23,55.0054l-.089-3.9742c-4.551-7.6819-11.126-9.629-13.6729-9.0389" fill="none" stroke="#2ab2ff" stroke-linecap="round" stroke-linejoin="round"/><path d="M124.984,47.1798l-.096-4.3188c-4.175-6.5551-9.818-8.6055-12.607-8.4357l-.278.0352" fill="none" stroke="#2ab2ff" stroke-linecap="round" stroke-linejoin="round"/><path d="M124.988,47.2007L71.7442,79.967l-.5128.0115" fill="none" stroke="#2ab2ff" stroke-linecap="round" stroke-linejoin="round"/><path d="M124.786,42.9488L71.6455,75.5655" fill="none" stroke="#2ab2ff" stroke-linecap="round" stroke-linejoin="round"/><path d="M57.726,72.5854l60.107-36.5713" fill="none" stroke="#2ab2ff" stroke-linecap="round" stroke-linejoin="round"/><path d="M127.164,34.6009c-.271-.5131-.71-1.1812-1.06-1.5154l.513-.0115.524.5013c2.61,1.9938,3.169,4.0335,3.192,5.0591s-.991,1.5614-2.017,1.5844c-.513.0115-1.071-2.0282-1.094-3.0538s.28-1.9239-.058-2.5641Z" fill="#2ab2ff" stroke="#2ab2ff" stroke-linejoin="round"/><path d="M63.7992,68.8577c.3265-.6914.4599-2.3704-1.619-3.5551-2.0788-1.1848-13.3344-7.397-18.7024-10.355-.1748-.1671-.7272-.3942-1.5385.0345-.8112.4286-5.0629,3.0208-7.0873,4.2634l.023,1.0256l9.0397,14.1631l5.128-.115.0345,1.5385c1.3598-.3726,4.068-1.6304,5.5834-2.6906l.5243.5014l2.5411-1.0831" fill="none" stroke="#2ab2ff" stroke-linejoin="round"/><path d="M46.9915,74.3652l.0115.5128l2.0742.9796" fill="none" stroke="#2ab2ff" stroke-linejoin="round"/><path d="M50.4892,70.1823L39.9916,59.6433l-1.0141.5358l9.9963,11.0633-5.0591,3.1918l5.082-2.1662l1.504-1.5729-.0115-.5128Z" fill="#2ab2ff"/><path d="M35.9351,61.7865l3.0424-1.6074m0,0l1.0141-.5358l10.4976,10.539.0115.5128-1.504,1.5729-5.082,2.1662l5.0591-3.1918-9.9963-11.0633Z" fill="none" stroke="#2ab2ff" stroke-linejoin="round"/><path d="M57.7259,72.5854l-7.0873,4.2634c1.0218-.1939,3.2728-.4838,4.1025-.092c1.0371.4898,3.1113,1.4695,5.3005,7.5772l-2.5295,1.5959.0575,2.564-2.0168,1.5844l3.5667-1.1061c2.0244-1.2425,6.4765-4.0445,8.0899-5.312c2.0167-1.5844,4.022-3.6816,4.5003-5.2316s-.6278-5.1166-3.2378-7.1103c-2.088-1.595-5.5006-1.2448-7.2023-.8646" fill="none" stroke="#2ab2ff" stroke-linejoin="round"/><path d="M66.9036,92.9021l.0574,2.5641.0115.5128-6.0387,5.266-2.5295,1.596-.5128.011-1.0026,1.049-6.0732,3.728-16.6283-9.3758l4.9441-8.3198.9911-1.5614c.3735-1.6502.7704-3.7798.4094-4.6268l-1.0946-3.0539-1.527.5473-4.1599-2.472v-1.9408L35.062,76l.1235-1.8832l2.0742.9797L39.562,74l-2-1.5c.3919-.8297,1.5695-2.6121,3.1723-2.6121l3.1804,4.5463l2.5755.4553l2.5985,1.4809l5.0591-3.1918l1.0486,1.0026-4.0565,2.1433.5243.5013c.3419-.0077,1.4382.0703,3.0884.4438s3.8717,4.8728,4.7762,7.0758l-1.5614-.9911-2.5295,1.5959l1.5614.9911.0804,3.5897l2.0398-.5588.0115.5128.1609,7.1793l7.6117-3.7622Z" fill="#2ab2ff" stroke="#2ab2ff" stroke-linejoin="round"/><path d="M38.7291,71.9852l-3.5436,2.1317" fill="none" stroke="#2ab2ff" stroke-linejoin="round"/><path d="M46.514,87.8615c.3599,1.0232.3707,2.0353.1205,2.8372-.2503.802-.7467,1.3608-1.388,1.5779s-1.3833.0776-2.0845-.4022c-.701-.4798-1.3288-1.283-1.6887-2.3062-.36-1.0231-.3708-2.0353-.1205-2.8371.2503-.802.7466-1.3608,1.3879-1.578.6413-.2171,1.3833-.0776,2.0845.4022.7011.4798,1.3288,1.283,1.6888,2.3062Z" fill="#fff" stroke="#2ab2ff"/><path d="M44.2806,87.768c-1.5506-2.483-6.4968-1.5533-8.6018-.6653l2.2863,8.5132c2.105-.888,8.7305-3.9807,6.3155-7.8479Z" fill="#2ab2ff" stroke="#2ab2ff" stroke-linejoin="round"/><path d="M39.6824,90.3494c.42,1.1942.4337,2.3785.1396,3.3207s-.8811,1.6094-1.6494,1.8696-1.6497.0904-2.4734-.4733-1.5573-1.5042-1.9773-2.6983-.4337-2.3786-.1396-3.3207c.2942-.9423.8811-1.6094,1.6495-1.8696s1.6496-.0904,2.4734.4733c.8237.5636,1.5573,1.5041,1.9772,2.6983Z" fill="#fff" stroke="#2ab2ff"/><path d="M52.5119,80.656c.1883,1.1116.0293,2.1569-.3553,2.944-.385.7877-.9735,1.2821-1.6454,1.4038s-1.3878-.1364-2.0088-.7419c-.6204-.6051-1.1134-1.5322-1.3017-2.6438-.1883-1.1117-.0293-2.1569.3554-2.944.3849-.7878.9735-1.2822,1.6453-1.4039.6719-.1217,1.3879.1364,2.0088.742.6204.605,1.1135,1.5321,1.3017,2.6438Z" fill="#fff" stroke="#2ab2ff"/><path d="M50.2999,80.2109c-1.1282-2.7902-6.204-2.6126-8.4464-2.0319l.8538,9.091c2.2423-.5807,9.3497-2.7136,7.5926-7.0591Z" fill="#2ab2ff" stroke="#2ab2ff" stroke-linejoin="round"/><path d="M45.3017,82.1374c.2197,1.2964.035,2.5187-.4166,3.4426-.4519.9247-1.1486,1.5158-1.954,1.6617-.8055.1458-1.6551-.1654-2.3842-.8763-.7285-.7103-1.3042-1.795-1.5239-3.0914s-.035-2.5187.4166-3.4427c.4519-.9246,1.1486-1.5158,1.954-1.6616.8055-.1458,1.6551.1654,2.3842.8763.7285.7103,1.3042,1.795,1.5239,3.0914Z" fill="#fff" stroke="#2ab2ff"/><path d="M55.122,91.845c.4708,1.0212.5852,2.0674.4123,2.9231-.1731.8562-.6216,1.4851-1.2514,1.7754-.6298.2904-1.3993.223-2.1627-.2015-.7631-.4242-1.4842-1.1907-1.955-2.2119s-.5852-2.0674-.4123-2.9231c.1731-.8562.6216-1.4851,1.2514-1.7754.6298-.2904,1.3992-.223,2.1627.2015.763.4242,1.4842,1.1907,1.955,2.2119Z" fill="#fff" stroke="#2ab2ff"/><path d="M52.8378,91.9827c-1.8245-2.3992-6.7442-.9338-8.7878.1972l3.1836,8.5361c2.0437-1.1307,8.4457-4.9969,5.6042-8.7333Z" fill="#2ab2ff" stroke="#2ab2ff" stroke-linejoin="round"/><path d="M48.4492,95.1099c.5491,1.1912.6841,2.4144.481,3.4191-.2031,1.0051-.7323,1.755-1.4864,2.102-.7541.348-1.6678.264-2.5641-.235-.8958-.4978-1.7382-1.3949-2.2874-2.586-.5491-1.1912-.6841-2.4144-.481-3.4191.2031-1.0051.7323-1.7547,1.4864-2.1023.7541-.3477,1.6678-.2632,2.5641.235.8958.4981,1.7382,1.3952,2.2874,2.5863Z" fill="#fff" stroke="#2ab2ff"/><path d="M41.6171,74.5438c-.8356-1.1437-3.6146-.4505-4.7072-.1013l1.0939,3.947c1.0926-.3492,4.8971-2.0885,3.6133-3.8457Z" fill="#fff" stroke="#2ab2ff" stroke-linejoin="round"/><path d="M38.6693,76.0887c.1782.5869.159,1.1521.0077,1.5844-.1515.4328-.4182.6979-.7241.7908s-.675.0208-1.0415-.2548c-.3661-.2752-.6963-.7343-.8745-1.3213-.1781-.5869-.159-1.152-.0076-1.5844.1514-.4328.4181-.6979.724-.7908s.675-.0208,1.0415.2548c.3662.2752.6963.7343.8745,1.3213Z" fill="#fff" stroke="#2ab2ff"/><path d="M54.9061,80.9321c-.9842-1.0187-3.6422.0481-4.6768.5435l1.6235,3.7602c1.0345-.4953,4.5654-2.7387,3.0533-4.3037Z" fill="#fff" stroke="#2ab2ff" stroke-linejoin="round"/><path d="M52.1973,82.8657c.2568.557.3151,1.1195.2244,1.5685-.0909.4494-.3188.7485-.6091.8823-.2904.1339-.6658.113-1.0666-.1099-.4003-.2225-.7902-.6322-1.047-1.1892s-.3151-1.1195-.2243-1.5685c.0908-.4495.3187-.7485.6091-.8824s.6658-.1129,1.0665.1099c.4004.2226.7902.6322,1.047,1.1893Z" fill="#fff" stroke="#2ab2ff"/><path d="M36.4985,86.914L19.231,71.9092l3.5436-2.1317c.5052-.3534,1.7183-1.1673,2.5296-1.5959c1.0141-.5358,3.5551-1.6189,6.6205-2.2007c2.0777-.3944,6.6664-.1494,6.6664-.1494" fill="none" stroke="#2ab2ff" stroke-linejoin="round"/><path d="M39.062,67c-5.2-1.6-12.5.5-15.5,3h-.5" fill="none" stroke="#2ab2ff" stroke-linejoin="round"/></g><g id="eGUox0QSuJM48_ts" transform="translate(41.2462,91.3345) rotate(56.714171) skewX(-0.642544) skewY(0) scale(1,0.999937)"><ellipse rx="14.5662" ry="22.4726" transform="translate(0,0)" opacity="0.2" filter="url(#eGUox0QSuJM48-filter)" fill="#2ab2ff"/></g><g transform="translate(0 0.000001)"><path d="M86.4247,91.3903l-4.9771.0298-3.2252,2.6238l4.9772-.0297l3.2251-2.6239Z" clip-rule="evenodd" fill="#ff2a50" fill-rule="evenodd"/><path d="M79.3287,88.6856l1.7516,2.5945-3.2251,2.6239-1.7516-2.5945l3.2251-2.6239Z" clip-rule="evenodd" fill="#2ab2ff" fill-rule="evenodd"/><path d="M86.5047,91.1063L84.7525,88.512l-4.9771.0294l1.7522,2.5943l4.9771-.0294Z" clip-rule="evenodd" fill="#ffe100" fill-rule="evenodd"/></g></g></g><g id="eGUox0QSuJM53_to" transform="translate(85.454903,79.430199)"><g style="mix-blend-mode:multiply" transform="translate(-78.454903,-74.430187)"><g style="mix-blend-mode:multiply"><path d="M137.57,41.0898c-.95-5.725-5.666-8.595-7.899-9.0579c7.758-1.8158,11.794-.2645,13.379,1.7522c2.69,5.5834-5.502,13.9761-9.866,17.6654c0,0-25.157,22.1127-27.664,24.7342-2.506,2.6216-6.0498,4.7533-6.4591,9.38-.4093,4.6268.8232,13.8343.3794,16.9223-.4438,3.089-6.54,5.791-6.54,5.791l-1.0486-1.003c0,0,4.3573-3.176,5.0016-5.756.6443-2.5796-1.8834-15.3495-.4599-20.5121C97.8168,75.8434,127.1,54.6643,127.1,54.6643l3.532-2.6446c.392-.8296.405-4.7976.363-6.6779c1.222-.4379,5.572-3.2034,6.575-4.252Z" fill="#ffe100"/><path d="M129.671,32.0319c2.233.4629,6.949,3.3329,7.899,9.0579-1.003,1.0486-5.353,3.8141-6.575,4.252.042,1.8803.029,5.8483-.363,6.6779L127.1,54.6643c0,0-29.2832,21.1791-30.7066,26.3416-1.4235,5.1626,1.1042,17.9325.4599,20.5121-.6443,2.58-5.0016,5.756-5.0016,5.756l1.0486,1.003c0,0,6.0962-2.702,6.54-5.791.4438-3.088-.7887-12.2955-.3794-16.9223.4093-4.6267,3.9531-6.7584,6.4591-9.38c2.507-2.6215,27.664-24.7342,27.664-24.7342c4.364-3.6893,12.556-12.082,9.866-17.6654-1.585-2.0167-5.621-3.568-13.379-1.7522Zm0,0l-3.567,1.106c-.524-.5013-1.778-1.4993-4.65-1.4349-3.589.0805-10.198,2.794-15.77,5.9973-4.43,2.5468-31.2177,18.9731-44.2988,27.016" fill="none" stroke="#ffe100" stroke-linecap="round" stroke-linejoin="round"/><path d="M127.1,54.6643c0,0-15.725,8.0486-26.356,14.4437-2.2378,1.3463-12.013,7.5566-14.1629,9.0396-5.6737,3.9138-9.1315,5.8307-14.1286,10.5781-2.0538,1.9511-4.3524,4.2021-5.0131,5.243-.6608,1.041-.4669,2.0627-.4669,2.0627l2.5181-2.1087L93.8684,105.69" fill="none" stroke="#ffe100" stroke-linejoin="round"/><path d="M65.9699,97.08l-5.0361,4.217l28.9357,9.1l3.0308-2.12L65.9699,97.08Z" fill="none" stroke="#ffe100" stroke-linejoin="round"/><path d="M69.4906,93.9227L65.9699,97.08l26.9304,11.197l2.5296-1.596L69.4906,93.9227Z" fill="none" stroke="#ffe100" stroke-linejoin="round"/><path d="M66.9726,96.0314L92.9003,108.277L65.9699,97.08l1.0027-1.0486Z" fill="#ffe100" stroke="#ffe100" stroke-linejoin="round"/><path d="M46.1958,84.6968L22.562,70.0524l21.5,15.5l2.1338-.8556Z" fill="#ffe100"/><path d="M25.062,68.5524l9.8813,5.9352M22.562,70.0524L46.1958,84.6968l-2.1338.8556-21.5-15.5Z" fill="none" stroke="#ffe100" stroke-linejoin="round"/><path d="M84.0101,100.78l-7.0643,5.289" fill="none" stroke="#ffe100"/><path d="M34.7413,74.0524l-7.0643,5.289" fill="none" stroke="#ffe100"/><path d="M70.6312,99.0278l3.5293-2.7727" fill="none" stroke="#ffe100"/><path d="M75.8052,100.964l3.1613-2.4835" fill="none" stroke="#ffe100"/><path d="M88.68,103.112l-2.857,2.245" fill="none" stroke="#ffe100"/><path d="M29.8961,71.5001L27.6013,73.303" fill="none" stroke="#ffe100"/><path d="M70.76,59.0059c2.203-.9045,9.2535.8186,14.0527,8.92l.0881,3.9262" fill="none" stroke="#ffe100" stroke-linecap="round" stroke-linejoin="round"/><path d="M98.058,63.713l-.092-4.1025c-4.3918-7.4137-10.6689-9.486-13.3912-9.0913" fill="none" stroke="#ffe100" stroke-linecap="round" stroke-linejoin="round"/><path d="M112.23,55.0578l-.089-3.9741c-4.551-7.682-11.126-9.6291-13.6729-9.039" fill="none" stroke="#ffe100" stroke-linecap="round" stroke-linejoin="round"/><path d="M124.984,47.2322l-.096-4.3188c-4.175-6.555-9.818-8.6054-12.607-8.4357l-.278.0352" fill="none" stroke="#ffe100" stroke-linecap="round" stroke-linejoin="round"/><path d="M124.988,47.2531L71.7442,80.0194l-.5128.0115" fill="none" stroke="#ffe100" stroke-linecap="round" stroke-linejoin="round"/><path d="M124.786,43.0013L71.6455,75.6179" fill="none" stroke="#ffe100" stroke-linecap="round" stroke-linejoin="round"/><path d="M57.726,72.6378l60.107-36.5712" fill="none" stroke="#ffe100" stroke-linecap="round" stroke-linejoin="round"/><path d="M127.164,34.6534c-.271-.5131-.71-1.1813-1.06-1.5155l.513-.0115.524.5014c2.61,1.9937,3.169,4.0334,3.192,5.059s-.991,1.5614-2.017,1.5844c-.513.0115-1.071-2.0282-1.094-3.0538s.28-1.9239-.058-2.564Z" fill="#ffe100" stroke="#ffe100" stroke-linejoin="round"/><path d="M63.7992,68.9102c.3265-.6914.4599-2.3704-1.619-3.5552C60.1014,64.1703,48.8458,57.958,43.4778,55c-.1748-.1671-.7272-.3942-1.5385.0345-.8112.4286-5.0629,3.0209-7.0873,4.2634l.023,1.0256l9.0397,14.1631l5.128-.1149.0345,1.5384c1.3598-.3725,4.068-1.6304,5.5834-2.6905l.5243.5013l2.5411-1.0831" fill="none" stroke="#ffe100" stroke-linejoin="round"/><path d="M46.9915,74.4176l.0115.5128l2.0742.9797" fill="none" stroke="#ffe100" stroke-linejoin="round"/><path d="M50.4892,70.2347L39.9916,59.6957l-1.0141.5358l9.9963,11.0633-5.0591,3.1918l5.082-2.1662l1.504-1.5729-.0115-.5128Z" fill="#ffe100"/><path d="M35.9351,61.8389l3.0424-1.6074m0,0l1.0141-.5358l10.4976,10.539.0115.5128-1.504,1.5729-5.082,2.1662l5.0591-3.1918-9.9963-11.0633Z" fill="none" stroke="#ffe100" stroke-linejoin="round"/><path d="M57.7259,72.6378l-7.0873,4.2634c1.0218-.1939,3.2728-.4838,4.1025-.0919c1.0371.4898,3.1113,1.4694,5.3005,7.5771l-2.5295,1.5959.0575,2.564-2.0168,1.5844l3.5667-1.1061c2.0244-1.2425,6.4765-4.0445,8.0899-5.312c2.0167-1.5844,4.022-3.6816,4.5003-5.2315s-.6278-5.1166-3.2378-7.1104c-2.088-1.595-5.5006-1.2448-7.2023-.8646" fill="none" stroke="#ffe100" stroke-linejoin="round"/><path d="M66.9036,92.9546l.0574,2.564.0115.5128-6.0387,5.2656-2.5295,1.596-.5128.012-1.0026,1.048-6.0732,3.728-16.6283-9.3753l4.9441-8.3199.9911-1.5614c.3735-1.6502.7704-3.7798.4094-4.6268l-1.0946-3.0538-1.527.5473-4.1599-2.4721v-1.9408l1.3115-.8258.1235-1.8831l2.0742.9796l2.3023-1.0965-2-1.5c.3919-.8297,1.5695-2.612,3.1723-2.6121l3.1804,4.5463l2.5755.4553l2.5985,1.481l5.0591-3.1918l1.0486,1.0026-4.0565,2.1432.5243.5013c.3419-.0077,1.4382.0704,3.0884.4438s3.8717,4.8728,4.7762,7.0758l-1.5614-.9911-2.5295,1.5959l1.5614.9911.0804,3.5897l2.0398-.5588.0115.5128.1609,7.1793l7.6117-3.7621Z" fill="#ffe100" stroke="#ffe100" stroke-linejoin="round"/><path d="M38.7291,72.0376l-3.5436,2.1317" fill="none" stroke="#ffe100" stroke-linejoin="round"/><path d="M46.514,87.9139c.3599,1.0232.3707,2.0353.1205,2.8372-.2503.802-.7467,1.3608-1.388,1.5779-.6413.2172-1.3833.0777-2.0845-.4022-.701-.4797-1.3288-1.2829-1.6887-2.3061-.36-1.0232-.3708-2.0353-.1205-2.8372.2503-.802.7466-1.3608,1.3879-1.5779.6413-.2172,1.3833-.0777,2.0845.4022.7011.4797,1.3288,1.2829,1.6888,2.3061Z" fill="#fff" stroke="#ffe100"/><path d="M44.2806,87.8205c-1.5506-2.4831-6.4968-1.5534-8.6018-.6654l2.2863,8.5132c2.105-.888,8.7305-3.9807,6.3155-7.8478Z" fill="#ffe100" stroke="#ffe100" stroke-linejoin="round"/><path d="M39.6824,90.4018c.42,1.1942.4337,2.3786.1396,3.3207-.2941.9423-.8811,1.6094-1.6494,1.8696s-1.6497.0904-2.4734-.4733c-.8237-.5636-1.5573-1.5041-1.9773-2.6983s-.4337-2.3785-.1396-3.3207c.2942-.9422.8811-1.6094,1.6495-1.8696s1.6496-.0903,2.4734.4733s1.5573,1.5042,1.9772,2.6983Z" fill="#fff" stroke="#ffe100"/><path d="M52.5119,80.7084c.1883,1.1116.0293,2.1569-.3553,2.944-.385.7878-.9735,1.2822-1.6454,1.4039s-1.3878-.1364-2.0088-.742c-.6204-.605-1.1134-1.5322-1.3017-2.6438s-.0293-2.1569.3554-2.944c.3849-.7878.9735-1.2822,1.6453-1.4039.6719-.1217,1.3879.1364,2.0088.742.6204.605,1.1135,1.5322,1.3017,2.6438Z" fill="#fff" stroke="#ffe100"/><path d="M50.2999,80.2633c-1.1282-2.7902-6.204-2.6125-8.4464-2.0318l.8538,9.0909c2.2423-.5806,9.3497-2.7136,7.5926-7.0591Z" fill="#ffe100" stroke="#ffe100" stroke-linejoin="round"/><path d="M45.3017,82.1898c.2197,1.2964.035,2.5187-.4166,3.4427-.4519.9246-1.1486,1.5158-1.954,1.6616-.8055.1458-1.6551-.1654-2.3842-.8763-.7285-.7103-1.3042-1.795-1.5239-3.0914s-.035-2.5187.4166-3.4426c.4519-.9247,1.1486-1.5158,1.954-1.6616.8055-.1458,1.6551.1654,2.3842.8762.7285.7103,1.3042,1.795,1.5239,3.0914Z" fill="#fff" stroke="#ffe100"/><path d="M55.122,91.8974c.4708,1.0213.5852,2.0674.4123,2.9231-.1731.8562-.6216,1.4851-1.2514,1.7755-.6298.2903-1.3993.2229-2.1627-.2016-.7631-.4242-1.4842-1.1906-1.955-2.2119s-.5852-2.0673-.4123-2.9231c.1731-.8562.6216-1.4851,1.2514-1.7754s1.3992-.2229,2.1627.2015c.763.4243,1.4842,1.1907,1.955,2.2119Z" fill="#fff" stroke="#ffe100"/><path d="M52.8378,92.0351c-1.8245-2.3991-6.7442-.9337-8.7878.1972l3.1836,8.5367c2.0437-1.1313,8.4457-4.9975,5.6042-8.7339Z" fill="#ffe100" stroke="#ffe100" stroke-linejoin="round"/><path d="M48.4492,95.1624c.5491,1.1911.6841,2.4143.481,3.419-.2031,1.0051-.7323,1.7546-1.4864,2.1026-.7541.347-1.6678.263-2.5641-.235-.8958-.4984-1.7382-1.3954-2.2874-2.5866s-.6841-2.4144-.481-3.419c.2031-1.0051.7323-1.7548,1.4864-2.1024s1.6678-.2632,2.5641.2351c.8958.498,1.7382,1.3951,2.2874,2.5863Z" fill="#fff" stroke="#ffe100"/><path d="M41.6171,74.5963c-.8356-1.1437-3.6146-.4506-4.7072-.1014l1.0939,3.947c1.0926-.3492,4.8971-2.0885,3.6133-3.8456Z" fill="#fff" stroke="#ffe100" stroke-linejoin="round"/><path d="M38.6693,76.1411c.1782.587.159,1.1521.0077,1.5845-.1515.4328-.4182.6979-.7241.7907-.3059.0929-.675.0208-1.0415-.2547-.3661-.2753-.6963-.7344-.8745-1.3213s-.159-1.1521-.0076-1.5845c.1514-.4328.4181-.6979.724-.7907.306-.0929.675-.0208,1.0415.2547.3662.2753.6963.7344.8745,1.3213Z" fill="#fff" stroke="#ffe100"/><path d="M54.9061,80.9845c-.9842-1.0186-3.6422.0481-4.6768.5435l1.6235,3.7603c1.0345-.4954,4.5654-2.7388,3.0533-4.3038Z" fill="#fff" stroke="#ffe100" stroke-linejoin="round"/><path d="M52.1973,82.9181c.2568.557.3151,1.1195.2244,1.5685-.0909.4494-.3188.7485-.6091.8824-.2904.1338-.6658.1129-1.0666-.1099-.4003-.2226-.7902-.6322-1.047-1.1893-.2568-.557-.3151-1.1195-.2243-1.5685.0908-.4494.3187-.7485.6091-.8824.2903-.1338.6658-.1129,1.0665.1099.4004.2226.7902.6322,1.047,1.1893Z" fill="#fff" stroke="#ffe100"/><path d="M36.4985,86.9664L19.231,71.9617l3.5436-2.1318c.5052-.3533,1.7183-1.1672,2.5296-1.5959c1.0141-.5358,3.5551-1.6188,6.6205-2.2007c2.0777-.3943,6.6664-.1494,6.6664-.1494" fill="none" stroke="#ffe100" stroke-linejoin="round"/><path d="M39.062,67.0524c-5.2-1.6-12.5.5-15.5,3h-.5" fill="none" stroke="#ffe100" stroke-linejoin="round"/></g><g id="eGUox0QSuJM99_ts" transform="translate(41.2462,91.3345) rotate(56.714171) skewX(-0.642544) skewY(0) scale(1,0.999937)"><ellipse rx="14.5662" ry="22.4726" transform="translate(0,0)" filter="url(#eGUox0QSuJM99-filter)" fill="#ffe100"/></g><g opacity="0.2"><g style="mix-blend-mode:multiply"><path d="M86.4247,91.4427l-4.9771.0298-3.2252,2.6239l4.9772-.0298l3.2251-2.6239Z" clip-rule="evenodd" fill="#ff2a50" fill-rule="evenodd"/></g><g style="mix-blend-mode:multiply"><path d="M79.3287,88.738l1.7516,2.5945-3.2251,2.6239-1.7516-2.5945l3.2251-2.6239Z" clip-rule="evenodd" fill="#2ab2ff" fill-rule="evenodd"/></g><g style="mix-blend-mode:multiply"><path d="M86.5047,91.1588l-1.7522-2.5943-4.9771.0294l1.7522,2.5943l4.9771-.0294Z" clip-rule="evenodd" fill="#ffe100" fill-rule="evenodd"/></g></g></g></g></svg>
