<svg width="261" height="261" viewBox="0 0 261 261" fill="none" xmlns="http://www.w3.org/2000/svg">
<ellipse cx="130.217" cy="131.189" rx="23.5872" ry="24.1114" fill="#FF2A50"/>
<path fill-rule="evenodd" clip-rule="evenodd" d="M130.169 245.339C193.776 245.339 245.339 193.776 245.339 130.169C245.339 66.5631 193.776 15 130.169 15C66.5631 15 15 66.5631 15 130.169C15 193.776 66.5631 245.339 130.169 245.339ZM130.169 260.339C202.06 260.339 260.339 202.06 260.339 130.169C260.339 58.2789 202.06 0 130.169 0C58.2789 0 0 58.2789 0 130.169C0 202.06 58.2789 260.339 130.169 260.339Z" fill="#212529"/>
<circle cx="129.594" cy="130.745" r="78.3197" stroke="#212529" stroke-width="15"/>
<circle cx="130.17" cy="130.169" r="29.3622" stroke="#212529" stroke-width="15"/>
</svg>
