<svg width="261" height="261" viewBox="0 0 261 261" fill="none" xmlns="http://www.w3.org/2000/svg">
<circle cx="130" cy="130" r="25" fill="#FF2A50"/>
<path fill-rule="evenodd" clip-rule="evenodd" d="M130.169 245.339C193.776 245.339 245.339 193.776 245.339 130.169C245.339 66.5631 193.776 15 130.169 15C66.5631 15 15 66.5631 15 130.169C15 193.776 66.5631 245.339 130.169 245.339ZM130.169 260.339C202.06 260.339 260.339 202.06 260.339 130.169C260.339 58.2789 202.06 0 130.169 0C58.2789 0 0 58.2789 0 130.169C0 202.06 58.2789 260.339 130.169 260.339Z" fill="black"/>
<path fill-rule="evenodd" clip-rule="evenodd" d="M130 195C165.899 195 195 165.899 195 130C195 94.1015 165.899 65 130 65C94.1015 65 65 94.1015 65 130C65 165.899 94.1015 195 130 195ZM130 210C174.183 210 210 174.183 210 130C210 85.8172 174.183 50 130 50C85.8172 50 50 85.8172 50 130C50 174.183 85.8172 210 130 210Z" fill="black"/>
</svg>
