<svg width="281" height="264" viewBox="0 0 281 264" fill="none" xmlns="http://www.w3.org/2000/svg">
<path fill-rule="evenodd" clip-rule="evenodd" d="M131.624 248.42C196.034 248.42 248.249 196.206 248.249 131.796C248.249 67.3861 196.034 15.1716 131.624 15.1716C67.2145 15.1716 15 67.3861 15 131.796C15 196.206 67.2145 248.42 131.624 248.42ZM131.624 263.42C204.319 263.42 263.249 204.49 263.249 131.796C263.249 59.1019 204.319 0.171631 131.624 0.171631C58.9302 0.171631 0 59.1019 0 131.796C0 204.49 58.9302 263.42 131.624 263.42Z" fill="black"/>
<path fill-rule="evenodd" clip-rule="evenodd" d="M57.9185 135.172C57.9185 135.172 91.721 179.172 133.418 179.172C175.116 179.172 208.918 135.172 208.918 135.172C208.918 135.172 175.116 91.1716 133.418 91.1716C91.721 91.1716 57.9185 135.172 57.9185 135.172ZM81.6973 135.172C84.3747 132.566 87.5116 129.724 91.027 126.894C103.513 116.841 118.498 108.772 133.418 108.772C148.339 108.772 163.324 116.841 175.81 126.894C179.325 129.724 182.462 132.566 185.14 135.172C182.462 137.777 179.325 140.619 175.81 143.45C163.324 153.503 148.339 161.572 133.418 161.572C118.498 161.572 103.513 153.503 91.027 143.45C87.5116 140.619 84.3747 137.777 81.6973 135.172Z" fill="#FF2A50"/>
<path d="M155 135.5C155 147.926 144.926 158 132.5 158C120.074 158 110 147.926 110 135.5C110 123.074 120.074 113 132.5 113C144.926 113 155 123.074 155 135.5Z" fill="#FF2A50"/>
<path fill-rule="evenodd" clip-rule="evenodd" d="M275.503 254.43C272.738 257.514 267.996 257.773 264.912 255.008L230.296 223.975C227.212 221.21 226.953 216.469 229.718 213.385C232.483 210.3 237.224 210.042 240.309 212.806L274.925 243.839C278.009 246.604 278.268 251.346 275.503 254.43Z" fill="black"/>
</svg>
