<svg width="277" height="264" viewBox="0 0 277 264" fill="none" xmlns="http://www.w3.org/2000/svg">
<circle cx="131.624" cy="131.624" r="124.124" stroke="#212529" stroke-width="15"/>
<path fill-rule="evenodd" clip-rule="evenodd" d="M57.73 134.511C57.73 134.511 91.0721 177.808 132.202 177.808C173.331 177.808 206.673 134.511 206.673 134.511C206.673 134.511 173.331 91.2134 132.202 91.2134C91.0721 91.2134 57.73 134.511 57.73 134.511ZM81.185 134.511C83.8259 131.947 86.9201 129.15 90.3876 126.365C102.704 116.473 117.484 108.532 132.202 108.532C146.919 108.532 161.7 116.473 174.016 126.365C177.483 129.15 180.577 131.947 183.218 134.511C180.577 137.074 177.483 139.872 174.016 142.657C161.7 152.549 146.919 160.489 132.202 160.489C117.484 160.489 102.704 152.549 90.3876 142.657C86.9201 139.872 83.8259 137.074 81.185 134.511Z" fill="#FF2A50"/>
<circle cx="131.624" cy="135.088" r="20.7828" fill="#FF2A50"/>
<path d="M234.384 218.219L269 249.252" stroke="#212529" stroke-width="15" stroke-linecap="round"/>
</svg>
