<svg width="280" height="264" viewBox="0 0 280 264" fill="none" xmlns="http://www.w3.org/2000/svg">
<path fill-rule="evenodd" clip-rule="evenodd" d="M131.624 248.249C196.034 248.249 248.249 196.034 248.249 131.624C248.249 67.2145 196.034 15 131.624 15C67.2145 15 15 67.2145 15 131.624C15 196.034 67.2145 248.249 131.624 248.249ZM131.624 263.249C204.319 263.249 263.249 204.319 263.249 131.624C263.249 58.9302 204.319 0 131.624 0C58.9302 0 0 58.9302 0 131.624C0 204.319 58.9302 263.249 131.624 263.249Z" fill="black"/>
<path fill-rule="evenodd" clip-rule="evenodd" d="M57 135C57 135 90.8025 179 132.5 179C174.198 179 208 135 208 135C208 135 174.198 91 132.5 91C90.8025 91 57 135 57 135ZM80.7788 135C83.4562 132.395 86.5932 129.552 90.1085 126.722C102.595 116.669 117.579 108.6 132.5 108.6C147.421 108.6 162.405 116.669 174.891 126.722C178.407 129.552 181.544 132.395 184.221 135C181.544 137.605 178.407 140.448 174.891 143.278C162.405 153.331 147.421 161.4 132.5 161.4C117.579 161.4 102.595 153.331 90.1085 143.278C86.5932 140.448 83.4562 137.605 80.7788 135Z" fill="#FF2A50"/>
<path d="M157 135C157 148.807 145.807 160 132 160C118.193 160 107 148.807 107 135C107 121.193 118.193 110 132 110C145.807 110 157 121.193 157 135Z" fill="#FF2A50"/>
<path fill-rule="evenodd" clip-rule="evenodd" d="M274.584 254.259C271.819 257.343 267.078 257.602 263.993 254.837L229.377 223.804C226.293 221.039 226.034 216.297 228.799 213.213C231.564 210.129 236.306 209.87 239.39 212.635L274.006 243.668C277.09 246.433 277.349 251.174 274.584 254.259Z" fill="black"/>
</svg>
