<svg width="280" height="264" viewBox="0 0 280 264" fill="none" xmlns="http://www.w3.org/2000/svg">
<path fill-rule="evenodd" clip-rule="evenodd" d="M131.624 248.249C196.034 248.249 248.249 196.034 248.249 131.624C248.249 67.2145 196.034 15 131.624 15C67.2145 15 15 67.2145 15 131.624C15 196.034 67.2145 248.249 131.624 248.249ZM131.624 263.249C204.319 263.249 263.249 204.319 263.249 131.624C263.249 58.9302 204.319 0 131.624 0C58.9302 0 0 58.9302 0 131.624C0 204.319 58.9302 263.249 131.624 263.249Z" fill="#212529"/>
<path fill-rule="evenodd" clip-rule="evenodd" d="M57.73 134.511C57.73 134.511 91.0721 177.808 132.202 177.808C173.331 177.808 206.673 134.511 206.673 134.511C206.673 134.511 173.331 91.2134 132.202 91.2134C91.0721 91.2134 57.73 134.511 57.73 134.511ZM81.185 134.511C83.8259 131.947 86.9201 129.15 90.3876 126.365C102.704 116.473 117.484 108.532 132.202 108.532C146.919 108.532 161.7 116.473 174.016 126.365C177.483 129.15 180.577 131.947 183.218 134.511C180.577 137.074 177.483 139.872 174.016 142.657C161.7 152.549 146.919 160.489 132.202 160.489C117.484 160.489 102.704 152.549 90.3876 142.657C86.9201 139.872 83.8259 137.074 81.185 134.511Z" fill="#FF2A50"/>
<path d="M152.407 135.088C152.407 146.566 143.102 155.871 131.624 155.871C120.146 155.871 110.842 146.566 110.842 135.088C110.842 123.61 120.146 114.305 131.624 114.305C143.102 114.305 152.407 123.61 152.407 135.088Z" fill="#FF2A50"/>
<path fill-rule="evenodd" clip-rule="evenodd" d="M274.584 254.259C271.82 257.343 267.078 257.602 263.994 254.837L229.377 223.804C226.293 221.039 226.034 216.297 228.799 213.213C231.564 210.129 236.306 209.87 239.39 212.635L274.006 243.668C277.091 246.433 277.349 251.174 274.584 254.259Z" fill="#212529"/>
</svg>
