<svg id="eqKIWric0RY1" xmlns="http://www.w3.org/2000/svg" xmlns:xlink="http://www.w3.org/1999/xlink" viewBox="0 0 154 154" shape-rendering="geometricPrecision" text-rendering="geometricPrecision"><style><![CDATA[#eqKIWric0RY3 {animation: eqKIWric0RY3_c_o 3000ms linear infinite normal forwards}@keyframes eqKIWric0RY3_c_o { 0% {opacity: 0} 23.333333% {opacity: 1} 66.666667% {opacity: 0} 100% {opacity: 0}} #eqKIWric0RY38 {animation: eqKIWric0RY38_c_o 3000ms linear infinite normal forwards}@keyframes eqKIWric0RY38_c_o { 0% {opacity: 0} 16.666667% {opacity: 0} 40% {opacity: 1} 83.333333% {opacity: 0} 100% {opacity: 0}} #eqKIWric0RY73 {animation: eqKIWric0RY73_c_o 3000ms linear infinite normal forwards}@keyframes eqKIWric0RY73_c_o { 0% {opacity: 0} 33.333333% {opacity: 0} 56.666667% {opacity: 1} 100% {opacity: 0}}]]></style><rect width="154" height="154" rx="0" ry="0" fill="#fff" fill-opacity="0"/><g id="eqKIWric0RY3" style="mix-blend-mode:multiply" opacity="0"><path d="M108.811,87.6155l10.075-1.0457v-6.248l-8.475-.8941-1.611-.1673c-.937-2.2481-2.375-4.2526-4.204-5.8612l5.815-4.8781-7.634-4.4129-8.4127,3.3619c-3.297-1.1778-6.712-1.9947-10.1851-2.4364L82.344,59.2196h-10.802l-1.8353,5.8141c-3.4747.4394-6.8914,1.2546-10.1903,2.4312L51.1038,64.103l-7.6179,4.4181l5.7984,4.8781c-1.8226,1.6179-3.253,3.6294-4.1828,5.8821l-1.6156.1725-8.4597.8889v6.2166L45.1015,87.605c.9283,2.2536,2.359,4.2654,4.1828,5.8821l-4.1828,3.5083-1.6156,1.3594l7.644,4.4132l8.4127-3.3623c3.2981,1.1793,6.7151,1.9943,10.1903,2.4313l1.8352,5.819h10.8021l1.8352-5.819c3.4733-.437,6.8886-1.253,10.185-2.4313l8.4126,3.3623l7.608-4.4132-1.611-1.3437-4.214-3.5135c1.84-1.6113,3.285-3.6237,4.225-5.8821v0ZM96.623,85.7019c-.5881,1.576-1.5754,2.9722-2.8652,4.0521-.8033.7153-1.6796,1.3445-2.6142,1.877-3.7646,2.175-8.8885,3.3933-14.1902,3.3933s-10.4622-1.2339-14.2005-3.3933c-.9347-.5325-1.8109-1.1617-2.6143-1.877-1.2928-1.0783-2.2821-2.4749-2.8704-4.0521-.379-1.1239-.4728-2.3243-.2729-3.4934s.6871-2.2702,1.4179-3.2043c1.5163-2.0914,4.0887-3.9266,7.3879-5.1971c7.2045-2.6071,15.0949-2.6071,22.2995,0c3.2991,1.2705,5.8716,3.0795,7.393,5.1971.727.9362,1.2106,2.0379,1.4077,3.2067s.1015,2.3682-.2783,3.491v0Z" fill="#fff"/><path d="M96.623,85.7019c-.5882,1.576-1.5754,2.9722-2.8652,4.0521-1.6822-1.4183-3.6007-2.5297-5.6677-3.2835-7.2046-2.6071-15.095-2.6071-22.2995,0-2.067.7602-3.9838,1.8788-5.6625,3.3044-1.2928-1.0782-2.2821-2.4749-2.8704-4.0521-.379-1.1239-.4728-2.3243-.2729-3.4934s.6871-2.2702,1.4179-3.2043c1.5163-2.0914,4.0887-3.9266,7.3879-5.1971c7.2045-2.6071,15.0949-2.6071,22.2995,0c3.2992,1.2705,5.8716,3.0796,7.3931,5.1971.7252.933,1.2087,2.0306,1.4075,3.1954.1989,1.1648.1069,2.3607-.2677,3.4814v0Z" fill="#ffe100"/><path d="M118.886,86.5593v12.6425l-8.465.8892v-1.7362l-1.61-1.3437v-9.3956l10.075-1.0562Z" fill="#fff"/><path d="M51.1037,102.768v12.642l-7.644-4.413v-12.6422l7.644,4.4132Z" fill="#fff"/><path d="M59.5164,99.4058v12.6422l-8.4126,3.362v-12.642l8.4126-3.3622Z" fill="#fff"/><path d="M69.7067,101.837v12.642c-3.4752-.437-6.8922-1.252-10.1903-2.431v-12.6422c3.2981,1.1792,6.7151,1.9942,10.1903,2.4312Z" fill="#fff"/><path d="M71.5419,107.656v12.643l-1.8352-5.82v-12.642l1.8352,5.819Z" fill="#fff"/><path d="M82.3439,107.656h-10.802v12.643h10.802v-12.643Z" fill="#fff"/><path d="M84.1792,101.837v12.642l-1.8352,5.82v-12.643l1.8352-5.819Z" fill="#fff"/><path d="M94.3643,99.4058v12.6422c-3.2964,1.179-6.7117,1.994-10.1851,2.431v-12.642c3.4734-.437,6.8887-1.253,10.1851-2.4312v0Z" fill="#fff"/><path d="M102.777,102.768v12.642l-8.4127-3.362v-12.6422l8.4127,3.3622Z" fill="#fff"/><path d="M110.421,98.3548v12.6422l-7.644,4.413v-12.642l7.644-4.4132Z" fill="#fff"/><path d="M49.2843,93.4976l-4.1828,3.5083v-9.4113c.9256,2.261,2.3564,4.2802,4.1828,5.903v0Z" fill="#fff"/><path d="M45.0753,87.6155v9.3956l-1.6156,1.3437v1.7362L35,99.2018v-12.6425l10.0753,1.0562Z" fill="#fff"/><path d="M49.2842,73.3992c-1.8225,1.6179-3.2529,3.6294-4.1828,5.8821l-1.6156.1725v-10.9328l5.7984,4.8782Z" fill="#fff"/><path d="M110.41,68.5211v10.9066l-1.61-.1673c-.937-2.2481-2.375-4.2526-4.204-5.8612l5.814-4.8781Z" fill="#fff"/><path d="M108.811,87.6155v9.4113l-4.215-3.5136c1.839-1.6168,3.281-3.6347,4.215-5.8977v0Z" fill="#fff"/><path d="M60.1229,89.7592c1.6798-1.4229,3.5988-2.5364,5.6677-3.2887c7.2046-2.6071,15.0949-2.6071,22.2995,0c2.0714.7599,3.992,1.8804,5.6729,3.3096" fill="none" stroke="#ffe100" stroke-miterlimit="10"/><path d="M102.777,102.768l7.634-4.4132-5.825-4.8572c1.836-1.6124,3.278-3.6248,4.214-5.8821l10.075-1.0457v-6.248L108.8,79.2761c-.935-2.2537-2.373-4.2639-4.204-5.8769l5.815-4.8781-7.634-4.4129-8.4127,3.3619c-3.297-1.1778-6.712-1.9947-10.1851-2.4364L82.344,59.2196h-10.802l-1.8353,5.8141c-3.4747.4394-6.8914,1.2546-10.1903,2.4312L51.1038,64.103l-7.6179,4.4181l5.7984,4.8781c-1.8226,1.6179-3.253,3.6294-4.1828,5.8821L35.0262,80.327v6.2323L45.1015,87.605c.9283,2.2536,2.359,4.2654,4.1828,5.8821l-5.7984,4.8677l7.644,4.4132l8.4127-3.3623c3.2981,1.1793,6.7151,1.9943,10.1903,2.4313l1.8352,5.819h10.8021l1.8352-5.819c3.4733-.437,6.8886-1.253,10.185-2.4313l8.3866,3.3623ZM62.7529,91.631c-2.8077-1.6208-4.7057-3.66-5.4952-5.9291-.379-1.1239-.4727-2.3243-.2729-3.4934s.6871-2.2702,1.418-3.2043c1.5162-2.0914,4.0886-3.9266,7.3878-5.1971c7.2046-2.6071,15.095-2.6071,22.2995,0c3.2992,1.2705,5.8716,3.0795,7.3931,5.1971.7287.9352,1.2142,2.0365,1.4131,3.2053s.105,2.3687-.2733,3.4924c-.7738,2.2482-2.6822,4.3083-5.4899,5.9291-3.7645,2.175-8.8884,3.3933-14.1901,3.3933s-10.4518-1.2339-14.1901-3.3933v0Z" fill="none" stroke="#ffe100" stroke-miterlimit="10"/><path d="M71.5419,107.656v12.643" fill="none" stroke="#ffe100" stroke-miterlimit="10"/><path d="M82.344,107.656v12.643" fill="none" stroke="#ffe100" stroke-miterlimit="10"/><path d="M84.1792,101.842v12.643" fill="none" stroke="#ffe100" stroke-miterlimit="10"/><path d="M94.3643,99.411v12.642" fill="none" stroke="#ffe100" stroke-miterlimit="10"/><path d="M102.777,102.773v12.642" fill="none" stroke="#ffe100" stroke-miterlimit="10"/><path d="M69.7067,101.842v12.643" fill="none" stroke="#ffe100" stroke-miterlimit="10"/><path d="M59.5216,99.411v12.642" fill="none" stroke="#ffe100" stroke-miterlimit="10"/><path d="M51.1038,102.773v12.642" fill="none" stroke="#ffe100" stroke-miterlimit="10"/><path d="M110.421,100.091l8.465-.8892v-12.6425" fill="none" stroke="#ffe100" stroke-miterlimit="10"/><path d="M110.411,98.3548v12.6422l-7.645,4.413-8.4122-3.362c-3.2964,1.179-6.7117,1.994-10.1851,2.431l-1.8352,5.82h-10.7916l-1.8352-5.82c-3.4751-.437-6.8922-1.252-10.1903-2.431l-8.4126,3.362-7.618-4.413v-12.6422" fill="none" stroke="#ffe100" stroke-miterlimit="10"/><path d="M35,86.5593v12.6425l8.4649.8892" fill="none" stroke="#ffe100" stroke-miterlimit="10"/><path d="M43.4649,68.521v10.9119" fill="none" stroke="#ffe100" stroke-miterlimit="10"/><path d="M110.421,68.5211v10.9118" fill="none" stroke="#ffe100" stroke-miterlimit="10"/><path d="M108.811,87.6207v9.3904" fill="none" stroke="#ffe100" stroke-miterlimit="10"/><path d="M45.0753,87.6207v9.3904" fill="none" stroke="#ffe100" stroke-miterlimit="10"/></g><g id="eqKIWric0RY38" style="mix-blend-mode:multiply" opacity="0"><path d="M108.811,74.552l10.075-1.0457v-6.248l-8.475-.8941-1.611-.1673c-.937-2.2481-2.375-4.2526-4.204-5.8612l5.815-4.8782-7.634-4.4128-8.4127,3.3619c-3.297-1.1778-6.712-1.9947-10.1851-2.4365l-1.8352-5.814h-10.802l-1.8353,5.814c-3.4747.4395-6.8914,1.2546-10.1903,2.4313l-8.4126-3.3619-7.6179,4.418l5.7984,4.8782c-1.8226,1.6179-3.253,3.6294-4.1828,5.8821l-1.6156.1725-8.4597.8889v6.2166l10.0753,1.0457c.9283,2.2535,2.359,4.2654,4.1828,5.8821l-4.1828,3.5083-1.6156,1.3594l7.644,4.4129l8.4127-3.362c3.2981,1.179,6.7151,1.9943,10.1903,2.4313l1.8352,5.8193h10.8021l1.8352-5.8193c3.4733-.4374,6.8886-1.2526,10.185-2.4313l8.4126,3.362l7.608-4.4129-1.611-1.3437-4.214-3.5136c1.84-1.6112,3.285-3.6236,4.225-5.882v0ZM96.623,72.6384c-.5881,1.5759-1.5754,2.9722-2.8652,4.052-.8033.7154-1.6796,1.3446-2.6142,1.8771-3.7646,2.175-8.8885,3.3933-14.1902,3.3933s-10.4622-1.234-14.2005-3.3933c-.9347-.5325-1.8109-1.1617-2.6143-1.8771-1.2928-1.0782-2.2821-2.4748-2.8704-4.052-.379-1.1239-.4728-2.3243-.2729-3.4934s.6871-2.2702,1.4179-3.2043c1.5163-2.0914,4.0887-3.9266,7.3879-5.1971c7.2045-2.6072,15.0949-2.6072,22.2995,0c3.2991,1.2705,5.8716,3.0795,7.393,5.1971.727.9362,1.2106,2.0379,1.4077,3.2067s.1015,2.3682-.2783,3.491v0Z" fill="#fff"/><path d="M96.623,72.6384c-.5882,1.576-1.5754,2.9722-2.8652,4.0521-1.6822-1.4183-3.6007-2.5297-5.6677-3.2835-7.2046-2.6071-15.095-2.6071-22.2995,0-2.067.7602-3.9838,1.8788-5.6625,3.3044-1.2928-1.0782-2.2821-2.4749-2.8704-4.0521-.379-1.1239-.4728-2.3243-.2729-3.4934s.6871-2.2702,1.4179-3.2043c1.5163-2.0914,4.0887-3.9266,7.3879-5.1971c7.2045-2.6071,15.0949-2.6071,22.2995,0c3.2992,1.2705,5.8716,3.0796,7.3931,5.1971.7252.9329,1.2087,2.0306,1.4075,3.1954.1989,1.1648.1069,2.3607-.2677,3.4814v0Z" fill="#2ab2ff"/><path d="M118.886,73.4958v12.6425l-8.465.8888v-1.7358l-1.61-1.3437v-9.3956l10.075-1.0562Z" fill="#fff"/><path d="M51.1037,89.7042v12.6428l-7.644-4.4132v-12.6425l7.644,4.4129Z" fill="#fff"/><path d="M59.5164,86.3422v12.6425l-8.4126,3.3623v-12.6428l8.4126-3.362Z" fill="#fff"/><path d="M69.7067,88.7735v12.6425c-3.4752-.437-6.8922-1.252-10.1903-2.4313v-12.6425c3.2981,1.179,6.7151,1.9943,10.1903,2.4313Z" fill="#fff"/><path d="M71.5419,94.5928v12.6422l-1.8352-5.819v-12.6425l1.8352,5.8193Z" fill="#fff"/><path d="M82.3439,94.5928h-10.802v12.6422h10.802v-12.6422Z" fill="#fff"/><path d="M84.1792,88.7735v12.6425l-1.8352,5.819v-12.6422l1.8352-5.8193Z" fill="#fff"/><path d="M94.3643,86.3422v12.6425c-3.2964,1.1783-6.7117,1.9943-10.1851,2.4313v-12.6425c3.4734-.4374,6.8887-1.2526,10.1851-2.4313v0Z" fill="#fff"/><path d="M102.777,89.7042v12.6428l-8.4127-3.3623v-12.6425l8.4127,3.362Z" fill="#fff"/><path d="M110.421,85.2913v12.6425l-7.644,4.4132v-12.6428l7.644-4.4129Z" fill="#fff"/><path d="M49.2843,80.4341l-4.1828,3.5083v-9.4113c.9256,2.261,2.3564,4.2802,4.1828,5.903v0Z" fill="#fff"/><path d="M45.0753,74.552v9.3956l-1.6156,1.3437v1.7358L35,86.1383v-12.6425L45.0753,74.552Z" fill="#fff"/><path d="M49.2842,60.3357c-1.8225,1.6179-3.2529,3.6294-4.1828,5.8821l-1.6156.1725v-10.9328l5.7984,4.8782Z" fill="#fff"/><path d="M110.41,55.4575v10.9067l-1.61-.1674c-.937-2.248-2.375-4.2526-4.204-5.8611l5.814-4.8782Z" fill="#fff"/><path d="M108.811,74.552v9.4113l-4.215-3.5136c1.839-1.6168,3.281-3.6347,4.215-5.8977v0Z" fill="#fff"/><path d="M60.1229,76.6957c1.6798-1.4229,3.5988-2.5364,5.6677-3.2887c7.2046-2.6071,15.0949-2.6071,22.2995,0c2.0714.7599,3.992,1.8804,5.6729,3.3096" fill="none" stroke="#2ab2ff" stroke-miterlimit="10"/><path d="M102.777,89.7042l7.634-4.4129-5.825-4.8573c1.836-1.6123,3.278-3.6247,4.214-5.882l10.075-1.0457v-6.248L108.8,66.2126c-.935-2.2537-2.373-4.2639-4.204-5.8769l5.815-4.8782-7.634-4.4128-8.4127,3.3619c-3.297-1.1778-6.712-1.9947-10.1851-2.4365l-1.8352-5.814h-10.802l-1.8353,5.814c-3.4747.4395-6.8914,1.2546-10.1903,2.4313l-8.4126-3.3619-7.6179,4.418l5.7984,4.8782c-1.8226,1.6179-3.253,3.6294-4.1828,5.8821L35.0262,67.2635v6.2323l10.0753,1.0457c.9283,2.2535,2.359,4.2654,4.1828,5.8821l-5.7984,4.8677l7.644,4.4129l8.4127-3.362c3.2981,1.179,6.7151,1.9943,10.1903,2.4313l1.8352,5.8193h10.8021l1.8352-5.8193c3.4733-.4374,6.8886-1.2526,10.185-2.4313l8.3866,3.362ZM62.7529,78.5675c-2.8077-1.6209-4.7057-3.66-5.4952-5.9291-.379-1.1239-.4727-2.3243-.2729-3.4934s.6871-2.2702,1.418-3.2043c1.5162-2.0914,4.0886-3.9266,7.3878-5.1971c7.2046-2.6072,15.095-2.6072,22.2995,0c3.2992,1.2705,5.8716,3.0795,7.3931,5.1971.7287.9352,1.2142,2.0365,1.4131,3.2053s.105,2.3687-.2733,3.4924c-.7738,2.2482-2.6822,4.3082-5.4899,5.9291-3.7645,2.175-8.8884,3.3933-14.1901,3.3933s-10.4518-1.234-14.1901-3.3933v0Z" fill="none" stroke="#2ab2ff" stroke-miterlimit="10"/><path d="M71.5419,94.5928v12.6422" fill="none" stroke="#2ab2ff" stroke-miterlimit="10"/><path d="M82.344,94.5928v12.6422" fill="none" stroke="#2ab2ff" stroke-miterlimit="10"/><path d="M84.1792,88.7787v12.6423" fill="none" stroke="#2ab2ff" stroke-miterlimit="10"/><path d="M94.3643,86.3475v12.6424" fill="none" stroke="#2ab2ff" stroke-miterlimit="10"/><path d="M102.777,89.7094v12.6426" fill="none" stroke="#2ab2ff" stroke-miterlimit="10"/><path d="M69.7067,88.7787v12.6423" fill="none" stroke="#2ab2ff" stroke-miterlimit="10"/><path d="M59.5216,86.3475v12.6424" fill="none" stroke="#2ab2ff" stroke-miterlimit="10"/><path d="M51.1038,89.7094v12.6426" fill="none" stroke="#2ab2ff" stroke-miterlimit="10"/><path d="M110.421,87.0271l8.465-.8888v-12.6425" fill="none" stroke="#2ab2ff" stroke-miterlimit="10"/><path d="M110.411,85.2913v12.6425l-7.645,4.4132-8.4122-3.3623c-3.2964,1.1783-6.7117,1.9943-10.1851,2.4313l-1.8352,5.819h-10.7916l-1.8352-5.819c-3.4751-.437-6.8922-1.252-10.1903-2.4313l-8.4126,3.3623-7.618-4.4132v-12.6425" fill="none" stroke="#2ab2ff" stroke-miterlimit="10"/><path d="M35,73.4958v12.6425l8.4649.8888" fill="none" stroke="#2ab2ff" stroke-miterlimit="10"/><path d="M43.4649,55.4575v10.9119" fill="none" stroke="#2ab2ff" stroke-miterlimit="10"/><path d="M110.421,55.4575v10.9119" fill="none" stroke="#2ab2ff" stroke-miterlimit="10"/><path d="M108.811,74.5572v9.3904" fill="none" stroke="#2ab2ff" stroke-miterlimit="10"/><path d="M45.0753,74.5572v9.3904" fill="none" stroke="#2ab2ff" stroke-miterlimit="10"/></g><g id="eqKIWric0RY73" style="mix-blend-mode:multiply" transform="translate(0 0.000001)" opacity="0"><g style="mix-blend-mode:multiply"><path d="M108.811,61.3959l10.075-1.0457v-6.248l-8.475-.8941-1.611-.1673c-.937-2.248-2.375-4.2526-4.204-5.8611l5.815-4.8782-7.634-4.4129-8.4127,3.362c-3.297-1.1779-6.712-1.9948-10.1851-2.4365L82.344,33h-10.802l-1.8353,5.8141c-3.4747.4394-6.8914,1.2546-10.1903,2.4312l-8.4126-3.3619-7.6179,4.4181l5.7984,4.8782c-1.8226,1.6178-3.253,3.6293-4.1828,5.882l-1.6156.1726-8.4597.8888v6.2167l10.0753,1.0457c.9283,2.2535,2.359,4.2653,4.1828,5.882l-4.1828,3.5083-1.6156,1.3594l7.644,4.4129l8.4127-3.3619c3.2981,1.179,6.7151,1.9942,10.1903,2.4312l1.8352,5.8193h10.8021l1.8352-5.8193c3.4733-.4374,6.8886-1.2526,10.185-2.4312l8.4126,3.3619l7.608-4.4129-1.611-1.3437-4.214-3.5135c1.84-1.6113,3.285-3.6237,4.225-5.8821v0ZM96.623,59.4823c-.5881,1.576-1.5754,2.9722-2.8652,4.0521-.8033.7154-1.6796,1.3445-2.6142,1.877-3.7646,2.1751-8.8885,3.3933-14.1902,3.3933s-10.4622-1.2339-14.2005-3.3933c-.9347-.5325-1.8109-1.1616-2.6143-1.877-1.2928-1.0782-2.2821-2.4749-2.8704-4.0521-.379-1.1239-.4728-2.3243-.2729-3.4934s.6871-2.2702,1.4179-3.2043c1.5163-2.0914,4.0887-3.9266,7.3879-5.1971c7.2045-2.6071,15.0949-2.6071,22.2995,0c3.2991,1.2705,5.8716,3.0796,7.393,5.1971.727.9362,1.2106,2.0379,1.4077,3.2067s.1015,2.3682-.2783,3.491v0Z" fill="#fff"/><path d="M96.623,59.4823c-.5882,1.576-1.5754,2.9722-2.8652,4.0521-1.6822-1.4182-3.6007-2.5296-5.6677-3.2835-7.2046-2.6071-15.095-2.6071-22.2995,0-2.067.7603-3.9838,1.8788-5.6625,3.3044-1.2928-1.0782-2.2821-2.4748-2.8704-4.0521-.379-1.1238-.4728-2.3243-.2729-3.4934.1998-1.169.6871-2.2701,1.4179-3.2043c1.5163-2.0914,4.0887-3.9266,7.3879-5.1971c7.2045-2.6071,15.0949-2.6071,22.2995,0c3.2992,1.2705,5.8716,3.0796,7.3931,5.1971.7252.933,1.2087,2.0306,1.4075,3.1954.1989,1.1648.1069,2.3607-.2677,3.4814v0Z" fill="#ffe100"/><path d="M118.886,60.3397v12.6425l-8.465.8889v-1.7359l-1.61-1.3437v-9.3956l10.075-1.0562Z" fill="#fff"/><path d="M51.1037,76.5481v12.6425l-7.644-4.4129v-12.6425l7.644,4.4129Z" fill="#fff"/><path d="M59.5164,73.1862v12.6425l-8.4126,3.3619v-12.6425l8.4126-3.3619Z" fill="#fff"/><path d="M69.7067,75.6174v12.6425c-3.4752-.437-6.8922-1.2522-10.1903-2.4312v-12.6425c3.2981,1.179,6.7151,1.9942,10.1903,2.4312Z" fill="#fff"/><path d="M71.5419,81.4367v12.6425l-1.8352-5.8193v-12.6425l1.8352,5.8193Z" fill="#fff"/><path d="M82.3439,81.4367h-10.802v12.6425h10.802v-12.6425Z" fill="#fff"/><path d="M84.1792,75.6174v12.6425L82.344,94.0792v-12.6425l1.8352-5.8193Z" fill="#fff"/><path d="M94.3643,73.1862v12.6425c-3.2964,1.1786-6.7117,1.9938-10.1851,2.4312v-12.6425c3.4734-.4373,6.8887-1.2526,10.1851-2.4312v0Z" fill="#fff"/><path d="M102.777,76.5481v12.6425l-8.4127-3.3619v-12.6425l8.4127,3.3619Z" fill="#fff"/><path d="M110.421,72.1352v12.6425l-7.644,4.4129v-12.6425l7.644-4.4129Z" fill="#fff"/><path d="M49.2843,67.278l-4.1828,3.5083v-9.4113c.9256,2.2611,2.3564,4.2803,4.1828,5.903v0Z" fill="#fff"/><path d="M45.0753,61.3959v9.3956l-1.6156,1.3437v1.7359L35,72.9822v-12.6425l10.0753,1.0562Z" fill="#fff"/><path d="M49.2842,47.1796c-1.8225,1.6179-3.2529,3.6294-4.1828,5.8821l-1.6156.1725v-10.9327l5.7984,4.8781Z" fill="#fff"/><path d="M110.41,42.3015v10.9066l-1.61-.1673c-.937-2.248-2.375-4.2526-4.204-5.8611l5.814-4.8782Z" fill="#fff"/><path d="M108.811,61.3959v9.4113l-4.215-3.5135c1.839-1.6169,3.281-3.6348,4.215-5.8978v0Z" fill="#fff"/><path d="M60.1229,63.5396c1.6798-1.4229,3.5988-2.5364,5.6677-3.2887c7.2046-2.6071,15.0949-2.6071,22.2995,0c2.0714.7599,3.992,1.8804,5.6729,3.3096" fill="none" stroke="#ffe100" stroke-miterlimit="10"/><path d="M102.777,76.5481l7.634-4.4129-5.825-4.8572c1.836-1.6124,3.278-3.6247,4.214-5.8821l10.075-1.0457v-6.248L108.8,53.0565c-.935-2.2537-2.373-4.2638-4.204-5.8768l5.815-4.8782-7.634-4.4129-8.4127,3.362c-3.297-1.1779-6.712-1.9948-10.1851-2.4365L82.344,33h-10.802l-1.8353,5.8141c-3.4747.4394-6.8914,1.2546-10.1903,2.4312l-8.4126-3.3619-7.6179,4.4181l5.7984,4.8782c-1.8226,1.6178-3.253,3.6293-4.1828,5.882L35.0262,54.1074v6.2324l10.0753,1.0457c.9283,2.2535,2.359,4.2653,4.1828,5.882l-5.7984,4.8677l7.644,4.4129l8.4127-3.3619c3.2981,1.179,6.7151,1.9942,10.1903,2.4312l1.8352,5.8193h10.8021l1.8352-5.8193c3.4733-.4374,6.8886-1.2526,10.185-2.4312l8.3866,3.3619ZM62.7529,65.4114c-2.8077-1.6208-4.7057-3.6599-5.4952-5.9291-.379-1.1239-.4727-2.3243-.2729-3.4934s.6871-2.2702,1.418-3.2043c1.5162-2.0914,4.0886-3.9266,7.3878-5.1971c7.2046-2.6071,15.095-2.6071,22.2995,0c3.2992,1.2705,5.8716,3.0796,7.3931,5.1971.7287.9353,1.2142,2.0366,1.4131,3.2054s.105,2.3687-.2733,3.4923c-.7738,2.2483-2.6822,4.3083-5.4899,5.9291-3.7645,2.1751-8.8884,3.3933-14.1901,3.3933s-10.4518-1.2339-14.1901-3.3933v0Z" fill="none" stroke="#ffe100" stroke-miterlimit="10"/><path d="M71.5419,81.4367v12.6425" fill="none" stroke="#ffe100" stroke-miterlimit="10"/><path d="M82.344,81.4367v12.6425" fill="none" stroke="#ffe100" stroke-miterlimit="10"/><path d="M84.1792,75.6227v12.6424" fill="none" stroke="#ffe100" stroke-miterlimit="10"/><path d="M94.3643,73.1914v12.6425" fill="none" stroke="#ffe100" stroke-miterlimit="10"/><path d="M102.777,76.5533v12.6425" fill="none" stroke="#ffe100" stroke-miterlimit="10"/><path d="M69.7067,75.6227v12.6424" fill="none" stroke="#ffe100" stroke-miterlimit="10"/><path d="M59.5216,73.1914v12.6425" fill="none" stroke="#ffe100" stroke-miterlimit="10"/><path d="M51.1038,76.5533v12.6425" fill="none" stroke="#ffe100" stroke-miterlimit="10"/><path d="M110.421,73.8711l8.465-.8889v-12.6425" fill="none" stroke="#ffe100" stroke-miterlimit="10"/><path d="M110.411,72.1352v12.6425l-7.645,4.4129-8.4122-3.3619c-3.2964,1.1786-6.7117,1.9938-10.1851,2.4312l-1.8352,5.8193h-10.7916l-1.8352-5.8193c-3.4751-.437-6.8922-1.2522-10.1903-2.4312l-8.4126,3.3619-7.618-4.4129v-12.6425" fill="none" stroke="#ffe100" stroke-miterlimit="10"/><path d="M35,60.3397v12.6425l8.4649.8889" fill="none" stroke="#ffe100" stroke-miterlimit="10"/><path d="M43.4649,42.3015v10.9118" fill="none" stroke="#ffe100" stroke-miterlimit="10"/><path d="M110.421,42.3015v10.9118" fill="none" stroke="#ffe100" stroke-miterlimit="10"/><path d="M108.811,61.4012v9.3903" fill="none" stroke="#ffe100" stroke-miterlimit="10"/><path d="M45.0753,61.4012v9.3903" fill="none" stroke="#ffe100" stroke-miterlimit="10"/></g><g style="mix-blend-mode:multiply"><path d="M108.811,61.3959l10.075-1.0457v-6.248l-8.475-.8941-1.611-.1673c-.937-2.248-2.375-4.2526-4.204-5.8611l5.815-4.8782-7.634-4.4129-8.4127,3.362c-3.297-1.1779-6.712-1.9948-10.1851-2.4365L82.344,33h-10.802l-1.8353,5.8141c-3.4747.4394-6.8914,1.2546-10.1903,2.4312l-8.4126-3.3619-7.6179,4.4181l5.7984,4.8782c-1.8226,1.6178-3.253,3.6293-4.1828,5.882l-1.6156.1726-8.4597.8888v6.2167l10.0753,1.0457c.9283,2.2535,2.359,4.2653,4.1828,5.882l-4.1828,3.5083-1.6156,1.3594l7.644,4.4129l8.4127-3.3619c3.2981,1.179,6.7151,1.9942,10.1903,2.4312l1.8352,5.8193h10.8021l1.8352-5.8193c3.4733-.4374,6.8886-1.2526,10.185-2.4312l8.4126,3.3619l7.608-4.4129-1.611-1.3437-4.214-3.5135c1.84-1.6113,3.285-3.6237,4.225-5.8821v0ZM96.623,59.4823c-.5881,1.576-1.5754,2.9722-2.8652,4.0521-.8033.7154-1.6796,1.3445-2.6142,1.877-3.7646,2.1751-8.8885,3.3933-14.1902,3.3933s-10.4622-1.2339-14.2005-3.3933c-.9347-.5325-1.8109-1.1616-2.6143-1.877-1.2928-1.0782-2.2821-2.4749-2.8704-4.0521-.379-1.1239-.4728-2.3243-.2729-3.4934s.6871-2.2702,1.4179-3.2043c1.5163-2.0914,4.0887-3.9266,7.3879-5.1971c7.2045-2.6071,15.0949-2.6071,22.2995,0c3.2991,1.2705,5.8716,3.0796,7.393,5.1971.727.9362,1.2106,2.0379,1.4077,3.2067s.1015,2.3682-.2783,3.491v0Z" fill="#fff"/><path d="M96.623,59.4823c-.5882,1.576-1.5754,2.9722-2.8652,4.0521-1.6822-1.4182-3.6007-2.5296-5.6677-3.2835-7.2046-2.6071-15.095-2.6071-22.2995,0-2.067.7603-3.9838,1.8788-5.6625,3.3044-1.2928-1.0782-2.2821-2.4748-2.8704-4.0521-.379-1.1238-.4728-2.3243-.2729-3.4934.1998-1.169.6871-2.2701,1.4179-3.2043c1.5163-2.0914,4.0887-3.9266,7.3879-5.1971c7.2045-2.6071,15.0949-2.6071,22.2995,0c3.2992,1.2705,5.8716,3.0796,7.3931,5.1971.7252.933,1.2087,2.0306,1.4075,3.1954.1989,1.1648.1069,2.3607-.2677,3.4814v0Z" fill="#2ab2ff"/><path d="M118.886,60.3397v12.6425l-8.465.8889v-1.7359l-1.61-1.3437v-9.3956l10.075-1.0562Z" fill="#fff"/><path d="M51.1037,76.5481v12.6425l-7.644-4.4129v-12.6425l7.644,4.4129Z" fill="#fff"/><path d="M59.5164,73.1862v12.6425l-8.4126,3.3619v-12.6425l8.4126-3.3619Z" fill="#fff"/><path d="M69.7067,75.6174v12.6425c-3.4752-.437-6.8922-1.2522-10.1903-2.4312v-12.6425c3.2981,1.179,6.7151,1.9942,10.1903,2.4312Z" fill="#fff"/><path d="M71.5419,81.4367v12.6425l-1.8352-5.8193v-12.6425l1.8352,5.8193Z" fill="#fff"/><path d="M82.3439,81.4367h-10.802v12.6425h10.802v-12.6425Z" fill="#fff"/><path d="M84.1792,75.6174v12.6425L82.344,94.0792v-12.6425l1.8352-5.8193Z" fill="#fff"/><path d="M94.3643,73.1862v12.6425c-3.2964,1.1786-6.7117,1.9938-10.1851,2.4312v-12.6425c3.4734-.4373,6.8887-1.2526,10.1851-2.4312v0Z" fill="#fff"/><path d="M102.777,76.5481v12.6425l-8.4127-3.3619v-12.6425l8.4127,3.3619Z" fill="#fff"/><path d="M110.421,72.1352v12.6425l-7.644,4.4129v-12.6425l7.644-4.4129Z" fill="#fff"/><path d="M49.2843,67.278l-4.1828,3.5083v-9.4113c.9256,2.2611,2.3564,4.2803,4.1828,5.903v0Z" fill="#fff"/><path d="M45.0753,61.3959v9.3956l-1.6156,1.3437v1.7359L35,72.9822v-12.6425l10.0753,1.0562Z" fill="#fff"/><path d="M49.2842,47.1796c-1.8225,1.6179-3.2529,3.6294-4.1828,5.8821l-1.6156.1725v-10.9327l5.7984,4.8781Z" fill="#fff"/><path d="M110.41,42.3015v10.9066l-1.61-.1673c-.937-2.2481-2.375-4.2526-4.204-5.8612l5.814-4.8781Z" fill="#fff"/><path d="M108.811,61.3959v9.4113l-4.215-3.5135c1.839-1.6169,3.281-3.6348,4.215-5.8978v0Z" fill="#fff"/><path d="M60.1229,63.5396c1.6798-1.4229,3.5988-2.5364,5.6677-3.2887c7.2046-2.6071,15.0949-2.6071,22.2995,0c2.0714.7599,3.992,1.8804,5.6729,3.3096" fill="none" stroke="#2ab2ff" stroke-miterlimit="10"/><path d="M102.777,76.5481l7.634-4.4129-5.825-4.8572c1.836-1.6124,3.278-3.6247,4.214-5.8821l10.075-1.0457v-6.248L108.8,53.0565c-.935-2.2537-2.373-4.2638-4.204-5.8768l5.815-4.8782-7.634-4.4129-8.4127,3.362c-3.297-1.1779-6.712-1.9948-10.1851-2.4365L82.344,33h-10.802l-1.8353,5.8141c-3.4747.4394-6.8914,1.2546-10.1903,2.4312l-8.4126-3.3619-7.6179,4.4181l5.7984,4.8782c-1.8226,1.6178-3.253,3.6293-4.1828,5.882L35.0262,54.1074v6.2324l10.0753,1.0457c.9283,2.2535,2.359,4.2653,4.1828,5.882l-5.7984,4.8677l7.644,4.4129l8.4127-3.3619c3.2981,1.179,6.7151,1.9942,10.1903,2.4312l1.8352,5.8193h10.8021l1.8352-5.8193c3.4733-.4374,6.8886-1.2526,10.185-2.4312l8.3866,3.3619ZM62.7529,65.4114c-2.8077-1.6208-4.7057-3.6599-5.4952-5.9291-.379-1.1239-.4727-2.3243-.2729-3.4934s.6871-2.2702,1.418-3.2043c1.5162-2.0914,4.0886-3.9266,7.3878-5.1971c7.2046-2.6071,15.095-2.6071,22.2995,0c3.2992,1.2705,5.8716,3.0796,7.3931,5.1971.7287.9353,1.2142,2.0366,1.4131,3.2054s.105,2.3687-.2733,3.4923c-.7738,2.2483-2.6822,4.3083-5.4899,5.9291-3.7645,2.1751-8.8884,3.3933-14.1901,3.3933s-10.4518-1.2339-14.1901-3.3933v0Z" fill="none" stroke="#2ab2ff" stroke-miterlimit="10"/><path d="M71.5419,81.4367v12.6425" fill="none" stroke="#2ab2ff" stroke-miterlimit="10"/><path d="M82.344,81.4367v12.6425" fill="none" stroke="#2ab2ff" stroke-miterlimit="10"/><path d="M84.1792,75.6227v12.6424" fill="none" stroke="#2ab2ff" stroke-miterlimit="10"/><path d="M94.3643,73.1914v12.6425" fill="none" stroke="#2ab2ff" stroke-miterlimit="10"/><path d="M102.777,76.5533v12.6425" fill="none" stroke="#2ab2ff" stroke-miterlimit="10"/><path d="M69.7067,75.6227v12.6424" fill="none" stroke="#2ab2ff" stroke-miterlimit="10"/><path d="M59.5216,73.1914v12.6425" fill="none" stroke="#2ab2ff" stroke-miterlimit="10"/><path d="M51.1038,76.5533v12.6425" fill="none" stroke="#2ab2ff" stroke-miterlimit="10"/><path d="M110.421,73.8711l8.465-.8889v-12.6425" fill="none" stroke="#2ab2ff" stroke-miterlimit="10"/><path d="M110.411,72.1352v12.6425l-7.645,4.4129-8.4122-3.3619c-3.2964,1.1786-6.7117,1.9938-10.1851,2.4312l-1.8352,5.8193h-10.7916l-1.8352-5.8193c-3.4751-.437-6.8922-1.2522-10.1903-2.4312l-8.4126,3.3619-7.618-4.4129v-12.6425" fill="none" stroke="#2ab2ff" stroke-miterlimit="10"/><path d="M35,60.3397v12.6425l8.4649.8889" fill="none" stroke="#2ab2ff" stroke-miterlimit="10"/><path d="M43.4649,42.3015v10.9118" fill="none" stroke="#2ab2ff" stroke-miterlimit="10"/><path d="M110.421,42.3015v10.9118" fill="none" stroke="#2ab2ff" stroke-miterlimit="10"/><path d="M108.811,61.4012v9.3903" fill="none" stroke="#2ab2ff" stroke-miterlimit="10"/><path d="M45.0753,61.4012v9.3903" fill="none" stroke="#2ab2ff" stroke-miterlimit="10"/></g></g></svg>