<svg width="469" height="469" viewBox="0 0 469 469" fill="none" xmlns="http://www.w3.org/2000/svg">
<circle cx="234.5" cy="234.5" r="226.5" stroke="#FF2A50" stroke-width="16"/>
<circle cx="233.5" cy="195.5" r="23.5" fill="#FF2A50"/>
<circle cx="235" cy="196" r="24.5" stroke="#212529" stroke-width="15"/>
<path d="M195 285V263.5C195 241.685 212.685 224 234.5 224V224C256.315 224 274 241.685 274 263.5V285" stroke="#212529" stroke-width="15" stroke-linecap="round"/>
<path fill-rule="evenodd" clip-rule="evenodd" d="M369.752 254.241L402.122 222.981C404.903 220.296 404.981 215.864 402.295 213.083C399.61 210.302 395.178 210.225 392.397 212.911L373.221 231.429C371.644 171.758 331.76 117.466 271.289 100.339C196.824 79.2494 119.362 122.518 98.2721 196.983C97.1433 200.968 99.4591 205.114 103.444 206.243C107.43 207.371 111.576 205.056 112.704 201.07C131.537 134.576 200.707 95.9392 267.201 114.772C321.323 130.1 357.004 178.788 358.236 232.239L338.665 211.973C335.98 209.192 331.548 209.114 328.767 211.8C325.986 214.485 325.909 218.917 328.595 221.698L359.854 254.068C362.54 256.849 366.971 256.926 369.752 254.241ZM99.5077 215.172L67.1374 246.431C64.3564 249.117 64.2791 253.548 66.9646 256.329C69.6502 259.11 74.0817 259.188 76.8626 256.502L96.039 237.984C97.6156 297.655 137.5 351.947 197.971 369.073C272.436 390.163 349.898 346.894 370.988 272.43C372.117 268.445 369.801 264.299 365.815 263.17C361.83 262.041 357.684 264.357 356.555 268.342C337.723 334.836 268.553 373.473 202.059 354.641C147.937 339.313 112.256 290.624 111.024 237.174L130.595 257.44C133.28 260.221 137.712 260.298 140.493 257.613C143.274 254.927 143.351 250.496 140.665 247.715L109.406 215.344C106.72 212.563 102.289 212.486 99.5077 215.172Z" fill="#212529"/>
<path fill-rule="evenodd" clip-rule="evenodd" d="M369.752 254.241L402.122 222.981C404.903 220.296 404.981 215.864 402.295 213.083C399.61 210.302 395.178 210.225 392.397 212.911L373.221 231.429C371.644 171.758 331.76 117.466 271.289 100.339C196.824 79.2494 119.362 122.518 98.2721 196.983C97.1433 200.968 99.4591 205.114 103.444 206.243C107.43 207.371 111.576 205.056 112.704 201.07C131.537 134.576 200.707 95.9392 267.201 114.772C321.323 130.1 357.004 178.788 358.236 232.239L338.665 211.973C335.98 209.192 331.548 209.114 328.767 211.8C325.986 214.485 325.909 218.917 328.595 221.698L359.854 254.068C362.54 256.849 366.971 256.926 369.752 254.241ZM99.5077 215.172L67.1374 246.431C64.3564 249.117 64.2791 253.548 66.9646 256.329C69.6502 259.11 74.0817 259.188 76.8626 256.502L96.039 237.984C97.6156 297.655 137.5 351.947 197.971 369.073C272.436 390.163 349.898 346.894 370.988 272.43C372.117 268.445 369.801 264.299 365.815 263.17C361.83 262.041 357.684 264.357 356.555 268.342C337.723 334.836 268.553 373.473 202.059 354.641C147.937 339.313 112.256 290.624 111.024 237.174L130.595 257.44C133.28 260.221 137.712 260.298 140.493 257.613C143.274 254.927 143.351 250.496 140.665 247.715L109.406 215.344C106.72 212.563 102.289 212.486 99.5077 215.172Z" fill="#212529"/>
</svg>
