<svg id="eBQpWyC8tfq1" xmlns="http://www.w3.org/2000/svg" xmlns:xlink="http://www.w3.org/1999/xlink" viewBox="0 0 154 154" shape-rendering="geometricPrecision" text-rendering="geometricPrecision"><style><![CDATA[#eBQpWyC8tfq2_to {animation: eBQpWyC8tfq2_to__to 6000ms linear infinite normal forwards}@keyframes eBQpWyC8tfq2_to__to { 0% {transform: translate(77.9035px,76.500004px);animation-timing-function: cubic-bezier(0.42,0,0.58,1)} 50% {transform: translate(53.9035px,76.500004px);animation-timing-function: cubic-bezier(0.42,0,0.58,1)} 100% {transform: translate(77.9035px,76.500004px)}} #eBQpWyC8tfq16_to {animation: eBQpWyC8tfq16_to__to 6000ms linear infinite normal forwards}@keyframes eBQpWyC8tfq16_to__to { 0% {transform: translate(75.9035px,76.500004px);animation-timing-function: cubic-bezier(0.42,0,0.58,1)} 50% {transform: translate(99.9035px,76.500004px);animation-timing-function: cubic-bezier(0.42,0,0.58,1)} 100% {transform: translate(75.9035px,76.500004px)}}]]></style><g id="eBQpWyC8tfq2_to" transform="translate(77.9035,76.500004)"><g style="mix-blend-mode:multiply" transform="translate(-76.9035,-76.500004)"><path d="M69.4398,121.677c.0375,1.955.8406,3.817,2.2365,5.187c1.3959,1.369,3.2734,2.136,5.2288,2.136c1.9555,0,3.8329-.767,5.2288-2.136c1.396-1.37,2.199-3.232,2.2366-5.187" fill="none" stroke="#ffe100" stroke-miterlimit="10"/><path d="M82.6794,84.1035l1.6911,37.5735c0,1.101-.7299,2.203-2.1869,3.046-2.914,1.683-7.6402,1.683-10.557,0-1.4569-.84-2.1868-1.945-2.1868-3.046l1.6911-37.5735" fill="#ffe100"/><path d="M82.6794,84.1035l1.6911,37.5735c0,1.101-.7299,2.203-2.1869,3.046-2.914,1.683-7.6402,1.683-10.557,0-1.4569-.84-2.1868-1.945-2.1868-3.046l1.6911-37.5735" fill="none" stroke="#ffe100" stroke-miterlimit="10"/><path d="M70.4616,83.7152l6.4449,3.7237l10.5569-6.0951v-2.3191l-2.6771-1.5451" fill="#fff"/><path d="M70.4616,83.7152l6.4449,3.7237l10.5569-6.0951v-2.3191l-2.6771-1.5451" fill="none" stroke="#ffe100" stroke-miterlimit="10"/><path d="M73.7969,83.324l3.1096,1.7958l10.5569-6.0951" fill="none" stroke="#ffe100" stroke-miterlimit="10"/><path d="M76.9065,85.1198v2.319" fill="none" stroke="#ffe100" stroke-miterlimit="10"/><path d="M80.1207,74.9153c9.1826-5.3018,16.6272-18.1971,16.6272-28.8009s-7.4364-14.9004-16.6272-9.5985c-9.1909,5.3019-16.6356,18.1944-16.6356,28.7982s7.453,14.9031,16.6356,9.6012Z" fill="none" stroke="#ffe100" stroke-miterlimit="10"/><path d="M80.1207,80.7571C92.096,73.8413,101.807,57.0239,101.807,43.195c0-13.829-9.711-19.4366-21.6863-12.5207s-21.6868,23.7304-21.6868,37.5621s9.7086,19.4338,21.6868,12.5207Z" fill="none" stroke="#ffe100" stroke-miterlimit="10"/><path d="M66.2181,74.6056c2.4593.0786,5.2636-.6595,8.2405-2.3069C84.208,66.8961,92.1122,53.756,92.1122,42.9509c0-3.4969-.8305-6.3203-2.278-8.3578" fill="none" stroke="#ffe100" stroke-miterlimit="10"/><path d="M65.1377,82.4702l-6.4284-3.7099C54.578,76.5872,52,71.6489,52,64.5264c0-13.8317,9.7087-30.649,21.6868-37.5621c5.8224-3.3602,11.1078-3.7678,15.0023-1.7076l6.4283,3.7127" fill="none" stroke="#ffe100" stroke-miterlimit="10"/><path d="M71.0399,60.3703L85.9926,40.4297" fill="none" stroke="#ffe100" stroke-miterlimit="10"/><path d="M68.6989,68.9552L79.6607,54.3413" fill="none" stroke="#ffe100" stroke-miterlimit="10"/></g></g><g id="eBQpWyC8tfq16_to" transform="translate(75.9035,76.500004)"><g style="mix-blend-mode:multiply" transform="translate(-76.9035,-76.500004)"><path d="M69.4398,121.677c.0375,1.955.8406,3.817,2.2365,5.187c1.3959,1.369,3.2734,2.136,5.2288,2.136c1.9555,0,3.8329-.767,5.2288-2.136c1.396-1.37,2.199-3.232,2.2366-5.187" fill="none" stroke="#2ab2ff" stroke-miterlimit="10"/><path d="M82.6794,84.1035l1.6911,37.5735c0,1.101-.7299,2.203-2.1869,3.046-2.914,1.683-7.6402,1.683-10.557,0-1.4569-.84-2.1868-1.945-2.1868-3.046l1.6911-37.5735" fill="#2ab2ff"/><path d="M82.6794,84.1035l1.6911,37.5735c0,1.101-.7299,2.203-2.1869,3.046-2.914,1.683-7.6402,1.683-10.557,0-1.4569-.84-2.1868-1.945-2.1868-3.046l1.6911-37.5735" fill="none" stroke="#2ab2ff" stroke-miterlimit="10"/><path d="M70.4616,83.7152l6.4449,3.7237l10.5569-6.0951v-2.3191l-2.6771-1.5451" fill="#fff"/><path d="M70.4616,83.7152l6.4449,3.7237l10.5569-6.0951v-2.3191l-2.6771-1.5451" fill="none" stroke="#2ab2ff" stroke-miterlimit="10"/><path d="M73.7969,83.324l3.1095,1.7958l10.557-6.0951" fill="none" stroke="#2ab2ff" stroke-miterlimit="10"/><path d="M76.9065,85.1198v2.319" fill="none" stroke="#2ab2ff" stroke-miterlimit="10"/><path d="M80.1207,74.9153c9.1826-5.3018,16.6272-18.1971,16.6272-28.8009s-7.4364-14.9004-16.6272-9.5985c-9.1909,5.3019-16.6356,18.1944-16.6356,28.7982s7.453,14.9031,16.6356,9.6012Z" fill="none" stroke="#2ab2ff" stroke-miterlimit="10"/><path d="M80.1207,80.7571C92.096,73.8413,101.807,57.0239,101.807,43.195c0-13.829-9.711-19.4366-21.6863-12.5207s-21.6868,23.7304-21.6868,37.5621s9.7086,19.4338,21.6868,12.5207Z" fill="none" stroke="#2ab2ff" stroke-miterlimit="10"/><path d="M66.2181,74.6056c2.4593.0786,5.2636-.6595,8.2405-2.3069C84.208,66.8961,92.1122,53.756,92.1122,42.9509c0-3.4969-.8305-6.3203-2.278-8.3578" fill="none" stroke="#2ab2ff" stroke-miterlimit="10"/><path d="M65.1377,82.4702l-6.4284-3.7099C54.578,76.5872,52,71.6489,52,64.5264c0-13.8317,9.7087-30.649,21.6868-37.5621c5.8224-3.3602,11.1078-3.7678,15.0023-1.7076l6.4283,3.7127" fill="none" stroke="#2ab2ff" stroke-miterlimit="10"/><path d="M71.0399,60.3703L85.9926,40.4297" fill="none" stroke="#2ab2ff" stroke-miterlimit="10"/><path d="M68.6989,68.9552L79.6607,54.3413" fill="none" stroke="#2ab2ff" stroke-miterlimit="10"/></g></g></svg>