<svg width="154" height="154" viewBox="0 0 154 154" fill="none" xmlns="http://www.w3.org/2000/svg">
<rect width="154" height="154" fill="white"/>
<g style="mix-blend-mode:multiply">
<path d="M86.9365 76.894L86.8678 76.8548C86.79 76.8229 86.7039 76.8178 86.6228 76.8401C86.485 76.8792 86.3594 76.9525 86.2577 77.0533L80.7441 82.4909C79.3449 83.8681 77.5781 83.2873 76.7964 81.1873C76.6907 80.9105 76.6087 80.6252 76.5513 80.3345C76.1544 78.3741 76.6935 76.0878 77.9089 74.8895L83.4396 69.4495C83.5599 69.3232 83.6577 69.1774 83.7288 69.0182C83.7968 68.8703 83.8351 68.7104 83.8415 68.5477C83.8491 68.4228 83.8137 68.2991 83.741 68.1973C83.7077 68.1565 83.6646 68.1246 83.6159 68.1045C83.5671 68.0844 83.5141 68.0767 83.4617 68.0821C81.2955 68.4105 78.9136 69.7974 76.7449 71.9588C74.8501 73.7832 73.2835 75.9202 72.1135 78.2761C71.7743 79.0161 71.3366 79.7068 70.8123 80.3296C70.3383 80.9026 69.7738 81.3943 69.1411 81.7852L38.9561 99.213C37.7848 99.8893 36.5056 100.306 35.5255 100.11C34.1115 99.8158 33.0186 98.4705 31.269 99.0488C29.6223 99.5928 27.8383 100.943 26.2994 102.479C24.0335 104.717 22.2548 107.4 21.075 110.358C21.0214 110.503 20.9989 110.659 21.0088 110.814C21.0118 110.871 21.0263 110.928 21.0516 110.98C21.0768 111.033 21.1123 111.079 21.1559 111.117C21.1663 111.127 21.1778 111.135 21.1902 111.142C21.231 111.165 21.2762 111.18 21.3229 111.185C21.3697 111.191 21.417 111.187 21.4622 111.174C21.5999 111.135 21.7255 111.061 21.8273 110.961L27.3458 105.52C27.4046 105.462 27.4634 105.408 27.5247 105.356C28.8969 104.183 30.5485 104.812 31.2984 106.827C32.0776 108.929 31.5777 111.745 30.1785 113.122L24.6625 118.562C24.5455 118.69 24.4511 118.836 24.3831 118.996C24.3147 119.143 24.2763 119.303 24.2704 119.466C24.2621 119.591 24.2967 119.714 24.3684 119.817L24.4199 119.868C24.4848 119.916 24.5649 119.939 24.6453 119.932C26.8116 119.601 29.1934 118.216 31.3596 116.055C33.256 114.23 34.8236 112.093 35.9935 109.735C36.3339 108.996 36.7715 108.305 37.2947 107.682C37.7691 107.11 38.3326 106.619 38.9635 106.226L69.1435 88.8033C70.3149 88.127 71.594 87.7129 72.5742 87.9065C73.993 88.1858 75.086 89.5336 76.8356 88.9577C78.4823 88.4137 80.2663 87.061 81.8076 85.527C84.0732 83.2842 85.8503 80.5969 87.0271 77.6341C87.0804 77.4901 87.1013 77.3361 87.0884 77.1832C87.0779 77.0705 87.0233 76.9666 86.9365 76.894ZM70.5918 86.3627L37.5103 105.476C36.5963 106.003 35.8563 105.574 35.8563 104.521C35.8874 103.947 36.0534 103.389 36.3408 102.892C36.6282 102.394 37.0289 101.972 37.5103 101.659L70.5918 82.5448C71.5058 82.018 72.2459 82.4443 72.2459 83.4981C72.2147 84.0719 72.0487 84.6304 71.7613 85.1281C71.4739 85.6258 71.0732 86.0488 70.5918 86.3627V86.3627Z" fill="white"/>
<path d="M72.2459 83.4981C72.2147 84.072 72.0487 84.6305 71.7613 85.1282C71.4739 85.6259 71.0733 86.0488 70.5918 86.3627L37.5104 105.476C36.5963 106.003 35.8563 105.574 35.8563 104.521C35.8874 103.947 36.0534 103.389 36.3409 102.892C36.6283 102.394 37.029 101.972 37.5104 101.659L70.5918 82.5449C71.5058 82.018 72.2459 82.4444 72.2459 83.4981Z" fill="white"/>
<path d="M30.1785 113.124L24.6625 118.564C24.5458 118.691 24.4513 118.837 24.3832 118.996C24.3147 119.143 24.2764 119.303 24.2704 119.466C24.2621 119.591 24.2967 119.714 24.3685 119.817L24.4199 119.868L20.3889 117.545C20.3738 117.531 20.3599 117.517 20.3472 117.501C20.2755 117.399 20.2409 117.275 20.2492 117.15C20.2551 116.988 20.2935 116.828 20.3619 116.68C20.4321 116.517 20.5299 116.368 20.6511 116.239L26.1671 110.799C27.3923 109.598 27.9241 107.309 27.5247 105.349C28.8969 104.175 30.5486 104.805 31.2984 106.819C32.0777 108.932 31.5778 111.747 30.1785 113.124Z" fill="#2AB2FF"/>
<path d="M27.5247 105.358V105.356" stroke="#2AB2FF" stroke-miterlimit="10" stroke-linejoin="round"/>
<path d="M86.8703 76.8548C86.7925 76.8229 86.7063 76.8177 86.6253 76.8401C86.4875 76.8792 86.3619 76.9525 86.2601 77.0533L80.7441 82.4909C79.3449 83.8681 77.5781 83.2873 76.7964 81.1872C76.6907 80.9105 76.6087 80.6252 76.5514 80.3345C76.6102 80.283 76.6665 80.2316 76.7253 80.1752L82.2438 74.7376C82.3456 74.6368 82.4712 74.5635 82.6089 74.5244C82.6898 74.5005 82.7765 74.5057 82.854 74.5391L86.8703 76.8548Z" fill="#2AB2FF"/>
<path d="M76.5633 80.3345L76.5612 80.3366" stroke="#2AB2FF" stroke-miterlimit="10" stroke-linejoin="round"/>
<path d="M83.6185 68.1064L79.6634 65.8201C79.6015 65.7744 79.524 65.755 79.4478 65.7662C77.2816 66.0946 74.9022 67.4693 72.7335 69.6429C70.8387 71.4674 69.272 73.6043 68.1021 75.9602C67.7627 76.6999 67.3242 77.39 66.7984 78.0113C66.3259 78.5848 65.7621 79.0766 65.1297 79.4668L34.9447 96.8971C33.7734 97.5734 32.4942 97.99 31.514 97.794C30.1001 97.4999 29.0072 96.1546 27.2575 96.7329C25.6108 97.2769 23.8269 98.6271 22.2855 100.164C20.0216 102.406 18.2454 105.093 17.0685 108.054C17.0149 108.2 16.9923 108.355 17.0023 108.51C17.0087 108.626 17.0606 108.735 17.1469 108.814L17.1714 108.831L21.1975 111.144" stroke="#2AB2FF" stroke-miterlimit="10" stroke-linejoin="round"/>
<path d="M21.1971 111.144L17.1734 108.821L17.1489 108.804C17.0626 108.726 17.0107 108.617 17.0043 108.5C16.9943 108.345 17.0168 108.19 17.0704 108.044C18.2474 105.083 20.0236 102.397 22.2875 100.154C23.8387 98.6273 25.6128 97.2771 27.2595 96.7233C29.0092 96.145 30.1021 97.4903 31.516 97.7843C32.4962 97.9804 33.7803 97.5638 34.9467 96.8875L65.1292 79.4817C65.7627 79.087 66.3266 78.5902 66.798 78.0114C67.3239 77.3894 67.7625 76.6985 68.1016 75.9579C69.2716 73.602 70.8382 71.4651 72.733 69.6406C74.9017 67.4744 77.2811 66.0948 79.4473 65.7591C79.5235 65.7479 79.601 65.7672 79.663 65.813L83.618 68.0993C83.5677 68.0783 83.5131 68.0699 83.4588 68.0748C81.2925 68.4031 78.9107 69.7901 76.7445 71.9514C74.8497 73.7759 73.283 75.9128 72.1131 78.2687C71.7739 79.0093 71.3353 79.7002 70.8094 80.3222C70.3368 80.8958 69.773 81.3875 69.1406 81.7778L38.9557 99.213C37.7843 99.8893 36.5052 100.306 35.525 100.11C34.1111 99.8158 33.0182 98.4705 31.2661 99.0488C29.6193 99.5928 27.8354 100.943 26.2965 102.479C24.0306 104.717 22.2526 107.399 21.0745 110.358C21.0198 110.503 20.9972 110.659 21.0084 110.814C21.011 110.871 21.0252 110.928 21.05 110.98C21.0748 111.032 21.1098 111.079 21.1529 111.117" fill="#2AB2FF"/>
<path d="M86.2651 77.0533L80.7441 82.4909C79.3474 83.8681 77.5781 83.2873 76.7989 81.1873C76.0196 79.0872 76.5195 76.2667 77.9187 74.8896L83.4397 69.4495C83.5599 69.3232 83.6577 69.1774 83.7288 69.0182C83.7968 68.8703 83.8352 68.7104 83.8415 68.5477C83.8491 68.4229 83.8137 68.2992 83.7411 68.1973C83.7077 68.1565 83.6647 68.1246 83.6159 68.1045C83.5671 68.0844 83.5142 68.0767 83.4617 68.0821C81.2955 68.4105 78.9136 69.7975 76.7474 71.9588C74.8526 73.7833 73.2859 75.9202 72.116 78.2761C71.7769 79.0167 71.3383 79.7076 70.8123 80.3296C70.3398 80.9031 69.776 81.3949 69.1436 81.7852L38.9562 99.213C37.7848 99.8893 36.5057 100.306 35.5255 100.11C34.1116 99.8158 33.0186 98.4705 31.2666 99.0488C29.6198 99.5928 27.8359 100.943 26.297 102.479C24.0311 104.717 22.2531 107.399 21.075 110.358C21.0202 110.503 20.9977 110.659 21.0089 110.814C21.0115 110.871 21.0257 110.928 21.0505 110.98C21.0753 111.032 21.1103 111.079 21.1534 111.117C21.1966 111.15 21.2468 111.172 21.2999 111.182C21.3531 111.192 21.4078 111.189 21.4597 111.174C21.598 111.134 21.7243 111.061 21.8273 110.961L27.3458 105.521C28.7499 104.131 30.5167 104.724 31.296 106.827C32.0752 108.929 31.5778 111.745 30.1785 113.122L24.6601 118.562C24.5446 118.69 24.4511 118.837 24.3832 118.996C24.3138 119.143 24.2747 119.303 24.268 119.466C24.2604 119.591 24.2959 119.715 24.3685 119.817C24.4016 119.858 24.4445 119.89 24.4933 119.911C24.542 119.931 24.5951 119.939 24.6478 119.934C26.814 119.603 29.1935 118.219 31.3621 116.058C33.2577 114.233 34.8245 112.095 35.9935 109.738C36.3348 108.998 36.7732 108.308 37.2972 107.684C37.7704 107.111 38.3341 106.62 38.966 106.229L69.146 88.8058C70.3174 88.1295 71.5965 87.7154 72.5767 87.9089C73.9955 88.1883 75.086 89.5361 76.8381 88.9602C78.4848 88.4162 80.2687 87.0635 81.8076 85.5295C84.0732 83.2867 85.8503 80.5994 87.0272 77.6365C87.0804 77.4926 87.1013 77.3386 87.0884 77.1857C87.0854 77.1281 87.0708 77.0718 87.0456 77.02C87.0203 76.9682 86.9849 76.922 86.9414 76.8842C86.8983 76.8525 86.8485 76.8311 86.7958 76.8218C86.7431 76.8124 86.6889 76.8153 86.6375 76.8303C86.4961 76.8711 86.3678 76.9479 86.2651 77.0533V77.0533Z" stroke="#2AB2FF" stroke-miterlimit="10" stroke-linejoin="round"/>
<path d="M70.8419 82.9778L70.842 82.9778C71.2067 82.767 71.4199 82.8102 71.5096 82.8619C71.5983 82.913 71.7404 83.0731 71.7434 83.4849C71.7147 83.9753 71.572 84.4523 71.3265 84.8779C71.081 85.3037 70.7395 85.6663 70.3293 85.9369L37.2617 105.043C37.2615 105.043 37.2613 105.043 37.2612 105.043C36.8921 105.254 36.6785 105.21 36.5894 105.159C36.5011 105.107 36.3593 104.947 36.3563 104.534C36.3851 104.044 36.528 103.567 36.7738 103.142C37.0197 102.716 37.3617 102.354 37.7724 102.085L70.8419 82.9778Z" stroke="#2AB2FF" stroke-miterlimit="10" stroke-linejoin="round"/>
<path d="M24.4126 119.871L20.3865 117.545C20.3715 117.532 20.3584 117.517 20.3473 117.501C20.2755 117.399 20.2409 117.275 20.2492 117.15C20.2552 116.988 20.2935 116.828 20.362 116.68C20.4321 116.518 20.529 116.369 20.6487 116.239L26.1671 110.799C27.3924 109.598 27.9217 107.307 27.5247 105.347" stroke="#2AB2FF" stroke-miterlimit="10" stroke-linejoin="round"/>
<path d="M86.9341 76.894L82.8614 74.5391C82.7838 74.5061 82.6973 74.5009 82.6163 74.5244C82.4786 74.5635 82.353 74.6368 82.2512 74.7376L76.7327 80.1752C76.6764 80.2316 76.6176 80.2855 76.5587 80.3369" stroke="#2AB2FF" stroke-miterlimit="10" stroke-linejoin="round"/>
<path d="M83.6185 68.1064L79.6634 65.8201C79.6015 65.7744 79.524 65.755 79.4478 65.7662C77.2816 66.0946 74.9022 67.4693 72.7335 69.6429C70.8387 71.4674 69.272 73.6043 68.1021 75.9602C67.7627 76.6999 67.3242 77.39 66.7984 78.0113C66.3259 78.5848 65.7621 79.0766 65.1297 79.4668L34.9447 96.8971C33.7734 97.5734 32.4942 97.99 31.514 97.794C30.1001 97.4999 29.0072 96.1546 27.2575 96.7329C25.6108 97.2769 23.8269 98.6271 22.2855 100.164C20.0216 102.406 18.2454 105.093 17.0685 108.054C17.0149 108.2 16.9923 108.355 17.0023 108.51C17.0087 108.626 17.0606 108.735 17.1469 108.814L17.1714 108.831L21.1975 111.144" stroke="#2AB2FF" stroke-miterlimit="10" stroke-linejoin="round"/>
</g>
<g style="mix-blend-mode:multiply">
<path d="M137.352 46.1531L137.283 46.1138C137.205 46.082 137.119 46.0768 137.038 46.0991C136.9 46.1382 136.775 46.2116 136.673 46.3123L131.159 51.7499C129.76 53.1271 127.993 52.5463 127.212 50.4463C127.106 50.1695 127.024 49.8842 126.967 49.5935C126.57 47.6331 127.109 45.3468 128.324 44.1486L133.855 38.7085C133.975 38.5822 134.073 38.4364 134.144 38.2772C134.212 38.1293 134.25 37.9694 134.257 37.8067C134.264 37.6819 134.229 37.5582 134.156 37.4563C134.123 37.4155 134.08 37.3836 134.031 37.3635C133.982 37.3434 133.929 37.3357 133.877 37.3411C131.711 37.6695 129.329 39.0565 127.16 41.2178C125.265 43.0423 123.699 45.1792 122.529 47.5351C122.19 48.2751 121.752 48.9659 121.228 49.5886C120.754 50.1617 120.189 50.6533 119.556 51.0442L89.3713 68.472C88.2 69.1483 86.9208 69.5649 85.9406 69.3689C84.5267 69.0748 83.4338 67.7295 81.6842 68.3078C80.0374 68.8518 78.2535 70.202 76.7146 71.7385C74.4487 73.9764 72.67 76.6586 71.4902 79.6168C71.4366 79.7624 71.414 79.9177 71.424 80.0725C71.427 80.1305 71.4415 80.1872 71.4668 80.2394C71.492 80.2916 71.5275 80.3382 71.5711 80.3764C71.5815 80.3859 71.593 80.3942 71.6054 80.4009C71.6462 80.4242 71.6914 80.439 71.7381 80.4445C71.7849 80.45 71.8322 80.446 71.8774 80.4328C72.0151 80.3937 72.1407 80.3203 72.2425 80.2196L77.761 74.7795C77.8198 74.7207 77.8786 74.6668 77.9398 74.6153C79.3121 73.4416 80.9637 74.0713 81.7136 76.0856C82.4928 78.1881 81.9929 81.0037 80.5937 82.3809L75.0777 87.821C74.9607 87.9487 74.8663 88.0954 74.7983 88.2547C74.7299 88.4025 74.6915 88.5624 74.6856 88.7252C74.6773 88.8498 74.7119 88.9734 74.7836 89.0756L74.8351 89.1271C74.8999 89.1751 74.9801 89.1977 75.0605 89.1908C77.2268 88.86 79.6086 87.4754 81.7748 85.3141C83.6712 83.4895 85.2388 81.3516 86.4087 78.9943C86.7491 78.255 87.1867 77.5643 87.7099 76.9408C88.1843 76.3691 88.7478 75.8776 89.3787 75.4853L119.559 58.0624C120.73 57.386 122.009 56.9719 122.989 57.1655C124.408 57.4448 125.501 58.7926 127.251 58.2167C128.898 57.6727 130.681 56.3201 132.223 54.7861C134.488 52.5432 136.265 49.8559 137.442 46.8931C137.496 46.7491 137.516 46.5952 137.504 46.4422C137.493 46.3296 137.438 46.2256 137.352 46.1531ZM121.007 55.6217L87.9255 74.7354C87.0115 75.2623 86.2715 74.8334 86.2715 73.7797C86.3026 73.2062 86.4686 72.6481 86.756 72.1507C87.0434 71.6534 87.4441 71.2309 87.9255 70.9176L121.007 51.8039C121.921 51.277 122.661 51.7034 122.661 52.7571C122.63 53.331 122.464 53.8894 122.176 54.3872C121.889 54.8849 121.488 55.3078 121.007 55.6217V55.6217Z" fill="white"/>
<path d="M122.661 52.7572C122.63 53.3311 122.464 53.8895 122.176 54.3872C121.889 54.885 121.488 55.3079 121.007 55.6218L87.9255 74.7355C87.0115 75.2623 86.2714 74.8335 86.2714 73.7798C86.3026 73.2063 86.4686 72.6481 86.756 72.1508C87.0434 71.6535 87.4441 71.231 87.9255 70.9177L121.007 51.8039C121.921 51.2771 122.661 51.7035 122.661 52.7572Z" fill="white"/>
<path d="M80.5937 82.3834L75.0776 87.8235C74.9609 87.9505 74.8665 88.0963 74.7983 88.2547C74.7298 88.4025 74.6915 88.5625 74.6856 88.7252C74.6772 88.8498 74.7118 88.9735 74.7836 89.0757L74.835 89.1271L70.804 86.8041C70.7889 86.7905 70.775 86.7758 70.7624 86.7599C70.6906 86.6578 70.656 86.5341 70.6643 86.4095C70.6703 86.2468 70.7086 86.0868 70.7771 85.939C70.8472 85.7764 70.945 85.6272 71.0662 85.498L76.5822 80.0579C77.8075 78.8572 78.3392 76.5684 77.9398 74.608C79.3121 73.4343 80.9637 74.064 81.7135 76.0783C82.4928 78.1906 81.9929 81.0062 80.5937 82.3834Z" fill="#2AB2FF"/>
<path d="M77.9398 74.6175V74.6154" stroke="#2AB2FF" stroke-miterlimit="10" stroke-linejoin="round"/>
<path d="M137.286 46.1139C137.208 46.082 137.122 46.0768 137.04 46.0992C136.903 46.1383 136.777 46.2116 136.675 46.3124L131.159 51.75C129.76 53.1271 127.993 52.5464 127.212 50.4463C127.106 50.1695 127.024 49.8842 126.967 49.5935C127.025 49.5421 127.082 49.4906 127.141 49.4343L132.659 43.9967C132.761 43.8959 132.886 43.8226 133.024 43.7835C133.105 43.7595 133.192 43.7647 133.269 43.7982L137.286 46.1139Z" fill="#2AB2FF"/>
<path d="M126.978 49.5935L126.976 49.5957" stroke="#2AB2FF" stroke-miterlimit="10" stroke-linejoin="round"/>
<path d="M134.034 37.3655L130.079 35.0792C130.017 35.0335 129.939 35.0141 129.863 35.0253C127.697 35.3537 125.317 36.7284 123.149 38.902C121.254 40.7264 119.687 42.8634 118.517 45.2193C118.178 45.959 117.739 46.6491 117.214 47.2704C116.741 47.8439 116.177 48.3356 115.545 48.7259L85.3598 66.1562C84.1885 66.8325 82.9093 67.2491 81.9292 67.053C80.5152 66.759 79.4223 65.4137 77.6727 65.992C76.026 66.536 74.242 67.8862 72.7007 69.4227C70.4367 71.6654 68.6605 74.3517 67.4836 77.3132C67.43 77.4588 67.4075 77.6141 67.4174 77.769C67.4238 77.8853 67.4758 77.9945 67.562 78.0728L67.5865 78.09L71.6126 80.4032" stroke="#2AB2FF" stroke-miterlimit="10" stroke-linejoin="round"/>
<path d="M71.6122 80.4034L67.5885 78.0803L67.564 78.0632C67.4778 77.9848 67.4258 77.8757 67.4194 77.7593C67.4094 77.6044 67.432 77.4492 67.4856 77.3035C68.6625 74.3421 70.4387 71.6558 72.7026 69.413C74.2538 67.8864 76.0279 66.5362 77.6747 65.9823C79.4243 65.404 80.5172 66.7493 81.9311 67.0434C82.9113 67.2394 84.1954 66.8229 85.3618 66.1465L115.544 48.7408C116.178 48.3461 116.742 47.8493 117.213 47.2705C117.739 46.6485 118.178 45.9576 118.517 45.217C119.687 42.8611 121.253 40.7241 123.148 38.8997C125.317 36.7335 127.696 35.3538 129.862 35.0181C129.939 35.0069 130.016 35.0263 130.078 35.072L134.033 37.3583C133.983 37.3373 133.928 37.3289 133.874 37.3338C131.708 37.6622 129.326 39.0492 127.16 41.2105C125.265 43.0349 123.698 45.1719 122.528 47.5278C122.189 48.2684 121.75 48.9593 121.225 49.5813C120.752 50.1548 120.188 50.6466 119.556 51.0369L89.3708 68.472C88.1995 69.1484 86.9203 69.5649 85.9401 69.3689C84.5262 69.0748 83.4333 67.7295 81.6812 68.3078C80.0345 68.8518 78.2505 70.2021 76.7116 71.7385C74.4457 73.9759 72.6677 76.6583 71.4897 79.6168C71.4349 79.7621 71.4123 79.9177 71.4235 80.0726C71.4261 80.1303 71.4403 80.1869 71.4651 80.2391C71.4899 80.2913 71.5249 80.338 71.5681 80.3764" fill="#2AB2FF"/>
<path d="M136.68 46.3124L131.159 51.75C129.762 53.1272 127.993 52.5464 127.214 50.4463C126.435 48.3463 126.935 45.5258 128.334 44.1486L133.855 38.7086C133.975 38.5823 134.073 38.4365 134.144 38.2773C134.212 38.1294 134.25 37.9695 134.257 37.8068C134.264 37.6819 134.229 37.5582 134.156 37.4564C134.123 37.4156 134.08 37.3837 134.031 37.3636C133.982 37.3435 133.929 37.3358 133.877 37.3412C131.711 37.6696 129.329 39.0565 127.163 41.2179C125.268 43.0423 123.701 45.1793 122.531 47.5352C122.192 48.2758 121.753 48.9666 121.227 49.5887C120.755 50.1622 120.191 50.654 119.559 51.0443L89.3713 68.4721C88.2 69.1484 86.9208 69.565 85.9406 69.3689C84.5267 69.0749 83.4338 67.7296 81.6817 68.3079C80.035 68.8519 78.251 70.2021 76.7121 71.7385C74.4462 73.9759 72.6682 76.6584 71.4902 79.6168C71.4354 79.7622 71.4128 79.9177 71.424 80.0726C71.4266 80.1303 71.4408 80.187 71.4656 80.2391C71.4904 80.2913 71.5254 80.338 71.5686 80.3765C71.6117 80.409 71.6619 80.4311 71.7151 80.4408C71.7682 80.4506 71.823 80.4479 71.8749 80.4328C72.0131 80.3932 72.1394 80.32 72.2424 80.2196L77.7609 74.7796C79.165 73.3902 80.9318 73.9832 81.7111 76.0857C82.4903 78.1882 81.9929 81.0038 80.5937 82.381L75.0752 87.821C74.9598 87.9495 74.8662 88.096 74.7983 88.2548C74.729 88.4024 74.6898 88.5623 74.6831 88.7253C74.6755 88.8501 74.711 88.9738 74.7836 89.0757C74.8167 89.1169 74.8596 89.1493 74.9084 89.1698C74.9572 89.1904 75.0103 89.1984 75.0629 89.1933C77.2292 88.8625 79.6086 87.478 81.7773 85.3166C83.6729 83.4919 85.2396 81.354 86.4087 78.9969C86.7499 78.2574 87.1883 77.5668 87.7123 76.9434C88.1856 76.3705 88.7492 75.8788 89.3811 75.4878L119.561 58.0649C120.732 57.3886 122.012 56.9744 122.992 57.168C124.411 57.4474 125.501 58.7951 127.253 58.2193C128.9 57.6753 130.684 56.3226 132.223 54.7886C134.488 52.5457 136.265 49.8584 137.442 46.8956C137.496 46.7516 137.516 46.5977 137.504 46.4447C137.501 46.3872 137.486 46.3308 137.461 46.279C137.435 46.2273 137.4 46.1811 137.357 46.1433C137.313 46.1116 137.264 46.0902 137.211 46.0808C137.158 46.0715 137.104 46.0744 137.053 46.0894C136.911 46.1301 136.783 46.207 136.68 46.3124V46.3124Z" stroke="#2AB2FF" stroke-miterlimit="10" stroke-linejoin="round"/>
<path d="M121.257 52.2369L121.257 52.2368C121.622 52.0261 121.835 52.0692 121.925 52.121C122.013 52.1721 122.156 52.3322 122.159 52.744C122.13 53.2343 121.987 53.7113 121.742 54.137C121.496 54.5628 121.155 54.9254 120.744 55.196L87.6768 74.3017C87.6766 74.3018 87.6765 74.3019 87.6763 74.302C87.3072 74.5135 87.0937 74.4694 87.0046 74.4178C86.9162 74.3665 86.7744 74.2061 86.7715 73.7931C86.8002 73.3029 86.9432 72.8262 87.1889 72.401C87.4348 71.9755 87.7768 71.6134 88.1876 71.3437L121.257 52.2369Z" stroke="#2AB2FF" stroke-miterlimit="10" stroke-linejoin="round"/>
<path d="M74.8278 89.1295L70.8016 86.804C70.7867 86.7911 70.7735 86.7763 70.7624 86.7599C70.6907 86.6577 70.6561 86.5341 70.6644 86.4095C70.6703 86.2467 70.7086 86.0868 70.7771 85.939C70.8473 85.777 70.9442 85.6279 71.0638 85.4979L76.5823 80.0579C77.8075 78.8571 78.3368 76.5659 77.9399 74.6056" stroke="#2AB2FF" stroke-miterlimit="10" stroke-linejoin="round"/>
<path d="M137.349 46.1531L133.277 43.7982C133.199 43.7651 133.112 43.7599 133.031 43.7835C132.894 43.8226 132.768 43.8959 132.666 43.9967L127.148 49.4343C127.091 49.4906 127.033 49.5445 126.974 49.596" stroke="#2AB2FF" stroke-miterlimit="10" stroke-linejoin="round"/>
<path d="M134.034 37.3655L130.079 35.0792C130.017 35.0335 129.939 35.0141 129.863 35.0253C127.697 35.3537 125.317 36.7284 123.149 38.902C121.254 40.7264 119.687 42.8634 118.517 45.2193C118.178 45.959 117.739 46.6491 117.214 47.2704C116.741 47.8439 116.177 48.3356 115.545 48.7259L85.3598 66.1562C84.1885 66.8325 82.9093 67.2491 81.9292 67.053C80.5152 66.759 79.4223 65.4137 77.6727 65.992C76.026 66.536 74.242 67.8862 72.7007 69.4227C70.4367 71.6654 68.6605 74.3517 67.4836 77.3132C67.43 77.4588 67.4075 77.6141 67.4174 77.769C67.4238 77.8853 67.4758 77.9945 67.562 78.0728L67.5865 78.09L71.6126 80.4032" stroke="#2AB2FF" stroke-miterlimit="10" stroke-linejoin="round"/>
</g>
<g style="mix-blend-mode:multiply">
<path d="M86.261 70.9802C86.2465 70.9295 86.2204 70.8829 86.1848 70.844C86.1492 70.8051 86.1051 70.775 86.0559 70.756C85.9444 70.7255 85.8253 70.7401 85.7244 70.7965C85.5884 70.8658 85.4689 70.9634 85.3738 71.0827C85.2652 71.2135 85.1797 71.362 85.121 71.5216L82.6668 78.8817C82.0467 80.742 79.8716 82.2971 77.8133 82.3519C76.0794 82.3972 74.9799 81.3598 75.0515 79.9216C75.0681 79.6356 75.1234 79.3532 75.216 79.0821L77.675 71.7243C77.722 71.5839 77.7367 71.4347 77.7179 71.2878C77.712 71.2326 77.6942 71.1793 77.6658 71.1316C77.6374 71.0838 77.599 71.0428 77.5533 71.0112C77.5061 70.9848 77.4535 70.9692 77.3995 70.9655C77.3455 70.9618 77.2913 70.9701 77.2409 70.9897C77.1033 71.0389 76.9798 71.1208 76.8808 71.2282C74.8069 73.551 73.2328 76.2755 72.2562 79.2323C71.3976 81.7986 71.0065 84.1407 71.2378 86.0082C71.3248 86.6784 71.2835 87.3591 71.1162 88.014C70.9334 88.7711 70.6443 89.4986 70.2576 90.1748L49.4913 126.131C48.6827 127.531 47.6119 128.941 46.479 129.852C44.8476 131.166 42.9182 131.786 41.4538 133.725C40.0776 135.55 39.0521 137.78 38.3532 139.845C37.3611 142.745 37.1178 145.545 37.6687 147.744C37.6896 147.819 37.7339 147.885 37.7951 147.933L37.8715 147.976C37.9273 147.992 37.9857 147.997 38.0434 147.99C38.1011 147.983 38.157 147.966 38.2078 147.937C38.3499 147.871 38.4754 147.773 38.575 147.651C38.6797 147.517 38.7604 147.365 38.8136 147.203L41.2701 139.847C41.7757 138.328 43.3141 137.014 44.9812 136.551C45.3525 136.446 45.7354 136.387 46.1212 136.375C48.1795 136.322 49.3434 137.789 48.7209 139.645L46.262 147.024C46.2151 147.165 46.2004 147.315 46.219 147.463C46.2327 147.57 46.2885 147.668 46.374 147.735L46.4098 147.754C46.5018 147.79 46.604 147.79 46.696 147.754C46.8339 147.705 46.9576 147.623 47.0562 147.515C49.135 145.195 50.7133 142.471 51.6926 139.514C52.5488 136.945 52.9328 134.608 52.7086 132.726C52.6228 132.056 52.6641 131.377 52.8303 130.722C53.0141 129.965 53.3031 129.237 53.6889 128.559L74.4576 92.586C75.2637 91.1908 76.337 89.7765 77.4699 88.8654C79.1012 87.5513 81.0307 86.9335 82.4951 84.9945C83.8689 83.1724 84.8968 80.94 85.5956 78.877C86.5735 75.9744 86.812 73.1768 86.261 70.9802ZM74.4934 90.2988L51.7212 129.737C51.0916 130.825 50.0732 131.407 49.4459 131.052C48.8187 130.696 48.8163 129.511 49.4459 128.428L72.2181 88.9799C72.8477 87.8923 73.8661 87.3104 74.4934 87.6657C75.1206 88.0211 75.123 89.2184 74.4934 90.294V90.2988Z" fill="white"/>
<path d="M74.4933 90.2941L51.7212 129.737C51.0916 130.825 50.0732 131.407 49.4459 131.052C48.8187 130.696 48.8163 129.511 49.4459 128.428L72.218 88.9799C72.8477 87.8924 73.8661 87.3104 74.4933 87.6658C75.1206 88.0212 75.123 89.2184 74.4933 90.2941Z" fill="white"/>
<path d="M86.0559 70.756C85.9444 70.7256 85.8253 70.7401 85.7244 70.7966C85.5884 70.8658 85.4689 70.9634 85.3738 71.0828C85.2651 71.2136 85.1796 71.362 85.121 71.5216L82.6668 78.8818C82.0467 80.7421 79.8716 82.2971 77.8133 82.3519C76.0794 82.3973 74.9799 81.3598 75.0515 79.9216C76.721 79.4589 78.2569 78.1448 78.7625 76.6279L81.2167 69.2678C81.2754 69.1082 81.3609 68.9597 81.4695 68.8289C81.5646 68.7096 81.6842 68.612 81.8201 68.5427C81.921 68.4863 82.0401 68.4717 82.1516 68.5022L86.0559 70.756Z" fill="#FFE100"/>
<path d="M77.5533 71.0113C77.506 70.9849 77.4535 70.9693 77.3995 70.9656C77.3455 70.9619 77.2913 70.9702 77.2409 70.9899C77.1033 71.0391 76.9797 71.1209 76.8807 71.2284C74.8068 73.5512 73.2327 76.2756 72.2562 79.2325C71.3976 81.7987 71.0064 84.1408 71.2378 86.0083C71.3247 86.6786 71.2834 87.3592 71.1161 88.0141C70.9334 88.7713 70.6443 89.4988 70.2575 90.1749L49.4912 126.131C48.6827 127.531 47.6118 128.941 46.4789 129.852C44.8476 131.166 42.9181 131.786 41.4537 133.725C40.0776 135.55 39.052 137.78 38.3532 139.845C37.361 142.745 37.1178 145.545 37.6687 147.744C37.6896 147.819 37.7339 147.885 37.7951 147.933L33.9672 145.722C33.9167 145.701 33.8719 145.669 33.8366 145.627C33.8013 145.586 33.7765 145.537 33.7644 145.483C33.2135 143.284 33.4568 140.475 34.4513 137.584C35.1454 135.514 36.1709 133.291 37.5518 131.464C39.0139 129.525 40.9433 128.905 42.5771 127.591C43.7076 126.68 44.7808 125.27 45.587 123.87L66.3533 87.9139C66.7397 87.2374 67.0295 86.51 67.2143 85.7531C67.3792 85.0979 67.4204 84.4176 67.3359 83.7473C67.0974 81.8798 67.4933 79.5377 68.3519 76.9715C69.3284 74.0146 70.9026 71.2902 72.9765 68.9674C73.0755 68.8599 73.199 68.7781 73.3366 68.7289C73.387 68.7092 73.4412 68.7009 73.4952 68.7046C73.5492 68.7083 73.6018 68.7239 73.649 68.7503L77.5533 71.0113Z" fill="#FFE100"/>
<path d="M46.2643 147.017C46.2174 147.158 46.2028 147.308 46.2214 147.456C46.2351 147.563 46.2908 147.661 46.3764 147.728L42.5079 145.505L42.4817 145.49C42.4365 145.458 42.3987 145.417 42.3707 145.37C42.3428 145.322 42.3253 145.269 42.3195 145.214C42.2993 145.066 42.314 144.916 42.3624 144.775L44.819 137.396C44.9127 137.125 44.9681 136.842 44.9836 136.556C45.3549 136.451 45.7378 136.391 46.1236 136.38C48.1819 136.327 49.3458 137.794 48.7233 139.649L46.2643 147.017Z" fill="#FFE100"/>
<path d="M38.8136 147.196L41.2701 139.84C41.8902 137.978 44.0654 136.42 46.1213 136.368C48.1771 136.315 49.341 137.782 48.7209 139.638L46.262 147.017C46.2136 147.158 46.1989 147.308 46.219 147.456C46.2253 147.511 46.2432 147.564 46.2715 147.612C46.2999 147.659 46.3381 147.701 46.3836 147.732C46.4309 147.759 46.4834 147.774 46.5374 147.778C46.5914 147.782 46.6456 147.773 46.696 147.754C46.8336 147.705 46.9572 147.623 47.0562 147.515C49.1342 145.194 50.7124 142.471 51.6927 139.514C52.5489 136.945 52.9305 134.608 52.7087 132.726C52.6217 132.056 52.663 131.376 52.8303 130.722C53.0141 129.965 53.3031 129.237 53.6889 128.559L74.4457 92.586C75.2518 91.1908 76.3251 89.7765 77.458 88.8654C79.0893 87.5513 81.0188 86.9335 82.4832 84.9945C83.857 83.1724 84.8849 80.94 85.5837 78.877C86.5735 75.9744 86.812 73.1768 86.261 70.9802C86.2465 70.9295 86.2204 70.8829 86.1848 70.844C86.1493 70.8051 86.1051 70.775 86.0559 70.756C85.9444 70.7255 85.8253 70.7401 85.7244 70.7965C85.5885 70.8658 85.4689 70.9634 85.3738 71.0827C85.2652 71.2135 85.1797 71.362 85.121 71.5216L82.6668 78.8817C82.0467 80.742 79.8716 82.2971 77.8133 82.3519C75.7551 82.4068 74.5936 80.9376 75.216 79.0821L77.675 71.7243C77.722 71.5839 77.7367 71.4347 77.7179 71.2878C77.712 71.2326 77.6942 71.1793 77.6658 71.1316C77.6374 71.0838 77.5991 71.0428 77.5534 71.0112C77.5061 70.9848 77.4536 70.9692 77.3995 70.9655C77.3455 70.9618 77.2914 70.9701 77.2409 70.9897C77.1034 71.0389 76.9798 71.1208 76.8808 71.2282C74.8069 73.551 73.2328 76.2755 72.2562 79.2323C71.4 81.7986 71.0065 84.1407 71.2402 86.0082C71.3259 86.6785 71.2847 87.3589 71.1186 88.014C70.9346 88.7708 70.6456 89.4981 70.26 90.1748V90.1748L49.4913 126.131C48.6828 127.531 47.6119 128.941 46.479 129.852C44.8477 131.166 42.9158 131.786 41.4538 133.725C40.0752 135.55 39.0521 137.78 38.3533 139.845C37.3587 142.745 37.1178 145.545 37.6688 147.744C37.6805 147.798 37.7051 147.847 37.7405 147.889C37.7758 147.93 37.8208 147.963 37.8715 147.983C37.9273 147.999 37.9857 148.004 38.0434 147.997C38.1011 147.991 38.157 147.973 38.2078 147.945C38.3503 147.875 38.4757 147.775 38.5751 147.651C38.6798 147.517 38.7604 147.365 38.8136 147.203V147.196Z" stroke="#FFE100" stroke-miterlimit="10" stroke-linejoin="round"/>
<path d="M51.2858 129.487L51.2857 129.488C51.0084 129.968 50.6553 130.316 50.3324 130.501C49.9962 130.694 49.7871 130.668 49.6925 130.613C49.6003 130.56 49.4731 130.396 49.4731 130.008C49.4731 129.635 49.5989 129.155 49.8767 128.673L72.6484 89.2352C72.9273 88.7534 73.2804 88.4049 73.6031 88.2188C73.9388 88.0252 74.1481 88.0508 74.244 88.1053C74.3356 88.1574 74.4632 88.3204 74.4632 88.7087C74.4632 89.0812 74.337 89.5621 74.0583 90.0436L74.058 90.0441L51.2858 129.487Z" stroke="#FFE100" stroke-miterlimit="10" stroke-linejoin="round"/>
<path d="M75.0491 79.9168C76.7186 79.4542 78.257 78.14 78.7602 76.6231L81.2144 69.263C81.273 69.1028 81.3594 68.9543 81.4696 68.8241C81.5633 68.7044 81.6822 68.6067 81.8178 68.5379C81.9196 68.4816 82.0394 68.4671 82.1517 68.4974L86.0536 70.7512" stroke="#FFE100" stroke-miterlimit="10" stroke-linejoin="round"/>
<path d="M37.8739 147.976L33.9696 145.722C33.9189 145.702 33.8739 145.669 33.8385 145.628C33.8032 145.586 33.7786 145.537 33.7669 145.483C33.2159 143.284 33.4592 140.475 34.4514 137.584C35.1478 135.514 36.1733 133.291 37.5519 131.464C39.0139 129.525 40.9458 128.905 42.5771 127.591C43.71 126.68 44.7809 125.27 45.5894 123.87L66.3557 87.9139C66.7413 87.2372 67.0303 86.5099 67.2143 85.7531C67.3816 85.0982 67.4229 84.4176 67.3359 83.7473C67.0974 81.8798 67.4957 79.5378 68.352 76.9715C69.3285 74.0146 70.9026 71.2902 72.9765 68.9674C73.0755 68.8599 73.1991 68.7781 73.3366 68.7289C73.3871 68.7092 73.4412 68.7009 73.4953 68.7046C73.5493 68.7083 73.6018 68.7239 73.6491 68.7503L77.5533 71.0042" stroke="#FFE100" stroke-miterlimit="10" stroke-linejoin="round"/>
<path d="M46.4122 147.747L42.508 145.505L42.4817 145.49C42.4362 145.459 42.398 145.417 42.3697 145.37C42.3413 145.322 42.3234 145.269 42.3172 145.214C42.2985 145.066 42.3132 144.916 42.3601 144.775L44.819 137.396C44.9116 137.125 44.967 136.842 44.9836 136.556" stroke="#FFE100" stroke-miterlimit="10" stroke-linejoin="round"/>
</g>
<g style="mix-blend-mode:multiply">
<path d="M120.691 9.49828C120.676 9.4476 120.65 9.40097 120.615 9.36207C120.579 9.32317 120.535 9.29306 120.486 9.27408C120.374 9.24364 120.255 9.2582 120.154 9.31463C120.018 9.3839 119.899 9.48149 119.804 9.60083C119.695 9.73165 119.609 9.88006 119.551 10.0397L117.097 17.3998C116.477 19.2601 114.301 20.8152 112.243 20.87C110.509 20.9153 109.41 19.8779 109.481 18.4397C109.498 18.1537 109.553 17.8713 109.646 17.6002L112.105 10.2424C112.152 10.102 112.166 9.95281 112.148 9.80595C112.142 9.75071 112.124 9.69741 112.096 9.64966C112.067 9.60192 112.029 9.56086 111.983 9.52928C111.936 9.5029 111.883 9.48729 111.829 9.48358C111.775 9.47987 111.721 9.48815 111.671 9.50782C111.533 9.55705 111.41 9.63888 111.311 9.74632C109.237 12.0691 107.663 14.7936 106.686 17.7504C105.827 20.3167 105.436 22.6588 105.668 24.5263C105.755 25.1965 105.713 25.8772 105.546 26.5321C105.363 27.2892 105.074 28.0167 104.687 28.6929L83.9211 64.6493C83.1126 66.0494 82.0417 67.4589 80.9088 68.37C79.2775 69.6841 77.348 70.3042 75.8836 72.2432C74.5075 74.0678 73.4819 76.2978 72.7831 78.3632C71.7909 81.2634 71.5476 84.0634 72.0986 86.2623C72.1195 86.3371 72.1638 86.4031 72.225 86.4508L72.3013 86.4937C72.3571 86.5098 72.4156 86.5147 72.4733 86.5081C72.531 86.5016 72.5868 86.4837 72.6376 86.4555C72.7798 86.3886 72.9053 86.2909 73.0049 86.1693C73.1096 86.0347 73.1903 85.883 73.2434 85.7209L75.7 78.3656C76.2056 76.8463 77.7439 75.5322 79.411 75.0695C79.7824 74.9641 80.1653 74.9048 80.5511 74.893C82.6093 74.8405 83.7732 76.3073 83.1507 78.1628L80.6918 85.5421C80.6449 85.6833 80.6302 85.8333 80.6489 85.9809C80.6626 86.0885 80.7183 86.1862 80.8039 86.2528L80.8397 86.2719C80.9316 86.308 81.0339 86.308 81.1259 86.2719C81.2637 86.2233 81.3874 86.1413 81.486 86.0334C83.5648 83.713 85.1432 80.9891 86.1225 78.0317C86.9787 75.463 87.3627 73.1257 87.1385 71.2439C87.0527 70.5744 87.0939 69.8947 87.2601 69.2405C87.4439 68.4829 87.7329 67.7547 88.1187 67.0773L108.887 31.1041C109.694 29.7089 110.767 28.2946 111.9 27.3835C113.531 26.0694 115.461 25.4516 116.925 23.5126C118.299 21.6905 119.327 19.4581 120.025 17.3951C121.003 14.4925 121.242 11.6949 120.691 9.49828ZM108.923 28.8169L86.1511 68.2555C85.5214 69.3431 84.503 69.925 83.8758 69.5696C83.2485 69.2143 83.2461 68.0289 83.8758 66.9461L106.648 27.498C107.278 26.4104 108.296 25.8285 108.923 26.1838C109.55 26.5392 109.553 27.7365 108.923 28.8121V28.8169Z" fill="white"/>
<path d="M108.923 28.8122L86.1511 68.2555C85.5214 69.3431 84.503 69.925 83.8758 69.5697C83.2485 69.2143 83.2461 68.029 83.8758 66.9462L106.648 27.498C107.278 26.4105 108.296 25.8285 108.923 26.1839C109.55 26.5392 109.553 27.7365 108.923 28.8122Z" fill="white"/>
<path d="M120.486 9.27411C120.374 9.24366 120.255 9.25822 120.154 9.31465C120.018 9.38393 119.899 9.48151 119.804 9.60085C119.695 9.73167 119.609 9.88008 119.551 10.0397L117.097 17.3999C116.477 19.2602 114.301 20.8152 112.243 20.87C110.509 20.9154 109.41 19.8779 109.481 18.4397C111.151 17.977 112.687 16.6629 113.192 15.146L115.647 7.78586C115.705 7.62625 115.791 7.47783 115.899 7.34702C115.994 7.22768 116.114 7.13008 116.25 7.06081C116.351 7.00438 116.47 6.98983 116.581 7.02027L120.486 9.27411Z" fill="#FFE100"/>
<path d="M111.983 9.52942C111.936 9.50304 111.883 9.48743 111.829 9.48372C111.775 9.48001 111.721 9.48829 111.671 9.50796C111.533 9.55719 111.41 9.63902 111.311 9.74646C109.237 12.0693 107.663 14.7937 106.686 17.7506C105.827 20.3168 105.436 22.6589 105.668 24.5264C105.755 25.1967 105.713 25.8773 105.546 26.5322C105.363 27.2894 105.074 28.0169 104.687 28.693L83.9211 64.6495C83.1125 66.0495 82.0417 67.459 80.9088 68.3701C79.2774 69.6842 77.348 70.3043 75.8836 72.2434C74.5074 74.0679 73.4819 76.2979 72.783 78.3633C71.7909 81.2635 71.5476 84.0635 72.0985 86.2625C72.1194 86.3372 72.1637 86.4032 72.2249 86.4509L68.397 84.24C68.3465 84.2195 68.3017 84.1871 68.2664 84.1456C68.2311 84.104 68.2064 84.0546 68.1943 84.0015C67.6433 81.8025 67.8866 78.993 68.8812 76.1023C69.5752 74.0321 70.6008 71.8093 71.9817 69.9824C73.4437 68.0434 75.3732 67.4233 77.0069 66.1091C78.1374 65.198 79.2107 63.7885 80.0168 62.3885L100.783 26.432C101.17 25.7555 101.459 25.0281 101.644 24.2712C101.809 23.616 101.85 22.9357 101.766 22.2654C101.527 20.3979 101.923 18.0558 102.782 15.4896C103.758 12.5327 105.332 9.80827 107.406 7.48547C107.505 7.37803 107.629 7.29619 107.766 7.24696C107.817 7.22729 107.871 7.21902 107.925 7.22273C107.979 7.22644 108.032 7.24204 108.079 7.26843L111.983 9.52942Z" fill="#FFE100"/>
<path d="M80.6942 85.5349C80.6473 85.6761 80.6326 85.8261 80.6512 85.9737C80.6649 86.0813 80.7207 86.179 80.8063 86.2456L76.9378 84.0228L76.9115 84.0085C76.8664 83.9766 76.8285 83.9354 76.8006 83.8877C76.7726 83.84 76.7551 83.7868 76.7493 83.7318C76.7292 83.5842 76.7439 83.4339 76.7923 83.293L79.2488 75.9137C79.3425 75.6429 79.3979 75.3604 79.4134 75.0742C79.7847 74.9689 80.1676 74.9096 80.5534 74.8977C82.6117 74.8453 83.7756 76.312 83.1531 78.1676L80.6942 85.5349Z" fill="#FFE100"/>
<path d="M73.2434 85.7138L75.7 78.3584C76.3201 76.4957 78.4952 74.9383 80.5511 74.8858C82.607 74.8334 83.7709 76.3002 83.1508 78.1557L80.6918 85.5349C80.6434 85.6758 80.6287 85.8261 80.6489 85.9738C80.6551 86.0289 80.673 86.0821 80.7014 86.1298C80.7298 86.1775 80.768 86.2186 80.8134 86.2504C80.8607 86.2768 80.9133 86.2924 80.9673 86.2961C81.0213 86.2998 81.0754 86.2916 81.1259 86.2719C81.2635 86.2227 81.3871 86.1409 81.486 86.0334C83.564 83.7124 85.1422 80.9887 86.1225 78.0317C86.9787 75.463 87.3603 73.1257 87.1385 71.2439C87.0515 70.5744 87.0928 69.8945 87.2601 69.2405C87.4439 68.4829 87.7329 67.7547 88.1187 67.0773L108.876 31.1041C109.682 29.7089 110.755 28.2946 111.888 27.3835C113.519 26.0694 115.449 25.4516 116.913 23.5126C118.287 21.6905 119.315 19.4581 120.014 17.3951C121.003 14.4925 121.242 11.6949 120.691 9.49828C120.676 9.4476 120.65 9.40097 120.615 9.36207C120.579 9.32317 120.535 9.29306 120.486 9.27408C120.374 9.24364 120.255 9.2582 120.154 9.31463C120.018 9.3839 119.899 9.48149 119.804 9.60083C119.695 9.73165 119.61 9.88006 119.551 10.0397L117.097 17.3998C116.477 19.2601 114.301 20.8152 112.243 20.87C110.185 20.9249 109.023 19.4557 109.646 17.6002L112.105 10.2424C112.152 10.102 112.167 9.95281 112.148 9.80595C112.142 9.75071 112.124 9.69741 112.096 9.64966C112.067 9.60192 112.029 9.56086 111.983 9.52928C111.936 9.5029 111.883 9.48729 111.829 9.48358C111.775 9.47987 111.721 9.48815 111.671 9.50782C111.533 9.55705 111.41 9.63888 111.311 9.74632C109.237 12.0691 107.663 14.7936 106.686 17.7504C105.83 20.3167 105.436 22.6588 105.67 24.5263C105.756 25.1966 105.715 25.877 105.548 26.5321C105.364 27.2889 105.075 28.0162 104.69 28.6929V28.6929L83.9211 64.6494C83.1126 66.0494 82.0417 67.4589 80.9088 68.37C79.2775 69.6841 77.3456 70.3042 75.8836 72.2432C74.5051 74.0678 73.4819 76.2978 72.7831 78.3632C71.7886 81.2634 71.5477 84.0634 72.0986 86.2624C72.1103 86.3156 72.1349 86.3653 72.1703 86.4068C72.2056 86.4484 72.2506 86.4807 72.3013 86.5009C72.3571 86.5169 72.4156 86.5218 72.4733 86.5153C72.531 86.5087 72.5868 86.4909 72.6376 86.4627C72.7801 86.3931 72.9056 86.2929 73.0049 86.1693C73.1096 86.0347 73.1903 85.883 73.2434 85.721V85.7138Z" stroke="#FFE100" stroke-miterlimit="10" stroke-linejoin="round"/>
<path d="M85.7157 68.0055L85.7156 68.0057C85.4383 68.4865 85.0851 68.8341 84.7622 69.0194C84.426 69.2123 84.217 69.1856 84.1224 69.1313C84.0302 69.0784 83.903 68.914 83.903 68.5259C83.903 68.1534 84.0287 67.6729 84.3065 67.1912L107.078 27.7533C107.357 27.2715 107.71 26.923 108.033 26.7368C108.369 26.5432 108.578 26.5689 108.674 26.6234C108.765 26.6754 108.893 26.8385 108.893 27.2267C108.893 27.5992 108.767 28.0801 108.488 28.5616L108.488 28.5622L85.7157 68.0055Z" stroke="#FFE100" stroke-miterlimit="10" stroke-linejoin="round"/>
<path d="M109.479 18.4349C111.148 17.9722 112.687 16.6581 113.19 15.1412L115.644 7.78108C115.703 7.62093 115.789 7.47238 115.899 7.34224C115.993 7.22247 116.112 7.12477 116.248 7.05604C116.349 6.99971 116.469 6.98517 116.582 7.01549L120.483 9.26933" stroke="#FFE100" stroke-miterlimit="10" stroke-linejoin="round"/>
<path d="M72.3037 86.4938L68.3994 84.24C68.3487 84.2198 68.3037 84.1875 68.2684 84.146C68.233 84.1044 68.2084 84.0548 68.1967 84.0015C67.6458 81.8025 67.889 78.993 68.8812 76.1023C69.5776 74.0321 70.6032 71.8093 71.9817 69.9824C73.4437 68.0434 75.3756 67.4233 77.0069 66.1091C78.1398 65.198 79.2107 63.7885 80.0192 62.3885L100.786 26.432C101.171 25.7553 101.46 25.028 101.644 24.2712C101.811 23.6163 101.853 22.9357 101.766 22.2654C101.527 20.3979 101.926 18.0558 102.782 15.4896C103.758 12.5327 105.332 9.80827 107.406 7.48547C107.505 7.37803 107.629 7.29619 107.766 7.24696C107.817 7.22729 107.871 7.21902 107.925 7.22273C107.979 7.22644 108.032 7.24204 108.079 7.26843L111.983 9.52227" stroke="#FFE100" stroke-miterlimit="10" stroke-linejoin="round"/>
<path d="M80.8421 86.2647L76.9378 84.0228L76.9116 84.0085C76.8661 83.9767 76.8279 83.9356 76.7995 83.8879C76.7711 83.8402 76.7532 83.787 76.747 83.7318C76.7284 83.5842 76.743 83.4342 76.7899 83.293L79.2489 75.9137C79.3415 75.6426 79.3968 75.3602 79.4134 75.0742" stroke="#FFE100" stroke-miterlimit="10" stroke-linejoin="round"/>
</g>
<g style="mix-blend-mode:multiply">
<path d="M87.7308 129.469C87.0496 127.639 86.0155 126.377 84.5771 125.943C84.1032 125.819 83.6977 125.512 83.4499 125.09C83.161 124.577 83.0138 123.997 83.0235 123.409V88.5608C83.033 87.0093 83.3529 85.4754 83.9645 84.0494C84.9201 81.8661 86.633 79.6141 87.0104 77.3743C87.3315 75.5432 87.1667 73.6598 86.5326 71.9122C86.0204 70.4689 85.1505 69.4177 84.011 68.8295C83.479 68.5585 82.9017 68.3874 82.3079 68.3247C82.1776 68.3292 82.0519 68.3737 81.9477 68.4522C81.8135 68.55 81.6988 68.6722 81.6096 68.8124C81.5156 68.9563 81.4476 69.1155 81.4086 69.2829C81.3715 69.4217 81.3715 69.5679 81.4086 69.7068L83.369 74.9508C83.8591 76.279 82.4746 79.1166 80.2642 81.2976C78.0539 83.4785 75.8534 84.1622 75.3633 82.8316L74.4689 80.4252L73.4127 77.59C73.3846 77.5113 73.3264 77.447 73.251 77.4111C73.2302 77.3998 73.2079 77.3915 73.1848 77.3866C73.0632 77.3665 72.9385 77.3918 72.8344 77.4577C72.6946 77.5384 72.5735 77.6478 72.4791 77.7787C72.3703 77.9171 72.2873 78.074 72.234 78.2418C71.4352 81.2044 71.4352 83.9514 72.234 85.9951C72.9153 87.8256 73.9616 89.0901 75.3878 89.5214C75.8617 89.645 76.2671 89.9517 76.515 90.3741C76.805 90.8862 76.9522 91.4668 76.9414 92.0552V126.916C76.9317 128.466 76.6126 129.999 76.0029 131.425C75.0496 133.613 73.3367 135.862 72.9618 138.1C72.6406 139.932 72.8054 141.816 73.4397 143.564C73.9298 144.939 74.7409 145.958 75.8019 146.559C76.3769 146.88 77.0114 147.081 77.6667 147.149C77.7981 147.142 77.9239 147.094 78.027 147.012C78.1591 146.912 78.272 146.789 78.3602 146.649C78.4515 146.506 78.5186 146.349 78.5587 146.184C78.5945 146.046 78.5945 145.902 78.5587 145.765L76.5983 140.521C76.1082 139.19 77.4903 136.355 79.7006 134.171C80.2407 133.629 80.8361 133.146 81.4772 132.728C82.9818 131.77 84.234 131.674 84.5942 132.64L86.5546 137.884C86.5819 137.954 86.632 138.013 86.6967 138.051C86.7237 138.065 86.7526 138.076 86.7825 138.082C86.9041 138.103 87.0288 138.077 87.1329 138.011C87.2717 137.929 87.3925 137.82 87.4882 137.69C87.5967 137.553 87.6797 137.397 87.7333 137.23C88.5297 134.267 88.5297 131.518 87.7308 129.469ZM81.6365 125.882C81.6068 126.456 81.4421 127.016 81.1555 127.515C80.8689 128.014 80.4687 128.438 79.9873 128.753C79.0733 129.28 78.3333 128.852 78.3333 127.798V89.59C78.3644 89.0164 78.5304 88.4583 78.8178 87.961C79.1052 87.4637 79.5059 87.0412 79.9873 86.7278C80.8989 86.201 81.639 86.6273 81.639 87.6811L81.6365 125.882Z" fill="white"/>
<path d="M81.6365 87.6811V125.889C81.6057 126.462 81.4404 127.02 81.1539 127.518C80.8674 128.016 80.4678 128.439 79.9874 128.753C79.0733 129.28 78.3333 128.852 78.3333 127.798V89.59C78.3644 89.0164 78.5304 88.4583 78.8179 87.961C79.1053 87.4637 79.5059 87.0412 79.9874 86.7278C80.8965 86.201 81.6365 86.6274 81.6365 87.6811Z" fill="white"/>
<path d="M86.7017 138.046L82.6829 135.735C82.6199 135.696 82.5709 135.637 82.5432 135.568L81.4846 132.728C82.9892 131.77 84.2414 131.674 84.6016 132.64L86.562 137.884C86.5896 137.952 86.6386 138.009 86.7017 138.046V138.046Z" fill="#2AB2FF"/>
<path d="M76.9463 92.0601V126.916C76.9365 128.466 76.6174 129.999 76.0077 131.425C75.0545 133.613 73.3416 135.862 72.9667 138.1C72.6455 139.932 72.8103 141.816 73.4445 143.564C73.9346 144.939 74.7457 145.958 75.8068 146.559L71.641 144.155C70.5934 143.47 69.8144 142.444 69.4355 141.251C68.8013 139.503 68.6365 137.618 68.9577 135.786C69.3326 133.549 71.0455 131.3 71.9987 129.111C72.6085 127.686 72.9275 126.153 72.9373 124.602V89.7444C72.9481 89.156 72.8009 88.5755 72.5109 88.0634C72.263 87.641 71.8576 87.3342 71.3837 87.2106C69.9575 86.7793 68.9111 85.5149 68.2299 83.6844C67.4311 81.6407 67.4311 78.8937 68.2299 75.9311C68.2832 75.7633 68.3662 75.6064 68.475 75.4679C68.5694 75.337 68.6905 75.2276 68.8303 75.1469C68.9344 75.081 69.0591 75.0558 69.1807 75.0758C69.2047 75.0805 69.2278 75.0888 69.2493 75.1003L73.2583 77.4161C73.2375 77.4047 73.2152 77.3965 73.1921 77.3915C73.0706 77.3715 72.9458 77.3967 72.8417 77.4626C72.7019 77.5433 72.5808 77.6527 72.4864 77.7836C72.3776 77.9221 72.2946 78.079 72.2413 78.2468C71.4425 81.2094 71.4425 83.9564 72.2413 86.0001C72.9226 87.8306 73.9689 89.095 75.3951 89.5263C75.869 89.6499 76.2745 89.9567 76.5223 90.3791C76.8114 90.8914 76.9578 91.4719 76.9463 92.0601V92.0601Z" fill="#2AB2FF"/>
<path d="M83.3617 74.9582C83.8518 76.2863 82.4673 79.124 80.257 81.3049C78.0467 83.4858 75.8461 84.1695 75.356 82.8389L74.4616 80.4325C75.1058 80.0162 75.7039 79.5323 76.2456 78.9892C78.451 76.8132 79.8453 73.9706 79.3503 72.6425L77.3899 67.3985C77.3528 67.2596 77.3528 67.1134 77.3899 66.9745C77.4289 66.8071 77.4969 66.6479 77.5909 66.504C77.6801 66.3639 77.7948 66.2417 77.929 66.1438C78.0334 66.0586 78.1621 66.0089 78.2966 66.0017C78.8951 66.0664 79.4766 66.2408 80.0119 66.5163L83.9989 68.8222C83.4668 68.5512 82.8896 68.3801 82.2958 68.3174C82.1689 68.3264 82.0477 68.3734 81.9478 68.4522C81.8136 68.55 81.6988 68.6722 81.6096 68.8124C81.5157 68.9563 81.4477 69.1155 81.4087 69.2829C81.3716 69.4217 81.3716 69.5679 81.4087 69.7068L83.3617 74.9582Z" fill="#2AB2FF"/>
<path d="M78.5587 145.765L76.5983 140.521C76.1082 139.19 77.4903 136.355 79.7006 134.171C81.911 131.988 84.1115 131.309 84.6016 132.64L86.562 137.884C86.5806 137.933 86.6111 137.977 86.6509 138.012C86.6907 138.047 86.7384 138.071 86.7899 138.082C86.9114 138.103 87.0361 138.077 87.1403 138.011C87.279 137.929 87.3999 137.82 87.4956 137.69C87.6041 137.553 87.6871 137.397 87.7407 137.23C88.5395 134.267 88.5395 131.518 87.7407 129.476C87.0594 127.646 86.0253 126.384 84.5869 125.95C84.113 125.827 83.7075 125.52 83.4597 125.097C83.1708 124.585 83.0236 124.005 83.0333 123.416V88.5608C83.0428 87.0093 83.3627 85.4754 83.9743 84.0494C84.93 81.8661 86.6428 79.6141 87.0202 77.3743C87.3413 75.5432 87.1765 73.6598 86.5424 71.9122C85.8072 69.8171 84.3002 68.5453 82.3177 68.3247C82.1841 68.3272 82.0546 68.3718 81.9477 68.4522C81.8135 68.55 81.6988 68.6722 81.6096 68.8124C81.5156 68.9563 81.4476 69.1155 81.4086 69.2829C81.3715 69.4217 81.3715 69.5679 81.4086 69.7068L83.369 74.9508C83.8591 76.279 82.4746 79.1166 80.2642 81.2976C78.0539 83.4785 75.8656 84.1622 75.3633 82.8316L73.4029 77.5875C73.3848 77.5374 73.3545 77.4925 73.3147 77.457C73.2749 77.4215 73.2269 77.3965 73.175 77.3841C73.0535 77.3641 72.9287 77.3894 72.8246 77.4552C72.6848 77.5359 72.5637 77.6453 72.4693 77.7762C72.3605 77.9147 72.2775 78.0716 72.2242 78.2394C71.4254 81.202 71.4254 83.949 72.2242 85.9927C72.9055 87.8232 73.9518 89.0876 75.378 89.5189C75.8519 89.6425 76.2574 89.9493 76.5052 90.3717C76.7952 90.8838 76.9424 91.4643 76.9316 92.0527V126.916C76.9219 128.466 76.6028 129.999 75.9931 131.425C75.0398 133.613 73.3269 135.862 72.952 138.1C72.6348 139.933 72.8037 141.817 73.4421 143.564C74.1773 145.659 75.6843 146.931 77.6692 147.149C77.8005 147.142 77.9263 147.094 78.0294 147.012C78.1616 146.912 78.2745 146.789 78.3627 146.649C78.454 146.506 78.5211 146.349 78.5612 146.184C78.597 146.046 78.597 145.902 78.5612 145.765H78.5587Z" stroke="#2AB2FF" stroke-miterlimit="10" stroke-linejoin="round"/>
<path d="M81.1341 87.681V125.875C81.1055 126.366 80.9628 126.843 80.7172 127.269C80.472 127.694 80.131 128.056 79.7214 128.327C79.3596 128.53 79.1497 128.487 79.0615 128.436C78.9722 128.384 78.8284 128.221 78.8284 127.798V89.604C78.8571 89.1136 79 88.6366 79.2459 88.2111C79.4912 87.7866 79.8322 87.4252 80.2417 87.1557C80.6031 86.9557 80.8141 86.998 80.9031 87.049C80.9907 87.0994 81.1341 87.2587 81.1341 87.681Z" stroke="#2AB2FF" stroke-miterlimit="10" stroke-linejoin="round"/>
<path d="M86.7017 138.046L82.6829 135.735C82.6197 135.695 82.5701 135.637 82.5408 135.568L81.4846 132.728" stroke="#2AB2FF" stroke-miterlimit="10" stroke-linejoin="round"/>
<path d="M75.9711 146.657L71.6386 144.155C70.5917 143.469 69.8129 142.443 69.4332 141.251C68.7989 139.503 68.6342 137.618 68.9554 135.786C69.3303 133.549 71.0432 131.3 71.9964 129.111C72.6061 127.686 72.9252 126.153 72.9349 124.602V89.7444C72.9458 89.156 72.7985 88.5754 72.5085 88.0633C72.2607 87.6409 71.8552 87.3342 71.3813 87.2106C69.9551 86.7793 68.9088 85.5148 68.2276 83.6843C67.4287 81.6406 67.4287 78.8937 68.2276 75.931C68.2809 75.7632 68.3639 75.6064 68.4726 75.4679C68.567 75.337 68.6881 75.2276 68.8279 75.1469C68.9321 75.081 69.0568 75.0557 69.1783 75.0758C69.2025 75.0799 69.2257 75.0882 69.247 75.1003L73.2584 77.416" stroke="#2AB2FF" stroke-miterlimit="10" stroke-linejoin="round"/>
<path d="M84.011 68.8295L80.0241 66.5236C79.4841 66.2468 78.8976 66.0724 78.2941 66.009C78.163 66.0156 78.0371 66.0627 77.9339 66.1438C77.7996 66.2417 77.6849 66.3639 77.5957 66.504C77.5017 66.6479 77.4337 66.8072 77.3948 66.9745C77.3576 67.1134 77.3576 67.2596 77.3948 67.3985L79.3551 72.6425C79.8452 73.9706 78.4607 76.8083 76.2504 78.9892C75.7109 79.5318 75.1153 80.0156 74.4738 80.4325" stroke="#2AB2FF" stroke-miterlimit="10" stroke-linejoin="round"/>
</g>
<g style="mix-blend-mode:multiply">
<path d="M86.5012 70.7394C85.82 68.9089 84.7859 67.6469 83.3474 67.2131C82.8735 67.0895 82.4681 66.7828 82.2202 66.3604C81.9314 65.8478 81.7842 65.2676 81.7938 64.6794V29.8311C81.8033 28.2796 82.1232 26.7457 82.7348 25.3198C83.6905 23.1364 85.4034 20.8844 85.7808 18.6447C86.1018 16.8135 85.9371 14.9302 85.3029 13.1826C84.7908 11.7393 83.9208 10.688 82.7814 10.0999C82.2493 9.82888 81.6721 9.65778 81.0783 9.59509C80.948 9.59956 80.8222 9.64405 80.7181 9.72252C80.5838 9.82038 80.4691 9.94257 80.3799 10.0827C80.286 10.2266 80.2179 10.3859 80.179 10.5532C80.1419 10.6921 80.1419 10.8383 80.179 10.9772L82.1394 16.2212C82.6294 17.5493 81.2449 20.387 79.0346 22.5679C76.8243 24.7488 74.6237 25.4325 74.1336 24.1019L73.2392 21.6955L72.1831 18.8603C72.1549 18.7817 72.0968 18.7174 72.0213 18.6815C72.0006 18.6701 71.9783 18.6619 71.9552 18.657C71.8336 18.6369 71.7089 18.6622 71.6048 18.728C71.465 18.8087 71.3439 18.9181 71.2494 19.049C71.1407 19.1875 71.0577 19.3444 71.0044 19.5122C70.2055 22.4748 70.2055 25.2218 71.0044 27.2655C71.6856 29.096 72.732 30.3604 74.1582 30.7917C74.6321 30.9153 75.0375 31.2221 75.2854 31.6445C75.5753 32.1566 75.7226 32.7371 75.7118 33.3255V68.186C75.702 69.7364 75.3829 71.2693 74.7732 72.6949C73.82 74.8831 72.1071 77.1327 71.7322 79.37C71.411 81.2019 71.5758 83.0861 72.21 84.8345C72.7001 86.2092 73.5112 87.2286 74.5723 87.829C75.1473 88.1506 75.7818 88.3516 76.4371 88.4196C76.5684 88.412 76.6942 88.364 76.7973 88.2823C76.9295 88.1827 77.0424 88.0598 77.1306 87.9197C77.2219 87.7764 77.289 87.6191 77.3291 87.4541C77.3649 87.3167 77.3649 87.1724 77.3291 87.035L75.3687 81.791C74.8786 80.4604 76.2607 77.6252 78.471 75.4418C79.011 74.8998 79.6065 74.4161 80.2476 73.9985C81.7522 73.0404 83.0044 72.9448 83.3646 73.9103L85.325 79.1543C85.3522 79.2243 85.4023 79.283 85.4671 79.3209C85.4941 79.3355 85.5229 79.3463 85.5529 79.3528C85.6744 79.3729 85.7991 79.3476 85.9033 79.2817C86.042 79.1996 86.1629 79.0905 86.2586 78.9607C86.3671 78.823 86.4501 78.667 86.5036 78.5C87.3001 75.5374 87.3001 72.788 86.5012 70.7394ZM80.4069 67.1519C80.3772 67.7266 80.2124 68.2861 79.9259 68.7852C79.6393 69.2842 79.2391 69.7086 78.7577 70.0238C77.8437 70.5507 77.1036 70.1219 77.1036 69.0682V30.8603C77.1348 30.2868 77.3008 29.7287 77.5882 29.2313C77.8756 28.734 78.2763 28.3115 78.7577 27.9982C79.6693 27.4713 80.4093 27.8977 80.4093 28.9514L80.4069 67.1519Z" fill="white"/>
<path d="M80.4069 28.9514V67.1593C80.3761 67.7327 80.2107 68.2908 79.9242 68.7884C79.6377 69.2861 79.2381 69.7093 78.7577 70.0239C77.8437 70.5507 77.1036 70.1219 77.1036 69.0682V30.8603C77.1348 30.2868 77.3008 29.7287 77.5882 29.2313C77.8756 28.734 78.2763 28.3115 78.7577 27.9982C79.6668 27.4713 80.4069 27.8977 80.4069 28.9514Z" fill="white"/>
<path d="M85.472 79.3161L81.4533 77.0053C81.3902 76.966 81.3413 76.9076 81.3136 76.8387L80.255 73.9986C81.7596 73.0404 83.0118 72.9449 83.372 73.9103L85.3324 79.1544C85.3599 79.2221 85.409 79.279 85.472 79.3161V79.3161Z" fill="#2AB2FF"/>
<path d="M75.7166 33.3305V68.186C75.7069 69.7365 75.3878 71.2694 74.7781 72.6949C73.8248 74.8832 72.112 77.1327 71.737 79.37C71.4159 81.202 71.5806 83.0861 72.2149 84.8346C72.705 86.2093 73.5161 87.2287 74.5771 87.829L70.4113 85.4251C69.3637 84.74 68.5847 83.7143 68.2059 82.5213C67.5716 80.7729 67.4069 78.8887 67.7281 77.0568C68.103 74.8195 69.8159 72.5699 70.7691 70.3817C71.3788 68.9561 71.6979 67.4232 71.7076 65.8728V31.0148C71.7185 30.4264 71.5712 29.8458 71.2812 29.3337C71.0334 28.9113 70.6279 28.6046 70.154 28.481C68.7279 28.0497 67.6815 26.7852 67.0003 24.9547C66.2014 22.911 66.2014 20.164 67.0003 17.2014C67.0536 17.0336 67.1366 16.8767 67.2453 16.7383C67.3397 16.6074 67.4608 16.498 67.6006 16.4173C67.7048 16.3514 67.8295 16.3261 67.9511 16.3462C67.975 16.3509 67.9981 16.3592 68.0197 16.3707L72.0286 18.6864C72.0079 18.6751 71.9856 18.6668 71.9625 18.6619C71.8409 18.6418 71.7162 18.6671 71.6121 18.733C71.4723 18.8137 71.3512 18.9231 71.2567 19.054C71.148 19.1924 71.065 19.3493 71.0117 19.5171C70.2128 22.4797 70.2128 25.2267 71.0117 27.2704C71.6929 29.1009 72.7393 30.3654 74.1655 30.7967C74.6394 30.9203 75.0448 31.227 75.2927 31.6494C75.5818 32.1618 75.7282 32.7423 75.7166 33.3305V33.3305Z" fill="#2AB2FF"/>
<path d="M82.1321 16.2285C82.6222 17.5567 81.2376 20.3943 79.0273 22.5753C76.817 24.7562 74.6165 25.4399 74.1264 24.1093L73.2319 21.7029C73.8762 21.2865 74.4742 20.8027 75.0159 20.2596C77.2213 18.0835 78.6156 15.241 78.1206 13.9128L76.1602 8.66881C76.1231 8.52993 76.1231 8.38375 76.1602 8.24487C76.1992 8.07751 76.2672 7.91826 76.3612 7.77438C76.4504 7.63421 76.5651 7.51203 76.6994 7.41416C76.8037 7.32898 76.9324 7.27921 77.0669 7.27203C77.6655 7.33676 78.2469 7.5112 78.7823 7.78663L82.7692 10.0925C82.2371 9.82152 81.6599 9.65042 81.0661 9.58773C80.9392 9.59678 80.818 9.64373 80.7181 9.72251C80.5839 9.82038 80.4692 9.94256 80.38 10.0827C80.286 10.2266 80.218 10.3859 80.179 10.5532C80.1419 10.6921 80.1419 10.8383 80.179 10.9772L82.1321 16.2285Z" fill="#2AB2FF"/>
<path d="M77.3291 87.035L75.3687 81.791C74.8786 80.4604 76.2607 77.6252 78.471 75.4418C80.6813 73.2585 82.8819 72.5797 83.3719 73.9103L85.3323 79.1543C85.3509 79.2037 85.3815 79.2477 85.4212 79.2823C85.461 79.3169 85.5088 79.3412 85.5602 79.3528C85.6818 79.3729 85.8065 79.3476 85.9106 79.2817C86.0494 79.1996 86.1702 79.0905 86.266 78.9607C86.3745 78.823 86.4574 78.667 86.511 78.5C87.3099 75.5374 87.3099 72.788 86.511 70.7467C85.8298 68.9162 84.7957 67.6542 83.3572 67.2205C82.8833 67.0969 82.4779 66.7902 82.23 66.3677C81.9412 65.8552 81.794 65.275 81.8036 64.6867V29.8311C81.8131 28.2796 82.1331 26.7457 82.7446 25.3198C83.7003 23.1364 85.4132 20.8844 85.7906 18.6447C86.1117 16.8135 85.9469 14.9302 85.3127 13.1826C84.5776 11.0874 83.0705 9.81564 81.0881 9.59509C80.9544 9.59753 80.8249 9.64213 80.7181 9.72252C80.5838 9.82038 80.4691 9.94257 80.3799 10.0827C80.286 10.2266 80.2179 10.3859 80.179 10.5532C80.1419 10.6921 80.1419 10.8383 80.179 10.9772L82.1394 16.2212C82.6294 17.5493 81.2449 20.387 79.0346 22.5679C76.8243 24.7488 74.636 25.4325 74.1336 24.1019L72.1733 18.8579C72.1552 18.8077 72.1248 18.7629 72.0851 18.7274C72.0453 18.6918 71.9973 18.6668 71.9454 18.6545C71.8238 18.6344 71.6991 18.6597 71.595 18.7256C71.4552 18.8063 71.3341 18.9157 71.2396 19.0466C71.1309 19.185 71.0479 19.3419 70.9946 19.5097C70.1957 22.4723 70.1957 25.2193 70.9946 27.263C71.6758 29.0935 72.7222 30.358 74.1484 30.7893C74.6223 30.9129 75.0277 31.2196 75.2756 31.642C75.5656 32.1541 75.7128 32.7347 75.702 33.3231V68.186C75.6922 69.7364 75.3731 71.2693 74.7634 72.6949C73.8102 74.8831 72.0973 77.1327 71.7224 79.37C71.4051 81.203 71.5741 83.0872 72.2125 84.8345C72.9476 86.9297 74.4547 88.2015 76.4395 88.4196C76.5709 88.412 76.6967 88.364 76.7998 88.2823C76.9319 88.1827 77.0449 88.0598 77.133 87.9197C77.2244 87.7764 77.2914 87.6191 77.3315 87.4541C77.3673 87.3167 77.3673 87.1724 77.3315 87.035H77.3291Z" stroke="#2AB2FF" stroke-miterlimit="10" stroke-linejoin="round"/>
<path d="M79.9044 28.9514V67.1452C79.8758 67.6359 79.7331 68.1131 79.4876 68.539C79.2423 68.9644 78.9013 69.3266 78.4917 69.5971C78.1299 69.8009 77.92 69.7572 77.8319 69.7061C77.7426 69.6543 77.5988 69.491 77.5988 69.0681V30.8744C77.6274 30.3839 77.7704 29.9069 78.0162 29.4815C78.2616 29.057 78.6026 28.6956 79.012 28.4261C79.3735 28.2261 79.5845 28.2683 79.6734 28.3194C79.7611 28.3697 79.9044 28.5291 79.9044 28.9514Z" stroke="#2AB2FF" stroke-miterlimit="10" stroke-linejoin="round"/>
<path d="M85.472 79.3161L81.4533 77.0053C81.3901 76.9655 81.3405 76.9073 81.3111 76.8386L80.255 73.9985" stroke="#2AB2FF" stroke-miterlimit="10" stroke-linejoin="round"/>
<path d="M74.7414 87.927L70.409 85.4251C69.3621 84.7393 68.5833 83.7138 68.2035 82.5213C67.5693 80.7729 67.4045 78.8887 67.7257 77.0567C68.1006 74.8194 69.8135 72.5699 70.7667 70.3816C71.3765 68.9561 71.6955 67.4232 71.7053 65.8728V31.0147C71.7161 30.4263 71.5689 29.8458 71.2789 29.3337C71.031 28.9113 70.6256 28.6046 70.1517 28.4809C68.7255 28.0496 67.6791 26.7852 66.9979 24.9547C66.1991 22.911 66.1991 20.164 66.9979 17.2014C67.0512 17.0336 67.1342 16.8767 67.243 16.7382C67.3374 16.6073 67.4585 16.4979 67.5983 16.4172C67.7024 16.3514 67.8271 16.3261 67.9487 16.3462C67.9728 16.3502 67.9961 16.3585 68.0173 16.3707L72.0287 18.6864" stroke="#2AB2FF" stroke-miterlimit="10" stroke-linejoin="round"/>
<path d="M82.7814 10.0999L78.7945 7.79399C78.2545 7.5172 77.6679 7.34273 77.0644 7.27939C76.9333 7.28597 76.8075 7.33306 76.7042 7.41417C76.57 7.51203 76.4552 7.63422 76.366 7.77438C76.2721 7.91827 76.2041 8.07751 76.1651 8.24488C76.128 8.38375 76.128 8.52994 76.1651 8.66881L78.1255 13.9128C78.6156 15.241 77.2311 18.0786 75.0207 20.2596C74.4812 20.8021 73.8857 21.2859 73.2441 21.7029" stroke="#2AB2FF" stroke-miterlimit="10" stroke-linejoin="round"/>
</g>
<g style="mix-blend-mode:multiply">
<path d="M124.521 91.4431C124.094 90.582 123.431 89.8598 122.609 89.3602L122.504 89.2989C121.669 88.8476 120.724 88.6388 119.777 88.6961C117.934 88.7427 116.05 89.3773 114.258 90.6761C113.755 91.0808 113.17 91.3703 112.543 91.524C112.049 91.6485 111.527 91.5902 111.073 91.3598L107.061 89.0441L89.7241 79.0437C89.2623 78.7716 88.8653 78.4023 88.5606 77.9613C88.256 77.5204 88.0509 77.0184 87.9597 76.4903C87.6289 74.7456 88.07 72.202 87.0972 71.0257C86.818 70.6911 86.48 70.4104 86.0998 70.1975C85.2205 69.7398 84.235 69.5249 83.245 69.575C81.1719 69.5971 78.8047 70.6778 76.5675 72.6259C76.4353 72.7472 76.3265 72.8917 76.2465 73.0523C76.1718 73.2001 76.1253 73.3604 76.1092 73.5252C76.0937 73.6543 76.1204 73.785 76.1852 73.8977C76.2132 73.9425 76.2519 73.9795 76.2979 74.0055C76.3439 74.0302 76.3952 74.0436 76.4474 74.0447L78.9224 73.981L81.7331 73.9075C83.071 73.8707 83.3381 76.2967 82.331 79.3181C81.3238 82.3396 79.4321 84.8146 78.0966 84.8415L72.8109 84.9763C72.6751 84.9926 72.5471 85.0489 72.4433 85.138C72.1794 85.3575 71.9994 85.6613 71.9336 85.9981C71.9044 86.1346 71.9146 86.2765 71.963 86.4074C72.3857 87.2893 73.0646 88.0232 73.911 88.5133C74.7573 89.0034 75.7318 89.2268 76.7071 89.1544C78.7022 89.0813 80.6258 88.3922 82.2134 87.1817C82.7166 86.777 83.3019 86.4868 83.9287 86.3314C84.4265 86.2058 84.9529 86.2641 85.4112 86.4956L102.726 96.5009L106.733 98.8166C107.194 99.0894 107.591 99.4593 107.896 99.9006C108.201 100.342 108.406 100.844 108.497 101.372C108.828 103.117 108.384 105.663 109.36 106.835C109.624 107.152 109.942 107.422 110.298 107.631H110.311C111.201 108.108 112.205 108.332 113.214 108.278C115.285 108.261 117.652 107.183 119.889 105.237C120.017 105.116 120.122 104.975 120.201 104.818C120.278 104.665 120.325 104.498 120.34 104.328C120.355 104.197 120.328 104.065 120.262 103.95C120.232 103.906 120.192 103.87 120.145 103.845C120.098 103.82 120.046 103.807 119.992 103.808L114.707 103.945C113.866 103.97 113.447 103.019 113.504 101.556C113.567 100.526 113.772 99.5094 114.111 98.5348C115.121 95.5109 117.022 93.0334 118.355 93.0016L123.658 92.8546C123.794 92.8382 123.922 92.782 124.026 92.6928C124.159 92.5871 124.271 92.4574 124.357 92.3106C124.444 92.1632 124.505 92.0014 124.536 91.8327C124.566 91.7039 124.561 91.5693 124.521 91.4431V91.4431ZM111.097 96.3612C110.453 97.4786 109.404 98.0765 108.759 97.7114L85.3622 84.2019C84.7153 83.8295 84.7153 82.6214 85.3622 81.5064C86.0092 80.3914 87.0531 79.7911 87.7 80.1562L111.097 93.6632C111.744 94.0357 111.744 95.2438 111.097 96.3612Z" fill="white"/>
<path d="M111.097 96.3612C110.453 97.4786 109.404 98.0765 108.759 97.7114L85.3622 84.2019C84.7153 83.8295 84.7153 82.6214 85.3622 81.5064C86.0091 80.3915 87.053 79.7911 87.7 80.1562L111.097 93.6632C111.744 94.0357 111.744 95.2438 111.097 96.3612Z" fill="white"/>
<path d="M82.3408 79.3083C81.3312 82.3322 79.4321 84.8145 78.0965 84.8415L72.8109 84.9763C72.675 84.9926 72.5471 85.0489 72.4433 85.138C72.1794 85.3574 71.9994 85.6613 71.9336 85.9981C71.9044 86.1345 71.9146 86.2765 71.963 86.4073C72.3894 87.2683 73.0514 87.9905 73.8719 88.4902L69.9365 86.2186C69.5214 85.983 69.1453 85.6846 68.8215 85.334C68.4751 84.9624 68.1823 84.5442 67.9516 84.0916C67.9031 83.9608 67.8929 83.8188 67.9222 83.6824C67.9879 83.3456 68.168 83.0417 68.4319 82.8223C68.5357 82.7332 68.6636 82.6769 68.7994 82.6606L74.0851 82.5258C75.4157 82.4964 77.3197 80.0165 78.3293 76.9926C78.6724 76.0187 78.8786 75.0018 78.942 73.9712L81.7527 73.8977C83.0808 73.8609 83.3528 76.2869 82.3408 79.3083Z" fill="#FFE100"/>
<path d="M78.942 73.9442C78.9431 73.9529 78.9431 73.9616 78.942 73.9702" stroke="#FFE100" stroke-miterlimit="10" stroke-linejoin="round"/>
<path d="M86.0924 70.1974C85.2131 69.7397 84.2277 69.5249 83.2376 69.575C81.1645 69.5971 78.7974 70.6777 76.5601 72.6259C76.4306 72.7478 76.3243 72.8923 76.2464 73.0522C76.1718 73.2 76.1253 73.3604 76.1092 73.5252C76.0937 73.6543 76.1203 73.7849 76.1852 73.8977C76.2131 73.9425 76.2519 73.9795 76.2979 74.0055L72.2963 71.6971C72.2503 71.6712 72.2115 71.6341 72.1835 71.5893C72.1198 71.4762 72.0933 71.3459 72.1076 71.2168C72.1237 71.0521 72.1702 70.8917 72.2448 70.7439C72.3207 70.5882 72.4236 70.4472 72.5487 70.3273C74.7859 68.3792 77.1531 67.2985 79.2262 67.2765C80.2151 67.2267 81.1995 67.4407 82.0786 67.8964V67.8964L86.0924 70.1974Z" fill="#FFE100"/>
<path d="M76.3139 73.9998L76.3077 73.9957" stroke="#FFE100" stroke-miterlimit="10" stroke-linejoin="round"/>
<path d="M110.308 107.633L106.306 105.327C105.946 105.116 105.625 104.843 105.358 104.521C104.378 103.35 104.826 100.804 104.495 99.0592C104.404 98.5314 104.2 98.0297 103.896 97.5885C103.592 97.1473 103.196 96.7771 102.736 96.5033L106.743 98.819C107.204 99.0919 107.601 99.4617 107.906 99.903C108.21 100.344 108.415 100.847 108.507 101.375C108.838 103.12 108.394 105.666 109.369 106.837C109.634 107.155 109.952 107.424 110.308 107.633V107.633Z" fill="#FFE100"/>
<path d="M122.504 89.2989C121.669 88.8475 120.724 88.6388 119.777 88.6961C117.934 88.7427 116.05 89.3773 114.258 90.6761C113.755 91.0808 113.17 91.3702 112.543 91.5239C112.049 91.6485 111.527 91.5902 111.073 91.3598L107.061 89.0441C107.519 89.2768 108.046 89.3352 108.544 89.2082C109.17 89.0536 109.756 88.7642 110.259 88.3604C112.048 87.0616 113.935 86.4269 115.775 86.3804C116.765 86.3178 117.751 86.548 118.61 87.042L122.504 89.2989Z" fill="#FFE100"/>
<path d="M113.516 101.576L115.993 101.512C116.061 101.512 116.127 101.533 116.182 101.573L120.139 103.857C120.097 103.837 120.051 103.827 120.005 103.828V103.828L114.719 103.965C113.876 103.99 113.459 103.039 113.516 101.576V101.576Z" fill="#FFE100"/>
<path d="M120.005 103.828L114.719 103.965C113.381 104.004 113.114 101.578 114.123 98.5544C115.133 95.5305 117.035 93.053 118.368 93.0212L123.671 92.8742C123.806 92.8578 123.934 92.8015 124.038 92.7124C124.17 92.6066 124.282 92.4769 124.366 92.3301C124.456 92.1833 124.517 92.0214 124.548 91.8523C124.577 91.7159 124.567 91.5739 124.518 91.4431C124.096 90.5613 123.418 89.8275 122.572 89.3374C121.726 88.8474 120.752 88.6238 119.777 88.6961C117.778 88.7756 115.852 89.4667 114.258 90.6761C113.755 91.0804 113.17 91.3698 112.543 91.5239C112.045 91.6509 111.518 91.5925 111.06 91.3598L89.7241 79.0437C89.2623 78.7716 88.8653 78.4023 88.5606 77.9613C88.256 77.5204 88.0509 77.0184 87.9597 76.4903C87.6289 74.7455 88.07 72.2019 87.0972 71.0257C86.1807 69.923 84.7251 69.5554 83.245 69.575C81.1719 69.5971 78.8047 70.6777 76.565 72.6259C76.4343 72.7479 76.3264 72.8923 76.2464 73.0522C76.1707 73.1996 76.1241 73.3602 76.1092 73.5252C76.0937 73.6543 76.1204 73.7849 76.1852 73.8977C76.2126 73.9426 76.2511 73.9798 76.297 74.0056C76.3429 74.0313 76.3947 74.0448 76.4474 74.0447L81.7331 73.9075C83.071 73.8707 83.3381 76.2967 82.3285 79.3181C81.3189 82.3396 79.4321 84.8145 78.0941 84.8415L72.8109 84.9763C72.675 84.9926 72.5471 85.0489 72.4433 85.138C72.1794 85.3574 71.9994 85.6613 71.9336 85.9981C71.905 86.1344 71.9143 86.276 71.9606 86.4073C72.3842 87.289 73.0637 88.0227 73.9103 88.5126C74.757 89.0026 75.7316 89.2262 76.7071 89.1543C78.7022 89.0813 80.6257 88.3922 82.2134 87.1817C82.7165 86.777 83.3019 86.4868 83.9287 86.3314C84.4265 86.2058 84.9529 86.2641 85.4112 86.4956V86.4956L106.73 98.819C107.192 99.0916 107.589 99.4614 107.893 99.9028C108.197 100.344 108.402 100.846 108.492 101.375C108.823 103.12 108.382 105.666 109.357 106.837C110.274 107.942 111.727 108.307 113.209 108.288C115.283 108.27 117.65 107.192 119.887 105.247C120.014 105.127 120.119 104.985 120.196 104.828C120.275 104.675 120.322 104.509 120.335 104.337C120.352 104.207 120.325 104.074 120.259 103.96C120.23 103.916 120.19 103.88 120.143 103.855C120.096 103.83 120.043 103.817 119.99 103.818L120.005 103.828Z" stroke="#FFE100" stroke-miterlimit="10" stroke-linejoin="round"/>
<path d="M85.6122 83.7714L85.6122 83.7714L85.6104 83.7704C85.5088 83.7122 85.3776 83.5382 85.3779 83.1381C85.3781 82.753 85.5087 82.2567 85.7955 81.7582C86.0819 81.2607 86.4461 80.8999 86.7801 80.7072C87.1267 80.5071 87.3463 80.5321 87.4503 80.5918C87.4503 80.5919 87.4504 80.5919 87.4504 80.5919L110.846 94.0929C110.846 94.0931 110.846 94.0932 110.846 94.0933C110.949 94.1532 111.081 94.3342 111.081 94.7387C111.082 95.1272 110.951 95.6228 110.666 96.1111C110.378 96.6028 110.012 96.9653 109.676 97.1606C109.326 97.3643 109.109 97.3383 109.01 97.281L109.009 97.2809L85.6122 83.7714Z" stroke="#FFE100" stroke-miterlimit="10" stroke-linejoin="round"/>
<path d="M73.8719 88.4903L69.9364 86.2187C69.0807 85.7195 68.3905 84.9798 67.9515 84.0917C67.9031 83.9608 67.8929 83.8189 67.9221 83.6824C67.9879 83.3456 68.1679 83.0418 68.4318 82.8223C68.5357 82.7332 68.6636 82.6769 68.7994 82.6606L74.0851 82.5258C75.4157 82.4964 77.3197 80.0165 78.3293 76.9926C78.6753 76.0102 78.8816 74.9841 78.9419 73.9442" stroke="#FFE100" stroke-miterlimit="10" stroke-linejoin="round"/>
<path d="M86.0924 70.1975L82.081 67.8793C81.2028 67.4235 80.2192 67.2095 79.2311 67.2593C77.158 67.2814 74.7908 68.362 72.5535 70.3102C72.4285 70.43 72.3256 70.5711 72.2497 70.7268C72.175 70.8746 72.1285 71.0349 72.1124 71.1997C72.0969 71.3288 72.1236 71.4594 72.1884 71.5722C72.2164 71.617 72.2551 71.654 72.3011 71.68V71.68L76.3125 73.9932" stroke="#FFE100" stroke-miterlimit="10" stroke-linejoin="round"/>
<path d="M120.139 103.857L116.189 101.573C116.134 101.533 116.068 101.512 116 101.512V101.512L113.523 101.576" stroke="#FFE100" stroke-miterlimit="10" stroke-linejoin="round"/>
<path d="M110.32 107.641L106.309 105.328C105.948 105.116 105.627 104.843 105.361 104.521C104.38 103.35 104.829 100.804 104.498 99.0592C104.407 98.5302 104.201 98.0274 103.896 97.5856C103.591 97.1439 103.194 96.7737 102.731 96.5009" stroke="#FFE100" stroke-miterlimit="10" stroke-linejoin="round"/>
<path d="M122.609 89.3602L118.6 87.042C117.741 86.548 116.755 86.3178 115.765 86.3804C113.923 86.4269 112.038 87.0616 110.247 88.3604C109.744 88.7651 109.158 89.0545 108.531 89.2082C108.038 89.3328 107.515 89.2744 107.061 89.0441" stroke="#FFE100" stroke-miterlimit="10" stroke-linejoin="round"/>
</g>
<g style="mix-blend-mode:multiply">
<path d="M86.4021 70.5393C85.9748 69.6782 85.312 68.9559 84.4907 68.4563L84.3853 68.3951C83.5502 67.9437 82.6055 67.7349 81.6579 67.7923C79.8152 67.8388 77.9308 68.4735 76.1395 69.7723C75.6366 70.177 75.0511 70.4664 74.4241 70.6201C73.9303 70.7446 73.4081 70.6863 72.9539 70.4559L68.9424 68.1402L51.6053 58.1398C51.1435 57.8678 50.7465 57.4984 50.4419 57.0575C50.1372 56.6166 49.9321 56.1146 49.841 55.5865C49.5101 53.8417 49.9512 51.2981 48.9784 50.1219C48.6993 49.7872 48.3613 49.5065 47.981 49.2936C47.1017 48.8359 46.1163 48.6211 45.1262 48.6712C43.0531 48.6933 40.686 49.7739 38.4487 51.722C38.3166 51.8434 38.2078 51.9879 38.1277 52.1484C38.0531 52.2962 38.0065 52.4566 37.9905 52.6214C37.9749 52.7505 38.0016 52.8811 38.0664 52.9938C38.0944 53.0386 38.1331 53.0757 38.1791 53.1017C38.2252 53.1264 38.2764 53.1398 38.3286 53.1409L40.8036 53.0772L43.6143 53.0036C44.9523 52.9669 45.2194 55.3929 44.2122 58.4143C43.2051 61.4357 41.3133 63.9107 39.9778 63.9377L34.6921 64.0724C34.5563 64.0888 34.4283 64.1451 34.3245 64.2342C34.0606 64.4536 33.8806 64.7574 33.8148 65.0943C33.7856 65.2307 33.7958 65.3727 33.8442 65.5035C34.267 66.3854 34.9459 67.1194 35.7922 67.6094C36.6386 68.0995 37.6131 68.3229 38.5884 68.2505C40.5835 68.1775 42.507 67.4883 44.0946 66.2779C44.5978 65.8731 45.1831 65.583 45.8099 65.4276C46.3078 65.302 46.8342 65.3603 47.2925 65.5917L64.6075 75.597L68.6141 77.9127C69.0757 78.1856 69.4725 78.5555 69.7772 78.9967C70.0818 79.438 70.2869 79.9402 70.3784 80.4686C70.7092 82.2133 70.2657 84.7594 71.241 85.9307C71.5055 86.2483 71.8231 86.5178 72.1795 86.7271H72.1918C73.0822 87.2046 74.0866 87.4284 75.0956 87.374C77.1662 87.3569 79.5334 86.2787 81.7707 84.333C81.8982 84.2127 82.0035 84.0708 82.0819 83.914C82.1588 83.7608 82.2062 83.5945 82.2216 83.4239C82.2364 83.2929 82.2089 83.1607 82.1431 83.0465C82.1137 83.0022 82.0736 82.9659 82.0265 82.9411C81.9794 82.9163 81.9268 82.9036 81.8736 82.9044L76.5879 83.0416C75.7474 83.0661 75.3284 82.1153 75.3847 80.6524C75.4483 79.6222 75.6528 78.6056 75.9924 77.6309C77.002 74.607 78.9036 72.1296 80.2367 72.0978L85.5395 71.9507C85.6753 71.9344 85.8033 71.8781 85.9071 71.789C86.0401 71.6833 86.1523 71.5536 86.2379 71.4067C86.3254 71.2593 86.386 71.0975 86.4168 70.9289C86.447 70.8001 86.4419 70.6654 86.4021 70.5393V70.5393ZM72.9784 75.4574C72.3339 76.5748 71.2851 77.1727 70.6406 76.8076L47.2435 63.2981C46.5965 62.9256 46.5965 61.7175 47.2435 60.6026C47.8904 59.4876 48.9343 58.8872 49.5812 59.2524L72.9784 72.7594C73.6253 73.1319 73.6253 74.3399 72.9784 75.4574Z" fill="white"/>
<path d="M72.9783 75.4574C72.3339 76.5748 71.2851 77.1727 70.6406 76.8076L47.2434 63.2981C46.5965 62.9256 46.5965 61.7175 47.2434 60.6026C47.8904 59.4876 48.9343 58.8872 49.5812 59.2524L72.9783 72.7594C73.6253 73.1319 73.6253 74.34 72.9783 75.4574Z" fill="white"/>
<path d="M44.222 58.4045C43.2124 61.4284 41.3133 63.9107 39.9778 63.9376L34.6921 64.0724C34.5563 64.0888 34.4283 64.145 34.3245 64.2342C34.0606 64.4536 33.8806 64.7574 33.8148 65.0943C33.7856 65.2307 33.7958 65.3726 33.8442 65.5035C34.2707 66.3644 34.9326 67.0867 35.7532 67.5864L31.8177 65.3148C31.4027 65.0791 31.0266 64.7808 30.7027 64.4302C30.3563 64.0586 30.0635 63.6404 29.8328 63.1878C29.7844 63.0569 29.7742 62.915 29.8034 62.7786C29.8692 62.4417 30.0492 62.1379 30.3131 61.9185C30.4169 61.8293 30.5448 61.7731 30.6807 61.7567L35.9663 61.6219C37.297 61.5925 39.201 59.1127 40.2106 56.0888C40.5536 55.1148 40.7598 54.098 40.8232 53.0673L43.6339 52.9938C44.962 52.9571 45.234 55.383 44.222 58.4045Z" fill="#FFE100"/>
<path d="M40.8232 53.0404C40.8243 53.049 40.8243 53.0578 40.8232 53.0664" stroke="#FFE100" stroke-miterlimit="10" stroke-linejoin="round"/>
<path d="M47.9737 49.2936C47.0944 48.8359 46.1089 48.621 45.1189 48.6712C43.0458 48.6932 40.6786 49.7739 38.4413 51.722C38.3118 51.844 38.2055 51.9885 38.1276 52.1484C38.053 52.2962 38.0065 52.4566 37.9904 52.6213C37.9749 52.7504 38.0016 52.8811 38.0664 52.9938C38.0944 53.0386 38.1331 53.0757 38.1791 53.1016L34.1775 50.7933C34.1315 50.7673 34.0927 50.7303 34.0648 50.6855C34.0011 50.5723 33.9745 50.442 33.9888 50.313C34.0049 50.1482 34.0514 49.9878 34.126 49.8401C34.202 49.6844 34.3048 49.5434 34.4299 49.4235C36.6672 47.4753 39.0343 46.3947 41.1074 46.3726C42.0964 46.3229 43.0807 46.5368 43.9598 46.9926V46.9926L47.9737 49.2936Z" fill="#FFE100"/>
<path d="M38.1952 53.096L38.1889 53.0918" stroke="#FFE100" stroke-miterlimit="10" stroke-linejoin="round"/>
<path d="M72.1893 86.7295L68.1876 84.4237C67.8273 84.2117 67.5064 83.939 67.2393 83.6174C66.2591 82.4461 66.7075 79.9001 66.3767 78.1553C66.2853 77.6276 66.0807 77.1258 65.777 76.6846C65.4733 76.2434 65.0777 75.8732 64.6173 75.5995L68.6238 77.9152C69.0854 78.188 69.4823 78.5579 69.7869 78.9992C70.0915 79.4405 70.2967 79.9427 70.3881 80.471C70.719 82.2158 70.2754 84.7618 71.2507 85.9331C71.5153 86.2508 71.8328 86.5202 72.1893 86.7295V86.7295Z" fill="#FFE100"/>
<path d="M84.3853 68.3951C83.5502 67.9437 82.6055 67.7349 81.6579 67.7923C79.8152 67.8388 77.9308 68.4735 76.1395 69.7722C75.6366 70.177 75.0511 70.4664 74.4241 70.6201C73.9303 70.7446 73.4081 70.6863 72.9538 70.4559L68.9424 68.1402C69.4003 68.373 69.9272 68.4313 70.4249 68.3044C71.0515 68.1497 71.6369 67.8604 72.1403 67.4565C73.9291 66.1578 75.816 65.5231 77.6563 65.4766C78.6458 65.414 79.6319 65.6441 80.4915 66.1382L84.3853 68.3951Z" fill="#FFE100"/>
<path d="M75.3969 80.672L77.8744 80.6083C77.9422 80.6079 78.0084 80.6294 78.063 80.6695L82.0206 82.9534C81.9785 82.9333 81.9324 82.9232 81.8858 82.924V82.924L76.6001 83.0612C75.7571 83.0857 75.3406 82.1349 75.3969 80.672V80.672Z" fill="#FFE100"/>
<path d="M81.8858 82.924L76.6002 83.0612C75.2622 83.1004 74.9951 80.6744 76.0047 77.6505C77.0143 74.6266 78.9159 72.1492 80.2489 72.1173L85.5518 71.9703C85.6876 71.954 85.8155 71.8977 85.9193 71.8086C86.0516 71.7027 86.163 71.5731 86.2477 71.4263C86.337 71.2795 86.3984 71.1175 86.429 70.9485C86.4583 70.812 86.4481 70.6701 86.3996 70.5392C85.9773 69.6575 85.2989 68.9237 84.4529 68.4336C83.607 67.9435 82.6329 67.72 81.6579 67.7923C79.6591 67.8717 77.7329 68.5629 76.1395 69.7722C75.6364 70.1766 75.0509 70.4659 74.4241 70.6201C73.9264 70.747 73.3995 70.6887 72.9416 70.4559L51.6053 58.1398C51.1435 57.8677 50.7465 57.4984 50.4419 57.0575C50.1372 56.6165 49.9321 56.1146 49.8409 55.5864C49.5101 53.8417 49.9512 51.2981 48.9784 50.1219C48.0619 49.0192 46.6063 48.6516 45.1262 48.6712C43.0531 48.6932 40.686 49.7739 38.4462 51.722C38.3155 51.8441 38.2076 51.9884 38.1277 52.1484C38.052 52.2958 38.0054 52.4563 37.9904 52.6213C37.9749 52.7504 38.0016 52.8811 38.0664 52.9938C38.0938 53.0388 38.1323 53.076 38.1782 53.1017C38.2242 53.1275 38.276 53.1409 38.3286 53.1408L43.6143 53.0036C44.9523 52.9669 45.2194 55.3928 44.2098 58.4143C43.2002 61.4357 41.3133 63.9107 39.9753 63.9376L34.6921 64.0724C34.5563 64.0888 34.4283 64.1451 34.3245 64.2342C34.0606 64.4536 33.8806 64.7574 33.8148 65.0943C33.7863 65.2306 33.7956 65.3721 33.8418 65.5035C34.2655 66.3852 34.9449 67.1188 35.7916 67.6088C36.6382 68.0988 37.6128 68.3224 38.5884 68.2505C40.5835 68.1774 42.507 67.4883 44.0946 66.2778C44.5978 65.8731 45.1831 65.5829 45.8099 65.4275C46.3077 65.302 46.8342 65.3603 47.2925 65.5917V65.5917L68.6116 77.9152C69.0732 78.1878 69.4699 78.5576 69.7742 78.999C70.0784 79.4403 70.2829 79.9427 70.3735 80.471C70.7043 82.2158 70.2632 84.7618 71.2385 85.9331C72.155 87.0383 73.6081 87.4034 75.0907 87.3838C77.1638 87.3667 79.5309 86.2885 81.7682 84.3428C81.8957 84.223 82.0003 84.081 82.077 83.9237C82.1562 83.7715 82.2037 83.6048 82.2167 83.4336C82.2333 83.3029 82.2066 83.1704 82.1407 83.0563C82.1112 83.0119 82.0711 82.9757 82.024 82.9509C81.9769 82.9261 81.9244 82.9134 81.8711 82.9141L81.8858 82.924Z" stroke="#FFE100" stroke-miterlimit="10" stroke-linejoin="round"/>
<path d="M47.4934 62.8675L47.4934 62.8675L47.4916 62.8665C47.39 62.8084 47.2589 62.6344 47.2591 62.2343C47.2594 61.8492 47.3899 61.3529 47.6768 60.8544C47.9631 60.3569 48.3273 59.9961 48.6613 59.8033C49.0079 59.6033 49.2275 59.6283 49.3315 59.688C49.3315 59.688 49.3316 59.6881 49.3317 59.6881L72.7269 73.1891C72.7271 73.1892 72.7273 73.1893 72.7274 73.1894C72.8299 73.2494 72.9623 73.4303 72.9626 73.8348C72.9628 74.2234 72.8326 74.719 72.5468 75.2072C72.2589 75.699 71.8931 76.0615 71.5572 76.2568C71.2069 76.4605 70.99 76.4345 70.8907 76.3771L70.8906 76.377L47.4934 62.8675Z" stroke="#FFE100" stroke-miterlimit="10" stroke-linejoin="round"/>
<path d="M35.7531 67.5864L31.8177 65.3148C30.9619 64.8156 30.2717 64.076 29.8328 63.1878C29.7843 63.057 29.7741 62.915 29.8034 62.7786C29.8691 62.4417 30.0492 62.1379 30.3131 61.9185C30.4169 61.8294 30.5448 61.7731 30.6806 61.7568L35.9663 61.622C37.2969 61.5926 39.2009 59.1127 40.2105 56.0888C40.5566 55.1064 40.7628 54.0802 40.8232 53.0404" stroke="#FFE100" stroke-miterlimit="10" stroke-linejoin="round"/>
<path d="M47.9736 49.2936L43.9622 46.9755C43.084 46.5197 42.1004 46.3057 41.1123 46.3555C39.0392 46.3775 36.672 47.4582 34.4347 49.4063C34.3097 49.5262 34.2068 49.6672 34.1309 49.8229C34.0563 49.9707 34.0097 50.1311 33.9937 50.2959C33.9781 50.425 34.0048 50.5556 34.0696 50.6683C34.0976 50.7131 34.1363 50.7502 34.1823 50.7761V50.7761L38.1938 53.0894" stroke="#FFE100" stroke-miterlimit="10" stroke-linejoin="round"/>
<path d="M82.0206 82.9534L78.0704 80.6695C78.0157 80.6294 77.9495 80.6079 77.8817 80.6083V80.6083L75.4043 80.672" stroke="#FFE100" stroke-miterlimit="10" stroke-linejoin="round"/>
<path d="M72.2015 86.7369L68.1901 84.4237C67.8293 84.2124 67.5083 83.9395 67.2418 83.6175C66.2616 82.4461 66.71 79.9001 66.3792 78.1553C66.2878 77.6263 66.0824 77.1235 65.7773 76.6818C65.4722 76.24 65.0748 75.8699 64.6124 75.597" stroke="#FFE100" stroke-miterlimit="10" stroke-linejoin="round"/>
<path d="M84.4907 68.4563L80.4817 66.1382C79.6221 65.6441 78.636 65.414 77.6465 65.4766C75.8037 65.5231 73.9193 66.1578 72.128 67.4565C71.6252 67.8613 71.0396 68.1507 70.4127 68.3044C69.9189 68.4289 69.3966 68.3706 68.9424 68.1402" stroke="#FFE100" stroke-miterlimit="10" stroke-linejoin="round"/>
</g>
</svg>
