<svg id="eKSwlD3MxH81" xmlns="http://www.w3.org/2000/svg" xmlns:xlink="http://www.w3.org/1999/xlink" viewBox="0 0 154 154" shape-rendering="geometricPrecision" text-rendering="geometricPrecision"><style><![CDATA[#eKSwlD3MxH82 {animation: eKSwlD3MxH82_c_o 5333.333333333333ms linear infinite normal forwards}@keyframes eKSwlD3MxH82_c_o { 0% {opacity: 1} 6.25% {opacity: 0.75} 12.5% {opacity: 0.5} 18.75% {opacity: 0.25} 25% {opacity: 0} 75% {opacity: 0} 81.25% {opacity: 0.25} 87.5% {opacity: 0.5} 93.75% {opacity: 0.75} 100% {opacity: 1}} #eKSwlD3MxH816 {animation: eKSwlD3MxH816_c_o 5333.333333333333ms linear infinite normal forwards}@keyframes eKSwlD3MxH816_c_o { 0% {opacity: 0.5} 6.25% {opacity: 0.75} 12.5% {opacity: 1} 18.75% {opacity: 0.75} 25% {opacity: 0.5} 31.25% {opacity: 0.25} 37.5% {opacity: 0} 87.5% {opacity: 0} 93.75% {opacity: 0.25} 100% {opacity: 0.5}} #eKSwlD3MxH827 {animation: eKSwlD3MxH827_c_o 5333.333333333333ms linear infinite normal forwards}@keyframes eKSwlD3MxH827_c_o { 0% {opacity: 0} 6.25% {opacity: 0.25} 12.5% {opacity: 0.5} 18.75% {opacity: 0.75} 25% {opacity: 1} 31.25% {opacity: 0.75} 37.5% {opacity: 0.5} 43.75% {opacity: 0.25} 50% {opacity: 0} 100% {opacity: 0}} #eKSwlD3MxH838 {animation: eKSwlD3MxH838_c_o 5333.333333333333ms linear infinite normal forwards}@keyframes eKSwlD3MxH838_c_o { 0% {opacity: 0} 12.5% {opacity: 0} 18.75% {opacity: 0.25} 25% {opacity: 0.5} 31.25% {opacity: 0.75} 37.5% {opacity: 1} 43.75% {opacity: 0.75} 50% {opacity: 0.5} 56.25% {opacity: 0.25} 62.5% {opacity: 0} 100% {opacity: 0}} #eKSwlD3MxH855 {animation: eKSwlD3MxH855_c_o 5333.333333333333ms linear infinite normal forwards}@keyframes eKSwlD3MxH855_c_o { 0% {opacity: 0} 25% {opacity: 0} 31.25% {opacity: 0.25} 37.5% {opacity: 0.5} 43.75% {opacity: 0.75} 50% {opacity: 1} 56.25% {opacity: 0.75} 62.5% {opacity: 0.5} 68.75% {opacity: 0.25} 75% {opacity: 0} 100% {opacity: 0}} #eKSwlD3MxH869 {animation: eKSwlD3MxH869_c_o 5333.333333333333ms linear infinite normal forwards}@keyframes eKSwlD3MxH869_c_o { 0% {opacity: 0} 37.5% {opacity: 0} 43.75% {opacity: 0.25} 50% {opacity: 0.5} 56.25% {opacity: 0.75} 62.5% {opacity: 1} 68.75% {opacity: 0.75} 75% {opacity: 0.5} 81.25% {opacity: 0.25} 87.5% {opacity: 0} 100% {opacity: 0}} #eKSwlD3MxH880 {animation: eKSwlD3MxH880_c_o 5333.333333333333ms linear infinite normal forwards}@keyframes eKSwlD3MxH880_c_o { 0% {opacity: 0} 50% {opacity: 0} 56.25% {opacity: 0.25} 62.5% {opacity: 0.5} 68.75% {opacity: 0.75} 75% {opacity: 1} 81.25% {opacity: 0.75} 87.5% {opacity: 0.5} 93.75% {opacity: 0.25} 100% {opacity: 0}} #eKSwlD3MxH891 {animation: eKSwlD3MxH891_c_o 5333.333333333333ms linear infinite normal forwards}@keyframes eKSwlD3MxH891_c_o { 0% {opacity: 0} 62.5% {opacity: 0} 68.75% {opacity: 0.25} 75% {opacity: 0.5} 81.25% {opacity: 0.75} 87.5% {opacity: 1} 100% {opacity: 0}}]]></style><g id="eKSwlD3MxH82" style="mix-blend-mode:multiply"><path d="M86.9365,76.894l-.0687-.0392c-.0778-.0319-.1639-.037-.245-.0147-.1378.0391-.2634.1124-.3651.2132l-5.5136,5.4376c-1.3992,1.3772-3.166.7964-3.9477-1.3036-.1057-.2768-.1877-.5621-.2451-.8528-.3969-1.9604.1422-4.2467,1.3576-5.445l5.5307-5.44c.1203-.1263.2181-.2721.2892-.4313.068-.1479.1063-.3078.1127-.4705.0076-.1249-.0278-.2486-.1005-.3504-.0333-.0408-.0764-.0727-.1251-.0928-.0488-.0201-.1018-.0278-.1542-.0224-2.1662.3284-4.5481,1.7153-6.7168,3.8767-1.8948,1.8244-3.4614,3.9614-4.6314,6.3173-.3392.74-.7769,1.4307-1.3012,2.0535-.474.573-1.0385,1.0647-1.6712,1.4556L38.9561,99.213c-1.1713.6763-2.4505,1.093-3.4306.897-1.414-.2942-2.5069-1.6395-4.2565-1.0612-1.6467.544-3.4307,1.8942-4.9696,3.4302-2.2659,2.238-4.0446,4.921-5.2244,7.879-.0536.145-.0761.301-.0662.456.003.057.0175.114.0428.166.0252.053.0607.099.1043.137.0104.01.0219.018.0343.025.0408.023.086.038.1327.043.0468.006.0941.002.1393-.011.1377-.039.2633-.113.3651-.213l5.5185-5.441c.0588-.058.1176-.112.1789-.164c1.3722-1.173,3.0238-.544,3.7737,1.471.7792,2.102.2793,4.918-1.1199,6.295l-5.516,5.44c-.117.128-.2114.274-.2794.434-.0684.147-.1068.307-.1127.47-.0083.125.0263.248.098.351l.0515.051c.0649.048.145.071.2254.064c2.1663-.331,4.5481-1.716,6.7143-3.877c1.8964-1.825,3.464-3.962,4.6339-6.32.3404-.739.778-1.43,1.3012-2.053.4744-.572,1.0379-1.063,1.6688-1.456l30.18-17.4227c1.1714-.6763,2.4505-1.0904,3.4307-.8968c1.4188.2793,2.5118,1.6271,4.2614,1.0512c1.6467-.544,3.4307-1.8967,4.972-3.4307c2.2656-2.2428,4.0427-4.9301,5.2195-7.8929.0533-.144.0742-.298.0613-.4509-.0105-.1127-.0651-.2166-.1519-.2892ZM70.5918,86.3627L37.5103,105.476c-.914.527-1.654.098-1.654-.955.0311-.574.1971-1.132.4845-1.629.2874-.498.6881-.92,1.1695-1.233L70.5918,82.5448c.914-.5268,1.6541-.1005,1.6541.9533-.0312.5738-.1972,1.1323-.4846,1.63s-.6881.9207-1.1695,1.2346v0Z" fill="#fff"/><path d="M72.2459,83.4981c-.0312.5739-.1972,1.1324-.4846,1.6301s-.688.9206-1.1695,1.2345L37.5104,105.476c-.9141.527-1.6541.098-1.6541-.955.0311-.574.1971-1.132.4846-1.629.2874-.498.6881-.92,1.1695-1.233L70.5918,82.5449c.914-.5269,1.6541-.1005,1.6541.9532Z" fill="#fff"/><path d="M30.1785,113.124l-5.516,5.44c-.1167.127-.2112.273-.2793.432-.0685.147-.1068.307-.1128.47-.0083.125.0263.248.0981.351l.0514.051-4.031-2.323c-.0151-.014-.029-.028-.0417-.044-.0717-.102-.1063-.226-.098-.351.0059-.162.0443-.322.1127-.47.0702-.163.168-.312.2892-.441l5.516-5.44c1.2252-1.201,1.757-3.49,1.3576-5.45c1.3722-1.174,3.0239-.544,3.7737,1.47.7793,2.113.2794,4.928-1.1199,6.305Z" fill="#2ab2ff"/><path d="M27.5247,105.358v-.002" fill="none" stroke="#2ab2ff" stroke-linejoin="round" stroke-miterlimit="10"/><path d="M86.8703,76.8548c-.0778-.0319-.164-.0371-.245-.0147-.1378.0391-.2634.1124-.3652.2132l-5.516,5.4376c-1.3992,1.3772-3.166.7964-3.9477-1.3037-.1057-.2767-.1877-.562-.245-.8527.0588-.0515.1151-.1029.1739-.1593l5.5185-5.4376c.1018-.1008.2274-.1741.3651-.2132.0809-.0239.1676-.0187.2451.0147l4.0163,2.3157Z" fill="#2ab2ff"/><path d="M76.5633,80.3345l-.0021.0021" fill="none" stroke="#2ab2ff" stroke-linejoin="round" stroke-miterlimit="10"/><path d="M83.6185,68.1064l-3.9551-2.2863c-.0619-.0457-.1394-.0651-.2156-.0539-2.1662.3284-4.5456,1.7031-6.7143,3.8767-1.8948,1.8245-3.4615,3.9614-4.6314,6.3173-.3394.7397-.7779,1.4298-1.3037,2.0511-.4725.5735-1.0363,1.0653-1.6687,1.4555L34.9447,96.8971c-1.1713.6763-2.4505,1.0929-3.4307.8969-1.4139-.2941-2.5068-1.6394-4.2565-1.0611-1.6467.544-3.4306,1.8942-4.972,3.4311-2.2639,2.242-4.0401,4.929-5.217,7.89-.0536.146-.0762.301-.0662.456.0064.116.0583.225.1446.304l.0245.017l4.0261,2.313" fill="none" stroke="#2ab2ff" stroke-linejoin="round" stroke-miterlimit="10"/><path d="M21.1971,111.144l-4.0237-2.323-.0245-.017c-.0863-.078-.1382-.187-.1446-.304-.01-.155.0125-.31.0661-.456c1.177-2.961,2.9532-5.647,5.2171-7.89c1.5512-1.5267,3.3253-2.8769,4.972-3.4307c1.7497-.5783,2.8426.767,4.2565,1.061.9802.1961,2.2643-.2205,3.4307-.8968L65.1292,79.4817c.6335-.3947,1.1974-.8915,1.6688-1.4703.5259-.622.9645-1.3129,1.3036-2.0535c1.17-2.3559,2.7366-4.4928,4.6314-6.3173c2.1687-2.1662,4.5481-3.5458,6.7143-3.8815.0762-.0112.1537.0081.2157.0539l3.955,2.2863c-.0503-.021-.1049-.0294-.1592-.0245-2.1663.3283-4.5481,1.7153-6.7143,3.8766-1.8948,1.8245-3.4615,3.9614-4.6314,6.3173-.3392.7406-.7778,1.4315-1.3037,2.0535-.4726.5736-1.0364,1.0653-1.6688,1.4556L38.9557,99.213c-1.1714.6763-2.4505,1.093-3.4307.897-1.4139-.2942-2.5068-1.6395-4.2589-1.0612-1.6468.544-3.4307,1.8942-4.9696,3.4302-2.2659,2.238-4.0439,4.92-5.222,7.879-.0547.145-.0773.301-.0661.456.0026.057.0168.114.0416.166s.0598.099.1029.137" fill="#2ab2ff"/><path d="M86.2651,77.0533l-5.521,5.4376c-1.3967,1.3772-3.166.7964-3.9452-1.3036-.7793-2.1001-.2794-4.9206,1.1198-6.2977l5.521-5.4401c.1202-.1263.218-.2721.2891-.4313.068-.1479.1064-.3078.1127-.4705.0076-.1248-.0278-.2485-.1004-.3504-.0334-.0408-.0764-.0727-.1252-.0928s-.1017-.0278-.1542-.0224c-2.1662.3284-4.5481,1.7154-6.7143,3.8767-1.8948,1.8245-3.4615,3.9614-4.6314,6.3173-.3391.7406-.7777,1.4315-1.3037,2.0535-.4725.5735-1.0363,1.0653-1.6687,1.4556L38.9562,99.213c-1.1714.6763-2.4505,1.093-3.4307.897-1.4139-.2942-2.5069-1.6395-4.2589-1.0612-1.6468.544-3.4307,1.8942-4.9696,3.4302-2.2659,2.238-4.0439,4.92-5.222,7.879-.0548.145-.0773.301-.0661.456.0026.057.0168.114.0416.166s.0598.099.1029.137c.0432.033.0934.055.1465.065s.1079.007.1598-.008c.1383-.04.2646-.113.3676-.213l5.5185-5.44c1.4041-1.39,3.1709-.797,3.9502,1.306.7792,2.102.2818,4.918-1.1175,6.295l-5.5184,5.44c-.1155.128-.209.275-.2769.434-.0694.147-.1085.307-.1152.47-.0076.125.0279.249.1005.351.0331.041.076.073.1248.094.0487.02.1018.028.1545.023c2.1662-.331,4.5457-1.715,6.7143-3.876c1.8956-1.825,3.4624-3.963,4.6314-6.32.3413-.74.7797-1.43,1.3037-2.054.4732-.573,1.0369-1.064,1.6688-1.455l30.18-17.4232c1.1714-.6763,2.4505-1.0904,3.4307-.8969c1.4188.2794,2.5093,1.6272,4.2614,1.0513c1.6467-.544,3.4306-1.8967,4.9695-3.4307c2.2656-2.2428,4.0427-4.9301,5.2196-7.893.0532-.1439.0741-.2979.0612-.4508-.003-.0576-.0176-.1139-.0428-.1657s-.0607-.098-.1042-.1358c-.0431-.0317-.0929-.0531-.1456-.0624s-.1069-.0065-.1583.0085c-.1414.0408-.2697.1176-.3724.223v0Z" fill="none" stroke="#2ab2ff" stroke-linejoin="round" stroke-miterlimit="10"/><path d="M70.8419,82.9778h.0001c.3647-.2108.5779-.1676.6676-.1159.0887.0511.2308.2112.2338.623-.0287.4904-.1714.9674-.4169,1.393-.2455.4258-.587.7884-.9972,1.059L37.2617,105.043c-.0002,0-.0004,0-.0005,0-.3691.211-.5827.167-.6718.116-.0883-.052-.2301-.212-.2331-.625.0288-.49.1717-.967.4175-1.392.2459-.426.5879-.788.9986-1.057L70.8419,82.9778Z" fill="none" stroke="#2ab2ff" stroke-linejoin="round" stroke-miterlimit="10"/><path d="M24.4126,119.871l-4.0261-2.326c-.015-.013-.0281-.028-.0392-.044-.0718-.102-.1064-.226-.0981-.351.006-.162.0443-.322.1128-.47.0701-.162.167-.311.2867-.441l5.5184-5.44c1.2253-1.201,1.7546-3.492,1.3576-5.452" fill="none" stroke="#2ab2ff" stroke-linejoin="round" stroke-miterlimit="10"/><path d="M86.9341,76.894l-4.0727-2.3549c-.0776-.033-.1641-.0382-.2451-.0147-.1377.0391-.2633.1124-.3651.2132l-5.5185,5.4376c-.0563.0564-.1151.1103-.174.1617" fill="none" stroke="#2ab2ff" stroke-linejoin="round" stroke-miterlimit="10"/><path d="M83.6185,68.1064l-3.9551-2.2863c-.0619-.0457-.1394-.0651-.2156-.0539-2.1662.3284-4.5456,1.7031-6.7143,3.8767-1.8948,1.8245-3.4615,3.9614-4.6314,6.3173-.3394.7397-.7779,1.4298-1.3037,2.0511-.4725.5735-1.0363,1.0653-1.6687,1.4555L34.9447,96.8971c-1.1713.6763-2.4505,1.0929-3.4307.8969-1.4139-.2941-2.5068-1.6394-4.2565-1.0611-1.6467.544-3.4306,1.8942-4.972,3.4311-2.2639,2.242-4.0401,4.929-5.217,7.89-.0536.146-.0762.301-.0662.456.0064.116.0583.225.1446.304l.0245.017l4.0261,2.313" fill="none" stroke="#2ab2ff" stroke-linejoin="round" stroke-miterlimit="10"/></g><g id="eKSwlD3MxH816" style="mix-blend-mode:multiply" opacity="0.5"><path d="M86.261,70.9802c-.0145-.0507-.0406-.0973-.0762-.1362s-.0797-.069-.1289-.088c-.1115-.0305-.2306-.0159-.3315.0405-.136.0693-.2555.1669-.3506.2862-.1086.1308-.1941.2793-.2528.4389l-2.4542,7.3601c-.6201,1.8603-2.7952,3.4154-4.8535,3.4702-1.7339.0453-2.8334-.9921-2.7618-2.4303.0166-.286.0719-.5684.1645-.8395l2.459-7.3578c.047-.1404.0617-.2896.0429-.4365-.0059-.0552-.0237-.1085-.0521-.1562-.0284-.0478-.0668-.0888-.1125-.1204-.0472-.0264-.0998-.042-.1538-.0457s-.1082.0046-.1586.0242c-.1376.0492-.2611.1311-.3601.2385-2.0739,2.3228-3.648,5.0473-4.6246,8.0041-.8586,2.5663-1.2497,4.9084-1.0184,6.7759.087.6702.0457,1.3509-.1216,2.0058-.1828.7571-.4719,1.4846-.8586,2.1608L49.4913,126.131c-.8086,1.4-1.8794,2.81-3.0123,3.721-1.6314,1.314-3.5608,1.934-5.0252,3.873-1.3762,1.825-2.4017,4.055-3.1006,6.12-.9921,2.9-1.2354,5.7-.6845,7.899.0209.075.0652.141.1264.189l.0764.043c.0558.016.1142.021.1719.014s.1136-.024.1644-.053c.1421-.066.2676-.164.3672-.286.1047-.134.1854-.286.2386-.448l2.4565-7.356c.5056-1.519,2.044-2.833,3.7111-3.296.3713-.105.7542-.164,1.14-.176c2.0583-.053,3.2222,1.414,2.5997,3.27l-2.4589,7.379c-.0469.141-.0616.291-.043.439.0137.107.0695.205.155.272l.0358.019c.092.036.1942.036.2862,0c.1379-.049.2616-.131.3602-.239c2.0788-2.32,3.6571-5.044,4.6364-8.001.8562-2.569,1.2402-4.906,1.016-6.788-.0858-.67-.0445-1.349.1217-2.004.1838-.757.4728-1.485.8586-2.163L74.4576,92.586c.8061-1.3952,1.8794-2.8095,3.0123-3.7206c1.6313-1.3141,3.5608-1.9319,5.0252-3.8709c1.3738-1.8221,2.4017-4.0545,3.1005-6.1175.9779-2.9026,1.2164-5.7002.6654-7.8968ZM74.4934,90.2988L51.7212,129.737c-.6296,1.088-1.648,1.67-2.2753,1.315-.6272-.356-.6296-1.541,0-2.624L72.2181,88.9799c.6296-1.0876,1.648-1.6695,2.2753-1.3142.6272.3554.6296,1.5527,0,2.6283v.0048Z" fill="#fff"/><path d="M74.4933,90.2941L51.7212,129.737c-.6296,1.088-1.648,1.67-2.2753,1.315-.6272-.356-.6296-1.541,0-2.624L72.218,88.9799c.6297-1.0875,1.6481-1.6695,2.2753-1.3141s.6297,1.5526,0,2.6283Z" fill="#fff"/><path d="M86.0559,70.756c-.1115-.0304-.2306-.0159-.3315.0406-.136.0692-.2555.1668-.3506.2862-.1087.1308-.1942.2792-.2528.4388l-2.4542,7.3602c-.6201,1.8603-2.7952,3.4153-4.8535,3.4701-1.7339.0454-2.8334-.9921-2.7618-2.4303c1.6695-.4627,3.2054-1.7768,3.711-3.2937l2.4542-7.3601c.0587-.1596.1442-.3081.2528-.4389.0951-.1193.2147-.2169.3506-.2862.1009-.0564.22-.071.3315-.0405l3.9043,2.2538Z" fill="#ffe100"/><path d="M77.5533,71.0113c-.0473-.0264-.0998-.042-.1538-.0457s-.1082.0046-.1586.0243c-.1376.0492-.2612.131-.3602.2385-2.0739,2.3228-3.648,5.0472-4.6245,8.0041-.8586,2.5662-1.2498,4.9083-1.0184,6.7758.0869.6703.0456,1.3509-.1217,2.0058-.1827.7572-.4718,1.4847-.8586,2.1608L49.4912,126.131c-.8085,1.4-1.8794,2.81-3.0123,3.721-1.6313,1.314-3.5608,1.934-5.0252,3.873-1.3761,1.825-2.4017,4.055-3.1005,6.12-.9922,2.9-1.2354,5.7-.6845,7.899.0209.075.0652.141.1264.189l-3.8279-2.211c-.0505-.021-.0953-.053-.1306-.095-.0353-.041-.0601-.09-.0722-.144-.5509-2.199-.3076-5.008.6869-7.899.6941-2.07,1.7196-4.293,3.1005-6.12c1.4621-1.939,3.3915-2.559,5.0253-3.873c1.1305-.911,2.2037-2.321,3.0099-3.721L66.3533,87.9139c.3864-.6765.6762-1.4039.861-2.1608.1649-.6552.2061-1.3355.1216-2.0058-.2385-1.8675.1574-4.2096,1.016-6.7758.9765-2.9569,2.5507-5.6813,4.6246-8.0041.099-.1075.2225-.1893.3601-.2385.0504-.0197.1046-.028.1586-.0243s.1066.0193.1538.0457l3.9043,2.261Z" fill="#ffe100"/><path d="M46.2643,147.017c-.0469.141-.0615.291-.0429.439.0137.107.0694.205.155.272l-3.8685-2.223-.0262-.015c-.0452-.032-.083-.073-.111-.12-.0279-.048-.0454-.101-.0512-.156-.0202-.148-.0055-.298.0429-.439l2.4566-7.379c.0937-.271.1491-.554.1646-.84.3713-.105.7542-.165,1.14-.176c2.0583-.053,3.2222,1.414,2.5997,3.269l-2.459,7.368Z" fill="#ffe100"/><path d="M38.8136,147.196l2.4565-7.356c.6201-1.862,2.7953-3.42,4.8512-3.472c2.0558-.053,3.2197,1.414,2.5996,3.27l-2.4589,7.379c-.0484.141-.0631.291-.043.439.0063.055.0242.108.0525.156.0284.047.0666.089.1121.12.0473.027.0998.042.1538.046s.1082-.005.1586-.024c.1376-.049.2612-.131.3602-.239c2.078-2.321,3.6562-5.044,4.6365-8.001.8562-2.569,1.2378-4.906,1.016-6.788-.087-.67-.0457-1.35.1216-2.004.1838-.757.4728-1.485.8586-2.163L74.4457,92.586c.8061-1.3952,1.8794-2.8095,3.0123-3.7206c1.6313-1.3141,3.5608-1.9319,5.0252-3.8709c1.3738-1.8221,2.4017-4.0545,3.1005-6.1175.9898-2.9026,1.2283-5.7002.6773-7.8968-.0145-.0507-.0406-.0973-.0762-.1362-.0355-.0389-.0797-.069-.1289-.088-.1115-.0305-.2306-.0159-.3315.0405-.1359.0693-.2555.1669-.3506.2862-.1086.1308-.1941.2793-.2528.4389l-2.4542,7.3601c-.6201,1.8603-2.7952,3.4154-4.8535,3.4702-2.0582.0549-3.2197-1.4143-2.5973-3.2698l2.459-7.3578c.047-.1404.0617-.2896.0429-.4365-.0059-.0552-.0237-.1085-.0521-.1562-.0284-.0478-.0667-.0888-.1124-.1204-.0473-.0264-.0998-.042-.1539-.0457s-.1081.0046-.1586.0242c-.1375.0492-.2611.1311-.3601.2385-2.0739,2.3228-3.648,5.0473-4.6246,8.0041-.8562,2.5663-1.2497,4.9084-1.016,6.7759.0857.6703.0445,1.3507-.1216,2.0058-.184.7568-.473,1.4841-.8586,2.1608v0L49.4913,126.131c-.8085,1.4-1.8794,2.81-3.0123,3.721-1.6313,1.314-3.5632,1.934-5.0252,3.873-1.3786,1.825-2.4017,4.055-3.1005,6.12-.9946,2.9-1.2355,5.7-.6845,7.899.0117.054.0363.103.0717.145.0353.041.0803.074.131.094.0558.016.1142.021.1719.014.0577-.006.1136-.024.1644-.052.1425-.07.2679-.17.3673-.294.1047-.134.1853-.286.2385-.448v-.007Z" fill="none" stroke="#ffe100" stroke-linejoin="round" stroke-miterlimit="10"/><path d="M51.2858,129.487l-.0001.001c-.2773.48-.6304.828-.9533,1.013-.3362.193-.5453.167-.6399.112-.0922-.053-.2194-.217-.2194-.605c0-.373.1258-.853.4036-1.335L72.6484,89.2352c.2789-.4818.632-.8303.9547-1.0164.3357-.1936.545-.168.6409-.1135.0916.0521.2192.2151.2192.6034c0,.3725-.1262.8534-.4049,1.3349l-.0003.0005L51.2858,129.487Z" fill="none" stroke="#ffe100" stroke-linejoin="round" stroke-miterlimit="10"/><path d="M75.0491,79.9168c1.6695-.4626,3.2079-1.7768,3.7111-3.2937l2.4542-7.3601c.0586-.1602.145-.3087.2552-.4389.0937-.1197.2126-.2174.3482-.2862.1018-.0563.2216-.0708.3339-.0405l3.9019,2.2538" fill="none" stroke="#ffe100" stroke-linejoin="round" stroke-miterlimit="10"/><path d="M37.8739,147.976l-3.9043-2.254c-.0507-.02-.0957-.053-.1311-.094-.0353-.042-.0599-.091-.0716-.145-.551-2.199-.3077-5.008.6845-7.899.6964-2.07,1.7219-4.293,3.1005-6.12c1.462-1.939,3.3939-2.559,5.0252-3.873c1.1329-.911,2.2038-2.321,3.0123-3.721L66.3557,87.9139c.3856-.6767.6746-1.404.8586-2.1608.1673-.6549.2086-1.3355.1216-2.0058-.2385-1.8675.1598-4.2095,1.0161-6.7758.9765-2.9569,2.5506-5.6813,4.6245-8.0041.099-.1075.2226-.1893.3601-.2385.0505-.0197.1046-.028.1587-.0243.054.0037.1065.0193.1538.0457l3.9042,2.2539" fill="none" stroke="#ffe100" stroke-linejoin="round" stroke-miterlimit="10"/><path d="M46.4122,147.747l-3.9042-2.242-.0263-.015c-.0455-.031-.0837-.073-.112-.12-.0284-.048-.0463-.101-.0525-.156-.0187-.148-.004-.298.0429-.439l2.4589-7.379c.0926-.271.148-.554.1646-.84" fill="none" stroke="#ffe100" stroke-linejoin="round" stroke-miterlimit="10"/></g><g id="eKSwlD3MxH827" style="mix-blend-mode:multiply" opacity="0"><path d="M87.7308,129.469c-.6812-1.83-1.7153-3.092-3.1537-3.526-.4739-.124-.8794-.431-1.1272-.853-.2889-.513-.4361-1.093-.4264-1.681v-34.8482c.0095-1.5515.3294-3.0854.941-4.5114.9556-2.1833,2.6685-4.4353,3.0459-6.6751.3211-1.8311.1563-3.7145-.4778-5.4621-.5122-1.4433-1.3821-2.4945-2.5216-3.0827-.532-.271-1.1093-.4421-1.7031-.5048-.1303.0045-.256.049-.3602.1275-.1342.0978-.2489.22-.3381.3602-.094.1439-.162.3031-.201.4705-.0371.1388-.0371.285,0,.4239l1.9604,5.244c.4901,1.3282-.8944,4.1658-3.1048,6.3468-2.2103,2.1809-4.4108,2.8646-4.9009,1.534l-.8944-2.4064L73.4127,77.59c-.0281-.0787-.0863-.143-.1617-.1789-.0208-.0113-.0431-.0196-.0662-.0245-.1216-.0201-.2463.0052-.3504.0711-.1398.0807-.2609.1901-.3553.321-.1088.1384-.1918.2953-.2451.4631-.7988,2.9626-.7988,5.7096,0,7.7533.6813,1.8305,1.7276,3.095,3.1538,3.5263.4739.1236.8793.4303,1.1272.8527.29.5121.4372,1.0927.4264,1.6811v34.8608c-.0097,1.55-.3288,3.083-.9385,4.509-.9533,2.188-2.6662,4.437-3.0411,6.675-.3212,1.832-.1564,3.716.4779,5.464.4901,1.375,1.3012,2.394,2.3622,2.995.575.321,1.2095.522,1.8648.59.1314-.007.2572-.055.3603-.137.1321-.1.245-.223.3332-.363.0913-.143.1584-.3.1985-.465.0358-.138.0358-.282,0-.419l-1.9604-5.244c-.4901-1.331.892-4.166,3.1023-6.35.5401-.542,1.1355-1.025,1.7766-1.443c1.5046-.958,2.7568-1.054,3.117-.088l1.9604,5.244c.0273.07.0774.129.1421.167.027.014.0559.025.0858.031.1216.021.2463-.005.3504-.071.1388-.082.2596-.191.3553-.321.1085-.137.1915-.293.2451-.46.7964-2.963.7964-5.712-.0025-7.761Zm-6.0943-3.587c-.0297.574-.1944,1.134-.481,1.633s-.6868.923-1.1682,1.238c-.914.527-1.654.099-1.654-.955v-38.208c.0311-.5736.1971-1.1317.4845-1.629s.6881-.9198,1.1695-1.2332c.9116-.5268,1.6517-.1005,1.6517.9533l-.0025,38.2009Z" fill="#fff"/><path d="M81.6365,87.6811v38.2079c-.0308.573-.1961,1.131-.4826,1.629s-.6861.921-1.1665,1.235c-.9141.527-1.6541.099-1.6541-.955v-38.208c.0311-.5736.1971-1.1317.4846-1.629s.688-.9198,1.1695-1.2332c.9091-.5268,1.6491-.1004,1.6491.9533Z" fill="#fff"/><path d="M86.7017,138.046l-4.0188-2.311c-.063-.039-.112-.098-.1397-.167l-1.0586-2.84c1.5046-.958,2.7568-1.054,3.117-.088l1.9604,5.244c.0276.068.0766.125.1397.162v0Z" fill="#2ab2ff"/><path d="M76.9463,92.0601v34.8559c-.0098,1.55-.3289,3.083-.9386,4.509-.9532,2.188-2.6661,4.437-3.041,6.675-.3212,1.832-.1564,3.716.4778,5.464.4901,1.375,1.3012,2.394,2.3623,2.995l-4.1658-2.404c-1.0476-.685-1.8266-1.711-2.2055-2.904-.6342-1.748-.799-3.633-.4778-5.465.3749-2.237,2.0878-4.486,3.041-6.675.6098-1.425.9288-2.958.9386-4.509v-34.8576c.0108-.5884-.1364-1.1689-.4264-1.681-.2479-.4224-.6533-.7292-1.1272-.8528-1.4262-.4313-2.4726-1.6957-3.1538-3.5262-.7988-2.0437-.7988-4.7907,0-7.7533.0533-.1678.1363-.3247.2451-.4632.0944-.1309.2155-.2403.3553-.321.1041-.0659.2288-.0911.3504-.0711.024.0047.0471.013.0686.0245l4.009,2.3158c-.0208-.0114-.0431-.0196-.0662-.0246-.1215-.02-.2463.0052-.3504.0711-.1398.0807-.2609.1901-.3553.321-.1088.1385-.1918.2954-.2451.4632-.7988,2.9626-.7988,5.7096,0,7.7533.6813,1.8305,1.7276,3.0949,3.1538,3.5262.4739.1236.8794.4304,1.1272.8528.2891.5123.4355,1.0928.424,1.681v0Z" fill="#2ab2ff"/><path d="M83.3617,74.9582c.4901,1.3281-.8944,4.1658-3.1047,6.3467s-4.4109,2.8646-4.901,1.534l-.8944-2.4064c.6442-.4163,1.2423-.9002,1.784-1.4433c2.2054-2.176,3.5997-5.0186,3.1047-6.3467l-1.9604-5.244c-.0371-.1389-.0371-.2851,0-.424.039-.1674.107-.3266.201-.4705.0892-.1401.2039-.2623.3381-.3602.1044-.0852.2331-.1349.3676-.1421.5985.0647,1.18.2391,1.7153.5146l3.987,2.3059c-.5321-.271-1.1093-.4421-1.7031-.5048-.1269.009-.2481.056-.348.1348-.1342.0978-.249.22-.3382.3602-.0939.1439-.1619.3031-.2009.4705-.0371.1388-.0371.285,0,.4239l1.953,5.2514Z" fill="#2ab2ff"/><path d="M78.5587,145.765l-1.9604-5.244c-.4901-1.331.892-4.166,3.1023-6.35c2.2104-2.183,4.4109-2.862,4.901-1.531l1.9604,5.244c.0186.049.0491.093.0889.128s.0875.059.139.07c.1215.021.2462-.005.3504-.071.1387-.082.2596-.191.3553-.321.1085-.137.1915-.293.2451-.46.7988-2.963.7988-5.712,0-7.754-.6813-1.83-1.7154-3.092-3.1538-3.526-.4739-.123-.8794-.43-1.1272-.853-.2889-.512-.4361-1.092-.4264-1.681v-34.8552c.0095-1.5515.3294-3.0854.941-4.5114.9557-2.1833,2.6685-4.4353,3.0459-6.6751.3211-1.8311.1563-3.7145-.4778-5.4621-.7352-2.0951-2.2422-3.3669-4.2247-3.5875-.1336.0025-.2631.0471-.37.1275-.1342.0978-.2489.22-.3381.3602-.094.1439-.162.3031-.201.4705-.0371.1388-.0371.285,0,.4239l1.9604,5.244c.4901,1.3282-.8944,4.1658-3.1048,6.3468-2.2103,2.1809-4.3986,2.8646-4.9009,1.534l-1.9604-5.2441c-.0181-.0501-.0484-.095-.0882-.1305s-.0878-.0605-.1397-.0729c-.1215-.02-.2463.0053-.3504.0711-.1398.0807-.2609.1901-.3553.321-.1088.1385-.1918.2954-.2451.4632-.7988,2.9626-.7988,5.7096,0,7.7533.6813,1.8305,1.7276,3.0949,3.1538,3.5262.4739.1236.8794.4304,1.1272.8528.29.5121.4372,1.0926.4264,1.681v34.8633c-.0097,1.55-.3288,3.083-.9385,4.509-.9533,2.188-2.6662,4.437-3.0411,6.675-.3172,1.833-.1483,3.717.4901,5.464.7352,2.095,2.2422,3.367,4.2271,3.585.1313-.007.2571-.055.3602-.137.1322-.1.2451-.223.3333-.363.0913-.143.1584-.3.1985-.465.0358-.138.0358-.282,0-.419h-.0025Z" fill="none" stroke="#2ab2ff" stroke-linejoin="round" stroke-miterlimit="10"/><path d="M81.1341,87.681v38.194c-.0286.491-.1713.968-.4169,1.394-.2452.425-.5862.787-.9958,1.058-.3618.203-.5717.16-.6599.109-.0893-.052-.2331-.215-.2331-.638v-38.194c.0287-.4904.1716-.9674.4175-1.3929.2453-.4245.5863-.7859.9958-1.0554.3614-.2.5724-.1577.6614-.1067.0876.0504.231.2097.231.632Z" fill="none" stroke="#2ab2ff" stroke-linejoin="round" stroke-miterlimit="10"/><path d="M86.7017,138.046l-4.0188-2.311c-.0632-.04-.1128-.098-.1421-.167l-1.0562-2.84" fill="none" stroke="#2ab2ff" stroke-linejoin="round" stroke-miterlimit="10"/><path d="M75.9711,146.657l-4.3325-2.502c-1.0469-.686-1.8257-1.712-2.2054-2.904-.6343-1.748-.799-3.633-.4778-5.465.3749-2.237,2.0878-4.486,3.041-6.675.6097-1.425.9288-2.958.9385-4.509v-34.8576c.0109-.5884-.1364-1.169-.4264-1.6811-.2478-.4224-.6533-.7291-1.1272-.8527-1.4262-.4313-2.4725-1.6958-3.1537-3.5263-.7989-2.0437-.7989-4.7906,0-7.7533.0533-.1678.1363-.3246.245-.4631.0944-.1309.2155-.2403.3553-.321.1042-.0659.2289-.0912.3504-.0711.0242.0041.0474.0124.0687.0245l4.0114,2.3157" fill="none" stroke="#2ab2ff" stroke-linejoin="round" stroke-miterlimit="10"/><path d="M84.011,68.8295l-3.9869-2.3059c-.54-.2768-1.1265-.4512-1.73-.5146-.1311.0066-.257.0537-.3602.1348-.1343.0979-.249.2201-.3382.3602-.094.1439-.162.3032-.2009.4705-.0372.1389-.0372.2851,0,.424l1.9603,5.244c.4901,1.3281-.8944,4.1658-3.1047,6.3467-.5395.5426-1.1351,1.0264-1.7766,1.4433" fill="none" stroke="#2ab2ff" stroke-linejoin="round" stroke-miterlimit="10"/></g><g id="eKSwlD3MxH838" style="mix-blend-mode:multiply" opacity="0"><path d="M124.521,91.4431c-.427-.8611-1.09-1.5833-1.912-2.0829l-.105-.0613c-.835-.4513-1.78-.6601-2.727-.6028-1.843.0466-3.727.6812-5.519,1.98-.503.4047-1.088.6942-1.715.8479-.494.1245-1.016.0662-1.47-.1642l-4.012-2.3157L89.7241,79.0437c-.4618-.2721-.8588-.6414-1.1635-1.0824-.3046-.4409-.5097-.9429-.6009-1.471-.3308-1.7447.1103-4.2883-.8625-5.4646-.2792-.3346-.6172-.6153-.9974-.8282-.8793-.4577-1.8648-.6726-2.8548-.6225-2.0731.0221-4.4403,1.1028-6.6775,3.0509-.1322.1213-.241.2658-.321.4264-.0747.1478-.1212.3081-.1373.4729-.0155.1291.0112.2598.076.3725.028.0448.0667.0818.1127.1078.046.0247.0973.0381.1495.0392l2.475-.0637l2.8107-.0735c1.3379-.0368,1.605,2.3892.5979,5.4106-1.0072,3.0215-2.8989,5.4965-4.2344,5.5234l-5.2857.1348c-.1358.0163-.2638.0726-.3676.1617-.2639.2195-.4439.5233-.5097.8601-.0292.1365-.019.2784.0294.4093.4227.8819,1.1016,1.6158,1.948,2.1059.8463.4901,1.8208.7135,2.7961.6411c1.9951-.0731,3.9187-.7622,5.5063-1.9727.5032-.4047,1.0885-.6949,1.7153-.8503.4978-.1256,1.0242-.0673,1.4825.1642L102.726,96.5009l4.007,2.3157c.461.2728.858.6427,1.163,1.084.305.4414.51.9434.601,1.4714.331,1.745-.113,4.291.863,5.463.264.317.582.587.938.796h.013c.89.477,1.894.701,2.903.647c2.071-.017,4.438-1.095,6.675-3.041.128-.121.233-.262.312-.419.077-.153.124-.32.139-.49.015-.131-.012-.263-.078-.378-.03-.044-.07-.08-.117-.105s-.099-.038-.153-.037l-5.285.137c-.841.025-1.26-.926-1.203-2.389.063-1.03.268-2.0466.607-3.0212c1.01-3.0239,2.911-5.5014,4.244-5.5332l5.303-.147c.136-.0164.264-.0726.368-.1618.133-.1057.245-.2354.331-.3822.087-.1474.148-.3092.179-.4779.03-.1288.025-.2634-.015-.3896v0Zm-13.424,4.9181c-.644,1.1174-1.693,1.7153-2.338,1.3502L85.3622,84.2019c-.6469-.3724-.6469-1.5805,0-2.6955.647-1.115,1.6909-1.7153,2.3378-1.3502l23.397,13.507c.647.3725.647,1.5806,0,2.698Z" fill="#fff"/><path d="M111.097,96.3612c-.644,1.1174-1.693,1.7153-2.338,1.3502L85.3622,84.2019c-.6469-.3724-.6469-1.5805,0-2.6955s1.6908-1.7153,2.3378-1.3502l23.397,13.507c.647.3725.647,1.5806,0,2.698Z" fill="#fff"/><path d="M82.3408,79.3083c-1.0096,3.0239-2.9087,5.5062-4.2443,5.5332l-5.2856.1348c-.1359.0163-.2638.0726-.3676.1617-.2639.2194-.4439.5233-.5097.8601-.0292.1364-.019.2784.0294.4092.4264.861,1.0884,1.5832,1.9089,2.0829l-3.9354-2.2716c-.4151-.2356-.7912-.534-1.115-.8846-.3464-.3716-.6392-.7898-.8699-1.2424-.0485-.1308-.0587-.2728-.0294-.4092.0657-.3368.2458-.6407.5097-.8601.1038-.0891.2317-.1454.3675-.1617l5.2857-.1348c1.3306-.0294,3.2346-2.5093,4.2442-5.5332.3431-.9739.5493-1.9908.6127-3.0214l2.8107-.0735c1.3281-.0368,1.6001,2.3892.5881,5.4106Z" fill="#ffe100"/><path d="M78.942,73.9442c.0011.0087.0011.0174,0,.026" fill="none" stroke="#ffe100" stroke-linejoin="round" stroke-miterlimit="10"/><path d="M86.0924,70.1974c-.8793-.4577-1.8647-.6725-2.8548-.6224-2.0731.0221-4.4402,1.1027-6.6775,3.0509-.1295.1219-.2358.2664-.3137.4263-.0746.1478-.1211.3082-.1372.473-.0155.1291.0111.2597.076.3725.0279.0448.0667.0818.1127.1078l-4.0016-2.3084c-.046-.0259-.0848-.063-.1128-.1078-.0637-.1131-.0902-.2434-.0759-.3725.0161-.1647.0626-.3251.1372-.4729.0759-.1557.1788-.2967.3039-.4166c2.2372-1.9481,4.6044-3.0288,6.6775-3.0508.9889-.0498,1.9733.1642,2.8524.6199v0l4.0138,2.301Z" fill="#ffe100"/><path d="M76.3139,73.9998l-.0062-.0041" fill="none" stroke="#ffe100" stroke-linejoin="round" stroke-miterlimit="10"/><path d="M110.308,107.633l-4.002-2.306c-.36-.211-.681-.484-.948-.806-.98-1.171-.532-3.717-.863-5.4618-.091-.5278-.295-1.0295-.599-1.4707s-.7-.8114-1.16-1.0852l4.007,2.3157c.461.2729.858.6427,1.163,1.084.304.441.509.944.601,1.472.331,1.745-.113,4.291.862,5.462.265.318.583.587.939.796v0Z" fill="#ffe100"/><path d="M122.504,89.2989c-.835-.4514-1.78-.6601-2.727-.6028-1.843.0466-3.727.6812-5.519,1.98-.503.4047-1.088.6941-1.715.8478-.494.1246-1.016.0663-1.47-.1641l-4.012-2.3157c.458.2327.985.2911,1.483.1641.626-.1546,1.212-.444,1.715-.8478c1.789-1.2988,3.676-1.9335,5.516-1.98.99-.0626,1.976.1676,2.835.6616l3.894,2.2569Z" fill="#ffe100"/><path d="M113.516,101.576l2.477-.064c.068,0,.134.021.189.061l3.957,2.284c-.042-.02-.088-.03-.134-.029v0l-5.286.137c-.843.025-1.26-.926-1.203-2.389v0Z" fill="#ffe100"/><path d="M120.005,103.828l-5.286.137c-1.338.039-1.605-2.387-.596-5.4106c1.01-3.0239,2.912-5.5014,4.245-5.5332l5.303-.147c.135-.0164.263-.0727.367-.1618.132-.1058.244-.2355.328-.3823.09-.1468.151-.3087.182-.4778.029-.1364.019-.2784-.03-.4092-.422-.8818-1.1-1.6156-1.946-2.1057s-1.82-.7136-2.795-.6413c-1.999.0795-3.925.7706-5.519,1.98-.503.4043-1.088.6937-1.715.8478-.498.127-1.025.0686-1.483-.1641L89.7241,79.0437c-.4618-.2721-.8588-.6414-1.1635-1.0824-.3046-.4409-.5097-.9429-.6009-1.471-.3308-1.7448.1103-4.2884-.8625-5.4646-.9165-1.1027-2.3721-1.4703-3.8522-1.4507-2.0731.0221-4.4403,1.1027-6.68,3.0509-.1307.122-.2386.2664-.3186.4263-.0757.1474-.1223.308-.1372.473-.0155.1291.0112.2597.076.3725.0274.0449.0659.0821.1118.1079.0459.0257.0977.0392.1504.0391l5.2857-.1372c1.3379-.0368,1.605,2.3892.5954,5.4106-1.0096,3.0215-2.8964,5.4964-4.2344,5.5234l-5.2832.1348c-.1359.0163-.2638.0726-.3676.1617-.2639.2194-.4439.5233-.5097.8601-.0286.1363-.0193.2779.027.4092.4236.8817,1.1031,1.6154,1.9497,2.1053s1.8213.7136,2.7968.6417c1.9951-.073,3.9186-.7621,5.5063-1.9726.5031-.4047,1.0885-.6949,1.7153-.8503.4978-.1256,1.0242-.0673,1.4825.1642v0L106.73,98.819c.462.2726.859.6424,1.163,1.0838.304.4412.509.9432.599,1.4722.331,1.745-.11,4.291.865,5.462.917,1.105,2.37,1.47,3.852,1.451c2.074-.018,4.441-1.096,6.678-3.041.127-.12.232-.262.309-.419.079-.153.126-.319.139-.491.017-.13-.01-.263-.076-.377-.029-.044-.069-.08-.116-.105s-.1-.038-.153-.037l.015.01Z" fill="none" stroke="#ffe100" stroke-linejoin="round" stroke-miterlimit="10"/><path d="M85.6122,83.7714v0l-.0018-.001c-.1016-.0582-.2328-.2322-.2325-.6323.0002-.3851.1308-.8814.4176-1.3799.2864-.4975.6506-.8583.9846-1.051.3466-.2001.5662-.1751.6702-.1154c0,.0001.0001.0001.0001.0001l23.3956,13.501c0,.0002,0,.0003,0,.0004.103.0599.235.2409.235.6454.001.3885-.13.8841-.415,1.3724-.288.4917-.654.8542-.99,1.0495-.35.2037-.567.1777-.666.1204l-.001-.0001L85.6122,83.7714Z" fill="none" stroke="#ffe100" stroke-linejoin="round" stroke-miterlimit="10"/><path d="M73.8719,88.4903l-3.9355-2.2716c-.8557-.4992-1.5459-1.2389-1.9849-2.127-.0484-.1309-.0586-.2728-.0294-.4093.0658-.3368.2458-.6406.5097-.8601.1039-.0891.2318-.1454.3676-.1617l5.2857-.1348c1.3306-.0294,3.2346-2.5093,4.2442-5.5332.346-.9824.5523-2.0085.6126-3.0484" fill="none" stroke="#ffe100" stroke-linejoin="round" stroke-miterlimit="10"/><path d="M86.0924,70.1975L82.081,67.8793c-.8782-.4558-1.8618-.6698-2.8499-.62-2.0731.0221-4.4403,1.1027-6.6776,3.0509-.125.1198-.2279.2609-.3038.4166-.0747.1478-.1212.3081-.1373.4729-.0155.1291.0112.2597.076.3725.028.0448.0667.0818.1127.1078v0l4.0114,2.3132" fill="none" stroke="#ffe100" stroke-linejoin="round" stroke-miterlimit="10"/><path d="M120.139,103.857l-3.95-2.284c-.055-.04-.121-.061-.189-.061v0l-2.477.064" fill="none" stroke="#ffe100" stroke-linejoin="round" stroke-miterlimit="10"/><path d="M110.32,107.641l-4.011-2.313c-.361-.212-.682-.485-.948-.807-.981-1.171-.532-3.717-.863-5.4618-.091-.529-.297-1.0318-.602-1.4736-.305-.4417-.702-.8119-1.165-1.0847" fill="none" stroke="#ffe100" stroke-linejoin="round" stroke-miterlimit="10"/><path d="M122.609,89.3602L118.6,87.042c-.859-.494-1.845-.7242-2.835-.6616-1.842.0465-3.727.6812-5.518,1.98-.503.4047-1.089.6941-1.716.8478-.493.1246-1.016.0662-1.47-.1641" fill="none" stroke="#ffe100" stroke-linejoin="round" stroke-miterlimit="10"/></g><g id="eKSwlD3MxH855" style="mix-blend-mode:multiply" transform="translate(1 0)" opacity="0"><path d="M137.352,46.1531l-.069-.0393c-.078-.0318-.164-.037-.245-.0147-.138.0391-.263.1125-.365.2132l-5.514,5.4376c-1.399,1.3772-3.166.7964-3.947-1.3036-.106-.2768-.188-.5621-.245-.8528-.397-1.9604.142-4.2467,1.357-5.4449l5.531-5.4401c.12-.1263.218-.2721.289-.4313.068-.1479.106-.3078.113-.4705.007-.1248-.028-.2485-.101-.3504-.033-.0408-.076-.0727-.125-.0928s-.102-.0278-.154-.0224c-2.166.3284-4.548,1.7154-6.717,3.8767-1.895,1.8245-3.461,3.9614-4.631,6.3173-.339.74-.777,1.4308-1.301,2.0535-.474.5731-1.039,1.0647-1.672,1.4556L89.3713,68.472c-1.1713.6763-2.4505,1.0929-3.4307.8969-1.4139-.2941-2.5068-1.6394-4.2564-1.0611-1.6468.544-3.4307,1.8942-4.9696,3.4307-2.2659,2.2379-4.0446,4.9201-5.2244,7.8783-.0536.1456-.0762.3009-.0662.4557.003.058.0175.1147.0428.1669.0252.0522.0607.0988.1043.137.0104.0095.0219.0178.0343.0245.0408.0233.086.0381.1327.0436s.0941.0015.1393-.0117c.1377-.0391.2633-.1125.3651-.2132l5.5185-5.4401c.0588-.0588.1176-.1127.1788-.1642c1.3723-1.1737,3.0239-.544,3.7738,1.4703.7792,2.1025.2793,4.9181-1.1199,6.2953l-5.516,5.4401c-.117.1277-.2114.2744-.2794.4337-.0684.1478-.1068.3077-.1127.4705-.0083.1246.0263.2482.098.3504l.0515.0515c.0648.048.145.0706.2254.0637c2.1663-.3308,4.5481-1.7154,6.7143-3.8767c1.8964-1.8246,3.464-3.9625,4.6339-6.3198.3404-.7393.778-1.43,1.3012-2.0535.4744-.5717,1.0379-1.0632,1.6688-1.4555L119.559,58.0624c1.171-.6764,2.45-1.0905,3.43-.8969c1.419.2793,2.512,1.6271,4.262,1.0512c1.647-.544,3.43-1.8966,4.972-3.4306c2.265-2.2429,4.042-4.9302,5.219-7.893.054-.144.074-.2979.062-.4509-.011-.1126-.066-.2166-.152-.2891Zm-16.345,9.4686L87.9255,74.7354c-.914.5269-1.654.098-1.654-.9557.0311-.5735.1971-1.1316.4845-1.629.2874-.4973.6881-.9198,1.1695-1.2331L121.007,51.8039c.914-.5269,1.654-.1005,1.654.9532-.031.5739-.197,1.1323-.485,1.6301-.287.4977-.688.9206-1.169,1.2345v0Z" fill="#fff"/><path d="M122.661,52.7572c-.031.5739-.197,1.1323-.485,1.63-.287.4978-.688.9207-1.169,1.2346L87.9255,74.7355c-.914.5268-1.6541.098-1.6541-.9557.0312-.5735.1972-1.1317.4846-1.629s.6881-.9198,1.1695-1.2331L121.007,51.8039c.914-.5268,1.654-.1004,1.654.9533Z" fill="#fff"/><path d="M80.5937,82.3834l-5.5161,5.4401c-.1167.127-.2111.2728-.2793.4312-.0685.1478-.1068.3078-.1127.4705-.0084.1246.0262.2483.098.3505l.0514.0514-4.031-2.323c-.0151-.0136-.029-.0283-.0416-.0442-.0718-.1021-.1064-.2258-.0981-.3504.006-.1627.0443-.3227.1128-.4705.0701-.1626.1679-.3118.2891-.441l5.516-5.4401c1.2253-1.2007,1.757-3.4895,1.3576-5.4499c1.3723-1.1737,3.0239-.544,3.7737,1.4703.7793,2.1123.2794,4.9279-1.1198,6.3051Z" fill="#2ab2ff"/><path d="M77.9398,74.6175v-.0021" fill="none" stroke="#2ab2ff" stroke-linejoin="round" stroke-miterlimit="10"/><path d="M137.286,46.1139c-.078-.0319-.164-.0371-.246-.0147-.137.0391-.263.1124-.365.2132L131.159,51.75c-1.399,1.3771-3.166.7964-3.947-1.3037-.106-.2768-.188-.5621-.245-.8528.058-.0514.115-.1029.174-.1592l5.518-5.4376c.102-.1008.227-.1741.365-.2132.081-.024.168-.0188.245.0147l4.017,2.3157Z" fill="#2ab2ff"/><path d="M126.978,49.5935l-.002.0022" fill="none" stroke="#2ab2ff" stroke-linejoin="round" stroke-miterlimit="10"/><path d="M134.034,37.3655l-3.955-2.2863c-.062-.0457-.14-.0651-.216-.0539-2.166.3284-4.546,1.7031-6.714,3.8767-1.895,1.8244-3.462,3.9614-4.632,6.3173-.339.7397-.778,1.4298-1.303,2.0511-.473.5735-1.037,1.0652-1.669,1.4555L85.3598,66.1562c-1.1713.6763-2.4505,1.0929-3.4306.8968-1.414-.294-2.5069-1.6393-4.2565-1.061-1.6467.544-3.4307,1.8942-4.972,3.4307-2.264,2.2427-4.0402,4.929-5.2171,7.8905-.0536.1456-.0761.3009-.0662.4558.0064.1163.0584.2255.1446.3038l.0245.0172l4.0261,2.3132" fill="none" stroke="#2ab2ff" stroke-linejoin="round" stroke-miterlimit="10"/><path d="M71.6122,80.4034l-4.0237-2.3231-.0245-.0171c-.0862-.0784-.1382-.1875-.1446-.3039-.01-.1549.0126-.3101.0662-.4558c1.1769-2.9614,2.9531-5.6477,5.217-7.8905c1.5512-1.5266,3.3253-2.8768,4.9721-3.4307c1.7496-.5783,2.8425.767,4.2564,1.0611.9802.196,2.2643-.2205,3.4307-.8969L115.544,48.7408c.634-.3947,1.198-.8915,1.669-1.4703.526-.622.965-1.3129,1.304-2.0535c1.17-2.3559,2.736-4.4929,4.631-6.3173c2.169-2.1662,4.548-3.5459,6.714-3.8816.077-.0112.154.0082.216.0539l3.955,2.2863c-.05-.021-.105-.0294-.159-.0245-2.166.3284-4.548,1.7154-6.714,3.8767-1.895,1.8244-3.462,3.9614-4.632,6.3173-.339.7406-.778,1.4315-1.303,2.0535-.473.5735-1.037,1.0653-1.669,1.4556L89.3708,68.472c-1.1713.6764-2.4505,1.0929-3.4307.8969-1.4139-.2941-2.5068-1.6394-4.2589-1.0611-1.6467.544-3.4307,1.8943-4.9696,3.4307-2.2659,2.2374-4.0439,4.9198-5.2219,7.8783-.0548.1453-.0774.3009-.0662.4558.0026.0577.0168.1143.0416.1665s.0598.0989.103.1373" fill="#2ab2ff"/><path d="M136.68,46.3124L131.159,51.75c-1.397,1.3772-3.166.7964-3.945-1.3037s-.279-4.9205,1.12-6.2977l5.521-5.44c.12-.1263.218-.2721.289-.4313.068-.1479.106-.3078.113-.4705.007-.1249-.028-.2486-.101-.3504-.033-.0408-.076-.0727-.125-.0928s-.102-.0278-.154-.0224c-2.166.3284-4.548,1.7153-6.714,3.8767-1.895,1.8244-3.462,3.9614-4.632,6.3173-.339.7406-.778,1.4314-1.304,2.0535-.472.5735-1.036,1.0653-1.668,1.4556L89.3713,68.4721c-1.1713.6763-2.4505,1.0929-3.4307.8968-1.4139-.294-2.5068-1.6393-4.2589-1.061-1.6467.544-3.4307,1.8942-4.9696,3.4306-2.2659,2.2374-4.0439,4.9199-5.2219,7.8783-.0548.1454-.0774.3009-.0662.4558.0026.0577.0168.1144.0416.1665.0248.0522.0598.0989.103.1374.0431.0325.0933.0546.1465.0643.0531.0098.1079.0071.1598-.008.1382-.0396.2645-.1128.3675-.2132l5.5185-5.44c1.4041-1.3894,3.1709-.7964,3.9502,1.3061.7792,2.1025.2818,4.9181-1.1174,6.2953l-5.5185,5.44c-.1154.1285-.209.275-.2769.4338-.0693.1476-.1085.3075-.1152.4705-.0076.1248.0279.2485.1005.3504.0331.0412.076.0736.1248.0941.0488.0206.1019.0286.1545.0235c2.1663-.3308,4.5457-1.7153,6.7144-3.8767c1.8956-1.8247,3.4623-3.9626,4.6314-6.3197.3412-.7395.7796-1.4301,1.3036-2.0535.4733-.5729,1.0369-1.0646,1.6688-1.4556L119.561,58.0649c1.171-.6763,2.451-1.0905,3.431-.8969c1.419.2794,2.509,1.6271,4.261,1.0513c1.647-.544,3.431-1.8967,4.97-3.4307c2.265-2.2429,4.042-4.9302,5.219-7.893.054-.144.074-.2979.062-.4509-.003-.0575-.018-.1139-.043-.1657-.026-.0517-.061-.0979-.104-.1357-.044-.0317-.093-.0531-.146-.0625s-.107-.0064-.158.0086c-.142.0407-.27.1176-.373.223v0Z" fill="none" stroke="#2ab2ff" stroke-linejoin="round" stroke-miterlimit="10"/><path d="M121.257,52.2369v-.0001c.365-.2107.578-.1676.668-.1158.088.0511.231.2112.234.623-.029.4903-.172.9673-.417,1.393-.246.4258-.587.7884-.998,1.059L87.6768,74.3017c-.0002.0001-.0003.0002-.0005.0003-.3691.2115-.5826.1674-.6717.1158-.0884-.0513-.2302-.2117-.2331-.6247.0287-.4902.1717-.9669.4174-1.3921.2459-.4255.5879-.7876.9987-1.0573L121.257,52.2369Z" fill="none" stroke="#2ab2ff" stroke-linejoin="round" stroke-miterlimit="10"/><path d="M74.8278,89.1295L70.8016,86.804c-.0149-.0129-.0281-.0277-.0392-.0441-.0717-.1022-.1063-.2258-.098-.3504.0059-.1628.0442-.3227.1127-.4705.0702-.162.1671-.3111.2867-.4411l5.5185-5.44c1.2252-1.2008,1.7545-3.492,1.3576-5.4523" fill="none" stroke="#2ab2ff" stroke-linejoin="round" stroke-miterlimit="10"/><path d="M137.349,46.1531l-4.072-2.3549c-.078-.0331-.165-.0383-.246-.0147-.137.0391-.263.1124-.365.2132l-5.518,5.4376c-.057.0563-.115.1102-.174.1617" fill="none" stroke="#2ab2ff" stroke-linejoin="round" stroke-miterlimit="10"/><path d="M134.034,37.3655l-3.955-2.2863c-.062-.0457-.14-.0651-.216-.0539-2.166.3284-4.546,1.7031-6.714,3.8767-1.895,1.8244-3.462,3.9614-4.632,6.3173-.339.7397-.778,1.4298-1.303,2.0511-.473.5735-1.037,1.0652-1.669,1.4555L85.3598,66.1562c-1.1713.6763-2.4505,1.0929-3.4306.8968-1.414-.294-2.5069-1.6393-4.2565-1.061-1.6467.544-3.4307,1.8942-4.972,3.4307-2.264,2.2427-4.0402,4.929-5.2171,7.8905-.0536.1456-.0761.3009-.0662.4558.0064.1163.0584.2255.1446.3038l.0245.0172l4.0261,2.3132" fill="none" stroke="#2ab2ff" stroke-linejoin="round" stroke-miterlimit="10"/></g><g id="eKSwlD3MxH869" style="mix-blend-mode:multiply" opacity="0"><path d="M120.691,9.49828c-.015-.05068-.041-.09731-.076-.13621-.036-.0389-.08-.06901-.129-.08799-.112-.03044-.231-.01588-.332.04055-.136.06927-.255.16686-.35.2862-.109.13082-.195.27923-.253.43887l-2.454,7.3601c-.62,1.8603-2.796,3.4154-4.854,3.4702-1.734.0453-2.833-.9921-2.762-2.4303.017-.286.072-.5684.165-.8395l2.459-7.3578c.047-.1404.061-.28959.043-.43645-.006-.05524-.024-.10854-.052-.15629-.029-.04774-.067-.0888-.113-.12038-.047-.02638-.1-.04199-.154-.0457s-.108.00457-.158.02424c-.138.04923-.261.13106-.36.2385-2.074,2.32278-3.648,5.04728-4.625,8.00408-.859,2.5663-1.25,4.9084-1.018,6.7759.087.6702.045,1.3509-.122,2.0058-.183.7571-.472,1.4846-.859,2.1608L83.9211,64.6493c-.8085,1.4001-1.8794,2.8096-3.0123,3.7207-1.6313,1.3141-3.5608,1.9342-5.0252,3.8732-1.3761,1.8246-2.4017,4.0546-3.1005,6.12-.9922,2.9002-1.2355,5.7002-.6845,7.8991.0209.0748.0652.1408.1264.1885l.0763.0429c.0558.0161.1143.021.172.0144.0577-.0065.1135-.0244.1643-.0526.1422-.0669.2677-.1646.3673-.2862.1047-.1346.1854-.2863.2385-.4484L75.7,78.3656c.5056-1.5193,2.0439-2.8334,3.711-3.2961.3714-.1054.7543-.1647,1.1401-.1765c2.0582-.0525,3.2221,1.4143,2.5996,3.2698l-2.4589,7.3793c-.0469.1412-.0616.2912-.0429.4388.0137.1076.0694.2053.155.2719l.0358.0191c.0919.0361.1942.0361.2862,0c.1378-.0486.2615-.1306.3601-.2385c2.0788-2.3204,3.6572-5.0443,4.6365-8.0017.8562-2.5687,1.2402-4.906,1.016-6.7878-.0858-.6695-.0446-1.3492.1216-2.0034.1838-.7576.4728-1.4858.8586-2.1632L108.887,31.1041c.807-1.3952,1.88-2.8095,3.013-3.7206c1.631-1.3141,3.561-1.9319,5.025-3.8709c1.374-1.8221,2.402-4.0545,3.1-6.1175.978-2.9026,1.217-5.7002.666-7.89682ZM108.923,28.8169L86.1511,68.2555c-.6297,1.0876-1.6481,1.6695-2.2753,1.3141-.6273-.3553-.6297-1.5407,0-2.6235L106.648,27.498c.63-1.0876,1.648-1.6695,2.275-1.3142s.63,1.5527,0,2.6283v.0048Z" fill="#fff"/><path d="M108.923,28.8122L86.1511,68.2555c-.6297,1.0876-1.6481,1.6695-2.2753,1.3142-.6273-.3554-.6297-1.5407,0-2.6235L106.648,27.498c.63-1.0875,1.648-1.6695,2.275-1.3141.627.3553.63,1.5526,0,2.6283Z" fill="#fff"/><path d="M120.486,9.27411c-.112-.03045-.231-.01589-.332.04054-.136.06928-.255.16686-.35.2862-.109.13082-.195.27923-.253.43885l-2.454,7.3602c-.62,1.8603-2.796,3.4153-4.854,3.4701-1.734.0454-2.833-.9921-2.762-2.4303c1.67-.4627,3.206-1.7768,3.711-3.2937l2.455-7.36014c.058-.15961.144-.30803.252-.43884.095-.11934.215-.21694.351-.28621.101-.05643.22-.07098.331-.04054l3.905,2.25384Z" fill="#ffe100"/><path d="M111.983,9.52942c-.047-.02638-.1-.04199-.154-.0457s-.108.00457-.158.02424c-.138.04923-.261.13106-.36.2385-2.074,2.32284-3.648,5.04724-4.625,8.00414-.859,2.5662-1.25,4.9083-1.018,6.7758.087.6703.045,1.3509-.122,2.0058-.183.7572-.472,1.4847-.859,2.1608L83.9211,64.6495c-.8086,1.4-1.8794,2.8095-3.0123,3.7206-1.6314,1.3141-3.5608,1.9342-5.0252,3.8733-1.3762,1.8245-2.4017,4.0545-3.1006,6.1199-.9921,2.9002-1.2354,5.7002-.6845,7.8992.0209.0747.0652.1407.1264.1884L68.397,84.24c-.0505-.0205-.0953-.0529-.1306-.0944-.0353-.0416-.06-.091-.0721-.1441-.551-2.199-.3077-5.0085.6869-7.8992.694-2.0702,1.7196-4.293,3.1005-6.1199c1.462-1.939,3.3915-2.5591,5.0252-3.8733c1.1305-.9111,2.2038-2.3206,3.0099-3.7206L100.783,26.432c.387-.6765.676-1.4039.861-2.1608.165-.6552.206-1.3355.122-2.0058-.239-1.8675.157-4.2096,1.016-6.7758.976-2.9569,2.55-5.68133,4.624-8.00413.099-.10744.223-.18928.36-.23851.051-.01967.105-.02794.159-.02423s.107.01931.154.0457l3.904,2.26099Z" fill="#ffe100"/><path d="M80.6942,85.5349c-.0469.1412-.0616.2912-.043.4388.0137.1076.0695.2053.1551.2719l-3.8685-2.2228-.0263-.0143c-.0451-.0319-.083-.0731-.1109-.1208-.028-.0477-.0455-.1009-.0513-.1559-.0201-.1476-.0054-.2979.043-.4388l2.4565-7.3793c.0937-.2708.1491-.5533.1646-.8395.3713-.1053.7542-.1646,1.14-.1765c2.0583-.0524,3.2222,1.4143,2.5997,3.2699l-2.4589,7.3673Z" fill="#ffe100"/><path d="M73.2434,85.7138L75.7,78.3584c.6201-1.8627,2.7952-3.4201,4.8511-3.4726s3.2198,1.4144,2.5997,3.2699l-2.459,7.3792c-.0484.1409-.0631.2912-.0429.4389.0062.0551.0241.1083.0525.156s.0666.0888.112.1206c.0473.0264.0999.042.1539.0457s.1081-.0045.1586-.0242c.1376-.0492.2612-.131.3601-.2385c2.078-2.321,3.6562-5.0447,4.6365-8.0017.8562-2.5687,1.2378-4.906,1.016-6.7878-.087-.6695-.0457-1.3494.1216-2.0034.1838-.7576.4728-1.4858.8586-2.1632L108.876,31.1041c.806-1.3952,1.879-2.8095,3.012-3.7206c1.631-1.3141,3.561-1.9319,5.025-3.8709c1.374-1.8221,2.402-4.0545,3.101-6.1175.989-2.9026,1.228-5.7002.677-7.89682-.015-.05068-.041-.09731-.076-.13621-.036-.0389-.08-.06901-.129-.08799-.112-.03044-.231-.01588-.332.04055-.136.06927-.255.16686-.35.2862-.109.13082-.194.27923-.253.43887l-2.454,7.3601c-.62,1.8603-2.796,3.4154-4.854,3.4702s-3.22-1.4143-2.597-3.2698l2.459-7.3578c.047-.1404.062-.28959.043-.43645-.006-.05524-.024-.10854-.052-.15629-.029-.04774-.067-.0888-.113-.12038-.047-.02638-.1-.04199-.154-.0457s-.108.00457-.158.02424c-.138.04923-.261.13106-.36.2385-2.074,2.32278-3.648,5.04728-4.625,8.00408-.856,2.5663-1.25,4.9084-1.016,6.7759.086.6703.045,1.3507-.122,2.0058-.184.7568-.473,1.4841-.858,2.1608v0L83.9211,64.6494c-.8085,1.4-1.8794,2.8095-3.0123,3.7206-1.6313,1.3141-3.5632,1.9342-5.0252,3.8732-1.3785,1.8246-2.4017,4.0546-3.1005,6.12-.9945,2.9002-1.2354,5.7002-.6845,7.8992.0117.0532.0363.1029.0717.1444.0353.0416.0803.0739.131.0941.0558.016.1143.0209.172.0144s.1135-.0244.1643-.0526c.1425-.0696.268-.1698.3673-.2934.1047-.1346.1854-.2863.2385-.4483v-.0072Z" fill="none" stroke="#ffe100" stroke-linejoin="round" stroke-miterlimit="10"/><path d="M85.7157,68.0055l-.0001.0002c-.2773.4808-.6305.8284-.9534,1.0137-.3362.1929-.5452.1662-.6398.1119-.0922-.0529-.2194-.2173-.2194-.6054c0-.3725.1257-.853.4035-1.3347L107.078,27.7533c.279-.4818.632-.8303.955-1.0165.336-.1936.545-.1679.641-.1134.091.052.219.2151.219.6033c0,.3725-.126.8534-.405,1.3349v.0006L85.7157,68.0055Z" fill="none" stroke="#ffe100" stroke-linejoin="round" stroke-miterlimit="10"/><path d="M109.479,18.4349c1.669-.4627,3.208-1.7768,3.711-3.2937l2.454-7.36012c.059-.16015.145-.3087.255-.43884.094-.11977.213-.21747.349-.2862.101-.05633.221-.07087.334-.04055l3.901,2.25384" fill="none" stroke="#ffe100" stroke-linejoin="round" stroke-miterlimit="10"/><path d="M72.3037,86.4938L68.3994,84.24c-.0507-.0202-.0957-.0525-.131-.094-.0354-.0416-.06-.0912-.0717-.1445-.5509-2.199-.3077-5.0085.6845-7.8992.6964-2.0702,1.722-4.293,3.1005-6.1199c1.462-1.939,3.3939-2.5591,5.0252-3.8733c1.1329-.9111,2.2038-2.3206,3.0123-3.7206L100.786,26.432c.385-.6767.674-1.404.858-2.1608.167-.6549.209-1.3355.122-2.0058-.239-1.8675.16-4.2096,1.016-6.7758.976-2.9569,2.55-5.68133,4.624-8.00413.099-.10744.223-.18928.36-.23851.051-.01967.105-.02794.159-.02423s.107.01931.154.0457l3.904,2.25384" fill="none" stroke="#ffe100" stroke-linejoin="round" stroke-miterlimit="10"/><path d="M80.8421,86.2647l-3.9043-2.2419-.0262-.0143c-.0455-.0318-.0837-.0729-.1121-.1206s-.0463-.1009-.0525-.1561c-.0186-.1476-.004-.2976.0429-.4388l2.459-7.3793c.0926-.2711.1479-.5535.1645-.8395" fill="none" stroke="#ffe100" stroke-linejoin="round" stroke-miterlimit="10"/></g><g id="eKSwlD3MxH880" style="mix-blend-mode:multiply" transform="translate(1 0)" opacity="0"><path d="M86.5012,70.7394c-.6812-1.8305-1.7153-3.0925-3.1538-3.5263-.4739-.1236-.8793-.4303-1.1272-.8527-.2888-.5126-.436-1.0928-.4264-1.681v-34.8483c.0095-1.5515.3294-3.0854.941-4.5113.9557-2.1834,2.6686-4.4354,3.046-6.6751.321-1.8312.1563-3.7145-.4779-5.4621-.5121-1.4433-1.3821-2.4946-2.5215-3.0827-.5321-.27102-1.1093-.44212-1.7031-.50481-.1303.00447-.2561.04896-.3602.12743-.1343.09786-.249.22005-.3382.36018-.0939.1439-.162.3032-.2009.4705-.0371.1389-.0371.2851,0,.424l1.9604,5.244c.49,1.3281-.8945,4.1658-3.1048,6.3467s-4.4109,2.8646-4.901,1.534l-.8944-2.4064-1.0561-2.8352c-.0282-.0786-.0863-.1429-.1618-.1788-.0207-.0114-.043-.0196-.0661-.0245-.1216-.0201-.2463.0052-.3504.071-.1398.0807-.2609.1901-.3554.321-.1087.1385-.1917.2954-.245.4632-.7989,2.9626-.7989,5.7096,0,7.7533.6812,1.8305,1.7276,3.0949,3.1538,3.5262.4739.1236.8793.4304,1.1272.8528.2899.5121.4372,1.0926.4264,1.681v34.8605c-.0098,1.5504-.3289,3.0833-.9386,4.5089-.9532,2.1882-2.6661,4.4378-3.041,6.6751-.3212,1.8319-.1564,3.7161.4778,5.4645.4901,1.3747,1.3012,2.3941,2.3623,2.9945.575.3216,1.2095.5226,1.8648.5906.1313-.0076.2571-.0556.3602-.1373.1322-.0996.2451-.2225.3333-.3626.0913-.1433.1584-.3006.1985-.4656.0358-.1374.0358-.2817,0-.4191l-1.9604-5.244c-.4901-1.3306.892-4.1658,3.1023-6.3492.54-.542,1.1355-1.0257,1.7766-1.4433c1.5046-.9581,2.7568-1.0537,3.117-.0882l1.9604,5.244c.0272.07.0773.1287.1421.1666.027.0146.0558.0254.0858.0319.1215.0201.2462-.0052.3504-.0711.1387-.0821.2596-.1912.3553-.321.1085-.1377.1915-.2937.245-.4607.7965-2.9626.7965-5.712-.0024-7.7606Zm-6.0943-3.5875c-.0297.5747-.1945,1.1342-.481,1.6333-.2866.499-.6868.9234-1.1682,1.2386-.914.5269-1.6541.0981-1.6541-.9556v-38.2079c.0312-.5735.1972-1.1316.4846-1.629s.6881-.9198,1.1695-1.2331c.9116-.5269,1.6516-.1005,1.6516.9532l-.0024,38.2005Z" fill="#fff"/><path d="M80.4069,28.9514v38.2079c-.0308.5734-.1962,1.1315-.4827,1.6291-.2865.4977-.6861.9209-1.1665,1.2355-.914.5268-1.6541.098-1.6541-.9557v-38.2079c.0312-.5735.1972-1.1316.4846-1.629s.6881-.9198,1.1695-1.2331c.9091-.5269,1.6492-.1005,1.6492.9532Z" fill="#fff"/><path d="M85.472,79.3161l-4.0187-2.3108c-.0631-.0393-.112-.0977-.1397-.1666L80.255,73.9986c1.5046-.9582,2.7568-1.0537,3.117-.0883l1.9604,5.2441c.0275.0677.0766.1246.1396.1617v0Z" fill="#2ab2ff"/><path d="M75.7166,33.3305v34.8555c-.0097,1.5505-.3288,3.0834-.9385,4.5089-.9533,2.1883-2.6661,4.4378-3.0411,6.6751-.3211,1.832-.1564,3.7161.4779,5.4646.4901,1.3747,1.3012,2.3941,2.3622,2.9944l-4.1658-2.4039c-1.0476-.6851-1.8266-1.7108-2.2054-2.9038-.6343-1.7484-.799-3.6326-.4778-5.4645.3749-2.2373,2.0878-4.4869,3.041-6.6751.6097-1.4256.9288-2.9585.9385-4.5089v-34.858c.0109-.5884-.1364-1.169-.4264-1.6811-.2478-.4224-.6533-.7291-1.1272-.8527-1.4261-.4313-2.4725-1.6958-3.1537-3.5263-.7989-2.0437-.7989-4.7907,0-7.7533.0533-.1678.1363-.3247.245-.4631.0944-.1309.2155-.2403.3553-.321.1042-.0659.2289-.0912.3505-.0711.0239.0047.047.013.0686.0245l4.0089,2.3157c-.0207-.0113-.043-.0196-.0661-.0245-.1216-.0201-.2463.0052-.3504.0711-.1398.0807-.2609.1901-.3554.321-.1087.1384-.1917.2953-.245.4631-.7989,2.9626-.7989,5.7096,0,7.7533.6812,1.8305,1.7276,3.095,3.1538,3.5263.4739.1236.8793.4303,1.1272.8527.2891.5124.4355,1.0929.4239,1.6811v0Z" fill="#2ab2ff"/><path d="M82.1321,16.2285c.4901,1.3282-.8945,4.1658-3.1048,6.3468s-4.4108,2.8646-4.9009,1.534l-.8945-2.4064c.6443-.4164,1.2423-.9002,1.784-1.4433c2.2054-2.1761,3.5997-5.0186,3.1047-6.3468L76.1602,8.66881c-.0371-.13888-.0371-.28506,0-.42394.039-.16736.107-.32661.201-.47049.0892-.14017.2039-.26235.3382-.36022.1043-.08518.233-.13495.3675-.14213.5986.06473,1.18.23917,1.7154.5146l3.9869,2.30587c-.5321-.27098-1.1093-.44208-1.7031-.50477-.1269.00905-.2481.056-.348.13478-.1342.09787-.2489.22005-.3381.36019-.094.1439-.162.3032-.201.4705-.0371.1389-.0371.2851,0,.424l1.9531,5.2513Z" fill="#2ab2ff"/><path d="M77.3291,87.035l-1.9604-5.244c-.4901-1.3306.892-4.1658,3.1023-6.3492c2.2103-2.1833,4.4109-2.8621,4.9009-1.5315l1.9604,5.244c.0186.0494.0492.0934.0889.128.0398.0346.0876.0589.139.0705.1216.0201.2463-.0052.3504-.0711.1388-.0821.2596-.1912.3554-.321.1085-.1377.1914-.2937.245-.4607.7989-2.9626.7989-5.712,0-7.7533-.6812-1.8305-1.7153-3.0925-3.1538-3.5262-.4739-.1236-.8793-.4303-1.1272-.8528-.2888-.5125-.436-1.0927-.4264-1.681v-34.8556c.0095-1.5515.3295-3.0854.941-4.5113.9557-2.1834,2.6686-4.4354,3.046-6.6751.3211-1.8312.1563-3.7145-.4779-5.4621-.7351-2.0952-2.2422-3.36696-4.2246-3.58751-.1337.00244-.2632.04704-.37.12743-.1343.09786-.249.22005-.3382.36018-.0939.1439-.162.3032-.2009.4705-.0371.1389-.0371.2851,0,.424l1.9604,5.244c.49,1.3281-.8945,4.1658-3.1048,6.3467s-4.3986,2.8646-4.901,1.534l-1.9603-5.244c-.0181-.0502-.0485-.095-.0882-.1305-.0398-.0356-.0878-.0606-.1397-.0729-.1216-.0201-.2463.0052-.3504.0711-.1398.0807-.2609.1901-.3554.321-.1087.1384-.1917.2953-.245.4631-.7989,2.9626-.7989,5.7096,0,7.7533.6812,1.8305,1.7276,3.095,3.1538,3.5263.4739.1236.8793.4303,1.1272.8527.29.5121.4372,1.0927.4264,1.6811v34.8629c-.0098,1.5504-.3289,3.0833-.9386,4.5089-.9532,2.1882-2.6661,4.4378-3.041,6.6751-.3173,1.833-.1483,3.7172.4901,5.4645.7351,2.0952,2.2422,3.367,4.227,3.5851.1314-.0076.2572-.0556.3603-.1373.1321-.0996.2451-.2225.3332-.3626.0914-.1433.1584-.3006.1985-.4656.0358-.1374.0358-.2817,0-.4191h-.0024Z" fill="none" stroke="#2ab2ff" stroke-linejoin="round" stroke-miterlimit="10"/><path d="M79.9044,28.9514v38.1938c-.0286.4907-.1713.9679-.4168,1.3938-.2453.4254-.5863.7876-.9959,1.0581-.3618.2038-.5717.1601-.6598.109-.0893-.0518-.2331-.2151-.2331-.638v-38.1937c.0286-.4905.1716-.9675.4174-1.3929.2454-.4245.5864-.7859.9958-1.0554.3615-.2.5725-.1578.6614-.1067.0877.0503.231.2097.231.632Z" fill="none" stroke="#2ab2ff" stroke-linejoin="round" stroke-miterlimit="10"/><path d="M85.472,79.3161l-4.0187-2.3108c-.0632-.0398-.1128-.098-.1422-.1667L80.255,73.9985" fill="none" stroke="#2ab2ff" stroke-linejoin="round" stroke-miterlimit="10"/><path d="M74.7414,87.927L70.409,85.4251c-1.0469-.6858-1.8257-1.7113-2.2055-2.9038-.6342-1.7484-.799-3.6326-.4778-5.4646.3749-2.2373,2.0878-4.4868,3.041-6.6751.6098-1.4255.9288-2.9584.9386-4.5088v-34.8581c.0108-.5884-.1364-1.1689-.4264-1.681-.2479-.4224-.6533-.7291-1.1272-.8528-1.4262-.4313-2.4726-1.6957-3.1538-3.5262-.7988-2.0437-.7988-4.7907,0-7.7533.0533-.1678.1363-.3247.2451-.4632.0944-.1309.2155-.2403.3553-.321.1041-.0658.2288-.0911.3504-.071.0241.004.0474.0123.0686.0245l4.0114,2.3157" fill="none" stroke="#2ab2ff" stroke-linejoin="round" stroke-miterlimit="10"/><path d="M82.7814,10.0999L78.7945,7.79399c-.54-.27679-1.1266-.45126-1.7301-.5146-.1311.00658-.2569.05367-.3602.13478-.1342.09786-.249.22005-.3382.36021-.0939.14389-.1619.30313-.2009.4705-.0371.13887-.0371.28506,0,.42393l1.9604,5.24399c.4901,1.3282-.8944,4.1658-3.1048,6.3468-.5395.5425-1.135,1.0263-1.7766,1.4433" fill="none" stroke="#2ab2ff" stroke-linejoin="round" stroke-miterlimit="10"/></g><g id="eKSwlD3MxH891" style="mix-blend-mode:multiply" transform="translate(2 1)" opacity="0"><path d="M86.4021,70.5393c-.4273-.8611-1.0901-1.5834-1.9114-2.083l-.1054-.0612c-.8351-.4514-1.7798-.6602-2.7274-.6028-1.8427.0465-3.7271.6812-5.5184,1.98-.5029.4047-1.0884.6941-1.7154.8478-.4938.1245-1.016.0662-1.4702-.1642l-4.0115-2.3157L51.6053,58.1398c-.4618-.272-.8588-.6414-1.1634-1.0823s-.5098-.9429-.6009-1.471c-.3309-1.7448.1102-4.2884-.8626-5.4646-.2791-.3347-.6171-.6154-.9974-.8283-.8793-.4577-1.8647-.6725-2.8548-.6224-2.0731.0221-4.4402,1.1027-6.6775,3.0508-.1321.1214-.2409.2659-.321.4264-.0746.1478-.1212.3082-.1372.473-.0156.1291.0111.2597.0759.3724.028.0448.0667.0819.1127.1079.0461.0247.0973.0381.1495.0392l2.475-.0637l2.8107-.0736c1.338-.0367,1.6051,2.3893.5979,5.4107s-2.8989,5.4964-4.2344,5.5234l-5.2857.1347c-.1358.0164-.2638.0727-.3676.1618-.2639.2194-.4439.5232-.5097.8601-.0292.1364-.019.2784.0294.4092.4228.8819,1.1017,1.6159,1.948,2.1059.8464.4901,1.8209.7135,2.7962.6411c1.9951-.073,3.9186-.7622,5.5062-1.9726.5032-.4048,1.0885-.6949,1.7153-.8503.4979-.1256,1.0243-.0673,1.4826.1641L64.6075,75.597l4.0066,2.3157c.4616.2729.8584.6428,1.1631,1.084s.5097.9435.6012,1.4719c.3308,1.7447-.1127,4.2908.8626,5.4621.2645.3176.5821.5871.9385.7964h.0123c.8904.4775,1.8948.7013,2.9038.6469c2.0706-.0171,4.4378-1.0953,6.6751-3.041.1275-.1203.2328-.2622.3112-.419.0769-.1532.1243-.3195.1397-.4901.0148-.131-.0127-.2632-.0785-.3774-.0294-.0443-.0695-.0806-.1166-.1054s-.0997-.0375-.1529-.0367l-5.2857.1372c-.8405.0245-1.2595-.9263-1.2032-2.3892.0636-1.0302.2681-2.0468.6077-3.0215c1.0096-3.0239,2.9112-5.5013,4.2443-5.5331l5.3028-.1471c.1358-.0163.2638-.0726.3676-.1617.133-.1057.2452-.2354.3308-.3823.0875-.1474.1481-.3092.1789-.4778.0302-.1288.0251-.2635-.0147-.3896v0ZM72.9784,75.4574c-.6445,1.1174-1.6933,1.7153-2.3378,1.3502L47.2435,63.2981c-.647-.3725-.647-1.5806,0-2.6955.6469-1.115,1.6908-1.7154,2.3377-1.3502l23.3972,13.507c.6469.3725.6469,1.5805,0,2.698Z" fill="#fff"/><path d="M72.9783,75.4574c-.6444,1.1174-1.6932,1.7153-2.3377,1.3502L47.2434,63.2981c-.6469-.3725-.6469-1.5806,0-2.6955.647-1.115,1.6909-1.7154,2.3378-1.3502l23.3971,13.507c.647.3725.647,1.5806,0,2.698Z" fill="#fff"/><path d="M44.222,58.4045c-1.0096,3.0239-2.9087,5.5062-4.2442,5.5331l-5.2857.1348c-.1358.0164-.2638.0726-.3676.1618-.2639.2194-.4439.5232-.5097.8601-.0292.1364-.019.2783.0294.4092.4265.8609,1.0884,1.5832,1.909,2.0829l-3.9355-2.2716c-.415-.2357-.7911-.534-1.115-.8846-.3464-.3716-.6392-.7898-.8699-1.2424-.0484-.1309-.0586-.2728-.0294-.4092.0658-.3369.2458-.6407.5097-.8601.1038-.0892.2317-.1454.3676-.1618l5.2856-.1348c1.3307-.0294,3.2347-2.5092,4.2443-5.5331.343-.974.5492-1.9908.6126-3.0215l2.8107-.0735c1.3281-.0367,1.6001,2.3892.5881,5.4107Z" fill="#ffe100"/><path d="M40.8232,53.0404c.0011.0086.0011.0174,0,.026" fill="none" stroke="#ffe100" stroke-linejoin="round" stroke-miterlimit="10"/><path d="M47.9737,49.2936c-.8793-.4577-1.8648-.6726-2.8548-.6224-2.0731.022-4.4403,1.1027-6.6776,3.0508-.1295.122-.2358.2665-.3137.4264-.0746.1478-.1211.3082-.1372.4729-.0155.1291.0112.2598.076.3725.028.0448.0667.0819.1127.1078l-4.0016-2.3083c-.046-.026-.0848-.063-.1127-.1078-.0637-.1132-.0903-.2435-.076-.3725.0161-.1648.0626-.3252.1372-.4729.076-.1557.1788-.2967.3039-.4166c2.2373-1.9482,4.6044-3.0288,6.6775-3.0509.989-.0497,1.9733.1642,2.8524.62v0l4.0139,2.301Z" fill="#ffe100"/><path d="M38.1952,53.096l-.0063-.0042" fill="none" stroke="#ffe100" stroke-linejoin="round" stroke-miterlimit="10"/><path d="M72.1893,86.7295l-4.0017-2.3058c-.3603-.212-.6812-.4847-.9483-.8063-.9802-1.1713-.5318-3.7173-.8626-5.4621-.0914-.5277-.296-1.0295-.5997-1.4707s-.6993-.8114-1.1597-1.0851l4.0065,2.3157c.4616.2728.8585.6427,1.1631,1.084s.5098.9435.6012,1.4718c.3309,1.7448-.1127,4.2908.8626,5.4621.2646.3177.5821.5871.9386.7964v0Z" fill="#ffe100"/><path d="M84.3853,68.3951c-.8351-.4514-1.7798-.6602-2.7274-.6028-1.8427.0465-3.7271.6812-5.5184,1.9799-.5029.4048-1.0884.6942-1.7154.8479-.4938.1245-1.016.0662-1.4703-.1642l-4.0114-2.3157c.4579.2328.9848.2911,1.4825.1642.6266-.1547,1.212-.444,1.7154-.8479c1.7888-1.2987,3.6757-1.9334,5.516-1.9799.9895-.0626,1.9756.1675,2.8352.6616l3.8938,2.2569Z" fill="#ffe100"/><path d="M75.3969,80.672l2.4775-.0637c.0678-.0004.134.0211.1886.0612l3.9576,2.2839c-.0421-.0201-.0882-.0302-.1348-.0294v0l-5.2857.1372c-.843.0245-1.2595-.9263-1.2032-2.3892v0Z" fill="#ffe100"/><path d="M81.8858,82.924l-5.2856.1372c-1.338.0392-1.6051-2.3868-.5955-5.4107s2.9112-5.5013,4.2442-5.5332l5.3029-.147c.1358-.0163.2637-.0726.3675-.1617.1323-.1059.2437-.2355.3284-.3823.0893-.1468.1507-.3088.1813-.4778.0293-.1365.0191-.2784-.0294-.4093-.4223-.8817-1.1007-1.6155-1.9467-2.1056-.8459-.4901-1.82-.7136-2.795-.6413-1.9988.0794-3.925.7706-5.5184,1.9799-.5031.4044-1.0886.6937-1.7154.8479-.4977.1269-1.0246.0686-1.4825-.1642L51.6053,58.1398c-.4618-.2721-.8588-.6414-1.1634-1.0823s-.5098-.9429-.601-1.4711c-.3308-1.7447.1103-4.2883-.8625-5.4645-.9165-1.1027-2.3721-1.4703-3.8522-1.4507-2.0731.022-4.4402,1.1027-6.68,3.0508-.1307.1221-.2386.2664-.3185.4264-.0757.1474-.1223.3079-.1373.4729-.0155.1291.0112.2598.076.3725.0274.045.0659.0822.1118.1079.046.0258.0978.0392.1504.0391l5.2857-.1372c1.338-.0367,1.6051,2.3892.5955,5.4107s-2.8965,5.4964-4.2345,5.5233l-5.2832.1348c-.1358.0164-.2638.0727-.3676.1618-.2639.2194-.4439.5232-.5097.8601-.0285.1363-.0192.2778.027.4092.4237.8817,1.1031,1.6153,1.9498,2.1053.8466.49,1.8212.7136,2.7968.6417c1.9951-.0731,3.9186-.7622,5.5062-1.9727.5032-.4047,1.0885-.6949,1.7153-.8503.4978-.1255,1.0243-.0672,1.4826.1642v0L68.6116,77.9152c.4616.2726.8583.6424,1.1626,1.0838.3042.4413.5087.9437.5993,1.472.3308,1.7448-.1103,4.2908.865,5.4621.9165,1.1052,2.3696,1.4703,3.8522,1.4507c2.0731-.0171,4.4402-1.0953,6.6775-3.041.1275-.1198.2321-.2618.3088-.4191.0792-.1522.1267-.3189.1397-.4901.0166-.1307-.0101-.2632-.076-.3773-.0295-.0444-.0696-.0806-.1167-.1054s-.0996-.0375-.1529-.0368l.0147.0099Z" fill="none" stroke="#ffe100" stroke-linejoin="round" stroke-miterlimit="10"/><path d="M47.4934,62.8675v0l-.0018-.001c-.1016-.0581-.2327-.2321-.2325-.6322.0003-.3851.1308-.8814.4177-1.3799.2863-.4975.6505-.8583.9845-1.0511.3466-.2.5662-.175.6702-.1153c0,0,.0001.0001.0002.0001l23.3952,13.501c.0002.0001.0004.0002.0005.0003.1025.06.2349.2409.2352.6454.0002.3886-.13.8842-.4158,1.3724-.2879.4918-.6537.8543-.9896,1.0496-.3503.2037-.5672.1777-.6665.1203l-.0001-.0001L47.4934,62.8675Z" fill="none" stroke="#ffe100" stroke-linejoin="round" stroke-miterlimit="10"/><path d="M35.7531,67.5864l-3.9354-2.2716c-.8558-.4992-1.546-1.2388-1.9849-2.127-.0485-.1308-.0587-.2728-.0294-.4092.0657-.3369.2458-.6407.5097-.8601.1038-.0891.2317-.1454.3675-.1617l5.2857-.1348c1.3306-.0294,3.2346-2.5093,4.2442-5.5332.3461-.9824.5523-2.0086.6127-3.0484" fill="none" stroke="#ffe100" stroke-linejoin="round" stroke-miterlimit="10"/><path d="M47.9736,49.2936l-4.0114-2.3181c-.8782-.4558-1.8618-.6698-2.8499-.62-2.0731.022-4.4403,1.1027-6.6776,3.0508-.125.1199-.2279.2609-.3038.4166-.0746.1478-.1212.3082-.1372.473-.0156.1291.0111.2597.0759.3724.028.0448.0667.0819.1127.1078v0l4.0115,2.3133" fill="none" stroke="#ffe100" stroke-linejoin="round" stroke-miterlimit="10"/><path d="M82.0206,82.9534l-3.9502-2.2839c-.0547-.0401-.1209-.0616-.1887-.0612v0l-2.4774.0637" fill="none" stroke="#ffe100" stroke-linejoin="round" stroke-miterlimit="10"/><path d="M72.2015,86.7369l-4.0114-2.3132c-.3608-.2113-.6818-.4842-.9483-.8062-.9802-1.1714-.5318-3.7174-.8626-5.4622-.0914-.529-.2968-1.0318-.6019-1.4735s-.7025-.8119-1.1649-1.0848" fill="none" stroke="#ffe100" stroke-linejoin="round" stroke-miterlimit="10"/><path d="M84.4907,68.4563l-4.009-2.3181c-.8596-.4941-1.8457-.7242-2.8352-.6616-1.8428.0465-3.7272.6812-5.5185,1.9799-.5028.4048-1.0884.6942-1.7153.8479-.4938.1245-1.0161.0662-1.4703-.1642" fill="none" stroke="#ffe100" stroke-linejoin="round" stroke-miterlimit="10"/></g></svg>