<svg width="672" height="1126" viewBox="0 0 338 563" fill="none" xmlns="http://www.w3.org/2000/svg">
<path d="M169.248 234.093L39.9725 308.172L39.9725 351.748L169.248 277.669L169.248 234.093Z" fill="#FF2A50"/>
<g opacity="0.4">
<path d="M169.248 308.172L298.524 382.252L298.524 425.828L169.248 351.748L169.248 308.172Z" fill="#FF2A50"/>
</g>
<path d="M298.202 382.252L168.926 456.331L168.926 499.907L298.202 425.828L298.202 382.252Z" fill="#FF2A50"/>
<path d="M298.202 308.172L168.926 382.252L168.926 425.828L298.202 351.748L298.202 308.172Z" fill="#FF2A50"/>
<path d="M169.248 308.172L39.9725 382.252L39.9725 425.828L169.248 351.748L169.248 308.172Z" fill="#FF2A50"/>
<g opacity="0.4">
<path d="M39.9723 382.252L169.248 456.331L169.248 499.907L39.9723 425.828L39.9723 382.252Z" fill="#FF2A50"/>
</g>
<g opacity="0.4">
<path d="M39.9723 308.172L169.248 382.252L169.248 425.828L39.9723 351.748L39.9723 308.172Z" fill="#FF2A50"/>
</g>
<g opacity="0.4">
<path d="M169.248 234.093L298.524 308.172L298.524 351.748L169.248 277.669L169.248 234.093Z" fill="#FF2A50"/>
</g>
<path d="M151.912 547V540.02H154.452C155.098 540.02 155.592 540.197 155.932 540.55C156.272 540.903 156.442 541.397 156.442 542.03C156.442 542.663 156.272 543.157 155.932 543.51C155.592 543.863 155.098 544.04 154.452 544.04H152.752V547H151.912ZM152.752 543.31H154.432C154.785 543.31 155.058 543.223 155.252 543.05C155.452 542.87 155.552 542.617 155.552 542.29V541.77C155.552 541.443 155.452 541.193 155.252 541.02C155.058 540.84 154.785 540.75 154.432 540.75H152.752V543.31ZM157.908 547V540.02H162.208V540.75H158.748V543.1H162.088V543.83H158.748V546.27H162.208V547H157.908ZM166.004 547.12C165.577 547.12 165.211 547.04 164.904 546.88C164.597 546.713 164.344 546.477 164.144 546.17C163.944 545.863 163.797 545.487 163.704 545.04C163.611 544.593 163.564 544.083 163.564 543.51C163.564 542.943 163.611 542.437 163.704 541.99C163.797 541.537 163.944 541.157 164.144 540.85C164.344 540.543 164.597 540.31 164.904 540.15C165.211 539.983 165.577 539.9 166.004 539.9C166.431 539.9 166.797 539.983 167.104 540.15C167.411 540.31 167.664 540.543 167.864 540.85C168.064 541.157 168.211 541.537 168.304 541.99C168.397 542.437 168.444 542.943 168.444 543.51C168.444 544.083 168.397 544.593 168.304 545.04C168.211 545.487 168.064 545.863 167.864 546.17C167.664 546.477 167.411 546.713 167.104 546.88C166.797 547.04 166.431 547.12 166.004 547.12ZM166.004 546.39C166.284 546.39 166.521 546.337 166.714 546.23C166.907 546.117 167.067 545.96 167.194 545.76C167.321 545.56 167.411 545.32 167.464 545.04C167.524 544.753 167.554 544.433 167.554 544.08V542.94C167.554 542.593 167.524 542.277 167.464 541.99C167.411 541.703 167.321 541.46 167.194 541.26C167.067 541.06 166.907 540.907 166.714 540.8C166.521 540.687 166.284 540.63 166.004 540.63C165.724 540.63 165.487 540.687 165.294 540.8C165.101 540.907 164.941 541.06 164.814 541.26C164.687 541.46 164.594 541.703 164.534 541.99C164.481 542.277 164.454 542.593 164.454 542.94V544.08C164.454 544.433 164.481 544.753 164.534 545.04C164.594 545.32 164.687 545.56 164.814 545.76C164.941 545.96 165.101 546.117 165.294 546.23C165.487 546.337 165.724 546.39 166.004 546.39ZM169.9 547V540.02H172.44C173.087 540.02 173.58 540.197 173.92 540.55C174.26 540.903 174.43 541.397 174.43 542.03C174.43 542.663 174.26 543.157 173.92 543.51C173.58 543.863 173.087 544.04 172.44 544.04H170.74V547H169.9ZM170.74 543.31H172.42C172.773 543.31 173.047 543.223 173.24 543.05C173.44 542.87 173.54 542.617 173.54 542.29V541.77C173.54 541.443 173.44 541.193 173.24 541.02C173.047 540.84 172.773 540.75 172.42 540.75H170.74V543.31ZM176.196 547V540.02H177.036V546.27H180.346V547H176.196ZM181.892 547V540.02H186.192V540.75H182.732V543.1H186.072V543.83H182.732V546.27H186.192V547H181.892Z" fill="black"/>
<path d="M26.9917 473.12C26.3651 473.12 25.8517 473.007 25.4517 472.78C25.0517 472.547 24.7217 472.25 24.4617 471.89L25.0717 471.39C25.3451 471.73 25.6317 471.983 25.9317 472.15C26.2384 472.317 26.6017 472.4 27.0217 472.4C27.5284 472.4 27.9151 472.283 28.1817 472.05C28.4484 471.817 28.5817 471.49 28.5817 471.07C28.5817 470.73 28.4851 470.467 28.2917 470.28C28.0984 470.087 27.7617 469.95 27.2817 469.87L26.5017 469.74C26.1617 469.68 25.8751 469.59 25.6417 469.47C25.4151 469.35 25.2317 469.207 25.0917 469.04C24.9517 468.867 24.8517 468.68 24.7917 468.48C24.7317 468.273 24.7017 468.06 24.7017 467.84C24.7017 467.2 24.9117 466.717 25.3317 466.39C25.7517 466.063 26.3184 465.9 27.0317 465.9C27.5917 465.9 28.0617 465.993 28.4417 466.18C28.8284 466.367 29.1384 466.63 29.3717 466.97L28.7817 467.48C28.5884 467.227 28.3551 467.02 28.0817 466.86C27.8084 466.7 27.4551 466.62 27.0217 466.62C26.5484 466.62 26.1851 466.72 25.9317 466.92C25.6784 467.12 25.5517 467.42 25.5517 467.82C25.5517 468.133 25.6451 468.39 25.8317 468.59C26.0251 468.783 26.3684 468.923 26.8617 469.01L27.6117 469.14C27.9517 469.2 28.2384 469.29 28.4717 469.41C28.7051 469.53 28.8917 469.673 29.0317 469.84C29.1784 470.007 29.2817 470.193 29.3417 470.4C29.4017 470.607 29.4317 470.823 29.4317 471.05C29.4317 471.697 29.2184 472.203 28.7917 472.57C28.3717 472.937 27.7717 473.12 26.9917 473.12ZM32.6978 469.58L31.6978 470.76V473H30.8578V466.02H31.6978V469.66H31.7278L32.6478 468.5L34.7078 466.02H35.7178L33.2678 468.96L35.7878 473H34.8078L32.6978 469.58ZM36.8439 473V472.33H38.5839V466.69H36.8439V466.02H41.1639V466.69H39.4239V472.33H41.1639V473H36.8439ZM43.2 473V466.02H44.04V472.27H47.35V473H43.2ZM49.1961 473V466.02H50.0361V472.27H53.3461V473H49.1961ZM56.9722 473.12C56.3455 473.12 55.8322 473.007 55.4322 472.78C55.0322 472.547 54.7022 472.25 54.4422 471.89L55.0522 471.39C55.3255 471.73 55.6122 471.983 55.9122 472.15C56.2189 472.317 56.5822 472.4 57.0022 472.4C57.5089 472.4 57.8955 472.283 58.1622 472.05C58.4289 471.817 58.5622 471.49 58.5622 471.07C58.5622 470.73 58.4655 470.467 58.2722 470.28C58.0789 470.087 57.7422 469.95 57.2622 469.87L56.4822 469.74C56.1422 469.68 55.8555 469.59 55.6222 469.47C55.3955 469.35 55.2122 469.207 55.0722 469.04C54.9322 468.867 54.8322 468.68 54.7722 468.48C54.7122 468.273 54.6822 468.06 54.6822 467.84C54.6822 467.2 54.8922 466.717 55.3122 466.39C55.7322 466.063 56.2989 465.9 57.0122 465.9C57.5722 465.9 58.0422 465.993 58.4222 466.18C58.8089 466.367 59.1189 466.63 59.3522 466.97L58.7622 467.48C58.5689 467.227 58.3355 467.02 58.0622 466.86C57.7889 466.7 57.4355 466.62 57.0022 466.62C56.5289 466.62 56.1655 466.72 55.9122 466.92C55.6589 467.12 55.5322 467.42 55.5322 467.82C55.5322 468.133 55.6255 468.39 55.8122 468.59C56.0055 468.783 56.3489 468.923 56.8422 469.01L57.5922 469.14C57.9322 469.2 58.2189 469.29 58.4522 469.41C58.6855 469.53 58.8722 469.673 59.0122 469.84C59.1589 470.007 59.2622 470.193 59.3222 470.4C59.3822 470.607 59.4122 470.823 59.4122 471.05C59.4122 471.697 59.1989 472.203 58.7722 472.57C58.3522 472.937 57.7522 473.12 56.9722 473.12Z" fill="black"/>
<path d="M289.428 466.75V473H288.588V466.75H286.258V466.02H291.758V466.75H289.428ZM292.904 473V466.02H297.204V466.75H293.744V469.1H297.084V469.83H293.744V472.27H297.204V473H292.904ZM301.23 473.12C300.377 473.12 299.74 472.81 299.32 472.19C298.907 471.57 298.7 470.677 298.7 469.51C298.7 468.343 298.907 467.45 299.32 466.83C299.74 466.21 300.377 465.9 301.23 465.9C301.55 465.9 301.827 465.943 302.06 466.03C302.293 466.117 302.493 466.233 302.66 466.38C302.827 466.527 302.967 466.693 303.08 466.88C303.193 467.06 303.293 467.243 303.38 467.43L302.66 467.76C302.6 467.607 302.53 467.463 302.45 467.33C302.37 467.19 302.273 467.07 302.16 466.97C302.053 466.863 301.923 466.78 301.77 466.72C301.623 466.66 301.443 466.63 301.23 466.63C300.677 466.63 300.263 466.84 299.99 467.26C299.723 467.68 299.59 468.24 299.59 468.94V470.08C299.59 470.78 299.723 471.34 299.99 471.76C300.263 472.18 300.677 472.39 301.23 472.39C301.443 472.39 301.623 472.36 301.77 472.3C301.923 472.24 302.053 472.16 302.16 472.06C302.273 471.953 302.37 471.833 302.45 471.7C302.53 471.56 302.6 471.413 302.66 471.26L303.38 471.59C303.293 471.783 303.193 471.97 303.08 472.15C302.967 472.33 302.827 472.493 302.66 472.64C302.493 472.787 302.293 472.903 302.06 472.99C301.827 473.077 301.55 473.12 301.23 473.12ZM308.356 469.83H305.636V473H304.796V466.02H305.636V469.1H308.356V466.02H309.196V473H308.356V469.83Z" fill="black"/>
<path d="M40.25 160L40.25 426" stroke="black" stroke-width="0.5" stroke-dasharray="2 2"/>
<line x1="298.25" y1="160" x2="298.25" y2="425" stroke="black" stroke-width="0.5" stroke-dasharray="2 2"/>
<line x1="169.25" y1="234" x2="169.25" y2="496" stroke="black" stroke-width="0.5" stroke-dasharray="2 2"/>
<rect y="0.499967" width="148.212" height="148.212" transform="matrix(0.866044 0.499967 -0.866044 0.499967 169.657 277.675)" stroke="black"/>
<rect y="0.499967" width="148.212" height="148.212" transform="matrix(0.866044 0.499967 -0.866044 0.499967 169.657 202.462)" stroke="black"/>
<rect y="0.499967" width="148.212" height="148.212" transform="matrix(0.866044 0.499967 -0.866044 0.499967 169.657 255.675)" stroke="black" stroke-dasharray="2 2"/>
<rect y="0.499967" width="148.212" height="148.212" transform="matrix(0.866044 0.499967 -0.866044 0.499967 169.657 180.462)" stroke="black" stroke-dasharray="2 2"/>
<rect y="0.499967" width="148.212" height="148.212" transform="matrix(0.866044 0.499967 -0.866044 0.499967 169.657 331.871)" stroke="black" stroke-dasharray="2 2"/>
<rect y="0.499967" width="148.212" height="148.212" transform="matrix(0.866044 0.499967 -0.866044 0.499967 169.657 351.25)" stroke="black"/>
<rect y="0.499967" width="148.212" height="148.212" transform="matrix(0.866044 0.499967 -0.866044 0.499967 169.657 307.777)" stroke="black"/>
<rect y="0.499967" width="148.212" height="148.212" transform="matrix(0.866044 0.499967 -0.866044 0.499967 169.657 233.463)" stroke="black"/>
<rect y="0.499967" width="148.212" height="148.212" transform="matrix(0.866044 0.499967 -0.866044 0.499967 169.657 158.25)" stroke="black"/>
<rect y="0.499967" width="148.212" height="148.212" transform="matrix(0.866044 0.499967 -0.866044 0.499967 169.657 127.462)" stroke="black"/>
<rect y="0.499967" width="148.212" height="148.212" transform="matrix(0.866044 0.499967 -0.866044 0.499967 169.657 105.462)" stroke="black" stroke-dasharray="2 2"/>
<rect y="0.499967" width="148.212" height="148.212" transform="matrix(0.866044 0.499967 -0.866044 0.499967 169.657 85.25)" fill="black" stroke="black"/>
<path d="M140.845 126.844L140.845 53.1429L193.916 61.3328L193.916 134.901L174.411 146.162L147.909 142.062L140.845 126.844Z" fill="white" stroke="black"/>
<path d="M140.95 52.7937L160.351 41.5937L186.852 45.6932L193.811 60.6864L174.411 71.8863L147.909 67.7869L140.95 52.7937Z" fill="#E5E5E5" stroke="black"/>
<path d="M194.453 71.9278L174.635 83.3689L147.562 79.1811L140.308 63.5523" stroke="black" stroke-dasharray="2 2"/>
<path d="M194.453 84.6288L174.635 96.0699L147.562 91.8822L140.308 76.2534" stroke="black" stroke-dasharray="2 2"/>
<path d="M194.453 97.6288L174.635 109.07L147.562 104.882L140.308 89.2534" stroke="black" stroke-dasharray="2 2"/>
<path d="M174.544 146.121L174.544 72.2167" stroke="black"/>
<path d="M147.817 131.154L147.817 67.0095" stroke="black"/>
<path d="M174.152 95.9623L174.152 147.079L126.124 174.806L108.5 136.834L108.5 86.0638L174.152 95.9623Z" fill="white" stroke="black"/>
<path d="M126.239 173.834L126.239 123.418" stroke="black"/>
<path d="M126.124 123.342L108.754 85.9173L173.581 95.9453L126.124 123.342Z" fill="#E5E5E5" stroke="black"/>
<path d="M108.888 106.131L125.807 143.739L174.764 115.476" stroke="black" stroke-dasharray="2 2"/>
<path d="M108.888 128.343L125.807 165.951L174.764 137.688" stroke="black" stroke-dasharray="2 2"/>
<path d="M126.124 123.342L108.754 85.9173L173.581 95.9453L126.124 123.342Z" fill="#E5E5E5" stroke="black"/>
<path d="M237.319 144.648C237.319 148.155 234.853 151.425 230.659 153.846C226.478 156.26 220.67 157.768 214.227 157.768C207.783 157.768 201.975 156.26 197.794 153.846C193.6 151.425 191.134 148.155 191.134 144.648C191.134 141.142 193.6 137.872 197.794 135.451C201.975 133.037 207.783 131.528 214.227 131.528C220.67 131.528 226.478 133.037 230.659 135.451C234.853 137.872 237.319 141.142 237.319 144.648Z" fill="white" stroke="black"/>
<path d="M186.66 90.0236H233.793V145.115H186.66V90.0236Z" fill="white"/>
<path d="M233.319 91.0439C233.319 94.5507 230.853 97.8206 226.659 100.242C222.478 102.655 216.67 104.164 210.227 104.164C203.783 104.164 197.975 102.655 193.794 100.242C189.6 97.8206 187.134 94.5507 187.134 91.0439C187.134 87.5371 189.6 84.2673 193.794 81.8462C197.975 79.4327 203.783 77.924 210.227 77.924C216.67 77.924 222.478 79.4327 226.659 81.8462C230.853 84.2673 233.319 87.5371 233.319 91.0439Z" fill="#E5E5E5" stroke="black"/>
<path opacity="0.5" d="M233 106C233 112.075 222.703 117 210 117C197.297 117 187 112.075 187 106" stroke="black" stroke-dasharray="2 2"/>
<line x1="233.12" y1="144.776" x2="233.12" y2="91.322" stroke="black"/>
<line x1="187.149" y1="144.776" x2="187.149" y2="91.322" stroke="black"/>
<circle cx="298" cy="445" r="9" fill="#D9D9D9"/>
<circle cx="41" cy="445" r="9" fill="#D9D9D9"/>
<path d="M265.843 156.09C265.843 159.597 263.376 162.867 259.182 165.288C255.002 167.702 249.193 169.21 242.75 169.21C236.307 169.21 230.498 167.702 226.318 165.288C222.124 162.867 219.658 159.597 219.658 156.09C219.658 152.584 222.124 149.314 226.318 146.893C230.498 144.479 236.307 142.97 242.75 142.97C249.193 142.97 255.002 144.479 259.182 146.893C263.376 149.314 265.843 152.584 265.843 156.09Z" fill="white" stroke="black"/>
<rect x="219.183" y="133.538" width="47.1337" height="23.0188" fill="white"/>
<path d="M265.843 134.558C265.843 138.065 263.376 141.335 259.182 143.756C255.002 146.17 249.193 147.678 242.75 147.678C236.307 147.678 230.498 146.17 226.318 143.756C222.124 141.335 219.658 138.065 219.658 134.558C219.658 131.052 222.124 127.782 226.318 125.361C230.498 122.947 236.307 121.438 242.75 121.438C249.193 121.438 255.002 122.947 259.182 125.361C263.376 127.782 265.843 131.052 265.843 134.558Z" fill="#E5E5E5" stroke="black"/>
<line x1="265.817" y1="156.557" x2="265.817" y2="133.538" stroke="black"/>
<line x1="219.779" y1="156.557" x2="219.779" y2="133.538" stroke="black"/>
<path opacity="0.5" d="M266 146C266 152.627 255.703 158 243 158C230.297 158 220 152.627 220 146" stroke="black" stroke-dasharray="2 2"/>
<path d="M255.021 131.639C255.437 132.221 255.731 132.84 255.882 133.484L255.395 133.599C255.464 133.894 255.5 134.195 255.5 134.5C255.5 134.805 255.464 135.106 255.395 135.401L255.882 135.516C255.731 136.16 255.437 136.779 255.021 137.361L254.614 137.07C254.269 137.553 253.825 138.015 253.293 138.448L253.609 138.836C253.106 139.245 252.534 139.623 251.902 139.966L251.664 139.526C251.111 139.826 250.508 140.099 249.862 140.339L250.036 140.808C249.417 141.038 248.762 141.239 248.076 141.407L247.957 140.921C247.329 141.075 246.673 141.201 245.996 141.295L246.065 141.79C245.403 141.883 244.722 141.946 244.025 141.977L244.003 141.478C243.672 141.492 243.338 141.5 243 141.5C242.662 141.5 242.328 141.492 241.997 141.478L241.975 141.977C241.278 141.946 240.597 141.883 239.935 141.79L240.004 141.295C239.327 141.201 238.671 141.075 238.043 140.921L237.924 141.407C237.238 141.239 236.583 141.038 235.964 140.808L236.138 140.339C235.492 140.099 234.889 139.826 234.336 139.526L234.098 139.966C233.466 139.623 232.894 139.245 232.391 138.836L232.707 138.448C232.175 138.015 231.731 137.553 231.386 137.07L230.979 137.361C230.563 136.779 230.269 136.16 230.118 135.516L230.605 135.401C230.536 135.106 230.5 134.805 230.5 134.5C230.5 134.195 230.536 133.894 230.605 133.599L230.118 133.484C230.269 132.84 230.563 132.221 230.979 131.639L231.386 131.93C231.731 131.447 232.175 130.985 232.707 130.552L232.391 130.164C232.894 129.755 233.466 129.377 234.098 129.034L234.336 129.474C234.889 129.174 235.492 128.901 236.138 128.661L235.964 128.192C236.583 127.962 237.238 127.761 237.924 127.593L238.043 128.079C238.671 127.925 239.327 127.799 240.004 127.705L239.935 127.21C240.597 127.117 241.278 127.054 241.975 127.023L241.997 127.522C242.328 127.508 242.662 127.5 243 127.5C243.338 127.5 243.672 127.508 244.003 127.522L244.025 127.023C244.722 127.054 245.403 127.117 246.065 127.21L245.996 127.705C246.673 127.799 247.329 127.925 247.957 128.079L248.076 127.593C248.762 127.761 249.417 127.962 250.036 128.192L249.862 128.661C250.508 128.901 251.111 129.174 251.664 129.474L251.902 129.034C252.534 129.377 253.106 129.755 253.609 130.164L253.293 130.552C253.825 130.985 254.269 131.447 254.614 131.93L255.021 131.639Z" fill="#E5E5E5" stroke="black" stroke-dasharray="2 2"/>
<path d="M112.5 156.828C112.5 160.001 110.268 162.969 106.453 165.171C102.651 167.366 97.3653 168.74 91.5 168.74C85.6347 168.74 80.3491 167.366 76.5472 165.171C72.732 162.969 70.5 160.001 70.5 156.828C70.5 153.655 72.732 150.687 76.5472 148.484C80.3491 146.289 85.6347 144.916 91.5 144.916C97.3653 144.916 102.651 146.289 106.453 148.484C110.268 150.687 112.5 153.655 112.5 156.828Z" fill="#E5E5E5" stroke="black"/>
<path d="M70.0234 122.636H112.977V157.253H70.0234V122.636Z" fill="#E5E5E5"/>
<path d="M112.5 123.566C112.5 126.739 110.268 129.707 106.453 131.909C102.651 134.104 97.3653 135.478 91.5 135.478C85.6347 135.478 80.3491 134.104 76.5472 131.909C72.732 129.707 70.5 126.739 70.5 123.566C70.5 120.393 72.732 117.425 76.5472 115.222C80.3491 113.027 85.6347 111.654 91.5 111.654C97.3653 111.654 102.651 113.027 106.453 115.222C110.268 117.425 112.5 120.393 112.5 123.566Z" fill="white" stroke="black"/>
<line x1="112.5" y1="157.3" x2="112.5" y2="124" stroke="black"/>
<line x1="70.5" y1="158" x2="70.5" y2="124" stroke="black"/>
<path opacity="0.5" d="M112 136C112 140.971 102.822 145 91.5 145C80.1782 145 71 140.971 71 136" stroke="black" stroke-dasharray="2 2"/>
<path opacity="0.5" d="M112 149C112 153.971 102.822 158 91.5 158C80.1782 158 71 152.971 71 148" stroke="black" stroke-dasharray="2 2"/>
<path d="M102.115 119.996C102.491 120.503 102.756 121.044 102.893 121.608L102.407 121.726C102.468 121.98 102.5 122.238 102.5 122.5C102.5 122.762 102.468 123.02 102.407 123.274L102.893 123.392C102.756 123.956 102.491 124.497 102.115 125.004L101.713 124.707C101.408 125.121 101.016 125.518 100.544 125.89L100.854 126.282C100.407 126.634 99.8998 126.96 99.3403 127.255L99.1072 126.813C98.6205 127.069 98.0901 127.303 97.5219 127.508L97.692 127.978C97.146 128.176 96.5686 128.348 95.965 128.492L95.849 128.006C95.2974 128.137 94.7223 128.244 94.1279 128.325L94.1952 128.821C93.6132 128.899 93.0141 128.953 92.4014 128.98L92.3795 128.481C92.0894 128.494 91.7961 128.5 91.5 128.5C91.2039 128.5 90.9106 128.494 90.6205 128.481L90.5986 128.98C89.9859 128.953 89.3868 128.899 88.8048 128.821L88.8721 128.325C88.2777 128.244 87.7026 128.137 87.151 128.006L87.035 128.492C86.4314 128.348 85.854 128.176 85.308 127.978L85.4782 127.508C84.9099 127.303 84.3795 127.069 83.8928 126.813L83.6597 127.255C83.1002 126.96 82.5928 126.634 82.1461 126.282L82.4558 125.89C81.9844 125.518 81.5925 125.121 81.2867 124.707L80.8847 125.004C80.5091 124.497 80.2444 123.956 80.1075 123.392L80.5933 123.274C80.5317 123.02 80.5 122.762 80.5 122.5C80.5 122.238 80.5317 121.98 80.5933 121.726L80.1075 121.608C80.2444 121.044 80.5091 120.503 80.8847 119.996L81.2867 120.293C81.5925 119.879 81.9844 119.482 82.4558 119.11L82.1461 118.718C82.5928 118.366 83.1002 118.04 83.6597 117.745L83.8928 118.187C84.3795 117.931 84.9099 117.697 85.4781 117.492L85.308 117.022C85.854 116.824 86.4314 116.652 87.035 116.508L87.151 116.994C87.7026 116.863 88.2777 116.756 88.8721 116.675L88.8048 116.179C89.3868 116.101 89.9859 116.047 90.5986 116.02L90.6205 116.519C90.9106 116.506 91.2039 116.5 91.5 116.5C91.7961 116.5 92.0894 116.506 92.3795 116.519L92.4014 116.02C93.0141 116.047 93.6132 116.101 94.1952 116.179L94.1279 116.675C94.7223 116.756 95.2974 116.863 95.849 116.994L95.965 116.508C96.5686 116.652 97.146 116.824 97.692 117.022L97.5218 117.492C98.0901 117.697 98.6205 117.931 99.1072 118.187L99.3403 117.745C99.8998 118.04 100.407 118.366 100.854 118.718L100.544 119.11C101.016 119.482 101.408 119.879 101.713 120.293L102.115 119.996Z" fill="#E5E5E5" stroke="black" stroke-dasharray="2 2"/>
<path d="M134.616 146.297L134.616 179.363L119.307 188.201L113.658 176.031L113.658 143.137L134.616 146.297Z" fill="white" stroke="black"/>
<path d="M119.306 154.814L113.912 143.191L134.045 146.305L119.306 154.814Z" fill="#E5E5E5" stroke="black"/>
<path d="M113.046 160.87L118.989 173.676L135.228 164.302" stroke="black" stroke-dasharray="2 2"/>
<path d="M119.403 188.403L119.403 154.579" stroke="black"/>
<path d="M186.047 124.474L186.12 124.479L186.194 124.474L220.73 122.067L220.73 160.104L186.12 180.084L151.511 160.104L151.511 122.067L186.047 124.474Z" fill="#E5E5E5" stroke="black"/>
<rect y="0.499967" width="39.6697" height="39.6697" transform="matrix(0.866044 0.499967 -0.866044 0.499967 186.553 101.584)" fill="#D9D9D9" stroke="black"/>
<path d="M186.12 101.834L220.476 121.668L186.12 141.502L151.765 121.668L186.12 101.834Z" fill="white" stroke="black"/>
<line x1="186.013" y1="140.706" x2="186.013" y2="179.583" stroke="black"/>
<line x1="167.488" y1="130.537" x2="167.488" y2="170.447" stroke="black" stroke-dasharray="2 2"/>
<line x1="204.478" y1="130.537" x2="204.478" y2="170.447" stroke="black" stroke-dasharray="2 2"/>
<path d="M168.935 111.069L203.292 130.904" stroke="black" stroke-linejoin="round" stroke-dasharray="2 2"/>
<path d="M151.413 141.271L185.771 161.106" stroke="black" stroke-linejoin="round" stroke-dasharray="2 2"/>
<path d="M202.318 111.069L167.962 130.905" stroke="black" stroke-linejoin="round" stroke-dasharray="2 2"/>
<path d="M220.813 141.245L186.457 161.081" stroke="black" stroke-linejoin="round" stroke-dasharray="2 2"/>
<path d="M167.252 162.67L167.325 162.675L167.399 162.67L186.133 161.364L186.133 182.092L167.325 192.949L148.518 182.092L148.518 161.364L167.252 162.67Z" fill="#E5E5E5" stroke="black"/>
<rect y="0.499967" width="21.4235" height="21.4235" transform="matrix(0.866044 0.499967 -0.866044 0.499967 167.758 150.005)" fill="#D9D9D9" stroke="black"/>
<path d="M167.325 150.255L185.879 160.966L167.325 171.677L148.772 160.966L167.325 150.255Z" fill="white" stroke="black"/>
<line x1="167.491" y1="171.462" x2="167.491" y2="192.898" stroke="black"/>
<line x1="157.277" y1="165.856" x2="157.277" y2="187.861" stroke="black" stroke-dasharray="2 2"/>
<line x1="177.671" y1="165.856" x2="177.671" y2="187.861" stroke="black" stroke-dasharray="2 2"/>
<path d="M157.85 155.122L176.793 166.058" stroke="black" stroke-linejoin="round" stroke-dasharray="2 2"/>
<path d="M148.189 171.223L167.133 182.159" stroke="black" stroke-linejoin="round" stroke-dasharray="2 2"/>
<path d="M176.256 155.122L157.313 166.058" stroke="black" stroke-linejoin="round" stroke-dasharray="2 2"/>
<path d="M186.453 171.759L167.511 182.696" stroke="black" stroke-linejoin="round" stroke-dasharray="2 2"/>
<path d="M204.215 162.67L204.288 162.675L204.362 162.67L223.096 161.364L223.096 182.092L204.288 192.949L185.481 182.092L185.481 161.364L204.215 162.67Z" fill="#E5E5E5" stroke="black"/>
<rect y="0.499967" width="21.4235" height="21.4235" transform="matrix(0.866044 0.499967 -0.866044 0.499967 204.721 150.005)" fill="#D9D9D9" stroke="black"/>
<path d="M204.288 150.255L222.842 160.966L204.288 171.677L185.735 160.966L204.288 150.255Z" fill="white" stroke="black"/>
<line x1="204.453" y1="171.462" x2="204.453" y2="192.898" stroke="black"/>
<line x1="194.24" y1="165.856" x2="194.24" y2="187.861" stroke="black" stroke-dasharray="2 2"/>
<line x1="214.634" y1="165.856" x2="214.634" y2="187.861" stroke="black" stroke-dasharray="2 2"/>
<path d="M194.813 155.122L213.756 166.058" stroke="black" stroke-linejoin="round" stroke-dasharray="2 2"/>
<path d="M185.152 171.223L204.095 182.159" stroke="black" stroke-linejoin="round" stroke-dasharray="2 2"/>
<path d="M213.219 155.122L194.276 166.058" stroke="black" stroke-linejoin="round" stroke-dasharray="2 2"/>
<path d="M223.416 171.759L204.474 182.696" stroke="black" stroke-linejoin="round" stroke-dasharray="2 2"/>
<path d="M185.733 173.542L185.807 173.547L185.88 173.542L204.614 172.236L204.614 192.963L185.807 203.821L166.999 192.963L166.999 172.236L185.733 173.542Z" fill="#E5E5E5" stroke="black"/>
<rect y="0.499967" width="21.4235" height="21.4235" transform="matrix(0.866044 0.499967 -0.866044 0.499967 186.24 160.876)" fill="#D9D9D9" stroke="black"/>
<path d="M185.807 161.126L204.361 171.837L185.807 182.548L167.253 171.837L185.807 161.126Z" fill="white" stroke="black"/>
<line x1="185.972" y1="182.334" x2="185.972" y2="203.769" stroke="black"/>
<line x1="175.758" y1="176.727" x2="175.758" y2="198.732" stroke="black" stroke-dasharray="2 2"/>
<line x1="196.153" y1="176.727" x2="196.153" y2="198.732" stroke="black" stroke-dasharray="2 2"/>
<path d="M176.331 165.993L195.275 176.929" stroke="black" stroke-linejoin="round" stroke-dasharray="2 2"/>
<path d="M166.671 182.094L185.614 193.03" stroke="black" stroke-linejoin="round" stroke-dasharray="2 2"/>
<path d="M194.738 165.993L175.795 176.93" stroke="black" stroke-linejoin="round" stroke-dasharray="2 2"/>
<path d="M204.935 182.631L185.992 193.568" stroke="black" stroke-linejoin="round" stroke-dasharray="2 2"/>
<path d="M148.77 173.542L148.844 173.547L148.917 173.542L167.651 172.236L167.651 192.963L148.844 203.821L130.037 192.963L130.037 172.236L148.77 173.542Z" fill="#E5E5E5" stroke="black"/>
<rect y="0.499967" width="21.4235" height="21.4235" transform="matrix(0.866044 0.499967 -0.866044 0.499967 149.277 160.876)" fill="#D9D9D9" stroke="black"/>
<path d="M148.844 161.126L167.398 171.837L148.844 182.548L130.29 171.837L148.844 161.126Z" fill="white" stroke="black"/>
<line x1="149.009" y1="182.334" x2="149.009" y2="203.769" stroke="black"/>
<line x1="138.795" y1="176.727" x2="138.795" y2="198.732" stroke="black" stroke-dasharray="2 2"/>
<line x1="159.19" y1="176.727" x2="159.19" y2="198.732" stroke="black" stroke-dasharray="2 2"/>
<path d="M139.368 165.993L158.312 176.929" stroke="black" stroke-linejoin="round" stroke-dasharray="2 2"/>
<path d="M129.708 182.094L148.651 193.03" stroke="black" stroke-linejoin="round" stroke-dasharray="2 2"/>
<path d="M157.775 165.993L138.832 176.93" stroke="black" stroke-linejoin="round" stroke-dasharray="2 2"/>
<path d="M167.972 182.631L149.029 193.568" stroke="black" stroke-linejoin="round" stroke-dasharray="2 2"/>
<path d="M167.252 184.413L167.325 184.418L167.399 184.413L186.133 183.107L186.133 203.835L167.325 214.692L148.518 203.835L148.518 183.107L167.252 184.413Z" fill="#E5E5E5" stroke="black"/>
<rect y="0.499967" width="21.4235" height="21.4235" transform="matrix(0.866044 0.499967 -0.866044 0.499967 167.758 171.748)" fill="#D9D9D9" stroke="black"/>
<path d="M167.325 171.997L185.879 182.709L167.325 193.42L148.772 182.709L167.325 171.997Z" fill="white" stroke="black"/>
<line x1="167.491" y1="193.205" x2="167.491" y2="214.64" stroke="black"/>
<line x1="157.277" y1="187.599" x2="157.277" y2="209.604" stroke="black" stroke-dasharray="2 2"/>
<line x1="177.671" y1="187.599" x2="177.671" y2="209.604" stroke="black" stroke-dasharray="2 2"/>
<path d="M157.85 176.865L176.793 187.801" stroke="black" stroke-linejoin="round" stroke-dasharray="2 2"/>
<path d="M148.189 192.966L167.133 203.902" stroke="black" stroke-linejoin="round" stroke-dasharray="2 2"/>
<path d="M176.256 176.865L157.313 187.801" stroke="black" stroke-linejoin="round" stroke-dasharray="2 2"/>
<path d="M186.453 193.502L167.511 204.439" stroke="black" stroke-linejoin="round" stroke-dasharray="2 2"/>
<path d="M196.5 485V490.5H192.5V485V484.793L192.354 484.646L191.5 483.793V481C191.5 480.172 192.172 479.5 193 479.5H196C196.828 479.5 197.5 480.172 197.5 481V483.793L196.646 484.646L196.5 484.793V485Z" fill="white" stroke="black"/>
<circle cx="194.5" cy="477.5" r="1.5" fill="white" stroke="black"/>
<line x1="194.5" y1="485" x2="194.5" y2="491" stroke="black"/>
<path d="M201.5 488V493.5H197.5V488V487.793L197.354 487.646L196.5 486.793V484C196.5 483.172 197.172 482.5 198 482.5H201C201.828 482.5 202.5 483.172 202.5 484V486.793L201.646 487.646L201.5 487.793V488Z" fill="white" stroke="black"/>
<circle cx="199.5" cy="480.5" r="1.5" fill="white" stroke="black"/>
<line x1="199.5" y1="488" x2="199.5" y2="494" stroke="black"/>
<path d="M191.5 488V493.5H187.5V488V487.793L187.354 487.646L186.5 486.793V484C186.5 483.172 187.172 482.5 188 482.5H191C191.828 482.5 192.5 483.172 192.5 484V486.793L191.646 487.646L191.5 487.793V488Z" fill="white" stroke="black"/>
<circle cx="189.5" cy="480.5" r="1.5" fill="white" stroke="black"/>
<line x1="189.5" y1="488" x2="189.5" y2="494" stroke="black"/>
<path d="M186.5 491V496.5H182.5V491V490.793L182.354 490.646L181.5 489.793V487C181.5 486.172 182.172 485.5 183 485.5H186C186.828 485.5 187.5 486.172 187.5 487V489.793L186.646 490.646L186.5 490.793V491Z" fill="white" stroke="black"/>
<circle cx="184.5" cy="483.5" r="1.5" fill="white" stroke="black"/>
<line x1="184.5" y1="491" x2="184.5" y2="497" stroke="black"/>
<path d="M206.5 491V496.5H202.5V491V490.793L202.354 490.646L201.5 489.793V487C201.5 486.172 202.172 485.5 203 485.5H206C206.828 485.5 207.5 486.172 207.5 487V489.793L206.646 490.646L206.5 490.793V491Z" fill="white" stroke="black"/>
<circle cx="204.5" cy="483.5" r="1.5" fill="white" stroke="black"/>
<line x1="204.5" y1="491" x2="204.5" y2="497" stroke="black"/>
<path d="M196.5 491V496.5H192.5V491V490.793L192.354 490.646L191.5 489.793V487C191.5 486.172 192.172 485.5 193 485.5H196C196.828 485.5 197.5 486.172 197.5 487V489.793L196.646 490.646L196.5 490.793V491Z" fill="white" stroke="black"/>
<circle cx="194.5" cy="483.5" r="1.5" fill="white" stroke="black"/>
<line x1="194.5" y1="491" x2="194.5" y2="497" stroke="black"/>
<path d="M181.5 494V499.5H177.5V494V493.793L177.354 493.646L176.5 492.793V490C176.5 489.172 177.172 488.5 178 488.5H181C181.828 488.5 182.5 489.172 182.5 490V492.793L181.646 493.646L181.5 493.793V494Z" fill="white" stroke="black"/>
<circle cx="179.5" cy="486.5" r="1.5" fill="white" stroke="black"/>
<line x1="179.5" y1="494" x2="179.5" y2="500" stroke="black"/>
<path d="M191.5 494V499.5H187.5V494V493.793L187.354 493.646L186.5 492.793V490C186.5 489.172 187.172 488.5 188 488.5H191C191.828 488.5 192.5 489.172 192.5 490V492.793L191.646 493.646L191.5 493.793V494Z" fill="white" stroke="black"/>
<circle cx="189.5" cy="486.5" r="1.5" fill="white" stroke="black"/>
<line x1="189.5" y1="494" x2="189.5" y2="500" stroke="black"/>
<path d="M211.5 494V499.5H207.5V494V493.793L207.354 493.646L206.5 492.793V490C206.5 489.172 207.172 488.5 208 488.5H211C211.828 488.5 212.5 489.172 212.5 490V492.793L211.646 493.646L211.5 493.793V494Z" fill="white" stroke="black"/>
<circle cx="209.5" cy="486.5" r="1.5" fill="white" stroke="black"/>
<line x1="209.5" y1="494" x2="209.5" y2="500" stroke="black"/>
<path d="M201.5 494V499.5H197.5V494V493.793L197.354 493.646L196.5 492.793V490C196.5 489.172 197.172 488.5 198 488.5H201C201.828 488.5 202.5 489.172 202.5 490V492.793L201.646 493.646L201.5 493.793V494Z" fill="white" stroke="black"/>
<circle cx="199.5" cy="486.5" r="1.5" fill="white" stroke="black"/>
<line x1="199.5" y1="494" x2="199.5" y2="500" stroke="black"/>
<path d="M186.5 497V502.5H182.5V497V496.793L182.354 496.646L181.5 495.793V493C181.5 492.172 182.172 491.5 183 491.5H186C186.828 491.5 187.5 492.172 187.5 493V495.793L186.646 496.646L186.5 496.793V497Z" fill="white" stroke="black"/>
<circle cx="184.5" cy="489.5" r="1.5" fill="white" stroke="black"/>
<line x1="184.5" y1="497" x2="184.5" y2="503" stroke="black"/>
<path d="M176.5 497V502.5H172.5V497V496.793L172.354 496.646L171.5 495.793V493C171.5 492.172 172.172 491.5 173 491.5H176C176.828 491.5 177.5 492.172 177.5 493V495.793L176.646 496.646L176.5 496.793V497Z" fill="white" stroke="black"/>
<circle cx="174.5" cy="489.5" r="1.5" fill="white" stroke="black"/>
<line x1="174.5" y1="497" x2="174.5" y2="503" stroke="black"/>
<path d="M206.5 497V502.5H202.5V497V496.793L202.354 496.646L201.5 495.793V493C201.5 492.172 202.172 491.5 203 491.5H206C206.828 491.5 207.5 492.172 207.5 493V495.793L206.646 496.646L206.5 496.793V497Z" fill="white" stroke="black"/>
<circle cx="204.5" cy="489.5" r="1.5" fill="white" stroke="black"/>
<line x1="204.5" y1="497" x2="204.5" y2="503" stroke="black"/>
<path d="M216.5 497V502.5H212.5V497V496.793L212.354 496.646L211.5 495.793V493C211.5 492.172 212.172 491.5 213 491.5H216C216.828 491.5 217.5 492.172 217.5 493V495.793L216.646 496.646L216.5 496.793V497Z" fill="white" stroke="black"/>
<circle cx="214.5" cy="489.5" r="1.5" fill="white" stroke="black"/>
<line x1="214.5" y1="497" x2="214.5" y2="503" stroke="black"/>
<path d="M196.5 497V502.5H192.5V497V496.793L192.354 496.646L191.5 495.793V493C191.5 492.172 192.172 491.5 193 491.5H196C196.828 491.5 197.5 492.172 197.5 493V495.793L196.646 496.646L196.5 496.793V497Z" fill="white" stroke="black"/>
<circle cx="194.5" cy="489.5" r="1.5" fill="white" stroke="black"/>
<line x1="194.5" y1="497" x2="194.5" y2="503" stroke="black"/>
<path d="M201.5 500V505.5H197.5V500V499.793L197.354 499.646L196.5 498.793V496C196.5 495.172 197.172 494.5 198 494.5H201C201.828 494.5 202.5 495.172 202.5 496V498.793L201.646 499.646L201.5 499.793V500Z" fill="white" stroke="black"/>
<circle cx="199.5" cy="492.5" r="1.5" fill="white" stroke="black"/>
<line x1="199.5" y1="500" x2="199.5" y2="506" stroke="black"/>
<path d="M211.5 500V505.5H207.5V500V499.793L207.354 499.646L206.5 498.793V496C206.5 495.172 207.172 494.5 208 494.5H211C211.828 494.5 212.5 495.172 212.5 496V498.793L211.646 499.646L211.5 499.793V500Z" fill="white" stroke="black"/>
<circle cx="209.5" cy="492.5" r="1.5" fill="white" stroke="black"/>
<line x1="209.5" y1="500" x2="209.5" y2="506" stroke="black"/>
<path d="M191.5 500V505.5H187.5V500V499.793L187.354 499.646L186.5 498.793V496C186.5 495.172 187.172 494.5 188 494.5H191C191.828 494.5 192.5 495.172 192.5 496V498.793L191.646 499.646L191.5 499.793V500Z" fill="white" stroke="black"/>
<circle cx="189.5" cy="492.5" r="1.5" fill="white" stroke="black"/>
<line x1="189.5" y1="500" x2="189.5" y2="506" stroke="black"/>
<path d="M181.5 500V505.5H177.5V500V499.793L177.354 499.646L176.5 498.793V496C176.5 495.172 177.172 494.5 178 494.5H181C181.828 494.5 182.5 495.172 182.5 496V498.793L181.646 499.646L181.5 499.793V500Z" fill="white" stroke="black"/>
<circle cx="179.5" cy="492.5" r="1.5" fill="white" stroke="black"/>
<line x1="179.5" y1="500" x2="179.5" y2="506" stroke="black"/>
<path d="M196.5 503V508.5H192.5V503V502.793L192.354 502.646L191.5 501.793V499C191.5 498.172 192.172 497.5 193 497.5H196C196.828 497.5 197.5 498.172 197.5 499V501.793L196.646 502.646L196.5 502.793V503Z" fill="white" stroke="black"/>
<circle cx="194.5" cy="495.5" r="1.5" fill="white" stroke="black"/>
<line x1="194.5" y1="503" x2="194.5" y2="509" stroke="black"/>
<path d="M206.5 503V508.5H202.5V503V502.793L202.354 502.646L201.5 501.793V499C201.5 498.172 202.172 497.5 203 497.5H206C206.828 497.5 207.5 498.172 207.5 499V501.793L206.646 502.646L206.5 502.793V503Z" fill="white" stroke="black"/>
<circle cx="204.5" cy="495.5" r="1.5" fill="white" stroke="black"/>
<line x1="204.5" y1="503" x2="204.5" y2="509" stroke="black"/>
<path d="M186.5 503V508.5H182.5V503V502.793L182.354 502.646L181.5 501.793V499C181.5 498.172 182.172 497.5 183 497.5H186C186.828 497.5 187.5 498.172 187.5 499V501.793L186.646 502.646L186.5 502.793V503Z" fill="white" stroke="black"/>
<circle cx="184.5" cy="495.5" r="1.5" fill="white" stroke="black"/>
<line x1="184.5" y1="503" x2="184.5" y2="509" stroke="black"/>
<path d="M191.5 506V511.5H187.5V506V505.793L187.354 505.646L186.5 504.793V502C186.5 501.172 187.172 500.5 188 500.5H191C191.828 500.5 192.5 501.172 192.5 502V504.793L191.646 505.646L191.5 505.793V506Z" fill="white" stroke="black"/>
<circle cx="189.5" cy="498.5" r="1.5" fill="white" stroke="black"/>
<line x1="189.5" y1="506" x2="189.5" y2="512" stroke="black"/>
<path d="M201.5 506V511.5H197.5V506V505.793L197.354 505.646L196.5 504.793V502C196.5 501.172 197.172 500.5 198 500.5H201C201.828 500.5 202.5 501.172 202.5 502V504.793L201.646 505.646L201.5 505.793V506Z" fill="white" stroke="black"/>
<circle cx="199.5" cy="498.5" r="1.5" fill="white" stroke="black"/>
<line x1="199.5" y1="506" x2="199.5" y2="512" stroke="black"/>
<path d="M196.5 509V514.5H192.5V509V508.793L192.354 508.646L191.5 507.793V505C191.5 504.172 192.172 503.5 193 503.5H196C196.828 503.5 197.5 504.172 197.5 505V507.793L196.646 508.646L196.5 508.793V509Z" fill="white" stroke="black"/>
<circle cx="194.5" cy="501.5" r="1.5" fill="white" stroke="black"/>
<line x1="194.5" y1="509" x2="194.5" y2="515" stroke="black"/>
<path d="M146.5 485V490.5H142.5V485V484.793L142.354 484.646L141.5 483.793V481C141.5 480.172 142.172 479.5 143 479.5H146C146.828 479.5 147.5 480.172 147.5 481V483.793L146.646 484.646L146.5 484.793V485Z" fill="white" stroke="black"/>
<circle cx="144.5" cy="477.5" r="1.5" fill="white" stroke="black"/>
<line x1="144.5" y1="485" x2="144.5" y2="491" stroke="black"/>
<path d="M151.5 488V493.5H147.5V488V487.793L147.354 487.646L146.5 486.793V484C146.5 483.172 147.172 482.5 148 482.5H151C151.828 482.5 152.5 483.172 152.5 484V486.793L151.646 487.646L151.5 487.793V488Z" fill="white" stroke="black"/>
<circle cx="149.5" cy="480.5" r="1.5" fill="white" stroke="black"/>
<line x1="149.5" y1="488" x2="149.5" y2="494" stroke="black"/>
<path d="M141.5 488V493.5H137.5V488V487.793L137.354 487.646L136.5 486.793V484C136.5 483.172 137.172 482.5 138 482.5H141C141.828 482.5 142.5 483.172 142.5 484V486.793L141.646 487.646L141.5 487.793V488Z" fill="white" stroke="black"/>
<circle cx="139.5" cy="480.5" r="1.5" fill="white" stroke="black"/>
<line x1="139.5" y1="488" x2="139.5" y2="494" stroke="black"/>
<path d="M136.5 491V496.5H132.5V491V490.793L132.354 490.646L131.5 489.793V487C131.5 486.172 132.172 485.5 133 485.5H136C136.828 485.5 137.5 486.172 137.5 487V489.793L136.646 490.646L136.5 490.793V491Z" fill="white" stroke="black"/>
<circle cx="134.5" cy="483.5" r="1.5" fill="white" stroke="black"/>
<line x1="134.5" y1="491" x2="134.5" y2="497" stroke="black"/>
<path d="M156.5 491V496.5H152.5V491V490.793L152.354 490.646L151.5 489.793V487C151.5 486.172 152.172 485.5 153 485.5H156C156.828 485.5 157.5 486.172 157.5 487V489.793L156.646 490.646L156.5 490.793V491Z" fill="white" stroke="black"/>
<circle cx="154.5" cy="483.5" r="1.5" fill="white" stroke="black"/>
<line x1="154.5" y1="491" x2="154.5" y2="497" stroke="black"/>
<path d="M146.5 491V496.5H142.5V491V490.793L142.354 490.646L141.5 489.793V487C141.5 486.172 142.172 485.5 143 485.5H146C146.828 485.5 147.5 486.172 147.5 487V489.793L146.646 490.646L146.5 490.793V491Z" fill="white" stroke="black"/>
<circle cx="144.5" cy="483.5" r="1.5" fill="white" stroke="black"/>
<line x1="144.5" y1="491" x2="144.5" y2="497" stroke="black"/>
<path d="M131.5 494V499.5H127.5V494V493.793L127.354 493.646L126.5 492.793V490C126.5 489.172 127.172 488.5 128 488.5H131C131.828 488.5 132.5 489.172 132.5 490V492.793L131.646 493.646L131.5 493.793V494Z" fill="white" stroke="black"/>
<circle cx="129.5" cy="486.5" r="1.5" fill="white" stroke="black"/>
<line x1="129.5" y1="494" x2="129.5" y2="500" stroke="black"/>
<path d="M141.5 494V499.5H137.5V494V493.793L137.354 493.646L136.5 492.793V490C136.5 489.172 137.172 488.5 138 488.5H141C141.828 488.5 142.5 489.172 142.5 490V492.793L141.646 493.646L141.5 493.793V494Z" fill="white" stroke="black"/>
<circle cx="139.5" cy="486.5" r="1.5" fill="white" stroke="black"/>
<line x1="139.5" y1="494" x2="139.5" y2="500" stroke="black"/>
<path d="M161.5 494V499.5H157.5V494V493.793L157.354 493.646L156.5 492.793V490C156.5 489.172 157.172 488.5 158 488.5H161C161.828 488.5 162.5 489.172 162.5 490V492.793L161.646 493.646L161.5 493.793V494Z" fill="white" stroke="black"/>
<circle cx="159.5" cy="486.5" r="1.5" fill="white" stroke="black"/>
<line x1="159.5" y1="494" x2="159.5" y2="500" stroke="black"/>
<path d="M151.5 494V499.5H147.5V494V493.793L147.354 493.646L146.5 492.793V490C146.5 489.172 147.172 488.5 148 488.5H151C151.828 488.5 152.5 489.172 152.5 490V492.793L151.646 493.646L151.5 493.793V494Z" fill="white" stroke="black"/>
<circle cx="149.5" cy="486.5" r="1.5" fill="white" stroke="black"/>
<line x1="149.5" y1="494" x2="149.5" y2="500" stroke="black"/>
<path d="M136.5 497V502.5H132.5V497V496.793L132.354 496.646L131.5 495.793V493C131.5 492.172 132.172 491.5 133 491.5H136C136.828 491.5 137.5 492.172 137.5 493V495.793L136.646 496.646L136.5 496.793V497Z" fill="white" stroke="black"/>
<circle cx="134.5" cy="489.5" r="1.5" fill="white" stroke="black"/>
<line x1="134.5" y1="497" x2="134.5" y2="503" stroke="black"/>
<path d="M126.5 497V502.5H122.5V497V496.793L122.354 496.646L121.5 495.793V493C121.5 492.172 122.172 491.5 123 491.5H126C126.828 491.5 127.5 492.172 127.5 493V495.793L126.646 496.646L126.5 496.793V497Z" fill="white" stroke="black"/>
<circle cx="124.5" cy="489.5" r="1.5" fill="white" stroke="black"/>
<line x1="124.5" y1="497" x2="124.5" y2="503" stroke="black"/>
<path d="M156.5 497V502.5H152.5V497V496.793L152.354 496.646L151.5 495.793V493C151.5 492.172 152.172 491.5 153 491.5H156C156.828 491.5 157.5 492.172 157.5 493V495.793L156.646 496.646L156.5 496.793V497Z" fill="white" stroke="black"/>
<circle cx="154.5" cy="489.5" r="1.5" fill="white" stroke="black"/>
<line x1="154.5" y1="497" x2="154.5" y2="503" stroke="black"/>
<path d="M166.5 497V502.5H162.5V497V496.793L162.354 496.646L161.5 495.793V493C161.5 492.172 162.172 491.5 163 491.5H166C166.828 491.5 167.5 492.172 167.5 493V495.793L166.646 496.646L166.5 496.793V497Z" fill="white" stroke="black"/>
<circle cx="164.5" cy="489.5" r="1.5" fill="white" stroke="black"/>
<line x1="164.5" y1="497" x2="164.5" y2="503" stroke="black"/>
<path d="M146.5 497V502.5H142.5V497V496.793L142.354 496.646L141.5 495.793V493C141.5 492.172 142.172 491.5 143 491.5H146C146.828 491.5 147.5 492.172 147.5 493V495.793L146.646 496.646L146.5 496.793V497Z" fill="white" stroke="black"/>
<circle cx="144.5" cy="489.5" r="1.5" fill="white" stroke="black"/>
<line x1="144.5" y1="497" x2="144.5" y2="503" stroke="black"/>
<path d="M151.5 500V505.5H147.5V500V499.793L147.354 499.646L146.5 498.793V496C146.5 495.172 147.172 494.5 148 494.5H151C151.828 494.5 152.5 495.172 152.5 496V498.793L151.646 499.646L151.5 499.793V500Z" fill="white" stroke="black"/>
<circle cx="149.5" cy="492.5" r="1.5" fill="white" stroke="black"/>
<line x1="149.5" y1="500" x2="149.5" y2="506" stroke="black"/>
<path d="M161.5 500V505.5H157.5V500V499.793L157.354 499.646L156.5 498.793V496C156.5 495.172 157.172 494.5 158 494.5H161C161.828 494.5 162.5 495.172 162.5 496V498.793L161.646 499.646L161.5 499.793V500Z" fill="white" stroke="black"/>
<circle cx="159.5" cy="492.5" r="1.5" fill="white" stroke="black"/>
<line x1="159.5" y1="500" x2="159.5" y2="506" stroke="black"/>
<path d="M141.5 500V505.5H137.5V500V499.793L137.354 499.646L136.5 498.793V496C136.5 495.172 137.172 494.5 138 494.5H141C141.828 494.5 142.5 495.172 142.5 496V498.793L141.646 499.646L141.5 499.793V500Z" fill="white" stroke="black"/>
<circle cx="139.5" cy="492.5" r="1.5" fill="white" stroke="black"/>
<line x1="139.5" y1="500" x2="139.5" y2="506" stroke="black"/>
<path d="M131.5 500V505.5H127.5V500V499.793L127.354 499.646L126.5 498.793V496C126.5 495.172 127.172 494.5 128 494.5H131C131.828 494.5 132.5 495.172 132.5 496V498.793L131.646 499.646L131.5 499.793V500Z" fill="white" stroke="black"/>
<circle cx="129.5" cy="492.5" r="1.5" fill="white" stroke="black"/>
<line x1="129.5" y1="500" x2="129.5" y2="506" stroke="black"/>
<path d="M146.5 503V508.5H142.5V503V502.793L142.354 502.646L141.5 501.793V499C141.5 498.172 142.172 497.5 143 497.5H146C146.828 497.5 147.5 498.172 147.5 499V501.793L146.646 502.646L146.5 502.793V503Z" fill="white" stroke="black"/>
<circle cx="144.5" cy="495.5" r="1.5" fill="white" stroke="black"/>
<line x1="144.5" y1="503" x2="144.5" y2="509" stroke="black"/>
<path d="M156.5 503V508.5H152.5V503V502.793L152.354 502.646L151.5 501.793V499C151.5 498.172 152.172 497.5 153 497.5H156C156.828 497.5 157.5 498.172 157.5 499V501.793L156.646 502.646L156.5 502.793V503Z" fill="white" stroke="black"/>
<circle cx="154.5" cy="495.5" r="1.5" fill="white" stroke="black"/>
<line x1="154.5" y1="503" x2="154.5" y2="509" stroke="black"/>
<path d="M136.5 503V508.5H132.5V503V502.793L132.354 502.646L131.5 501.793V499C131.5 498.172 132.172 497.5 133 497.5H136C136.828 497.5 137.5 498.172 137.5 499V501.793L136.646 502.646L136.5 502.793V503Z" fill="white" stroke="black"/>
<circle cx="134.5" cy="495.5" r="1.5" fill="white" stroke="black"/>
<line x1="134.5" y1="503" x2="134.5" y2="509" stroke="black"/>
<path d="M141.5 506V511.5H137.5V506V505.793L137.354 505.646L136.5 504.793V502C136.5 501.172 137.172 500.5 138 500.5H141C141.828 500.5 142.5 501.172 142.5 502V504.793L141.646 505.646L141.5 505.793V506Z" fill="white" stroke="black"/>
<circle cx="139.5" cy="498.5" r="1.5" fill="white" stroke="black"/>
<line x1="139.5" y1="506" x2="139.5" y2="512" stroke="black"/>
<path d="M151.5 506V511.5H147.5V506V505.793L147.354 505.646L146.5 504.793V502C146.5 501.172 147.172 500.5 148 500.5H151C151.828 500.5 152.5 501.172 152.5 502V504.793L151.646 505.646L151.5 505.793V506Z" fill="white" stroke="black"/>
<circle cx="149.5" cy="498.5" r="1.5" fill="white" stroke="black"/>
<line x1="149.5" y1="506" x2="149.5" y2="512" stroke="black"/>
<path d="M146.5 509V514.5H142.5V509V508.793L142.354 508.646L141.5 507.793V505C141.5 504.172 142.172 503.5 143 503.5H146C146.828 503.5 147.5 504.172 147.5 505V507.793L146.646 508.646L146.5 508.793V509Z" fill="white" stroke="black"/>
<circle cx="144.5" cy="501.5" r="1.5" fill="white" stroke="black"/>
<line x1="144.5" y1="509" x2="144.5" y2="515" stroke="black"/>
<path d="M171.5 500V505.5H167.5V500V499.793L167.354 499.646L166.5 498.793V496C166.5 495.172 167.172 494.5 168 494.5H171C171.828 494.5 172.5 495.172 172.5 496V498.793L171.646 499.646L171.5 499.793V500Z" fill="white" stroke="black"/>
<circle cx="169.5" cy="492.5" r="1.5" fill="white" stroke="black"/>
<line x1="169.5" y1="500" x2="169.5" y2="506" stroke="black"/>
<path d="M176.5 503V508.5H172.5V503V502.793L172.354 502.646L171.5 501.793V499C171.5 498.172 172.172 497.5 173 497.5H176C176.828 497.5 177.5 498.172 177.5 499V501.793L176.646 502.646L176.5 502.793V503Z" fill="white" stroke="black"/>
<circle cx="174.5" cy="495.5" r="1.5" fill="white" stroke="black"/>
<line x1="174.5" y1="503" x2="174.5" y2="509" stroke="black"/>
<path d="M166.5 503V508.5H162.5V503V502.793L162.354 502.646L161.5 501.793V499C161.5 498.172 162.172 497.5 163 497.5H166C166.828 497.5 167.5 498.172 167.5 499V501.793L166.646 502.646L166.5 502.793V503Z" fill="white" stroke="black"/>
<circle cx="164.5" cy="495.5" r="1.5" fill="white" stroke="black"/>
<line x1="164.5" y1="503" x2="164.5" y2="509" stroke="black"/>
<path d="M161.5 506V511.5H157.5V506V505.793L157.354 505.646L156.5 504.793V502C156.5 501.172 157.172 500.5 158 500.5H161C161.828 500.5 162.5 501.172 162.5 502V504.793L161.646 505.646L161.5 505.793V506Z" fill="white" stroke="black"/>
<circle cx="159.5" cy="498.5" r="1.5" fill="white" stroke="black"/>
<line x1="159.5" y1="506" x2="159.5" y2="512" stroke="black"/>
<path d="M181.5 506V511.5H177.5V506V505.793L177.354 505.646L176.5 504.793V502C176.5 501.172 177.172 500.5 178 500.5H181C181.828 500.5 182.5 501.172 182.5 502V504.793L181.646 505.646L181.5 505.793V506Z" fill="white" stroke="black"/>
<circle cx="179.5" cy="498.5" r="1.5" fill="white" stroke="black"/>
<line x1="179.5" y1="506" x2="179.5" y2="512" stroke="black"/>
<path d="M171.5 506V511.5H167.5V506V505.793L167.354 505.646L166.5 504.793V502C166.5 501.172 167.172 500.5 168 500.5H171C171.828 500.5 172.5 501.172 172.5 502V504.793L171.646 505.646L171.5 505.793V506Z" fill="white" stroke="black"/>
<circle cx="169.5" cy="498.5" r="1.5" fill="white" stroke="black"/>
<line x1="169.5" y1="506" x2="169.5" y2="512" stroke="black"/>
<path d="M156.5 509V514.5H152.5V509V508.793L152.354 508.646L151.5 507.793V505C151.5 504.172 152.172 503.5 153 503.5H156C156.828 503.5 157.5 504.172 157.5 505V507.793L156.646 508.646L156.5 508.793V509Z" fill="white" stroke="black"/>
<circle cx="154.5" cy="501.5" r="1.5" fill="white" stroke="black"/>
<line x1="154.5" y1="509" x2="154.5" y2="515" stroke="black"/>
<path d="M166.5 509V514.5H162.5V509V508.793L162.354 508.646L161.5 507.793V505C161.5 504.172 162.172 503.5 163 503.5H166C166.828 503.5 167.5 504.172 167.5 505V507.793L166.646 508.646L166.5 508.793V509Z" fill="white" stroke="black"/>
<circle cx="164.5" cy="501.5" r="1.5" fill="white" stroke="black"/>
<line x1="164.5" y1="509" x2="164.5" y2="515" stroke="black"/>
<path d="M186.5 509V514.5H182.5V509V508.793L182.354 508.646L181.5 507.793V505C181.5 504.172 182.172 503.5 183 503.5H186C186.828 503.5 187.5 504.172 187.5 505V507.793L186.646 508.646L186.5 508.793V509Z" fill="white" stroke="black"/>
<circle cx="184.5" cy="501.5" r="1.5" fill="white" stroke="black"/>
<line x1="184.5" y1="509" x2="184.5" y2="515" stroke="black"/>
<path d="M176.5 509V514.5H172.5V509V508.793L172.354 508.646L171.5 507.793V505C171.5 504.172 172.172 503.5 173 503.5H176C176.828 503.5 177.5 504.172 177.5 505V507.793L176.646 508.646L176.5 508.793V509Z" fill="white" stroke="black"/>
<circle cx="174.5" cy="501.5" r="1.5" fill="white" stroke="black"/>
<line x1="174.5" y1="509" x2="174.5" y2="515" stroke="black"/>
<path d="M161.5 512V517.5H157.5V512V511.793L157.354 511.646L156.5 510.793V508C156.5 507.172 157.172 506.5 158 506.5H161C161.828 506.5 162.5 507.172 162.5 508V510.793L161.646 511.646L161.5 511.793V512Z" fill="white" stroke="black"/>
<circle cx="159.5" cy="504.5" r="1.5" fill="white" stroke="black"/>
<line x1="159.5" y1="512" x2="159.5" y2="518" stroke="black"/>
<path d="M151.5 512V517.5H147.5V512V511.793L147.354 511.646L146.5 510.793V508C146.5 507.172 147.172 506.5 148 506.5H151C151.828 506.5 152.5 507.172 152.5 508V510.793L151.646 511.646L151.5 511.793V512Z" fill="white" stroke="black"/>
<circle cx="149.5" cy="504.5" r="1.5" fill="white" stroke="black"/>
<line x1="149.5" y1="512" x2="149.5" y2="518" stroke="black"/>
<path d="M181.5 512V517.5H177.5V512V511.793L177.354 511.646L176.5 510.793V508C176.5 507.172 177.172 506.5 178 506.5H181C181.828 506.5 182.5 507.172 182.5 508V510.793L181.646 511.646L181.5 511.793V512Z" fill="white" stroke="black"/>
<circle cx="179.5" cy="504.5" r="1.5" fill="white" stroke="black"/>
<line x1="179.5" y1="512" x2="179.5" y2="518" stroke="black"/>
<path d="M191.5 512V517.5H187.5V512V511.793L187.354 511.646L186.5 510.793V508C186.5 507.172 187.172 506.5 188 506.5H191C191.828 506.5 192.5 507.172 192.5 508V510.793L191.646 511.646L191.5 511.793V512Z" fill="white" stroke="black"/>
<circle cx="189.5" cy="504.5" r="1.5" fill="white" stroke="black"/>
<line x1="189.5" y1="512" x2="189.5" y2="518" stroke="black"/>
<path d="M171.5 512V517.5H167.5V512V511.793L167.354 511.646L166.5 510.793V508C166.5 507.172 167.172 506.5 168 506.5H171C171.828 506.5 172.5 507.172 172.5 508V510.793L171.646 511.646L171.5 511.793V512Z" fill="white" stroke="black"/>
<circle cx="169.5" cy="504.5" r="1.5" fill="white" stroke="black"/>
<line x1="169.5" y1="512" x2="169.5" y2="518" stroke="black"/>
<path d="M176.5 515V520.5H172.5V515V514.793L172.354 514.646L171.5 513.793V511C171.5 510.172 172.172 509.5 173 509.5H176C176.828 509.5 177.5 510.172 177.5 511V513.793L176.646 514.646L176.5 514.793V515Z" fill="white" stroke="black"/>
<circle cx="174.5" cy="507.5" r="1.5" fill="white" stroke="black"/>
<line x1="174.5" y1="515" x2="174.5" y2="521" stroke="black"/>
<path d="M186.5 515V520.5H182.5V515V514.793L182.354 514.646L181.5 513.793V511C181.5 510.172 182.172 509.5 183 509.5H186C186.828 509.5 187.5 510.172 187.5 511V513.793L186.646 514.646L186.5 514.793V515Z" fill="white" stroke="black"/>
<circle cx="184.5" cy="507.5" r="1.5" fill="white" stroke="black"/>
<line x1="184.5" y1="515" x2="184.5" y2="521" stroke="black"/>
<path d="M166.5 515V520.5H162.5V515V514.793L162.354 514.646L161.5 513.793V511C161.5 510.172 162.172 509.5 163 509.5H166C166.828 509.5 167.5 510.172 167.5 511V513.793L166.646 514.646L166.5 514.793V515Z" fill="white" stroke="black"/>
<circle cx="164.5" cy="507.5" r="1.5" fill="white" stroke="black"/>
<line x1="164.5" y1="515" x2="164.5" y2="521" stroke="black"/>
<path d="M156.5 515V520.5H152.5V515V514.793L152.354 514.646L151.5 513.793V511C151.5 510.172 152.172 509.5 153 509.5H156C156.828 509.5 157.5 510.172 157.5 511V513.793L156.646 514.646L156.5 514.793V515Z" fill="white" stroke="black"/>
<circle cx="154.5" cy="507.5" r="1.5" fill="white" stroke="black"/>
<line x1="154.5" y1="515" x2="154.5" y2="521" stroke="black"/>
<path d="M171.5 518V523.5H167.5V518V517.793L167.354 517.646L166.5 516.793V514C166.5 513.172 167.172 512.5 168 512.5H171C171.828 512.5 172.5 513.172 172.5 514V516.793L171.646 517.646L171.5 517.793V518Z" fill="white" stroke="black"/>
<circle cx="169.5" cy="510.5" r="1.5" fill="white" stroke="black"/>
<line x1="169.5" y1="518" x2="169.5" y2="524" stroke="black"/>
<path d="M181.5 518V523.5H177.5V518V517.793L177.354 517.646L176.5 516.793V514C176.5 513.172 177.172 512.5 178 512.5H181C181.828 512.5 182.5 513.172 182.5 514V516.793L181.646 517.646L181.5 517.793V518Z" fill="white" stroke="black"/>
<circle cx="179.5" cy="510.5" r="1.5" fill="white" stroke="black"/>
<line x1="179.5" y1="518" x2="179.5" y2="524" stroke="black"/>
<path d="M161.5 518V523.5H157.5V518V517.793L157.354 517.646L156.5 516.793V514C156.5 513.172 157.172 512.5 158 512.5H161C161.828 512.5 162.5 513.172 162.5 514V516.793L161.646 517.646L161.5 517.793V518Z" fill="white" stroke="black"/>
<circle cx="159.5" cy="510.5" r="1.5" fill="white" stroke="black"/>
<line x1="159.5" y1="518" x2="159.5" y2="524" stroke="black"/>
<path d="M166.5 521V526.5H162.5V521V520.793L162.354 520.646L161.5 519.793V517C161.5 516.172 162.172 515.5 163 515.5H166C166.828 515.5 167.5 516.172 167.5 517V519.793L166.646 520.646L166.5 520.793V521Z" fill="white" stroke="black"/>
<circle cx="164.5" cy="513.5" r="1.5" fill="white" stroke="black"/>
<line x1="164.5" y1="521" x2="164.5" y2="527" stroke="black"/>
<path d="M176.5 521V526.5H172.5V521V520.793L172.354 520.646L171.5 519.793V517C171.5 516.172 172.172 515.5 173 515.5H176C176.828 515.5 177.5 516.172 177.5 517V519.793L176.646 520.646L176.5 520.793V521Z" fill="white" stroke="black"/>
<circle cx="174.5" cy="513.5" r="1.5" fill="white" stroke="black"/>
<line x1="174.5" y1="521" x2="174.5" y2="527" stroke="black"/>
<path d="M171.5 524V529.5H167.5V524V523.793L167.354 523.646L166.5 522.793V520C166.5 519.172 167.172 518.5 168 518.5H171C171.828 518.5 172.5 519.172 172.5 520V522.793L171.646 523.646L171.5 523.793V524Z" fill="white" stroke="black"/>
<circle cx="169.5" cy="516.5" r="1.5" fill="white" stroke="black"/>
<line x1="169.5" y1="524" x2="169.5" y2="530" stroke="black"/>
<path d="M294.041 443V448H293.369V443H291.505V442.416H295.905V443H294.041ZM296.806 442.416H298.702C299.182 442.416 299.558 442.547 299.83 442.808C300.102 443.069 300.238 443.419 300.238 443.856C300.238 444.192 300.155 444.456 299.99 444.648C299.83 444.84 299.622 444.976 299.366 445.056V445.08C299.68 445.155 299.939 445.296 300.142 445.504C300.344 445.707 300.446 446.003 300.446 446.392C300.446 446.616 300.408 446.827 300.334 447.024C300.259 447.221 300.152 447.392 300.014 447.536C299.88 447.68 299.72 447.795 299.534 447.88C299.352 447.96 299.155 448 298.942 448H296.806V442.416ZM298.742 447.416C299.051 447.416 299.294 447.347 299.47 447.208C299.646 447.069 299.734 446.856 299.734 446.568V446.24C299.734 445.957 299.646 445.747 299.47 445.608C299.294 445.464 299.051 445.392 298.742 445.392H297.478V447.416H298.742ZM298.63 444.84C298.912 444.84 299.134 444.779 299.294 444.656C299.454 444.528 299.534 444.336 299.534 444.08V443.768C299.534 443.512 299.454 443.32 299.294 443.192C299.134 443.064 298.912 443 298.63 443H297.478V444.84H298.63ZM301.658 442.416H303.218C303.901 442.416 304.41 442.651 304.746 443.12C305.082 443.589 305.25 444.285 305.25 445.208C305.25 446.131 305.082 446.827 304.746 447.296C304.41 447.765 303.901 448 303.218 448H301.658V442.416ZM303.186 447.416C303.634 447.416 303.97 447.261 304.194 446.952C304.424 446.643 304.538 446.205 304.538 445.64V444.776C304.538 444.211 304.424 443.773 304.194 443.464C303.97 443.155 303.634 443 303.186 443H302.33V447.416H303.186Z" fill="black"/>
<path d="M37.0407 443V448H36.3687V443H34.5047V442.416H38.9047V443H37.0407ZM39.8056 442.416H41.7016C42.1816 442.416 42.5576 442.547 42.8296 442.808C43.1016 443.069 43.2376 443.419 43.2376 443.856C43.2376 444.192 43.1549 444.456 42.9896 444.648C42.8296 444.84 42.6216 444.976 42.3656 445.056V445.08C42.6802 445.155 42.9389 445.296 43.1416 445.504C43.3442 445.707 43.4456 446.003 43.4456 446.392C43.4456 446.616 43.4082 446.827 43.3336 447.024C43.2589 447.221 43.1522 447.392 43.0136 447.536C42.8802 447.68 42.7202 447.795 42.5336 447.88C42.3522 447.96 42.1549 448 41.9416 448H39.8056V442.416ZM41.7416 447.416C42.0509 447.416 42.2936 447.347 42.4696 447.208C42.6456 447.069 42.7336 446.856 42.7336 446.568V446.24C42.7336 445.957 42.6456 445.747 42.4696 445.608C42.2936 445.464 42.0509 445.392 41.7416 445.392H40.4776V447.416H41.7416ZM41.6296 444.84C41.9122 444.84 42.1336 444.779 42.2936 444.656C42.4536 444.528 42.5336 444.336 42.5336 444.08V443.768C42.5336 443.512 42.4536 443.32 42.2936 443.192C42.1336 443.064 41.9122 443 41.6296 443H40.4776V444.84H41.6296ZM44.6584 442.416H46.2184C46.9011 442.416 47.4104 442.651 47.7464 443.12C48.0824 443.589 48.2504 444.285 48.2504 445.208C48.2504 446.131 48.0824 446.827 47.7464 447.296C47.4104 447.765 46.9011 448 46.2184 448H44.6584V442.416ZM46.1864 447.416C46.6344 447.416 46.9704 447.261 47.1944 446.952C47.4238 446.643 47.5384 446.205 47.5384 445.64V444.776C47.5384 444.211 47.4238 443.773 47.1944 443.464C46.9704 443.155 46.6344 443 46.1864 443H45.3304V447.416H46.1864Z" fill="black"/>
<path d="M96.5988 22.5V20.29H96.5188L95.0488 23.88L93.5788 20.29H93.4988V22.5V26H92.7288V19.02H93.8088L95.0388 22.1H95.0988L96.3288 19.02H97.3688V26H96.5988V22.5ZM101.045 26.12C100.618 26.12 100.252 26.04 99.9449 25.88C99.6383 25.7133 99.3849 25.4767 99.1849 25.17C98.9849 24.8633 98.8383 24.4867 98.7449 24.04C98.6516 23.5933 98.6049 23.0833 98.6049 22.51C98.6049 21.9433 98.6516 21.4367 98.7449 20.99C98.8383 20.5367 98.9849 20.1567 99.1849 19.85C99.3849 19.5433 99.6383 19.31 99.9449 19.15C100.252 18.9833 100.618 18.9 101.045 18.9C101.472 18.9 101.838 18.9833 102.145 19.15C102.452 19.31 102.705 19.5433 102.905 19.85C103.105 20.1567 103.252 20.5367 103.345 20.99C103.438 21.4367 103.485 21.9433 103.485 22.51C103.485 23.0833 103.438 23.5933 103.345 24.04C103.252 24.4867 103.105 24.8633 102.905 25.17C102.705 25.4767 102.452 25.7133 102.145 25.88C101.838 26.04 101.472 26.12 101.045 26.12ZM101.045 25.39C101.325 25.39 101.562 25.3367 101.755 25.23C101.948 25.1167 102.108 24.96 102.235 24.76C102.362 24.56 102.452 24.32 102.505 24.04C102.565 23.7533 102.595 23.4333 102.595 23.08V21.94C102.595 21.5933 102.565 21.2767 102.505 20.99C102.452 20.7033 102.362 20.46 102.235 20.26C102.108 20.06 101.948 19.9067 101.755 19.8C101.562 19.6867 101.325 19.63 101.045 19.63C100.765 19.63 100.528 19.6867 100.335 19.8C100.142 19.9067 99.9816 20.06 99.8549 20.26C99.7283 20.46 99.6349 20.7033 99.5749 20.99C99.5216 21.2767 99.4949 21.5933 99.4949 21.94V23.08C99.4949 23.4333 99.5216 23.7533 99.5749 24.04C99.6349 24.32 99.7283 24.56 99.8549 24.76C99.9816 24.96 100.142 25.1167 100.335 25.23C100.528 25.3367 100.765 25.39 101.045 25.39ZM104.991 19.02H106.941C107.794 19.02 108.431 19.3133 108.851 19.9C109.271 20.4867 109.481 21.3567 109.481 22.51C109.481 23.6633 109.271 24.5333 108.851 25.12C108.431 25.7067 107.794 26 106.941 26H104.991V19.02ZM106.901 25.27C107.461 25.27 107.881 25.0767 108.161 24.69C108.448 24.3033 108.591 23.7567 108.591 23.05V21.97C108.591 21.2633 108.448 20.7167 108.161 20.33C107.881 19.9433 107.461 19.75 106.901 19.75H105.831V25.27H106.901ZM110.937 26V19.02H115.237V19.75H111.777V22.1H115.117V22.83H111.777V25.27H115.237V26H110.937ZM117.773 26H116.933V19.02H119.473C120.12 19.02 120.613 19.1967 120.953 19.55C121.293 19.9033 121.463 20.3967 121.463 21.03C121.463 21.5967 121.317 22.05 121.023 22.39C120.73 22.73 120.303 22.9267 119.743 22.98L121.523 26H120.583L118.883 23.02H117.773V26ZM119.453 22.31C119.807 22.31 120.08 22.2233 120.273 22.05C120.473 21.87 120.573 21.6167 120.573 21.29V20.77C120.573 20.4433 120.473 20.1933 120.273 20.02C120.08 19.84 119.807 19.75 119.453 19.75H117.773V22.31H119.453ZM123.659 20.09H123.589V26H122.829V19.02H124.019L126.399 24.87H126.469V19.02H127.229V26H126.039L123.659 20.09ZM134.921 26V19.02H139.221V19.75H135.761V22.1H139.101V22.83H135.761V25.27H139.221V26H134.921ZM141.648 20.09H141.578V26H140.818V19.02H142.008L144.388 24.87H144.458V19.02H145.218V26H144.028L141.648 20.09ZM149.434 19.75V26H148.594V19.75H146.264V19.02H151.764V19.75H149.434ZM152.91 26V19.02H157.21V19.75H153.75V22.1H157.09V22.83H153.75V25.27H157.21V26H152.91ZM159.746 26H158.906V19.02H161.446C162.093 19.02 162.586 19.1967 162.926 19.55C163.266 19.9033 163.436 20.3967 163.436 21.03C163.436 21.5967 163.289 22.05 162.996 22.39C162.703 22.73 162.276 22.9267 161.716 22.98L163.496 26H162.556L160.856 23.02H159.746V26ZM161.426 22.31C161.779 22.31 162.053 22.2233 162.246 22.05C162.446 21.87 162.546 21.6167 162.546 21.29V20.77C162.546 20.4433 162.446 20.1933 162.246 20.02C162.053 19.84 161.779 19.75 161.426 19.75H159.746V22.31H161.426ZM164.902 26V19.02H167.442C168.089 19.02 168.582 19.1967 168.922 19.55C169.262 19.9033 169.432 20.3967 169.432 21.03C169.432 21.6633 169.262 22.1567 168.922 22.51C168.582 22.8633 168.089 23.04 167.442 23.04H165.742V26H164.902ZM165.742 22.31H167.422C167.775 22.31 168.049 22.2233 168.242 22.05C168.442 21.87 168.542 21.6167 168.542 21.29V20.77C168.542 20.4433 168.442 20.1933 168.242 20.02C168.049 19.84 167.775 19.75 167.422 19.75H165.742V22.31ZM171.738 26H170.898V19.02H173.438C174.085 19.02 174.578 19.1967 174.918 19.55C175.258 19.9033 175.428 20.3967 175.428 21.03C175.428 21.5967 175.281 22.05 174.988 22.39C174.695 22.73 174.268 22.9267 173.708 22.98L175.488 26H174.548L172.848 23.02H171.738V26ZM173.418 22.31C173.771 22.31 174.045 22.2233 174.238 22.05C174.438 21.87 174.538 21.6167 174.538 21.29V20.77C174.538 20.4433 174.438 20.1933 174.238 20.02C174.045 19.84 173.771 19.75 173.418 19.75H171.738V22.31H173.418ZM176.834 26V25.33H178.574V19.69H176.834V19.02H181.154V19.69H179.414V25.33H181.154V26H176.834ZM184.97 26.12C184.344 26.12 183.83 26.0067 183.43 25.78C183.03 25.5467 182.7 25.25 182.44 24.89L183.05 24.39C183.324 24.73 183.61 24.9833 183.91 25.15C184.217 25.3167 184.58 25.4 185 25.4C185.507 25.4 185.894 25.2833 186.16 25.05C186.427 24.8167 186.56 24.49 186.56 24.07C186.56 23.73 186.464 23.4667 186.27 23.28C186.077 23.0867 185.74 22.95 185.26 22.87L184.48 22.74C184.14 22.68 183.854 22.59 183.62 22.47C183.394 22.35 183.21 22.2067 183.07 22.04C182.93 21.8667 182.83 21.68 182.77 21.48C182.71 21.2733 182.68 21.06 182.68 20.84C182.68 20.2 182.89 19.7167 183.31 19.39C183.73 19.0633 184.297 18.9 185.01 18.9C185.57 18.9 186.04 18.9933 186.42 19.18C186.807 19.3667 187.117 19.63 187.35 19.97L186.76 20.48C186.567 20.2267 186.334 20.02 186.06 19.86C185.787 19.7 185.434 19.62 185 19.62C184.527 19.62 184.164 19.72 183.91 19.92C183.657 20.12 183.53 20.42 183.53 20.82C183.53 21.1333 183.624 21.39 183.81 21.59C184.004 21.7833 184.347 21.9233 184.84 22.01L185.59 22.14C185.93 22.2 186.217 22.29 186.45 22.41C186.684 22.53 186.87 22.6733 187.01 22.84C187.157 23.0067 187.26 23.1933 187.32 23.4C187.38 23.6067 187.41 23.8233 187.41 24.05C187.41 24.6967 187.197 25.2033 186.77 25.57C186.35 25.9367 185.75 26.12 184.97 26.12ZM188.886 26V19.02H193.186V19.75H189.726V22.1H193.066V22.83H189.726V25.27H193.186V26H188.886ZM202.959 26.12C202.332 26.12 201.819 26.0067 201.419 25.78C201.019 25.5467 200.689 25.25 200.429 24.89L201.039 24.39C201.312 24.73 201.599 24.9833 201.899 25.15C202.205 25.3167 202.569 25.4 202.989 25.4C203.495 25.4 203.882 25.2833 204.149 25.05C204.415 24.8167 204.549 24.49 204.549 24.07C204.549 23.73 204.452 23.4667 204.259 23.28C204.065 23.0867 203.729 22.95 203.249 22.87L202.469 22.74C202.129 22.68 201.842 22.59 201.609 22.47C201.382 22.35 201.199 22.2067 201.059 22.04C200.919 21.8667 200.819 21.68 200.759 21.48C200.699 21.2733 200.669 21.06 200.669 20.84C200.669 20.2 200.879 19.7167 201.299 19.39C201.719 19.0633 202.285 18.9 202.999 18.9C203.559 18.9 204.029 18.9933 204.409 19.18C204.795 19.3667 205.105 19.63 205.339 19.97L204.749 20.48C204.555 20.2267 204.322 20.02 204.049 19.86C203.775 19.7 203.422 19.62 202.989 19.62C202.515 19.62 202.152 19.72 201.899 19.92C201.645 20.12 201.519 20.42 201.519 20.82C201.519 21.1333 201.612 21.39 201.799 21.59C201.992 21.7833 202.335 21.9233 202.829 22.01L203.579 22.14C203.919 22.2 204.205 22.29 204.439 22.41C204.672 22.53 204.859 22.6733 204.999 22.84C205.145 23.0067 205.249 23.1933 205.309 23.4C205.369 23.6067 205.399 23.8233 205.399 24.05C205.399 24.6967 205.185 25.2033 204.759 25.57C204.339 25.9367 203.739 26.12 202.959 26.12ZM208.555 26V23.26L206.145 19.02H207.105L208.105 20.84L208.955 22.43H208.995L209.865 20.84L210.865 19.02H211.805L209.395 23.26V26H208.555ZM214.951 26.12C214.324 26.12 213.811 26.0067 213.411 25.78C213.011 25.5467 212.681 25.25 212.421 24.89L213.031 24.39C213.304 24.73 213.591 24.9833 213.891 25.15C214.197 25.3167 214.561 25.4 214.981 25.4C215.487 25.4 215.874 25.2833 216.141 25.05C216.407 24.8167 216.541 24.49 216.541 24.07C216.541 23.73 216.444 23.4667 216.251 23.28C216.057 23.0867 215.721 22.95 215.241 22.87L214.461 22.74C214.121 22.68 213.834 22.59 213.601 22.47C213.374 22.35 213.191 22.2067 213.051 22.04C212.911 21.8667 212.811 21.68 212.751 21.48C212.691 21.2733 212.661 21.06 212.661 20.84C212.661 20.2 212.871 19.7167 213.291 19.39C213.711 19.0633 214.277 18.9 214.991 18.9C215.551 18.9 216.021 18.9933 216.401 19.18C216.787 19.3667 217.097 19.63 217.331 19.97L216.741 20.48C216.547 20.2267 216.314 20.02 216.041 19.86C215.767 19.7 215.414 19.62 214.981 19.62C214.507 19.62 214.144 19.72 213.891 19.92C213.637 20.12 213.511 20.42 213.511 20.82C213.511 21.1333 213.604 21.39 213.791 21.59C213.984 21.7833 214.327 21.9233 214.821 22.01L215.571 22.14C215.911 22.2 216.197 22.29 216.431 22.41C216.664 22.53 216.851 22.6733 216.991 22.84C217.137 23.0067 217.241 23.1933 217.301 23.4C217.361 23.6067 217.391 23.8233 217.391 24.05C217.391 24.6967 217.177 25.2033 216.751 25.57C216.331 25.9367 215.731 26.12 214.951 26.12ZM221.387 19.75V26H220.547V19.75H218.217V19.02H223.717V19.75H221.387ZM224.863 26V19.02H229.163V19.75H225.703V22.1H229.043V22.83H225.703V25.27H229.163V26H224.863ZM234.509 22.5V20.29H234.429L232.959 23.88L231.489 20.29H231.409V22.5V26H230.639V19.02H231.719L232.949 22.1H233.009L234.239 19.02H235.279V26H234.509V22.5ZM238.935 26.12C238.308 26.12 237.795 26.0067 237.395 25.78C236.995 25.5467 236.665 25.25 236.405 24.89L237.015 24.39C237.288 24.73 237.575 24.9833 237.875 25.15C238.182 25.3167 238.545 25.4 238.965 25.4C239.472 25.4 239.858 25.2833 240.125 25.05C240.392 24.8167 240.525 24.49 240.525 24.07C240.525 23.73 240.428 23.4667 240.235 23.28C240.042 23.0867 239.705 22.95 239.225 22.87L238.445 22.74C238.105 22.68 237.818 22.59 237.585 22.47C237.358 22.35 237.175 22.2067 237.035 22.04C236.895 21.8667 236.795 21.68 236.735 21.48C236.675 21.2733 236.645 21.06 236.645 20.84C236.645 20.2 236.855 19.7167 237.275 19.39C237.695 19.0633 238.262 18.9 238.975 18.9C239.535 18.9 240.005 18.9933 240.385 19.18C240.772 19.3667 241.082 19.63 241.315 19.97L240.725 20.48C240.532 20.2267 240.298 20.02 240.025 19.86C239.752 19.7 239.398 19.62 238.965 19.62C238.492 19.62 238.128 19.72 237.875 19.92C237.622 20.12 237.495 20.42 237.495 20.82C237.495 21.1333 237.588 21.39 237.775 21.59C237.968 21.7833 238.312 21.9233 238.805 22.01L239.555 22.14C239.895 22.2 240.182 22.29 240.415 22.41C240.648 22.53 240.835 22.6733 240.975 22.84C241.122 23.0067 241.225 23.1933 241.285 23.4C241.345 23.6067 241.375 23.8233 241.375 24.05C241.375 24.6967 241.162 25.2033 240.735 25.57C240.315 25.9367 239.715 26.12 238.935 26.12Z" fill="black"/>
<path d="M222.021 87.6394C222.437 88.2212 222.731 88.8398 222.882 89.4844L222.395 89.5987C222.464 89.8941 222.5 90.1948 222.5 90.5C222.5 90.8052 222.464 91.1059 222.395 91.4013L222.882 91.5156C222.731 92.1602 222.437 92.7788 222.021 93.3606L221.614 93.0696C221.269 93.5527 220.825 94.0154 220.293 94.448L220.609 94.836C220.106 95.2447 219.534 95.6232 218.902 95.9656L218.664 95.5261C218.111 95.8261 217.508 96.0987 216.862 96.339L217.036 96.8077C216.417 97.038 215.762 97.2388 215.076 97.4067L214.957 96.9211C214.329 97.075 213.673 97.2007 212.996 97.2951L213.065 97.7903C212.403 97.8826 211.722 97.9457 211.025 97.977L211.003 97.4775C210.672 97.4924 210.338 97.5 210 97.5C209.662 97.5 209.328 97.4924 208.997 97.4775L208.975 97.977C208.278 97.9457 207.597 97.8826 206.935 97.7903L207.004 97.2951C206.327 97.2007 205.671 97.075 205.043 96.9211L204.924 97.4067C204.238 97.2388 203.583 97.038 202.964 96.8077L203.138 96.339C202.492 96.0987 201.889 95.8261 201.336 95.5261L201.098 95.9656C200.466 95.6232 199.894 95.2447 199.391 94.8359L199.707 94.448C199.175 94.0154 198.731 93.5527 198.386 93.0696L197.979 93.3606C197.563 92.7788 197.269 92.1602 197.118 91.5156L197.605 91.4013C197.536 91.1059 197.5 90.8052 197.5 90.5C197.5 90.1948 197.536 89.8941 197.605 89.5987L197.118 89.4844C197.269 88.8398 197.563 88.2212 197.979 87.6394L198.386 87.9304C198.731 87.4473 199.175 86.9846 199.707 86.552L199.391 86.164C199.894 85.7553 200.466 85.3768 201.098 85.0344L201.336 85.4739C201.889 85.1739 202.492 84.9013 203.138 84.661L202.964 84.1923C203.583 83.962 204.238 83.7612 204.924 83.5933L205.043 84.0789C205.671 83.925 206.327 83.7993 207.004 83.7049L206.935 83.2097C207.597 83.1174 208.278 83.0543 208.975 83.023L208.997 83.5225C209.328 83.5076 209.662 83.5 210 83.5C210.338 83.5 210.672 83.5076 211.003 83.5225L211.025 83.023C211.722 83.0543 212.403 83.1174 213.065 83.2097L212.996 83.7049C213.673 83.7993 214.329 83.925 214.957 84.0789L215.076 83.5933C215.762 83.7612 216.417 83.962 217.036 84.1923L216.862 84.661C217.508 84.9013 218.111 85.1739 218.664 85.4739L218.902 85.0344C219.534 85.3768 220.106 85.7553 220.609 86.1641L220.293 86.552C220.825 86.9846 221.269 87.4473 221.614 87.9304L222.021 87.6394Z" fill="#E5E5E5" stroke="black" stroke-dasharray="2 2"/>
<g style="mix-blend-mode:lighten" opacity="0.6">
<path fill-rule="evenodd" clip-rule="evenodd" d="M160.127 41L187.199 45.1877L194.453 60.8166L194.398 60.8482L194.453 60.8566V71.8166L194.819 72.2168L194.453 72.4284V80.8043C198.632 78.6337 204.162 77.3128 210.227 77.3128C222.662 77.3128 232.85 82.8669 233.754 89.9124H233.793V90.2908C233.81 90.5035 233.819 90.7175 233.819 90.9327C233.819 91.1479 233.81 91.3619 233.793 91.5747V105.889H234C234 106.28 233.964 106.667 233.894 107.049L233.793 107.03V121.843C236.555 121.188 239.58 120.827 242.75 120.827C255.185 120.827 265.374 126.381 266.277 133.427H266.317V133.806C266.334 134.018 266.343 134.232 266.343 134.447C266.343 134.662 266.334 134.876 266.317 135.088V145.889H267C267 146.279 266.969 146.666 266.909 147.048L266.317 146.954V155.338C266.334 155.55 266.343 155.764 266.343 155.979C266.343 163.501 255.78 169.599 242.75 169.599C234.931 169.599 228.001 167.403 223.708 164.022L223.708 182.127L215.134 187.077V187.749H214.134V187.654L205.227 192.796V192.998L196.653 197.948V198.621H195.653V198.525L186.745 203.668V203.87L178.171 208.819V209.492H177.171V209.397L167.325 215.081L157.645 209.492H156.777V208.991L147.906 203.87V203.668L139.163 198.621H138.295V198.12L129.424 192.998L129.424 182.749L119.903 188.246V188.292H119.822L118.99 188.773L113.046 175.967L113.046 161.446L112.751 161.491L112.454 160.851L113.046 160.759L113.046 147.882L113 147.784L113 148.889L113 148.895V156.709L113 156.717L113 156.724V157.189H112.985C112.554 163.825 103.1 169.129 91.5 169.129C80.3106 169.129 71.1177 164.194 70.0946 157.889H70L70 156.718L70 156.717L70 156.716L70 147.891L70 147.889L70 135.892L70 135.889L70 123.889H70.0129C70.0043 123.745 70 123.6 70 123.455C70 123.259 70.0079 123.064 70.0234 122.871V122.525H70.0594C70.8831 116.104 80.1677 111.043 91.5 111.043C98.0657 111.043 103.944 112.742 107.888 115.42L107.888 85.4949L107.982 85.5091L107.888 85.3061L140.308 90.3212V90.1891L140.268 90.1954L139.814 89.2186L140.308 89.1422V77.1891L140.268 77.1954L139.814 76.2186L140.308 76.1422V64.4881L140.268 64.4944L139.814 63.5176L140.308 63.4411V52.501L140.338 52.5056L140.308 52.4411L160.127 41Z" fill="#FF2A50"/>
</g>
</svg>
