<svg width="338" height="563" viewBox="0 0 338 563" fill="none" xmlns="http://www.w3.org/2000/svg">
<g clip-path="url(#clip0_1861_609)">
<path d="M169.248 234.093L39.9725 308.172L39.9725 351.748L169.248 277.669L169.248 234.093Z" fill="#FF2A50"/>
<g opacity="0.4">
<path d="M169.248 308.172L298.524 382.252L298.524 425.828L169.248 351.748L169.248 308.172Z" fill="#FF2A50"/>
</g>
<path d="M298.202 382.252L168.926 456.331L168.926 499.907L298.202 425.828L298.202 382.252Z" fill="#FF2A50"/>
<path d="M298.202 308.172L168.926 382.252L168.926 425.828L298.202 351.748L298.202 308.172Z" fill="#FF2A50"/>
<path d="M169.248 308.172L39.9725 382.252L39.9725 425.828L169.248 351.748L169.248 308.172Z" fill="#FF2A50"/>
<g opacity="0.4">
<path d="M39.9723 382.252L169.248 456.331L169.248 499.907L39.9723 425.828L39.9723 382.252Z" fill="#FF2A50"/>
</g>
<g opacity="0.4">
<path d="M39.9723 308.172L169.248 382.252L169.248 425.828L39.9723 351.748L39.9723 308.172Z" fill="#FF2A50"/>
</g>
<g opacity="0.4">
<path d="M169.248 234.093L298.524 308.172L298.524 351.748L169.248 277.669L169.248 234.093Z" fill="#FF2A50"/>
</g>
<text fill="black" xml:space="preserve" style="white-space: pre" font-family="monospace" font-size="10" letter-spacing="0em"><tspan x="151.012" y="547.25">PEOPLE</tspan></text>
<text fill="black" xml:space="preserve" style="white-space: pre" font-family="monospace" font-size="10" letter-spacing="0em"><tspan x="40.0117" y="547.25">SKILLS</tspan></text>
<text fill="black" xml:space="preserve" style="white-space: pre" font-family="monospace" font-size="10" letter-spacing="0em"><tspan x="274.016" y="547.25">TECH</tspan></text>
<path d="M40.25 160L40.25 426" stroke="black" stroke-width="0.5" stroke-dasharray="2 2"/>
<line x1="298.25" y1="160" x2="298.25" y2="425" stroke="black" stroke-width="0.5" stroke-dasharray="2 2"/>
<line x1="169.25" y1="234" x2="169.25" y2="496" stroke="black" stroke-width="0.5" stroke-dasharray="2 2"/>
<rect y="0.499967" width="148.212" height="148.212" transform="matrix(0.866044 0.499967 -0.866044 0.499967 169.657 277.675)" stroke="black"/>
<rect y="0.499967" width="148.212" height="148.212" transform="matrix(0.866044 0.499967 -0.866044 0.499967 169.657 202.462)" stroke="black"/>
<rect y="0.499967" width="148.212" height="148.212" transform="matrix(0.866044 0.499967 -0.866044 0.499967 169.657 255.675)" stroke="black" stroke-dasharray="2 2"/>
<rect y="0.499967" width="148.212" height="148.212" transform="matrix(0.866044 0.499967 -0.866044 0.499967 169.657 180.462)" stroke="black" stroke-dasharray="2 2"/>
<rect y="0.499967" width="148.212" height="148.212" transform="matrix(0.866044 0.499967 -0.866044 0.499967 169.657 331.871)" stroke="black" stroke-dasharray="2 2"/>
<rect y="0.499967" width="148.212" height="148.212" transform="matrix(0.866044 0.499967 -0.866044 0.499967 169.657 351.25)" stroke="black"/>
<rect y="0.499967" width="148.212" height="148.212" transform="matrix(0.866044 0.499967 -0.866044 0.499967 169.657 307.777)" stroke="black"/>
<rect y="0.499967" width="148.212" height="148.212" transform="matrix(0.866044 0.499967 -0.866044 0.499967 169.657 233.463)" stroke="black"/>
<rect y="0.499967" width="148.212" height="148.212" transform="matrix(0.866044 0.499967 -0.866044 0.499967 169.657 158.25)" stroke="black"/>
<rect y="0.499967" width="148.212" height="148.212" transform="matrix(0.866044 0.499967 -0.866044 0.499967 169.657 127.462)" stroke="black"/>
<rect y="0.499967" width="148.212" height="148.212" transform="matrix(0.866044 0.499967 -0.866044 0.499967 169.657 105.462)" stroke="black" stroke-dasharray="2 2"/>
<rect y="0.499967" width="148.212" height="148.212" transform="matrix(0.866044 0.499967 -0.866044 0.499967 169.657 85.25)" fill="black" stroke="black"/>
<path d="M140.845 126.844L140.845 53.1429L193.916 61.3328L193.916 134.901L174.411 146.162L147.909 142.062L140.845 126.844Z" fill="white" stroke="black"/>
<path d="M140.95 52.7937L160.351 41.5937L186.852 45.6932L193.811 60.6864L174.411 71.8863L147.909 67.7869L140.95 52.7937Z" fill="#E5E5E5" stroke="black"/>
<path d="M194.453 71.9278L174.635 83.3689L147.562 79.1811L140.308 63.5523" stroke="black" stroke-dasharray="2 2"/>
<path d="M194.453 84.6288L174.635 96.0699L147.562 91.8822L140.308 76.2534" stroke="black" stroke-dasharray="2 2"/>
<path d="M194.453 97.6288L174.635 109.07L147.562 104.882L140.308 89.2534" stroke="black" stroke-dasharray="2 2"/>
<path d="M174.544 146.121L174.544 72.2167" stroke="black"/>
<path d="M147.817 131.154L147.817 67.0095" stroke="black"/>
<path d="M186.66 88.0236H233.793V143.115H186.66V88.0236Z" fill="white"/>
<line x1="233.5" y1="142.454" x2="233.5" y2="89" stroke="black"/>
<path d="M233.319 89.0439C233.319 92.5507 230.853 95.8206 226.659 98.2417C222.478 100.655 216.67 102.164 210.227 102.164C203.783 102.164 197.975 100.655 193.794 98.2417C189.6 95.8206 187.134 92.5507 187.134 89.0439C187.134 85.5371 189.6 82.2673 193.794 79.8462C197.975 77.4327 203.783 75.924 210.227 75.924C216.67 75.924 222.478 77.4327 226.659 79.8462C230.853 82.2673 233.319 85.5371 233.319 89.0439Z" fill="#E5E5E5" stroke="black"/>
<path d="M233 104C233 110.075 222.703 115 210 115C197.297 115 187 110.075 187 104" stroke="black" stroke-dasharray="2 2"/>
<line x1="187.149" y1="142.776" x2="187.149" y2="89.322" stroke="black"/>
<path d="M222.021 85.6394C222.437 86.2212 222.731 86.8398 222.882 87.4844L222.395 87.5987C222.464 87.8941 222.5 88.1948 222.5 88.5C222.5 88.8052 222.464 89.1059 222.395 89.4013L222.882 89.5156C222.731 90.1602 222.437 90.7788 222.021 91.3606L221.614 91.0696C221.269 91.5527 220.825 92.0154 220.293 92.448L220.609 92.836C220.106 93.2447 219.534 93.6232 218.902 93.9656L218.664 93.5261C218.111 93.8261 217.508 94.0987 216.862 94.339L217.036 94.8077C216.417 95.038 215.762 95.2388 215.076 95.4067L214.957 94.9211C214.329 95.075 213.673 95.2007 212.996 95.2951L213.065 95.7903C212.403 95.8826 211.722 95.9457 211.025 95.977L211.003 95.4775C210.672 95.4924 210.338 95.5 210 95.5C209.662 95.5 209.328 95.4924 208.997 95.4775L208.975 95.977C208.278 95.9457 207.597 95.8826 206.935 95.7903L207.004 95.2951C206.327 95.2007 205.671 95.075 205.043 94.9211L204.924 95.4067C204.238 95.2388 203.583 95.038 202.964 94.8077L203.138 94.339C202.492 94.0987 201.889 93.8261 201.336 93.5261L201.098 93.9656C200.466 93.6232 199.894 93.2447 199.391 92.8359L199.707 92.448C199.175 92.0154 198.731 91.5527 198.386 91.0696L197.979 91.3606C197.563 90.7788 197.269 90.1602 197.118 89.5156L197.605 89.4013C197.536 89.1059 197.5 88.8052 197.5 88.5C197.5 88.1948 197.536 87.8941 197.605 87.5987L197.118 87.4844C197.269 86.8398 197.563 86.2212 197.979 85.6394L198.386 85.9304C198.731 85.4473 199.175 84.9846 199.707 84.552L199.391 84.164C199.894 83.7553 200.466 83.3768 201.098 83.0344L201.336 83.4739C201.889 83.1739 202.492 82.9013 203.138 82.661L202.964 82.1923C203.583 81.962 204.238 81.7612 204.924 81.5933L205.043 82.0789C205.671 81.925 206.327 81.7993 207.004 81.7049L206.935 81.2097C207.597 81.1174 208.278 81.0543 208.975 81.023L208.997 81.5225C209.328 81.5076 209.662 81.5 210 81.5C210.338 81.5 210.672 81.5076 211.003 81.5225L211.025 81.023C211.722 81.0543 212.403 81.1174 213.065 81.2097L212.996 81.7049C213.673 81.7993 214.329 81.925 214.957 82.0789L215.076 81.5933C215.762 81.7612 216.417 81.962 217.036 82.1923L216.862 82.661C217.508 82.9013 218.111 83.1739 218.664 83.4739L218.902 83.0344C219.534 83.3768 220.106 83.7553 220.609 84.1641L220.293 84.552C220.825 84.9846 221.269 85.4473 221.614 85.9304L222.021 85.6394Z" fill="white" stroke="black" stroke-dasharray="2 2"/>
<path d="M174.152 95.9623L174.152 147.079L126.124 174.806L108.5 136.834L108.5 86.0638L174.152 95.9623Z" fill="#E5E5E5" stroke="black"/>
<path d="M126.239 173.834L126.239 123.418" stroke="black"/>
<path d="M126.124 123.342L108.754 85.9173L173.581 95.9453L126.124 123.342Z" fill="#E5E5E5" stroke="black"/>
<path d="M126.124 123.342L108.754 85.9173L173.581 95.9453L126.124 123.342Z" fill="white" stroke="black"/>
<path d="M237.319 144.648C237.319 148.155 234.853 151.425 230.659 153.846C226.478 156.26 220.67 157.768 214.227 157.768C207.783 157.768 201.975 156.26 197.794 153.846C193.6 151.425 191.134 148.155 191.134 144.648C191.134 141.142 193.6 137.872 197.794 135.451C201.975 133.037 207.783 131.528 214.227 131.528C220.67 131.528 226.478 133.037 230.659 135.451C234.853 137.872 237.319 141.142 237.319 144.648Z" fill="white" stroke="black"/>
<path d="M265.843 156.09C265.843 159.597 263.376 162.867 259.182 165.288C255.002 167.702 249.193 169.21 242.75 169.21C236.307 169.21 230.498 167.702 226.318 165.288C222.124 162.867 219.658 159.597 219.658 156.09C219.658 152.584 222.124 149.314 226.318 146.893C230.498 144.479 236.307 142.97 242.75 142.97C249.193 142.97 255.002 144.479 259.182 146.893C263.376 149.314 265.843 152.584 265.843 156.09Z" fill="white" stroke="black"/>
<rect x="219.183" y="133.538" width="47.1337" height="23.0188" fill="white"/>
<path d="M265.685 134.558C265.685 138.065 263.219 141.335 259.025 143.756C254.844 146.17 249.036 147.678 242.593 147.678C236.149 147.678 230.341 146.17 226.16 143.756C221.966 141.335 219.5 138.065 219.5 134.558C219.5 131.052 221.966 127.782 226.16 125.361C230.341 122.947 236.149 121.438 242.593 121.438C249.036 121.438 254.844 122.947 259.025 125.361C263.219 127.782 265.685 131.052 265.685 134.558Z" fill="#E5E5E5" stroke="black"/>
<line x1="265.817" y1="156.557" x2="265.817" y2="133.538" stroke="black"/>
<line x1="219.779" y1="156.557" x2="219.779" y2="133.538" stroke="black"/>
<path d="M266 146C266 152.627 255.703 158 243 158C230.297 158 220 152.627 220 146" stroke="black" stroke-dasharray="2 2"/>
<path d="M255.011 130.989C255.433 131.604 255.729 132.256 255.882 132.936L255.394 133.045C255.464 133.358 255.5 133.677 255.5 134C255.5 134.323 255.464 134.642 255.394 134.955L255.882 135.064C255.729 135.744 255.433 136.396 255.011 137.011L254.599 136.728C254.244 137.246 253.788 137.741 253.241 138.204L253.564 138.585C253.044 139.025 252.453 139.431 251.799 139.8L251.553 139.364C250.978 139.688 250.35 139.983 249.677 140.242L249.857 140.709C249.211 140.958 248.528 141.175 247.812 141.357L247.689 140.872C247.032 141.039 246.346 141.175 245.637 141.278L245.709 141.773C245.016 141.873 244.303 141.941 243.573 141.975L243.55 141.476C243.204 141.492 242.854 141.5 242.5 141.5C242.146 141.5 241.796 141.492 241.45 141.476L241.427 141.975C240.697 141.941 239.984 141.873 239.291 141.773L239.363 141.278C238.654 141.175 237.968 141.039 237.311 140.872L237.188 141.357C236.472 141.175 235.789 140.958 235.143 140.709L235.323 140.242C234.65 139.983 234.022 139.688 233.447 139.364L233.201 139.8C232.547 139.431 231.956 139.025 231.436 138.585L231.759 138.204C231.212 137.741 230.756 137.246 230.401 136.728L229.989 137.011C229.567 136.396 229.271 135.744 229.118 135.064L229.606 134.955C229.536 134.642 229.5 134.323 229.5 134C229.5 133.677 229.536 133.358 229.606 133.045L229.118 132.936C229.271 132.256 229.567 131.604 229.989 130.989L230.401 131.272C230.756 130.754 231.212 130.259 231.759 129.796L231.436 129.415C231.956 128.975 232.547 128.569 233.201 128.2L233.447 128.636C234.022 128.312 234.65 128.017 235.323 127.758L235.143 127.291C235.789 127.042 236.472 126.825 237.188 126.643L237.311 127.128C237.968 126.961 238.654 126.825 239.363 126.722L239.291 126.227C239.984 126.127 240.697 126.059 241.427 126.025L241.45 126.524C241.796 126.508 242.146 126.5 242.5 126.5C242.854 126.5 243.204 126.508 243.55 126.524L243.573 126.025C244.303 126.059 245.016 126.127 245.709 126.227L245.637 126.722C246.346 126.825 247.032 126.961 247.689 127.128L247.812 126.643C248.528 126.825 249.211 127.042 249.857 127.291L249.677 127.758C250.35 128.017 250.978 128.312 251.553 128.636L251.799 128.2C252.453 128.569 253.044 128.975 253.564 129.415L253.241 129.796C253.788 130.259 254.244 130.754 254.599 131.272L255.011 130.989Z" fill="#E5E5E5" stroke="black" stroke-dasharray="2 2"/>
<path d="M112.5 156.828C112.5 160.001 110.268 162.969 106.453 165.171C102.651 167.366 97.3653 168.74 91.5 168.74C85.6347 168.74 80.3491 167.366 76.5472 165.171C72.732 162.969 70.5 160.001 70.5 156.828C70.5 153.655 72.732 150.687 76.5472 148.484C80.3491 146.289 85.6347 144.916 91.5 144.916C97.3653 144.916 102.651 146.289 106.453 148.484C110.268 150.687 112.5 153.655 112.5 156.828Z" fill="#E5E5E5" stroke="black"/>
<path d="M70.0234 122.636H112.977V157.253H70.0234V122.636Z" fill="#E5E5E5"/>
<path d="M112.5 123.566C112.5 126.739 110.268 129.707 106.453 131.909C102.651 134.104 97.3653 135.478 91.5 135.478C85.6347 135.478 80.3491 134.104 76.5472 131.909C72.732 129.707 70.5 126.739 70.5 123.566C70.5 120.393 72.732 117.425 76.5472 115.222C80.3491 113.027 85.6347 111.654 91.5 111.654C97.3653 111.654 102.651 113.027 106.453 115.222C110.268 117.425 112.5 120.393 112.5 123.566Z" fill="white" stroke="black"/>
<line x1="112.5" y1="157.3" x2="112.5" y2="124" stroke="black"/>
<line x1="70.5" y1="158" x2="70.5" y2="124" stroke="black"/>
<path d="M112 136C112 141.523 102.822 146 91.5 146C80.1782 146 71 141.523 71 136" stroke="black" stroke-dasharray="2 2"/>
<path d="M112 150.1C112 155.568 102.822 160 91.5 160C80.1782 160 71 154.468 71 149" stroke="black" stroke-dasharray="2 2"/>
<path d="M102.115 119.996C102.491 120.503 102.756 121.044 102.893 121.608L102.407 121.726C102.468 121.98 102.5 122.238 102.5 122.5C102.5 122.762 102.468 123.02 102.407 123.274L102.893 123.392C102.756 123.956 102.491 124.497 102.115 125.004L101.713 124.707C101.408 125.121 101.016 125.518 100.544 125.89L100.854 126.282C100.407 126.634 99.8998 126.96 99.3403 127.255L99.1072 126.813C98.6205 127.069 98.0901 127.303 97.5219 127.508L97.692 127.978C97.146 128.176 96.5686 128.348 95.965 128.492L95.849 128.006C95.2974 128.137 94.7223 128.244 94.1279 128.325L94.1952 128.821C93.6132 128.899 93.0141 128.953 92.4014 128.98L92.3795 128.481C92.0894 128.494 91.7961 128.5 91.5 128.5C91.2039 128.5 90.9106 128.494 90.6205 128.481L90.5986 128.98C89.9859 128.953 89.3868 128.899 88.8048 128.821L88.8721 128.325C88.2777 128.244 87.7026 128.137 87.151 128.006L87.035 128.492C86.4314 128.348 85.854 128.176 85.308 127.978L85.4782 127.508C84.9099 127.303 84.3795 127.069 83.8928 126.813L83.6597 127.255C83.1002 126.96 82.5928 126.634 82.1461 126.282L82.4558 125.89C81.9844 125.518 81.5925 125.121 81.2867 124.707L80.8847 125.004C80.5091 124.497 80.2444 123.956 80.1075 123.392L80.5933 123.274C80.5317 123.02 80.5 122.762 80.5 122.5C80.5 122.238 80.5317 121.98 80.5933 121.726L80.1075 121.608C80.2444 121.044 80.5091 120.503 80.8847 119.996L81.2867 120.293C81.5925 119.879 81.9844 119.482 82.4558 119.11L82.1461 118.718C82.5928 118.366 83.1002 118.04 83.6597 117.745L83.8928 118.187C84.3795 117.931 84.9099 117.697 85.4781 117.492L85.308 117.022C85.854 116.824 86.4314 116.652 87.035 116.508L87.151 116.994C87.7026 116.863 88.2777 116.756 88.8721 116.675L88.8048 116.179C89.3868 116.101 89.9859 116.047 90.5986 116.02L90.6205 116.519C90.9106 116.506 91.2039 116.5 91.5 116.5C91.7961 116.5 92.0894 116.506 92.3795 116.519L92.4014 116.02C93.0141 116.047 93.6132 116.101 94.1952 116.179L94.1279 116.675C94.7223 116.756 95.2974 116.863 95.849 116.994L95.965 116.508C96.5686 116.652 97.146 116.824 97.692 117.022L97.5218 117.492C98.0901 117.697 98.6205 117.931 99.1072 118.187L99.3403 117.745C99.8998 118.04 100.407 118.366 100.854 118.718L100.544 119.11C101.016 119.482 101.408 119.879 101.713 120.293L102.115 119.996Z" fill="#E5E5E5" stroke="black" stroke-dasharray="2 2"/>
<path d="M134.616 146.297L134.616 179.363L119.307 188.201L113.658 176.031L113.658 143.137L134.616 146.297Z" fill="#E5E5E5" stroke="black"/>
<path d="M119.306 154.814L113.912 143.191L134.045 146.305L119.306 154.814Z" fill="white" stroke="black"/>
<path d="M119.403 188.403L119.403 154.579" stroke="black"/>
<path d="M186.047 124.474L186.12 124.479L186.194 124.474L220.73 122.067L220.73 160.104L186.12 180.084L151.511 160.104L151.511 122.067L186.047 124.474Z" fill="#E5E5E5" stroke="black"/>
<rect y="0.499967" width="39.6697" height="39.6697" transform="matrix(0.866044 0.499967 -0.866044 0.499967 186.553 101.584)" fill="#D9D9D9" stroke="black"/>
<path d="M186.12 101.834L220.476 121.668L186.12 141.502L151.765 121.668L186.12 101.834Z" fill="white" stroke="black"/>
<line x1="186.013" y1="140.706" x2="186.013" y2="179.583" stroke="black"/>
<line x1="167.488" y1="130.537" x2="167.488" y2="170.447" stroke="black" stroke-dasharray="2 2"/>
<line x1="204.478" y1="130.537" x2="204.478" y2="170.447" stroke="black" stroke-dasharray="2 2"/>
<path d="M168.935 111.069L203.292 130.904" stroke="black" stroke-linejoin="round" stroke-dasharray="2 2"/>
<path d="M151.413 141.271L185.771 161.106" stroke="black" stroke-linejoin="round" stroke-dasharray="2 2"/>
<path d="M202.318 111.069L167.962 130.905" stroke="black" stroke-linejoin="round" stroke-dasharray="2 2"/>
<path d="M220.813 141.245L186.457 161.081" stroke="black" stroke-linejoin="round" stroke-dasharray="2 2"/>
<path d="M167.252 162.67L167.325 162.675L167.399 162.67L186.133 161.364L186.133 182.092L167.325 192.949L148.518 182.092L148.518 161.364L167.252 162.67Z" fill="#E5E5E5" stroke="black"/>
<rect y="0.499967" width="21.4235" height="21.4235" transform="matrix(0.866044 0.499967 -0.866044 0.499967 167.758 150.005)" fill="#D9D9D9" stroke="black"/>
<path d="M167.325 150.255L185.879 160.966L167.325 171.677L148.772 160.966L167.325 150.255Z" fill="white" stroke="black"/>
<line x1="167.491" y1="171.462" x2="167.491" y2="192.898" stroke="black"/>
<line x1="157.277" y1="165.856" x2="157.277" y2="187.861" stroke="black" stroke-dasharray="2 2"/>
<line x1="177.671" y1="165.856" x2="177.671" y2="187.861" stroke="black" stroke-dasharray="2 2"/>
<path d="M157.85 155.122L176.793 166.058" stroke="black" stroke-linejoin="round" stroke-dasharray="2 2"/>
<path d="M148.189 171.223L167.133 182.159" stroke="black" stroke-linejoin="round" stroke-dasharray="2 2"/>
<path d="M176.256 155.122L157.313 166.058" stroke="black" stroke-linejoin="round" stroke-dasharray="2 2"/>
<path d="M186.453 171.759L167.511 182.696" stroke="black" stroke-linejoin="round" stroke-dasharray="2 2"/>
<path d="M204.215 162.67L204.288 162.675L204.362 162.67L223.096 161.364L223.096 182.092L204.288 192.949L185.481 182.092L185.481 161.364L204.215 162.67Z" fill="#E5E5E5" stroke="black"/>
<rect y="0.499967" width="21.4235" height="21.4235" transform="matrix(0.866044 0.499967 -0.866044 0.499967 204.721 150.005)" fill="#D9D9D9" stroke="black"/>
<path d="M204.288 150.255L222.842 160.966L204.288 171.677L185.735 160.966L204.288 150.255Z" fill="white" stroke="black"/>
<line x1="204.453" y1="171.462" x2="204.453" y2="192.898" stroke="black"/>
<line x1="194.24" y1="165.856" x2="194.24" y2="187.861" stroke="black" stroke-dasharray="2 2"/>
<line x1="214.634" y1="165.856" x2="214.634" y2="187.861" stroke="black" stroke-dasharray="2 2"/>
<path d="M194.813 155.122L213.756 166.058" stroke="black" stroke-linejoin="round" stroke-dasharray="2 2"/>
<path d="M185.152 171.223L204.095 182.159" stroke="black" stroke-linejoin="round" stroke-dasharray="2 2"/>
<path d="M213.219 155.122L194.276 166.058" stroke="black" stroke-linejoin="round" stroke-dasharray="2 2"/>
<path d="M223.416 171.759L204.474 182.696" stroke="black" stroke-linejoin="round" stroke-dasharray="2 2"/>
<path d="M185.733 173.542L185.807 173.547L185.88 173.542L204.614 172.236L204.614 192.963L185.807 203.821L166.999 192.963L166.999 172.236L185.733 173.542Z" fill="#E5E5E5" stroke="black"/>
<rect y="0.499967" width="21.4235" height="21.4235" transform="matrix(0.866044 0.499967 -0.866044 0.499967 186.24 160.876)" fill="#D9D9D9" stroke="black"/>
<path d="M185.807 161.126L204.361 171.837L185.807 182.548L167.253 171.837L185.807 161.126Z" fill="white" stroke="black"/>
<line x1="185.972" y1="182.334" x2="185.972" y2="203.769" stroke="black"/>
<line x1="175.758" y1="176.727" x2="175.758" y2="198.732" stroke="black" stroke-dasharray="2 2"/>
<line x1="196.153" y1="176.727" x2="196.153" y2="198.732" stroke="black" stroke-dasharray="2 2"/>
<path d="M176.331 165.993L195.275 176.929" stroke="black" stroke-linejoin="round" stroke-dasharray="2 2"/>
<path d="M166.671 182.094L185.614 193.03" stroke="black" stroke-linejoin="round" stroke-dasharray="2 2"/>
<path d="M194.738 165.993L175.795 176.93" stroke="black" stroke-linejoin="round" stroke-dasharray="2 2"/>
<path d="M204.935 182.631L185.992 193.568" stroke="black" stroke-linejoin="round" stroke-dasharray="2 2"/>
<path d="M148.77 173.542L148.844 173.547L148.917 173.542L167.651 172.236L167.651 192.963L148.844 203.821L130.037 192.963L130.037 172.236L148.77 173.542Z" fill="#E5E5E5" stroke="black"/>
<rect y="0.499967" width="21.4235" height="21.4235" transform="matrix(0.866044 0.499967 -0.866044 0.499967 149.277 160.876)" fill="#D9D9D9" stroke="black"/>
<path d="M148.844 161.126L167.398 171.837L148.844 182.548L130.29 171.837L148.844 161.126Z" fill="white" stroke="black"/>
<line x1="149.009" y1="182.334" x2="149.009" y2="203.769" stroke="black"/>
<line x1="138.795" y1="176.727" x2="138.795" y2="198.732" stroke="black" stroke-dasharray="2 2"/>
<line x1="159.19" y1="176.727" x2="159.19" y2="198.732" stroke="black" stroke-dasharray="2 2"/>
<path d="M139.368 165.993L158.312 176.929" stroke="black" stroke-linejoin="round" stroke-dasharray="2 2"/>
<path d="M129.708 182.094L148.651 193.03" stroke="black" stroke-linejoin="round" stroke-dasharray="2 2"/>
<path d="M157.775 165.993L138.832 176.93" stroke="black" stroke-linejoin="round" stroke-dasharray="2 2"/>
<path d="M167.972 182.631L149.029 193.568" stroke="black" stroke-linejoin="round" stroke-dasharray="2 2"/>
<path d="M167.252 184.413L167.325 184.418L167.399 184.413L186.133 183.107L186.133 203.835L167.325 214.692L148.518 203.835L148.518 183.107L167.252 184.413Z" fill="#E5E5E5" stroke="black"/>
<rect y="0.499967" width="21.4235" height="21.4235" transform="matrix(0.866044 0.499967 -0.866044 0.499967 167.758 171.748)" fill="#D9D9D9" stroke="black"/>
<path d="M167.325 171.997L185.879 182.709L167.325 193.42L148.772 182.709L167.325 171.997Z" fill="white" stroke="black"/>
<line x1="167.491" y1="193.205" x2="167.491" y2="214.64" stroke="black"/>
<line x1="157.277" y1="187.599" x2="157.277" y2="209.604" stroke="black" stroke-dasharray="2 2"/>
<line x1="177.671" y1="187.599" x2="177.671" y2="209.604" stroke="black" stroke-dasharray="2 2"/>
<path d="M157.85 176.865L176.793 187.801" stroke="black" stroke-linejoin="round" stroke-dasharray="2 2"/>
<path d="M148.189 192.966L167.133 203.902" stroke="black" stroke-linejoin="round" stroke-dasharray="2 2"/>
<path d="M176.256 176.865L157.313 187.801" stroke="black" stroke-linejoin="round" stroke-dasharray="2 2"/>
<path d="M186.453 193.502L167.511 204.439" stroke="black" stroke-linejoin="round" stroke-dasharray="2 2"/>
<path d="M196.5 485V490.5H192.5V485V484.793L192.354 484.646L191.5 483.793V481C191.5 480.172 192.172 479.5 193 479.5H196C196.828 479.5 197.5 480.172 197.5 481V483.793L196.646 484.646L196.5 484.793V485Z" fill="white" stroke="black"/>
<circle cx="194.5" cy="477.5" r="1.5" fill="white" stroke="black"/>
<line x1="194.5" y1="485" x2="194.5" y2="491" stroke="black"/>
<path d="M201.5 488V493.5H197.5V488V487.793L197.354 487.646L196.5 486.793V484C196.5 483.172 197.172 482.5 198 482.5H201C201.828 482.5 202.5 483.172 202.5 484V486.793L201.646 487.646L201.5 487.793V488Z" fill="white" stroke="black"/>
<circle cx="199.5" cy="480.5" r="1.5" fill="white" stroke="black"/>
<line x1="199.5" y1="488" x2="199.5" y2="494" stroke="black"/>
<path d="M191.5 488V493.5H187.5V488V487.793L187.354 487.646L186.5 486.793V484C186.5 483.172 187.172 482.5 188 482.5H191C191.828 482.5 192.5 483.172 192.5 484V486.793L191.646 487.646L191.5 487.793V488Z" fill="white" stroke="black"/>
<circle cx="189.5" cy="480.5" r="1.5" fill="white" stroke="black"/>
<line x1="189.5" y1="488" x2="189.5" y2="494" stroke="black"/>
<path d="M186.5 491V496.5H182.5V491V490.793L182.354 490.646L181.5 489.793V487C181.5 486.172 182.172 485.5 183 485.5H186C186.828 485.5 187.5 486.172 187.5 487V489.793L186.646 490.646L186.5 490.793V491Z" fill="white" stroke="black"/>
<circle cx="184.5" cy="483.5" r="1.5" fill="white" stroke="black"/>
<line x1="184.5" y1="491" x2="184.5" y2="497" stroke="black"/>
<path d="M206.5 491V496.5H202.5V491V490.793L202.354 490.646L201.5 489.793V487C201.5 486.172 202.172 485.5 203 485.5H206C206.828 485.5 207.5 486.172 207.5 487V489.793L206.646 490.646L206.5 490.793V491Z" fill="white" stroke="black"/>
<circle cx="204.5" cy="483.5" r="1.5" fill="white" stroke="black"/>
<line x1="204.5" y1="491" x2="204.5" y2="497" stroke="black"/>
<path d="M196.5 491V496.5H192.5V491V490.793L192.354 490.646L191.5 489.793V487C191.5 486.172 192.172 485.5 193 485.5H196C196.828 485.5 197.5 486.172 197.5 487V489.793L196.646 490.646L196.5 490.793V491Z" fill="white" stroke="black"/>
<circle cx="194.5" cy="483.5" r="1.5" fill="white" stroke="black"/>
<line x1="194.5" y1="491" x2="194.5" y2="497" stroke="black"/>
<path d="M181.5 494V499.5H177.5V494V493.793L177.354 493.646L176.5 492.793V490C176.5 489.172 177.172 488.5 178 488.5H181C181.828 488.5 182.5 489.172 182.5 490V492.793L181.646 493.646L181.5 493.793V494Z" fill="white" stroke="black"/>
<circle cx="179.5" cy="486.5" r="1.5" fill="white" stroke="black"/>
<line x1="179.5" y1="494" x2="179.5" y2="500" stroke="black"/>
<path d="M191.5 494V499.5H187.5V494V493.793L187.354 493.646L186.5 492.793V490C186.5 489.172 187.172 488.5 188 488.5H191C191.828 488.5 192.5 489.172 192.5 490V492.793L191.646 493.646L191.5 493.793V494Z" fill="white" stroke="black"/>
<circle cx="189.5" cy="486.5" r="1.5" fill="white" stroke="black"/>
<line x1="189.5" y1="494" x2="189.5" y2="500" stroke="black"/>
<path d="M211.5 494V499.5H207.5V494V493.793L207.354 493.646L206.5 492.793V490C206.5 489.172 207.172 488.5 208 488.5H211C211.828 488.5 212.5 489.172 212.5 490V492.793L211.646 493.646L211.5 493.793V494Z" fill="white" stroke="black"/>
<circle cx="209.5" cy="486.5" r="1.5" fill="white" stroke="black"/>
<line x1="209.5" y1="494" x2="209.5" y2="500" stroke="black"/>
<path d="M201.5 494V499.5H197.5V494V493.793L197.354 493.646L196.5 492.793V490C196.5 489.172 197.172 488.5 198 488.5H201C201.828 488.5 202.5 489.172 202.5 490V492.793L201.646 493.646L201.5 493.793V494Z" fill="white" stroke="black"/>
<circle cx="199.5" cy="486.5" r="1.5" fill="white" stroke="black"/>
<line x1="199.5" y1="494" x2="199.5" y2="500" stroke="black"/>
<path d="M186.5 497V502.5H182.5V497V496.793L182.354 496.646L181.5 495.793V493C181.5 492.172 182.172 491.5 183 491.5H186C186.828 491.5 187.5 492.172 187.5 493V495.793L186.646 496.646L186.5 496.793V497Z" fill="white" stroke="black"/>
<circle cx="184.5" cy="489.5" r="1.5" fill="white" stroke="black"/>
<line x1="184.5" y1="497" x2="184.5" y2="503" stroke="black"/>
<path d="M176.5 497V502.5H172.5V497V496.793L172.354 496.646L171.5 495.793V493C171.5 492.172 172.172 491.5 173 491.5H176C176.828 491.5 177.5 492.172 177.5 493V495.793L176.646 496.646L176.5 496.793V497Z" fill="white" stroke="black"/>
<circle cx="174.5" cy="489.5" r="1.5" fill="white" stroke="black"/>
<line x1="174.5" y1="497" x2="174.5" y2="503" stroke="black"/>
<path d="M206.5 497V502.5H202.5V497V496.793L202.354 496.646L201.5 495.793V493C201.5 492.172 202.172 491.5 203 491.5H206C206.828 491.5 207.5 492.172 207.5 493V495.793L206.646 496.646L206.5 496.793V497Z" fill="white" stroke="black"/>
<circle cx="204.5" cy="489.5" r="1.5" fill="white" stroke="black"/>
<line x1="204.5" y1="497" x2="204.5" y2="503" stroke="black"/>
<path d="M216.5 497V502.5H212.5V497V496.793L212.354 496.646L211.5 495.793V493C211.5 492.172 212.172 491.5 213 491.5H216C216.828 491.5 217.5 492.172 217.5 493V495.793L216.646 496.646L216.5 496.793V497Z" fill="white" stroke="black"/>
<circle cx="214.5" cy="489.5" r="1.5" fill="white" stroke="black"/>
<line x1="214.5" y1="497" x2="214.5" y2="503" stroke="black"/>
<path d="M196.5 497V502.5H192.5V497V496.793L192.354 496.646L191.5 495.793V493C191.5 492.172 192.172 491.5 193 491.5H196C196.828 491.5 197.5 492.172 197.5 493V495.793L196.646 496.646L196.5 496.793V497Z" fill="white" stroke="black"/>
<circle cx="194.5" cy="489.5" r="1.5" fill="white" stroke="black"/>
<line x1="194.5" y1="497" x2="194.5" y2="503" stroke="black"/>
<path d="M201.5 500V505.5H197.5V500V499.793L197.354 499.646L196.5 498.793V496C196.5 495.172 197.172 494.5 198 494.5H201C201.828 494.5 202.5 495.172 202.5 496V498.793L201.646 499.646L201.5 499.793V500Z" fill="white" stroke="black"/>
<circle cx="199.5" cy="492.5" r="1.5" fill="white" stroke="black"/>
<line x1="199.5" y1="500" x2="199.5" y2="506" stroke="black"/>
<path d="M211.5 500V505.5H207.5V500V499.793L207.354 499.646L206.5 498.793V496C206.5 495.172 207.172 494.5 208 494.5H211C211.828 494.5 212.5 495.172 212.5 496V498.793L211.646 499.646L211.5 499.793V500Z" fill="white" stroke="black"/>
<circle cx="209.5" cy="492.5" r="1.5" fill="white" stroke="black"/>
<line x1="209.5" y1="500" x2="209.5" y2="506" stroke="black"/>
<path d="M191.5 500V505.5H187.5V500V499.793L187.354 499.646L186.5 498.793V496C186.5 495.172 187.172 494.5 188 494.5H191C191.828 494.5 192.5 495.172 192.5 496V498.793L191.646 499.646L191.5 499.793V500Z" fill="white" stroke="black"/>
<circle cx="189.5" cy="492.5" r="1.5" fill="white" stroke="black"/>
<line x1="189.5" y1="500" x2="189.5" y2="506" stroke="black"/>
<path d="M181.5 500V505.5H177.5V500V499.793L177.354 499.646L176.5 498.793V496C176.5 495.172 177.172 494.5 178 494.5H181C181.828 494.5 182.5 495.172 182.5 496V498.793L181.646 499.646L181.5 499.793V500Z" fill="white" stroke="black"/>
<circle cx="179.5" cy="492.5" r="1.5" fill="white" stroke="black"/>
<line x1="179.5" y1="500" x2="179.5" y2="506" stroke="black"/>
<path d="M196.5 503V508.5H192.5V503V502.793L192.354 502.646L191.5 501.793V499C191.5 498.172 192.172 497.5 193 497.5H196C196.828 497.5 197.5 498.172 197.5 499V501.793L196.646 502.646L196.5 502.793V503Z" fill="white" stroke="black"/>
<circle cx="194.5" cy="495.5" r="1.5" fill="white" stroke="black"/>
<line x1="194.5" y1="503" x2="194.5" y2="509" stroke="black"/>
<path d="M206.5 503V508.5H202.5V503V502.793L202.354 502.646L201.5 501.793V499C201.5 498.172 202.172 497.5 203 497.5H206C206.828 497.5 207.5 498.172 207.5 499V501.793L206.646 502.646L206.5 502.793V503Z" fill="white" stroke="black"/>
<circle cx="204.5" cy="495.5" r="1.5" fill="white" stroke="black"/>
<line x1="204.5" y1="503" x2="204.5" y2="509" stroke="black"/>
<path d="M186.5 503V508.5H182.5V503V502.793L182.354 502.646L181.5 501.793V499C181.5 498.172 182.172 497.5 183 497.5H186C186.828 497.5 187.5 498.172 187.5 499V501.793L186.646 502.646L186.5 502.793V503Z" fill="white" stroke="black"/>
<circle cx="184.5" cy="495.5" r="1.5" fill="white" stroke="black"/>
<line x1="184.5" y1="503" x2="184.5" y2="509" stroke="black"/>
<path d="M191.5 506V511.5H187.5V506V505.793L187.354 505.646L186.5 504.793V502C186.5 501.172 187.172 500.5 188 500.5H191C191.828 500.5 192.5 501.172 192.5 502V504.793L191.646 505.646L191.5 505.793V506Z" fill="white" stroke="black"/>
<circle cx="189.5" cy="498.5" r="1.5" fill="white" stroke="black"/>
<line x1="189.5" y1="506" x2="189.5" y2="512" stroke="black"/>
<path d="M201.5 506V511.5H197.5V506V505.793L197.354 505.646L196.5 504.793V502C196.5 501.172 197.172 500.5 198 500.5H201C201.828 500.5 202.5 501.172 202.5 502V504.793L201.646 505.646L201.5 505.793V506Z" fill="white" stroke="black"/>
<circle cx="199.5" cy="498.5" r="1.5" fill="white" stroke="black"/>
<line x1="199.5" y1="506" x2="199.5" y2="512" stroke="black"/>
<path d="M196.5 509V514.5H192.5V509V508.793L192.354 508.646L191.5 507.793V505C191.5 504.172 192.172 503.5 193 503.5H196C196.828 503.5 197.5 504.172 197.5 505V507.793L196.646 508.646L196.5 508.793V509Z" fill="white" stroke="black"/>
<circle cx="194.5" cy="501.5" r="1.5" fill="white" stroke="black"/>
<line x1="194.5" y1="509" x2="194.5" y2="515" stroke="black"/>
<path d="M146.5 485V490.5H142.5V485V484.793L142.354 484.646L141.5 483.793V481C141.5 480.172 142.172 479.5 143 479.5H146C146.828 479.5 147.5 480.172 147.5 481V483.793L146.646 484.646L146.5 484.793V485Z" fill="white" stroke="black"/>
<circle cx="144.5" cy="477.5" r="1.5" fill="white" stroke="black"/>
<line x1="144.5" y1="485" x2="144.5" y2="491" stroke="black"/>
<path d="M151.5 488V493.5H147.5V488V487.793L147.354 487.646L146.5 486.793V484C146.5 483.172 147.172 482.5 148 482.5H151C151.828 482.5 152.5 483.172 152.5 484V486.793L151.646 487.646L151.5 487.793V488Z" fill="white" stroke="black"/>
<circle cx="149.5" cy="480.5" r="1.5" fill="white" stroke="black"/>
<line x1="149.5" y1="488" x2="149.5" y2="494" stroke="black"/>
<path d="M141.5 488V493.5H137.5V488V487.793L137.354 487.646L136.5 486.793V484C136.5 483.172 137.172 482.5 138 482.5H141C141.828 482.5 142.5 483.172 142.5 484V486.793L141.646 487.646L141.5 487.793V488Z" fill="white" stroke="black"/>
<circle cx="139.5" cy="480.5" r="1.5" fill="white" stroke="black"/>
<line x1="139.5" y1="488" x2="139.5" y2="494" stroke="black"/>
<path d="M136.5 491V496.5H132.5V491V490.793L132.354 490.646L131.5 489.793V487C131.5 486.172 132.172 485.5 133 485.5H136C136.828 485.5 137.5 486.172 137.5 487V489.793L136.646 490.646L136.5 490.793V491Z" fill="white" stroke="black"/>
<circle cx="134.5" cy="483.5" r="1.5" fill="white" stroke="black"/>
<line x1="134.5" y1="491" x2="134.5" y2="497" stroke="black"/>
<path d="M156.5 491V496.5H152.5V491V490.793L152.354 490.646L151.5 489.793V487C151.5 486.172 152.172 485.5 153 485.5H156C156.828 485.5 157.5 486.172 157.5 487V489.793L156.646 490.646L156.5 490.793V491Z" fill="white" stroke="black"/>
<circle cx="154.5" cy="483.5" r="1.5" fill="white" stroke="black"/>
<line x1="154.5" y1="491" x2="154.5" y2="497" stroke="black"/>
<path d="M146.5 491V496.5H142.5V491V490.793L142.354 490.646L141.5 489.793V487C141.5 486.172 142.172 485.5 143 485.5H146C146.828 485.5 147.5 486.172 147.5 487V489.793L146.646 490.646L146.5 490.793V491Z" fill="white" stroke="black"/>
<circle cx="144.5" cy="483.5" r="1.5" fill="white" stroke="black"/>
<line x1="144.5" y1="491" x2="144.5" y2="497" stroke="black"/>
<path d="M131.5 494V499.5H127.5V494V493.793L127.354 493.646L126.5 492.793V490C126.5 489.172 127.172 488.5 128 488.5H131C131.828 488.5 132.5 489.172 132.5 490V492.793L131.646 493.646L131.5 493.793V494Z" fill="white" stroke="black"/>
<circle cx="129.5" cy="486.5" r="1.5" fill="white" stroke="black"/>
<line x1="129.5" y1="494" x2="129.5" y2="500" stroke="black"/>
<path d="M141.5 494V499.5H137.5V494V493.793L137.354 493.646L136.5 492.793V490C136.5 489.172 137.172 488.5 138 488.5H141C141.828 488.5 142.5 489.172 142.5 490V492.793L141.646 493.646L141.5 493.793V494Z" fill="white" stroke="black"/>
<circle cx="139.5" cy="486.5" r="1.5" fill="white" stroke="black"/>
<line x1="139.5" y1="494" x2="139.5" y2="500" stroke="black"/>
<path d="M161.5 494V499.5H157.5V494V493.793L157.354 493.646L156.5 492.793V490C156.5 489.172 157.172 488.5 158 488.5H161C161.828 488.5 162.5 489.172 162.5 490V492.793L161.646 493.646L161.5 493.793V494Z" fill="white" stroke="black"/>
<circle cx="159.5" cy="486.5" r="1.5" fill="white" stroke="black"/>
<line x1="159.5" y1="494" x2="159.5" y2="500" stroke="black"/>
<path d="M151.5 494V499.5H147.5V494V493.793L147.354 493.646L146.5 492.793V490C146.5 489.172 147.172 488.5 148 488.5H151C151.828 488.5 152.5 489.172 152.5 490V492.793L151.646 493.646L151.5 493.793V494Z" fill="white" stroke="black"/>
<circle cx="149.5" cy="486.5" r="1.5" fill="white" stroke="black"/>
<line x1="149.5" y1="494" x2="149.5" y2="500" stroke="black"/>
<path d="M136.5 497V502.5H132.5V497V496.793L132.354 496.646L131.5 495.793V493C131.5 492.172 132.172 491.5 133 491.5H136C136.828 491.5 137.5 492.172 137.5 493V495.793L136.646 496.646L136.5 496.793V497Z" fill="white" stroke="black"/>
<circle cx="134.5" cy="489.5" r="1.5" fill="white" stroke="black"/>
<line x1="134.5" y1="497" x2="134.5" y2="503" stroke="black"/>
<path d="M126.5 497V502.5H122.5V497V496.793L122.354 496.646L121.5 495.793V493C121.5 492.172 122.172 491.5 123 491.5H126C126.828 491.5 127.5 492.172 127.5 493V495.793L126.646 496.646L126.5 496.793V497Z" fill="white" stroke="black"/>
<circle cx="124.5" cy="489.5" r="1.5" fill="white" stroke="black"/>
<line x1="124.5" y1="497" x2="124.5" y2="503" stroke="black"/>
<path d="M156.5 497V502.5H152.5V497V496.793L152.354 496.646L151.5 495.793V493C151.5 492.172 152.172 491.5 153 491.5H156C156.828 491.5 157.5 492.172 157.5 493V495.793L156.646 496.646L156.5 496.793V497Z" fill="white" stroke="black"/>
<circle cx="154.5" cy="489.5" r="1.5" fill="white" stroke="black"/>
<line x1="154.5" y1="497" x2="154.5" y2="503" stroke="black"/>
<path d="M166.5 497V502.5H162.5V497V496.793L162.354 496.646L161.5 495.793V493C161.5 492.172 162.172 491.5 163 491.5H166C166.828 491.5 167.5 492.172 167.5 493V495.793L166.646 496.646L166.5 496.793V497Z" fill="white" stroke="black"/>
<circle cx="164.5" cy="489.5" r="1.5" fill="white" stroke="black"/>
<line x1="164.5" y1="497" x2="164.5" y2="503" stroke="black"/>
<path d="M146.5 497V502.5H142.5V497V496.793L142.354 496.646L141.5 495.793V493C141.5 492.172 142.172 491.5 143 491.5H146C146.828 491.5 147.5 492.172 147.5 493V495.793L146.646 496.646L146.5 496.793V497Z" fill="white" stroke="black"/>
<circle cx="144.5" cy="489.5" r="1.5" fill="white" stroke="black"/>
<line x1="144.5" y1="497" x2="144.5" y2="503" stroke="black"/>
<path d="M151.5 500V505.5H147.5V500V499.793L147.354 499.646L146.5 498.793V496C146.5 495.172 147.172 494.5 148 494.5H151C151.828 494.5 152.5 495.172 152.5 496V498.793L151.646 499.646L151.5 499.793V500Z" fill="white" stroke="black"/>
<circle cx="149.5" cy="492.5" r="1.5" fill="white" stroke="black"/>
<line x1="149.5" y1="500" x2="149.5" y2="506" stroke="black"/>
<path d="M161.5 500V505.5H157.5V500V499.793L157.354 499.646L156.5 498.793V496C156.5 495.172 157.172 494.5 158 494.5H161C161.828 494.5 162.5 495.172 162.5 496V498.793L161.646 499.646L161.5 499.793V500Z" fill="white" stroke="black"/>
<circle cx="159.5" cy="492.5" r="1.5" fill="white" stroke="black"/>
<line x1="159.5" y1="500" x2="159.5" y2="506" stroke="black"/>
<path d="M141.5 500V505.5H137.5V500V499.793L137.354 499.646L136.5 498.793V496C136.5 495.172 137.172 494.5 138 494.5H141C141.828 494.5 142.5 495.172 142.5 496V498.793L141.646 499.646L141.5 499.793V500Z" fill="white" stroke="black"/>
<circle cx="139.5" cy="492.5" r="1.5" fill="white" stroke="black"/>
<line x1="139.5" y1="500" x2="139.5" y2="506" stroke="black"/>
<path d="M131.5 500V505.5H127.5V500V499.793L127.354 499.646L126.5 498.793V496C126.5 495.172 127.172 494.5 128 494.5H131C131.828 494.5 132.5 495.172 132.5 496V498.793L131.646 499.646L131.5 499.793V500Z" fill="white" stroke="black"/>
<circle cx="129.5" cy="492.5" r="1.5" fill="white" stroke="black"/>
<line x1="129.5" y1="500" x2="129.5" y2="506" stroke="black"/>
<path d="M146.5 503V508.5H142.5V503V502.793L142.354 502.646L141.5 501.793V499C141.5 498.172 142.172 497.5 143 497.5H146C146.828 497.5 147.5 498.172 147.5 499V501.793L146.646 502.646L146.5 502.793V503Z" fill="white" stroke="black"/>
<circle cx="144.5" cy="495.5" r="1.5" fill="white" stroke="black"/>
<line x1="144.5" y1="503" x2="144.5" y2="509" stroke="black"/>
<path d="M156.5 503V508.5H152.5V503V502.793L152.354 502.646L151.5 501.793V499C151.5 498.172 152.172 497.5 153 497.5H156C156.828 497.5 157.5 498.172 157.5 499V501.793L156.646 502.646L156.5 502.793V503Z" fill="white" stroke="black"/>
<circle cx="154.5" cy="495.5" r="1.5" fill="white" stroke="black"/>
<line x1="154.5" y1="503" x2="154.5" y2="509" stroke="black"/>
<path d="M136.5 503V508.5H132.5V503V502.793L132.354 502.646L131.5 501.793V499C131.5 498.172 132.172 497.5 133 497.5H136C136.828 497.5 137.5 498.172 137.5 499V501.793L136.646 502.646L136.5 502.793V503Z" fill="white" stroke="black"/>
<circle cx="134.5" cy="495.5" r="1.5" fill="white" stroke="black"/>
<line x1="134.5" y1="503" x2="134.5" y2="509" stroke="black"/>
<path d="M141.5 506V511.5H137.5V506V505.793L137.354 505.646L136.5 504.793V502C136.5 501.172 137.172 500.5 138 500.5H141C141.828 500.5 142.5 501.172 142.5 502V504.793L141.646 505.646L141.5 505.793V506Z" fill="white" stroke="black"/>
<circle cx="139.5" cy="498.5" r="1.5" fill="white" stroke="black"/>
<line x1="139.5" y1="506" x2="139.5" y2="512" stroke="black"/>
<path d="M151.5 506V511.5H147.5V506V505.793L147.354 505.646L146.5 504.793V502C146.5 501.172 147.172 500.5 148 500.5H151C151.828 500.5 152.5 501.172 152.5 502V504.793L151.646 505.646L151.5 505.793V506Z" fill="white" stroke="black"/>
<circle cx="149.5" cy="498.5" r="1.5" fill="white" stroke="black"/>
<line x1="149.5" y1="506" x2="149.5" y2="512" stroke="black"/>
<path d="M146.5 509V514.5H142.5V509V508.793L142.354 508.646L141.5 507.793V505C141.5 504.172 142.172 503.5 143 503.5H146C146.828 503.5 147.5 504.172 147.5 505V507.793L146.646 508.646L146.5 508.793V509Z" fill="white" stroke="black"/>
<circle cx="144.5" cy="501.5" r="1.5" fill="white" stroke="black"/>
<line x1="144.5" y1="509" x2="144.5" y2="515" stroke="black"/>
<path d="M171.5 500V505.5H167.5V500V499.793L167.354 499.646L166.5 498.793V496C166.5 495.172 167.172 494.5 168 494.5H171C171.828 494.5 172.5 495.172 172.5 496V498.793L171.646 499.646L171.5 499.793V500Z" fill="white" stroke="black"/>
<circle cx="169.5" cy="492.5" r="1.5" fill="white" stroke="black"/>
<line x1="169.5" y1="500" x2="169.5" y2="506" stroke="black"/>
<path d="M176.5 503V508.5H172.5V503V502.793L172.354 502.646L171.5 501.793V499C171.5 498.172 172.172 497.5 173 497.5H176C176.828 497.5 177.5 498.172 177.5 499V501.793L176.646 502.646L176.5 502.793V503Z" fill="white" stroke="black"/>
<circle cx="174.5" cy="495.5" r="1.5" fill="white" stroke="black"/>
<line x1="174.5" y1="503" x2="174.5" y2="509" stroke="black"/>
<path d="M166.5 503V508.5H162.5V503V502.793L162.354 502.646L161.5 501.793V499C161.5 498.172 162.172 497.5 163 497.5H166C166.828 497.5 167.5 498.172 167.5 499V501.793L166.646 502.646L166.5 502.793V503Z" fill="white" stroke="black"/>
<circle cx="164.5" cy="495.5" r="1.5" fill="white" stroke="black"/>
<line x1="164.5" y1="503" x2="164.5" y2="509" stroke="black"/>
<path d="M161.5 506V511.5H157.5V506V505.793L157.354 505.646L156.5 504.793V502C156.5 501.172 157.172 500.5 158 500.5H161C161.828 500.5 162.5 501.172 162.5 502V504.793L161.646 505.646L161.5 505.793V506Z" fill="white" stroke="black"/>
<circle cx="159.5" cy="498.5" r="1.5" fill="white" stroke="black"/>
<line x1="159.5" y1="506" x2="159.5" y2="512" stroke="black"/>
<path d="M181.5 506V511.5H177.5V506V505.793L177.354 505.646L176.5 504.793V502C176.5 501.172 177.172 500.5 178 500.5H181C181.828 500.5 182.5 501.172 182.5 502V504.793L181.646 505.646L181.5 505.793V506Z" fill="white" stroke="black"/>
<circle cx="179.5" cy="498.5" r="1.5" fill="white" stroke="black"/>
<line x1="179.5" y1="506" x2="179.5" y2="512" stroke="black"/>
<path d="M171.5 506V511.5H167.5V506V505.793L167.354 505.646L166.5 504.793V502C166.5 501.172 167.172 500.5 168 500.5H171C171.828 500.5 172.5 501.172 172.5 502V504.793L171.646 505.646L171.5 505.793V506Z" fill="white" stroke="black"/>
<circle cx="169.5" cy="498.5" r="1.5" fill="white" stroke="black"/>
<line x1="169.5" y1="506" x2="169.5" y2="512" stroke="black"/>
<path d="M156.5 509V514.5H152.5V509V508.793L152.354 508.646L151.5 507.793V505C151.5 504.172 152.172 503.5 153 503.5H156C156.828 503.5 157.5 504.172 157.5 505V507.793L156.646 508.646L156.5 508.793V509Z" fill="white" stroke="black"/>
<circle cx="154.5" cy="501.5" r="1.5" fill="white" stroke="black"/>
<line x1="154.5" y1="509" x2="154.5" y2="515" stroke="black"/>
<path d="M166.5 509V514.5H162.5V509V508.793L162.354 508.646L161.5 507.793V505C161.5 504.172 162.172 503.5 163 503.5H166C166.828 503.5 167.5 504.172 167.5 505V507.793L166.646 508.646L166.5 508.793V509Z" fill="white" stroke="black"/>
<circle cx="164.5" cy="501.5" r="1.5" fill="white" stroke="black"/>
<line x1="164.5" y1="509" x2="164.5" y2="515" stroke="black"/>
<path d="M186.5 509V514.5H182.5V509V508.793L182.354 508.646L181.5 507.793V505C181.5 504.172 182.172 503.5 183 503.5H186C186.828 503.5 187.5 504.172 187.5 505V507.793L186.646 508.646L186.5 508.793V509Z" fill="white" stroke="black"/>
<circle cx="184.5" cy="501.5" r="1.5" fill="white" stroke="black"/>
<line x1="184.5" y1="509" x2="184.5" y2="515" stroke="black"/>
<path d="M176.5 509V514.5H172.5V509V508.793L172.354 508.646L171.5 507.793V505C171.5 504.172 172.172 503.5 173 503.5H176C176.828 503.5 177.5 504.172 177.5 505V507.793L176.646 508.646L176.5 508.793V509Z" fill="white" stroke="black"/>
<circle cx="174.5" cy="501.5" r="1.5" fill="white" stroke="black"/>
<line x1="174.5" y1="509" x2="174.5" y2="515" stroke="black"/>
<path d="M161.5 512V517.5H157.5V512V511.793L157.354 511.646L156.5 510.793V508C156.5 507.172 157.172 506.5 158 506.5H161C161.828 506.5 162.5 507.172 162.5 508V510.793L161.646 511.646L161.5 511.793V512Z" fill="white" stroke="black"/>
<circle cx="159.5" cy="504.5" r="1.5" fill="white" stroke="black"/>
<line x1="159.5" y1="512" x2="159.5" y2="518" stroke="black"/>
<path d="M151.5 512V517.5H147.5V512V511.793L147.354 511.646L146.5 510.793V508C146.5 507.172 147.172 506.5 148 506.5H151C151.828 506.5 152.5 507.172 152.5 508V510.793L151.646 511.646L151.5 511.793V512Z" fill="white" stroke="black"/>
<circle cx="149.5" cy="504.5" r="1.5" fill="white" stroke="black"/>
<line x1="149.5" y1="512" x2="149.5" y2="518" stroke="black"/>
<path d="M181.5 512V517.5H177.5V512V511.793L177.354 511.646L176.5 510.793V508C176.5 507.172 177.172 506.5 178 506.5H181C181.828 506.5 182.5 507.172 182.5 508V510.793L181.646 511.646L181.5 511.793V512Z" fill="white" stroke="black"/>
<circle cx="179.5" cy="504.5" r="1.5" fill="white" stroke="black"/>
<line x1="179.5" y1="512" x2="179.5" y2="518" stroke="black"/>
<path d="M191.5 512V517.5H187.5V512V511.793L187.354 511.646L186.5 510.793V508C186.5 507.172 187.172 506.5 188 506.5H191C191.828 506.5 192.5 507.172 192.5 508V510.793L191.646 511.646L191.5 511.793V512Z" fill="white" stroke="black"/>
<circle cx="189.5" cy="504.5" r="1.5" fill="white" stroke="black"/>
<line x1="189.5" y1="512" x2="189.5" y2="518" stroke="black"/>
<path d="M171.5 512V517.5H167.5V512V511.793L167.354 511.646L166.5 510.793V508C166.5 507.172 167.172 506.5 168 506.5H171C171.828 506.5 172.5 507.172 172.5 508V510.793L171.646 511.646L171.5 511.793V512Z" fill="white" stroke="black"/>
<circle cx="169.5" cy="504.5" r="1.5" fill="white" stroke="black"/>
<line x1="169.5" y1="512" x2="169.5" y2="518" stroke="black"/>
<path d="M176.5 515V520.5H172.5V515V514.793L172.354 514.646L171.5 513.793V511C171.5 510.172 172.172 509.5 173 509.5H176C176.828 509.5 177.5 510.172 177.5 511V513.793L176.646 514.646L176.5 514.793V515Z" fill="white" stroke="black"/>
<circle cx="174.5" cy="507.5" r="1.5" fill="white" stroke="black"/>
<line x1="174.5" y1="515" x2="174.5" y2="521" stroke="black"/>
<path d="M186.5 515V520.5H182.5V515V514.793L182.354 514.646L181.5 513.793V511C181.5 510.172 182.172 509.5 183 509.5H186C186.828 509.5 187.5 510.172 187.5 511V513.793L186.646 514.646L186.5 514.793V515Z" fill="white" stroke="black"/>
<circle cx="184.5" cy="507.5" r="1.5" fill="white" stroke="black"/>
<line x1="184.5" y1="515" x2="184.5" y2="521" stroke="black"/>
<path d="M166.5 515V520.5H162.5V515V514.793L162.354 514.646L161.5 513.793V511C161.5 510.172 162.172 509.5 163 509.5H166C166.828 509.5 167.5 510.172 167.5 511V513.793L166.646 514.646L166.5 514.793V515Z" fill="white" stroke="black"/>
<circle cx="164.5" cy="507.5" r="1.5" fill="white" stroke="black"/>
<line x1="164.5" y1="515" x2="164.5" y2="521" stroke="black"/>
<path d="M156.5 515V520.5H152.5V515V514.793L152.354 514.646L151.5 513.793V511C151.5 510.172 152.172 509.5 153 509.5H156C156.828 509.5 157.5 510.172 157.5 511V513.793L156.646 514.646L156.5 514.793V515Z" fill="white" stroke="black"/>
<circle cx="154.5" cy="507.5" r="1.5" fill="white" stroke="black"/>
<line x1="154.5" y1="515" x2="154.5" y2="521" stroke="black"/>
<path d="M171.5 518V523.5H167.5V518V517.793L167.354 517.646L166.5 516.793V514C166.5 513.172 167.172 512.5 168 512.5H171C171.828 512.5 172.5 513.172 172.5 514V516.793L171.646 517.646L171.5 517.793V518Z" fill="white" stroke="black"/>
<circle cx="169.5" cy="510.5" r="1.5" fill="white" stroke="black"/>
<line x1="169.5" y1="518" x2="169.5" y2="524" stroke="black"/>
<path d="M181.5 518V523.5H177.5V518V517.793L177.354 517.646L176.5 516.793V514C176.5 513.172 177.172 512.5 178 512.5H181C181.828 512.5 182.5 513.172 182.5 514V516.793L181.646 517.646L181.5 517.793V518Z" fill="white" stroke="black"/>
<circle cx="179.5" cy="510.5" r="1.5" fill="white" stroke="black"/>
<line x1="179.5" y1="518" x2="179.5" y2="524" stroke="black"/>
<path d="M161.5 518V523.5H157.5V518V517.793L157.354 517.646L156.5 516.793V514C156.5 513.172 157.172 512.5 158 512.5H161C161.828 512.5 162.5 513.172 162.5 514V516.793L161.646 517.646L161.5 517.793V518Z" fill="white" stroke="black"/>
<circle cx="159.5" cy="510.5" r="1.5" fill="white" stroke="black"/>
<line x1="159.5" y1="518" x2="159.5" y2="524" stroke="black"/>
<path d="M166.5 521V526.5H162.5V521V520.793L162.354 520.646L161.5 519.793V517C161.5 516.172 162.172 515.5 163 515.5H166C166.828 515.5 167.5 516.172 167.5 517V519.793L166.646 520.646L166.5 520.793V521Z" fill="white" stroke="black"/>
<circle cx="164.5" cy="513.5" r="1.5" fill="white" stroke="black"/>
<line x1="164.5" y1="521" x2="164.5" y2="527" stroke="black"/>
<path d="M176.5 521V526.5H172.5V521V520.793L172.354 520.646L171.5 519.793V517C171.5 516.172 172.172 515.5 173 515.5H176C176.828 515.5 177.5 516.172 177.5 517V519.793L176.646 520.646L176.5 520.793V521Z" fill="white" stroke="black"/>
<circle cx="174.5" cy="513.5" r="1.5" fill="white" stroke="black"/>
<line x1="174.5" y1="521" x2="174.5" y2="527" stroke="black"/>
<path d="M171.5 524V529.5H167.5V524V523.793L167.354 523.646L166.5 522.793V520C166.5 519.172 167.172 518.5 168 518.5H171C171.828 518.5 172.5 519.172 172.5 520V522.793L171.646 523.646L171.5 523.793V524Z" fill="white" stroke="black"/>
<circle cx="169.5" cy="516.5" r="1.5" fill="white" stroke="black"/>
<line x1="169.5" y1="524" x2="169.5" y2="530" stroke="black"/>
<text fill="black" xml:space="preserve" style="white-space: pre" font-family="monospace" font-size="10" letter-spacing="0em"><tspan x="92.0488" y="26.25">MODERN ENTERPRISE SYSTEMS</tspan></text>
<path d="M179.021 53.6394C179.437 54.2212 179.731 54.8398 179.882 55.4844L179.395 55.5987C179.464 55.8941 179.5 56.1948 179.5 56.5C179.5 56.8052 179.464 57.1059 179.395 57.4013L179.882 57.5156C179.731 58.1602 179.437 58.7788 179.021 59.3606L178.614 59.0696C178.269 59.5527 177.825 60.0154 177.293 60.448L177.609 60.836C177.106 61.2447 176.534 61.6232 175.902 61.9656L175.664 61.5261C175.111 61.8261 174.508 62.0987 173.862 62.339L174.036 62.8077C173.417 63.038 172.762 63.2388 172.076 63.4067L171.957 62.9211C171.329 63.075 170.673 63.2007 169.996 63.2951L170.065 63.7903C169.403 63.8826 168.722 63.9457 168.025 63.977L168.003 63.4775C167.672 63.4924 167.338 63.5 167 63.5C166.662 63.5 166.328 63.4924 165.997 63.4775L165.975 63.977C165.278 63.9457 164.597 63.8826 163.935 63.7903L164.004 63.2951C163.327 63.2007 162.671 63.075 162.043 62.9211L161.924 63.4067C161.238 63.2388 160.583 63.038 159.964 62.8077L160.138 62.339C159.492 62.0987 158.889 61.8261 158.336 61.5261L158.098 61.9656C157.466 61.6232 156.894 61.2447 156.391 60.8359L156.707 60.448C156.175 60.0154 155.731 59.5527 155.386 59.0696L154.979 59.3606C154.563 58.7788 154.269 58.1602 154.118 57.5156L154.605 57.4013C154.536 57.1059 154.5 56.8052 154.5 56.5C154.5 56.1948 154.536 55.8941 154.605 55.5987L154.118 55.4844C154.269 54.8398 154.563 54.2212 154.979 53.6394L155.386 53.9304C155.731 53.4473 156.175 52.9846 156.707 52.552L156.391 52.164C156.894 51.7553 157.466 51.3768 158.098 51.0344L158.336 51.4739C158.889 51.1739 159.492 50.9013 160.138 50.661L159.964 50.1923C160.583 49.962 161.238 49.7612 161.924 49.5933L162.043 50.0789C162.671 49.925 163.327 49.7993 164.004 49.7049L163.935 49.2097C164.597 49.1174 165.278 49.0543 165.975 49.023L165.997 49.5225C166.328 49.5076 166.662 49.5 167 49.5C167.338 49.5 167.672 49.5076 168.003 49.5225L168.025 49.023C168.722 49.0543 169.403 49.1174 170.065 49.2097L169.996 49.7049C170.673 49.7993 171.329 49.925 171.957 50.0789L172.076 49.5933C172.762 49.7612 173.417 49.962 174.036 50.1923L173.862 50.661C174.508 50.9013 175.111 51.1739 175.664 51.4739L175.902 51.0344C176.534 51.3768 177.106 51.7553 177.609 52.1641L177.293 52.552C177.825 52.9846 178.269 53.4473 178.614 53.9304L179.021 53.6394Z" fill="#E5E5E5" stroke="black" stroke-dasharray="2 2"/>
<path d="M74.2623 495.782C73.6461 492.399 72.6614 489.093 71.3256 485.925L75.3763 481.509L70.0678 472.32L64.2254 473.619C62.1486 470.878 59.778 468.373 57.156 466.149L55.8828 457.344L48.377 453.011L48.0227 455.039L47.1038 460.347C44.8364 459.58 42.4232 459.343 40.0498 459.654L34.2073 451.604L28.8989 454.685L32.2975 462.314L32.9444 463.772C31.4866 465.676 30.4838 467.889 30.0129 470.24L23.0205 467.673V476.34L30.0129 481.843C30.6304 485.225 31.6133 488.53 32.9444 491.7L28.8989 496.115L34.2073 505.3L40.0498 503.991C42.1292 506.729 44.4996 509.234 47.1192 511.461L48.3924 520.265L55.8982 524.598L57.1714 517.262C59.4447 518.027 61.8623 518.264 64.2408 517.955L65.1752 519.239L70.0832 526L75.3917 522.92L71.341 513.833C72.8007 511.929 73.8052 509.716 74.2776 507.364L79.3294 509.222L81.2649 509.931V501.285L74.2623 495.782ZM65.7605 500.002C65.2111 502.707 63.9123 504.761 61.987 505.87C59.3739 507.379 55.8263 507.025 52.135 504.894C49.0972 503.044 46.464 500.599 44.3931 497.707C42.1113 494.631 40.3747 491.185 39.2591 487.521C38.2067 483.974 37.9294 480.58 38.4685 477.767C39.0076 474.953 40.3321 472.859 42.283 471.729C44.2339 470.6 46.616 470.513 49.2549 471.396L49.414 471.447C52.1196 472.386 54.9227 474.322 57.4692 477.012C60.085 479.808 62.2002 483.033 63.7223 486.546C65.1875 489.786 65.9854 493.289 66.0685 496.844C66.0733 497.905 65.9701 498.963 65.7605 500.002V500.002Z" fill="white"/>
<path d="M65.7553 500.002C65.206 502.707 63.9071 504.761 61.9819 505.87C59.3687 507.379 55.8212 507.025 52.1299 504.894C49.0921 503.044 46.4589 500.599 44.3879 497.707C42.1061 494.631 40.3696 491.185 39.254 487.521C38.2015 483.974 37.9243 480.58 38.4634 477.767C39.0024 474.953 40.327 472.859 42.2779 471.729C44.2288 470.6 46.6109 470.513 49.2498 471.396C49.2498 471.452 49.2241 471.503 49.2138 471.56C48.6748 474.373 48.952 477.767 50.0096 481.314C51.1227 484.979 52.8594 488.425 55.1435 491.5C56.2472 492.994 57.4845 494.384 58.8399 495.653C60.0715 496.809 61.4285 497.823 62.8855 498.677C63.7949 499.215 64.7564 499.658 65.7553 500.002Z" fill="black"/>
<path d="M32.929 463.756C31.4712 465.661 30.4685 467.873 29.9975 470.225L23.0051 467.658L32.2821 462.298L32.929 463.756Z" fill="#E5E5E5"/>
<path d="M66.6281 451.132L55.8777 457.344L48.3719 453.011L49.8453 452.159L59.1223 446.799L66.6281 451.132Z" fill="#E5E5E5"/>
<path d="M67.9013 459.937L57.1509 466.149L55.8777 457.344L66.6281 451.132L67.9013 459.937Z" fill="#E5E5E5"/>
<path d="M74.9604 467.406L64.21 473.619C62.1332 470.878 59.7626 468.373 57.1406 466.149L67.891 459.937C70.5106 462.164 72.8809 464.668 74.9604 467.406V467.406Z" fill="#E5E5E5"/>
<path d="M80.8132 466.113L70.0627 472.32L64.2203 473.619L74.9708 467.406L80.8132 466.113Z" fill="#E5E5E5"/>
<path d="M86.1217 475.297L75.3712 481.509L70.0627 472.32L80.8132 466.113L86.1217 475.297Z" fill="#E5E5E5"/>
<path d="M86.1217 475.297L82.0761 479.713L71.3206 485.925L75.3712 481.509L86.1217 475.297Z" fill="#E5E5E5"/>
<path d="M85.0127 489.57L74.2623 495.782C73.6462 492.399 72.6614 489.093 71.3257 485.925L82.0813 479.713C83.4124 482.882 84.3953 486.187 85.0127 489.57V489.57Z" fill="#E5E5E5"/>
<path d="M92 495.073L81.2444 501.285L74.2571 495.782L85.0076 489.57L92 495.073Z" fill="#E5E5E5"/>
<path d="M92 495.073V503.739L82.723 509.099L81.2444 509.951V501.285L92 495.073Z" fill="#E5E5E5"/>
<path d="M65.1599 519.239L55.8829 524.598L57.1561 517.262C59.4294 518.027 61.847 518.264 64.2255 517.955L65.1599 519.239Z" fill="#E5E5E5"/>
<path d="M79.3141 509.243L71.3257 513.863C72.7853 511.959 73.7898 509.747 74.2623 507.395L79.3141 509.243Z" fill="#E5E5E5"/>
<path d="M86.1217 516.728L75.3712 522.94L71.3206 513.853L79.3089 509.243L81.2444 509.951L82.723 509.099L86.1217 516.728Z" fill="#E5E5E5"/>
<path d="M48.0228 455.039L47.1038 460.347C44.8364 459.58 42.4232 459.343 40.0498 459.654L48.0228 455.039Z" fill="#E5E5E5"/>
<path d="M49.8454 452.159L48.3719 453.011L48.0177 455.039L40.0293 459.654L34.1869 451.604L44.9373 445.397L49.8454 452.159Z" fill="#E5E5E5"/>
<path d="M81.2444 509.951V501.285L74.2571 495.782C73.6386 492.399 72.6539 489.094 71.3205 485.925L75.366 481.509L70.0627 472.32L64.2151 473.619C62.1398 470.877 59.769 468.372 57.1457 466.149L55.8725 457.344L48.3718 453.011L47.0986 460.347C44.8328 459.581 42.4215 459.344 40.0498 459.654L34.2022 451.604L28.8989 454.685L32.9444 463.772C31.4849 465.676 30.4804 467.888 30.0078 470.24L23.0205 467.673V476.34L30.0078 481.843C30.627 485.225 31.6117 488.53 32.9444 491.7L28.8989 496.115L34.2022 505.3L40.0498 503.991C42.1278 506.73 44.4983 509.235 47.1192 511.461L48.3924 520.265L55.893 524.598L57.1663 517.262C59.4396 518.027 61.8571 518.264 64.2357 517.955L70.0832 526L75.3866 522.92L71.341 513.833C72.7987 511.927 73.8029 509.715 74.2776 507.364L81.2444 509.951ZM52.1196 504.894C49.0845 503.042 46.4533 500.598 44.3828 497.707C42.0971 494.633 40.3601 491.187 39.2489 487.521C38.1964 483.974 37.9192 480.58 38.4582 477.767C38.9973 474.953 40.3219 472.859 42.2676 471.729C44.2134 470.6 46.6982 470.507 49.4038 471.447C52.1093 472.386 54.9073 474.322 57.4538 477.012C60.0711 479.807 62.1866 483.032 63.7069 486.546C65.1734 489.786 65.9731 493.289 66.0582 496.844C66.0582 501.111 64.5899 504.355 61.9511 505.865C59.3122 507.374 55.7904 507.02 52.0939 504.889L52.1196 504.894Z" stroke="black" stroke-miterlimit="10"/>
<path d="M66.6229 451.132L55.8725 457.339" stroke="black" stroke-miterlimit="10"/>
<path d="M32.277 462.298L23 467.653" stroke="black" stroke-miterlimit="10"/>
<path d="M67.8963 459.937L57.1458 466.144" stroke="black" stroke-miterlimit="10"/>
<path d="M74.9656 467.406L64.2151 473.613" stroke="black" stroke-miterlimit="10"/>
<path d="M80.8132 466.113L70.0627 472.32" stroke="black" stroke-miterlimit="10"/>
<path d="M86.1165 475.297L75.3661 481.504" stroke="black" stroke-miterlimit="10"/>
<path d="M82.071 479.713L71.3206 485.919" stroke="black" stroke-miterlimit="10"/>
<path d="M85.0025 489.57L74.252 495.777" stroke="black" stroke-miterlimit="10"/>
<path d="M91.9949 495.073L81.2444 501.28" stroke="black" stroke-miterlimit="10"/>
<path d="M81.2444 509.951L91.9949 503.739V495.073L85.0076 489.57C84.3884 486.187 83.4037 482.882 82.071 479.713L86.1165 475.297L80.8132 466.113L74.9605 467.406C72.8825 464.667 70.512 462.162 67.8911 459.937L66.623 451.132L59.1172 446.799L48.3668 453.011" stroke="black" stroke-miterlimit="10"/>
<path d="M55.8725 524.593L65.1495 519.239" stroke="black" stroke-miterlimit="10"/>
<path d="M48.0177 455.039L40.0293 459.649" stroke="black" stroke-miterlimit="10"/>
<path d="M79.3089 509.238L71.3206 513.848" stroke="black" stroke-miterlimit="10"/>
<path d="M65.7554 500.002C64.7532 499.66 63.7883 499.218 62.8752 498.682V498.682C59.8359 496.834 57.2024 494.389 55.1333 491.495C52.8476 488.421 51.1106 484.975 49.9994 481.309C48.9469 477.762 48.6697 474.368 49.2087 471.555L49.2395 471.385" stroke="black" stroke-miterlimit="10"/>
<path d="M82.7179 509.094L86.1165 516.728L75.3661 522.935" stroke="black" stroke-miterlimit="10"/>
<path d="M49.8453 452.154L44.9321 445.397L34.1817 451.604" stroke="black" stroke-miterlimit="10"/>
<path d="M311.491 443.091L304.398 439.129L280.094 453.163L267.858 460.228L262.159 463.659L256.045 473.832L256.045 480.683L256.044 494.818L256.043 522.874L263.323 526.67L304.2 494.85L311.491 443.091Z" fill="#E5E5E5" stroke="black" stroke-linejoin="round"/>
<path d="M311.67 443.291L287.621 457.177L275.385 464.242L269.694 467.669L263.815 477.85L263.572 484.708L263.571 498.833L263.57 526.602L287.619 512.717L299.86 505.649L305.801 502.218L311.668 492.056L311.668 485.196L311.669 471.061L311.67 443.291Z" fill="black" stroke="black" stroke-linejoin="round"/>
<path d="M297.022 479.313L306.957 473.577" stroke="white" stroke-width="2" stroke-linejoin="round"/>
<path d="M278.395 489.454L268.46 495.19" stroke="white" stroke-width="2" stroke-linejoin="round"/>
<path d="M297.2 475.318L300.748 473.27" stroke="white" stroke-width="2" stroke-linejoin="round"/>
<path d="M278.217 493.449L274.669 495.497" stroke="white" stroke-width="2" stroke-linejoin="round"/>
<path d="M297.2 471.836L304.296 467.738" stroke="white" stroke-width="2" stroke-linejoin="round"/>
<path d="M278.217 496.931L271.121 501.028" stroke="white" stroke-width="2" stroke-linejoin="round"/>
<path d="M297.2 482.283L304.296 478.186" stroke="white" stroke-width="2" stroke-linejoin="round"/>
<path d="M278.218 486.483L271.121 490.581" stroke="white" stroke-width="2" stroke-linejoin="round"/>
<ellipse rx="1.33155" ry="1.33155" transform="matrix(-0.866007 0.500033 -3.76274e-05 1 307.4 473.218)" fill="black" stroke="white" stroke-linejoin="round"/>
<ellipse rx="1.33155" ry="1.33155" transform="matrix(0.866007 -0.500033 3.76274e-05 -1 268.017 495.549)" fill="black" stroke="white" stroke-linejoin="round"/>
<ellipse rx="1.33155" ry="1.33155" transform="matrix(-0.866007 0.500033 -3.76274e-05 1 305.272 467.073)" fill="black" stroke="white" stroke-linejoin="round"/>
<ellipse rx="1.33155" ry="1.33155" transform="matrix(0.866007 -0.500033 3.76274e-05 -1 270.145 501.694)" fill="black" stroke="white" stroke-linejoin="round"/>
<path d="M297.199 485.561L301.427 483.12L303.088 485.029L304.295 484.332" stroke="white" stroke-width="2" stroke-linejoin="round"/>
<path d="M278.218 483.206L273.99 485.647L272.329 483.738L271.122 484.435" stroke="white" stroke-width="2" stroke-linejoin="round"/>
<ellipse rx="1.33155" ry="1.33155" transform="matrix(-0.866007 0.500033 -3.76274e-05 1 305.271 483.871)" fill="black" stroke="white" stroke-linejoin="round"/>
<ellipse rx="1.33155" ry="1.33155" transform="matrix(0.866007 -0.500033 3.76274e-05 -1 270.146 484.896)" fill="black" stroke="white" stroke-linejoin="round"/>
<path d="M287.975 473.475L287.975 462.003" stroke="white" stroke-width="2" stroke-linejoin="round"/>
<path d="M287.442 495.292L287.442 506.764" stroke="white" stroke-width="2" stroke-linejoin="round"/>
<path d="M284.604 475.216L284.604 471.119" stroke="white" stroke-width="2" stroke-linejoin="round"/>
<path d="M290.813 493.55L290.812 497.648" stroke="white" stroke-width="2" stroke-linejoin="round"/>
<path d="M281.588 476.958L281.589 468.764" stroke="white" stroke-width="2" stroke-linejoin="round"/>
<path d="M293.829 491.809L293.828 500.003" stroke="white" stroke-width="2" stroke-linejoin="round"/>
<path d="M290.636 471.734L290.636 463.539" stroke="white" stroke-width="2" stroke-linejoin="round"/>
<path d="M284.781 497.033L284.781 505.227" stroke="white" stroke-width="2" stroke-linejoin="round"/>
<ellipse rx="1.33155" ry="1.33155" transform="matrix(-3.75718e-05 1 0.866007 -0.500033 287.887 461.542)" fill="black" stroke="white" stroke-linejoin="round"/>
<ellipse rx="1.33155" ry="1.33155" transform="matrix(3.75718e-05 -1 -0.866007 0.500033 287.53 507.225)" fill="black" stroke="white" stroke-linejoin="round"/>
<ellipse rx="1.33155" ry="1.33155" transform="matrix(-3.75718e-05 1 0.866007 -0.500033 281.5 467.688)" fill="black" stroke="white" stroke-linejoin="round"/>
<ellipse rx="1.33155" ry="1.33155" transform="matrix(3.75718e-05 -1 -0.866007 0.500033 293.917 501.079)" fill="black" stroke="white" stroke-linejoin="round"/>
<path d="M293.475 470.095L293.475 465.213L295.959 461.861L295.959 460.466" stroke="white" stroke-width="2" stroke-linejoin="round"/>
<path d="M281.942 498.672L281.942 503.554L279.459 506.906L279.458 508.3" stroke="white" stroke-width="2" stroke-linejoin="round"/>
<ellipse rx="1.33155" ry="1.33155" transform="matrix(-3.75718e-05 1 0.866007 -0.500033 296.047 459.289)" fill="black" stroke="white" stroke-linejoin="round"/>
<ellipse rx="1.33155" ry="1.33155" transform="matrix(3.75718e-05 -1 -0.866007 0.500033 279.37 509.478)" fill="black" stroke="white" stroke-linejoin="round"/>
<path d="M301.385 471.148L297.019 468.548L278.473 479.256L278.473 500.669L282.678 502.964L296.857 489.862L301.385 471.148Z" fill="#D9D9D9" stroke="black" stroke-linejoin="round"/>
<rect x="-0.433022" y="0.750016" width="21.1242" height="21.1242" transform="matrix(-0.866007 0.500033 -3.76314e-05 1 300.865 470.647)" fill="white" stroke="black" stroke-linejoin="round"/>
<path d="M282.885 481.819L277.788 478.813" stroke="black"/>
<path d="M259.694 482.367L259.629 482.456" stroke="black" stroke-opacity="0.5" stroke-linecap="round"/>
<path d="M259.694 502.532L259.629 502.622" stroke="black" stroke-opacity="0.5" stroke-linecap="round"/>
<path d="M259.694 492.428L259.629 492.518" stroke="black" stroke-opacity="0.5" stroke-linecap="round"/>
<path d="M259.694 512.636L259.629 512.726" stroke="black" stroke-opacity="0.5" stroke-linecap="round"/>
<path d="M259.694 487.376L259.629 487.466" stroke="black" stroke-opacity="0.5" stroke-linecap="round"/>
<path d="M259.694 507.584L259.629 507.674" stroke="black" stroke-opacity="0.5" stroke-linecap="round"/>
<path d="M259.694 497.48L259.629 497.57" stroke="black" stroke-opacity="0.5" stroke-linecap="round"/>
<path d="M259.694 517.688L259.629 517.778" stroke="black" stroke-opacity="0.5" stroke-linecap="round"/>
<path d="M271.585 462.153L271.63 462.052" stroke="black" stroke-opacity="0.5" stroke-linecap="round"/>
<path d="M289.049 452.07L289.094 451.969" stroke="black" stroke-opacity="0.5" stroke-linecap="round"/>
<path d="M280.298 457.122L280.343 457.021" stroke="black" stroke-opacity="0.5" stroke-linecap="round"/>
<path d="M297.799 447.018L297.844 446.917" stroke="black" stroke-opacity="0.5" stroke-linecap="round"/>
<path d="M275.923 459.648L275.968 459.547" stroke="black" stroke-opacity="0.5" stroke-linecap="round"/>
<path d="M293.424 449.544L293.469 449.443" stroke="black" stroke-opacity="0.5" stroke-linecap="round"/>
<path d="M284.674 454.596L284.718 454.495" stroke="black" stroke-opacity="0.5" stroke-linecap="round"/>
<path d="M302.174 444.492L302.219 444.391" stroke="black" stroke-opacity="0.5" stroke-linecap="round"/>
<path d="M269.87 468.147L262.125 464.016" stroke="black"/>
<path d="M263.883 477.697L255.82 473.566" stroke="black"/>
</g>
<defs>
<clipPath id="clip0_1861_609">
<rect width="338" height="563" fill="white"/>
</clipPath>
</defs>
</svg>
