<svg width="338" height="563" viewBox="0 0 338 563" fill="none" xmlns="http://www.w3.org/2000/svg">
<path d="M169.248 234.093L39.9725 308.172L39.9725 351.748L169.248 277.669L169.248 234.093Z" fill="#FF2A50"/>
<g opacity="0.4">
<path d="M169.248 308.172L298.524 382.252L298.524 425.828L169.248 351.748L169.248 308.172Z" fill="#FF2A50"/>
</g>
<path d="M298.202 382.252L168.926 456.331L168.926 499.907L298.202 425.828L298.202 382.252Z" fill="#FF2A50"/>
<path d="M298.202 308.172L168.926 382.252L168.926 425.828L298.202 351.748L298.202 308.172Z" fill="#FF2A50"/>
<path d="M169.248 308.172L39.9725 382.252L39.9725 425.828L169.248 351.748L169.248 308.172Z" fill="#FF2A50"/>
<g opacity="0.4">
<path d="M39.9723 382.252L169.248 456.331L169.248 499.907L39.9723 425.828L39.9723 382.252Z" fill="#FF2A50"/>
</g>
<g opacity="0.4">
<path d="M39.9723 308.172L169.248 382.252L169.248 425.828L39.9723 351.748L39.9723 308.172Z" fill="#FF2A50"/>
</g>
<g opacity="0.4">
<path d="M169.248 234.093L298.524 308.172L298.524 351.748L169.248 277.669L169.248 234.093Z" fill="#FF2A50"/>
</g>
<text fill="black" xml:space="preserve" style="white-space: pre;" font-family="monospace" font-size="10" letter-spacing="0em"><tspan x="151.012" y="547.25">PEOPLE</tspan></text>
<text fill="black" xml:space="preserve" style="white-space: pre;" font-family="monospace" font-size="10" letter-spacing="0em"><tspan x="24.0117" y="473.25">SKILLS</tspan></text>
<text fill="black" xml:space="preserve" style="white-space: pre;" font-family="monospace" font-size="10" letter-spacing="0em"><tspan x="286.008" y="473.25">TECH</tspan></text>
<path d="M40.25 160L40.25 426" stroke="black" stroke-width="0.5" stroke-dasharray="2 2"/>
<line x1="298.25" y1="160" x2="298.25" y2="425" stroke="black" stroke-width="0.5" stroke-dasharray="2 2"/>
<line x1="169.25" y1="234" x2="169.25" y2="496" stroke="black" stroke-width="0.5" stroke-dasharray="2 2"/>
<rect y="0.499967" width="148.212" height="148.212" transform="matrix(0.866044 0.499967 -0.866044 0.499967 169.657 277.675)" stroke="black"/>
<rect y="0.499967" width="148.212" height="148.212" transform="matrix(0.866044 0.499967 -0.866044 0.499967 169.657 202.462)" stroke="black"/>
<rect y="0.499967" width="148.212" height="148.212" transform="matrix(0.866044 0.499967 -0.866044 0.499967 169.657 255.675)" stroke="black" stroke-dasharray="2 2"/>
<rect y="0.499967" width="148.212" height="148.212" transform="matrix(0.866044 0.499967 -0.866044 0.499967 169.657 180.462)" stroke="black" stroke-dasharray="2 2"/>
<rect y="0.499967" width="148.212" height="148.212" transform="matrix(0.866044 0.499967 -0.866044 0.499967 169.657 331.871)" stroke="black" stroke-dasharray="2 2"/>
<rect y="0.499967" width="148.212" height="148.212" transform="matrix(0.866044 0.499967 -0.866044 0.499967 169.657 351.25)" stroke="black"/>
<rect y="0.499967" width="148.212" height="148.212" transform="matrix(0.866044 0.499967 -0.866044 0.499967 169.657 307.777)" stroke="black"/>
<rect y="0.499967" width="148.212" height="148.212" transform="matrix(0.866044 0.499967 -0.866044 0.499967 169.657 233.463)" stroke="black"/>
<rect y="0.499967" width="148.212" height="148.212" transform="matrix(0.866044 0.499967 -0.866044 0.499967 169.657 158.25)" stroke="black"/>
<rect y="0.499967" width="148.212" height="148.212" transform="matrix(0.866044 0.499967 -0.866044 0.499967 169.657 127.462)" stroke="black"/>
<rect y="0.499967" width="148.212" height="148.212" transform="matrix(0.866044 0.499967 -0.866044 0.499967 169.657 105.462)" stroke="black" stroke-dasharray="2 2"/>
<rect y="0.499967" width="148.212" height="148.212" transform="matrix(0.866044 0.499967 -0.866044 0.499967 169.657 85.25)" fill="black" stroke="black"/>
<path d="M140.845 126.844L140.845 53.1429L193.916 61.3328L193.916 134.901L174.411 146.162L147.909 142.062L140.845 126.844Z" fill="white" stroke="black"/>
<path d="M140.95 52.7937L160.351 41.5937L186.852 45.6932L193.811 60.6864L174.411 71.8863L147.909 67.7869L140.95 52.7937Z" fill="#E5E5E5" stroke="black"/>
<path d="M194.453 71.9278L174.635 83.3689L147.562 79.1811L140.308 63.5523" stroke="black" stroke-dasharray="2 2"/>
<path d="M194.453 84.6288L174.635 96.0699L147.562 91.8822L140.308 76.2534" stroke="black" stroke-dasharray="2 2"/>
<path d="M194.453 97.6288L174.635 109.07L147.562 104.882L140.308 89.2534" stroke="black" stroke-dasharray="2 2"/>
<path d="M174.544 146.121L174.544 72.2167" stroke="black"/>
<path d="M147.817 131.154L147.817 67.0095" stroke="black"/>
<path d="M126.124 174.806L108.5 136.834L108.5 86.0638L174.152 95.9623L174.152 147.079L126.124 174.806Z" fill="white" stroke="black"/>
<path d="M126.239 173.834L126.239 123.418" stroke="black"/>
<path d="M126.124 123.342L108.754 85.9173L173.581 95.9453L126.124 123.342Z" fill="#E5E5E5" stroke="black"/>
<path d="M108.888 106.131L125.807 143.739L174.764 115.476" stroke="black" stroke-dasharray="2 2"/>
<path d="M108.888 128.343L125.807 165.951L174.764 137.688" stroke="black" stroke-dasharray="2 2"/>
<path d="M126.124 123.342L108.754 85.9173L173.581 95.9453L126.124 123.342Z" fill="#E5E5E5" stroke="black"/>
<path d="M237.319 144.648C237.319 148.155 234.853 151.425 230.659 153.846C226.478 156.26 220.67 157.768 214.227 157.768C207.783 157.768 201.975 156.26 197.794 153.846C193.6 151.425 191.134 148.155 191.134 144.648C191.134 141.142 193.6 137.872 197.794 135.451C201.975 133.037 207.783 131.528 214.227 131.528C220.67 131.528 226.478 133.037 230.659 135.451C234.853 137.872 237.319 141.142 237.319 144.648Z" fill="white" stroke="black"/>
<path d="M186.66 90.0236H233.793V145.115H186.66V90.0236Z" fill="white"/>
<path d="M233.319 91.0439C233.319 94.5507 230.853 97.8206 226.659 100.242C222.478 102.655 216.67 104.164 210.227 104.164C203.783 104.164 197.975 102.655 193.794 100.242C189.6 97.8206 187.134 94.5507 187.134 91.0439C187.134 87.5371 189.6 84.2673 193.794 81.8462C197.975 79.4327 203.783 77.924 210.227 77.924C216.67 77.924 222.478 79.4327 226.659 81.8462C230.853 84.2673 233.319 87.5371 233.319 91.0439Z" fill="#E5E5E5" stroke="black"/>
<path opacity="0.5" d="M233 106C233 112.075 222.703 117 210 117C197.297 117 187 112.075 187 106" stroke="black" stroke-dasharray="2 2"/>
<line x1="233.12" y1="144.776" x2="233.12" y2="91.322" stroke="black"/>
<line x1="187.149" y1="144.776" x2="187.149" y2="91.322" stroke="black"/>
<circle cx="298" cy="445" r="9" fill="#D9D9D9"/>
<circle cx="41" cy="445" r="9" fill="#D9D9D9"/>
<path d="M265.843 156.09C265.843 159.597 263.376 162.867 259.182 165.288C255.002 167.702 249.193 169.21 242.75 169.21C236.307 169.21 230.498 167.702 226.318 165.288C222.124 162.867 219.658 159.597 219.658 156.09C219.658 152.584 222.124 149.314 226.318 146.893C230.498 144.479 236.307 142.97 242.75 142.97C249.193 142.97 255.002 144.479 259.182 146.893C263.376 149.314 265.843 152.584 265.843 156.09Z" fill="white" stroke="black"/>
<rect x="219.183" y="133.538" width="47.1337" height="23.0188" fill="white"/>
<path d="M265.843 134.558C265.843 138.065 263.376 141.335 259.182 143.756C255.002 146.17 249.193 147.678 242.75 147.678C236.307 147.678 230.498 146.17 226.318 143.756C222.124 141.335 219.658 138.065 219.658 134.558C219.658 131.052 222.124 127.782 226.318 125.361C230.498 122.947 236.307 121.438 242.75 121.438C249.193 121.438 255.002 122.947 259.182 125.361C263.376 127.782 265.843 131.052 265.843 134.558Z" fill="#E5E5E5" stroke="black"/>
<line x1="265.817" y1="156.557" x2="265.817" y2="133.538" stroke="black"/>
<line x1="219.779" y1="156.557" x2="219.779" y2="133.538" stroke="black"/>
<path opacity="0.5" d="M266 146C266 152.627 255.703 158 243 158C230.297 158 220 152.627 220 146" stroke="black" stroke-dasharray="2 2"/>
<path d="M255.021 131.639C255.437 132.221 255.731 132.84 255.882 133.484L255.395 133.599C255.464 133.894 255.5 134.195 255.5 134.5C255.5 134.805 255.464 135.106 255.395 135.401L255.882 135.516C255.731 136.16 255.437 136.779 255.021 137.361L254.614 137.07C254.269 137.553 253.825 138.015 253.293 138.448L253.609 138.836C253.106 139.245 252.534 139.623 251.902 139.966L251.664 139.526C251.111 139.826 250.508 140.099 249.862 140.339L250.036 140.808C249.417 141.038 248.762 141.239 248.076 141.407L247.957 140.921C247.329 141.075 246.673 141.201 245.996 141.295L246.065 141.79C245.403 141.883 244.722 141.946 244.025 141.977L244.003 141.478C243.672 141.492 243.338 141.5 243 141.5C242.662 141.5 242.328 141.492 241.997 141.478L241.975 141.977C241.278 141.946 240.597 141.883 239.935 141.79L240.004 141.295C239.327 141.201 238.671 141.075 238.043 140.921L237.924 141.407C237.238 141.239 236.583 141.038 235.964 140.808L236.138 140.339C235.492 140.099 234.889 139.826 234.336 139.526L234.098 139.966C233.466 139.623 232.894 139.245 232.391 138.836L232.707 138.448C232.175 138.015 231.731 137.553 231.386 137.07L230.979 137.361C230.563 136.779 230.269 136.16 230.118 135.516L230.605 135.401C230.536 135.106 230.5 134.805 230.5 134.5C230.5 134.195 230.536 133.894 230.605 133.599L230.118 133.484C230.269 132.84 230.563 132.221 230.979 131.639L231.386 131.93C231.731 131.447 232.175 130.985 232.707 130.552L232.391 130.164C232.894 129.755 233.466 129.377 234.098 129.034L234.336 129.474C234.889 129.174 235.492 128.901 236.138 128.661L235.964 128.192C236.583 127.962 237.238 127.761 237.924 127.593L238.043 128.079C238.671 127.925 239.327 127.799 240.004 127.705L239.935 127.21C240.597 127.117 241.278 127.054 241.975 127.023L241.997 127.522C242.328 127.508 242.662 127.5 243 127.5C243.338 127.5 243.672 127.508 244.003 127.522L244.025 127.023C244.722 127.054 245.403 127.117 246.065 127.21L245.996 127.705C246.673 127.799 247.329 127.925 247.957 128.079L248.076 127.593C248.762 127.761 249.417 127.962 250.036 128.192L249.862 128.661C250.508 128.901 251.111 129.174 251.664 129.474L251.902 129.034C252.534 129.377 253.106 129.755 253.609 130.164L253.293 130.552C253.825 130.985 254.269 131.447 254.614 131.93L255.021 131.639Z" fill="#E5E5E5" stroke="black" stroke-dasharray="2 2"/>
<path d="M112.5 156.828C112.5 160.001 110.268 162.969 106.453 165.171C102.651 167.366 97.3653 168.74 91.5 168.74C85.6347 168.74 80.3491 167.366 76.5472 165.171C72.732 162.969 70.5 160.001 70.5 156.828C70.5 153.655 72.732 150.687 76.5472 148.484C80.3491 146.289 85.6347 144.916 91.5 144.916C97.3653 144.916 102.651 146.289 106.453 148.484C110.268 150.687 112.5 153.655 112.5 156.828Z" fill="#E5E5E5" stroke="black"/>
<path d="M70.0234 122.636H112.977V157.253H70.0234V122.636Z" fill="#E5E5E5"/>
<path d="M112.5 123.566C112.5 126.739 110.268 129.707 106.453 131.909C102.651 134.104 97.3653 135.478 91.5 135.478C85.6347 135.478 80.3491 134.104 76.5472 131.909C72.732 129.707 70.5 126.739 70.5 123.566C70.5 120.393 72.732 117.425 76.5472 115.222C80.3491 113.027 85.6347 111.654 91.5 111.654C97.3653 111.654 102.651 113.027 106.453 115.222C110.268 117.425 112.5 120.393 112.5 123.566Z" fill="white" stroke="black"/>
<line x1="112.5" y1="157.3" x2="112.5" y2="124" stroke="black"/>
<line x1="70.5" y1="158" x2="70.5" y2="124" stroke="black"/>
<path opacity="0.5" d="M112 136C112 140.971 102.822 145 91.5 145C80.1782 145 71 140.971 71 136" stroke="black" stroke-dasharray="2 2"/>
<path opacity="0.5" d="M112 149C112 153.971 102.822 158 91.5 158C80.1782 158 71 152.971 71 148" stroke="black" stroke-dasharray="2 2"/>
<path d="M102.115 119.996C102.491 120.503 102.756 121.044 102.893 121.608L102.407 121.726C102.468 121.98 102.5 122.238 102.5 122.5C102.5 122.762 102.468 123.02 102.407 123.274L102.893 123.392C102.756 123.956 102.491 124.497 102.115 125.004L101.713 124.707C101.408 125.121 101.016 125.518 100.544 125.89L100.854 126.282C100.407 126.634 99.8998 126.96 99.3403 127.255L99.1072 126.813C98.6205 127.069 98.0901 127.303 97.5219 127.508L97.692 127.978C97.146 128.176 96.5686 128.348 95.965 128.492L95.849 128.006C95.2974 128.137 94.7223 128.244 94.1279 128.325L94.1952 128.821C93.6132 128.899 93.0141 128.953 92.4014 128.98L92.3795 128.481C92.0894 128.494 91.7961 128.5 91.5 128.5C91.2039 128.5 90.9106 128.494 90.6205 128.481L90.5986 128.98C89.9859 128.953 89.3868 128.899 88.8048 128.821L88.8721 128.325C88.2777 128.244 87.7026 128.137 87.151 128.006L87.035 128.492C86.4314 128.348 85.854 128.176 85.308 127.978L85.4782 127.508C84.9099 127.303 84.3795 127.069 83.8928 126.813L83.6597 127.255C83.1002 126.96 82.5928 126.634 82.1461 126.282L82.4558 125.89C81.9844 125.518 81.5925 125.121 81.2867 124.707L80.8847 125.004C80.5091 124.497 80.2444 123.956 80.1075 123.392L80.5933 123.274C80.5317 123.02 80.5 122.762 80.5 122.5C80.5 122.238 80.5317 121.98 80.5933 121.726L80.1075 121.608C80.2444 121.044 80.5091 120.503 80.8847 119.996L81.2867 120.293C81.5925 119.879 81.9844 119.482 82.4558 119.11L82.1461 118.718C82.5928 118.366 83.1002 118.04 83.6597 117.745L83.8928 118.187C84.3795 117.931 84.9099 117.697 85.4781 117.492L85.308 117.022C85.854 116.824 86.4314 116.652 87.035 116.508L87.151 116.994C87.7026 116.863 88.2777 116.756 88.8721 116.675L88.8048 116.179C89.3868 116.101 89.9859 116.047 90.5986 116.02L90.6205 116.519C90.9106 116.506 91.2039 116.5 91.5 116.5C91.7961 116.5 92.0894 116.506 92.3795 116.519L92.4014 116.02C93.0141 116.047 93.6132 116.101 94.1952 116.179L94.1279 116.675C94.7223 116.756 95.2974 116.863 95.849 116.994L95.965 116.508C96.5686 116.652 97.146 116.824 97.692 117.022L97.5218 117.492C98.0901 117.697 98.6205 117.931 99.1072 118.187L99.3403 117.745C99.8998 118.04 100.407 118.366 100.854 118.718L100.544 119.11C101.016 119.482 101.408 119.879 101.713 120.293L102.115 119.996Z" fill="#E5E5E5" stroke="black" stroke-dasharray="2 2"/>
<path d="M119.307 188.201L113.658 176.031L113.658 143.137L134.616 146.297L134.616 179.363L119.307 188.201Z" fill="white" stroke="black"/>
<path d="M119.306 154.814L113.912 143.191L134.045 146.305L119.306 154.814Z" fill="#E5E5E5" stroke="black"/>
<path d="M113.046 160.87L118.989 173.676L135.228 164.302" stroke="black" stroke-dasharray="2 2"/>
<path d="M119.403 188.403L119.403 154.579" stroke="black"/>
<path d="M186.047 124.474L186.12 124.479L186.194 124.474L220.73 122.067L220.73 160.104L186.12 180.084L151.511 160.104L151.511 122.067L186.047 124.474Z" fill="#E5E5E5" stroke="black"/>
<rect y="0.499967" width="39.6697" height="39.6697" transform="matrix(0.866044 0.499967 -0.866044 0.499967 186.553 101.584)" fill="#D9D9D9" stroke="black"/>
<path d="M186.12 101.834L220.476 121.668L186.12 141.502L151.765 121.668L186.12 101.834Z" fill="white" stroke="black"/>
<line x1="186.013" y1="140.706" x2="186.013" y2="179.583" stroke="black"/>
<line x1="167.488" y1="130.537" x2="167.488" y2="170.447" stroke="black" stroke-dasharray="2 2"/>
<line x1="204.478" y1="130.537" x2="204.478" y2="170.447" stroke="black" stroke-dasharray="2 2"/>
<path d="M168.935 111.069L203.292 130.904" stroke="black" stroke-linejoin="round" stroke-dasharray="2 2"/>
<path d="M151.413 141.271L185.771 161.106" stroke="black" stroke-linejoin="round" stroke-dasharray="2 2"/>
<path d="M202.318 111.069L167.962 130.905" stroke="black" stroke-linejoin="round" stroke-dasharray="2 2"/>
<path d="M220.813 141.245L186.457 161.081" stroke="black" stroke-linejoin="round" stroke-dasharray="2 2"/>
<path d="M167.252 162.67L167.325 162.675L167.399 162.67L186.133 161.364L186.133 182.092L167.325 192.949L148.518 182.092L148.518 161.364L167.252 162.67Z" fill="#E5E5E5" stroke="black"/>
<rect y="0.499967" width="21.4235" height="21.4235" transform="matrix(0.866044 0.499967 -0.866044 0.499967 167.758 150.005)" fill="#D9D9D9" stroke="black"/>
<path d="M167.325 150.255L185.879 160.966L167.325 171.677L148.772 160.966L167.325 150.255Z" fill="white" stroke="black"/>
<line x1="167.491" y1="171.462" x2="167.491" y2="192.898" stroke="black"/>
<line x1="157.277" y1="165.856" x2="157.277" y2="187.861" stroke="black" stroke-dasharray="2 2"/>
<line x1="177.671" y1="165.856" x2="177.671" y2="187.861" stroke="black" stroke-dasharray="2 2"/>
<path d="M157.85 155.122L176.793 166.058" stroke="black" stroke-linejoin="round" stroke-dasharray="2 2"/>
<path d="M148.189 171.223L167.133 182.159" stroke="black" stroke-linejoin="round" stroke-dasharray="2 2"/>
<path d="M176.256 155.122L157.313 166.058" stroke="black" stroke-linejoin="round" stroke-dasharray="2 2"/>
<path d="M186.453 171.759L167.511 182.696" stroke="black" stroke-linejoin="round" stroke-dasharray="2 2"/>
<path d="M204.215 162.67L204.288 162.675L204.362 162.67L223.096 161.364L223.096 182.092L204.288 192.949L185.481 182.092L185.481 161.364L204.215 162.67Z" fill="#E5E5E5" stroke="black"/>
<rect y="0.499967" width="21.4235" height="21.4235" transform="matrix(0.866044 0.499967 -0.866044 0.499967 204.721 150.005)" fill="#D9D9D9" stroke="black"/>
<path d="M204.288 150.255L222.842 160.966L204.288 171.677L185.735 160.966L204.288 150.255Z" fill="white" stroke="black"/>
<line x1="204.453" y1="171.462" x2="204.453" y2="192.898" stroke="black"/>
<line x1="194.24" y1="165.856" x2="194.24" y2="187.861" stroke="black" stroke-dasharray="2 2"/>
<line x1="214.634" y1="165.856" x2="214.634" y2="187.861" stroke="black" stroke-dasharray="2 2"/>
<path d="M194.813 155.122L213.756 166.058" stroke="black" stroke-linejoin="round" stroke-dasharray="2 2"/>
<path d="M185.152 171.223L204.095 182.159" stroke="black" stroke-linejoin="round" stroke-dasharray="2 2"/>
<path d="M213.219 155.122L194.276 166.058" stroke="black" stroke-linejoin="round" stroke-dasharray="2 2"/>
<path d="M223.416 171.759L204.474 182.696" stroke="black" stroke-linejoin="round" stroke-dasharray="2 2"/>
<path d="M185.733 173.542L185.807 173.547L185.88 173.542L204.614 172.236L204.614 192.963L185.807 203.821L166.999 192.963L166.999 172.236L185.733 173.542Z" fill="#E5E5E5" stroke="black"/>
<rect y="0.499967" width="21.4235" height="21.4235" transform="matrix(0.866044 0.499967 -0.866044 0.499967 186.24 160.876)" fill="#D9D9D9" stroke="black"/>
<path d="M185.807 161.126L204.361 171.837L185.807 182.548L167.253 171.837L185.807 161.126Z" fill="white" stroke="black"/>
<line x1="185.972" y1="182.334" x2="185.972" y2="203.769" stroke="black"/>
<line x1="175.758" y1="176.727" x2="175.758" y2="198.732" stroke="black" stroke-dasharray="2 2"/>
<line x1="196.153" y1="176.727" x2="196.153" y2="198.732" stroke="black" stroke-dasharray="2 2"/>
<path d="M176.331 165.993L195.275 176.929" stroke="black" stroke-linejoin="round" stroke-dasharray="2 2"/>
<path d="M166.671 182.094L185.614 193.03" stroke="black" stroke-linejoin="round" stroke-dasharray="2 2"/>
<path d="M194.738 165.993L175.795 176.93" stroke="black" stroke-linejoin="round" stroke-dasharray="2 2"/>
<path d="M204.935 182.631L185.992 193.568" stroke="black" stroke-linejoin="round" stroke-dasharray="2 2"/>
<path d="M148.77 173.542L148.844 173.547L148.917 173.542L167.651 172.236L167.651 192.963L148.844 203.821L130.037 192.963L130.037 172.236L148.77 173.542Z" fill="#E5E5E5" stroke="black"/>
<rect y="0.499967" width="21.4235" height="21.4235" transform="matrix(0.866044 0.499967 -0.866044 0.499967 149.277 160.876)" fill="#D9D9D9" stroke="black"/>
<path d="M148.844 161.126L167.398 171.837L148.844 182.548L130.29 171.837L148.844 161.126Z" fill="white" stroke="black"/>
<line x1="149.009" y1="182.334" x2="149.009" y2="203.769" stroke="black"/>
<line x1="138.795" y1="176.727" x2="138.795" y2="198.732" stroke="black" stroke-dasharray="2 2"/>
<line x1="159.19" y1="176.727" x2="159.19" y2="198.732" stroke="black" stroke-dasharray="2 2"/>
<path d="M139.368 165.993L158.312 176.929" stroke="black" stroke-linejoin="round" stroke-dasharray="2 2"/>
<path d="M129.708 182.094L148.651 193.03" stroke="black" stroke-linejoin="round" stroke-dasharray="2 2"/>
<path d="M157.775 165.993L138.832 176.93" stroke="black" stroke-linejoin="round" stroke-dasharray="2 2"/>
<path d="M167.972 182.631L149.029 193.568" stroke="black" stroke-linejoin="round" stroke-dasharray="2 2"/>
<path d="M167.252 184.413L167.325 184.418L167.399 184.413L186.133 183.107L186.133 203.835L167.325 214.692L148.518 203.835L148.518 183.107L167.252 184.413Z" fill="#E5E5E5" stroke="black"/>
<rect y="0.499967" width="21.4235" height="21.4235" transform="matrix(0.866044 0.499967 -0.866044 0.499967 167.758 171.748)" fill="#D9D9D9" stroke="black"/>
<path d="M167.325 171.997L185.879 182.709L167.325 193.42L148.772 182.709L167.325 171.997Z" fill="white" stroke="black"/>
<line x1="167.491" y1="193.205" x2="167.491" y2="214.64" stroke="black"/>
<line x1="157.277" y1="187.599" x2="157.277" y2="209.604" stroke="black" stroke-dasharray="2 2"/>
<line x1="177.671" y1="187.599" x2="177.671" y2="209.604" stroke="black" stroke-dasharray="2 2"/>
<path d="M157.85 176.865L176.793 187.801" stroke="black" stroke-linejoin="round" stroke-dasharray="2 2"/>
<path d="M148.189 192.966L167.133 203.902" stroke="black" stroke-linejoin="round" stroke-dasharray="2 2"/>
<path d="M176.256 176.865L157.313 187.801" stroke="black" stroke-linejoin="round" stroke-dasharray="2 2"/>
<path d="M186.453 193.502L167.511 204.439" stroke="black" stroke-linejoin="round" stroke-dasharray="2 2"/>
<path d="M196.5 485V490.5H192.5V485V484.793L192.354 484.646L191.5 483.793V481C191.5 480.172 192.172 479.5 193 479.5H196C196.828 479.5 197.5 480.172 197.5 481V483.793L196.646 484.646L196.5 484.793V485Z" fill="white" stroke="black"/>
<circle cx="194.5" cy="477.5" r="1.5" fill="white" stroke="black"/>
<line x1="194.5" y1="485" x2="194.5" y2="491" stroke="black"/>
<path d="M201.5 488V493.5H197.5V488V487.793L197.354 487.646L196.5 486.793V484C196.5 483.172 197.172 482.5 198 482.5H201C201.828 482.5 202.5 483.172 202.5 484V486.793L201.646 487.646L201.5 487.793V488Z" fill="white" stroke="black"/>
<circle cx="199.5" cy="480.5" r="1.5" fill="white" stroke="black"/>
<line x1="199.5" y1="488" x2="199.5" y2="494" stroke="black"/>
<path d="M191.5 488V493.5H187.5V488V487.793L187.354 487.646L186.5 486.793V484C186.5 483.172 187.172 482.5 188 482.5H191C191.828 482.5 192.5 483.172 192.5 484V486.793L191.646 487.646L191.5 487.793V488Z" fill="white" stroke="black"/>
<circle cx="189.5" cy="480.5" r="1.5" fill="white" stroke="black"/>
<line x1="189.5" y1="488" x2="189.5" y2="494" stroke="black"/>
<path d="M186.5 491V496.5H182.5V491V490.793L182.354 490.646L181.5 489.793V487C181.5 486.172 182.172 485.5 183 485.5H186C186.828 485.5 187.5 486.172 187.5 487V489.793L186.646 490.646L186.5 490.793V491Z" fill="white" stroke="black"/>
<circle cx="184.5" cy="483.5" r="1.5" fill="white" stroke="black"/>
<line x1="184.5" y1="491" x2="184.5" y2="497" stroke="black"/>
<path d="M206.5 491V496.5H202.5V491V490.793L202.354 490.646L201.5 489.793V487C201.5 486.172 202.172 485.5 203 485.5H206C206.828 485.5 207.5 486.172 207.5 487V489.793L206.646 490.646L206.5 490.793V491Z" fill="white" stroke="black"/>
<circle cx="204.5" cy="483.5" r="1.5" fill="white" stroke="black"/>
<line x1="204.5" y1="491" x2="204.5" y2="497" stroke="black"/>
<path d="M196.5 491V496.5H192.5V491V490.793L192.354 490.646L191.5 489.793V487C191.5 486.172 192.172 485.5 193 485.5H196C196.828 485.5 197.5 486.172 197.5 487V489.793L196.646 490.646L196.5 490.793V491Z" fill="white" stroke="black"/>
<circle cx="194.5" cy="483.5" r="1.5" fill="white" stroke="black"/>
<line x1="194.5" y1="491" x2="194.5" y2="497" stroke="black"/>
<path d="M181.5 494V499.5H177.5V494V493.793L177.354 493.646L176.5 492.793V490C176.5 489.172 177.172 488.5 178 488.5H181C181.828 488.5 182.5 489.172 182.5 490V492.793L181.646 493.646L181.5 493.793V494Z" fill="white" stroke="black"/>
<circle cx="179.5" cy="486.5" r="1.5" fill="white" stroke="black"/>
<line x1="179.5" y1="494" x2="179.5" y2="500" stroke="black"/>
<path d="M191.5 494V499.5H187.5V494V493.793L187.354 493.646L186.5 492.793V490C186.5 489.172 187.172 488.5 188 488.5H191C191.828 488.5 192.5 489.172 192.5 490V492.793L191.646 493.646L191.5 493.793V494Z" fill="white" stroke="black"/>
<circle cx="189.5" cy="486.5" r="1.5" fill="white" stroke="black"/>
<line x1="189.5" y1="494" x2="189.5" y2="500" stroke="black"/>
<path d="M211.5 494V499.5H207.5V494V493.793L207.354 493.646L206.5 492.793V490C206.5 489.172 207.172 488.5 208 488.5H211C211.828 488.5 212.5 489.172 212.5 490V492.793L211.646 493.646L211.5 493.793V494Z" fill="white" stroke="black"/>
<circle cx="209.5" cy="486.5" r="1.5" fill="white" stroke="black"/>
<line x1="209.5" y1="494" x2="209.5" y2="500" stroke="black"/>
<path d="M201.5 494V499.5H197.5V494V493.793L197.354 493.646L196.5 492.793V490C196.5 489.172 197.172 488.5 198 488.5H201C201.828 488.5 202.5 489.172 202.5 490V492.793L201.646 493.646L201.5 493.793V494Z" fill="white" stroke="black"/>
<circle cx="199.5" cy="486.5" r="1.5" fill="white" stroke="black"/>
<line x1="199.5" y1="494" x2="199.5" y2="500" stroke="black"/>
<path d="M186.5 497V502.5H182.5V497V496.793L182.354 496.646L181.5 495.793V493C181.5 492.172 182.172 491.5 183 491.5H186C186.828 491.5 187.5 492.172 187.5 493V495.793L186.646 496.646L186.5 496.793V497Z" fill="white" stroke="black"/>
<circle cx="184.5" cy="489.5" r="1.5" fill="white" stroke="black"/>
<line x1="184.5" y1="497" x2="184.5" y2="503" stroke="black"/>
<path d="M176.5 497V502.5H172.5V497V496.793L172.354 496.646L171.5 495.793V493C171.5 492.172 172.172 491.5 173 491.5H176C176.828 491.5 177.5 492.172 177.5 493V495.793L176.646 496.646L176.5 496.793V497Z" fill="white" stroke="black"/>
<circle cx="174.5" cy="489.5" r="1.5" fill="white" stroke="black"/>
<line x1="174.5" y1="497" x2="174.5" y2="503" stroke="black"/>
<path d="M206.5 497V502.5H202.5V497V496.793L202.354 496.646L201.5 495.793V493C201.5 492.172 202.172 491.5 203 491.5H206C206.828 491.5 207.5 492.172 207.5 493V495.793L206.646 496.646L206.5 496.793V497Z" fill="white" stroke="black"/>
<circle cx="204.5" cy="489.5" r="1.5" fill="white" stroke="black"/>
<line x1="204.5" y1="497" x2="204.5" y2="503" stroke="black"/>
<path d="M216.5 497V502.5H212.5V497V496.793L212.354 496.646L211.5 495.793V493C211.5 492.172 212.172 491.5 213 491.5H216C216.828 491.5 217.5 492.172 217.5 493V495.793L216.646 496.646L216.5 496.793V497Z" fill="white" stroke="black"/>
<circle cx="214.5" cy="489.5" r="1.5" fill="white" stroke="black"/>
<line x1="214.5" y1="497" x2="214.5" y2="503" stroke="black"/>
<path d="M196.5 497V502.5H192.5V497V496.793L192.354 496.646L191.5 495.793V493C191.5 492.172 192.172 491.5 193 491.5H196C196.828 491.5 197.5 492.172 197.5 493V495.793L196.646 496.646L196.5 496.793V497Z" fill="white" stroke="black"/>
<circle cx="194.5" cy="489.5" r="1.5" fill="white" stroke="black"/>
<line x1="194.5" y1="497" x2="194.5" y2="503" stroke="black"/>
<path d="M201.5 500V505.5H197.5V500V499.793L197.354 499.646L196.5 498.793V496C196.5 495.172 197.172 494.5 198 494.5H201C201.828 494.5 202.5 495.172 202.5 496V498.793L201.646 499.646L201.5 499.793V500Z" fill="white" stroke="black"/>
<circle cx="199.5" cy="492.5" r="1.5" fill="white" stroke="black"/>
<line x1="199.5" y1="500" x2="199.5" y2="506" stroke="black"/>
<path d="M211.5 500V505.5H207.5V500V499.793L207.354 499.646L206.5 498.793V496C206.5 495.172 207.172 494.5 208 494.5H211C211.828 494.5 212.5 495.172 212.5 496V498.793L211.646 499.646L211.5 499.793V500Z" fill="white" stroke="black"/>
<circle cx="209.5" cy="492.5" r="1.5" fill="white" stroke="black"/>
<line x1="209.5" y1="500" x2="209.5" y2="506" stroke="black"/>
<path d="M191.5 500V505.5H187.5V500V499.793L187.354 499.646L186.5 498.793V496C186.5 495.172 187.172 494.5 188 494.5H191C191.828 494.5 192.5 495.172 192.5 496V498.793L191.646 499.646L191.5 499.793V500Z" fill="white" stroke="black"/>
<circle cx="189.5" cy="492.5" r="1.5" fill="white" stroke="black"/>
<line x1="189.5" y1="500" x2="189.5" y2="506" stroke="black"/>
<path d="M181.5 500V505.5H177.5V500V499.793L177.354 499.646L176.5 498.793V496C176.5 495.172 177.172 494.5 178 494.5H181C181.828 494.5 182.5 495.172 182.5 496V498.793L181.646 499.646L181.5 499.793V500Z" fill="white" stroke="black"/>
<circle cx="179.5" cy="492.5" r="1.5" fill="white" stroke="black"/>
<line x1="179.5" y1="500" x2="179.5" y2="506" stroke="black"/>
<path d="M196.5 503V508.5H192.5V503V502.793L192.354 502.646L191.5 501.793V499C191.5 498.172 192.172 497.5 193 497.5H196C196.828 497.5 197.5 498.172 197.5 499V501.793L196.646 502.646L196.5 502.793V503Z" fill="white" stroke="black"/>
<circle cx="194.5" cy="495.5" r="1.5" fill="white" stroke="black"/>
<line x1="194.5" y1="503" x2="194.5" y2="509" stroke="black"/>
<path d="M206.5 503V508.5H202.5V503V502.793L202.354 502.646L201.5 501.793V499C201.5 498.172 202.172 497.5 203 497.5H206C206.828 497.5 207.5 498.172 207.5 499V501.793L206.646 502.646L206.5 502.793V503Z" fill="white" stroke="black"/>
<circle cx="204.5" cy="495.5" r="1.5" fill="white" stroke="black"/>
<line x1="204.5" y1="503" x2="204.5" y2="509" stroke="black"/>
<path d="M186.5 503V508.5H182.5V503V502.793L182.354 502.646L181.5 501.793V499C181.5 498.172 182.172 497.5 183 497.5H186C186.828 497.5 187.5 498.172 187.5 499V501.793L186.646 502.646L186.5 502.793V503Z" fill="white" stroke="black"/>
<circle cx="184.5" cy="495.5" r="1.5" fill="white" stroke="black"/>
<line x1="184.5" y1="503" x2="184.5" y2="509" stroke="black"/>
<path d="M191.5 506V511.5H187.5V506V505.793L187.354 505.646L186.5 504.793V502C186.5 501.172 187.172 500.5 188 500.5H191C191.828 500.5 192.5 501.172 192.5 502V504.793L191.646 505.646L191.5 505.793V506Z" fill="white" stroke="black"/>
<circle cx="189.5" cy="498.5" r="1.5" fill="white" stroke="black"/>
<line x1="189.5" y1="506" x2="189.5" y2="512" stroke="black"/>
<path d="M201.5 506V511.5H197.5V506V505.793L197.354 505.646L196.5 504.793V502C196.5 501.172 197.172 500.5 198 500.5H201C201.828 500.5 202.5 501.172 202.5 502V504.793L201.646 505.646L201.5 505.793V506Z" fill="white" stroke="black"/>
<circle cx="199.5" cy="498.5" r="1.5" fill="white" stroke="black"/>
<line x1="199.5" y1="506" x2="199.5" y2="512" stroke="black"/>
<path d="M196.5 509V514.5H192.5V509V508.793L192.354 508.646L191.5 507.793V505C191.5 504.172 192.172 503.5 193 503.5H196C196.828 503.5 197.5 504.172 197.5 505V507.793L196.646 508.646L196.5 508.793V509Z" fill="white" stroke="black"/>
<circle cx="194.5" cy="501.5" r="1.5" fill="white" stroke="black"/>
<line x1="194.5" y1="509" x2="194.5" y2="515" stroke="black"/>
<path d="M146.5 485V490.5H142.5V485V484.793L142.354 484.646L141.5 483.793V481C141.5 480.172 142.172 479.5 143 479.5H146C146.828 479.5 147.5 480.172 147.5 481V483.793L146.646 484.646L146.5 484.793V485Z" fill="white" stroke="black"/>
<circle cx="144.5" cy="477.5" r="1.5" fill="white" stroke="black"/>
<line x1="144.5" y1="485" x2="144.5" y2="491" stroke="black"/>
<path d="M151.5 488V493.5H147.5V488V487.793L147.354 487.646L146.5 486.793V484C146.5 483.172 147.172 482.5 148 482.5H151C151.828 482.5 152.5 483.172 152.5 484V486.793L151.646 487.646L151.5 487.793V488Z" fill="white" stroke="black"/>
<circle cx="149.5" cy="480.5" r="1.5" fill="white" stroke="black"/>
<line x1="149.5" y1="488" x2="149.5" y2="494" stroke="black"/>
<path d="M141.5 488V493.5H137.5V488V487.793L137.354 487.646L136.5 486.793V484C136.5 483.172 137.172 482.5 138 482.5H141C141.828 482.5 142.5 483.172 142.5 484V486.793L141.646 487.646L141.5 487.793V488Z" fill="white" stroke="black"/>
<circle cx="139.5" cy="480.5" r="1.5" fill="white" stroke="black"/>
<line x1="139.5" y1="488" x2="139.5" y2="494" stroke="black"/>
<path d="M136.5 491V496.5H132.5V491V490.793L132.354 490.646L131.5 489.793V487C131.5 486.172 132.172 485.5 133 485.5H136C136.828 485.5 137.5 486.172 137.5 487V489.793L136.646 490.646L136.5 490.793V491Z" fill="white" stroke="black"/>
<circle cx="134.5" cy="483.5" r="1.5" fill="white" stroke="black"/>
<line x1="134.5" y1="491" x2="134.5" y2="497" stroke="black"/>
<path d="M156.5 491V496.5H152.5V491V490.793L152.354 490.646L151.5 489.793V487C151.5 486.172 152.172 485.5 153 485.5H156C156.828 485.5 157.5 486.172 157.5 487V489.793L156.646 490.646L156.5 490.793V491Z" fill="white" stroke="black"/>
<circle cx="154.5" cy="483.5" r="1.5" fill="white" stroke="black"/>
<line x1="154.5" y1="491" x2="154.5" y2="497" stroke="black"/>
<path d="M146.5 491V496.5H142.5V491V490.793L142.354 490.646L141.5 489.793V487C141.5 486.172 142.172 485.5 143 485.5H146C146.828 485.5 147.5 486.172 147.5 487V489.793L146.646 490.646L146.5 490.793V491Z" fill="white" stroke="black"/>
<circle cx="144.5" cy="483.5" r="1.5" fill="white" stroke="black"/>
<line x1="144.5" y1="491" x2="144.5" y2="497" stroke="black"/>
<path d="M131.5 494V499.5H127.5V494V493.793L127.354 493.646L126.5 492.793V490C126.5 489.172 127.172 488.5 128 488.5H131C131.828 488.5 132.5 489.172 132.5 490V492.793L131.646 493.646L131.5 493.793V494Z" fill="white" stroke="black"/>
<circle cx="129.5" cy="486.5" r="1.5" fill="white" stroke="black"/>
<line x1="129.5" y1="494" x2="129.5" y2="500" stroke="black"/>
<path d="M141.5 494V499.5H137.5V494V493.793L137.354 493.646L136.5 492.793V490C136.5 489.172 137.172 488.5 138 488.5H141C141.828 488.5 142.5 489.172 142.5 490V492.793L141.646 493.646L141.5 493.793V494Z" fill="white" stroke="black"/>
<circle cx="139.5" cy="486.5" r="1.5" fill="white" stroke="black"/>
<line x1="139.5" y1="494" x2="139.5" y2="500" stroke="black"/>
<path d="M161.5 494V499.5H157.5V494V493.793L157.354 493.646L156.5 492.793V490C156.5 489.172 157.172 488.5 158 488.5H161C161.828 488.5 162.5 489.172 162.5 490V492.793L161.646 493.646L161.5 493.793V494Z" fill="white" stroke="black"/>
<circle cx="159.5" cy="486.5" r="1.5" fill="white" stroke="black"/>
<line x1="159.5" y1="494" x2="159.5" y2="500" stroke="black"/>
<path d="M151.5 494V499.5H147.5V494V493.793L147.354 493.646L146.5 492.793V490C146.5 489.172 147.172 488.5 148 488.5H151C151.828 488.5 152.5 489.172 152.5 490V492.793L151.646 493.646L151.5 493.793V494Z" fill="white" stroke="black"/>
<circle cx="149.5" cy="486.5" r="1.5" fill="white" stroke="black"/>
<line x1="149.5" y1="494" x2="149.5" y2="500" stroke="black"/>
<path d="M136.5 497V502.5H132.5V497V496.793L132.354 496.646L131.5 495.793V493C131.5 492.172 132.172 491.5 133 491.5H136C136.828 491.5 137.5 492.172 137.5 493V495.793L136.646 496.646L136.5 496.793V497Z" fill="white" stroke="black"/>
<circle cx="134.5" cy="489.5" r="1.5" fill="white" stroke="black"/>
<line x1="134.5" y1="497" x2="134.5" y2="503" stroke="black"/>
<path d="M126.5 497V502.5H122.5V497V496.793L122.354 496.646L121.5 495.793V493C121.5 492.172 122.172 491.5 123 491.5H126C126.828 491.5 127.5 492.172 127.5 493V495.793L126.646 496.646L126.5 496.793V497Z" fill="white" stroke="black"/>
<circle cx="124.5" cy="489.5" r="1.5" fill="white" stroke="black"/>
<line x1="124.5" y1="497" x2="124.5" y2="503" stroke="black"/>
<path d="M156.5 497V502.5H152.5V497V496.793L152.354 496.646L151.5 495.793V493C151.5 492.172 152.172 491.5 153 491.5H156C156.828 491.5 157.5 492.172 157.5 493V495.793L156.646 496.646L156.5 496.793V497Z" fill="white" stroke="black"/>
<circle cx="154.5" cy="489.5" r="1.5" fill="white" stroke="black"/>
<line x1="154.5" y1="497" x2="154.5" y2="503" stroke="black"/>
<path d="M166.5 497V502.5H162.5V497V496.793L162.354 496.646L161.5 495.793V493C161.5 492.172 162.172 491.5 163 491.5H166C166.828 491.5 167.5 492.172 167.5 493V495.793L166.646 496.646L166.5 496.793V497Z" fill="white" stroke="black"/>
<circle cx="164.5" cy="489.5" r="1.5" fill="white" stroke="black"/>
<line x1="164.5" y1="497" x2="164.5" y2="503" stroke="black"/>
<path d="M146.5 497V502.5H142.5V497V496.793L142.354 496.646L141.5 495.793V493C141.5 492.172 142.172 491.5 143 491.5H146C146.828 491.5 147.5 492.172 147.5 493V495.793L146.646 496.646L146.5 496.793V497Z" fill="white" stroke="black"/>
<circle cx="144.5" cy="489.5" r="1.5" fill="white" stroke="black"/>
<line x1="144.5" y1="497" x2="144.5" y2="503" stroke="black"/>
<path d="M151.5 500V505.5H147.5V500V499.793L147.354 499.646L146.5 498.793V496C146.5 495.172 147.172 494.5 148 494.5H151C151.828 494.5 152.5 495.172 152.5 496V498.793L151.646 499.646L151.5 499.793V500Z" fill="white" stroke="black"/>
<circle cx="149.5" cy="492.5" r="1.5" fill="white" stroke="black"/>
<line x1="149.5" y1="500" x2="149.5" y2="506" stroke="black"/>
<path d="M161.5 500V505.5H157.5V500V499.793L157.354 499.646L156.5 498.793V496C156.5 495.172 157.172 494.5 158 494.5H161C161.828 494.5 162.5 495.172 162.5 496V498.793L161.646 499.646L161.5 499.793V500Z" fill="white" stroke="black"/>
<circle cx="159.5" cy="492.5" r="1.5" fill="white" stroke="black"/>
<line x1="159.5" y1="500" x2="159.5" y2="506" stroke="black"/>
<path d="M141.5 500V505.5H137.5V500V499.793L137.354 499.646L136.5 498.793V496C136.5 495.172 137.172 494.5 138 494.5H141C141.828 494.5 142.5 495.172 142.5 496V498.793L141.646 499.646L141.5 499.793V500Z" fill="white" stroke="black"/>
<circle cx="139.5" cy="492.5" r="1.5" fill="white" stroke="black"/>
<line x1="139.5" y1="500" x2="139.5" y2="506" stroke="black"/>
<path d="M131.5 500V505.5H127.5V500V499.793L127.354 499.646L126.5 498.793V496C126.5 495.172 127.172 494.5 128 494.5H131C131.828 494.5 132.5 495.172 132.5 496V498.793L131.646 499.646L131.5 499.793V500Z" fill="white" stroke="black"/>
<circle cx="129.5" cy="492.5" r="1.5" fill="white" stroke="black"/>
<line x1="129.5" y1="500" x2="129.5" y2="506" stroke="black"/>
<path d="M146.5 503V508.5H142.5V503V502.793L142.354 502.646L141.5 501.793V499C141.5 498.172 142.172 497.5 143 497.5H146C146.828 497.5 147.5 498.172 147.5 499V501.793L146.646 502.646L146.5 502.793V503Z" fill="white" stroke="black"/>
<circle cx="144.5" cy="495.5" r="1.5" fill="white" stroke="black"/>
<line x1="144.5" y1="503" x2="144.5" y2="509" stroke="black"/>
<path d="M156.5 503V508.5H152.5V503V502.793L152.354 502.646L151.5 501.793V499C151.5 498.172 152.172 497.5 153 497.5H156C156.828 497.5 157.5 498.172 157.5 499V501.793L156.646 502.646L156.5 502.793V503Z" fill="white" stroke="black"/>
<circle cx="154.5" cy="495.5" r="1.5" fill="white" stroke="black"/>
<line x1="154.5" y1="503" x2="154.5" y2="509" stroke="black"/>
<path d="M136.5 503V508.5H132.5V503V502.793L132.354 502.646L131.5 501.793V499C131.5 498.172 132.172 497.5 133 497.5H136C136.828 497.5 137.5 498.172 137.5 499V501.793L136.646 502.646L136.5 502.793V503Z" fill="white" stroke="black"/>
<circle cx="134.5" cy="495.5" r="1.5" fill="white" stroke="black"/>
<line x1="134.5" y1="503" x2="134.5" y2="509" stroke="black"/>
<path d="M141.5 506V511.5H137.5V506V505.793L137.354 505.646L136.5 504.793V502C136.5 501.172 137.172 500.5 138 500.5H141C141.828 500.5 142.5 501.172 142.5 502V504.793L141.646 505.646L141.5 505.793V506Z" fill="white" stroke="black"/>
<circle cx="139.5" cy="498.5" r="1.5" fill="white" stroke="black"/>
<line x1="139.5" y1="506" x2="139.5" y2="512" stroke="black"/>
<path d="M151.5 506V511.5H147.5V506V505.793L147.354 505.646L146.5 504.793V502C146.5 501.172 147.172 500.5 148 500.5H151C151.828 500.5 152.5 501.172 152.5 502V504.793L151.646 505.646L151.5 505.793V506Z" fill="white" stroke="black"/>
<circle cx="149.5" cy="498.5" r="1.5" fill="white" stroke="black"/>
<line x1="149.5" y1="506" x2="149.5" y2="512" stroke="black"/>
<path d="M146.5 509V514.5H142.5V509V508.793L142.354 508.646L141.5 507.793V505C141.5 504.172 142.172 503.5 143 503.5H146C146.828 503.5 147.5 504.172 147.5 505V507.793L146.646 508.646L146.5 508.793V509Z" fill="white" stroke="black"/>
<circle cx="144.5" cy="501.5" r="1.5" fill="white" stroke="black"/>
<line x1="144.5" y1="509" x2="144.5" y2="515" stroke="black"/>
<path d="M171.5 500V505.5H167.5V500V499.793L167.354 499.646L166.5 498.793V496C166.5 495.172 167.172 494.5 168 494.5H171C171.828 494.5 172.5 495.172 172.5 496V498.793L171.646 499.646L171.5 499.793V500Z" fill="white" stroke="black"/>
<circle cx="169.5" cy="492.5" r="1.5" fill="white" stroke="black"/>
<line x1="169.5" y1="500" x2="169.5" y2="506" stroke="black"/>
<path d="M176.5 503V508.5H172.5V503V502.793L172.354 502.646L171.5 501.793V499C171.5 498.172 172.172 497.5 173 497.5H176C176.828 497.5 177.5 498.172 177.5 499V501.793L176.646 502.646L176.5 502.793V503Z" fill="white" stroke="black"/>
<circle cx="174.5" cy="495.5" r="1.5" fill="white" stroke="black"/>
<line x1="174.5" y1="503" x2="174.5" y2="509" stroke="black"/>
<path d="M166.5 503V508.5H162.5V503V502.793L162.354 502.646L161.5 501.793V499C161.5 498.172 162.172 497.5 163 497.5H166C166.828 497.5 167.5 498.172 167.5 499V501.793L166.646 502.646L166.5 502.793V503Z" fill="white" stroke="black"/>
<circle cx="164.5" cy="495.5" r="1.5" fill="white" stroke="black"/>
<line x1="164.5" y1="503" x2="164.5" y2="509" stroke="black"/>
<path d="M161.5 506V511.5H157.5V506V505.793L157.354 505.646L156.5 504.793V502C156.5 501.172 157.172 500.5 158 500.5H161C161.828 500.5 162.5 501.172 162.5 502V504.793L161.646 505.646L161.5 505.793V506Z" fill="white" stroke="black"/>
<circle cx="159.5" cy="498.5" r="1.5" fill="white" stroke="black"/>
<line x1="159.5" y1="506" x2="159.5" y2="512" stroke="black"/>
<path d="M181.5 506V511.5H177.5V506V505.793L177.354 505.646L176.5 504.793V502C176.5 501.172 177.172 500.5 178 500.5H181C181.828 500.5 182.5 501.172 182.5 502V504.793L181.646 505.646L181.5 505.793V506Z" fill="white" stroke="black"/>
<circle cx="179.5" cy="498.5" r="1.5" fill="white" stroke="black"/>
<line x1="179.5" y1="506" x2="179.5" y2="512" stroke="black"/>
<path d="M171.5 506V511.5H167.5V506V505.793L167.354 505.646L166.5 504.793V502C166.5 501.172 167.172 500.5 168 500.5H171C171.828 500.5 172.5 501.172 172.5 502V504.793L171.646 505.646L171.5 505.793V506Z" fill="white" stroke="black"/>
<circle cx="169.5" cy="498.5" r="1.5" fill="white" stroke="black"/>
<line x1="169.5" y1="506" x2="169.5" y2="512" stroke="black"/>
<path d="M156.5 509V514.5H152.5V509V508.793L152.354 508.646L151.5 507.793V505C151.5 504.172 152.172 503.5 153 503.5H156C156.828 503.5 157.5 504.172 157.5 505V507.793L156.646 508.646L156.5 508.793V509Z" fill="white" stroke="black"/>
<circle cx="154.5" cy="501.5" r="1.5" fill="white" stroke="black"/>
<line x1="154.5" y1="509" x2="154.5" y2="515" stroke="black"/>
<path d="M166.5 509V514.5H162.5V509V508.793L162.354 508.646L161.5 507.793V505C161.5 504.172 162.172 503.5 163 503.5H166C166.828 503.5 167.5 504.172 167.5 505V507.793L166.646 508.646L166.5 508.793V509Z" fill="white" stroke="black"/>
<circle cx="164.5" cy="501.5" r="1.5" fill="white" stroke="black"/>
<line x1="164.5" y1="509" x2="164.5" y2="515" stroke="black"/>
<path d="M186.5 509V514.5H182.5V509V508.793L182.354 508.646L181.5 507.793V505C181.5 504.172 182.172 503.5 183 503.5H186C186.828 503.5 187.5 504.172 187.5 505V507.793L186.646 508.646L186.5 508.793V509Z" fill="white" stroke="black"/>
<circle cx="184.5" cy="501.5" r="1.5" fill="white" stroke="black"/>
<line x1="184.5" y1="509" x2="184.5" y2="515" stroke="black"/>
<path d="M176.5 509V514.5H172.5V509V508.793L172.354 508.646L171.5 507.793V505C171.5 504.172 172.172 503.5 173 503.5H176C176.828 503.5 177.5 504.172 177.5 505V507.793L176.646 508.646L176.5 508.793V509Z" fill="white" stroke="black"/>
<circle cx="174.5" cy="501.5" r="1.5" fill="white" stroke="black"/>
<line x1="174.5" y1="509" x2="174.5" y2="515" stroke="black"/>
<path d="M161.5 512V517.5H157.5V512V511.793L157.354 511.646L156.5 510.793V508C156.5 507.172 157.172 506.5 158 506.5H161C161.828 506.5 162.5 507.172 162.5 508V510.793L161.646 511.646L161.5 511.793V512Z" fill="white" stroke="black"/>
<circle cx="159.5" cy="504.5" r="1.5" fill="white" stroke="black"/>
<line x1="159.5" y1="512" x2="159.5" y2="518" stroke="black"/>
<path d="M151.5 512V517.5H147.5V512V511.793L147.354 511.646L146.5 510.793V508C146.5 507.172 147.172 506.5 148 506.5H151C151.828 506.5 152.5 507.172 152.5 508V510.793L151.646 511.646L151.5 511.793V512Z" fill="white" stroke="black"/>
<circle cx="149.5" cy="504.5" r="1.5" fill="white" stroke="black"/>
<line x1="149.5" y1="512" x2="149.5" y2="518" stroke="black"/>
<path d="M181.5 512V517.5H177.5V512V511.793L177.354 511.646L176.5 510.793V508C176.5 507.172 177.172 506.5 178 506.5H181C181.828 506.5 182.5 507.172 182.5 508V510.793L181.646 511.646L181.5 511.793V512Z" fill="white" stroke="black"/>
<circle cx="179.5" cy="504.5" r="1.5" fill="white" stroke="black"/>
<line x1="179.5" y1="512" x2="179.5" y2="518" stroke="black"/>
<path d="M191.5 512V517.5H187.5V512V511.793L187.354 511.646L186.5 510.793V508C186.5 507.172 187.172 506.5 188 506.5H191C191.828 506.5 192.5 507.172 192.5 508V510.793L191.646 511.646L191.5 511.793V512Z" fill="white" stroke="black"/>
<circle cx="189.5" cy="504.5" r="1.5" fill="white" stroke="black"/>
<line x1="189.5" y1="512" x2="189.5" y2="518" stroke="black"/>
<path d="M171.5 512V517.5H167.5V512V511.793L167.354 511.646L166.5 510.793V508C166.5 507.172 167.172 506.5 168 506.5H171C171.828 506.5 172.5 507.172 172.5 508V510.793L171.646 511.646L171.5 511.793V512Z" fill="white" stroke="black"/>
<circle cx="169.5" cy="504.5" r="1.5" fill="white" stroke="black"/>
<line x1="169.5" y1="512" x2="169.5" y2="518" stroke="black"/>
<path d="M176.5 515V520.5H172.5V515V514.793L172.354 514.646L171.5 513.793V511C171.5 510.172 172.172 509.5 173 509.5H176C176.828 509.5 177.5 510.172 177.5 511V513.793L176.646 514.646L176.5 514.793V515Z" fill="white" stroke="black"/>
<circle cx="174.5" cy="507.5" r="1.5" fill="white" stroke="black"/>
<line x1="174.5" y1="515" x2="174.5" y2="521" stroke="black"/>
<path d="M186.5 515V520.5H182.5V515V514.793L182.354 514.646L181.5 513.793V511C181.5 510.172 182.172 509.5 183 509.5H186C186.828 509.5 187.5 510.172 187.5 511V513.793L186.646 514.646L186.5 514.793V515Z" fill="white" stroke="black"/>
<circle cx="184.5" cy="507.5" r="1.5" fill="white" stroke="black"/>
<line x1="184.5" y1="515" x2="184.5" y2="521" stroke="black"/>
<path d="M166.5 515V520.5H162.5V515V514.793L162.354 514.646L161.5 513.793V511C161.5 510.172 162.172 509.5 163 509.5H166C166.828 509.5 167.5 510.172 167.5 511V513.793L166.646 514.646L166.5 514.793V515Z" fill="white" stroke="black"/>
<circle cx="164.5" cy="507.5" r="1.5" fill="white" stroke="black"/>
<line x1="164.5" y1="515" x2="164.5" y2="521" stroke="black"/>
<path d="M156.5 515V520.5H152.5V515V514.793L152.354 514.646L151.5 513.793V511C151.5 510.172 152.172 509.5 153 509.5H156C156.828 509.5 157.5 510.172 157.5 511V513.793L156.646 514.646L156.5 514.793V515Z" fill="white" stroke="black"/>
<circle cx="154.5" cy="507.5" r="1.5" fill="white" stroke="black"/>
<line x1="154.5" y1="515" x2="154.5" y2="521" stroke="black"/>
<path d="M171.5 518V523.5H167.5V518V517.793L167.354 517.646L166.5 516.793V514C166.5 513.172 167.172 512.5 168 512.5H171C171.828 512.5 172.5 513.172 172.5 514V516.793L171.646 517.646L171.5 517.793V518Z" fill="white" stroke="black"/>
<circle cx="169.5" cy="510.5" r="1.5" fill="white" stroke="black"/>
<line x1="169.5" y1="518" x2="169.5" y2="524" stroke="black"/>
<path d="M181.5 518V523.5H177.5V518V517.793L177.354 517.646L176.5 516.793V514C176.5 513.172 177.172 512.5 178 512.5H181C181.828 512.5 182.5 513.172 182.5 514V516.793L181.646 517.646L181.5 517.793V518Z" fill="white" stroke="black"/>
<circle cx="179.5" cy="510.5" r="1.5" fill="white" stroke="black"/>
<line x1="179.5" y1="518" x2="179.5" y2="524" stroke="black"/>
<path d="M161.5 518V523.5H157.5V518V517.793L157.354 517.646L156.5 516.793V514C156.5 513.172 157.172 512.5 158 512.5H161C161.828 512.5 162.5 513.172 162.5 514V516.793L161.646 517.646L161.5 517.793V518Z" fill="white" stroke="black"/>
<circle cx="159.5" cy="510.5" r="1.5" fill="white" stroke="black"/>
<line x1="159.5" y1="518" x2="159.5" y2="524" stroke="black"/>
<path d="M166.5 521V526.5H162.5V521V520.793L162.354 520.646L161.5 519.793V517C161.5 516.172 162.172 515.5 163 515.5H166C166.828 515.5 167.5 516.172 167.5 517V519.793L166.646 520.646L166.5 520.793V521Z" fill="white" stroke="black"/>
<circle cx="164.5" cy="513.5" r="1.5" fill="white" stroke="black"/>
<line x1="164.5" y1="521" x2="164.5" y2="527" stroke="black"/>
<path d="M176.5 521V526.5H172.5V521V520.793L172.354 520.646L171.5 519.793V517C171.5 516.172 172.172 515.5 173 515.5H176C176.828 515.5 177.5 516.172 177.5 517V519.793L176.646 520.646L176.5 520.793V521Z" fill="white" stroke="black"/>
<circle cx="174.5" cy="513.5" r="1.5" fill="white" stroke="black"/>
<line x1="174.5" y1="521" x2="174.5" y2="527" stroke="black"/>
<path d="M171.5 524V529.5H167.5V524V523.793L167.354 523.646L166.5 522.793V520C166.5 519.172 167.172 518.5 168 518.5H171C171.828 518.5 172.5 519.172 172.5 520V522.793L171.646 523.646L171.5 523.793V524Z" fill="white" stroke="black"/>
<circle cx="169.5" cy="516.5" r="1.5" fill="white" stroke="black"/>
<line x1="169.5" y1="524" x2="169.5" y2="530" stroke="black"/>
<text fill="black" xml:space="preserve" style="white-space: pre;" font-family="monospace" font-size="8" letter-spacing="0em"><tspan x="291.305" y="448">TBD</tspan></text>
<text fill="black" xml:space="preserve" style="white-space: pre;" font-family="monospace" font-size="8" letter-spacing="0em"><tspan x="34.3047" y="448">TBD</tspan></text>
<text fill="black" xml:space="preserve" style="white-space: pre;" font-family="monospace" font-size="10" letter-spacing="0em"><tspan x="92.0488" y="26.25">MODERN ENTERPRISE SYSTEMS</tspan></text>
<path d="M222.021 87.6394C222.437 88.2212 222.731 88.8398 222.882 89.4844L222.395 89.5987C222.464 89.8941 222.5 90.1948 222.5 90.5C222.5 90.8052 222.464 91.1059 222.395 91.4013L222.882 91.5156C222.731 92.1602 222.437 92.7788 222.021 93.3606L221.614 93.0696C221.269 93.5527 220.825 94.0154 220.293 94.448L220.609 94.8359C220.106 95.2447 219.534 95.6232 218.902 95.9656L218.664 95.5261C218.111 95.8261 217.508 96.0987 216.862 96.339L217.036 96.8077C216.417 97.038 215.762 97.2388 215.076 97.4067L214.957 96.9211C214.329 97.075 213.673 97.2007 212.996 97.2951L213.065 97.7903C212.403 97.8826 211.722 97.9457 211.025 97.977L211.003 97.4775C210.672 97.4924 210.338 97.5 210 97.5C209.662 97.5 209.328 97.4924 208.997 97.4775L208.975 97.977C208.278 97.9457 207.597 97.8826 206.935 97.7903L207.004 97.2951C206.327 97.2007 205.671 97.075 205.043 96.9211L204.924 97.4067C204.238 97.2388 203.583 97.038 202.964 96.8077L203.138 96.339C202.492 96.0987 201.889 95.8261 201.336 95.5261L201.098 95.9656C200.466 95.6232 199.894 95.2447 199.391 94.8359L199.707 94.448C199.175 94.0154 198.731 93.5527 198.386 93.0696L197.979 93.3606C197.563 92.7788 197.269 92.1602 197.118 91.5156L197.605 91.4013C197.536 91.1059 197.5 90.8052 197.5 90.5C197.5 90.1948 197.536 89.8941 197.605 89.5987L197.118 89.4844C197.269 88.8398 197.563 88.2212 197.979 87.6394L198.386 87.9304C198.731 87.4473 199.175 86.9846 199.707 86.552L199.391 86.164C199.894 85.7553 200.466 85.3768 201.098 85.0344L201.336 85.4739C201.889 85.1739 202.492 84.9013 203.138 84.661L202.964 84.1923C203.583 83.962 204.238 83.7612 204.924 83.5933L205.043 84.0789C205.671 83.925 206.327 83.7993 207.004 83.7049L206.935 83.2097C207.597 83.1174 208.278 83.0543 208.975 83.023L208.997 83.5225C209.328 83.5076 209.662 83.5 210 83.5C210.338 83.5 210.672 83.5076 211.003 83.5225L211.025 83.023C211.722 83.0543 212.403 83.1174 213.065 83.2097L212.996 83.7049C213.673 83.7993 214.329 83.925 214.957 84.0789L215.076 83.5933C215.762 83.7612 216.417 83.962 217.036 84.1923L216.862 84.661C217.508 84.9013 218.111 85.1739 218.664 85.4739L218.902 85.0344C219.534 85.3768 220.106 85.7553 220.609 86.164L220.293 86.552C220.825 86.9846 221.269 87.4473 221.614 87.9304L222.021 87.6394Z" fill="#E5E5E5" stroke="black" stroke-dasharray="2 2"/>
</svg>
