<svg id="e9akHXdGvY01" xmlns="http://www.w3.org/2000/svg" xmlns:xlink="http://www.w3.org/1999/xlink" viewBox="0 0 284 504" shape-rendering="geometricPrecision" text-rendering="geometricPrecision"><style><![CDATA[#e9akHXdGvY02 {animation: e9akHXdGvY02_c_o 4200ms linear infinite normal forwards}@keyframes e9akHXdGvY02_c_o { 0% {opacity: 0.15;animation-timing-function: cubic-bezier(0.42,0,1,1)} 16.666667% {opacity: 0.9;animation-timing-function: cubic-bezier(0.42,0,1,1)} 47.619048% {opacity: 0.15} 100% {opacity: 0.15}} #e9akHXdGvY03 {animation: e9akHXdGvY03_c_o 4200ms linear infinite normal forwards}@keyframes e9akHXdGvY03_c_o { 0% {opacity: 0.15} 4.761905% {opacity: 0.15;animation-timing-function: cubic-bezier(0.42,0,1,1)} 21.428571% {opacity: 0.9;animation-timing-function: cubic-bezier(0.42,0,1,1)} 52.380952% {opacity: 0.15} 100% {opacity: 0.15}} #e9akHXdGvY04 {animation: e9akHXdGvY04_c_o 4200ms linear infinite normal forwards}@keyframes e9akHXdGvY04_c_o { 0% {opacity: 0.15} 9.52381% {opacity: 0.15;animation-timing-function: cubic-bezier(0.42,0,1,1)} 26.190476% {opacity: 0.9;animation-timing-function: cubic-bezier(0.42,0,1,1)} 57.142857% {opacity: 0.15} 100% {opacity: 0.15}} #e9akHXdGvY05 {animation: e9akHXdGvY05_c_o 4200ms linear infinite normal forwards}@keyframes e9akHXdGvY05_c_o { 0% {opacity: 0.15} 14.285714% {opacity: 0.15;animation-timing-function: cubic-bezier(0.42,0,1,1)} 30.952381% {opacity: 0.9;animation-timing-function: cubic-bezier(0.42,0,1,1)} 61.904762% {opacity: 0.15} 100% {opacity: 0.15}} #e9akHXdGvY09 {animation: e9akHXdGvY09_c_o 4200ms linear infinite normal forwards}@keyframes e9akHXdGvY09_c_o { 0% {opacity: 0.4} 19.047619% {opacity: 0.4;animation-timing-function: cubic-bezier(0.42,0,1,1)} 35.714286% {opacity: 1;animation-timing-function: cubic-bezier(0.42,0,1,1)} 66.666667% {opacity: 0.4} 100% {opacity: 0.4}} #e9akHXdGvY010 {animation: e9akHXdGvY010_c_o 4200ms linear infinite normal forwards}@keyframes e9akHXdGvY010_c_o { 0% {opacity: 0.4} 23.809524% {opacity: 0.4;animation-timing-function: cubic-bezier(0.42,0,1,1)} 40.47619% {opacity: 1;animation-timing-function: cubic-bezier(0.42,0,1,1)} 71.428571% {opacity: 0.4} 100% {opacity: 0.4}} #e9akHXdGvY011 {animation: e9akHXdGvY011_c_o 4200ms linear infinite normal forwards}@keyframes e9akHXdGvY011_c_o { 0% {opacity: 0.4} 28.571429% {opacity: 0.4;animation-timing-function: cubic-bezier(0.42,0,1,1)} 45.238095% {opacity: 1;animation-timing-function: cubic-bezier(0.42,0,1,1)} 76.190476% {opacity: 0.4} 100% {opacity: 0.4}} #e9akHXdGvY012 {animation: e9akHXdGvY012_c_o 4200ms linear infinite normal forwards}@keyframes e9akHXdGvY012_c_o { 0% {opacity: 0.4} 33.333333% {opacity: 0.4;animation-timing-function: cubic-bezier(0.42,0,1,1)} 50% {opacity: 1;animation-timing-function: cubic-bezier(0.42,0,1,1)} 80.952381% {opacity: 0.4} 100% {opacity: 0.4}} #e9akHXdGvY016 {animation: e9akHXdGvY016_c_o 4200ms linear infinite normal forwards}@keyframes e9akHXdGvY016_c_o { 0% {opacity: 0.3} 38.095238% {opacity: 0.3;animation-timing-function: cubic-bezier(0.42,0,1,1)} 54.761905% {opacity: 1;animation-timing-function: cubic-bezier(0.42,0,1,1)} 85.714286% {opacity: 0.3} 100% {opacity: 0.3}} #e9akHXdGvY017 {animation: e9akHXdGvY017_c_o 4200ms linear infinite normal forwards}@keyframes e9akHXdGvY017_c_o { 0% {opacity: 0.3} 42.857143% {opacity: 0.3;animation-timing-function: cubic-bezier(0.42,0,1,1)} 59.52381% {opacity: 1;animation-timing-function: cubic-bezier(0.42,0,1,1)} 90.47619% {opacity: 0.3} 100% {opacity: 0.3}} #e9akHXdGvY018 {animation: e9akHXdGvY018_c_o 4200ms linear infinite normal forwards}@keyframes e9akHXdGvY018_c_o { 0% {opacity: 0.3} 47.619048% {opacity: 0.3;animation-timing-function: cubic-bezier(0.42,0,1,1)} 64.285714% {opacity: 1;animation-timing-function: cubic-bezier(0.42,0,1,1)} 95.238095% {opacity: 0.3} 100% {opacity: 0.3}} #e9akHXdGvY019 {animation: e9akHXdGvY019_c_o 4200ms linear infinite normal forwards}@keyframes e9akHXdGvY019_c_o { 0% {opacity: 0.3} 52.380952% {opacity: 0.3;animation-timing-function: cubic-bezier(0.42,0,1,1)} 69.047619% {opacity: 1;animation-timing-function: cubic-bezier(0.42,0,1,1)} 100% {opacity: 0.3}}]]></style><rect id="e9akHXdGvY02" style="mix-blend-mode:multiply" width="148.212" height="148.212" rx="0" ry="0" transform="matrix(.866044 0.499967-.866044 0.499967 142.224 320.5)" opacity="0.15" fill="none" stroke="#ff2a50"/><rect id="e9akHXdGvY03" style="mix-blend-mode:multiply" width="148.212" height="148.212" rx="0" ry="0" transform="matrix(.866044 0.499967-.866044 0.499967 142.224 277.027)" opacity="0.15" fill="none" stroke="#ff2a50"/><rect id="e9akHXdGvY04" style="mix-blend-mode:multiply" width="148.212" height="148.212" rx="0" ry="0" transform="matrix(.866044 0.499967-.866044 0.499967 142.224 299.121)" opacity="0.15" fill="none" stroke="#ff2a50" stroke-dasharray="2,2"/><g id="e9akHXdGvY05" opacity="0.15"><path d="M13.353,330.65c-.1953-.195-.5119-.195-.7071,0l-3.18184,3.182c-.19525.195-.19524.512.00004.707.19527.196.51185.196.7071,0l2.8283-2.828l2.8286,2.829c.1952.195.5118.195.7071,0c.1952-.196.1952-.512-.0001-.708L13.353,330.65Zm.147,10.354l-.0006-10h-1l.0006,10h1Z" fill="#ff2a50"/><path d="M142.853,402.746c-.195-.195-.512-.195-.707,0l-3.182,3.182c-.195.196-.195.512,0,.707.195.196.512.196.707,0l2.829-2.828l2.828,2.829c.195.195.512.195.707,0c.196-.196.196-.512,0-.707l-3.182-3.183ZM143,414.1v-11h-1v11h1Z" fill="#ff2a50"/><path d="M271.353,330.65c-.195-.195-.512-.195-.707,0l-3.182,3.182c-.195.195-.195.512,0,.707.195.196.512.196.707,0l2.828-2.828l2.829,2.829c.195.195.512.195.707,0c.195-.196.195-.512,0-.708l-3.182-3.182Zm.147,10.354l-.001-10h-1l.001,10h1Z" fill="#ff2a50"/></g><rect id="e9akHXdGvY09" style="mix-blend-mode:multiply" width="148.212" height="148.212" rx="0" ry="0" transform="matrix(.866044 0.499967-.866044 0.499967 142.224 246.925)" opacity="0.4" fill="none" stroke="#ffe100"/><rect id="e9akHXdGvY010" style="mix-blend-mode:multiply" width="148.212" height="148.212" rx="0" ry="0" transform="matrix(.866044 0.499967-.866044 0.499967 142.224 224.925)" opacity="0.4" fill="none" stroke="#ffe100" stroke-dasharray="2,2"/><rect id="e9akHXdGvY011" style="mix-blend-mode:multiply" width="148.212" height="148.212" rx="0" ry="0" transform="matrix(.866044 0.499967-.866044 0.499967 142.224 202.713)" opacity="0.4" fill="none" stroke="#ffe100"/><g id="e9akHXdGvY012" opacity="0.4"><path d="M13.353,256.65c-.1953-.195-.5119-.195-.7071,0l-3.18184,3.182c-.19525.195-.19524.512.00004.707.19527.196.51185.196.7071,0l2.8283-2.828l2.8286,2.829c.1952.195.5118.195.7071,0c.1952-.196.1952-.512-.0001-.708L13.353,256.65Zm.147,10.354l-.0006-10h-1l.0006,10h1Z" fill="#ffe100"/><path d="M142.853,330.746c-.195-.195-.512-.195-.707,0l-3.182,3.182c-.195.196-.195.512,0,.707.195.196.512.196.707,0l2.829-2.828l2.828,2.829c.195.195.512.195.707,0c.196-.196.196-.512,0-.707l-3.182-3.183ZM143,341.1v-10h-1v10h1Z" fill="#ffe100"/><path d="M271.353,256.65c-.195-.195-.512-.195-.707,0l-3.182,3.182c-.195.195-.195.512,0,.707.195.196.512.196.707,0l2.828-2.828l2.829,2.829c.195.195.512.195.707,0c.195-.196.195-.512,0-.708l-3.182-3.182Zm.147,10.354l-.001-10h-1l.001,10h1Z" fill="#ffe100"/></g><rect id="e9akHXdGvY016" style="mix-blend-mode:multiply" width="148.212" height="148.212" rx="0" ry="0" transform="matrix(.866044 0.499967-.866044 0.499967 142.224 171.712)" opacity="0.3" fill="none" stroke="#2ab2ff"/><rect id="e9akHXdGvY017" style="mix-blend-mode:multiply" width="148.212" height="148.212" rx="0" ry="0" transform="matrix(.866044 0.499967-.866044 0.499967 142.224 149.712)" opacity="0.3" fill="none" stroke="#2ab2ff" stroke-dasharray="2,2"/><rect id="e9akHXdGvY018" style="mix-blend-mode:multiply" width="148.212" height="148.212" rx="0" ry="0" transform="matrix(.866044 0.499967-.866044 0.499967 142.224 128.5)" opacity="0.3" fill="none" stroke="#2ab2ff"/><g id="e9akHXdGvY019" opacity="0.3"><path d="M13.353,181.714c-.1953-.196-.5119-.196-.7071,0l-3.18184,3.182c-.19525.195-.19524.511.00004.707.19527.195.51185.195.7071,0l2.8283-2.829l2.8286,2.829c.1952.195.5118.195.7071,0s.1952-.512-.0001-.707l-3.1821-3.182Zm.147,10.353l-.0006-10h-1l.0006,10h1Z" fill="#2ab2ff"/><path d="M142.853,256.746c-.195-.195-.512-.195-.707,0l-3.182,3.182c-.195.196-.195.512,0,.707.195.196.512.196.707,0l2.829-2.828l2.828,2.829c.195.195.512.195.707,0c.196-.196.196-.512,0-.707l-3.182-3.183ZM143,267.1v-10h-1v10h1Z" fill="#2ab2ff"/><path d="M271.353,181.65c-.195-.195-.512-.195-.707,0l-3.182,3.182c-.195.195-.195.512,0,.707s.512.195.707,0l2.828-2.828l2.829,2.828c.195.196.512.196.707,0c.195-.195.195-.511,0-.707l-3.182-3.182Zm.147,10.354l-.001-10h-1l.001,10h1Z" fill="#2ab2ff"/></g><path d="M71.5988,37.5v-2.21h-.08l-1.47,3.59-1.47-3.59h-.08v2.21v3.5h-.77v-6.98h1.08l1.23,3.08h.06l1.23-3.08h1.04v6.98h-.77v-3.5Z"/><path d="M76.0449,41.12c-.4266,0-.7933-.08-1.1-.24-.3066-.1666-.56-.4033-.76-.71s-.3466-.6833-.44-1.13c-.0933-.4466-.14-.9566-.14-1.53c0-.5666.0467-1.0733.14-1.52.0934-.4533.24-.8333.44-1.14s.4534-.54.76-.7c.3067-.1666.6734-.25,1.1-.25.4267,0,.7934.0834,1.1.25.3067.16.56.3934.76.7s.3467.6867.44,1.14c.0934.4467.14.9534.14,1.52c0,.5734-.0466,1.0834-.14,1.53-.0933.4467-.24.8234-.44,1.13s-.4533.5434-.76.71c-.3066.16-.6733.24-1.1.24Zm0-.73c.28,0,.5167-.0533.71-.16.1934-.1133.3534-.27.48-.47.1267-.2.2167-.44.27-.72.06-.2866.09-.6066.09-.96v-1.14c0-.3466-.03-.6633-.09-.95-.0533-.2866-.1433-.53-.27-.73-.1266-.2-.2866-.3533-.48-.46-.1933-.1133-.43-.17-.71-.17s-.5166.0567-.71.17c-.1933.1067-.3533.26-.48.46-.1266.2-.22.4434-.28.73-.0533.2867-.08.6034-.08.95v1.14c0,.3534.0267.6734.08.96.06.28.1534.52.28.72.1267.2.2867.3567.48.47.1934.1067.43.16.71.16Z"/><path d="M79.991,34.02h1.95c.8533,0,1.49.2934,1.91.88.42.5867.63,1.4567.63,2.61c0,1.1534-.21,2.0234-.63,2.61-.42.5867-1.0567.88-1.91.88h-1.95v-6.98Zm1.91,6.25c.56,0,.98-.1933,1.26-.58.2867-.3866.43-.9333.43-1.64v-1.08c0-.7066-.1433-1.2533-.43-1.64-.28-.3866-.7-.58-1.26-.58h-1.07v5.52h1.07Z"/><path d="M85.9371,41v-6.98h4.3v.73h-3.46v2.35h3.34v.73h-3.34v2.44h3.46v.73h-4.3Z"/><path d="M92.7732,41h-.84v-6.98h2.54c.6467,0,1.14.1767,1.48.53.34.3534.51.8467.51,1.48c0,.5667-.1467,1.02-.44,1.36s-.72.5367-1.28.59l1.78,3.02h-.94l-1.7-2.98h-1.11v2.98Zm1.68-3.69c.3533,0,.6267-.0866.82-.26.2-.18.3-.4333.3-.76v-.52c0-.3266-.1-.5766-.3-.75-.1933-.18-.4667-.27-.82-.27h-1.68v2.56h1.68Z"/><path d="M98.6593,35.09h-.07v5.91h-.76v-6.98h1.19l2.3797,5.85h.07v-5.85h.76v6.98h-1.19l-2.3797-5.91Z"/><path d="M109.921,41v-6.98h4.3v.73h-3.46v2.35h3.34v.73h-3.34v2.44h3.46v.73h-4.3Z"/><path d="M116.648,35.09h-.07v5.91h-.76v-6.98h1.19l2.38,5.85h.07v-5.85h.76v6.98h-1.19l-2.38-5.91Z"/><path d="M124.434,34.75v6.25h-.84v-6.25h-2.33v-.73h5.5v.73h-2.33Z"/><path d="M127.91,41v-6.98h4.3v.73h-3.46v2.35h3.34v.73h-3.34v2.44h3.46v.73h-4.3Z"/><path d="M134.746,41h-.84v-6.98h2.54c.647,0,1.14.1767,1.48.53.34.3534.51.8467.51,1.48c0,.5667-.147,1.02-.44,1.36s-.72.5367-1.28.59l1.78,3.02h-.94l-1.7-2.98h-1.11v2.98Zm1.68-3.69c.353,0,.627-.0866.82-.26.2-.18.3-.4333.3-.76v-.52c0-.3266-.1-.5766-.3-.75-.193-.18-.467-.27-.82-.27h-1.68v2.56h1.68Z"/><path d="M139.902,41v-6.98h2.54c.647,0,1.14.1767,1.48.53.34.3534.51.8467.51,1.48c0,.6334-.17,1.1267-.51,1.48-.34.3534-.833.53-1.48.53h-1.7v2.96h-.84Zm.84-3.69h1.68c.353,0,.627-.0866.82-.26.2-.18.3-.4333.3-.76v-.52c0-.3266-.1-.5766-.3-.75-.193-.18-.467-.27-.82-.27h-1.68v2.56Z"/><path d="M146.738,41h-.84v-6.98h2.54c.647,0,1.14.1767,1.48.53.34.3534.51.8467.51,1.48c0,.5667-.147,1.02-.44,1.36s-.72.5367-1.28.59l1.78,3.02h-.94l-1.7-2.98h-1.11v2.98Zm1.68-3.69c.353,0,.627-.0866.82-.26.2-.18.3-.4333.3-.76v-.52c0-.3266-.1-.5766-.3-.75-.193-.18-.467-.27-.82-.27h-1.68v2.56h1.68Z"/><path d="M151.834,41v-.67h1.74v-5.64h-1.74v-.67h4.32v.67h-1.74v5.64h1.74v.67h-4.32Z"/><path d="M159.97,41.12c-.626,0-1.14-.1133-1.54-.34-.4-.2333-.73-.53-.99-.89l.61-.5c.274.34.56.5934.86.76.307.1667.67.25,1.09.25.507,0,.894-.1166,1.16-.35.267-.2333.4-.56.4-.98c0-.34-.096-.6033-.29-.79-.193-.1933-.53-.33-1.01-.41l-.78-.13c-.34-.06-.626-.15-.86-.27-.226-.12-.41-.2633-.55-.43-.14-.1733-.24-.36-.3-.56-.06-.2066-.09-.42-.09-.64c0-.64.21-1.1233.63-1.45.42-.3266.987-.49,1.7-.49.56,0,1.03.0934,1.41.28.387.1867.697.45.93.79l-.59.51c-.193-.2533-.426-.46-.7-.62-.273-.16-.626-.24-1.06-.24-.473,0-.836.1-1.09.3-.253.2-.38.5-.38.9c0,.3134.094.57.28.77.194.1934.537.3334,1.03.42l.75.13c.34.06.627.15.86.27.234.12.42.2634.56.43.147.1667.25.3534.31.56s.09.4234.09.65c0,.6467-.213,1.1534-.64,1.52-.42.3667-1.02.55-1.8.55Z"/><path d="M163.886,41v-6.98h4.3v.73h-3.46v2.35h3.34v.73h-3.34v2.44h3.46v.73h-4.3Z"/><path d="M177.959,41.12c-.627,0-1.14-.1133-1.54-.34-.4-.2333-.73-.53-.99-.89l.61-.5c.273.34.56.5934.86.76.306.1667.67.25,1.09.25.506,0,.893-.1166,1.16-.35.266-.2333.4-.56.4-.98c0-.34-.097-.6033-.29-.79-.194-.1933-.53-.33-1.01-.41l-.78-.13c-.34-.06-.627-.15-.86-.27-.227-.12-.41-.2633-.55-.43-.14-.1733-.24-.36-.3-.56-.06-.2066-.09-.42-.09-.64c0-.64.21-1.1233.63-1.45.42-.3266.986-.49,1.7-.49.56,0,1.03.0934,1.41.28.386.1867.696.45.93.79l-.59.51c-.194-.2533-.427-.46-.7-.62-.274-.16-.627-.24-1.06-.24-.474,0-.837.1-1.09.3-.254.2-.38.5-.38.9c0,.3134.093.57.28.77.193.1934.536.3334,1.03.42l.75.13c.34.06.626.15.86.27.233.12.42.2634.56.43.146.1667.25.3534.31.56s.09.4234.09.65c0,.6467-.214,1.1534-.64,1.52-.42.3667-1.02.55-1.8.55Z"/><path d="M183.555,41v-2.74l-2.41-4.24h.96l1,1.82.85,1.59h.04l.87-1.59l1-1.82h.94l-2.41,4.24v2.74h-.84Z"/><path d="M189.951,41.12c-.627,0-1.14-.1133-1.54-.34-.4-.2333-.73-.53-.99-.89l.61-.5c.273.34.56.5934.86.76.306.1667.67.25,1.09.25.506,0,.893-.1166,1.16-.35.266-.2333.4-.56.4-.98c0-.34-.097-.6033-.29-.79-.194-.1933-.53-.33-1.01-.41l-.78-.13c-.34-.06-.627-.15-.86-.27-.227-.12-.41-.2633-.55-.43-.14-.1733-.24-.36-.3-.56-.06-.2066-.09-.42-.09-.64c0-.64.21-1.1233.63-1.45.42-.3266.986-.49,1.7-.49.56,0,1.03.0934,1.41.28.386.1867.696.45.93.79l-.59.51c-.194-.2533-.427-.46-.7-.62-.274-.16-.627-.24-1.06-.24-.474,0-.837.1-1.09.3-.254.2-.38.5-.38.9c0,.3134.093.57.28.77.193.1934.536.3334,1.03.42l.75.13c.34.06.626.15.86.27.233.12.42.2634.56.43.146.1667.25.3534.31.56s.09.4234.09.65c0,.6467-.214,1.1534-.64,1.52-.42.3667-1.02.55-1.8.55Z"/><path d="M196.387,34.75v6.25h-.84v-6.25h-2.33v-.73h5.5v.73h-2.33Z"/><path d="M199.863,41v-6.98h4.3v.73h-3.46v2.35h3.34v.73h-3.34v2.44h3.46v.73h-4.3Z"/><path d="M209.509,37.5v-2.21h-.08l-1.47,3.59-1.47-3.59h-.08v2.21v3.5h-.77v-6.98h1.08l1.23,3.08h.06l1.23-3.08h1.04v6.98h-.77v-3.5Z"/><path d="M213.935,41.12c-.627,0-1.14-.1133-1.54-.34-.4-.2333-.73-.53-.99-.89l.61-.5c.273.34.56.5934.86.76.307.1667.67.25,1.09.25.507,0,.893-.1166,1.16-.35.267-.2333.4-.56.4-.98c0-.34-.097-.6033-.29-.79-.193-.1933-.53-.33-1.01-.41l-.78-.13c-.34-.06-.627-.15-.86-.27-.227-.12-.41-.2633-.55-.43-.14-.1733-.24-.36-.3-.56-.06-.2066-.09-.42-.09-.64c0-.64.21-1.1233.63-1.45.42-.3266.987-.49,1.7-.49.56,0,1.03.0934,1.41.28.387.1867.697.45.93.79l-.59.51c-.193-.2533-.427-.46-.7-.62s-.627-.24-1.06-.24c-.473,0-.837.1-1.09.3s-.38.5-.38.9c0,.3134.093.57.28.77.193.1934.537.3334,1.03.42l.75.13c.34.06.627.15.86.27s.42.2634.56.43c.147.1667.25.3534.31.56s.09.4234.09.65c0,.6467-.213,1.1534-.64,1.52-.42.3667-1.02.55-1.8.55Z"/><rect width="43" height="15" rx="0" ry="0" transform="translate(121 286)" fill="#2ab2ff"/><rect width="43" height="15" rx="0" ry="0" transform="translate(121 286)" fill="#2ab2ff"/><rect width="43" height="15" rx="0" ry="0" transform="translate(121 286)" fill="#2ab2ff"/><rect width="43" height="15" rx="0" ry="0" transform="translate(121 360)" fill="#ffe100"/><rect width="43" height="15" rx="0" ry="0" transform="translate(121 432)" fill="#ff2a50"/><path d="M126.952,371.12c-.607,0-1.117-.107-1.53-.32-.414-.213-.754-.497-1.02-.85l.72-.69c.266.32.55.557.85.71.3.147.64.22,1.02.22.44,0,.776-.1,1.01-.3.24-.2.36-.487.36-.86c0-.3-.087-.53-.26-.69-.174-.167-.47-.287-.89-.36l-.76-.12c-.334-.053-.614-.14-.84-.26-.227-.127-.41-.273-.55-.44-.14-.173-.244-.363-.31-.57-.06-.213-.09-.437-.09-.67c0-.66.213-1.16.64-1.5.426-.347,1.013-.52,1.76-.52.553,0,1.023.09,1.41.27.393.173.71.42.95.74l-.7.7c-.194-.233-.424-.42-.69-.56-.26-.147-.584-.22-.97-.22-.414,0-.73.09-.95.27-.214.173-.32.43-.32.77c0,.287.083.513.25.68.173.16.476.277.91.35l.74.13c.626.113,1.083.343,1.37.69.286.34.43.757.43,1.25c0,.32-.057.613-.17.88-.107.267-.27.493-.49.68-.214.187-.48.333-.8.44-.314.1-.674.15-1.08.15Z"/><path d="M132.748,367.79l-.84,1.05v2.16h-1.12v-6.98h1.12v3.34h.05l.85-1.16l1.71-2.18h1.29l-2.3,2.94l2.39,4.04h-1.28l-1.87-3.21Z"/><path d="M136.804,371v-.85h1.64v-5.28h-1.64v-.85h4.4v.85h-1.64v5.28h1.64v.85h-4.4Z"/><path d="M143.08,371v-6.98h1.12v6.04h3.18v.94h-4.3Z"/><path d="M149.076,371v-6.98h1.12v6.04h3.18v.94h-4.3Z"/><path d="M156.932,371.12c-.606,0-1.116-.107-1.53-.32-.413-.213-.753-.497-1.02-.85l.72-.69c.267.32.55.557.85.71.3.147.64.22,1.02.22.44,0,.777-.1,1.01-.3.24-.2.36-.487.36-.86c0-.3-.086-.53-.26-.69-.173-.167-.47-.287-.89-.36l-.76-.12c-.333-.053-.613-.14-.84-.26-.226-.127-.41-.273-.55-.44-.14-.173-.243-.363-.31-.57-.06-.213-.09-.437-.09-.67c0-.66.214-1.16.64-1.5.427-.347,1.014-.52,1.76-.52.554,0,1.024.09,1.41.27.394.173.71.42.95.74l-.7.7c-.193-.233-.423-.42-.69-.56-.26-.147-.583-.22-.97-.22-.413,0-.73.09-.95.27-.213.173-.32.43-.32.77c0,.287.084.513.25.68.174.16.477.277.91.35l.74.13c.627.113,1.084.343,1.37.69.287.34.43.757.43,1.25c0,.32-.056.613-.17.88-.106.267-.27.493-.49.68-.213.187-.48.333-.8.44-.313.1-.673.15-1.08.15Z"/><path d="M125.852,297v-6.98h2.61c.666,0,1.173.187,1.52.56.353.373.53.887.53,1.54s-.177,1.167-.53,1.54c-.347.373-.854.56-1.52.56h-1.49v2.78h-1.12Zm1.12-3.71h1.32c.693,0,1.04-.32,1.04-.96v-.43c0-.633-.347-.95-1.04-.95h-1.32v2.34Z" fill="#fff"/><path d="M131.868,297v-6.98h4.37v.94h-3.25v2.03h3.13v.94h-3.13v2.13h3.25v.94h-4.37Z" fill="#fff"/><path d="M140.004,297.12c-.44,0-.823-.08-1.15-.24-.32-.167-.587-.403-.8-.71-.207-.307-.36-.683-.46-1.13s-.15-.957-.15-1.53c0-.567.05-1.073.15-1.52.1-.453.253-.833.46-1.14.213-.307.48-.54.8-.7.327-.167.71-.25,1.15-.25s.82.083,1.14.25c.327.16.593.393.8.7.213.307.37.687.47,1.14.1.447.15.953.15,1.52c0,.573-.05,1.083-.15,1.53s-.257.823-.47,1.13c-.207.307-.473.543-.8.71-.32.16-.7.24-1.14.24Zm0-.93c.5,0,.853-.187,1.06-.56.207-.38.31-.893.31-1.54v-1.17c0-.64-.103-1.147-.31-1.52-.207-.38-.56-.57-1.06-.57s-.853.19-1.06.57c-.207.373-.31.88-.31,1.52v1.18c0,.64.103,1.15.31,1.53.207.373.56.56,1.06.56Z" fill="#fff"/><path d="M143.84,297v-6.98h2.61c.667,0,1.173.187,1.52.56.353.373.53.887.53,1.54s-.177,1.167-.53,1.54c-.347.373-.853.56-1.52.56h-1.49v2.78h-1.12Zm1.12-3.71h1.32c.693,0,1.04-.32,1.04-.96v-.43c0-.633-.347-.95-1.04-.95h-1.32v2.34Z" fill="#fff"/><path d="M150.076,297v-6.98h1.12v6.04h3.18v.94h-4.3Z" fill="#fff"/><path d="M155.852,297v-6.98h4.37v.94h-3.25v2.03h3.13v.94h-3.13v2.13h3.25v.94h-4.37Z" fill="#fff"/><path d="M133.568,436.96v6.04h-1.12v-6.04h-2.19v-.94h5.5v.94h-2.19Z" fill="#fff"/><path d="M136.864,443v-6.98h4.37v.94h-3.25v2.03h3.13v.94h-3.13v2.13h3.25v.94h-4.37Z" fill="#fff"/><path d="M145.2,443.12c-.887,0-1.547-.313-1.98-.94-.427-.627-.64-1.517-.64-2.67s.213-2.043.64-2.67c.433-.627,1.093-.94,1.98-.94.34,0,.633.047.88.14.253.087.47.21.65.37.18.153.33.337.45.55.127.207.23.43.31.67l-1.01.34c-.053-.16-.113-.31-.18-.45s-.15-.26-.25-.36-.22-.18-.36-.24c-.133-.06-.3-.09-.5-.09-.493,0-.853.19-1.08.57-.227.373-.34.88-.34,1.52v1.18c0,.64.113,1.15.34,1.53.227.373.587.56,1.08.56.2,0,.367-.03.5-.09.14-.06.26-.14.36-.24s.183-.22.25-.36.127-.29.18-.45l1.01.34c-.08.24-.183.467-.31.68-.12.207-.27.39-.45.55-.18.153-.397.277-.65.37-.247.087-.54.13-.88.13Z" fill="#fff"/><path d="M152.156,439.93h-2.32v3.07h-1.12v-6.98h1.12v2.97h2.32v-2.97h1.12v6.98h-1.12v-3.07Z" fill="#fff"/><path d="M118.769,150.706c0,1.76-1.24,3.448-3.451,4.725-2.197,1.268-5.267,2.069-8.684,2.069s-6.486-.801-8.6835-2.069c-2.2108-1.277-3.4505-2.965-3.4505-4.725s1.2397-3.448,3.4505-4.724c2.1975-1.269,5.2665-2.07,8.6835-2.07s6.487.801,8.684,2.07c2.211,1.276,3.451,2.964,3.451,4.724Z" fill="#fff" stroke="#2ab2ff"/><path d="M94,137.97h25.269v12.928h-25.269v-12.928Z" fill="#fff"/><path d="M118.769,138.799c0,1.76-1.24,3.449-3.451,4.725-2.197,1.269-5.267,2.069-8.684,2.069s-6.486-.8-8.6835-2.069c-2.2108-1.276-3.4505-2.965-3.4505-4.725c0-1.759,1.2397-3.448,3.4505-4.724c2.1975-1.269,5.2665-2.069,8.6835-2.069s6.487.8,8.684,2.069c2.211,1.276,3.451,2.965,3.451,4.724Z" fill="#fff" stroke="#2ab2ff"/><line x1="118.769" y1="150.898" x2="118.769" y2="139.145" fill="none" stroke="#2ab2ff"/><line x1="94.5" y1="150.898" x2="94.5" y2="139.145" fill="none" stroke="#2ab2ff"/><path d="M112.892,138.173c0,.795-.575,1.616-1.725,2.266-1.135.641-2.737,1.054-4.533,1.054s-3.397-.413-4.532-1.054c-1.15-.65-1.726-1.471-1.726-2.266s.576-1.616,1.726-2.266c1.135-.641,2.736-1.054,4.532-1.054s3.398.413,4.533,1.054c1.15.65,1.725,1.471,1.725,2.266Z" fill="#fff" stroke="#2ab2ff"/><path d="M118.769,138.953c0,1.76-1.24,3.448-3.451,4.725-2.197,1.268-5.267,2.069-8.684,2.069s-6.486-.801-8.6835-2.069c-2.2108-1.277-3.4505-2.965-3.4505-4.725s1.2397-3.448,3.4505-4.724c2.1975-1.269,5.2665-2.069,8.6835-2.069s6.487.8,8.684,2.069c2.211,1.276,3.451,2.964,3.451,4.724Z" fill="#fff" stroke="#2ab2ff"/><path d="M94,126.217h25.269v12.928h-25.269v-12.928Z" fill="#fff"/><path d="M118.769,127.047c0,1.759-1.24,3.448-3.451,4.724-2.197,1.269-5.267,2.069-8.684,2.069s-6.486-.8-8.6835-2.069c-2.2108-1.276-3.4505-2.965-3.4505-4.724c0-1.76,1.2397-3.449,3.4505-4.725c2.1975-1.269,5.2665-2.069,8.6835-2.069s6.487.8,8.684,2.069c2.211,1.276,3.451,2.965,3.451,4.725Z" fill="#fff" stroke="#2ab2ff"/><line x1="118.769" y1="139.145" x2="118.769" y2="127.392" fill="none" stroke="#2ab2ff"/><line x1="94.5" y1="139.753" x2="94.5" y2="128" fill="none" stroke="#2ab2ff"/><path d="M112.892,126.42c0,.795-.575,1.616-1.725,2.266-1.135.641-2.737,1.054-4.533,1.054s-3.397-.413-4.532-1.054c-1.15-.65-1.726-1.471-1.726-2.266s.576-1.615,1.726-2.265c1.135-.642,2.736-1.054,4.532-1.054s3.398.412,4.533,1.054c1.15.65,1.725,1.47,1.725,2.265Z" fill="#fff" stroke="#2ab2ff"/><path d="M118.769,127.201c0,1.759-1.24,3.448-3.451,4.724-2.197,1.269-5.267,2.069-8.684,2.069s-6.486-.8-8.6835-2.069c-2.2108-1.276-3.4505-2.965-3.4505-4.724c0-1.76,1.2397-3.449,3.4505-4.725c2.1975-1.269,5.2665-2.069,8.6835-2.069s6.487.8,8.684,2.069c2.211,1.276,3.451,2.965,3.451,4.725Z" fill="#fff" stroke="#2ab2ff"/><path d="M94,116h25v11h-25v-11Z" fill="#fff"/><path d="M118.769,115.294c0,1.76-1.24,3.448-3.451,4.724-2.197,1.269-5.267,2.07-8.684,2.07s-6.486-.801-8.6835-2.07c-2.2108-1.276-3.4505-2.964-3.4505-4.724s1.2397-3.448,3.4505-4.725c2.1975-1.268,5.2665-2.069,8.6835-2.069s6.487.801,8.684,2.069c2.211,1.277,3.451,2.965,3.451,4.725Z" fill="#fff" stroke="#2ab2ff"/><line x1="118.769" y1="127.392" x2="118.769" y2="115.639" fill="none" stroke="#2ab2ff"/><path d="M94.5,129.5v-14.5" fill="none" stroke="#2ab2ff"/><path d="M118.769,115.201c0,1.759-1.24,3.448-3.451,4.724-2.197,1.269-5.267,2.069-8.684,2.069s-6.486-.8-8.6835-2.069c-2.2108-1.276-3.4505-2.965-3.4505-4.724c0-1.76,1.2397-3.449,3.4505-4.725c2.1975-1.269,5.2665-2.069,8.6835-2.069s6.487.8,8.684,2.069c2.211,1.276,3.451,2.965,3.451,4.725Z" fill="#fff" stroke="#2ab2ff"/><path d="M94,104h25v11h-25v-11Z" fill="#fff"/><path d="M118.769,103.294c0,1.76-1.24,3.448-3.451,4.724-2.197,1.269-5.267,2.07-8.684,2.07s-6.486-.801-8.6835-2.07c-2.2108-1.276-3.4505-2.964-3.4505-4.724s1.2397-3.4484,3.4505-4.7247C100.148,97.3007,103.217,96.5,106.634,96.5s6.487.8007,8.684,2.0693c2.211,1.2763,3.451,2.9647,3.451,4.7247Z" fill="#fff" stroke="#2ab2ff"/><line x1="118.769" y1="115.392" x2="118.769" y2="103.639" fill="none" stroke="#2ab2ff"/><path d="M94.5,117.5v-14.5" fill="none" stroke="#2ab2ff"/><path d="M118.769,103.201c0,1.759-1.24,3.448-3.451,4.724-2.197,1.269-5.267,2.069-8.684,2.069s-6.486-.8-8.6835-2.069c-2.2108-1.276-3.4505-2.965-3.4505-4.724c0-1.76,1.2397-3.4487,3.4505-4.7249c2.1975-1.2687,5.2665-2.0694,8.6835-2.0694s6.487.8007,8.684,2.0694c2.211,1.2762,3.451,2.9649,3.451,4.7249Z" fill="#fff" stroke="#2ab2ff"/><path d="M94,92h25v11h-25v-11Z" fill="#fff"/><path d="M118.769,91.2938c0,1.7598-1.24,3.4482-3.451,4.7244-2.197,1.2687-5.267,2.0694-8.684,2.0694s-6.486-.8007-8.6835-2.0694C95.7397,94.742,94.5,93.0536,94.5,91.2938c0-1.7599,1.2397-3.4482,3.4505-4.7245C100.148,85.3007,103.217,84.5,106.634,84.5s6.487.8007,8.684,2.0693c2.211,1.2763,3.451,2.9646,3.451,4.7245Z" fill="#fff" stroke="#2ab2ff"/><line x1="118.769" y1="103.392" x2="118.769" y2="91.6394" fill="none" stroke="#2ab2ff"/><path d="M94.5,105.5v-14.5" fill="none" stroke="#2ab2ff"/><path d="M194.769,150.706c0,1.76-1.24,3.448-3.451,4.725-2.197,1.268-5.267,2.069-8.684,2.069s-6.486-.801-8.684-2.069c-2.21-1.277-3.45-2.965-3.45-4.725s1.24-3.448,3.45-4.724c2.198-1.269,5.267-2.07,8.684-2.07s6.487.801,8.684,2.07c2.211,1.276,3.451,2.964,3.451,4.724Z" fill="#fff" stroke="#2ab2ff"/><path d="M170,137.97h25.269v12.928h-25.269v-12.928Z" fill="#fff"/><path d="M194.769,138.799c0,1.76-1.24,3.449-3.451,4.725-2.197,1.269-5.267,2.069-8.684,2.069s-6.486-.8-8.684-2.069c-2.21-1.276-3.45-2.965-3.45-4.725c0-1.759,1.24-3.448,3.45-4.724c2.198-1.269,5.267-2.069,8.684-2.069s6.487.8,8.684,2.069c2.211,1.276,3.451,2.965,3.451,4.724Z" fill="#fff" stroke="#2ab2ff"/><line x1="194.769" y1="150.898" x2="194.769" y2="139.145" fill="none" stroke="#2ab2ff"/><line x1="170.5" y1="150.898" x2="170.5" y2="139.145" fill="none" stroke="#2ab2ff"/><path d="M188.892,138.173c0,.795-.575,1.616-1.725,2.266-1.135.641-2.737,1.054-4.533,1.054s-3.397-.413-4.532-1.054c-1.15-.65-1.726-1.471-1.726-2.266s.576-1.616,1.726-2.266c1.135-.641,2.736-1.054,4.532-1.054s3.398.413,4.533,1.054c1.15.65,1.725,1.471,1.725,2.266Z" fill="#fff" stroke="#2ab2ff"/><path d="M194.769,138.953c0,1.76-1.24,3.448-3.451,4.725-2.197,1.268-5.267,2.069-8.684,2.069s-6.486-.801-8.684-2.069c-2.21-1.277-3.45-2.965-3.45-4.725s1.24-3.448,3.45-4.724c2.198-1.269,5.267-2.069,8.684-2.069s6.487.8,8.684,2.069c2.211,1.276,3.451,2.964,3.451,4.724Z" fill="#fff" stroke="#2ab2ff"/><path d="M170,126.217h25.269v12.928h-25.269v-12.928Z" fill="#fff"/><path d="M194.769,127.047c0,1.759-1.24,3.448-3.451,4.724-2.197,1.269-5.267,2.069-8.684,2.069s-6.486-.8-8.684-2.069c-2.21-1.276-3.45-2.965-3.45-4.724c0-1.76,1.24-3.449,3.45-4.725c2.198-1.269,5.267-2.069,8.684-2.069s6.487.8,8.684,2.069c2.211,1.276,3.451,2.965,3.451,4.725Z" fill="#fff" stroke="#2ab2ff"/><line x1="194.769" y1="139.145" x2="194.769" y2="127.392" fill="none" stroke="#2ab2ff"/><line x1="170.5" y1="139.753" x2="170.5" y2="128" fill="none" stroke="#2ab2ff"/><path d="M188.892,126.42c0,.795-.575,1.616-1.725,2.266-1.135.641-2.737,1.054-4.533,1.054s-3.397-.413-4.532-1.054c-1.15-.65-1.726-1.471-1.726-2.266s.576-1.615,1.726-2.265c1.135-.642,2.736-1.054,4.532-1.054s3.398.412,4.533,1.054c1.15.65,1.725,1.47,1.725,2.265Z" fill="#fff" stroke="#2ab2ff"/><path d="M194.769,127.201c0,1.759-1.24,3.448-3.451,4.724-2.197,1.269-5.267,2.069-8.684,2.069s-6.486-.8-8.684-2.069c-2.21-1.276-3.45-2.965-3.45-4.724c0-1.76,1.24-3.449,3.45-4.725c2.198-1.269,5.267-2.069,8.684-2.069s6.487.8,8.684,2.069c2.211,1.276,3.451,2.965,3.451,4.725Z" fill="#fff" stroke="#2ab2ff"/><path d="M170,116h25v11h-25v-11Z" fill="#fff"/><path d="M194.769,115.294c0,1.76-1.24,3.448-3.451,4.724-2.197,1.269-5.267,2.07-8.684,2.07s-6.486-.801-8.684-2.07c-2.21-1.276-3.45-2.964-3.45-4.724s1.24-3.448,3.45-4.725c2.198-1.268,5.267-2.069,8.684-2.069s6.487.801,8.684,2.069c2.211,1.277,3.451,2.965,3.451,4.725Z" fill="#fff" stroke="#2ab2ff"/><line x1="194.769" y1="127.392" x2="194.769" y2="115.639" fill="none" stroke="#2ab2ff"/><path d="M170.5,129.5v-14.5" fill="none" stroke="#2ab2ff"/><path d="M194.769,115.201c0,1.759-1.24,3.448-3.451,4.724-2.197,1.269-5.267,2.069-8.684,2.069s-6.486-.8-8.684-2.069c-2.21-1.276-3.45-2.965-3.45-4.724c0-1.76,1.24-3.449,3.45-4.725c2.198-1.269,5.267-2.069,8.684-2.069s6.487.8,8.684,2.069c2.211,1.276,3.451,2.965,3.451,4.725Z" fill="#fff" stroke="#2ab2ff"/><path d="M170,104h25v11h-25v-11Z" fill="#fff"/><path d="M194.769,103.294c0,1.76-1.24,3.448-3.451,4.724-2.197,1.269-5.267,2.07-8.684,2.07s-6.486-.801-8.684-2.07c-2.21-1.276-3.45-2.964-3.45-4.724s1.24-3.4484,3.45-4.7247c2.198-1.2686,5.267-2.0693,8.684-2.0693s6.487.8007,8.684,2.0693c2.211,1.2763,3.451,2.9647,3.451,4.7247Z" fill="#fff" stroke="#2ab2ff"/><line x1="194.769" y1="115.392" x2="194.769" y2="103.639" fill="none" stroke="#2ab2ff"/><path d="M170.5,117.5v-14.5" fill="none" stroke="#2ab2ff"/><path d="M194.769,103.201c0,1.759-1.24,3.448-3.451,4.724-2.197,1.269-5.267,2.069-8.684,2.069s-6.486-.8-8.684-2.069c-2.21-1.276-3.45-2.965-3.45-4.724c0-1.76,1.24-3.4487,3.45-4.7249c2.198-1.2687,5.267-2.0694,8.684-2.0694s6.487.8007,8.684,2.0694c2.211,1.2762,3.451,2.9649,3.451,4.7249Z" fill="#fff" stroke="#2ab2ff"/><path d="M170,92h25v11h-25v-11Z" fill="#fff"/><path d="M194.769,91.2938c0,1.7598-1.24,3.4482-3.451,4.7244-2.197,1.2687-5.267,2.0694-8.684,2.0694s-6.486-.8007-8.684-2.0694c-2.21-1.2762-3.45-2.9646-3.45-4.7244c0-1.7599,1.24-3.4482,3.45-4.7245c2.198-1.2686,5.267-2.0693,8.684-2.0693s6.487.8007,8.684,2.0693c2.211,1.2763,3.451,2.9646,3.451,4.7245Z" fill="#fff" stroke="#2ab2ff"/><line x1="194.769" y1="103.392" x2="194.769" y2="91.6394" fill="none" stroke="#2ab2ff"/><path d="M170.5,105.5v-14.5" fill="none" stroke="#2ab2ff"/><path d="M164.5,134.294c0,3.014-2.12,5.837-5.754,7.935-3.621,2.09-8.657,3.399-14.246,3.399s-10.625-1.309-14.246-3.399c-3.634-2.098-5.754-4.921-5.754-7.935s2.12-5.838,5.754-7.936c3.621-2.09,8.657-3.399,14.246-3.399s10.625,1.309,14.246,3.399c3.634,2.098,5.754,4.922,5.754,7.936Z" fill="#fff" stroke="#2ab2ff"/><path d="M124,113.628h41v20.977h-41v-20.977Z" fill="#fff"/><path d="M164.5,114.974c0,3.014-2.12,5.837-5.754,7.936-3.621,2.09-8.657,3.399-14.246,3.399s-10.625-1.309-14.246-3.399c-3.634-2.099-5.754-4.922-5.754-7.936s2.12-5.837,5.754-7.935c3.621-2.091,8.657-3.399,14.246-3.399s10.625,1.308,14.246,3.399c3.634,2.098,5.754,4.921,5.754,7.935Z" fill="#fff" stroke="#2ab2ff"/><line x1="164.5" y1="134.605" x2="164.5" y2="115.535" fill="none" stroke="#2ab2ff"/><line x1="124.453" y1="134.605" x2="124.453" y2="115.535" fill="none" stroke="#2ab2ff"/><path d="M154.965,113.958c0,1.452-1.046,2.867-2.958,3.947-1.896,1.072-4.549,1.751-7.507,1.751s-5.611-.679-7.507-1.751c-1.912-1.08-2.958-2.495-2.958-3.947s1.046-2.867,2.958-3.947c1.896-1.072,4.549-1.751,7.507-1.751s5.611.679,7.507,1.751c1.912,1.08,2.958,2.495,2.958,3.947Z" fill="#fff" stroke="#2ab2ff"/><path d="M164.5,115.224c0,3.014-2.12,5.837-5.754,7.935-3.621,2.091-8.657,3.4-14.246,3.4s-10.625-1.309-14.246-3.4c-3.634-2.098-5.754-4.921-5.754-7.935s2.12-5.837,5.754-7.935c3.621-2.091,8.657-3.4,14.246-3.4s10.625,1.309,14.246,3.4c3.634,2.098,5.754,4.921,5.754,7.935Z" fill="#fff" stroke="#2ab2ff"/><path d="M124,94.5582h41v20.9768h-41v-20.9768Z" fill="#fff"/><path d="M164.5,95.9045c0,3.0137-2.12,5.8375-5.754,7.9355-3.621,2.09-8.657,3.399-14.246,3.399s-10.625-1.309-14.246-3.399c-3.634-2.098-5.754-4.9218-5.754-7.9355c0-3.0138,2.12-5.8373,5.754-7.9354c3.621-2.0904,8.657-3.3993,14.246-3.3993s10.625,1.3089,14.246,3.3993c3.634,2.0981,5.754,4.9216,5.754,7.9354Z" fill="#fff" stroke="#2ab2ff"/><line x1="164.5" y1="115.535" x2="164.5" y2="96.4651" fill="none" stroke="#2ab2ff"/><line x1="124.453" y1="115.535" x2="124.453" y2="96.4651" fill="none" stroke="#2ab2ff"/><path d="M154.965,94.8882c0,1.4518-1.046,2.8668-2.958,3.9472-1.896,1.0718-4.549,1.7506-7.507,1.7506s-5.611-.6788-7.507-1.7506c-1.912-1.0804-2.958-2.4954-2.958-3.9472s1.046-2.8667,2.958-3.9471c1.896-1.0718,4.549-1.7505,7.507-1.7505s5.611.6787,7.507,1.7505c1.912,1.0804,2.958,2.4953,2.958,3.9471Z" fill="#fff" stroke="#2ab2ff"/><path d="M164.5,96.1542c0,3.0138-2.12,5.8378-5.754,7.9358-3.621,2.09-8.657,3.399-14.246,3.399s-10.625-1.309-14.246-3.399c-3.634-2.098-5.754-4.922-5.754-7.9358c0-3.0137,2.12-5.8373,5.754-7.9353c3.621-2.0904,8.657-3.3993,14.246-3.3993s10.625,1.3089,14.246,3.3993c3.634,2.098,5.754,4.9216,5.754,7.9353Z" fill="#fff" stroke="#2ab2ff"/><path d="M124,75.4884h41v20.9767h-41v-20.9767Z" fill="#fff"/><path d="M164.5,76.8346c0,3.0138-2.12,5.8374-5.754,7.9354-3.621,2.0904-8.657,3.3993-14.246,3.3993s-10.625-1.3089-14.246-3.3993c-3.634-2.098-5.754-4.9216-5.754-7.9354c0-3.0137,2.12-5.8373,5.754-7.9353C133.875,66.8089,138.911,65.5,144.5,65.5s10.625,1.3089,14.246,3.3993c3.634,2.098,5.754,4.9216,5.754,7.9353Z" fill="#fff" stroke="#2ab2ff"/><line x1="164.5" y1="96.4651" x2="164.5" y2="77.3953" fill="none" stroke="#2ab2ff"/><line x1="124.453" y1="96.4651" x2="124.453" y2="77.3953" fill="none" stroke="#2ab2ff"/><rect width="148.212" height="148.212" rx="0" ry="0" transform="matrix(.866044 0.499967-.866044 0.499967 142.224 97.5)" fill="#2ab2ff" stroke="#2ab2ff"/><g transform="translate(.000001 0)"><path d="M177.163,166.538l10.26-1.065v-6.363l-8.631-.91-1.639-.17c-.955-2.29-2.419-4.331-4.281-5.969l5.92-4.967-7.773-4.494-8.567,3.423c-3.357-1.199-6.835-2.031-10.372-2.481l-1.868-5.92h-11l-1.869,5.92c-3.539.448-7.018,1.278-10.377,2.476l-8.567-3.424-7.758,4.5l5.905,4.967c-1.856,1.648-3.313,3.696-4.259,5.99l-1.646.176-8.614.905v6.33l10.26,1.065c.945,2.295,2.402,4.344,4.259,5.99l-4.259,3.573-1.646,1.384l7.784,4.494l8.567-3.424c3.359,1.201,6.839,2.031,10.377,2.476l1.869,5.926h11l1.869-5.926c3.537-.445,7.015-1.276,10.372-2.476l8.567,3.424l7.746-4.494-1.639-1.368-4.292-3.578c1.874-1.641,3.346-3.69,4.302-5.99v0Zm-12.411-1.949c-.599,1.605-1.604,3.027-2.917,4.127-.819.728-1.711,1.369-2.663,1.911-3.833,2.215-9.051,3.455-14.45,3.455s-10.654-1.256-14.461-3.455c-.951-.542-1.844-1.183-2.662-1.911-1.316-1.098-2.324-2.521-2.923-4.127-.386-1.144-.481-2.367-.278-3.557.204-1.191.7-2.312,1.444-3.263c1.544-2.13,4.164-3.999,7.523-5.293c7.337-2.654,15.372-2.654,22.709,0c3.359,1.294,5.979,3.136,7.528,5.293.74.953,1.233,2.075,1.434,3.265.2,1.19.103,2.412-.284,3.555v0Z" fill="#fff"/><path d="M164.752,164.589c-.599,1.605-1.604,3.027-2.917,4.126-1.713-1.444-3.667-2.576-5.772-3.343-7.337-2.655-15.372-2.655-22.708,0-2.105.774-4.057,1.913-5.766,3.365-1.317-1.098-2.324-2.52-2.923-4.127-.386-1.144-.482-2.366-.278-3.557.203-1.19.699-2.312,1.444-3.263c1.544-2.13,4.163-3.999,7.523-5.292c7.336-2.655,15.371-2.655,22.708,0c3.36,1.293,5.979,3.136,7.529,5.292.738.95,1.23,2.068,1.433,3.254.202,1.186.109,2.404-.273,3.545v0Z" fill="#fff"/><path d="M187.423,165.462v12.875l-8.62.905v-1.768l-1.64-1.368v-9.568l10.26-1.076Z" fill="#fff"/><path d="M118.399,181.968v12.874l-7.784-4.494v-12.874l7.784,4.494Z" fill="#fff"/><path d="M126.966,178.544v12.874l-8.567,3.424v-12.874l8.567-3.424Z" fill="#fff"/><path d="M137.343,181.02v12.874c-3.539-.445-7.019-1.275-10.377-2.476v-12.874c3.358,1.201,6.838,2.031,10.377,2.476Z" fill="#fff"/><path d="M139.212,186.946v12.874l-1.869-5.926v-12.874l1.869,5.926Z" fill="#fff"/><path d="M150.212,186.946h-11v12.874h11v-12.874Z" fill="#fff"/><path d="M152.08,181.02v12.874l-1.868,5.926v-12.874l1.868-5.926Z" fill="#fff"/><path d="M162.452,178.544v12.874c-3.357,1.201-6.835,2.031-10.372,2.476v-12.874c3.537-.445,7.015-1.276,10.372-2.476v0Z" fill="#fff"/><path d="M171.019,181.968v12.874l-8.567-3.424v-12.874l8.567,3.424Z" fill="#fff"/><path d="M178.803,177.474v12.874l-7.784,4.494v-12.874l7.784-4.494Z" fill="#fff"/><path d="M116.546,172.528l-4.259,3.572v-9.583c.942,2.302,2.399,4.358,4.259,6.011v0Z" fill="#fff"/><path d="M112.26,166.538v9.568l-1.645,1.368v1.768L102,178.337v-12.875l10.26,1.076Z" fill="#fff"/><path d="M116.546,152.061c-1.856,1.648-3.313,3.696-4.259,5.99l-1.646.176v-11.133l5.905,4.967Z" fill="#fff"/><path d="M178.792,147.094v11.106l-1.64-.17c-.954-2.29-2.418-4.331-4.28-5.969l5.92-4.967Z" fill="#fff"/><path d="M177.163,166.538v9.584l-4.291-3.578c1.872-1.647,3.34-3.702,4.291-6.006v0Z" fill="#fff"/><path d="M127.583,168.721c1.711-1.449,3.665-2.583,5.772-3.349c7.336-2.655,15.371-2.655,22.708,0c2.109.774,4.065,1.915,5.777,3.37" fill="none" stroke="#2ab2ff" stroke-miterlimit="10"/><path d="M171.019,181.968l7.773-4.494-5.931-4.946c1.87-1.642,3.338-3.691,4.292-5.99l10.259-1.065v-6.363l-10.259-1.064c-.953-2.295-2.417-4.342-4.281-5.985l5.92-4.967-7.773-4.494-8.567,3.423c-3.357-1.199-6.835-2.031-10.372-2.481l-1.868-5.92h-11l-1.869,5.92c-3.539.448-7.018,1.278-10.377,2.476l-8.567-3.424-7.758,4.5l5.905,4.967c-1.856,1.648-3.313,3.696-4.259,5.99l-10.26,1.065v6.346l10.26,1.065c.945,2.295,2.402,4.344,4.259,5.99l-5.905,4.957l7.784,4.494l8.567-3.424c3.359,1.201,6.839,2.031,10.377,2.476l1.869,5.926h11l1.869-5.926c3.537-.445,7.015-1.276,10.372-2.476l8.54,3.424Zm-40.758-11.341c-2.859-1.651-4.791-3.727-5.595-6.038-.386-1.144-.482-2.367-.278-3.557.203-1.191.699-2.312,1.444-3.263c1.544-2.13,4.163-3.999,7.523-5.293c7.336-2.654,15.371-2.654,22.708,0c3.36,1.294,5.979,3.136,7.529,5.293.742.952,1.236,2.074,1.439,3.264.202,1.19.106,2.412-.279,3.556-.788,2.29-2.731,4.387-5.59,6.038-3.834,2.215-9.052,3.455-14.45,3.455-5.399,0-10.644-1.256-14.451-3.455v0Z" fill="none" stroke="#2ab2ff" stroke-miterlimit="10"/><path d="M139.212,186.946v12.874" fill="none" stroke="#2ab2ff" stroke-miterlimit="10"/><path d="M150.212,186.946v12.874" fill="none" stroke="#2ab2ff" stroke-miterlimit="10"/><path d="M152.08,181.025v12.874" fill="none" stroke="#2ab2ff" stroke-miterlimit="10"/><path d="M162.452,178.549v12.875" fill="none" stroke="#2ab2ff" stroke-miterlimit="10"/><path d="M171.019,181.973v12.874" fill="none" stroke="#2ab2ff" stroke-miterlimit="10"/><path d="M137.343,181.025v12.874" fill="none" stroke="#2ab2ff" stroke-miterlimit="10"/><path d="M126.971,178.549v12.875" fill="none" stroke="#2ab2ff" stroke-miterlimit="10"/><path d="M118.399,181.973v12.874" fill="none" stroke="#2ab2ff" stroke-miterlimit="10"/><path d="M178.803,179.242l8.62-.905v-12.875" fill="none" stroke="#2ab2ff" stroke-miterlimit="10"/><path d="M178.792,177.474v12.874l-7.784,4.494-8.567-3.424c-3.356,1.201-6.834,2.031-10.371,2.476l-1.869,5.926h-10.989l-1.869-5.926c-3.539-.445-7.019-1.275-10.377-2.476l-8.567,3.424-7.758-4.494v-12.874" fill="none" stroke="#2ab2ff" stroke-miterlimit="10"/><path d="M102,165.462v12.875l8.62.905" fill="none" stroke="#2ab2ff" stroke-miterlimit="10"/><path d="M110.62,147.094v11.111" fill="none" stroke="#2ab2ff" stroke-miterlimit="10"/><path d="M178.803,147.094v11.111" fill="none" stroke="#2ab2ff" stroke-miterlimit="10"/><path d="M177.163,166.543v9.563" fill="none" stroke="#2ab2ff" stroke-miterlimit="10"/><path d="M112.26,166.543v9.563" fill="none" stroke="#2ab2ff" stroke-miterlimit="10"/><path d="M177.163,154.227l10.26-1.065v-6.362l-8.631-.911-1.639-.17c-.955-2.289-2.419-4.331-4.281-5.969l5.92-4.967-7.773-4.494-8.567,3.424c-3.357-1.2-6.835-2.032-10.372-2.482l-1.868-5.92h-11l-1.869,5.92c-3.539.448-7.018,1.278-10.377,2.476l-8.567-3.423-7.758,4.499l5.905,4.967c-1.856,1.648-3.313,3.696-4.259,5.99l-1.646.176-8.614.905v6.331l10.26,1.064c.945,2.295,2.402,4.344,4.259,5.99l-4.259,3.573-1.646,1.384l7.784,4.494l8.567-3.424c3.359,1.201,6.839,2.031,10.377,2.476l1.869,5.926h11l1.869-5.926c3.537-.445,7.015-1.275,10.372-2.476l8.567,3.424l7.746-4.494-1.639-1.368-4.292-3.578c1.874-1.641,3.346-3.69,4.302-5.99v0Zm-12.411-1.949c-.599,1.605-1.604,3.027-2.917,4.127-.819.728-1.711,1.369-2.663,1.911-3.833,2.215-9.051,3.456-14.45,3.456s-10.654-1.257-14.461-3.456c-.951-.542-1.844-1.183-2.662-1.911-1.316-1.098-2.324-2.52-2.923-4.127-.386-1.144-.481-2.367-.278-3.557.204-1.191.7-2.312,1.444-3.263c1.544-2.13,4.164-3.999,7.523-5.292c7.337-2.655,15.372-2.655,22.709,0c3.359,1.293,5.979,3.136,7.528,5.292.74.953,1.233,2.075,1.434,3.265.2,1.191.103,2.412-.284,3.555v0Z" fill="#fff"/><path d="M164.752,152.278c-.599,1.605-1.604,3.027-2.917,4.127-1.713-1.445-3.667-2.576-5.772-3.344-7.337-2.655-15.372-2.655-22.708,0-2.105.774-4.057,1.913-5.766,3.365-1.317-1.098-2.324-2.52-2.923-4.126-.386-1.145-.482-2.367-.278-3.558.203-1.19.699-2.312,1.444-3.263c1.544-2.13,4.163-3.998,7.523-5.292c7.336-2.655,15.371-2.655,22.708,0c3.36,1.294,5.979,3.136,7.529,5.292.738.95,1.23,2.068,1.433,3.254.202,1.186.109,2.404-.273,3.545v0Z" fill="#fff"/><path d="M187.423,153.152v12.874l-8.62.905v-1.768l-1.64-1.368v-9.568l10.26-1.075Z" fill="#fff"/><path d="M118.399,169.657v12.874l-7.784-4.494v-12.874l7.784,4.494Z" fill="#fff"/><path d="M126.966,166.233v12.875l-8.567,3.423v-12.874l8.567-3.424Z" fill="#fff"/><path d="M137.343,168.709v12.874c-3.539-.445-7.019-1.275-10.377-2.475v-12.875c3.358,1.201,6.838,2.031,10.377,2.476Z" fill="#fff"/><path d="M139.212,174.635v12.874l-1.869-5.926v-12.874l1.869,5.926Z" fill="#fff"/><path d="M150.212,174.635h-11v12.874h11v-12.874Z" fill="#fff"/><path d="M152.08,168.709v12.874l-1.868,5.926v-12.874l1.868-5.926Z" fill="#fff"/><path d="M162.452,166.233v12.875c-3.357,1.2-6.835,2.03-10.372,2.475v-12.874c3.537-.445,7.015-1.275,10.372-2.476v0Z" fill="#fff"/><path d="M171.019,169.657v12.874l-8.567-3.423v-12.875l8.567,3.424Z" fill="#fff"/><path d="M178.803,165.163v12.874l-7.784,4.494v-12.874l7.784-4.494Z" fill="#fff"/><path d="M116.546,160.217l-4.259,3.573v-9.584c.942,2.302,2.399,4.358,4.259,6.011v0Z" fill="#fff"/><path d="M112.26,154.227v9.568l-1.645,1.368v1.768L102,166.026v-12.874l10.26,1.075Z" fill="#fff"/><path d="M116.546,139.75c-1.856,1.648-3.313,3.696-4.259,5.99l-1.646.176v-11.133l5.905,4.967Z" fill="#fff"/><path d="M178.792,134.783v11.106l-1.64-.17c-.954-2.289-2.418-4.331-4.28-5.969l5.92-4.967Z" fill="#fff"/><path d="M177.163,154.227v9.584l-4.291-3.578c1.872-1.647,3.34-3.702,4.291-6.006v0Z" fill="#fff"/><path d="M127.583,156.41c1.711-1.449,3.665-2.583,5.772-3.349c7.336-2.655,15.371-2.655,22.708,0c2.109.774,4.065,1.915,5.777,3.37" fill="none" stroke="#2ab2ff" stroke-miterlimit="10"/><path d="M171.019,169.657l7.773-4.494-5.931-4.946c1.87-1.642,3.338-3.691,4.292-5.99l10.259-1.065v-6.362l-10.259-1.065c-.953-2.295-2.417-4.342-4.281-5.985l5.92-4.967-7.773-4.494-8.567,3.424c-3.357-1.2-6.835-2.032-10.372-2.482l-1.868-5.92h-11l-1.869,5.92c-3.539.448-7.018,1.278-10.377,2.476l-8.567-3.423-7.758,4.499l5.905,4.967c-1.856,1.648-3.313,3.696-4.259,5.99l-10.26,1.065v6.347l10.26,1.064c.945,2.295,2.402,4.344,4.259,5.99l-5.905,4.957l7.784,4.494l8.567-3.424c3.359,1.201,6.839,2.031,10.377,2.476l1.869,5.926h11l1.869-5.926c3.537-.445,7.015-1.275,10.372-2.476l8.54,3.424Zm-40.758-11.341c-2.859-1.65-4.791-3.727-5.595-6.038-.386-1.144-.482-2.367-.278-3.557.203-1.191.699-2.312,1.444-3.263c1.544-2.13,4.163-3.999,7.523-5.292c7.336-2.655,15.371-2.655,22.708,0c3.36,1.293,5.979,3.136,7.529,5.292.742.952,1.236,2.074,1.439,3.264.202,1.19.106,2.412-.279,3.556-.788,2.29-2.731,4.388-5.59,6.038-3.834,2.215-9.052,3.456-14.45,3.456-5.399,0-10.644-1.257-14.451-3.456v0Z" fill="none" stroke="#2ab2ff" stroke-miterlimit="10"/><path d="M139.212,174.635v12.874" fill="none" stroke="#2ab2ff" stroke-miterlimit="10"/><path d="M150.212,174.635v12.874" fill="none" stroke="#2ab2ff" stroke-miterlimit="10"/><path d="M152.08,168.714v12.875" fill="none" stroke="#2ab2ff" stroke-miterlimit="10"/><path d="M162.452,166.239v12.874" fill="none" stroke="#2ab2ff" stroke-miterlimit="10"/><path d="M171.019,169.662v12.874" fill="none" stroke="#2ab2ff" stroke-miterlimit="10"/><path d="M137.343,168.714v12.875" fill="none" stroke="#2ab2ff" stroke-miterlimit="10"/><path d="M126.971,166.239v12.874" fill="none" stroke="#2ab2ff" stroke-miterlimit="10"/><path d="M118.399,169.662v12.874" fill="none" stroke="#2ab2ff" stroke-miterlimit="10"/><path d="M178.803,166.931l8.62-.905v-12.874" fill="none" stroke="#2ab2ff" stroke-miterlimit="10"/><path d="M178.792,165.163v12.874l-7.784,4.494-8.567-3.423c-3.356,1.2-6.834,2.03-10.371,2.475l-1.869,5.926h-10.989l-1.869-5.926c-3.539-.445-7.019-1.275-10.377-2.475l-8.567,3.423-7.758-4.494v-12.874" fill="none" stroke="#2ab2ff" stroke-miterlimit="10"/><path d="M102,153.152v12.874l8.62.905" fill="none" stroke="#2ab2ff" stroke-miterlimit="10"/><path d="M110.62,134.783v11.112" fill="none" stroke="#2ab2ff" stroke-miterlimit="10"/><path d="M178.803,134.783v11.112" fill="none" stroke="#2ab2ff" stroke-miterlimit="10"/><path d="M177.163,154.232v9.563" fill="none" stroke="#2ab2ff" stroke-miterlimit="10"/><path d="M112.26,154.232v9.563" fill="none" stroke="#2ab2ff" stroke-miterlimit="10"/><path d="M177.163,141.916l10.26-1.065v-6.362l-8.631-.911-1.639-.17c-.955-2.289-2.419-4.33-4.281-5.968l5.92-4.968-7.773-4.494-8.567,3.424c-3.357-1.2-6.835-2.032-10.372-2.481L150.212,113h-11l-1.869,5.921c-3.539.447-7.018,1.277-10.377,2.475l-8.567-3.423-7.758,4.499l5.905,4.968c-1.856,1.647-3.313,3.695-4.259,5.989l-1.646.176-8.614.905v6.331l10.26,1.065c.945,2.294,2.402,4.343,4.259,5.989l-4.259,3.573-1.646,1.384l7.784,4.494l8.567-3.423c3.359,1.2,6.839,2.03,10.377,2.475l1.869,5.926h11l1.869-5.926c3.537-.445,7.015-1.275,10.372-2.475l8.567,3.423l7.746-4.494-1.639-1.368-4.292-3.578c1.874-1.641,3.346-3.69,4.302-5.99v0Zm-12.411-1.948c-.599,1.604-1.604,3.026-2.917,4.126-.819.728-1.711,1.369-2.663,1.911-3.833,2.215-9.051,3.456-14.45,3.456s-10.654-1.257-14.461-3.456c-.951-.542-1.844-1.183-2.662-1.911-1.316-1.098-2.324-2.52-2.923-4.126-.386-1.145-.481-2.367-.278-3.558.204-1.19.7-2.312,1.444-3.263c1.544-2.13,4.164-3.998,7.523-5.292c7.337-2.655,15.372-2.655,22.709,0c3.359,1.294,5.979,3.136,7.528,5.292.74.954,1.233,2.075,1.434,3.266.2,1.19.103,2.411-.284,3.555v0Z" fill="#fff"/><path d="M164.752,139.968c-.599,1.604-1.604,3.026-2.917,4.126-1.713-1.444-3.667-2.576-5.772-3.344-7.337-2.655-15.372-2.655-22.708,0-2.105.774-4.057,1.913-5.766,3.365-1.317-1.098-2.324-2.52-2.923-4.126-.386-1.145-.482-2.367-.278-3.558.203-1.19.699-2.311,1.444-3.263c1.544-2.129,4.163-3.998,7.523-5.292c7.336-2.655,15.371-2.655,22.708,0c3.36,1.294,5.979,3.136,7.529,5.292.738.95,1.23,2.068,1.433,3.254.202,1.186.109,2.404-.273,3.546v0Z" fill="#fff"/><path d="M187.423,140.841v12.874l-8.62.905v-1.768l-1.64-1.368v-9.568l10.26-1.075Z" fill="#fff"/><path d="M118.399,157.346v12.874l-7.784-4.493v-12.875l7.784,4.494Z" fill="#fff"/><path d="M126.966,153.923v12.874l-8.567,3.423v-12.874l8.567-3.423Z" fill="#fff"/><path d="M137.343,156.398v12.875c-3.539-.445-7.019-1.276-10.377-2.476v-12.874c3.358,1.2,6.838,2.03,10.377,2.475Z" fill="#fff"/><path d="M139.212,162.324v12.875l-1.869-5.926v-12.875l1.869,5.926Z" fill="#fff"/><path d="M150.212,162.324h-11v12.875h11v-12.875Z" fill="#fff"/><path d="M152.08,156.398v12.875l-1.868,5.926v-12.875l1.868-5.926Z" fill="#fff"/><path d="M162.452,153.923v12.874c-3.357,1.2-6.835,2.03-10.372,2.476v-12.875c3.537-.445,7.015-1.275,10.372-2.475v0Z" fill="#fff"/><path d="M171.019,157.346v12.874l-8.567-3.423v-12.874l8.567,3.423Z" fill="#fff"/><path d="M178.803,152.852v12.875l-7.784,4.493v-12.874l7.784-4.494Z" fill="#fff"/><path d="M116.546,147.906l-4.259,3.573v-9.584c.942,2.302,2.399,4.359,4.259,6.011v0Z" fill="#fff"/><path d="M112.26,141.916v9.568l-1.645,1.368v1.768L102,153.715v-12.874l10.26,1.075Z" fill="#fff"/><path d="M116.546,127.439c-1.856,1.648-3.313,3.696-4.259,5.99l-1.646.176v-11.133l5.905,4.967Z" fill="#fff"/><path d="M178.792,122.472v11.106l-1.64-.17c-.954-2.289-2.418-4.331-4.28-5.969l5.92-4.967Z" fill="#fff"/><path d="M177.163,141.916v9.584l-4.291-3.578c1.872-1.646,3.34-3.701,4.291-6.006v0Z" fill="#fff"/><path d="M127.583,144.099c1.711-1.449,3.665-2.583,5.772-3.349c7.336-2.655,15.371-2.655,22.708,0c2.109.774,4.065,1.915,5.777,3.371" fill="none" stroke="#2ab2ff" stroke-miterlimit="10"/><path d="M171.019,157.346l7.773-4.494-5.931-4.946c1.87-1.642,3.338-3.691,4.292-5.99l10.259-1.065v-6.362l-10.259-1.065c-.953-2.295-2.417-4.342-4.281-5.984l5.92-4.968-7.773-4.494-8.567,3.424c-3.357-1.2-6.835-2.032-10.372-2.481L150.212,113h-11l-1.869,5.921c-3.539.447-7.018,1.277-10.377,2.475l-8.567-3.423-7.758,4.499l5.905,4.968c-1.856,1.647-3.313,3.695-4.259,5.989l-10.26,1.065v6.347l10.26,1.065c.945,2.294,2.402,4.343,4.259,5.989l-5.905,4.957l7.784,4.494l8.567-3.423c3.359,1.2,6.839,2.03,10.377,2.475l1.869,5.926h11l1.869-5.926c3.537-.445,7.015-1.275,10.372-2.475l8.54,3.423Zm-40.758-11.341c-2.859-1.65-4.791-3.727-5.595-6.037-.386-1.145-.482-2.367-.278-3.558.203-1.19.699-2.312,1.444-3.263c1.544-2.13,4.163-3.998,7.523-5.292c7.336-2.655,15.371-2.655,22.708,0c3.36,1.294,5.979,3.136,7.529,5.292.742.953,1.236,2.074,1.439,3.264.202,1.19.106,2.412-.279,3.557-.788,2.289-2.731,4.387-5.59,6.037-3.834,2.215-9.052,3.456-14.45,3.456-5.399,0-10.644-1.257-14.451-3.456v0Z" fill="none" stroke="#2ab2ff" stroke-miterlimit="10"/><path d="M139.212,162.324v12.875" fill="none" stroke="#2ab2ff" stroke-miterlimit="10"/><path d="M150.212,162.324v12.875" fill="none" stroke="#2ab2ff" stroke-miterlimit="10"/><path d="M152.08,156.404v12.874" fill="none" stroke="#2ab2ff" stroke-miterlimit="10"/><path d="M162.452,153.928v12.874" fill="none" stroke="#2ab2ff" stroke-miterlimit="10"/><path d="M171.019,157.351v12.875" fill="none" stroke="#2ab2ff" stroke-miterlimit="10"/><path d="M137.343,156.404v12.874" fill="none" stroke="#2ab2ff" stroke-miterlimit="10"/><path d="M126.971,153.928v12.874" fill="none" stroke="#2ab2ff" stroke-miterlimit="10"/><path d="M118.399,157.351v12.875" fill="none" stroke="#2ab2ff" stroke-miterlimit="10"/><path d="M178.803,154.62l8.62-.905v-12.874" fill="none" stroke="#2ab2ff" stroke-miterlimit="10"/><path d="M178.792,152.852v12.875l-7.784,4.493-8.567-3.423c-3.356,1.2-6.834,2.03-10.371,2.476l-1.869,5.926h-10.989l-1.869-5.926c-3.539-.445-7.019-1.276-10.377-2.476l-8.567,3.423-7.758-4.493v-12.875" fill="none" stroke="#2ab2ff" stroke-miterlimit="10"/><path d="M102,140.841v12.874l8.62.905" fill="none" stroke="#2ab2ff" stroke-miterlimit="10"/><path d="M110.62,122.472v11.112" fill="none" stroke="#2ab2ff" stroke-miterlimit="10"/><path d="M178.803,122.472v11.112" fill="none" stroke="#2ab2ff" stroke-miterlimit="10"/><path d="M177.163,141.922v9.562" fill="none" stroke="#2ab2ff" stroke-miterlimit="10"/><path d="M112.26,141.922v9.562" fill="none" stroke="#2ab2ff" stroke-miterlimit="10"/><path d="M177.163,129.538l10.26-1.065v-6.363l-8.631-.91-1.639-.17c-.955-2.29-2.419-4.331-4.281-5.969l5.92-4.967-7.773-4.494-8.567,3.423c-3.357-1.199-6.835-2.031-10.372-2.481l-1.868-5.92h-11l-1.869,5.92c-3.539.448-7.018,1.278-10.377,2.476l-8.567-3.424-7.758,4.5l5.905,4.967c-1.856,1.648-3.313,3.696-4.259,5.99l-1.646.176-8.614.905v6.33l10.26,1.065c.945,2.295,2.402,4.344,4.259,5.99l-4.259,3.573-1.646,1.384l7.784,4.494l8.567-3.424c3.359,1.201,6.839,2.031,10.377,2.476l1.869,5.926h11l1.869-5.926c3.537-.445,7.015-1.276,10.372-2.476l8.567,3.424l7.746-4.494-1.639-1.368-4.292-3.578c1.874-1.641,3.346-3.69,4.302-5.99v0Zm-12.411-1.949c-.599,1.605-1.604,3.027-2.917,4.127-.819.728-1.711,1.369-2.663,1.911-3.833,2.215-9.051,3.455-14.45,3.455s-10.654-1.256-14.461-3.455c-.951-.542-1.844-1.183-2.662-1.911-1.316-1.098-2.324-2.521-2.923-4.127-.386-1.144-.481-2.367-.278-3.557.204-1.191.7-2.312,1.444-3.263c1.544-2.13,4.164-3.999,7.523-5.293c7.337-2.654,15.372-2.654,22.709,0c3.359,1.294,5.979,3.136,7.528,5.293.74.953,1.233,2.075,1.434,3.265.2,1.19.103,2.412-.284,3.555v0Z" fill="#fff"/><path d="M164.752,127.589c-.599,1.605-1.604,3.027-2.917,4.126-1.713-1.444-3.667-2.576-5.772-3.343-7.337-2.655-15.372-2.655-22.708,0-2.105.774-4.057,1.913-5.766,3.365-1.317-1.098-2.324-2.52-2.923-4.127-.386-1.144-.482-2.366-.278-3.557.203-1.19.699-2.312,1.444-3.263c1.544-2.13,4.163-3.999,7.523-5.292c7.336-2.655,15.371-2.655,22.708,0c3.36,1.293,5.979,3.136,7.529,5.292.738.95,1.23,2.068,1.433,3.254.202,1.186.109,2.404-.273,3.545Z" fill="#fff" stroke="#2ab2ff"/><path d="M187.423,128.462v12.875l-8.62.905v-1.768l-1.64-1.368v-9.568l10.26-1.076Z" fill="#fff"/><path d="M118.399,144.968v12.874l-7.784-4.494v-12.874l7.784,4.494Z" fill="#fff"/><path d="M126.966,141.544v12.874l-8.567,3.424v-12.874l8.567-3.424Z" fill="#fff"/><path d="M137.343,144.02v12.874c-3.539-.445-7.019-1.275-10.377-2.476v-12.874c3.358,1.201,6.838,2.031,10.377,2.476Z" fill="#fff"/><path d="M139.212,149.946v12.874l-1.869-5.926v-12.874l1.869,5.926Z" fill="#fff"/><path d="M150.212,149.946h-11v12.874h11v-12.874Z" fill="#fff"/><path d="M152.08,144.02v12.874l-1.868,5.926v-12.874l1.868-5.926Z" fill="#fff"/><path d="M162.452,141.544v12.874c-3.357,1.201-6.835,2.031-10.372,2.476v-12.874c3.537-.445,7.015-1.276,10.372-2.476v0Z" fill="#fff"/><path d="M171.019,144.968v12.874l-8.567-3.424v-12.874l8.567,3.424Z" fill="#fff"/><path d="M178.803,140.474v12.874l-7.784,4.494v-12.874l7.784-4.494Z" fill="#fff"/><path d="M116.546,135.528l-4.259,3.572v-9.583c.942,2.302,2.399,4.358,4.259,6.011v0Z" fill="#fff"/><path d="M112.26,129.538v9.568l-1.645,1.368v1.768L102,141.337v-12.875l10.26,1.076Z" fill="#fff"/><path d="M116.546,115.061c-1.856,1.648-3.313,3.696-4.259,5.99l-1.646.176v-11.133l5.905,4.967Z" fill="#fff"/><path d="M178.792,110.094v11.106l-1.64-.17c-.954-2.29-2.418-4.331-4.28-5.969l5.92-4.967Z" fill="#fff"/><path d="M177.163,129.538v9.584l-4.291-3.578c1.872-1.647,3.34-3.702,4.291-6.006v0Z" fill="#fff"/><path d="M127.583,131.721c1.711-1.449,3.665-2.583,5.772-3.349c7.336-2.655,15.371-2.655,22.708,0c2.109.774,4.065,1.915,5.777,3.37" fill="none" stroke="#2ab2ff" stroke-miterlimit="10"/><path d="M171.019,144.968l7.773-4.494-5.931-4.946c1.87-1.642,3.338-3.691,4.292-5.99l10.259-1.065v-6.363l-10.259-1.064c-.953-2.295-2.417-4.342-4.281-5.985l5.92-4.967-7.773-4.494-8.567,3.423c-3.357-1.199-6.835-2.031-10.372-2.481l-1.868-5.92h-11l-1.869,5.92c-3.539.448-7.018,1.278-10.377,2.476l-8.567-3.424-7.758,4.5l5.905,4.967c-1.856,1.648-3.313,3.696-4.259,5.99l-10.26,1.065v6.346l10.26,1.065c.945,2.295,2.402,4.344,4.259,5.99l-5.905,4.957l7.784,4.494l8.567-3.424c3.359,1.201,6.839,2.031,10.377,2.476l1.869,5.926h11l1.869-5.926c3.537-.445,7.015-1.276,10.372-2.476l8.54,3.424Zm-40.758-11.341c-2.859-1.651-4.791-3.727-5.595-6.038-.386-1.144-.482-2.367-.278-3.557.203-1.191.699-2.312,1.444-3.263c1.544-2.13,4.163-3.999,7.523-5.293c7.336-2.654,15.371-2.654,22.708,0c3.36,1.294,5.979,3.136,7.529,5.293.742.952,1.236,2.074,1.439,3.264.202,1.19.106,2.412-.279,3.556-.788,2.29-2.731,4.387-5.59,6.038-3.834,2.215-9.052,3.455-14.45,3.455-5.399,0-10.644-1.256-14.451-3.455v0Z" fill="none" stroke="#2ab2ff" stroke-miterlimit="10"/><path d="M139.212,149.946v12.874" fill="none" stroke="#2ab2ff" stroke-miterlimit="10"/><path d="M150.212,149.946v12.874" fill="none" stroke="#2ab2ff" stroke-miterlimit="10"/><path d="M152.08,144.025v12.874" fill="none" stroke="#2ab2ff" stroke-miterlimit="10"/><path d="M162.452,141.549v12.875" fill="none" stroke="#2ab2ff" stroke-miterlimit="10"/><path d="M171.019,144.973v12.874" fill="none" stroke="#2ab2ff" stroke-miterlimit="10"/><path d="M137.343,144.025v12.874" fill="none" stroke="#2ab2ff" stroke-miterlimit="10"/><path d="M126.971,141.549v12.875" fill="none" stroke="#2ab2ff" stroke-miterlimit="10"/><path d="M118.399,144.973v12.874" fill="none" stroke="#2ab2ff" stroke-miterlimit="10"/><path d="M178.803,142.242l8.62-.905v-12.875" fill="none" stroke="#2ab2ff" stroke-miterlimit="10"/><path d="M178.792,140.474v12.874l-7.784,4.494-8.567-3.424c-3.356,1.201-6.834,2.031-10.371,2.476l-1.869,5.926h-10.989l-1.869-5.926c-3.539-.445-7.019-1.275-10.377-2.476l-8.567,3.424-7.758-4.494v-12.874" fill="none" stroke="#2ab2ff" stroke-miterlimit="10"/><path d="M102,128.462v12.875l8.62.905" fill="none" stroke="#2ab2ff" stroke-miterlimit="10"/><path d="M110.62,110.094v11.111" fill="none" stroke="#2ab2ff" stroke-miterlimit="10"/><path d="M178.803,110.094v11.111" fill="none" stroke="#2ab2ff" stroke-miterlimit="10"/><path d="M177.163,129.543v9.563" fill="none" stroke="#2ab2ff" stroke-miterlimit="10"/><path d="M112.26,129.543v9.563" fill="none" stroke="#2ab2ff" stroke-miterlimit="10"/><path d="M177.163,117.227l10.26-1.065v-6.362l-8.631-.911-1.639-.17c-.955-2.289-2.419-4.331-4.281-5.969l5.92-4.9673-7.773-4.4937-8.567,3.4235c-3.357-1.1994-6.835-2.0313-10.372-2.4811l-1.868-5.9206h-11l-1.869,5.9206c-3.539.4475-7.018,1.2776-10.377,2.4758l-8.567-3.4235-7.758,4.499l5.905,4.9673c-1.856,1.648-3.313,3.696-4.259,5.99l-1.646.176-8.614.905v6.331l10.26,1.064c.945,2.295,2.402,4.344,4.259,5.99l-4.259,3.573-1.646,1.384l7.784,4.494l8.567-3.424c3.359,1.201,6.839,2.031,10.377,2.476l1.869,5.926h11l1.869-5.926c3.537-.445,7.015-1.275,10.372-2.476l8.567,3.424l7.746-4.494-1.639-1.368-4.292-3.578c1.874-1.641,3.346-3.69,4.302-5.99v0Zm-12.411-1.949c-.599,1.605-1.604,3.027-2.917,4.127-.819.728-1.711,1.369-2.663,1.911-3.833,2.215-9.051,3.456-14.45,3.456s-10.654-1.257-14.461-3.456c-.951-.542-1.844-1.183-2.662-1.911-1.316-1.098-2.324-2.52-2.923-4.127-.386-1.144-.481-2.367-.278-3.557.204-1.191.7-2.312,1.444-3.263c1.544-2.13,4.164-3.999,7.523-5.292c7.337-2.655,15.372-2.655,22.709,0c3.359,1.293,5.979,3.136,7.528,5.292.74.953,1.233,2.075,1.434,3.265.2,1.191.103,2.412-.284,3.555v0Z" fill="#fff"/><path d="M164.752,115.278c-.599,1.605-1.604,3.027-2.917,4.127-1.713-1.444-3.667-2.576-5.772-3.344-7.337-2.655-15.372-2.655-22.708,0-2.105.774-4.057,1.913-5.766,3.365-1.317-1.098-2.324-2.52-2.923-4.126-.386-1.145-.482-2.367-.278-3.558.203-1.19.699-2.311,1.444-3.263c1.544-2.129,4.163-3.998,7.523-5.292c7.336-2.655,15.371-2.655,22.708,0c3.36,1.294,5.979,3.136,7.529,5.292.738.95,1.23,2.068,1.433,3.254.202,1.186.109,2.404-.273,3.545Z" fill="#fff" stroke="#2ab2ff"/><path d="M187.423,116.152v12.874l-8.62.905v-1.768l-1.64-1.368v-9.568l10.26-1.075Z" fill="#fff"/><path d="M118.399,132.657v12.874l-7.784-4.494v-12.874l7.784,4.494Z" fill="#fff"/><path d="M126.966,129.233v12.875l-8.567,3.423v-12.874l8.567-3.424Z" fill="#fff"/><path d="M137.343,131.709v12.874c-3.539-.445-7.019-1.275-10.377-2.475v-12.875c3.358,1.201,6.838,2.031,10.377,2.476Z" fill="#fff"/><path d="M144.5,114h-13.5v7h.026c-.072.662.005,1.332.227,1.965.531,1.469,1.808,2.789,3.698,3.838c2.516,1.398,5.983,2.197,9.551,2.197s7.017-.789,9.551-2.197c1.889-1.049,3.174-2.382,3.695-3.838.221-.633.298-1.303.226-1.965h.026v-7h-13.5Z" clip-rule="evenodd" fill="#fff" fill-rule="evenodd"/><path d="M131,114v-.5h-.5v.5h.5Zm0,7h-.5v.5h.5v-.5Zm.026,0l.497.054.061-.554h-.558v.5Zm.227,1.965l-.472.166.001.005.471-.171Zm3.698,3.838l.243-.437v0l-.243.437Zm19.102,0l-.243-.437v0l.243.437Zm3.695-3.838l.47.169.002-.003-.472-.166Zm.226-1.965v-.5h-.558l.061.554.497-.054Zm.026,0v.5h.5v-.5h-.5Zm0-7h.5v-.5h-.5v.5Zm-27,.5h13.5v-1h-13.5v1Zm.5,6.5v-7h-1v7h1Zm-.474-.5h-.026v1h.026v-1Zm-.497.446c-.08.736.005,1.482.252,2.185l.943-.331c-.197-.563-.265-1.158-.201-1.746l-.994-.108Zm.253,2.19c.587,1.62,1.973,3.02,3.926,4.105l.486-.875c-1.826-1.013-2.995-2.253-3.471-3.571l-.941.341Zm3.926,4.105c2.606,1.447,6.16,2.259,9.794,2.259v-1c-3.503,0-6.882-.786-9.308-2.134l-.486.875Zm9.794,2.259c3.633,0,7.17-.801,9.793-2.259l-.485-.875c-2.444,1.358-5.805,2.134-9.308,2.134v1Zm9.793-2.259c1.954-1.085,3.348-2.499,3.923-4.107l-.941-.337c-.466,1.303-1.641,2.556-3.467,3.569l.485.875Zm3.925-4.11c.246-.704.331-1.449.251-2.185l-.994.108c.064.588-.004,1.183-.201,1.746l.944.331ZM158,120.5h-.026v1h.026v-1Zm-.5-6.5v7h1v-7h-1Zm-13,.5h13.5v-1h-13.5v1Z" fill="#2ab2ff"/><path d="M131.253,113.965c.531,1.469,1.808,2.789,3.698,3.838c2.516,1.398,5.983,2.197,9.551,2.197s7.017-.789,9.551-2.197c1.889-1.049,3.174-2.382,3.695-3.838.254-.727.317-1.504.184-2.26-.134-.757-.461-1.47-.952-2.075-1.024-1.371-2.755-2.542-4.976-3.364-4.849-1.688-10.159-1.688-15.008,0-2.221.822-3.952,2.01-4.973,3.364-.492.605-.82,1.317-.954,2.074-.135.757-.072,1.534.184,2.261Z" fill="#ffe100" stroke="#2ab2ff" stroke-miterlimit="10"/><path d="M139.212,137.635v12.874l-1.869-5.926v-12.874l1.869,5.926Z" fill="#fff"/><path d="M150.212,137.635h-11v12.874h11v-12.874Z" fill="#fff"/><path d="M152.08,131.709v12.874l-1.868,5.926v-12.874l1.868-5.926Z" fill="#fff"/><path d="M162.452,129.233v12.875c-3.357,1.2-6.835,2.03-10.372,2.475v-12.874c3.537-.445,7.015-1.275,10.372-2.476v0Z" fill="#fff"/><path d="M171.019,132.657v12.874l-8.567-3.423v-12.875l8.567,3.424Z" fill="#fff"/><path d="M178.803,128.163v12.874l-7.784,4.494v-12.874l7.784-4.494Z" fill="#fff"/><path d="M116.546,123.217l-4.259,3.573v-9.584c.942,2.302,2.399,4.358,4.259,6.011v0Z" fill="#fff"/><path d="M112.26,117.227v9.568l-1.645,1.368v1.768L102,129.026v-12.874l10.26,1.075Z" fill="#fff"/><path d="M116.546,102.75c-1.856,1.648-3.313,3.696-4.259,5.99l-1.646.176v-11.1333l5.905,4.9673Z" fill="#fff"/><path d="M178.792,97.7827v11.1063l-1.64-.17c-.954-2.289-2.418-4.331-4.28-5.969l5.92-4.9673Z" fill="#fff"/><path d="M177.163,117.227v9.584l-4.291-3.578c1.872-1.647,3.34-3.702,4.291-6.006v0Z" fill="#fff"/><path d="M171.019,132.657l7.773-4.494-5.931-4.946c1.87-1.642,3.338-3.691,4.292-5.99l10.259-1.065v-6.362l-10.259-1.065c-.953-2.295-2.417-4.342-4.281-5.985l5.92-4.9673-7.773-4.4937-8.567,3.4235c-3.357-1.1994-6.835-2.0313-10.372-2.4811l-1.868-5.9206h-11l-1.869,5.9206c-3.539.4475-7.018,1.2776-10.377,2.4758l-8.567-3.4235-7.758,4.499l5.905,4.9673c-1.856,1.648-3.313,3.696-4.259,5.99l-10.26,1.065v6.347l10.26,1.064c.945,2.295,2.402,4.344,4.259,5.99l-5.905,4.957l7.784,4.494l8.567-3.424c3.359,1.201,6.839,2.031,10.377,2.476l1.869,5.926h11l1.869-5.926c3.537-.445,7.015-1.275,10.372-2.476l8.54,3.424Zm-40.758-11.341c-2.859-1.65-4.791-3.727-5.595-6.038-.386-1.144-.482-2.367-.278-3.557.203-1.191.699-2.312,1.444-3.263c1.544-2.13,4.163-3.999,7.523-5.292c7.336-2.655,15.371-2.655,22.708,0c3.36,1.293,5.979,3.136,7.529,5.292.742.952,1.236,2.074,1.439,3.264.202,1.19.106,2.412-.279,3.556-.788,2.29-2.731,4.388-5.59,6.038-3.834,2.215-9.052,3.456-14.45,3.456-5.399,0-10.644-1.257-14.451-3.456Z" fill="#fff" stroke="#2ab2ff" stroke-miterlimit="10"/><path d="M139.212,137.635v12.874" fill="none" stroke="#2ab2ff" stroke-miterlimit="10"/><path d="M150.212,137.635v12.874" fill="none" stroke="#2ab2ff" stroke-miterlimit="10"/><path d="M152.08,131.714v12.875" fill="none" stroke="#2ab2ff" stroke-miterlimit="10"/><path d="M162.452,129.239v12.874" fill="none" stroke="#2ab2ff" stroke-miterlimit="10"/><path d="M171.019,132.662v12.874" fill="none" stroke="#2ab2ff" stroke-miterlimit="10"/><path d="M137.343,131.714v12.875" fill="none" stroke="#2ab2ff" stroke-miterlimit="10"/><path d="M126.971,129.239v12.874" fill="none" stroke="#2ab2ff" stroke-miterlimit="10"/><path d="M118.399,132.662v12.874" fill="none" stroke="#2ab2ff" stroke-miterlimit="10"/><path d="M178.803,129.931l8.62-.905v-12.874" fill="none" stroke="#2ab2ff" stroke-miterlimit="10"/><path d="M178.792,128.163v12.874l-7.784,4.494-8.567-3.423c-3.356,1.2-6.834,2.03-10.371,2.475l-1.869,5.926h-10.989l-1.869-5.926c-3.539-.445-7.019-1.275-10.377-2.475l-8.567,3.423-7.758-4.494v-12.874" fill="none" stroke="#2ab2ff" stroke-miterlimit="10"/><path d="M102,116.152v12.874l8.62.905" fill="none" stroke="#2ab2ff" stroke-miterlimit="10"/><path d="M110.62,97.7827v11.1123" fill="none" stroke="#2ab2ff" stroke-miterlimit="10"/><path d="M178.803,97.7827v11.1123" fill="none" stroke="#2ab2ff" stroke-miterlimit="10"/><path d="M177.163,117.232v9.563" fill="none" stroke="#2ab2ff" stroke-miterlimit="10"/><path d="M112.26,117.232v9.563" fill="none" stroke="#2ab2ff" stroke-miterlimit="10"/><path d="M227.5,169.294c0,3.014-2.12,5.837-5.754,7.935-3.621,2.09-8.657,3.399-14.246,3.399s-10.625-1.309-14.246-3.399c-3.634-2.098-5.754-4.921-5.754-7.935s2.12-5.838,5.754-7.936c3.621-2.09,8.657-3.399,14.246-3.399s10.625,1.309,14.246,3.399c3.634,2.098,5.754,4.922,5.754,7.936Z" fill="#fff" stroke="#2ab2ff"/><path d="M187,148.628h41v20.977h-41v-20.977Z" fill="#fff"/><path d="M227.5,149.974c0,3.014-2.12,5.837-5.754,7.936-3.621,2.09-8.657,3.399-14.246,3.399s-10.625-1.309-14.246-3.399c-3.634-2.099-5.754-4.922-5.754-7.936s2.12-5.837,5.754-7.935c3.621-2.091,8.657-3.399,14.246-3.399s10.625,1.308,14.246,3.399c3.634,2.098,5.754,4.921,5.754,7.935Z" fill="#fff" stroke="#2ab2ff"/><line x1="227.5" y1="169.605" x2="227.5" y2="150.535" fill="none" stroke="#2ab2ff"/><line x1="187.453" y1="169.605" x2="187.453" y2="150.535" fill="none" stroke="#2ab2ff"/><path d="M217.965,148.958c0,1.452-1.046,2.867-2.958,3.947-1.896,1.072-4.549,1.751-7.507,1.751s-5.611-.679-7.507-1.751c-1.912-1.08-2.958-2.495-2.958-3.947s1.046-2.867,2.958-3.947c1.896-1.072,4.549-1.751,7.507-1.751s5.611.679,7.507,1.751c1.912,1.08,2.958,2.495,2.958,3.947Z" fill="#fff" stroke="#2ab2ff"/><path d="M227.5,150.224c0,3.014-2.12,5.837-5.754,7.935-3.621,2.091-8.657,3.4-14.246,3.4s-10.625-1.309-14.246-3.4c-3.634-2.098-5.754-4.921-5.754-7.935s2.12-5.837,5.754-7.935c3.621-2.091,8.657-3.4,14.246-3.4s10.625,1.309,14.246,3.4c3.634,2.098,5.754,4.921,5.754,7.935Z" fill="#fff" stroke="#2ab2ff"/><path d="M187,129.558h41v20.977h-41v-20.977Z" fill="#fff"/><path d="M227.5,130.904c0,3.014-2.12,5.838-5.754,7.936-3.621,2.09-8.657,3.399-14.246,3.399s-10.625-1.309-14.246-3.399c-3.634-2.098-5.754-4.922-5.754-7.936c0-3.013,2.12-5.837,5.754-7.935c3.621-2.09,8.657-3.399,14.246-3.399s10.625,1.309,14.246,3.399c3.634,2.098,5.754,4.922,5.754,7.935Z" fill="#fff" stroke="#2ab2ff"/><line x1="227.5" y1="150.535" x2="227.5" y2="131.465" fill="none" stroke="#2ab2ff"/><line x1="187.453" y1="150.535" x2="187.453" y2="131.465" fill="none" stroke="#2ab2ff"/><path d="M217.965,129.888c0,1.452-1.046,2.867-2.958,3.947-1.896,1.072-4.549,1.751-7.507,1.751s-5.611-.679-7.507-1.751c-1.912-1.08-2.958-2.495-2.958-3.947s1.046-2.867,2.958-3.947c1.896-1.072,4.549-1.75,7.507-1.75s5.611.678,7.507,1.75c1.912,1.08,2.958,2.495,2.958,3.947Z" fill="#fff" stroke="#2ab2ff"/><path d="M227.5,131.154c0,3.014-2.12,5.838-5.754,7.936-3.621,2.09-8.657,3.399-14.246,3.399s-10.625-1.309-14.246-3.399c-3.634-2.098-5.754-4.922-5.754-7.936s2.12-5.837,5.754-7.935c3.621-2.091,8.657-3.399,14.246-3.399s10.625,1.308,14.246,3.399c3.634,2.098,5.754,4.921,5.754,7.935Z" fill="#fff" stroke="#2ab2ff"/><path d="M187,110.488h41v20.977h-41v-20.977Z" fill="#fff"/><path d="M227.5,111.835c0,3.013-2.12,5.837-5.754,7.935-3.621,2.09-8.657,3.399-14.246,3.399s-10.625-1.309-14.246-3.399c-3.634-2.098-5.754-4.922-5.754-7.935c0-3.014,2.12-5.838,5.754-7.936c3.621-2.09,8.657-3.399,14.246-3.399s10.625,1.309,14.246,3.399c3.634,2.098,5.754,4.922,5.754,7.936Z" fill="#fff" stroke="#2ab2ff"/><line x1="227.5" y1="131.465" x2="227.5" y2="112.395" fill="none" stroke="#2ab2ff"/><line x1="187.453" y1="131.465" x2="187.453" y2="112.395" fill="none" stroke="#2ab2ff"/><path d="M164.5,206.294c0,3.014-2.12,5.837-5.754,7.935-3.621,2.09-8.657,3.399-14.246,3.399s-10.625-1.309-14.246-3.399c-3.634-2.098-5.754-4.921-5.754-7.935s2.12-5.838,5.754-7.936c3.621-2.09,8.657-3.399,14.246-3.399s10.625,1.309,14.246,3.399c3.634,2.098,5.754,4.922,5.754,7.936Z" fill="#fff" stroke="#2ab2ff"/><path d="M124,185.628h41v20.977h-41v-20.977Z" fill="#fff"/><path d="M164.5,186.974c0,3.014-2.12,5.837-5.754,7.936-3.621,2.09-8.657,3.399-14.246,3.399s-10.625-1.309-14.246-3.399c-3.634-2.099-5.754-4.922-5.754-7.936s2.12-5.837,5.754-7.935c3.621-2.091,8.657-3.399,14.246-3.399s10.625,1.308,14.246,3.399c3.634,2.098,5.754,4.921,5.754,7.935Z" fill="#fff" stroke="#2ab2ff"/><line x1="164.5" y1="206.605" x2="164.5" y2="187.535" fill="none" stroke="#2ab2ff"/><line x1="124.453" y1="206.605" x2="124.453" y2="187.535" fill="none" stroke="#2ab2ff"/><path d="M154.965,185.958c0,1.452-1.046,2.867-2.958,3.947-1.896,1.072-4.549,1.751-7.507,1.751s-5.611-.679-7.507-1.751c-1.912-1.08-2.958-2.495-2.958-3.947s1.046-2.867,2.958-3.947c1.896-1.072,4.549-1.751,7.507-1.751s5.611.679,7.507,1.751c1.912,1.08,2.958,2.495,2.958,3.947Z" fill="#fff" stroke="#2ab2ff"/><path d="M164.5,187.224c0,3.014-2.12,5.837-5.754,7.935-3.621,2.091-8.657,3.4-14.246,3.4s-10.625-1.309-14.246-3.4c-3.634-2.098-5.754-4.921-5.754-7.935s2.12-5.837,5.754-7.935c3.621-2.091,8.657-3.4,14.246-3.4s10.625,1.309,14.246,3.4c3.634,2.098,5.754,4.921,5.754,7.935Z" fill="#fff" stroke="#2ab2ff"/><path d="M124,166.558h41v20.977h-41v-20.977Z" fill="#fff"/><path d="M164.5,167.904c0,3.014-2.12,5.838-5.754,7.936-3.621,2.09-8.657,3.399-14.246,3.399s-10.625-1.309-14.246-3.399c-3.634-2.098-5.754-4.922-5.754-7.936c0-3.013,2.12-5.837,5.754-7.935c3.621-2.09,8.657-3.399,14.246-3.399s10.625,1.309,14.246,3.399c3.634,2.098,5.754,4.922,5.754,7.935Z" fill="#fff" stroke="#2ab2ff"/><line x1="164.5" y1="187.535" x2="164.5" y2="168.465" fill="none" stroke="#2ab2ff"/><line x1="124.453" y1="187.535" x2="124.453" y2="168.465" fill="none" stroke="#2ab2ff"/><path d="M154.965,166.888c0,1.452-1.046,2.867-2.958,3.947-1.896,1.072-4.549,1.751-7.507,1.751s-5.611-.679-7.507-1.751c-1.912-1.08-2.958-2.495-2.958-3.947s1.046-2.867,2.958-3.947c1.896-1.072,4.549-1.75,7.507-1.75s5.611.678,7.507,1.75c1.912,1.08,2.958,2.495,2.958,3.947Z" fill="#fff" stroke="#2ab2ff"/><path d="M164.5,168.154c0,3.014-2.12,5.838-5.754,7.936-3.621,2.09-8.657,3.399-14.246,3.399s-10.625-1.309-14.246-3.399c-3.634-2.098-5.754-4.922-5.754-7.936s2.12-5.837,5.754-7.935c3.621-2.091,8.657-3.399,14.246-3.399s10.625,1.308,14.246,3.399c3.634,2.098,5.754,4.921,5.754,7.935Z" fill="#fff" stroke="#2ab2ff"/><path d="M124,147.488h41v20.977h-41v-20.977Z" fill="#fff"/><path d="M164.5,148.835c0,3.013-2.12,5.837-5.754,7.935-3.621,2.09-8.657,3.399-14.246,3.399s-10.625-1.309-14.246-3.399c-3.634-2.098-5.754-4.922-5.754-7.935c0-3.014,2.12-5.838,5.754-7.936c3.621-2.09,8.657-3.399,14.246-3.399s10.625,1.309,14.246,3.399c3.634,2.098,5.754,4.922,5.754,7.936Z" fill="#fff" stroke="#2ab2ff"/><line x1="164.5" y1="168.465" x2="164.5" y2="149.395" fill="none" stroke="#2ab2ff"/><line x1="124.453" y1="168.465" x2="124.453" y2="149.395" fill="none" stroke="#2ab2ff"/><path d="M101.5,169.294c0,3.014-2.1201,5.837-5.7543,7.935-3.621,2.09-8.6565,3.399-14.2457,3.399s-10.6247-1.309-14.2457-3.399c-3.6342-2.098-5.7543-4.921-5.7543-7.935s2.1201-5.838,5.7543-7.936c3.621-2.09,8.6565-3.399,14.2457-3.399s10.6247,1.309,14.2457,3.399c3.6342,2.098,5.7543,4.922,5.7543,7.936Z" fill="#fff" stroke="#2ab2ff"/><path d="M61,148.628h41v20.977h-41v-20.977Z" fill="#fff"/><path d="M101.5,149.974c0,3.014-2.1201,5.837-5.7543,7.936-3.621,2.09-8.6565,3.399-14.2457,3.399s-10.6247-1.309-14.2457-3.399c-3.6342-2.099-5.7543-4.922-5.7543-7.936s2.1201-5.837,5.7543-7.935c3.621-2.091,8.6565-3.399,14.2457-3.399s10.6247,1.308,14.2457,3.399c3.6342,2.098,5.7543,4.921,5.7543,7.935Z" fill="#fff" stroke="#2ab2ff"/><line x1="101.5" y1="169.605" x2="101.5" y2="150.535" fill="none" stroke="#2ab2ff"/><line x1="61.4535" y1="169.605" x2="61.4535" y2="150.535" fill="none" stroke="#2ab2ff"/><path d="M91.9651,148.958c0,1.452-1.0462,2.867-2.9576,3.947-1.8963,1.072-4.5496,1.751-7.5075,1.751-2.958,0-5.6112-.679-7.5075-1.751-1.9115-1.08-2.9576-2.495-2.9576-3.947s1.0461-2.867,2.9576-3.947c1.8963-1.072,4.5495-1.751,7.5075-1.751c2.9579,0,5.6112.679,7.5075,1.751c1.9114,1.08,2.9576,2.495,2.9576,3.947Z" fill="#fff" stroke="#2ab2ff"/><path d="M101.5,150.224c0,3.014-2.1201,5.837-5.7543,7.935-3.621,2.091-8.6565,3.4-14.2457,3.4s-10.6247-1.309-14.2457-3.4c-3.6342-2.098-5.7543-4.921-5.7543-7.935s2.1201-5.837,5.7543-7.935c3.621-2.091,8.6565-3.4,14.2457-3.4s10.6247,1.309,14.2457,3.4c3.6342,2.098,5.7543,4.921,5.7543,7.935Z" fill="#fff" stroke="#2ab2ff"/><path d="M61,129.558h41v20.977h-41v-20.977Z" fill="#fff"/><path d="M101.5,130.904c0,3.014-2.1201,5.838-5.7543,7.936-3.621,2.09-8.6565,3.399-14.2457,3.399s-10.6247-1.309-14.2457-3.399c-3.6342-2.098-5.7543-4.922-5.7543-7.936c0-3.013,2.1201-5.837,5.7543-7.935c3.621-2.09,8.6565-3.399,14.2457-3.399s10.6247,1.309,14.2457,3.399c3.6342,2.098,5.7543,4.922,5.7543,7.935Z" fill="#fff" stroke="#2ab2ff"/><line x1="101.5" y1="150.535" x2="101.5" y2="131.465" fill="none" stroke="#2ab2ff"/><line x1="61.4535" y1="150.535" x2="61.4535" y2="131.465" fill="none" stroke="#2ab2ff"/><path d="M91.9651,129.888c0,1.452-1.0462,2.867-2.9576,3.947-1.8963,1.072-4.5496,1.751-7.5075,1.751-2.958,0-5.6112-.679-7.5075-1.751-1.9115-1.08-2.9576-2.495-2.9576-3.947s1.0461-2.867,2.9576-3.947c1.8963-1.072,4.5495-1.75,7.5075-1.75c2.9579,0,5.6112.678,7.5075,1.75c1.9114,1.08,2.9576,2.495,2.9576,3.947Z" fill="#fff" stroke="#2ab2ff"/><path d="M101.5,131.154c0,3.014-2.1201,5.838-5.7543,7.936-3.621,2.09-8.6565,3.399-14.2457,3.399s-10.6247-1.309-14.2457-3.399c-3.6342-2.098-5.7543-4.922-5.7543-7.936s2.1201-5.837,5.7543-7.935c3.621-2.091,8.6565-3.399,14.2457-3.399s10.6247,1.308,14.2457,3.399c3.6342,2.098,5.7543,4.921,5.7543,7.935Z" fill="#fff" stroke="#2ab2ff"/><path d="M61,110.488h41v20.977h-41v-20.977Z" fill="#fff"/><path d="M101.5,111.835c0,3.013-2.1201,5.837-5.7543,7.935-3.621,2.09-8.6565,3.399-14.2457,3.399s-10.6247-1.309-14.2457-3.399c-3.6342-2.098-5.7543-4.922-5.7543-7.935c0-3.014,2.1201-5.838,5.7543-7.936c3.621-2.09,8.6565-3.399,14.2457-3.399s10.6247,1.309,14.2457,3.399c3.6342,2.098,5.7543,4.922,5.7543,7.936Z" fill="#fff" stroke="#2ab2ff"/><line x1="101.5" y1="131.465" x2="101.5" y2="112.395" fill="none" stroke="#2ab2ff"/><line x1="61.4535" y1="131.465" x2="61.4535" y2="112.395" fill="none" stroke="#2ab2ff"/><path d="M251.769,169.706c0,1.76-1.24,3.448-3.451,4.725-2.197,1.268-5.267,2.069-8.684,2.069s-6.486-.801-8.684-2.069c-2.21-1.277-3.45-2.965-3.45-4.725s1.24-3.448,3.45-4.724c2.198-1.269,5.267-2.07,8.684-2.07s6.487.801,8.684,2.07c2.211,1.276,3.451,2.964,3.451,4.724Z" fill="#fff" stroke="#2ab2ff"/><path d="M227,156.97h25.269v12.928h-25.269v-12.928Z" fill="#fff"/><path d="M251.769,157.799c0,1.76-1.24,3.449-3.451,4.725-2.197,1.269-5.267,2.069-8.684,2.069s-6.486-.8-8.684-2.069c-2.21-1.276-3.45-2.965-3.45-4.725c0-1.759,1.24-3.448,3.45-4.724c2.198-1.269,5.267-2.069,8.684-2.069s6.487.8,8.684,2.069c2.211,1.276,3.451,2.965,3.451,4.724Z" fill="#fff" stroke="#2ab2ff"/><line x1="251.769" y1="169.898" x2="251.769" y2="158.145" fill="none" stroke="#2ab2ff"/><line x1="227.5" y1="169.898" x2="227.5" y2="158.145" fill="none" stroke="#2ab2ff"/><path d="M245.892,157.173c0,.795-.575,1.616-1.725,2.266-1.135.641-2.737,1.054-4.533,1.054s-3.397-.413-4.532-1.054c-1.15-.65-1.726-1.471-1.726-2.266s.576-1.616,1.726-2.266c1.135-.641,2.736-1.054,4.532-1.054s3.398.413,4.533,1.054c1.15.65,1.725,1.471,1.725,2.266Z" fill="#fff" stroke="#2ab2ff"/><path d="M251.769,157.953c0,1.76-1.24,3.448-3.451,4.725-2.197,1.268-5.267,2.069-8.684,2.069s-6.486-.801-8.684-2.069c-2.21-1.277-3.45-2.965-3.45-4.725s1.24-3.448,3.45-4.724c2.198-1.269,5.267-2.069,8.684-2.069s6.487.8,8.684,2.069c2.211,1.276,3.451,2.964,3.451,4.724Z" fill="#fff" stroke="#2ab2ff"/><path d="M227,145.217h25.269v12.928h-25.269v-12.928Z" fill="#fff"/><path d="M251.769,146.047c0,1.759-1.24,3.448-3.451,4.724-2.197,1.269-5.267,2.069-8.684,2.069s-6.486-.8-8.684-2.069c-2.21-1.276-3.45-2.965-3.45-4.724c0-1.76,1.24-3.449,3.45-4.725c2.198-1.269,5.267-2.069,8.684-2.069s6.487.8,8.684,2.069c2.211,1.276,3.451,2.965,3.451,4.725Z" fill="#fff" stroke="#2ab2ff"/><line x1="251.769" y1="158.145" x2="251.769" y2="146.392" fill="none" stroke="#2ab2ff"/><line x1="227.5" y1="158.753" x2="227.5" y2="147" fill="none" stroke="#2ab2ff"/><path d="M245.892,145.42c0,.795-.575,1.616-1.725,2.266-1.135.641-2.737,1.054-4.533,1.054s-3.397-.413-4.532-1.054c-1.15-.65-1.726-1.471-1.726-2.266s.576-1.615,1.726-2.265c1.135-.642,2.736-1.054,4.532-1.054s3.398.412,4.533,1.054c1.15.65,1.725,1.47,1.725,2.265Z" fill="#fff" stroke="#2ab2ff"/><path d="M251.769,146.201c0,1.759-1.24,3.448-3.451,4.724-2.197,1.269-5.267,2.069-8.684,2.069s-6.486-.8-8.684-2.069c-2.21-1.276-3.45-2.965-3.45-4.724c0-1.76,1.24-3.449,3.45-4.725c2.198-1.269,5.267-2.069,8.684-2.069s6.487.8,8.684,2.069c2.211,1.276,3.451,2.965,3.451,4.725Z" fill="#fff" stroke="#2ab2ff"/><path d="M227,135h25v11h-25v-11Z" fill="#fff"/><path d="M251.769,134.294c0,1.76-1.24,3.448-3.451,4.724-2.197,1.269-5.267,2.07-8.684,2.07s-6.486-.801-8.684-2.07c-2.21-1.276-3.45-2.964-3.45-4.724s1.24-3.448,3.45-4.725c2.198-1.268,5.267-2.069,8.684-2.069s6.487.801,8.684,2.069c2.211,1.277,3.451,2.965,3.451,4.725Z" fill="#fff" stroke="#2ab2ff"/><line x1="251.769" y1="146.392" x2="251.769" y2="134.639" fill="none" stroke="#2ab2ff"/><path d="M227.5,148.5v-14.5" fill="none" stroke="#2ab2ff"/><path d="M61.7686,169.706c0,1.76-1.2397,3.448-3.4505,4.725-2.1976,1.268-5.2667,2.069-8.6838,2.069s-6.4862-.801-8.6838-2.069c-2.2108-1.277-3.4505-2.965-3.4505-4.725s1.2397-3.448,3.4505-4.724c2.1976-1.269,5.2667-2.07,8.6838-2.07s6.4862.801,8.6838,2.07c2.2108,1.276,3.4505,2.964,3.4505,4.724Z" fill="#fff" stroke="#2ab2ff"/><path d="M37,156.97h25.2686v12.928h-25.2686v-12.928Z" fill="#fff"/><path d="M61.7686,157.799c0,1.76-1.2397,3.449-3.4505,4.725-2.1976,1.269-5.2667,2.069-8.6838,2.069s-6.4862-.8-8.6838-2.069c-2.2108-1.276-3.4505-2.965-3.4505-4.725c0-1.759,1.2397-3.448,3.4505-4.724c2.1976-1.269,5.2667-2.069,8.6838-2.069s6.4862.8,8.6838,2.069c2.2108,1.276,3.4505,2.965,3.4505,4.724Z" fill="#fff" stroke="#2ab2ff"/><line x1="61.7687" y1="169.898" x2="61.7687" y2="158.145" fill="none" stroke="#2ab2ff"/><line x1="37.5" y1="169.898" x2="37.5" y2="158.145" fill="none" stroke="#2ab2ff"/><path d="M55.8922,157.173c0,.795-.5753,1.616-1.7254,2.266-1.1349.641-2.7364,1.054-4.5325,1.054-1.7962,0-3.3976-.413-4.5325-1.054-1.1502-.65-1.7254-1.471-1.7254-2.266s.5752-1.616,1.7254-2.266c1.1349-.641,2.7363-1.054,4.5325-1.054c1.7961,0,3.3976.413,4.5325,1.054c1.1501.65,1.7254,1.471,1.7254,2.266Z" fill="#fff" stroke="#2ab2ff"/><path d="M61.7686,157.953c0,1.76-1.2397,3.448-3.4505,4.725-2.1976,1.268-5.2667,2.069-8.6838,2.069s-6.4862-.801-8.6838-2.069c-2.2108-1.277-3.4505-2.965-3.4505-4.725s1.2397-3.448,3.4505-4.724c2.1976-1.269,5.2667-2.069,8.6838-2.069s6.4862.8,8.6838,2.069c2.2108,1.276,3.4505,2.964,3.4505,4.724Z" fill="#fff" stroke="#2ab2ff"/><path d="M37,145.217h25.2686v12.928h-25.2686v-12.928Z" fill="#fff"/><path d="M61.7686,146.047c0,1.759-1.2397,3.448-3.4505,4.724-2.1976,1.269-5.2667,2.069-8.6838,2.069s-6.4862-.8-8.6838-2.069c-2.2108-1.276-3.4505-2.965-3.4505-4.724c0-1.76,1.2397-3.449,3.4505-4.725c2.1976-1.269,5.2667-2.069,8.6838-2.069s6.4862.8,8.6838,2.069c2.2108,1.276,3.4505,2.965,3.4505,4.725Z" fill="#fff" stroke="#2ab2ff"/><line x1="61.7687" y1="158.145" x2="61.7687" y2="146.392" fill="none" stroke="#2ab2ff"/><line x1="37.5" y1="158.753" x2="37.5" y2="147" fill="none" stroke="#2ab2ff"/><path d="M55.8922,145.42c0,.795-.5753,1.616-1.7254,2.266-1.1349.641-2.7364,1.054-4.5325,1.054-1.7962,0-3.3976-.413-4.5325-1.054-1.1502-.65-1.7254-1.471-1.7254-2.266s.5752-1.615,1.7254-2.265c1.1349-.642,2.7363-1.054,4.5325-1.054c1.7961,0,3.3976.412,4.5325,1.054c1.1501.65,1.7254,1.47,1.7254,2.265Z" fill="#fff" stroke="#2ab2ff"/><path d="M61.7686,146.201c0,1.759-1.2397,3.448-3.4505,4.724-2.1976,1.269-5.2667,2.069-8.6838,2.069s-6.4862-.8-8.6838-2.069c-2.2108-1.276-3.4505-2.965-3.4505-4.724c0-1.76,1.2397-3.449,3.4505-4.725c2.1976-1.269,5.2667-2.069,8.6838-2.069s6.4862.8,8.6838,2.069c2.2108,1.276,3.4505,2.965,3.4505,4.725Z" fill="#fff" stroke="#2ab2ff"/><path d="M37,135h25v11h-25v-11Z" fill="#fff"/><path d="M61.7686,134.294c0,1.76-1.2397,3.448-3.4505,4.724-2.1976,1.269-5.2667,2.07-8.6838,2.07s-6.4862-.801-8.6838-2.07c-2.2108-1.276-3.4505-2.964-3.4505-4.724s1.2397-3.448,3.4505-4.725c2.1976-1.268,5.2667-2.069,8.6838-2.069s6.4862.801,8.6838,2.069c2.2108,1.277,3.4505,2.965,3.4505,4.725Z" fill="#fff" stroke="#2ab2ff"/><line x1="61.7687" y1="146.392" x2="61.7687" y2="134.639" fill="none" stroke="#2ab2ff"/><path d="M37.5,148.5v-14.5" fill="none" stroke="#2ab2ff"/><path d="M156.769,221.706c0,1.76-1.24,3.448-3.451,4.725-2.197,1.268-5.267,2.069-8.684,2.069s-6.486-.801-8.684-2.069c-2.21-1.277-3.45-2.965-3.45-4.725s1.24-3.448,3.45-4.724c2.198-1.269,5.267-2.07,8.684-2.07s6.487.801,8.684,2.07c2.211,1.276,3.451,2.964,3.451,4.724Z" fill="#fff" stroke="#2ab2ff"/><path d="M132,208.97h25.269v12.928h-25.269v-12.928Z" fill="#fff"/><path d="M156.769,209.799c0,1.76-1.24,3.449-3.451,4.725-2.197,1.269-5.267,2.069-8.684,2.069s-6.486-.8-8.684-2.069c-2.21-1.276-3.45-2.965-3.45-4.725c0-1.759,1.24-3.448,3.45-4.724c2.198-1.269,5.267-2.069,8.684-2.069s6.487.8,8.684,2.069c2.211,1.276,3.451,2.965,3.451,4.724Z" fill="#fff" stroke="#2ab2ff"/><line x1="156.769" y1="221.898" x2="156.769" y2="210.145" fill="none" stroke="#2ab2ff"/><line x1="132.5" y1="221.898" x2="132.5" y2="210.145" fill="none" stroke="#2ab2ff"/><path d="M150.892,209.173c0,.795-.575,1.616-1.725,2.266-1.135.641-2.737,1.054-4.533,1.054s-3.397-.413-4.532-1.054c-1.15-.65-1.726-1.471-1.726-2.266s.576-1.616,1.726-2.266c1.135-.641,2.736-1.054,4.532-1.054s3.398.413,4.533,1.054c1.15.65,1.725,1.471,1.725,2.266Z" fill="#fff" stroke="#2ab2ff"/><path d="M156.769,209.953c0,1.76-1.24,3.448-3.451,4.725-2.197,1.268-5.267,2.069-8.684,2.069s-6.486-.801-8.684-2.069c-2.21-1.277-3.45-2.965-3.45-4.725s1.24-3.448,3.45-4.724c2.198-1.269,5.267-2.069,8.684-2.069s6.487.8,8.684,2.069c2.211,1.276,3.451,2.964,3.451,4.724Z" fill="#fff" stroke="#2ab2ff"/><path d="M132,197.217h25.269v12.928h-25.269v-12.928Z" fill="#fff"/><path d="M156.769,198.047c0,1.759-1.24,3.448-3.451,4.724-2.197,1.269-5.267,2.069-8.684,2.069s-6.486-.8-8.684-2.069c-2.21-1.276-3.45-2.965-3.45-4.724c0-1.76,1.24-3.449,3.45-4.725c2.198-1.269,5.267-2.069,8.684-2.069s6.487.8,8.684,2.069c2.211,1.276,3.451,2.965,3.451,4.725Z" fill="#fff" stroke="#2ab2ff"/><line x1="156.769" y1="210.145" x2="156.769" y2="198.392" fill="none" stroke="#2ab2ff"/><line x1="132.5" y1="210.753" x2="132.5" y2="199" fill="none" stroke="#2ab2ff"/><path d="M150.892,197.42c0,.795-.575,1.616-1.725,2.266-1.135.641-2.737,1.054-4.533,1.054s-3.397-.413-4.532-1.054c-1.15-.65-1.726-1.471-1.726-2.266s.576-1.615,1.726-2.265c1.135-.642,2.736-1.054,4.532-1.054s3.398.412,4.533,1.054c1.15.65,1.725,1.47,1.725,2.265Z" fill="#fff" stroke="#2ab2ff"/><path d="M156.769,198.201c0,1.759-1.24,3.448-3.451,4.724-2.197,1.269-5.267,2.069-8.684,2.069s-6.486-.8-8.684-2.069c-2.21-1.276-3.45-2.965-3.45-4.724c0-1.76,1.24-3.449,3.45-4.725c2.198-1.269,5.267-2.069,8.684-2.069s6.487.8,8.684,2.069c2.211,1.276,3.451,2.965,3.451,4.725Z" fill="#fff" stroke="#2ab2ff"/><path d="M132,187h25v11h-25v-11Z" fill="#fff"/><path d="M156.769,186.294c0,1.76-1.24,3.448-3.451,4.724-2.197,1.269-5.267,2.07-8.684,2.07s-6.486-.801-8.684-2.07c-2.21-1.276-3.45-2.964-3.45-4.724s1.24-3.448,3.45-4.725c2.198-1.268,5.267-2.069,8.684-2.069s6.487.801,8.684,2.069c2.211,1.277,3.451,2.965,3.451,4.725Z" fill="#fff" stroke="#2ab2ff"/><line x1="156.769" y1="198.392" x2="156.769" y2="186.639" fill="none" stroke="#2ab2ff"/><path d="M132.5,200.5v-14.5" fill="none" stroke="#2ab2ff"/><path d="M194.769,192.706c0,1.76-1.24,3.448-3.451,4.725-2.197,1.268-5.267,2.069-8.684,2.069s-6.486-.801-8.684-2.069c-2.21-1.277-3.45-2.965-3.45-4.725s1.24-3.448,3.45-4.724c2.198-1.269,5.267-2.07,8.684-2.07s6.487.801,8.684,2.07c2.211,1.276,3.451,2.964,3.451,4.724Z" fill="#fff" stroke="#2ab2ff"/><path d="M170,179.97h25.269v12.928h-25.269v-12.928Z" fill="#fff"/><path d="M194.769,180.799c0,1.76-1.24,3.449-3.451,4.725-2.197,1.269-5.267,2.069-8.684,2.069s-6.486-.8-8.684-2.069c-2.21-1.276-3.45-2.965-3.45-4.725c0-1.759,1.24-3.448,3.45-4.724c2.198-1.269,5.267-2.069,8.684-2.069s6.487.8,8.684,2.069c2.211,1.276,3.451,2.965,3.451,4.724Z" fill="#fff" stroke="#2ab2ff"/><line x1="194.769" y1="192.898" x2="194.769" y2="181.145" fill="none" stroke="#2ab2ff"/><line x1="170.5" y1="192.898" x2="170.5" y2="181.145" fill="none" stroke="#2ab2ff"/><path d="M188.892,180.173c0,.795-.575,1.616-1.725,2.266-1.135.641-2.737,1.054-4.533,1.054s-3.397-.413-4.532-1.054c-1.15-.65-1.726-1.471-1.726-2.266s.576-1.616,1.726-2.266c1.135-.641,2.736-1.054,4.532-1.054s3.398.413,4.533,1.054c1.15.65,1.725,1.471,1.725,2.266Z" fill="#fff" stroke="#2ab2ff"/><path d="M194.769,180.953c0,1.76-1.24,3.448-3.451,4.725-2.197,1.268-5.267,2.069-8.684,2.069s-6.486-.801-8.684-2.069c-2.21-1.277-3.45-2.965-3.45-4.725s1.24-3.448,3.45-4.724c2.198-1.269,5.267-2.069,8.684-2.069s6.487.8,8.684,2.069c2.211,1.276,3.451,2.964,3.451,4.724Z" fill="#fff" stroke="#2ab2ff"/><path d="M170,168.217h25.269v12.928h-25.269v-12.928Z" fill="#fff"/><path d="M194.769,169.047c0,1.759-1.24,3.448-3.451,4.724-2.197,1.269-5.267,2.069-8.684,2.069s-6.486-.8-8.684-2.069c-2.21-1.276-3.45-2.965-3.45-4.724c0-1.76,1.24-3.449,3.45-4.725c2.198-1.269,5.267-2.069,8.684-2.069s6.487.8,8.684,2.069c2.211,1.276,3.451,2.965,3.451,4.725Z" fill="#fff" stroke="#2ab2ff"/><line x1="194.769" y1="181.145" x2="194.769" y2="169.392" fill="none" stroke="#2ab2ff"/><line x1="170.5" y1="181.753" x2="170.5" y2="170" fill="none" stroke="#2ab2ff"/><path d="M188.892,168.42c0,.795-.575,1.616-1.725,2.266-1.135.641-2.737,1.054-4.533,1.054s-3.397-.413-4.532-1.054c-1.15-.65-1.726-1.471-1.726-2.266s.576-1.615,1.726-2.265c1.135-.642,2.736-1.054,4.532-1.054s3.398.412,4.533,1.054c1.15.65,1.725,1.47,1.725,2.265Z" fill="#fff" stroke="#2ab2ff"/><path d="M194.769,169.201c0,1.759-1.24,3.448-3.451,4.724-2.197,1.269-5.267,2.069-8.684,2.069s-6.486-.8-8.684-2.069c-2.21-1.276-3.45-2.965-3.45-4.724c0-1.76,1.24-3.449,3.45-4.725c2.198-1.269,5.267-2.069,8.684-2.069s6.487.8,8.684,2.069c2.211,1.276,3.451,2.965,3.451,4.725Z" fill="#fff" stroke="#2ab2ff"/><path d="M170,158h25v11h-25v-11Z" fill="#fff"/><path d="M194.769,157.294c0,1.76-1.24,3.448-3.451,4.724-2.197,1.269-5.267,2.07-8.684,2.07s-6.486-.801-8.684-2.07c-2.21-1.276-3.45-2.964-3.45-4.724s1.24-3.448,3.45-4.725c2.198-1.268,5.267-2.069,8.684-2.069s6.487.801,8.684,2.069c2.211,1.277,3.451,2.965,3.451,4.725Z" fill="#fff" stroke="#2ab2ff"/><line x1="194.769" y1="169.392" x2="194.769" y2="157.639" fill="none" stroke="#2ab2ff"/><path d="M170.5,171.5v-14.5" fill="none" stroke="#2ab2ff"/><path d="M194.769,157.201c0,1.759-1.24,3.448-3.451,4.724-2.197,1.269-5.267,2.069-8.684,2.069s-6.486-.8-8.684-2.069c-2.21-1.276-3.45-2.965-3.45-4.724c0-1.76,1.24-3.449,3.45-4.725c2.198-1.269,5.267-2.069,8.684-2.069s6.487.8,8.684,2.069c2.211,1.276,3.451,2.965,3.451,4.725Z" fill="#fff" stroke="#2ab2ff"/><path d="M170,146h25v11h-25v-11Z" fill="#fff"/><path d="M194.769,145.294c0,1.76-1.24,3.448-3.451,4.724-2.197,1.269-5.267,2.07-8.684,2.07s-6.486-.801-8.684-2.07c-2.21-1.276-3.45-2.964-3.45-4.724s1.24-3.448,3.45-4.725c2.198-1.268,5.267-2.069,8.684-2.069s6.487.801,8.684,2.069c2.211,1.277,3.451,2.965,3.451,4.725Z" fill="#fff" stroke="#2ab2ff"/><line x1="194.769" y1="157.392" x2="194.769" y2="145.639" fill="none" stroke="#2ab2ff"/><path d="M170.5,159.5v-14.5" fill="none" stroke="#2ab2ff"/><path d="M194.769,145.201c0,1.759-1.24,3.448-3.451,4.724-2.197,1.269-5.267,2.069-8.684,2.069s-6.486-.8-8.684-2.069c-2.21-1.276-3.45-2.965-3.45-4.724c0-1.76,1.24-3.449,3.45-4.725c2.198-1.269,5.267-2.069,8.684-2.069s6.487.8,8.684,2.069c2.211,1.276,3.451,2.965,3.451,4.725Z" fill="#fff" stroke="#2ab2ff"/><path d="M170,134h25v11h-25v-11Z" fill="#fff"/><path d="M194.769,133.294c0,1.76-1.24,3.448-3.451,4.724-2.197,1.269-5.267,2.07-8.684,2.07s-6.486-.801-8.684-2.07c-2.21-1.276-3.45-2.964-3.45-4.724s1.24-3.448,3.45-4.725c2.198-1.268,5.267-2.069,8.684-2.069s6.487.801,8.684,2.069c2.211,1.277,3.451,2.965,3.451,4.725Z" fill="#fff" stroke="#2ab2ff"/><line x1="194.769" y1="145.392" x2="194.769" y2="133.639" fill="none" stroke="#2ab2ff"/><path d="M170.5,147.5v-14.5" fill="none" stroke="#2ab2ff"/><path d="M118.769,192.706c0,1.76-1.24,3.448-3.451,4.725-2.197,1.268-5.267,2.069-8.684,2.069s-6.486-.801-8.6835-2.069c-2.2108-1.277-3.4505-2.965-3.4505-4.725s1.2397-3.448,3.4505-4.724c2.1975-1.269,5.2665-2.07,8.6835-2.07s6.487.801,8.684,2.07c2.211,1.276,3.451,2.964,3.451,4.724Z" fill="#fff" stroke="#2ab2ff"/><path d="M94,179.97h25.269v12.928h-25.269v-12.928Z" fill="#fff"/><path d="M118.769,180.799c0,1.76-1.24,3.449-3.451,4.725-2.197,1.269-5.267,2.069-8.684,2.069s-6.486-.8-8.6835-2.069c-2.2108-1.276-3.4505-2.965-3.4505-4.725c0-1.759,1.2397-3.448,3.4505-4.724c2.1975-1.269,5.2665-2.069,8.6835-2.069s6.487.8,8.684,2.069c2.211,1.276,3.451,2.965,3.451,4.724Z" fill="#fff" stroke="#2ab2ff"/><line x1="118.769" y1="192.898" x2="118.769" y2="181.145" fill="none" stroke="#2ab2ff"/><line x1="94.5" y1="192.898" x2="94.5" y2="181.145" fill="none" stroke="#2ab2ff"/><path d="M112.892,180.173c0,.795-.575,1.616-1.725,2.266-1.135.641-2.737,1.054-4.533,1.054s-3.397-.413-4.532-1.054c-1.15-.65-1.726-1.471-1.726-2.266s.576-1.616,1.726-2.266c1.135-.641,2.736-1.054,4.532-1.054s3.398.413,4.533,1.054c1.15.65,1.725,1.471,1.725,2.266Z" fill="#fff" stroke="#2ab2ff"/><path d="M118.769,180.953c0,1.76-1.24,3.448-3.451,4.725-2.197,1.268-5.267,2.069-8.684,2.069s-6.486-.801-8.6835-2.069c-2.2108-1.277-3.4505-2.965-3.4505-4.725s1.2397-3.448,3.4505-4.724c2.1975-1.269,5.2665-2.069,8.6835-2.069s6.487.8,8.684,2.069c2.211,1.276,3.451,2.964,3.451,4.724Z" fill="#fff" stroke="#2ab2ff"/><path d="M94,168.217h25.269v12.928h-25.269v-12.928Z" fill="#fff"/><path d="M118.769,169.047c0,1.759-1.24,3.448-3.451,4.724-2.197,1.269-5.267,2.069-8.684,2.069s-6.486-.8-8.6835-2.069c-2.2108-1.276-3.4505-2.965-3.4505-4.724c0-1.76,1.2397-3.449,3.4505-4.725c2.1975-1.269,5.2665-2.069,8.6835-2.069s6.487.8,8.684,2.069c2.211,1.276,3.451,2.965,3.451,4.725Z" fill="#fff" stroke="#2ab2ff"/><line x1="118.769" y1="181.145" x2="118.769" y2="169.392" fill="none" stroke="#2ab2ff"/><line x1="94.5" y1="181.753" x2="94.5" y2="170" fill="none" stroke="#2ab2ff"/><path d="M112.892,168.42c0,.795-.575,1.616-1.725,2.266-1.135.641-2.737,1.054-4.533,1.054s-3.397-.413-4.532-1.054c-1.15-.65-1.726-1.471-1.726-2.266s.576-1.615,1.726-2.265c1.135-.642,2.736-1.054,4.532-1.054s3.398.412,4.533,1.054c1.15.65,1.725,1.47,1.725,2.265Z" fill="#fff" stroke="#2ab2ff"/><path d="M118.769,169.201c0,1.759-1.24,3.448-3.451,4.724-2.197,1.269-5.267,2.069-8.684,2.069s-6.486-.8-8.6835-2.069c-2.2108-1.276-3.4505-2.965-3.4505-4.724c0-1.76,1.2397-3.449,3.4505-4.725c2.1975-1.269,5.2665-2.069,8.6835-2.069s6.487.8,8.684,2.069c2.211,1.276,3.451,2.965,3.451,4.725Z" fill="#fff" stroke="#2ab2ff"/><path d="M94,158h25v11h-25v-11Z" fill="#fff"/><path d="M118.769,157.294c0,1.76-1.24,3.448-3.451,4.724-2.197,1.269-5.267,2.07-8.684,2.07s-6.486-.801-8.6835-2.07c-2.2108-1.276-3.4505-2.964-3.4505-4.724s1.2397-3.448,3.4505-4.725c2.1975-1.268,5.2665-2.069,8.6835-2.069s6.487.801,8.684,2.069c2.211,1.277,3.451,2.965,3.451,4.725Z" fill="#fff" stroke="#2ab2ff"/><line x1="118.769" y1="169.392" x2="118.769" y2="157.639" fill="none" stroke="#2ab2ff"/><path d="M94.5,171.5v-14.5" fill="none" stroke="#2ab2ff"/><path d="M118.769,157.201c0,1.759-1.24,3.448-3.451,4.724-2.197,1.269-5.267,2.069-8.684,2.069s-6.486-.8-8.6835-2.069c-2.2108-1.276-3.4505-2.965-3.4505-4.724c0-1.76,1.2397-3.449,3.4505-4.725c2.1975-1.269,5.2665-2.069,8.6835-2.069s6.487.8,8.684,2.069c2.211,1.276,3.451,2.965,3.451,4.725Z" fill="#fff" stroke="#2ab2ff"/><path d="M94,146h25v11h-25v-11Z" fill="#fff"/><path d="M118.769,145.294c0,1.76-1.24,3.448-3.451,4.724-2.197,1.269-5.267,2.07-8.684,2.07s-6.486-.801-8.6835-2.07c-2.2108-1.276-3.4505-2.964-3.4505-4.724s1.2397-3.448,3.4505-4.725c2.1975-1.268,5.2665-2.069,8.6835-2.069s6.487.801,8.684,2.069c2.211,1.277,3.451,2.965,3.451,4.725Z" fill="#fff" stroke="#2ab2ff"/><line x1="118.769" y1="157.392" x2="118.769" y2="145.639" fill="none" stroke="#2ab2ff"/><path d="M94.5,159.5v-14.5" fill="none" stroke="#2ab2ff"/><path d="M118.769,145.201c0,1.759-1.24,3.448-3.451,4.724-2.197,1.269-5.267,2.069-8.684,2.069s-6.486-.8-8.6835-2.069c-2.2108-1.276-3.4505-2.965-3.4505-4.724c0-1.76,1.2397-3.449,3.4505-4.725c2.1975-1.269,5.2665-2.069,8.6835-2.069s6.487.8,8.684,2.069c2.211,1.276,3.451,2.965,3.451,4.725Z" fill="#fff" stroke="#2ab2ff"/><path d="M94,134h25v11h-25v-11Z" fill="#fff"/><path d="M118.769,133.294c0,1.76-1.24,3.448-3.451,4.724-2.197,1.269-5.267,2.07-8.684,2.07s-6.486-.801-8.6835-2.07c-2.2108-1.276-3.4505-2.964-3.4505-4.724s1.2397-3.448,3.4505-4.725c2.1975-1.268,5.2665-2.069,8.6835-2.069s6.487.801,8.684,2.069c2.211,1.277,3.451,2.965,3.451,4.725Z" fill="#fff" stroke="#2ab2ff"/><line x1="118.769" y1="145.392" x2="118.769" y2="133.639" fill="none" stroke="#2ab2ff"/><path d="M94.5,147.5v-14.5" fill="none" stroke="#2ab2ff"/><path d="M73,109h1.4663c.6416,0,1.1204.127,1.4362.382s.4737.632.4737,1.133-.1579.878-.4737,1.133-.7946.382-1.4362.382h-1.4663v-3.03Zm1.4362,2.713c.4211,0,.7369-.084.9474-.252.2156-.168.3234-.405.3234-.712v-.468c0-.307-.1078-.544-.3234-.712-.2105-.168-.5263-.252-.9474-.252h-.8046v2.396h.8046Z" fill="#2ab2ff"/><path d="M80.4112,112.03l-.4436-.864h-1.8423l-.4436.864h-.6542L78.6366,109h.8347l1.6091,3.03h-.6692Zm-1.3309-2.644h-.0677l-.7369,1.463h1.5415l-.7369-1.463Z" fill="#2ab2ff"/><path d="M83.8747,109.317v2.713h-.6316v-2.713h-1.752v-.317h4.1357v.317h-1.7521Z" fill="#2ab2ff"/><path d="M89.4287,112.03l-.4437-.864h-1.8422l-.4437.864h-.6542L87.6541,109h.8346l1.6092,3.03h-.6692Zm-1.331-2.644h-.0676l-.7369,1.463h1.5414l-.7369-1.463Z" fill="#2ab2ff"/><path d="M136,74h1.466c.642,0,1.121.1273,1.436.382.316.2547.474.6323.474,1.133s-.158.8783-.474,1.133c-.315.2547-.794.382-1.436.382h-1.466v-3.03Zm1.436,2.7131c.421,0,.737-.0839.948-.2518.215-.1678.323-.4051.323-.7119v-.4688c0-.3068-.108-.5441-.323-.7119-.211-.1679-.527-.2518-.948-.2518h-.804v2.3962h.804Z" fill="#2ab2ff"/><path d="M143.411,77.03l-.443-.8639h-1.843l-.443.8639h-.655l1.61-3.03h.834l1.609,3.03h-.669Zm-1.331-2.6437h-.067l-.737,1.463h1.541l-.737-1.463Z" fill="#2ab2ff"/><path d="M146.875,74.3169v2.7131h-.632v-2.7131h-1.752v-.3169h4.136v.3169h-1.752Z" fill="#2ab2ff"/><path d="M152.429,77.03l-.444-.8639h-1.842l-.444.8639h-.654L150.654,74h.835l1.609,3.03h-.669Zm-1.331-2.6437h-.068l-.737,1.463h1.542l-.737-1.463Z" fill="#2ab2ff"/><path d="M136,146h1.466c.642,0,1.121.127,1.436.382.316.255.474.632.474,1.133s-.158.878-.474,1.133c-.315.255-.794.382-1.436.382h-1.466v-3.03Zm1.436,2.713c.421,0,.737-.084.948-.252.215-.168.323-.405.323-.712v-.468c0-.307-.108-.544-.323-.712-.211-.168-.527-.252-.948-.252h-.804v2.396h.804Z" fill="#2ab2ff"/><path d="M143.411,149.03l-.443-.864h-1.843l-.443.864h-.655l1.61-3.03h.834l1.609,3.03h-.669Zm-1.331-2.644h-.067l-.737,1.463h1.541l-.737-1.463Z" fill="#2ab2ff"/><path d="M146.875,146.317v2.713h-.632v-2.713h-1.752v-.317h4.136v.317h-1.752Z" fill="#2ab2ff"/><path d="M152.429,149.03l-.444-.864h-1.842l-.444.864h-.654l1.609-3.03h.835l1.609,3.03h-.669Zm-1.331-2.644h-.068l-.737,1.463h1.542l-.737-1.463Z" fill="#2ab2ff"/><path d="M199,109h1.466c.642,0,1.121.127,1.436.382.316.255.474.632.474,1.133s-.158.878-.474,1.133c-.315.255-.794.382-1.436.382h-1.466v-3.03Zm1.436,2.713c.421,0,.737-.084.948-.252.215-.168.323-.405.323-.712v-.468c0-.307-.108-.544-.323-.712-.211-.168-.527-.252-.948-.252h-.804v2.396h.804Z" fill="#2ab2ff"/><path d="M206.411,112.03l-.443-.864h-1.843l-.443.864h-.655l1.61-3.03h.834l1.609,3.03h-.669Zm-1.331-2.644h-.067l-.737,1.463h1.541l-.737-1.463Z" fill="#2ab2ff"/><path d="M209.875,109.317v2.713h-.632v-2.713h-1.752v-.317h4.136v.317h-1.752Z" fill="#2ab2ff"/><path d="M215.429,112.03l-.444-.864h-1.842l-.444.864h-.654l1.609-3.03h.835l1.609,3.03h-.669Zm-1.331-2.644h-.068l-.737,1.463h1.542l-.737-1.463Z" fill="#2ab2ff"/><path d="M147.693,106v7.988h-5.827v-7.988-.5h-.5-.866v-6.6024c0-1.3807,1.119-2.5,2.5-2.5h3.559c1.381,0,2.5,1.1193,2.5,2.5v6.6024h-.866-.5v.5Z" fill="#ff2a50" stroke="#ffe100"/><path d="M144.75,105v8.795" fill="none" stroke="#ffe100"/><line x1="142.25" y1="99" x2="142.25" y2="114" fill="none" stroke="#ffe100" stroke-width="0.5"/><line x1="147.25" y1="99" x2="147.25" y2="114" fill="none" stroke="#ffe100" stroke-width="0.5"/><ellipse rx="2.04833" ry="1.94881" transform="translate(144.779 94.4488)" fill="#ff2a50" stroke="#ffe100"/></g></svg>