<svg width="338" height="563" viewBox="0 0 338 563" fill="none" xmlns="http://www.w3.org/2000/svg">
<g clip-path="url(#clip0_1861_609)">
<path d="M169.248 234.093L39.9725 308.172L39.9725 351.748L169.248 277.669L169.248 234.093Z" fill="#FF2A50"/>
<g opacity="0.4">
<path d="M169.248 308.172L298.524 382.252L298.524 425.828L169.248 351.748L169.248 308.172Z" fill="#FF2A50"/>
</g>
<path d="M298.202 382.252L168.926 456.331L168.926 499.907L298.202 425.828L298.202 382.252Z" fill="#FF2A50"/>
<path d="M298.202 308.172L168.926 382.252L168.926 425.828L298.202 351.748L298.202 308.172Z" fill="#FF2A50"/>
<path d="M169.248 308.172L39.9725 382.252L39.9725 425.828L169.248 351.748L169.248 308.172Z" fill="#FF2A50"/>
<g opacity="0.4">
<path d="M39.9723 382.252L169.248 456.331L169.248 499.907L39.9723 425.828L39.9723 382.252Z" fill="#FF2A50"/>
</g>
<g opacity="0.4">
<path d="M39.9723 308.172L169.248 382.252L169.248 425.828L39.9723 351.748L39.9723 308.172Z" fill="#FF2A50"/>
</g>
<g opacity="0.4">
<path d="M169.248 234.093L298.524 308.172L298.524 351.748L169.248 277.669L169.248 234.093Z" fill="#FF2A50"/>
</g>
<text fill="black" xml:space="preserve" style="white-space: pre" font-family="monospace" font-size="10" letter-spacing="0em"><tspan x="151.012" y="547.25">PEOPLE</tspan></text>
<text fill="black" xml:space="preserve" style="white-space: pre" font-family="monospace" font-size="10" letter-spacing="0em"><tspan x="40.0117" y="547.25">SKILLS</tspan></text>
<text fill="black" xml:space="preserve" style="white-space: pre" font-family="monospace" font-size="10" letter-spacing="0em"><tspan x="279.016" y="547.25">TECH</tspan></text>
<path d="M40.25 160L40.25 426" stroke="black" stroke-width="0.5" stroke-dasharray="2 2"/>
<line x1="298.25" y1="160" x2="298.25" y2="425" stroke="black" stroke-width="0.5" stroke-dasharray="2 2"/>
<line x1="169.25" y1="234" x2="169.25" y2="496" stroke="black" stroke-width="0.5" stroke-dasharray="2 2"/>
<rect y="0.499967" width="148.212" height="148.212" transform="matrix(0.866044 0.499967 -0.866044 0.499967 169.657 277.675)" stroke="black"/>
<rect y="0.499967" width="148.212" height="148.212" transform="matrix(0.866044 0.499967 -0.866044 0.499967 169.657 202.462)" stroke="black"/>
<rect y="0.499967" width="148.212" height="148.212" transform="matrix(0.866044 0.499967 -0.866044 0.499967 169.657 255.675)" stroke="black" stroke-dasharray="2 2"/>
<rect y="0.499967" width="148.212" height="148.212" transform="matrix(0.866044 0.499967 -0.866044 0.499967 169.657 180.462)" stroke="black" stroke-dasharray="2 2"/>
<rect y="0.499967" width="148.212" height="148.212" transform="matrix(0.866044 0.499967 -0.866044 0.499967 169.657 331.871)" stroke="black" stroke-dasharray="2 2"/>
<rect y="0.499967" width="148.212" height="148.212" transform="matrix(0.866044 0.499967 -0.866044 0.499967 169.657 351.25)" stroke="black"/>
<rect y="0.499967" width="148.212" height="148.212" transform="matrix(0.866044 0.499967 -0.866044 0.499967 169.657 307.777)" stroke="black"/>
<rect y="0.499967" width="148.212" height="148.212" transform="matrix(0.866044 0.499967 -0.866044 0.499967 169.657 233.463)" stroke="black"/>
<rect y="0.499967" width="148.212" height="148.212" transform="matrix(0.866044 0.499967 -0.866044 0.499967 169.657 158.25)" stroke="black"/>
<rect y="0.499967" width="148.212" height="148.212" transform="matrix(0.866044 0.499967 -0.866044 0.499967 169.657 127.462)" stroke="black"/>
<rect y="0.499967" width="148.212" height="148.212" transform="matrix(0.866044 0.499967 -0.866044 0.499967 169.657 105.462)" stroke="black" stroke-dasharray="2 2"/>
<rect y="0.499967" width="148.212" height="148.212" transform="matrix(0.866044 0.499967 -0.866044 0.499967 169.657 85.25)" fill="black" stroke="black"/>
<path d="M140.845 126.844L140.845 53.1429L193.916 61.3328L193.916 134.901L174.411 146.162L147.909 142.062L140.845 126.844Z" fill="white" stroke="black"/>
<path d="M140.95 52.7937L160.351 41.5937L186.852 45.6932L193.811 60.6864L174.411 71.8863L147.909 67.7869L140.95 52.7937Z" fill="#E5E5E5" stroke="black"/>
<path d="M194.453 71.9278L174.635 83.3689L147.562 79.1811L140.308 63.5523" stroke="black" stroke-dasharray="2 2"/>
<path d="M194.453 84.6288L174.635 96.0699L147.562 91.8822L140.308 76.2534" stroke="black" stroke-dasharray="2 2"/>
<path d="M194.453 97.6288L174.635 109.07L147.562 104.882L140.308 89.2534" stroke="black" stroke-dasharray="2 2"/>
<path d="M174.544 146.121L174.544 72.2167" stroke="black"/>
<path d="M147.817 131.154L147.817 67.0095" stroke="black"/>
<path d="M174.152 95.9623L174.152 147.079L126.124 174.806L108.5 136.834L108.5 86.0638L174.152 95.9623Z" fill="#E5E5E5" stroke="black"/>
<path d="M126.239 173.834L126.239 123.418" stroke="black"/>
<path d="M126.124 123.342L108.754 85.9173L173.581 95.9453L126.124 123.342Z" fill="#E5E5E5" stroke="black"/>
<path d="M126.124 123.342L108.754 85.9173L173.581 95.9453L126.124 123.342Z" fill="white" stroke="black"/>
<path d="M237.319 144.648C237.319 148.155 234.853 151.425 230.659 153.846C226.478 156.26 220.67 157.768 214.227 157.768C207.783 157.768 201.975 156.26 197.794 153.846C193.6 151.425 191.134 148.155 191.134 144.648C191.134 141.142 193.6 137.872 197.794 135.451C201.975 133.037 207.783 131.528 214.227 131.528C220.67 131.528 226.478 133.037 230.659 135.451C234.853 137.872 237.319 141.142 237.319 144.648Z" fill="white" stroke="black"/>
<path d="M186.66 90.0236H233.793V145.115H186.66V90.0236Z" fill="white"/>
<path d="M233.319 91.0439C233.319 94.5507 230.853 97.8206 226.659 100.242C222.478 102.655 216.67 104.164 210.227 104.164C203.783 104.164 197.975 102.655 193.794 100.242C189.6 97.8206 187.134 94.5507 187.134 91.0439C187.134 87.5371 189.6 84.2673 193.794 81.8462C197.975 79.4327 203.783 77.924 210.227 77.924C216.67 77.924 222.478 79.4327 226.659 81.8462C230.853 84.2673 233.319 87.5371 233.319 91.0439Z" fill="#E5E5E5" stroke="black"/>
<path d="M233 106C233 112.075 222.703 117 210 117C197.297 117 187 112.075 187 106" stroke="black" stroke-dasharray="2 2"/>
<line x1="233.5" y1="144.454" x2="233.5" y2="91" stroke="black"/>
<line x1="187.149" y1="144.776" x2="187.149" y2="91.322" stroke="black"/>
<path d="M265.843 156.09C265.843 159.597 263.376 162.867 259.182 165.288C255.002 167.702 249.193 169.21 242.75 169.21C236.307 169.21 230.498 167.702 226.318 165.288C222.124 162.867 219.658 159.597 219.658 156.09C219.658 152.584 222.124 149.314 226.318 146.893C230.498 144.479 236.307 142.97 242.75 142.97C249.193 142.97 255.002 144.479 259.182 146.893C263.376 149.314 265.843 152.584 265.843 156.09Z" fill="white" stroke="black"/>
<rect x="219.183" y="133.538" width="47.1337" height="23.0188" fill="white"/>
<path d="M265.685 134.558C265.685 138.065 263.219 141.335 259.025 143.756C254.844 146.17 249.036 147.678 242.593 147.678C236.149 147.678 230.341 146.17 226.16 143.756C221.966 141.335 219.5 138.065 219.5 134.558C219.5 131.052 221.966 127.782 226.16 125.361C230.341 122.947 236.149 121.438 242.593 121.438C249.036 121.438 254.844 122.947 259.025 125.361C263.219 127.782 265.685 131.052 265.685 134.558Z" fill="#E5E5E5" stroke="black"/>
<line x1="265.817" y1="156.557" x2="265.817" y2="133.538" stroke="black"/>
<line x1="219.779" y1="156.557" x2="219.779" y2="133.538" stroke="black"/>
<path d="M266 146C266 152.627 255.703 158 243 158C230.297 158 220 152.627 220 146" stroke="black" stroke-dasharray="2 2"/>
<path d="M255.011 130.989C255.433 131.604 255.729 132.256 255.882 132.936L255.394 133.045C255.464 133.358 255.5 133.677 255.5 134C255.5 134.323 255.464 134.642 255.394 134.955L255.882 135.064C255.729 135.744 255.433 136.396 255.011 137.011L254.599 136.728C254.244 137.246 253.788 137.741 253.241 138.204L253.564 138.585C253.044 139.025 252.453 139.431 251.799 139.8L251.553 139.364C250.978 139.688 250.35 139.983 249.677 140.242L249.857 140.709C249.211 140.958 248.528 141.175 247.812 141.357L247.689 140.872C247.032 141.039 246.346 141.175 245.637 141.278L245.709 141.773C245.016 141.873 244.303 141.941 243.573 141.975L243.55 141.476C243.204 141.492 242.854 141.5 242.5 141.5C242.146 141.5 241.796 141.492 241.45 141.476L241.427 141.975C240.697 141.941 239.984 141.873 239.291 141.773L239.363 141.278C238.654 141.175 237.968 141.039 237.311 140.872L237.188 141.357C236.472 141.175 235.789 140.958 235.143 140.709L235.323 140.242C234.65 139.983 234.022 139.688 233.447 139.364L233.201 139.8C232.547 139.431 231.956 139.025 231.436 138.585L231.759 138.204C231.212 137.741 230.756 137.246 230.401 136.728L229.989 137.011C229.567 136.396 229.271 135.744 229.118 135.064L229.606 134.955C229.536 134.642 229.5 134.323 229.5 134C229.5 133.677 229.536 133.358 229.606 133.045L229.118 132.936C229.271 132.256 229.567 131.604 229.989 130.989L230.401 131.272C230.756 130.754 231.212 130.259 231.759 129.796L231.436 129.415C231.956 128.975 232.547 128.569 233.201 128.2L233.447 128.636C234.022 128.312 234.65 128.017 235.323 127.758L235.143 127.291C235.789 127.042 236.472 126.825 237.188 126.643L237.311 127.128C237.968 126.961 238.654 126.825 239.363 126.722L239.291 126.227C239.984 126.127 240.697 126.059 241.427 126.025L241.45 126.524C241.796 126.508 242.146 126.5 242.5 126.5C242.854 126.5 243.204 126.508 243.55 126.524L243.573 126.025C244.303 126.059 245.016 126.127 245.709 126.227L245.637 126.722C246.346 126.825 247.032 126.961 247.689 127.128L247.812 126.643C248.528 126.825 249.211 127.042 249.857 127.291L249.677 127.758C250.35 128.017 250.978 128.312 251.553 128.636L251.799 128.2C252.453 128.569 253.044 128.975 253.564 129.415L253.241 129.796C253.788 130.259 254.244 130.754 254.599 131.272L255.011 130.989Z" fill="#E5E5E5" stroke="black" stroke-dasharray="2 2"/>
<path d="M112.5 156.828C112.5 160.001 110.268 162.969 106.453 165.171C102.651 167.366 97.3653 168.74 91.5 168.74C85.6347 168.74 80.3491 167.366 76.5472 165.171C72.732 162.969 70.5 160.001 70.5 156.828C70.5 153.655 72.732 150.687 76.5472 148.484C80.3491 146.289 85.6347 144.916 91.5 144.916C97.3653 144.916 102.651 146.289 106.453 148.484C110.268 150.687 112.5 153.655 112.5 156.828Z" fill="#E5E5E5" stroke="black"/>
<path d="M70.0234 122.636H112.977V157.253H70.0234V122.636Z" fill="#E5E5E5"/>
<path d="M112.5 123.566C112.5 126.739 110.268 129.707 106.453 131.909C102.651 134.104 97.3653 135.478 91.5 135.478C85.6347 135.478 80.3491 134.104 76.5472 131.909C72.732 129.707 70.5 126.739 70.5 123.566C70.5 120.393 72.732 117.425 76.5472 115.222C80.3491 113.027 85.6347 111.654 91.5 111.654C97.3653 111.654 102.651 113.027 106.453 115.222C110.268 117.425 112.5 120.393 112.5 123.566Z" fill="white" stroke="black"/>
<line x1="112.5" y1="157.3" x2="112.5" y2="124" stroke="black"/>
<line x1="70.5" y1="158" x2="70.5" y2="124" stroke="black"/>
<path d="M112 136C112 141.523 102.822 146 91.5 146C80.1782 146 71 141.523 71 136" stroke="black" stroke-dasharray="2 2"/>
<path d="M112 150.1C112 155.568 102.822 160 91.5 160C80.1782 160 71 154.468 71 149" stroke="black" stroke-dasharray="2 2"/>
<path d="M102.115 119.996C102.491 120.503 102.756 121.044 102.893 121.608L102.407 121.726C102.468 121.98 102.5 122.238 102.5 122.5C102.5 122.762 102.468 123.02 102.407 123.274L102.893 123.392C102.756 123.956 102.491 124.497 102.115 125.004L101.713 124.707C101.408 125.121 101.016 125.518 100.544 125.89L100.854 126.282C100.407 126.634 99.8998 126.96 99.3403 127.255L99.1072 126.813C98.6205 127.069 98.0901 127.303 97.5219 127.508L97.692 127.978C97.146 128.176 96.5686 128.348 95.965 128.492L95.849 128.006C95.2974 128.137 94.7223 128.244 94.1279 128.325L94.1952 128.821C93.6132 128.899 93.0141 128.953 92.4014 128.98L92.3795 128.481C92.0894 128.494 91.7961 128.5 91.5 128.5C91.2039 128.5 90.9106 128.494 90.6205 128.481L90.5986 128.98C89.9859 128.953 89.3868 128.899 88.8048 128.821L88.8721 128.325C88.2777 128.244 87.7026 128.137 87.151 128.006L87.035 128.492C86.4314 128.348 85.854 128.176 85.308 127.978L85.4782 127.508C84.9099 127.303 84.3795 127.069 83.8928 126.813L83.6597 127.255C83.1002 126.96 82.5928 126.634 82.1461 126.282L82.4558 125.89C81.9844 125.518 81.5925 125.121 81.2867 124.707L80.8847 125.004C80.5091 124.497 80.2444 123.956 80.1075 123.392L80.5933 123.274C80.5317 123.02 80.5 122.762 80.5 122.5C80.5 122.238 80.5317 121.98 80.5933 121.726L80.1075 121.608C80.2444 121.044 80.5091 120.503 80.8847 119.996L81.2867 120.293C81.5925 119.879 81.9844 119.482 82.4558 119.11L82.1461 118.718C82.5928 118.366 83.1002 118.04 83.6597 117.745L83.8928 118.187C84.3795 117.931 84.9099 117.697 85.4781 117.492L85.308 117.022C85.854 116.824 86.4314 116.652 87.035 116.508L87.151 116.994C87.7026 116.863 88.2777 116.756 88.8721 116.675L88.8048 116.179C89.3868 116.101 89.9859 116.047 90.5986 116.02L90.6205 116.519C90.9106 116.506 91.2039 116.5 91.5 116.5C91.7961 116.5 92.0894 116.506 92.3795 116.519L92.4014 116.02C93.0141 116.047 93.6132 116.101 94.1952 116.179L94.1279 116.675C94.7223 116.756 95.2974 116.863 95.849 116.994L95.965 116.508C96.5686 116.652 97.146 116.824 97.692 117.022L97.5218 117.492C98.0901 117.697 98.6205 117.931 99.1072 118.187L99.3403 117.745C99.8998 118.04 100.407 118.366 100.854 118.718L100.544 119.11C101.016 119.482 101.408 119.879 101.713 120.293L102.115 119.996Z" fill="#E5E5E5" stroke="black" stroke-dasharray="2 2"/>
<path d="M134.616 146.297L134.616 179.363L119.307 188.201L113.658 176.031L113.658 143.137L134.616 146.297Z" fill="#E5E5E5" stroke="black"/>
<path d="M119.306 154.814L113.912 143.191L134.045 146.305L119.306 154.814Z" fill="white" stroke="black"/>
<path d="M119.403 188.403L119.403 154.579" stroke="black"/>
<path d="M186.047 124.474L186.12 124.479L186.194 124.474L220.73 122.067L220.73 160.104L186.12 180.084L151.511 160.104L151.511 122.067L186.047 124.474Z" fill="#E5E5E5" stroke="black"/>
<rect y="0.499967" width="39.6697" height="39.6697" transform="matrix(0.866044 0.499967 -0.866044 0.499967 186.553 101.584)" fill="#D9D9D9" stroke="black"/>
<path d="M186.12 101.834L220.476 121.668L186.12 141.502L151.765 121.668L186.12 101.834Z" fill="white" stroke="black"/>
<line x1="186.013" y1="140.706" x2="186.013" y2="179.583" stroke="black"/>
<line x1="167.488" y1="130.537" x2="167.488" y2="170.447" stroke="black" stroke-dasharray="2 2"/>
<line x1="204.478" y1="130.537" x2="204.478" y2="170.447" stroke="black" stroke-dasharray="2 2"/>
<path d="M168.935 111.069L203.292 130.904" stroke="black" stroke-linejoin="round" stroke-dasharray="2 2"/>
<path d="M151.413 141.271L185.771 161.106" stroke="black" stroke-linejoin="round" stroke-dasharray="2 2"/>
<path d="M202.318 111.069L167.962 130.905" stroke="black" stroke-linejoin="round" stroke-dasharray="2 2"/>
<path d="M220.813 141.245L186.457 161.081" stroke="black" stroke-linejoin="round" stroke-dasharray="2 2"/>
<path d="M167.252 162.67L167.325 162.675L167.399 162.67L186.133 161.364L186.133 182.092L167.325 192.949L148.518 182.092L148.518 161.364L167.252 162.67Z" fill="#E5E5E5" stroke="black"/>
<rect y="0.499967" width="21.4235" height="21.4235" transform="matrix(0.866044 0.499967 -0.866044 0.499967 167.758 150.005)" fill="#D9D9D9" stroke="black"/>
<path d="M167.325 150.255L185.879 160.966L167.325 171.677L148.772 160.966L167.325 150.255Z" fill="white" stroke="black"/>
<line x1="167.491" y1="171.462" x2="167.491" y2="192.898" stroke="black"/>
<line x1="157.277" y1="165.856" x2="157.277" y2="187.861" stroke="black" stroke-dasharray="2 2"/>
<line x1="177.671" y1="165.856" x2="177.671" y2="187.861" stroke="black" stroke-dasharray="2 2"/>
<path d="M157.85 155.122L176.793 166.058" stroke="black" stroke-linejoin="round" stroke-dasharray="2 2"/>
<path d="M148.189 171.223L167.133 182.159" stroke="black" stroke-linejoin="round" stroke-dasharray="2 2"/>
<path d="M176.256 155.122L157.313 166.058" stroke="black" stroke-linejoin="round" stroke-dasharray="2 2"/>
<path d="M186.453 171.759L167.511 182.696" stroke="black" stroke-linejoin="round" stroke-dasharray="2 2"/>
<path d="M204.215 162.67L204.288 162.675L204.362 162.67L223.096 161.364L223.096 182.092L204.288 192.949L185.481 182.092L185.481 161.364L204.215 162.67Z" fill="#E5E5E5" stroke="black"/>
<rect y="0.499967" width="21.4235" height="21.4235" transform="matrix(0.866044 0.499967 -0.866044 0.499967 204.721 150.005)" fill="#D9D9D9" stroke="black"/>
<path d="M204.288 150.255L222.842 160.966L204.288 171.677L185.735 160.966L204.288 150.255Z" fill="white" stroke="black"/>
<line x1="204.453" y1="171.462" x2="204.453" y2="192.898" stroke="black"/>
<line x1="194.24" y1="165.856" x2="194.24" y2="187.861" stroke="black" stroke-dasharray="2 2"/>
<line x1="214.634" y1="165.856" x2="214.634" y2="187.861" stroke="black" stroke-dasharray="2 2"/>
<path d="M194.813 155.122L213.756 166.058" stroke="black" stroke-linejoin="round" stroke-dasharray="2 2"/>
<path d="M185.152 171.223L204.095 182.159" stroke="black" stroke-linejoin="round" stroke-dasharray="2 2"/>
<path d="M213.219 155.122L194.276 166.058" stroke="black" stroke-linejoin="round" stroke-dasharray="2 2"/>
<path d="M223.416 171.759L204.474 182.696" stroke="black" stroke-linejoin="round" stroke-dasharray="2 2"/>
<path d="M185.733 173.542L185.807 173.547L185.88 173.542L204.614 172.236L204.614 192.963L185.807 203.821L166.999 192.963L166.999 172.236L185.733 173.542Z" fill="#E5E5E5" stroke="black"/>
<rect y="0.499967" width="21.4235" height="21.4235" transform="matrix(0.866044 0.499967 -0.866044 0.499967 186.24 160.876)" fill="#D9D9D9" stroke="black"/>
<path d="M185.807 161.126L204.361 171.837L185.807 182.548L167.253 171.837L185.807 161.126Z" fill="white" stroke="black"/>
<line x1="185.972" y1="182.334" x2="185.972" y2="203.769" stroke="black"/>
<line x1="175.758" y1="176.727" x2="175.758" y2="198.732" stroke="black" stroke-dasharray="2 2"/>
<line x1="196.153" y1="176.727" x2="196.153" y2="198.732" stroke="black" stroke-dasharray="2 2"/>
<path d="M176.331 165.993L195.275 176.929" stroke="black" stroke-linejoin="round" stroke-dasharray="2 2"/>
<path d="M166.671 182.094L185.614 193.03" stroke="black" stroke-linejoin="round" stroke-dasharray="2 2"/>
<path d="M194.738 165.993L175.795 176.93" stroke="black" stroke-linejoin="round" stroke-dasharray="2 2"/>
<path d="M204.935 182.631L185.992 193.568" stroke="black" stroke-linejoin="round" stroke-dasharray="2 2"/>
<path d="M148.77 173.542L148.844 173.547L148.917 173.542L167.651 172.236L167.651 192.963L148.844 203.821L130.037 192.963L130.037 172.236L148.77 173.542Z" fill="#E5E5E5" stroke="black"/>
<rect y="0.499967" width="21.4235" height="21.4235" transform="matrix(0.866044 0.499967 -0.866044 0.499967 149.277 160.876)" fill="#D9D9D9" stroke="black"/>
<path d="M148.844 161.126L167.398 171.837L148.844 182.548L130.29 171.837L148.844 161.126Z" fill="white" stroke="black"/>
<line x1="149.009" y1="182.334" x2="149.009" y2="203.769" stroke="black"/>
<line x1="138.795" y1="176.727" x2="138.795" y2="198.732" stroke="black" stroke-dasharray="2 2"/>
<line x1="159.19" y1="176.727" x2="159.19" y2="198.732" stroke="black" stroke-dasharray="2 2"/>
<path d="M139.368 165.993L158.312 176.929" stroke="black" stroke-linejoin="round" stroke-dasharray="2 2"/>
<path d="M129.708 182.094L148.651 193.03" stroke="black" stroke-linejoin="round" stroke-dasharray="2 2"/>
<path d="M157.775 165.993L138.832 176.93" stroke="black" stroke-linejoin="round" stroke-dasharray="2 2"/>
<path d="M167.972 182.631L149.029 193.568" stroke="black" stroke-linejoin="round" stroke-dasharray="2 2"/>
<path d="M167.252 184.413L167.325 184.418L167.399 184.413L186.133 183.107L186.133 203.835L167.325 214.692L148.518 203.835L148.518 183.107L167.252 184.413Z" fill="#E5E5E5" stroke="black"/>
<rect y="0.499967" width="21.4235" height="21.4235" transform="matrix(0.866044 0.499967 -0.866044 0.499967 167.758 171.748)" fill="#D9D9D9" stroke="black"/>
<path d="M167.325 171.997L185.879 182.709L167.325 193.42L148.772 182.709L167.325 171.997Z" fill="white" stroke="black"/>
<line x1="167.491" y1="193.205" x2="167.491" y2="214.64" stroke="black"/>
<line x1="157.277" y1="187.599" x2="157.277" y2="209.604" stroke="black" stroke-dasharray="2 2"/>
<line x1="177.671" y1="187.599" x2="177.671" y2="209.604" stroke="black" stroke-dasharray="2 2"/>
<path d="M157.85 176.865L176.793 187.801" stroke="black" stroke-linejoin="round" stroke-dasharray="2 2"/>
<path d="M148.189 192.966L167.133 203.902" stroke="black" stroke-linejoin="round" stroke-dasharray="2 2"/>
<path d="M176.256 176.865L157.313 187.801" stroke="black" stroke-linejoin="round" stroke-dasharray="2 2"/>
<path d="M186.453 193.502L167.511 204.439" stroke="black" stroke-linejoin="round" stroke-dasharray="2 2"/>
<path d="M196.5 485V490.5H192.5V485V484.793L192.354 484.646L191.5 483.793V481C191.5 480.172 192.172 479.5 193 479.5H196C196.828 479.5 197.5 480.172 197.5 481V483.793L196.646 484.646L196.5 484.793V485Z" fill="white" stroke="black"/>
<circle cx="194.5" cy="477.5" r="1.5" fill="white" stroke="black"/>
<line x1="194.5" y1="485" x2="194.5" y2="491" stroke="black"/>
<path d="M201.5 488V493.5H197.5V488V487.793L197.354 487.646L196.5 486.793V484C196.5 483.172 197.172 482.5 198 482.5H201C201.828 482.5 202.5 483.172 202.5 484V486.793L201.646 487.646L201.5 487.793V488Z" fill="white" stroke="black"/>
<circle cx="199.5" cy="480.5" r="1.5" fill="white" stroke="black"/>
<line x1="199.5" y1="488" x2="199.5" y2="494" stroke="black"/>
<path d="M191.5 488V493.5H187.5V488V487.793L187.354 487.646L186.5 486.793V484C186.5 483.172 187.172 482.5 188 482.5H191C191.828 482.5 192.5 483.172 192.5 484V486.793L191.646 487.646L191.5 487.793V488Z" fill="white" stroke="black"/>
<circle cx="189.5" cy="480.5" r="1.5" fill="white" stroke="black"/>
<line x1="189.5" y1="488" x2="189.5" y2="494" stroke="black"/>
<path d="M186.5 491V496.5H182.5V491V490.793L182.354 490.646L181.5 489.793V487C181.5 486.172 182.172 485.5 183 485.5H186C186.828 485.5 187.5 486.172 187.5 487V489.793L186.646 490.646L186.5 490.793V491Z" fill="white" stroke="black"/>
<circle cx="184.5" cy="483.5" r="1.5" fill="white" stroke="black"/>
<line x1="184.5" y1="491" x2="184.5" y2="497" stroke="black"/>
<path d="M206.5 491V496.5H202.5V491V490.793L202.354 490.646L201.5 489.793V487C201.5 486.172 202.172 485.5 203 485.5H206C206.828 485.5 207.5 486.172 207.5 487V489.793L206.646 490.646L206.5 490.793V491Z" fill="white" stroke="black"/>
<circle cx="204.5" cy="483.5" r="1.5" fill="white" stroke="black"/>
<line x1="204.5" y1="491" x2="204.5" y2="497" stroke="black"/>
<path d="M196.5 491V496.5H192.5V491V490.793L192.354 490.646L191.5 489.793V487C191.5 486.172 192.172 485.5 193 485.5H196C196.828 485.5 197.5 486.172 197.5 487V489.793L196.646 490.646L196.5 490.793V491Z" fill="white" stroke="black"/>
<circle cx="194.5" cy="483.5" r="1.5" fill="white" stroke="black"/>
<line x1="194.5" y1="491" x2="194.5" y2="497" stroke="black"/>
<path d="M181.5 494V499.5H177.5V494V493.793L177.354 493.646L176.5 492.793V490C176.5 489.172 177.172 488.5 178 488.5H181C181.828 488.5 182.5 489.172 182.5 490V492.793L181.646 493.646L181.5 493.793V494Z" fill="white" stroke="black"/>
<circle cx="179.5" cy="486.5" r="1.5" fill="white" stroke="black"/>
<line x1="179.5" y1="494" x2="179.5" y2="500" stroke="black"/>
<path d="M191.5 494V499.5H187.5V494V493.793L187.354 493.646L186.5 492.793V490C186.5 489.172 187.172 488.5 188 488.5H191C191.828 488.5 192.5 489.172 192.5 490V492.793L191.646 493.646L191.5 493.793V494Z" fill="white" stroke="black"/>
<circle cx="189.5" cy="486.5" r="1.5" fill="white" stroke="black"/>
<line x1="189.5" y1="494" x2="189.5" y2="500" stroke="black"/>
<path d="M211.5 494V499.5H207.5V494V493.793L207.354 493.646L206.5 492.793V490C206.5 489.172 207.172 488.5 208 488.5H211C211.828 488.5 212.5 489.172 212.5 490V492.793L211.646 493.646L211.5 493.793V494Z" fill="white" stroke="black"/>
<circle cx="209.5" cy="486.5" r="1.5" fill="white" stroke="black"/>
<line x1="209.5" y1="494" x2="209.5" y2="500" stroke="black"/>
<path d="M201.5 494V499.5H197.5V494V493.793L197.354 493.646L196.5 492.793V490C196.5 489.172 197.172 488.5 198 488.5H201C201.828 488.5 202.5 489.172 202.5 490V492.793L201.646 493.646L201.5 493.793V494Z" fill="white" stroke="black"/>
<circle cx="199.5" cy="486.5" r="1.5" fill="white" stroke="black"/>
<line x1="199.5" y1="494" x2="199.5" y2="500" stroke="black"/>
<path d="M186.5 497V502.5H182.5V497V496.793L182.354 496.646L181.5 495.793V493C181.5 492.172 182.172 491.5 183 491.5H186C186.828 491.5 187.5 492.172 187.5 493V495.793L186.646 496.646L186.5 496.793V497Z" fill="white" stroke="black"/>
<circle cx="184.5" cy="489.5" r="1.5" fill="white" stroke="black"/>
<line x1="184.5" y1="497" x2="184.5" y2="503" stroke="black"/>
<path d="M176.5 497V502.5H172.5V497V496.793L172.354 496.646L171.5 495.793V493C171.5 492.172 172.172 491.5 173 491.5H176C176.828 491.5 177.5 492.172 177.5 493V495.793L176.646 496.646L176.5 496.793V497Z" fill="white" stroke="black"/>
<circle cx="174.5" cy="489.5" r="1.5" fill="white" stroke="black"/>
<line x1="174.5" y1="497" x2="174.5" y2="503" stroke="black"/>
<path d="M206.5 497V502.5H202.5V497V496.793L202.354 496.646L201.5 495.793V493C201.5 492.172 202.172 491.5 203 491.5H206C206.828 491.5 207.5 492.172 207.5 493V495.793L206.646 496.646L206.5 496.793V497Z" fill="white" stroke="black"/>
<circle cx="204.5" cy="489.5" r="1.5" fill="white" stroke="black"/>
<line x1="204.5" y1="497" x2="204.5" y2="503" stroke="black"/>
<path d="M216.5 497V502.5H212.5V497V496.793L212.354 496.646L211.5 495.793V493C211.5 492.172 212.172 491.5 213 491.5H216C216.828 491.5 217.5 492.172 217.5 493V495.793L216.646 496.646L216.5 496.793V497Z" fill="white" stroke="black"/>
<circle cx="214.5" cy="489.5" r="1.5" fill="white" stroke="black"/>
<line x1="214.5" y1="497" x2="214.5" y2="503" stroke="black"/>
<path d="M196.5 497V502.5H192.5V497V496.793L192.354 496.646L191.5 495.793V493C191.5 492.172 192.172 491.5 193 491.5H196C196.828 491.5 197.5 492.172 197.5 493V495.793L196.646 496.646L196.5 496.793V497Z" fill="white" stroke="black"/>
<circle cx="194.5" cy="489.5" r="1.5" fill="white" stroke="black"/>
<line x1="194.5" y1="497" x2="194.5" y2="503" stroke="black"/>
<path d="M201.5 500V505.5H197.5V500V499.793L197.354 499.646L196.5 498.793V496C196.5 495.172 197.172 494.5 198 494.5H201C201.828 494.5 202.5 495.172 202.5 496V498.793L201.646 499.646L201.5 499.793V500Z" fill="white" stroke="black"/>
<circle cx="199.5" cy="492.5" r="1.5" fill="white" stroke="black"/>
<line x1="199.5" y1="500" x2="199.5" y2="506" stroke="black"/>
<path d="M211.5 500V505.5H207.5V500V499.793L207.354 499.646L206.5 498.793V496C206.5 495.172 207.172 494.5 208 494.5H211C211.828 494.5 212.5 495.172 212.5 496V498.793L211.646 499.646L211.5 499.793V500Z" fill="white" stroke="black"/>
<circle cx="209.5" cy="492.5" r="1.5" fill="white" stroke="black"/>
<line x1="209.5" y1="500" x2="209.5" y2="506" stroke="black"/>
<path d="M191.5 500V505.5H187.5V500V499.793L187.354 499.646L186.5 498.793V496C186.5 495.172 187.172 494.5 188 494.5H191C191.828 494.5 192.5 495.172 192.5 496V498.793L191.646 499.646L191.5 499.793V500Z" fill="white" stroke="black"/>
<circle cx="189.5" cy="492.5" r="1.5" fill="white" stroke="black"/>
<line x1="189.5" y1="500" x2="189.5" y2="506" stroke="black"/>
<path d="M181.5 500V505.5H177.5V500V499.793L177.354 499.646L176.5 498.793V496C176.5 495.172 177.172 494.5 178 494.5H181C181.828 494.5 182.5 495.172 182.5 496V498.793L181.646 499.646L181.5 499.793V500Z" fill="white" stroke="black"/>
<circle cx="179.5" cy="492.5" r="1.5" fill="white" stroke="black"/>
<line x1="179.5" y1="500" x2="179.5" y2="506" stroke="black"/>
<path d="M196.5 503V508.5H192.5V503V502.793L192.354 502.646L191.5 501.793V499C191.5 498.172 192.172 497.5 193 497.5H196C196.828 497.5 197.5 498.172 197.5 499V501.793L196.646 502.646L196.5 502.793V503Z" fill="white" stroke="black"/>
<circle cx="194.5" cy="495.5" r="1.5" fill="white" stroke="black"/>
<line x1="194.5" y1="503" x2="194.5" y2="509" stroke="black"/>
<path d="M206.5 503V508.5H202.5V503V502.793L202.354 502.646L201.5 501.793V499C201.5 498.172 202.172 497.5 203 497.5H206C206.828 497.5 207.5 498.172 207.5 499V501.793L206.646 502.646L206.5 502.793V503Z" fill="white" stroke="black"/>
<circle cx="204.5" cy="495.5" r="1.5" fill="white" stroke="black"/>
<line x1="204.5" y1="503" x2="204.5" y2="509" stroke="black"/>
<path d="M186.5 503V508.5H182.5V503V502.793L182.354 502.646L181.5 501.793V499C181.5 498.172 182.172 497.5 183 497.5H186C186.828 497.5 187.5 498.172 187.5 499V501.793L186.646 502.646L186.5 502.793V503Z" fill="white" stroke="black"/>
<circle cx="184.5" cy="495.5" r="1.5" fill="white" stroke="black"/>
<line x1="184.5" y1="503" x2="184.5" y2="509" stroke="black"/>
<path d="M191.5 506V511.5H187.5V506V505.793L187.354 505.646L186.5 504.793V502C186.5 501.172 187.172 500.5 188 500.5H191C191.828 500.5 192.5 501.172 192.5 502V504.793L191.646 505.646L191.5 505.793V506Z" fill="white" stroke="black"/>
<circle cx="189.5" cy="498.5" r="1.5" fill="white" stroke="black"/>
<line x1="189.5" y1="506" x2="189.5" y2="512" stroke="black"/>
<path d="M201.5 506V511.5H197.5V506V505.793L197.354 505.646L196.5 504.793V502C196.5 501.172 197.172 500.5 198 500.5H201C201.828 500.5 202.5 501.172 202.5 502V504.793L201.646 505.646L201.5 505.793V506Z" fill="white" stroke="black"/>
<circle cx="199.5" cy="498.5" r="1.5" fill="white" stroke="black"/>
<line x1="199.5" y1="506" x2="199.5" y2="512" stroke="black"/>
<path d="M196.5 509V514.5H192.5V509V508.793L192.354 508.646L191.5 507.793V505C191.5 504.172 192.172 503.5 193 503.5H196C196.828 503.5 197.5 504.172 197.5 505V507.793L196.646 508.646L196.5 508.793V509Z" fill="white" stroke="black"/>
<circle cx="194.5" cy="501.5" r="1.5" fill="white" stroke="black"/>
<line x1="194.5" y1="509" x2="194.5" y2="515" stroke="black"/>
<path d="M146.5 485V490.5H142.5V485V484.793L142.354 484.646L141.5 483.793V481C141.5 480.172 142.172 479.5 143 479.5H146C146.828 479.5 147.5 480.172 147.5 481V483.793L146.646 484.646L146.5 484.793V485Z" fill="white" stroke="black"/>
<circle cx="144.5" cy="477.5" r="1.5" fill="white" stroke="black"/>
<line x1="144.5" y1="485" x2="144.5" y2="491" stroke="black"/>
<path d="M151.5 488V493.5H147.5V488V487.793L147.354 487.646L146.5 486.793V484C146.5 483.172 147.172 482.5 148 482.5H151C151.828 482.5 152.5 483.172 152.5 484V486.793L151.646 487.646L151.5 487.793V488Z" fill="white" stroke="black"/>
<circle cx="149.5" cy="480.5" r="1.5" fill="white" stroke="black"/>
<line x1="149.5" y1="488" x2="149.5" y2="494" stroke="black"/>
<path d="M141.5 488V493.5H137.5V488V487.793L137.354 487.646L136.5 486.793V484C136.5 483.172 137.172 482.5 138 482.5H141C141.828 482.5 142.5 483.172 142.5 484V486.793L141.646 487.646L141.5 487.793V488Z" fill="white" stroke="black"/>
<circle cx="139.5" cy="480.5" r="1.5" fill="white" stroke="black"/>
<line x1="139.5" y1="488" x2="139.5" y2="494" stroke="black"/>
<path d="M136.5 491V496.5H132.5V491V490.793L132.354 490.646L131.5 489.793V487C131.5 486.172 132.172 485.5 133 485.5H136C136.828 485.5 137.5 486.172 137.5 487V489.793L136.646 490.646L136.5 490.793V491Z" fill="white" stroke="black"/>
<circle cx="134.5" cy="483.5" r="1.5" fill="white" stroke="black"/>
<line x1="134.5" y1="491" x2="134.5" y2="497" stroke="black"/>
<path d="M156.5 491V496.5H152.5V491V490.793L152.354 490.646L151.5 489.793V487C151.5 486.172 152.172 485.5 153 485.5H156C156.828 485.5 157.5 486.172 157.5 487V489.793L156.646 490.646L156.5 490.793V491Z" fill="white" stroke="black"/>
<circle cx="154.5" cy="483.5" r="1.5" fill="white" stroke="black"/>
<line x1="154.5" y1="491" x2="154.5" y2="497" stroke="black"/>
<path d="M146.5 491V496.5H142.5V491V490.793L142.354 490.646L141.5 489.793V487C141.5 486.172 142.172 485.5 143 485.5H146C146.828 485.5 147.5 486.172 147.5 487V489.793L146.646 490.646L146.5 490.793V491Z" fill="white" stroke="black"/>
<circle cx="144.5" cy="483.5" r="1.5" fill="white" stroke="black"/>
<line x1="144.5" y1="491" x2="144.5" y2="497" stroke="black"/>
<path d="M131.5 494V499.5H127.5V494V493.793L127.354 493.646L126.5 492.793V490C126.5 489.172 127.172 488.5 128 488.5H131C131.828 488.5 132.5 489.172 132.5 490V492.793L131.646 493.646L131.5 493.793V494Z" fill="white" stroke="black"/>
<circle cx="129.5" cy="486.5" r="1.5" fill="white" stroke="black"/>
<line x1="129.5" y1="494" x2="129.5" y2="500" stroke="black"/>
<path d="M141.5 494V499.5H137.5V494V493.793L137.354 493.646L136.5 492.793V490C136.5 489.172 137.172 488.5 138 488.5H141C141.828 488.5 142.5 489.172 142.5 490V492.793L141.646 493.646L141.5 493.793V494Z" fill="white" stroke="black"/>
<circle cx="139.5" cy="486.5" r="1.5" fill="white" stroke="black"/>
<line x1="139.5" y1="494" x2="139.5" y2="500" stroke="black"/>
<path d="M161.5 494V499.5H157.5V494V493.793L157.354 493.646L156.5 492.793V490C156.5 489.172 157.172 488.5 158 488.5H161C161.828 488.5 162.5 489.172 162.5 490V492.793L161.646 493.646L161.5 493.793V494Z" fill="white" stroke="black"/>
<circle cx="159.5" cy="486.5" r="1.5" fill="white" stroke="black"/>
<line x1="159.5" y1="494" x2="159.5" y2="500" stroke="black"/>
<path d="M151.5 494V499.5H147.5V494V493.793L147.354 493.646L146.5 492.793V490C146.5 489.172 147.172 488.5 148 488.5H151C151.828 488.5 152.5 489.172 152.5 490V492.793L151.646 493.646L151.5 493.793V494Z" fill="white" stroke="black"/>
<circle cx="149.5" cy="486.5" r="1.5" fill="white" stroke="black"/>
<line x1="149.5" y1="494" x2="149.5" y2="500" stroke="black"/>
<path d="M136.5 497V502.5H132.5V497V496.793L132.354 496.646L131.5 495.793V493C131.5 492.172 132.172 491.5 133 491.5H136C136.828 491.5 137.5 492.172 137.5 493V495.793L136.646 496.646L136.5 496.793V497Z" fill="white" stroke="black"/>
<circle cx="134.5" cy="489.5" r="1.5" fill="white" stroke="black"/>
<line x1="134.5" y1="497" x2="134.5" y2="503" stroke="black"/>
<path d="M126.5 497V502.5H122.5V497V496.793L122.354 496.646L121.5 495.793V493C121.5 492.172 122.172 491.5 123 491.5H126C126.828 491.5 127.5 492.172 127.5 493V495.793L126.646 496.646L126.5 496.793V497Z" fill="white" stroke="black"/>
<circle cx="124.5" cy="489.5" r="1.5" fill="white" stroke="black"/>
<line x1="124.5" y1="497" x2="124.5" y2="503" stroke="black"/>
<path d="M156.5 497V502.5H152.5V497V496.793L152.354 496.646L151.5 495.793V493C151.5 492.172 152.172 491.5 153 491.5H156C156.828 491.5 157.5 492.172 157.5 493V495.793L156.646 496.646L156.5 496.793V497Z" fill="white" stroke="black"/>
<circle cx="154.5" cy="489.5" r="1.5" fill="white" stroke="black"/>
<line x1="154.5" y1="497" x2="154.5" y2="503" stroke="black"/>
<path d="M166.5 497V502.5H162.5V497V496.793L162.354 496.646L161.5 495.793V493C161.5 492.172 162.172 491.5 163 491.5H166C166.828 491.5 167.5 492.172 167.5 493V495.793L166.646 496.646L166.5 496.793V497Z" fill="white" stroke="black"/>
<circle cx="164.5" cy="489.5" r="1.5" fill="white" stroke="black"/>
<line x1="164.5" y1="497" x2="164.5" y2="503" stroke="black"/>
<path d="M146.5 497V502.5H142.5V497V496.793L142.354 496.646L141.5 495.793V493C141.5 492.172 142.172 491.5 143 491.5H146C146.828 491.5 147.5 492.172 147.5 493V495.793L146.646 496.646L146.5 496.793V497Z" fill="white" stroke="black"/>
<circle cx="144.5" cy="489.5" r="1.5" fill="white" stroke="black"/>
<line x1="144.5" y1="497" x2="144.5" y2="503" stroke="black"/>
<path d="M151.5 500V505.5H147.5V500V499.793L147.354 499.646L146.5 498.793V496C146.5 495.172 147.172 494.5 148 494.5H151C151.828 494.5 152.5 495.172 152.5 496V498.793L151.646 499.646L151.5 499.793V500Z" fill="white" stroke="black"/>
<circle cx="149.5" cy="492.5" r="1.5" fill="white" stroke="black"/>
<line x1="149.5" y1="500" x2="149.5" y2="506" stroke="black"/>
<path d="M161.5 500V505.5H157.5V500V499.793L157.354 499.646L156.5 498.793V496C156.5 495.172 157.172 494.5 158 494.5H161C161.828 494.5 162.5 495.172 162.5 496V498.793L161.646 499.646L161.5 499.793V500Z" fill="white" stroke="black"/>
<circle cx="159.5" cy="492.5" r="1.5" fill="white" stroke="black"/>
<line x1="159.5" y1="500" x2="159.5" y2="506" stroke="black"/>
<path d="M141.5 500V505.5H137.5V500V499.793L137.354 499.646L136.5 498.793V496C136.5 495.172 137.172 494.5 138 494.5H141C141.828 494.5 142.5 495.172 142.5 496V498.793L141.646 499.646L141.5 499.793V500Z" fill="white" stroke="black"/>
<circle cx="139.5" cy="492.5" r="1.5" fill="white" stroke="black"/>
<line x1="139.5" y1="500" x2="139.5" y2="506" stroke="black"/>
<path d="M131.5 500V505.5H127.5V500V499.793L127.354 499.646L126.5 498.793V496C126.5 495.172 127.172 494.5 128 494.5H131C131.828 494.5 132.5 495.172 132.5 496V498.793L131.646 499.646L131.5 499.793V500Z" fill="white" stroke="black"/>
<circle cx="129.5" cy="492.5" r="1.5" fill="white" stroke="black"/>
<line x1="129.5" y1="500" x2="129.5" y2="506" stroke="black"/>
<path d="M146.5 503V508.5H142.5V503V502.793L142.354 502.646L141.5 501.793V499C141.5 498.172 142.172 497.5 143 497.5H146C146.828 497.5 147.5 498.172 147.5 499V501.793L146.646 502.646L146.5 502.793V503Z" fill="white" stroke="black"/>
<circle cx="144.5" cy="495.5" r="1.5" fill="white" stroke="black"/>
<line x1="144.5" y1="503" x2="144.5" y2="509" stroke="black"/>
<path d="M156.5 503V508.5H152.5V503V502.793L152.354 502.646L151.5 501.793V499C151.5 498.172 152.172 497.5 153 497.5H156C156.828 497.5 157.5 498.172 157.5 499V501.793L156.646 502.646L156.5 502.793V503Z" fill="white" stroke="black"/>
<circle cx="154.5" cy="495.5" r="1.5" fill="white" stroke="black"/>
<line x1="154.5" y1="503" x2="154.5" y2="509" stroke="black"/>
<path d="M136.5 503V508.5H132.5V503V502.793L132.354 502.646L131.5 501.793V499C131.5 498.172 132.172 497.5 133 497.5H136C136.828 497.5 137.5 498.172 137.5 499V501.793L136.646 502.646L136.5 502.793V503Z" fill="white" stroke="black"/>
<circle cx="134.5" cy="495.5" r="1.5" fill="white" stroke="black"/>
<line x1="134.5" y1="503" x2="134.5" y2="509" stroke="black"/>
<path d="M141.5 506V511.5H137.5V506V505.793L137.354 505.646L136.5 504.793V502C136.5 501.172 137.172 500.5 138 500.5H141C141.828 500.5 142.5 501.172 142.5 502V504.793L141.646 505.646L141.5 505.793V506Z" fill="white" stroke="black"/>
<circle cx="139.5" cy="498.5" r="1.5" fill="white" stroke="black"/>
<line x1="139.5" y1="506" x2="139.5" y2="512" stroke="black"/>
<path d="M151.5 506V511.5H147.5V506V505.793L147.354 505.646L146.5 504.793V502C146.5 501.172 147.172 500.5 148 500.5H151C151.828 500.5 152.5 501.172 152.5 502V504.793L151.646 505.646L151.5 505.793V506Z" fill="white" stroke="black"/>
<circle cx="149.5" cy="498.5" r="1.5" fill="white" stroke="black"/>
<line x1="149.5" y1="506" x2="149.5" y2="512" stroke="black"/>
<path d="M146.5 509V514.5H142.5V509V508.793L142.354 508.646L141.5 507.793V505C141.5 504.172 142.172 503.5 143 503.5H146C146.828 503.5 147.5 504.172 147.5 505V507.793L146.646 508.646L146.5 508.793V509Z" fill="white" stroke="black"/>
<circle cx="144.5" cy="501.5" r="1.5" fill="white" stroke="black"/>
<line x1="144.5" y1="509" x2="144.5" y2="515" stroke="black"/>
<path d="M171.5 500V505.5H167.5V500V499.793L167.354 499.646L166.5 498.793V496C166.5 495.172 167.172 494.5 168 494.5H171C171.828 494.5 172.5 495.172 172.5 496V498.793L171.646 499.646L171.5 499.793V500Z" fill="white" stroke="black"/>
<circle cx="169.5" cy="492.5" r="1.5" fill="white" stroke="black"/>
<line x1="169.5" y1="500" x2="169.5" y2="506" stroke="black"/>
<path d="M176.5 503V508.5H172.5V503V502.793L172.354 502.646L171.5 501.793V499C171.5 498.172 172.172 497.5 173 497.5H176C176.828 497.5 177.5 498.172 177.5 499V501.793L176.646 502.646L176.5 502.793V503Z" fill="white" stroke="black"/>
<circle cx="174.5" cy="495.5" r="1.5" fill="white" stroke="black"/>
<line x1="174.5" y1="503" x2="174.5" y2="509" stroke="black"/>
<path d="M166.5 503V508.5H162.5V503V502.793L162.354 502.646L161.5 501.793V499C161.5 498.172 162.172 497.5 163 497.5H166C166.828 497.5 167.5 498.172 167.5 499V501.793L166.646 502.646L166.5 502.793V503Z" fill="white" stroke="black"/>
<circle cx="164.5" cy="495.5" r="1.5" fill="white" stroke="black"/>
<line x1="164.5" y1="503" x2="164.5" y2="509" stroke="black"/>
<path d="M161.5 506V511.5H157.5V506V505.793L157.354 505.646L156.5 504.793V502C156.5 501.172 157.172 500.5 158 500.5H161C161.828 500.5 162.5 501.172 162.5 502V504.793L161.646 505.646L161.5 505.793V506Z" fill="white" stroke="black"/>
<circle cx="159.5" cy="498.5" r="1.5" fill="white" stroke="black"/>
<line x1="159.5" y1="506" x2="159.5" y2="512" stroke="black"/>
<path d="M181.5 506V511.5H177.5V506V505.793L177.354 505.646L176.5 504.793V502C176.5 501.172 177.172 500.5 178 500.5H181C181.828 500.5 182.5 501.172 182.5 502V504.793L181.646 505.646L181.5 505.793V506Z" fill="white" stroke="black"/>
<circle cx="179.5" cy="498.5" r="1.5" fill="white" stroke="black"/>
<line x1="179.5" y1="506" x2="179.5" y2="512" stroke="black"/>
<path d="M171.5 506V511.5H167.5V506V505.793L167.354 505.646L166.5 504.793V502C166.5 501.172 167.172 500.5 168 500.5H171C171.828 500.5 172.5 501.172 172.5 502V504.793L171.646 505.646L171.5 505.793V506Z" fill="white" stroke="black"/>
<circle cx="169.5" cy="498.5" r="1.5" fill="white" stroke="black"/>
<line x1="169.5" y1="506" x2="169.5" y2="512" stroke="black"/>
<path d="M156.5 509V514.5H152.5V509V508.793L152.354 508.646L151.5 507.793V505C151.5 504.172 152.172 503.5 153 503.5H156C156.828 503.5 157.5 504.172 157.5 505V507.793L156.646 508.646L156.5 508.793V509Z" fill="white" stroke="black"/>
<circle cx="154.5" cy="501.5" r="1.5" fill="white" stroke="black"/>
<line x1="154.5" y1="509" x2="154.5" y2="515" stroke="black"/>
<path d="M166.5 509V514.5H162.5V509V508.793L162.354 508.646L161.5 507.793V505C161.5 504.172 162.172 503.5 163 503.5H166C166.828 503.5 167.5 504.172 167.5 505V507.793L166.646 508.646L166.5 508.793V509Z" fill="white" stroke="black"/>
<circle cx="164.5" cy="501.5" r="1.5" fill="white" stroke="black"/>
<line x1="164.5" y1="509" x2="164.5" y2="515" stroke="black"/>
<path d="M186.5 509V514.5H182.5V509V508.793L182.354 508.646L181.5 507.793V505C181.5 504.172 182.172 503.5 183 503.5H186C186.828 503.5 187.5 504.172 187.5 505V507.793L186.646 508.646L186.5 508.793V509Z" fill="white" stroke="black"/>
<circle cx="184.5" cy="501.5" r="1.5" fill="white" stroke="black"/>
<line x1="184.5" y1="509" x2="184.5" y2="515" stroke="black"/>
<path d="M176.5 509V514.5H172.5V509V508.793L172.354 508.646L171.5 507.793V505C171.5 504.172 172.172 503.5 173 503.5H176C176.828 503.5 177.5 504.172 177.5 505V507.793L176.646 508.646L176.5 508.793V509Z" fill="white" stroke="black"/>
<circle cx="174.5" cy="501.5" r="1.5" fill="white" stroke="black"/>
<line x1="174.5" y1="509" x2="174.5" y2="515" stroke="black"/>
<path d="M161.5 512V517.5H157.5V512V511.793L157.354 511.646L156.5 510.793V508C156.5 507.172 157.172 506.5 158 506.5H161C161.828 506.5 162.5 507.172 162.5 508V510.793L161.646 511.646L161.5 511.793V512Z" fill="white" stroke="black"/>
<circle cx="159.5" cy="504.5" r="1.5" fill="white" stroke="black"/>
<line x1="159.5" y1="512" x2="159.5" y2="518" stroke="black"/>
<path d="M151.5 512V517.5H147.5V512V511.793L147.354 511.646L146.5 510.793V508C146.5 507.172 147.172 506.5 148 506.5H151C151.828 506.5 152.5 507.172 152.5 508V510.793L151.646 511.646L151.5 511.793V512Z" fill="white" stroke="black"/>
<circle cx="149.5" cy="504.5" r="1.5" fill="white" stroke="black"/>
<line x1="149.5" y1="512" x2="149.5" y2="518" stroke="black"/>
<path d="M181.5 512V517.5H177.5V512V511.793L177.354 511.646L176.5 510.793V508C176.5 507.172 177.172 506.5 178 506.5H181C181.828 506.5 182.5 507.172 182.5 508V510.793L181.646 511.646L181.5 511.793V512Z" fill="white" stroke="black"/>
<circle cx="179.5" cy="504.5" r="1.5" fill="white" stroke="black"/>
<line x1="179.5" y1="512" x2="179.5" y2="518" stroke="black"/>
<path d="M191.5 512V517.5H187.5V512V511.793L187.354 511.646L186.5 510.793V508C186.5 507.172 187.172 506.5 188 506.5H191C191.828 506.5 192.5 507.172 192.5 508V510.793L191.646 511.646L191.5 511.793V512Z" fill="white" stroke="black"/>
<circle cx="189.5" cy="504.5" r="1.5" fill="white" stroke="black"/>
<line x1="189.5" y1="512" x2="189.5" y2="518" stroke="black"/>
<path d="M171.5 512V517.5H167.5V512V511.793L167.354 511.646L166.5 510.793V508C166.5 507.172 167.172 506.5 168 506.5H171C171.828 506.5 172.5 507.172 172.5 508V510.793L171.646 511.646L171.5 511.793V512Z" fill="white" stroke="black"/>
<circle cx="169.5" cy="504.5" r="1.5" fill="white" stroke="black"/>
<line x1="169.5" y1="512" x2="169.5" y2="518" stroke="black"/>
<path d="M176.5 515V520.5H172.5V515V514.793L172.354 514.646L171.5 513.793V511C171.5 510.172 172.172 509.5 173 509.5H176C176.828 509.5 177.5 510.172 177.5 511V513.793L176.646 514.646L176.5 514.793V515Z" fill="white" stroke="black"/>
<circle cx="174.5" cy="507.5" r="1.5" fill="white" stroke="black"/>
<line x1="174.5" y1="515" x2="174.5" y2="521" stroke="black"/>
<path d="M186.5 515V520.5H182.5V515V514.793L182.354 514.646L181.5 513.793V511C181.5 510.172 182.172 509.5 183 509.5H186C186.828 509.5 187.5 510.172 187.5 511V513.793L186.646 514.646L186.5 514.793V515Z" fill="white" stroke="black"/>
<circle cx="184.5" cy="507.5" r="1.5" fill="white" stroke="black"/>
<line x1="184.5" y1="515" x2="184.5" y2="521" stroke="black"/>
<path d="M166.5 515V520.5H162.5V515V514.793L162.354 514.646L161.5 513.793V511C161.5 510.172 162.172 509.5 163 509.5H166C166.828 509.5 167.5 510.172 167.5 511V513.793L166.646 514.646L166.5 514.793V515Z" fill="white" stroke="black"/>
<circle cx="164.5" cy="507.5" r="1.5" fill="white" stroke="black"/>
<line x1="164.5" y1="515" x2="164.5" y2="521" stroke="black"/>
<path d="M156.5 515V520.5H152.5V515V514.793L152.354 514.646L151.5 513.793V511C151.5 510.172 152.172 509.5 153 509.5H156C156.828 509.5 157.5 510.172 157.5 511V513.793L156.646 514.646L156.5 514.793V515Z" fill="white" stroke="black"/>
<circle cx="154.5" cy="507.5" r="1.5" fill="white" stroke="black"/>
<line x1="154.5" y1="515" x2="154.5" y2="521" stroke="black"/>
<path d="M171.5 518V523.5H167.5V518V517.793L167.354 517.646L166.5 516.793V514C166.5 513.172 167.172 512.5 168 512.5H171C171.828 512.5 172.5 513.172 172.5 514V516.793L171.646 517.646L171.5 517.793V518Z" fill="white" stroke="black"/>
<circle cx="169.5" cy="510.5" r="1.5" fill="white" stroke="black"/>
<line x1="169.5" y1="518" x2="169.5" y2="524" stroke="black"/>
<path d="M181.5 518V523.5H177.5V518V517.793L177.354 517.646L176.5 516.793V514C176.5 513.172 177.172 512.5 178 512.5H181C181.828 512.5 182.5 513.172 182.5 514V516.793L181.646 517.646L181.5 517.793V518Z" fill="white" stroke="black"/>
<circle cx="179.5" cy="510.5" r="1.5" fill="white" stroke="black"/>
<line x1="179.5" y1="518" x2="179.5" y2="524" stroke="black"/>
<path d="M161.5 518V523.5H157.5V518V517.793L157.354 517.646L156.5 516.793V514C156.5 513.172 157.172 512.5 158 512.5H161C161.828 512.5 162.5 513.172 162.5 514V516.793L161.646 517.646L161.5 517.793V518Z" fill="white" stroke="black"/>
<circle cx="159.5" cy="510.5" r="1.5" fill="white" stroke="black"/>
<line x1="159.5" y1="518" x2="159.5" y2="524" stroke="black"/>
<path d="M166.5 521V526.5H162.5V521V520.793L162.354 520.646L161.5 519.793V517C161.5 516.172 162.172 515.5 163 515.5H166C166.828 515.5 167.5 516.172 167.5 517V519.793L166.646 520.646L166.5 520.793V521Z" fill="white" stroke="black"/>
<circle cx="164.5" cy="513.5" r="1.5" fill="white" stroke="black"/>
<line x1="164.5" y1="521" x2="164.5" y2="527" stroke="black"/>
<path d="M176.5 521V526.5H172.5V521V520.793L172.354 520.646L171.5 519.793V517C171.5 516.172 172.172 515.5 173 515.5H176C176.828 515.5 177.5 516.172 177.5 517V519.793L176.646 520.646L176.5 520.793V521Z" fill="white" stroke="black"/>
<circle cx="174.5" cy="513.5" r="1.5" fill="white" stroke="black"/>
<line x1="174.5" y1="521" x2="174.5" y2="527" stroke="black"/>
<path d="M171.5 524V529.5H167.5V524V523.793L167.354 523.646L166.5 522.793V520C166.5 519.172 167.172 518.5 168 518.5H171C171.828 518.5 172.5 519.172 172.5 520V522.793L171.646 523.646L171.5 523.793V524Z" fill="white" stroke="black"/>
<circle cx="169.5" cy="516.5" r="1.5" fill="white" stroke="black"/>
<line x1="169.5" y1="524" x2="169.5" y2="530" stroke="black"/>
<text fill="black" xml:space="preserve" style="white-space: pre" font-family="monospace" font-size="10" letter-spacing="0em"><tspan x="92.0488" y="26.25">MODERN ENTERPRISE SYSTEMS</tspan></text>
<path d="M222.021 87.6394C222.437 88.2212 222.731 88.8398 222.882 89.4844L222.395 89.5987C222.464 89.8941 222.5 90.1948 222.5 90.5C222.5 90.8052 222.464 91.1059 222.395 91.4013L222.882 91.5156C222.731 92.1602 222.437 92.7788 222.021 93.3606L221.614 93.0696C221.269 93.5527 220.825 94.0154 220.293 94.448L220.609 94.836C220.106 95.2447 219.534 95.6232 218.902 95.9656L218.664 95.5261C218.111 95.8261 217.508 96.0987 216.862 96.339L217.036 96.8077C216.417 97.038 215.762 97.2388 215.076 97.4067L214.957 96.9211C214.329 97.075 213.673 97.2007 212.996 97.2951L213.065 97.7903C212.403 97.8826 211.722 97.9457 211.025 97.977L211.003 97.4775C210.672 97.4924 210.338 97.5 210 97.5C209.662 97.5 209.328 97.4924 208.997 97.4775L208.975 97.977C208.278 97.9457 207.597 97.8826 206.935 97.7903L207.004 97.2951C206.327 97.2007 205.671 97.075 205.043 96.9211L204.924 97.4067C204.238 97.2388 203.583 97.038 202.964 96.8077L203.138 96.339C202.492 96.0987 201.889 95.8261 201.336 95.5261L201.098 95.9656C200.466 95.6232 199.894 95.2447 199.391 94.8359L199.707 94.448C199.175 94.0154 198.731 93.5527 198.386 93.0696L197.979 93.3606C197.563 92.7788 197.269 92.1602 197.118 91.5156L197.605 91.4013C197.536 91.1059 197.5 90.8052 197.5 90.5C197.5 90.1948 197.536 89.8941 197.605 89.5987L197.118 89.4844C197.269 88.8398 197.563 88.2212 197.979 87.6394L198.386 87.9304C198.731 87.4473 199.175 86.9846 199.707 86.552L199.391 86.164C199.894 85.7553 200.466 85.3768 201.098 85.0344L201.336 85.4739C201.889 85.1739 202.492 84.9013 203.138 84.661L202.964 84.1923C203.583 83.962 204.238 83.7612 204.924 83.5933L205.043 84.0789C205.671 83.925 206.327 83.7993 207.004 83.7049L206.935 83.2097C207.597 83.1174 208.278 83.0543 208.975 83.023L208.997 83.5225C209.328 83.5076 209.662 83.5 210 83.5C210.338 83.5 210.672 83.5076 211.003 83.5225L211.025 83.023C211.722 83.0543 212.403 83.1174 213.065 83.2097L212.996 83.7049C213.673 83.7993 214.329 83.925 214.957 84.0789L215.076 83.5933C215.762 83.7612 216.417 83.962 217.036 84.1923L216.862 84.661C217.508 84.9013 218.111 85.1739 218.664 85.4739L218.902 85.0344C219.534 85.3768 220.106 85.7553 220.609 86.1641L220.293 86.552C220.825 86.9846 221.269 87.4473 221.614 87.9304L222.021 87.6394Z" fill="white" stroke="black" stroke-dasharray="2 2"/>
<path d="M179.021 53.6394C179.437 54.2212 179.731 54.8398 179.882 55.4844L179.395 55.5987C179.464 55.8941 179.5 56.1948 179.5 56.5C179.5 56.8052 179.464 57.1059 179.395 57.4013L179.882 57.5156C179.731 58.1602 179.437 58.7788 179.021 59.3606L178.614 59.0696C178.269 59.5527 177.825 60.0154 177.293 60.448L177.609 60.836C177.106 61.2447 176.534 61.6232 175.902 61.9656L175.664 61.5261C175.111 61.8261 174.508 62.0987 173.862 62.339L174.036 62.8077C173.417 63.038 172.762 63.2388 172.076 63.4067L171.957 62.9211C171.329 63.075 170.673 63.2007 169.996 63.2951L170.065 63.7903C169.403 63.8826 168.722 63.9457 168.025 63.977L168.003 63.4775C167.672 63.4924 167.338 63.5 167 63.5C166.662 63.5 166.328 63.4924 165.997 63.4775L165.975 63.977C165.278 63.9457 164.597 63.8826 163.935 63.7903L164.004 63.2951C163.327 63.2007 162.671 63.075 162.043 62.9211L161.924 63.4067C161.238 63.2388 160.583 63.038 159.964 62.8077L160.138 62.339C159.492 62.0987 158.889 61.8261 158.336 61.5261L158.098 61.9656C157.466 61.6232 156.894 61.2447 156.391 60.8359L156.707 60.448C156.175 60.0154 155.731 59.5527 155.386 59.0696L154.979 59.3606C154.563 58.7788 154.269 58.1602 154.118 57.5156L154.605 57.4013C154.536 57.1059 154.5 56.8052 154.5 56.5C154.5 56.1948 154.536 55.8941 154.605 55.5987L154.118 55.4844C154.269 54.8398 154.563 54.2212 154.979 53.6394L155.386 53.9304C155.731 53.4473 156.175 52.9846 156.707 52.552L156.391 52.164C156.894 51.7553 157.466 51.3768 158.098 51.0344L158.336 51.4739C158.889 51.1739 159.492 50.9013 160.138 50.661L159.964 50.1923C160.583 49.962 161.238 49.7612 161.924 49.5933L162.043 50.0789C162.671 49.925 163.327 49.7993 164.004 49.7049L163.935 49.2097C164.597 49.1174 165.278 49.0543 165.975 49.023L165.997 49.5225C166.328 49.5076 166.662 49.5 167 49.5C167.338 49.5 167.672 49.5076 168.003 49.5225L168.025 49.023C168.722 49.0543 169.403 49.1174 170.065 49.2097L169.996 49.7049C170.673 49.7993 171.329 49.925 171.957 50.0789L172.076 49.5933C172.762 49.7612 173.417 49.962 174.036 50.1923L173.862 50.661C174.508 50.9013 175.111 51.1739 175.664 51.4739L175.902 51.0344C176.534 51.3768 177.106 51.7553 177.609 52.1641L177.293 52.552C177.825 52.9846 178.269 53.4473 178.614 53.9304L179.021 53.6394Z" fill="#E5E5E5" stroke="black" stroke-dasharray="2 2"/>
<mask id="path-350-inside-1_1861_609" fill="white">
<path fill-rule="evenodd" clip-rule="evenodd" d="M65.31 507.993C67.132 508.434 68.8585 508.551 70.4569 508.366L77.069 515.642L82.1858 512.687L78.9756 502.651C79.6699 501.458 80.2296 500.092 80.6372 498.565L88.0933 499.628L88.093 491.272L80.3464 483.431C79.929 481.666 79.3965 479.896 78.7609 478.142L82.1842 471.39L77.0669 462.527L69.5889 462.12C68.3521 460.634 67.046 459.241 65.6844 457.967L62.8032 447.469L55.5666 443.29L52.6755 450.488C51.333 450.201 50.0448 450.092 48.8244 450.153L41.3032 441.877L36.1864 444.831L39.6468 455.65C39.0352 456.645 38.5208 457.766 38.1144 459.008L30.279 457.89L30.2793 466.246L37.8229 473.882C38.2217 475.826 38.7645 477.783 39.4349 479.725L36.1881 486.128L41.3054 494.992L47.9619 495.354C49.544 497.369 51.252 499.232 53.0544 500.887L55.5691 510.05L62.8056 514.228L65.31 507.993Z"/>
</mask>
<path d="M70.4569 508.366L70.0109 507.251L70.4003 507.206L70.8141 507.661L70.4569 508.366ZM65.31 507.993L64.4995 507.173L64.6522 506.793L65.0683 506.893L65.31 507.993ZM77.069 515.642L77.6814 516.702L77.2576 516.947L76.7117 516.346L77.069 515.642ZM82.1858 512.687L82.9746 512.73L83.2219 513.503L82.7982 513.748L82.1858 512.687ZM78.9756 502.651L78.1867 502.608L78.016 502.074L78.2019 501.754L78.9756 502.651ZM80.6372 498.565L79.8005 497.824L79.9153 497.393L80.332 497.453L80.6372 498.565ZM88.0933 499.628L88.9593 500.128L88.9593 500.82L88.3985 500.74L88.0933 499.628ZM88.093 491.272L88.3981 490.512L88.959 491.08L88.959 491.772L88.093 491.272ZM80.3464 483.431L80.0413 484.191L79.6476 483.792L79.5207 483.256L80.3464 483.431ZM78.7609 478.142L77.9954 478.167L77.7968 477.619L77.972 477.274L78.7609 478.142ZM82.1842 471.39L82.7965 471.037L83.2203 471.771L82.973 472.258L82.1842 471.39ZM77.0669 462.527L76.7096 461.41L77.2555 461.439L77.6792 462.173L77.0669 462.527ZM69.5889 462.12L69.9462 463.237L69.5549 463.216L69.1771 462.762L69.5889 462.12ZM65.6844 457.967L65.4278 458.774L65.0233 458.396L64.874 457.852L65.6844 457.967ZM62.8032 447.469L62.8031 446.469L63.4024 446.815L63.6136 447.584L62.8032 447.469ZM55.5666 443.29L54.7561 442.47L54.9673 441.944L55.5666 442.29L55.5666 443.29ZM52.6755 450.488L53.486 451.308L53.3376 451.678L52.9359 451.592L52.6755 450.488ZM48.8244 450.153L49.2377 451.27L48.8594 451.289L48.4671 450.858L48.8244 450.153ZM41.3032 441.877L40.6909 440.816L41.1146 440.572L41.6605 441.172L41.3032 441.877ZM36.1864 444.831L35.3976 444.788L35.1503 444.015L35.5741 443.77L36.1864 444.831ZM39.6468 455.65L40.4356 455.693L40.61 456.238L40.4139 456.557L39.6468 455.65ZM38.1144 459.008L38.9398 459.787L38.8126 460.176L38.4196 460.12L38.1144 459.008ZM30.279 457.89L29.413 457.39L29.4129 456.698L29.9738 456.778L30.279 457.89ZM30.2793 466.246L29.9742 467.006L29.4133 466.438L29.4133 465.746L30.2793 466.246ZM37.8229 473.882L38.1281 473.122L38.544 473.543L38.6593 474.105L37.8229 473.882ZM39.4349 479.725L40.2101 479.726L40.3936 480.258L40.2238 480.593L39.4349 479.725ZM36.1881 486.128L35.5758 486.482L35.152 485.748L35.3992 485.26L36.1881 486.128ZM41.3054 494.992L41.6627 496.109L41.1168 496.079L40.693 495.345L41.3054 494.992ZM47.9619 495.354L47.6046 494.236L48.0192 494.259L48.4091 494.756L47.9619 495.354ZM53.0544 500.887L53.2996 500.069L53.713 500.449L53.8649 501.003L53.0544 500.887ZM55.5691 510.05L55.5691 511.05L54.9698 510.704L54.7586 509.934L55.5691 510.05ZM62.8056 514.228L63.6161 515.048L63.405 515.574L62.8057 515.228L62.8056 514.228ZM70.9028 509.48C69.2417 509.673 67.4467 509.551 65.5517 509.093L65.0683 506.893C66.8173 507.316 68.4753 507.429 70.0109 507.251L70.9028 509.48ZM76.7117 516.346L70.0996 509.07L70.8141 507.661L77.4262 514.937L76.7117 516.346ZM82.7982 513.748L77.6814 516.702L76.4566 514.581L81.5734 511.627L82.7982 513.748ZM79.7644 502.693L82.9746 512.73L81.3969 512.644L78.1867 502.608L79.7644 502.693ZM81.4739 499.306C81.0509 500.891 80.4699 502.308 79.7492 503.547L78.2019 501.754C78.8698 500.607 79.4084 499.293 79.8005 497.824L81.4739 499.306ZM88.3985 500.74L80.9424 499.677L80.332 497.453L87.7881 498.516L88.3985 500.74ZM88.959 491.772L88.9593 500.128L87.2273 499.128L87.227 490.772L88.959 491.772ZM80.6515 482.671L88.3981 490.512L87.7878 492.032L80.0413 484.191L80.6515 482.671ZM79.5263 478.116C80.1861 479.937 80.7389 481.775 81.1721 483.606L79.5207 483.256C79.1192 481.558 78.6068 479.855 77.9954 478.167L79.5263 478.116ZM82.973 472.258L79.5497 479.01L77.972 477.274L81.3953 470.522L82.973 472.258ZM77.6792 462.173L82.7965 471.037L81.5718 471.744L76.4546 462.88L77.6792 462.173ZM69.2315 461.003L76.7096 461.41L77.4242 463.644L69.9462 463.237L69.2315 461.003ZM65.9411 457.161C67.3571 458.486 68.7151 459.933 70.0007 461.478L69.1771 462.762C67.989 461.334 66.7348 459.997 65.4278 458.774L65.9411 457.161ZM63.6136 447.584L66.4949 458.083L64.874 457.852L61.9927 447.353L63.6136 447.584ZM55.5666 442.29L62.8031 446.469L62.8032 448.469L55.5667 444.29L55.5666 442.29ZM51.8651 449.668L54.7561 442.47L56.3771 444.111L53.486 451.308L51.8651 449.668ZM48.4111 449.036C49.6796 448.973 51.019 449.086 52.4152 449.384L52.9359 451.592C51.647 451.317 50.41 451.212 49.2377 451.27L48.4111 449.036ZM41.6605 441.172L49.1817 449.448L48.4671 450.858L40.946 442.581L41.6605 441.172ZM35.5741 443.77L40.6909 440.816L41.9156 442.938L36.7988 445.892L35.5741 443.77ZM38.8579 455.607L35.3976 444.788L36.9753 444.874L40.4356 455.693L38.8579 455.607ZM37.2891 458.228C37.7109 456.94 38.2449 455.776 38.8796 454.743L40.4139 456.557C39.8256 457.514 39.3307 458.593 38.9398 459.787L37.2891 458.228ZM29.9738 456.778L37.8092 457.895L38.4196 460.12L30.5842 459.002L29.9738 456.778ZM29.4133 465.746L29.413 457.39L31.145 458.39L31.1453 466.746L29.4133 465.746ZM37.5178 474.642L29.9742 467.006L30.5844 465.487L38.1281 473.122L37.5178 474.642ZM38.6597 479.723C37.9638 477.708 37.4005 475.676 36.9866 473.658L38.6593 474.105C39.043 475.976 39.5652 477.859 40.2101 479.726L38.6597 479.723ZM40.2238 480.593L36.977 486.996L35.3992 485.26L38.646 478.857L40.2238 480.593ZM36.8004 485.775L41.9177 494.638L40.693 495.345L35.5758 486.482L36.8004 485.775ZM40.948 493.874L47.6046 494.236L48.3192 496.471L41.6627 496.109L40.948 493.874ZM52.8093 501.704C50.9347 499.983 49.1589 498.046 47.5147 495.952L48.4091 494.756C49.9291 496.692 51.5694 498.481 53.2996 500.069L52.8093 501.704ZM54.7586 509.934L52.244 500.771L53.8649 501.003L56.3795 510.165L54.7586 509.934ZM62.8057 515.228L55.5691 511.05L55.569 509.05L62.8056 513.228L62.8057 515.228ZM66.1204 508.814L63.6161 515.048L61.9952 513.408L64.4995 507.173L66.1204 508.814Z" fill="black" mask="url(#path-350-inside-1_1861_609)"/>
<line y1="-0.5" x2="10.9182" y2="-0.5" transform="matrix(0.866025 -0.5 -0.5 -0.866025 31.8135 447.342)" stroke="black"/>
<line y1="-0.5" x2="10.9182" y2="-0.5" transform="matrix(0.866025 -0.5 -0.5 -0.866025 39.2631 455.649)" stroke="black"/>
<line y1="-0.5" x2="10.9182" y2="-0.5" transform="matrix(0.866025 -0.5 -0.5 -0.866025 46.0764 449.061)" stroke="black"/>
<line y1="-0.5" x2="10.9182" y2="-0.5" transform="matrix(0.866025 -0.5 -0.5 -0.866025 53.0079 453.021)" stroke="black"/>
<line y1="-0.5" x2="10.9182" y2="-0.5" transform="matrix(0.866025 -0.5 -0.5 -0.866025 56.1891 463.128)" stroke="black"/>
<line y1="-0.5" x2="10.9182" y2="-0.5" transform="matrix(0.866025 -0.5 -0.5 -0.866025 60.0575 467.53)" stroke="black"/>
<line y1="-0.5" x2="10.9182" y2="-0.5" transform="matrix(0.866025 -0.5 -0.5 -0.866025 67.5432 467.853)" stroke="black"/>
<line y1="-0.5" x2="10.9182" y2="-0.5" transform="matrix(0.866025 -0.5 -0.5 -0.866025 72.4276 476.314)" stroke="black"/>
<line y1="-0.5" x2="10.9182" y2="-0.5" transform="matrix(0.866025 -0.5 -0.5 -0.866025 68.9646 482.958)" stroke="black"/>
<line y1="-0.5" x2="10.9182" y2="-0.5" transform="matrix(0.866025 -0.5 -0.5 -0.866025 70.3448 488.796)" stroke="black"/>
<line y1="-0.5" x2="10.9182" y2="-0.5" transform="matrix(0.866025 -0.5 -0.5 -0.866025 78.0049 496.317)" stroke="black"/>
<line y1="-0.5" x2="10.9182" y2="-0.5" transform="matrix(0.866025 -0.5 -0.5 -0.866025 77.9692 504.301)" stroke="black"/>
<line y1="-0.5" x2="10.9182" y2="-0.5" transform="matrix(0.866025 -0.5 -0.5 -0.866025 72.3259 517.512)" stroke="black"/>
<line y1="-0.5" x2="10.9182" y2="-0.5" transform="matrix(0.866025 -0.5 -0.5 -0.866025 53.3738 519.164)" stroke="black"/>
<line y1="-0.5" x2="10.9182" y2="-0.5" transform="matrix(0.866025 -0.5 -0.5 -0.866025 21.1937 463.427)" stroke="black"/>
<ellipse rx="23.7484" ry="12.9264" transform="matrix(0.5 0.866025 0.866025 -0.5 49.3859 484.65)" fill="#D9D9D9"/>
<mask id="path-368-inside-2_1861_609" fill="white">
<path fill-rule="evenodd" clip-rule="evenodd" d="M55.9378 513.404C57.7599 513.845 59.4863 513.963 61.0847 513.777L67.6968 521.053L72.8136 518.098L69.6034 508.061C70.2977 506.869 70.8575 505.503 71.265 503.976L78.721 505.039L78.7207 496.683L70.9742 488.842C70.5568 487.077 70.0243 485.307 69.3887 483.553L72.812 476.801L67.6948 467.938L60.2167 467.531C58.9799 466.045 57.6738 464.653 56.3123 463.378L53.431 452.88L46.1945 448.701L43.3034 455.899C41.9609 455.613 40.6727 455.503 39.4523 455.564L31.9311 447.288L26.8143 450.242L30.2746 461.061C29.6631 462.056 29.1486 463.177 28.7422 464.419L20.9068 463.301L20.9071 471.657L28.4507 479.293C28.8495 481.237 29.3923 483.194 30.0627 485.136L26.8159 491.539L31.9332 500.403L38.5897 500.765C40.1718 502.78 41.8799 504.643 43.6823 506.298L46.1969 515.461L53.4335 519.639L55.9378 513.404ZM64.3263 492.504C64.3259 483.274 57.8458 472.05 49.8525 467.435C41.8592 462.82 35.3797 466.561 35.38 475.791C35.3804 485.021 41.8605 496.245 49.8538 500.86C57.8471 505.475 64.3266 501.734 64.3263 492.504ZM61.4317 490.833C61.4314 483.449 56.2473 474.47 49.8527 470.778C43.458 467.085 38.2744 470.078 38.2747 477.462C38.2749 484.846 43.459 493.825 49.8537 497.518C56.2483 501.21 61.4319 498.217 61.4317 490.833ZM55.1161 487.186C55.116 483.83 52.7596 479.749 49.8529 478.07C46.9463 476.392 44.5901 477.752 44.5902 481.109C44.5903 484.465 46.9468 488.547 49.8534 490.225C52.7601 491.903 55.1163 490.543 55.1161 487.186Z"/>
</mask>
<path fill-rule="evenodd" clip-rule="evenodd" d="M55.9378 513.404C57.7599 513.845 59.4863 513.963 61.0847 513.777L67.6968 521.053L72.8136 518.098L69.6034 508.061C70.2977 506.869 70.8575 505.503 71.265 503.976L78.721 505.039L78.7207 496.683L70.9742 488.842C70.5568 487.077 70.0243 485.307 69.3887 483.553L72.812 476.801L67.6948 467.938L60.2167 467.531C58.9799 466.045 57.6738 464.653 56.3123 463.378L53.431 452.88L46.1945 448.701L43.3034 455.899C41.9609 455.613 40.6727 455.503 39.4523 455.564L31.9311 447.288L26.8143 450.242L30.2746 461.061C29.6631 462.056 29.1486 463.177 28.7422 464.419L20.9068 463.301L20.9071 471.657L28.4507 479.293C28.8495 481.237 29.3923 483.194 30.0627 485.136L26.8159 491.539L31.9332 500.403L38.5897 500.765C40.1718 502.78 41.8799 504.643 43.6823 506.298L46.1969 515.461L53.4335 519.639L55.9378 513.404ZM64.3263 492.504C64.3259 483.274 57.8458 472.05 49.8525 467.435C41.8592 462.82 35.3797 466.561 35.38 475.791C35.3804 485.021 41.8605 496.245 49.8538 500.86C57.8471 505.475 64.3266 501.734 64.3263 492.504ZM61.4317 490.833C61.4314 483.449 56.2473 474.47 49.8527 470.778C43.458 467.085 38.2744 470.078 38.2747 477.462C38.2749 484.846 43.459 493.825 49.8537 497.518C56.2483 501.21 61.4319 498.217 61.4317 490.833ZM55.1161 487.186C55.116 483.83 52.7596 479.749 49.8529 478.07C46.9463 476.392 44.5901 477.752 44.5902 481.109C44.5903 484.465 46.9468 488.547 49.8534 490.225C52.7601 491.903 55.1163 490.543 55.1161 487.186Z" fill="white"/>
<path d="M61.0847 513.777L60.6388 512.662L61.0282 512.617L61.442 513.072L61.0847 513.777ZM55.9378 513.404L55.1274 512.584L55.28 512.204L55.6961 512.304L55.9378 513.404ZM67.6968 521.053L68.3092 522.113L67.8855 522.358L67.3396 521.757L67.6968 521.053ZM72.8136 518.098L73.6025 518.141L73.8498 518.914L73.426 519.159L72.8136 518.098ZM69.6034 508.061L68.8146 508.019L68.6439 507.485L68.8298 507.165L69.6034 508.061ZM71.265 503.976L70.4283 503.235L70.5431 502.804L70.9598 502.864L71.265 503.976ZM78.721 505.039L79.587 505.539L79.5871 506.231L79.0262 506.151L78.721 505.039ZM78.7207 496.683L79.0258 495.923L79.5867 496.491L79.5867 497.183L78.7207 496.683ZM70.9742 488.842L70.6691 489.602L70.2754 489.203L70.1485 488.667L70.9742 488.842ZM69.3887 483.553L68.6232 483.579L68.4246 483.03L68.5998 482.685L69.3887 483.553ZM72.812 476.801L73.4243 476.448L73.8481 477.182L73.6009 477.669L72.812 476.801ZM67.6948 467.938L67.3374 466.821L67.8833 466.85L68.3071 467.584L67.6948 467.938ZM60.2167 467.531L60.574 468.648L60.1827 468.627L59.8049 468.173L60.2167 467.531ZM56.3123 463.378L56.0556 464.185L55.6511 463.807L55.5019 463.263L56.3123 463.378ZM53.431 452.88L53.431 451.88L54.0303 452.226L54.2415 452.995L53.431 452.88ZM46.1945 448.701L45.384 447.881L45.5952 447.355L46.1944 447.701L46.1945 448.701ZM43.3034 455.899L44.1139 456.72L43.9655 457.089L43.5637 457.003L43.3034 455.899ZM39.4523 455.564L39.8656 456.681L39.4872 456.7L39.095 456.269L39.4523 455.564ZM31.9311 447.288L31.3187 446.227L31.7425 445.983L32.2884 446.583L31.9311 447.288ZM26.8143 450.242L26.0255 450.199L25.7782 449.426L26.2019 449.181L26.8143 450.242ZM30.2746 461.061L31.0635 461.104L31.2378 461.649L31.0417 461.968L30.2746 461.061ZM28.7422 464.419L29.5676 465.198L29.4404 465.587L29.0474 465.531L28.7422 464.419ZM20.9068 463.301L20.0408 462.801L20.0408 462.109L20.6016 462.189L20.9068 463.301ZM20.9071 471.657L20.602 472.417L20.0411 471.849L20.0411 471.157L20.9071 471.657ZM28.4507 479.293L28.7559 478.533L29.1718 478.954L29.2871 479.516L28.4507 479.293ZM30.0627 485.136L30.8379 485.137L31.0214 485.669L30.8516 486.004L30.0627 485.136ZM26.8159 491.539L26.2036 491.893L25.7798 491.159L26.027 490.671L26.8159 491.539ZM31.9332 500.403L32.2905 501.52L31.7446 501.49L31.3208 500.756L31.9332 500.403ZM38.5897 500.765L38.2324 499.647L38.6471 499.67L39.0369 500.167L38.5897 500.765ZM43.6823 506.298L43.9275 505.481L44.3409 505.86L44.4928 506.414L43.6823 506.298ZM46.1969 515.461L46.197 516.461L45.5977 516.115L45.3865 515.345L46.1969 515.461ZM53.4335 519.639L54.244 520.459L54.0328 520.985L53.4335 520.639L53.4335 519.639ZM61.5307 514.891C59.8695 515.085 58.0746 514.962 56.1796 514.504L55.6961 512.304C57.4452 512.727 59.1031 512.84 60.6388 512.662L61.5307 514.891ZM67.3396 521.757L60.7275 514.481L61.442 513.072L68.0541 520.348L67.3396 521.757ZM73.426 519.159L68.3092 522.113L67.0844 519.992L72.2012 517.038L73.426 519.159ZM70.3923 508.104L73.6025 518.141L72.0248 518.056L68.8146 508.019L70.3923 508.104ZM72.1017 504.717C71.6787 506.302 71.0977 507.719 70.3771 508.958L68.8298 507.165C69.4977 506.018 70.0362 504.704 70.4283 503.235L72.1017 504.717ZM79.0262 506.151L71.5702 505.088L70.9598 502.864L78.4158 503.927L79.0262 506.151ZM79.5867 497.183L79.587 505.539L77.855 504.539L77.8547 496.183L79.5867 497.183ZM71.2794 488.083L79.0258 495.923L78.4156 497.443L70.6691 489.602L71.2794 488.083ZM70.1542 483.527C70.8139 485.348 71.3667 487.186 71.7999 489.017L70.1485 488.667C69.747 486.969 69.2347 485.266 68.6232 483.579L70.1542 483.527ZM73.6009 477.669L70.1776 484.421L68.5998 482.685L72.0231 475.933L73.6009 477.669ZM68.3071 467.584L73.4243 476.448L72.1997 477.155L67.0824 468.291L68.3071 467.584ZM59.8594 466.414L67.3374 466.821L68.0521 469.055L60.574 468.648L59.8594 466.414ZM56.569 462.572C57.985 463.897 59.3429 465.344 60.6285 466.889L59.8049 468.173C58.6168 466.745 57.3627 465.408 56.0556 464.185L56.569 462.572ZM54.2415 452.995L57.1228 463.494L55.5019 463.263L52.6206 452.764L54.2415 452.995ZM46.1944 447.701L53.431 451.88L53.4311 453.88L46.1945 449.702L46.1944 447.701ZM42.4929 455.079L45.384 447.881L47.005 449.522L44.1139 456.72L42.4929 455.079ZM39.039 454.447C40.3075 454.384 41.6468 454.497 43.0431 454.795L43.5637 457.003C42.2749 456.728 41.0379 456.623 39.8656 456.681L39.039 454.447ZM32.2884 446.583L39.8095 454.859L39.095 456.269L31.5738 447.993L32.2884 446.583ZM26.2019 449.181L31.3187 446.227L32.5435 448.349L27.4267 451.303L26.2019 449.181ZM29.4858 461.018L26.0255 450.199L27.6032 450.285L31.0635 461.104L29.4858 461.018ZM27.9169 463.639C28.3387 462.351 28.8727 461.187 29.5075 460.154L31.0417 461.968C30.4534 462.925 29.9585 464.004 29.5676 465.198L27.9169 463.639ZM20.6016 462.189L28.437 463.307L29.0474 465.531L21.212 464.413L20.6016 462.189ZM20.0411 471.157L20.0408 462.801L21.7728 463.801L21.7731 472.157L20.0411 471.157ZM28.1456 480.053L20.602 472.417L21.2122 470.898L28.7559 478.533L28.1456 480.053ZM29.2876 485.134C28.5916 483.119 28.0283 481.087 27.6144 479.069L29.2871 479.516C29.6708 481.387 30.193 483.27 30.8379 485.137L29.2876 485.134ZM26.027 490.671L29.2738 484.268L30.8516 486.004L27.6048 492.407L26.027 490.671ZM31.3208 500.756L26.2036 491.893L27.4283 491.186L32.5455 500.049L31.3208 500.756ZM38.947 501.882L32.2905 501.52L31.5758 499.285L38.2324 499.647L38.947 501.882ZM43.4371 507.116C41.5626 505.394 39.7867 503.457 38.1425 501.363L39.0369 500.167C40.5569 502.103 42.1972 503.892 43.9275 505.481L43.4371 507.116ZM45.3865 515.345L42.8719 506.183L44.4928 506.414L47.0074 515.576L45.3865 515.345ZM53.4335 520.639L46.197 516.461L46.1969 514.461L53.4335 518.639L53.4335 520.639ZM56.7483 514.225L54.244 520.459L52.623 518.819L55.1274 512.584L56.7483 514.225ZM49.8525 466.435C58.3241 471.327 65.1919 483.222 65.1923 493.004L63.4603 492.004C63.4599 483.327 57.3676 472.774 49.8526 468.435L49.8525 466.435ZM34.514 475.291C34.5136 465.508 41.3809 461.544 49.8525 466.435L49.8526 468.435C42.3376 464.096 36.2457 467.613 36.246 476.291L34.514 475.291ZM49.8538 501.86C41.3823 496.969 34.5144 485.073 34.514 475.291L36.246 476.291C36.2464 484.969 42.3387 495.521 49.8537 499.86L49.8538 501.86ZM65.1923 493.004C65.1927 502.787 58.3254 506.752 49.8538 501.86L49.8537 499.86C57.3687 504.199 63.4606 500.682 63.4603 492.004L65.1923 493.004ZM49.8526 469.778C56.7255 473.746 62.2974 483.397 62.2977 491.333L60.5656 490.333C60.5654 483.501 55.769 475.194 49.8527 471.778L49.8526 469.778ZM37.4086 476.962C37.4083 469.026 42.9797 465.809 49.8526 469.778L49.8527 471.778C43.9363 468.361 39.1404 471.13 39.1407 477.962L37.4086 476.962ZM49.8537 498.518C42.9808 494.549 37.4089 484.898 37.4086 476.962L39.1407 477.962C39.1409 484.794 43.9373 493.101 49.8536 496.518L49.8537 498.518ZM62.2977 491.333C62.298 499.269 56.7266 502.486 49.8537 498.518L49.8536 496.518C55.77 499.934 60.5659 497.165 60.5656 490.333L62.2977 491.333ZM49.8529 477.07C53.2378 479.025 55.982 483.778 55.9821 487.686L54.2501 486.686C54.25 483.882 52.2813 480.472 49.853 479.07L49.8529 477.07ZM43.7242 480.609C43.7241 476.7 46.468 475.116 49.8529 477.07L49.853 479.07C47.4246 477.668 45.4561 478.805 45.4562 481.609L43.7242 480.609ZM49.8534 491.225C46.4685 489.27 43.7244 484.517 43.7242 480.609L45.4562 481.609C45.4563 484.413 47.425 487.823 49.8534 489.225L49.8534 491.225ZM55.9821 487.686C55.9823 491.595 53.2384 493.179 49.8534 491.225L49.8534 489.225C52.2817 490.627 54.2502 489.49 54.2501 486.686L55.9821 487.686Z" fill="black" mask="url(#path-368-inside-2_1861_609)"/>
<line x1="247.446" y1="516.157" x2="258.584" y2="522.84" stroke="black"/>
<line x1="257.471" y1="483.856" x2="268.609" y2="490.539" stroke="black"/>
<line x1="290.885" y1="450.441" x2="302.023" y2="457.124" stroke="black"/>
<line x1="306.479" y1="454.896" x2="317.617" y2="461.579" stroke="black"/>
<path d="M258.068 484.069L258.004 484.482L257.673 484.7C250.534 489.398 244.904 499.499 244.904 507.954C244.903 516.797 251.058 520.411 258.633 516.038L295.458 494.775C304.59 489.502 312.021 476.557 312.021 465.898C312.021 455.947 305.559 451.474 297.254 455.24L297.022 455.345L296.915 455.167C293.445 449.403 286.48 448.122 278.464 452.751C268.367 458.581 259.956 471.813 258.068 484.069Z" stroke="black"/>
<path d="M267.803 489.729L267.739 490.142L267.408 490.36C260.269 495.058 254.639 505.159 254.638 513.614C254.638 522.457 260.793 526.072 268.368 521.698L305.192 500.436C314.325 495.162 321.755 482.217 321.756 471.558C321.756 461.608 315.293 457.134 306.989 460.9L306.757 461.005L306.65 460.828C303.18 455.064 296.215 453.783 288.198 458.411C278.102 464.241 269.691 477.473 267.803 489.729Z" fill="white" stroke="black"/>
</g>
<defs>
<clipPath id="clip0_1861_609">
<rect width="338" height="563" fill="white"/>
</clipPath>
</defs>
</svg>
