<svg width="272" height="273" viewBox="0 0 272 273" fill="none" xmlns="http://www.w3.org/2000/svg">
<path d="M161.064 137.078C161.064 150.938 149.588 162.175 135.433 162.175C121.277 162.175 109.802 150.938 109.802 137.078C109.802 123.217 121.277 111.981 135.433 111.981C149.588 111.981 161.064 123.217 161.064 137.078Z" fill="#FF2A50"/>
<path fill-rule="evenodd" clip-rule="evenodd" d="M135.603 159.639C148.058 159.639 158.155 149.542 158.155 137.087C158.155 124.632 148.058 114.534 135.603 114.534C123.148 114.534 113.05 124.632 113.05 137.087C113.05 149.542 123.148 159.639 135.603 159.639ZM135.603 174.639C156.343 174.639 173.155 157.827 173.155 137.087C173.155 116.347 156.343 99.5344 135.603 99.5344C114.863 99.5344 98.0504 116.347 98.0504 137.087C98.0504 157.827 114.863 174.639 135.603 174.639Z" fill="#000"/>
<path fill-rule="evenodd" clip-rule="evenodd" d="M215.146 137.087C215.146 181.017 179.534 216.63 135.603 216.63C91.6724 216.63 56.0596 181.017 56.0596 137.087C56.0596 93.1562 91.6724 57.5435 135.603 57.5435C179.534 57.5435 215.146 93.1562 215.146 137.087ZM135.603 201.63C171.249 201.63 200.146 172.733 200.146 137.087C200.146 101.441 171.249 72.5435 135.603 72.5435C99.9566 72.5435 71.0596 101.441 71.0596 137.087C71.0596 172.733 99.9566 201.63 135.603 201.63Z" fill="#000"/>
<path fill-rule="evenodd" clip-rule="evenodd" d="M158.872 1.08889C160.72 0.309989 162.803 0.303509 164.656 1.0709L209.854 19.7927C211.707 20.5601 213.175 22.0374 213.931 23.8948C214.686 25.7522 214.667 27.8349 213.877 29.6779C210.539 37.4609 212.059 46.8074 218.394 53.1419C224.824 59.5725 234.359 61.0413 242.209 57.5047C244.058 56.6713 246.167 56.6229 248.053 57.3705C249.939 58.1182 251.442 59.5981 252.219 61.4726L270.949 106.692C271.725 108.566 271.709 110.675 270.904 112.538C270.099 114.4 268.574 115.857 266.677 116.576C258.625 119.625 252.922 127.406 252.922 136.5C252.922 145.594 258.625 153.375 266.676 156.425C268.574 157.144 270.099 158.6 270.904 160.463C271.709 162.325 271.725 164.434 270.949 166.309L252.219 211.527C251.442 213.402 249.939 214.882 248.053 215.629C246.167 216.377 244.058 216.329 242.209 215.495C234.359 211.958 224.824 213.427 218.394 219.858C212.059 226.192 210.539 235.539 213.877 243.322C214.667 245.165 214.686 247.248 213.931 249.105C213.175 250.963 211.707 252.44 209.854 253.207L164.656 271.929C162.803 272.696 160.72 272.69 158.872 271.911C157.024 271.132 155.565 269.646 154.821 267.784C151.678 259.92 143.994 254.386 135.036 254.386C126.269 254.386 118.724 259.684 115.458 267.283C113.837 271.053 109.488 272.821 105.697 271.251L60.4981 252.529C56.707 250.958 54.8817 246.633 56.4017 242.821C59.4655 235.139 57.876 226.057 51.6774 219.858C45.5751 213.756 36.6791 212.12 29.0718 214.995C25.2828 216.427 21.0415 214.592 19.4914 210.849L0.760662 165.629C-0.789328 161.887 0.911751 157.591 4.60316 155.924C4.66171 155.897 4.71932 155.871 4.77603 155.845L4.77624 155.845C12.0959 152.461 17.1494 145.063 17.1494 136.5C17.1494 127.876 12.0222 120.433 4.6179 117.083C4.61697 117.083 4.61604 117.083 4.61512 117.082L4.60215 117.076C0.911266 115.409 -0.789369 111.113 0.760483 107.371L19.4913 62.151C21.0413 58.4088 25.2827 56.5735 29.0717 58.0054C36.679 60.8803 45.5751 59.2447 51.6774 53.1423C57.8761 46.9436 59.4656 37.8616 56.4016 30.1789C54.8816 26.3674 56.7068 22.0419 60.498 20.4715L105.697 1.74948C109.488 0.179169 113.837 1.94705 115.458 5.71702C118.724 13.3159 126.269 18.6138 135.036 18.6138C143.994 18.6138 151.678 13.0799 154.821 5.21631C155.566 3.35425 157.024 1.8678 158.872 1.08889ZM165.188 17.5272C158.677 27.2226 147.609 33.6138 135.036 33.6138C122.732 33.6138 111.869 27.4926 105.309 18.1463L72.367 31.7911C74.3371 43.039 70.9843 55.0486 62.284 63.7489C53.7191 72.3139 41.9465 75.6961 30.8522 73.9201L17.1159 107.082C26.2165 113.671 32.1494 124.388 32.1494 136.5C32.1494 148.613 26.2163 159.329 17.1161 165.918L30.8524 199.08C41.9466 197.304 53.7191 200.687 62.284 209.252L58.0414 213.494L62.284 209.252C70.9842 217.952 74.337 229.961 72.3671 241.209L105.309 254.854C111.869 245.507 122.732 239.386 135.036 239.386C147.609 239.386 158.677 245.777 165.188 255.473L197.841 241.947C195.589 230.488 198.896 218.142 207.787 209.251C216.812 200.227 229.396 196.955 241.001 199.411L254.45 166.944C244.507 160.475 237.922 149.263 237.922 136.5C237.922 123.738 244.507 112.526 254.45 106.056L241.001 73.5884C229.396 76.045 216.812 72.7731 207.787 63.7486C198.897 54.858 195.589 42.5123 197.841 31.0528L165.188 17.5272Z" fill="#000"/>
</svg>
