<svg width="272" height="273" viewBox="0 0 272 273" fill="none" xmlns="http://www.w3.org/2000/svg">
<ellipse cx="135.433" cy="137.078" rx="25.6309" ry="25.0969" fill="#FF2A50"/>
<circle cx="135.603" cy="137.087" r="30.0525" stroke="#212529" stroke-width="15"/>
<circle cx="135.603" cy="137.087" r="72.0434" stroke="#212529" stroke-width="15"/>
<path d="M161.785 8L164.656 1.0709C162.803 0.303509 160.72 0.309988 158.872 1.08889C157.024 1.8678 155.566 3.35425 154.821 5.21631L161.785 8ZM206.984 26.7218L213.877 29.6779C214.667 27.8349 214.686 25.7522 213.931 23.8948C213.175 22.0374 211.707 20.5601 209.854 19.7927L206.984 26.7218ZM213.09 58.4452L218.394 53.1419L213.09 58.4452ZM245.29 64.3427L252.219 61.4726C251.442 59.5981 249.939 58.1182 248.053 57.3705C246.167 56.6229 244.058 56.6713 242.209 57.5047L245.29 64.3427ZM264.02 109.562L266.677 116.576C268.574 115.857 270.099 114.4 270.904 112.538C271.709 110.675 271.725 108.566 270.949 106.692L264.02 109.562ZM264.02 163.439L270.949 166.309C271.725 164.434 271.709 162.325 270.904 160.463C270.099 158.6 268.574 157.144 266.676 156.425L264.02 163.439ZM245.29 208.657L242.209 215.495C244.058 216.329 246.167 216.377 248.053 215.629C249.939 214.882 251.442 213.402 252.219 211.527L245.29 208.657ZM213.09 214.554L207.787 209.251L213.09 214.554ZM206.984 246.278L209.854 253.207C211.707 252.44 213.175 250.963 213.931 249.105C214.686 247.248 214.667 245.165 213.877 243.322L206.984 246.278ZM161.785 265L154.821 267.784C155.565 269.646 157.024 271.132 158.872 271.911C160.72 272.69 162.803 272.696 164.656 271.929L161.785 265ZM108.567 264.321L105.697 271.251C109.488 272.821 113.837 271.053 115.458 267.283L108.567 264.321ZM63.3682 245.599L56.4017 242.821C54.8817 246.633 56.707 250.958 60.4981 252.529L63.3682 245.599ZM56.9807 214.555L62.284 209.252L62.284 209.252L56.9807 214.555ZM26.4205 207.979L19.4914 210.849C21.0415 214.592 25.2828 216.427 29.0718 214.995L26.4205 207.979ZM7.68975 162.759L4.60316 155.924C0.911746 157.591 -0.789332 161.887 0.760657 165.629L7.68975 162.759ZM7.92357 162.652L4.77623 155.845L4.77602 155.845L7.92357 162.652ZM7.70532 110.248L10.7955 103.415L10.7927 103.413L7.70532 110.248ZM7.68958 110.241L0.760478 107.371C-0.789374 111.113 0.911261 115.409 4.60215 117.076L7.68958 110.241ZM26.4204 65.0211L29.0717 58.0054C25.2827 56.5735 21.0413 58.4088 19.4913 62.151L26.4204 65.0211ZM56.9807 58.4456L62.284 63.7489L56.9807 58.4456ZM63.3681 27.4006L60.4979 20.4715C56.7068 22.0419 54.8816 26.3674 56.4016 30.1789L63.3681 27.4006ZM108.567 8.67858L115.458 5.71702C113.837 1.94705 109.488 0.179169 105.697 1.74948L108.567 8.67858ZM154.821 5.21631C151.678 13.0799 143.994 18.6138 135.036 18.6138V33.6138C150.336 33.6138 163.407 24.1495 168.75 10.7837L154.821 5.21631ZM209.854 19.7927L164.656 1.0709L158.915 14.9291L204.114 33.6509L209.854 19.7927ZM218.394 53.1419C212.059 46.8074 210.539 37.4609 213.877 29.6779L200.091 23.7656C194.418 36.9944 196.968 52.9297 207.787 63.7486L218.394 53.1419ZM242.209 57.5047C234.359 61.0413 224.824 59.5725 218.394 53.1419L207.787 63.7485C218.77 74.7311 235.024 77.194 248.37 71.1807L242.209 57.5047ZM270.949 106.692L252.219 61.4726L238.36 67.2129L257.091 112.432L270.949 106.692ZM252.922 136.5C252.922 127.406 258.625 119.625 266.677 116.576L261.363 102.548C247.674 107.733 237.922 120.969 237.922 136.5H252.922ZM266.676 156.425C258.625 153.375 252.922 145.594 252.922 136.5H237.922C237.922 152.032 247.674 165.267 261.363 170.452L266.676 156.425ZM252.219 211.527L270.949 166.309L257.091 160.568L238.36 205.787L252.219 211.527ZM218.394 219.858C224.824 213.427 234.359 211.958 242.209 215.495L248.371 201.819C235.024 195.806 218.77 198.269 207.787 209.251L218.394 219.858ZM213.877 243.322C210.539 235.539 212.059 226.192 218.394 219.858L207.787 209.251C196.968 220.07 194.417 236.006 200.091 249.234L213.877 243.322ZM164.656 271.929L209.854 253.207L204.114 239.349L158.915 258.071L164.656 271.929ZM135.036 254.386C143.994 254.386 151.678 259.92 154.821 267.784L168.75 262.216C163.407 248.851 150.336 239.386 135.036 239.386V254.386ZM115.458 267.283C118.724 259.684 126.269 254.386 135.036 254.386V239.386C120.063 239.386 107.225 248.45 101.677 261.36L115.458 267.283ZM60.4981 252.529L105.697 271.251L111.437 257.392L66.2383 238.67L60.4981 252.529ZM51.6774 219.858C57.876 226.057 59.4655 235.139 56.4017 242.821L70.3347 248.378C75.5397 235.326 72.8709 219.839 62.284 209.252L51.6774 219.858ZM29.0718 214.995C36.6791 212.12 45.5751 213.756 51.6774 219.858L62.284 209.252C51.8615 198.829 36.6891 196.081 23.7692 200.964L29.0718 214.995ZM0.760657 165.629L19.4914 210.849L33.3496 205.109L14.6189 159.889L0.760657 165.629ZM4.77602 155.845C4.71931 155.871 4.66171 155.897 4.60316 155.924L10.7763 169.595C10.8741 169.551 10.9723 169.506 11.0711 169.46L4.77602 155.845ZM17.1494 136.5C17.1494 145.063 12.0959 152.461 4.77623 155.845L11.0709 169.46C23.5004 163.714 32.1494 151.125 32.1494 136.5H17.1494ZM4.61511 117.082C12.021 120.431 17.1494 127.875 17.1494 136.5H32.1494C32.1494 121.768 23.3731 109.102 10.7955 103.415L4.61511 117.082ZM4.60215 117.076L4.61789 117.083L10.7927 103.413L10.777 103.406L4.60215 117.076ZM19.4913 62.151L0.760478 107.371L14.6187 113.111L33.3495 67.8913L19.4913 62.151ZM51.6774 53.1423C45.5751 59.2447 36.679 60.8803 29.0717 58.0054L23.769 72.0368C36.6889 76.9195 51.8614 74.1715 62.284 63.7489L51.6774 53.1423ZM56.4016 30.1789C59.4656 37.8616 57.8761 46.9436 51.6774 53.1423L62.284 63.7489C72.8711 53.1618 75.5398 37.6745 70.3345 24.6224L56.4016 30.1789ZM105.697 1.74948L60.4979 20.4715L66.2382 34.3297L111.437 15.6077L105.697 1.74948ZM135.036 18.6138C126.269 18.6138 118.724 13.3159 115.458 5.71702L101.677 11.6401C107.225 24.5499 120.063 33.6138 135.036 33.6138V18.6138Z" fill="#212529"/>
</svg>
