<svg width="272" height="272" viewBox="0 0 272 272" fill="none" xmlns="http://www.w3.org/2000/svg">
<path d="M161 137C161 150.807 149.807 162 136 162C122.193 162 111 150.807 111 137C111 123.193 122.193 112 136 112C149.807 112 161 123.193 161 137Z" fill="#FF2A50"/>
<path fill-rule="evenodd" clip-rule="evenodd" d="M158.684 0.588893C160.532 -0.190011 162.615 -0.196491 164.468 0.570903L209.666 19.2927C211.519 20.0601 212.987 21.5374 213.743 23.3948C214.499 25.2522 214.479 27.3349 213.689 29.1779C210.351 36.9609 211.871 46.3074 218.206 52.6419C224.636 59.0725 234.171 60.5413 242.021 57.0047C243.871 56.1713 245.979 56.1229 247.865 56.8705C249.752 57.6182 251.254 59.0981 252.031 60.9726L270.761 106.192C271.538 108.066 271.521 110.175 270.716 112.038C269.911 113.9 268.386 115.357 266.489 116.076C258.438 119.125 252.734 126.906 252.734 136C252.734 145.094 258.437 152.875 266.488 155.925C268.386 156.644 269.911 158.1 270.716 159.963C271.521 161.825 271.537 163.934 270.761 165.809L252.031 211.027C251.254 212.902 249.752 214.382 247.865 215.129C245.979 215.877 243.871 215.829 242.021 214.995C234.171 211.458 224.636 212.927 218.206 219.358C211.871 225.692 210.351 235.039 213.689 242.822C214.479 244.665 214.499 246.748 213.743 248.605C212.987 250.463 211.519 251.94 209.666 252.707L164.468 271.429C162.615 272.196 160.532 272.19 158.684 271.411C156.837 270.632 155.378 269.146 154.633 267.284C151.49 259.42 143.806 253.886 134.848 253.886C126.082 253.886 118.536 259.184 115.27 266.783C113.649 270.553 109.3 272.321 105.509 270.751L60.3102 252.029C56.5192 250.458 54.6939 246.133 56.2139 242.321C59.2777 234.639 57.6881 225.557 51.4895 219.358C45.3872 213.256 36.4912 211.62 28.884 214.495C25.095 215.927 20.8536 214.092 19.3036 210.349L0.572796 165.129C-0.977194 161.387 0.723884 157.091 4.4153 155.424C4.47385 155.397 4.53145 155.371 4.58816 155.345L4.58837 155.345C11.908 151.961 16.9615 144.563 16.9615 136C16.9615 127.376 11.8344 119.933 4.43003 116.583C4.4291 116.583 4.42818 116.583 4.42725 116.582L4.41429 116.576C0.7234 114.909 -0.977236 110.613 0.572617 106.871L19.3034 61.651C20.8535 57.9088 25.0949 56.0735 28.8839 57.5054C36.4912 60.3803 45.3872 58.7447 51.4896 52.6423C57.6882 46.4436 59.2777 37.3616 56.2138 29.6789C54.6937 25.8674 56.519 21.5419 60.3101 19.9715L105.509 1.24948C109.3 -0.320831 113.649 1.44705 115.27 5.21702C118.536 12.8159 126.082 18.1138 134.848 18.1138C143.806 18.1138 151.49 12.5799 154.633 4.71631C155.378 2.85425 156.837 1.3678 158.684 0.588893ZM165 17.0272C158.489 26.7226 147.421 33.1138 134.848 33.1138C122.544 33.1138 111.681 26.9926 105.121 17.6463L72.1791 31.2911C74.1493 42.539 70.7965 54.5486 62.0962 63.2489C53.5312 71.8139 41.7586 75.1961 30.6644 73.4201L16.928 106.582C26.0287 113.171 31.9615 123.888 31.9615 136C31.9615 148.113 26.0284 158.829 16.9282 165.418L30.6645 198.58C41.7587 196.804 53.5312 200.187 62.0961 208.752L57.8535 212.994L62.0961 208.752C70.7963 217.452 74.1491 229.461 72.1792 240.709L105.121 254.354C111.681 245.007 122.544 238.886 134.848 238.886C147.421 238.886 158.489 245.277 165 254.973L197.653 241.447C195.401 229.988 198.708 217.642 207.599 208.751C216.624 199.727 229.208 196.455 240.813 198.911L254.262 166.444C244.319 159.975 237.734 148.763 237.734 136C237.734 123.238 244.319 112.026 254.262 105.556L240.813 73.0884C229.208 75.545 216.624 72.2731 207.599 63.2486C198.709 54.358 195.402 42.0123 197.654 30.5528L165 17.0272Z" fill="black"/>
<path fill-rule="evenodd" clip-rule="evenodd" d="M136 202C171.899 202 201 172.899 201 137C201 101.101 171.899 72 136 72C100.101 72 71 101.101 71 137C71 172.899 100.101 202 136 202ZM136 217C180.183 217 216 181.183 216 137C216 92.8172 180.183 57 136 57C91.8172 57 56 92.8172 56 137C56 181.183 91.8172 217 136 217Z" fill="black"/>
</svg>
