<svg width="154" height="154" viewBox="0 0 154 154" fill="none" xmlns="http://www.w3.org/2000/svg">
<mask id="path-1-outside-1_1811_7" maskUnits="userSpaceOnUse" x="25" y="10" width="43" height="114" fill="black">
<rect fill="white" x="25" y="10" width="43" height="114"/>
<path d="M32.4154 122.234L27.5166 119.421C26.5746 118.784 26 117.54 26 115.808V38.0996C26 34.4262 28.5714 29.984 31.7437 28.1552L58.3681 12.7845C60.0526 11.8111 61.5692 11.7743 62.6188 12.5038L67.4782 15.3218"/>
</mask>
<path d="M32.4154 122.234L27.5166 119.421C26.5746 118.784 26 117.54 26 115.808V38.0996C26 34.4262 28.5714 29.984 31.7437 28.1552L58.3681 12.7845C60.0526 11.8111 61.5692 11.7743 62.6188 12.5038L67.4782 15.3218" fill="#2AB2FF"/>
<path d="M27.5166 119.421L26.9561 120.249L26.9866 120.27L27.0187 120.289L27.5166 119.421ZM31.7437 28.1552L32.2431 29.0215L32.2436 29.0212L31.7437 28.1552ZM58.3681 12.7845L58.8681 13.6506L58.8684 13.6504L58.3681 12.7845ZM62.6188 12.5038L62.0481 13.3249L62.0817 13.3483L62.1171 13.3688L62.6188 12.5038ZM32.9133 121.367L28.0145 118.554L27.0187 120.289L31.9174 123.101L32.9133 121.367ZM28.0771 118.593C27.5037 118.205 27 117.34 27 115.808H25C25 117.74 25.6455 119.362 26.9561 120.249L28.0771 118.593ZM27 115.808V38.0996H25V115.808H27ZM27 38.0996C27 36.4795 27.5735 34.6221 28.548 32.9361C29.5226 31.25 30.8445 29.8278 32.2431 29.0215L31.2442 27.2888C29.4705 28.3114 27.9207 30.0247 26.8164 31.9353C25.7122 33.8459 25 36.0463 25 38.0996H27ZM32.2436 29.0212L58.8681 13.6506L57.8681 11.9185L31.2437 27.2891L32.2436 29.0212ZM58.8684 13.6504C60.3595 12.7887 61.4324 12.897 62.0481 13.3249L63.1895 11.6826C61.7061 10.6517 59.7457 10.8334 57.8677 11.9187L58.8684 13.6504ZM62.1171 13.3688L66.9765 16.1869L67.9798 14.4568L63.1204 11.6387L62.1171 13.3688Z" fill="white" mask="url(#path-1-outside-1_1811_7)"/>
<path d="M63.259 15.6078L36.6345 30.9811C33.4623 32.8178 30.8909 37.2626 30.8909 40.9256V118.632C30.8909 122.305 33.4623 123.777 36.6345 121.948L63.259 106.583C66.4312 104.746 69 100.285 69 96.6382V18.9244C69 15.272 66.4312 13.7763 63.259 15.6078Z" fill="#2AB2FF"/>
<path d="M63.2223 17.7752L57.1874 21.2544V22.4089C57.1569 23.0183 56.9833 23.6119 56.6806 24.1416C56.3779 24.6713 55.9546 25.1223 55.4451 25.4579L44.459 31.8024C43.9919 32.0648 43.5459 32.1146 43.2153 31.9257C42.8847 31.7368 42.6905 31.3249 42.6905 30.7843V29.6298L36.6556 33.1091C35.4163 33.9176 34.385 35.0067 33.6451 36.2882C32.9053 37.5696 32.4777 39.0073 32.397 40.4848V117.314C32.397 118.626 32.8457 119.61 33.646 120.072C34.4463 120.534 35.5273 120.426 36.6556 119.776L63.2039 104.447C64.444 103.639 65.4758 102.549 66.2158 101.267C66.9557 99.9852 67.3828 98.5467 67.4625 97.0686V20.2338C67.4625 18.9218 67.0138 17.9379 66.2161 17.4761C65.4185 17.0143 64.3348 17.1245 63.2039 17.7752H63.2223Z" fill="white" stroke="#2AB2FF" stroke-miterlimit="10"/>
<path d="M44.3607 30.7244C44.5421 30.6062 44.6931 30.447 44.8016 30.2597C44.9101 30.0724 44.9729 29.8621 44.9852 29.646C44.9852 29.2498 44.7044 29.0871 44.3607 29.2865C44.1797 29.4049 44.029 29.5641 43.921 29.7515C43.813 29.9388 43.7506 30.149 43.7388 30.3649C43.7388 30.7507 44.017 30.9238 44.3607 30.7244Z" stroke="white" stroke-miterlimit="10"/>
<path d="M28.8171 59.3845C28.8038 59.1375 28.7324 58.8972 28.6089 58.6829C28.4854 58.4687 28.3131 58.2865 28.106 58.1513C27.7151 57.9256 27.3976 58.1093 27.3976 58.5632V63.2311C27.411 63.4774 27.4821 63.717 27.6052 63.9308C27.7282 64.1445 27.8998 64.3264 28.106 64.4617C28.4996 64.69 28.8171 64.5037 28.8171 64.0524V59.3845Z" stroke="white" stroke-miterlimit="10"/>
<path d="M28.7148 52.1898C28.7051 52.0271 28.6576 51.8688 28.5761 51.7276C28.4945 51.5865 28.3812 51.4662 28.2451 51.3764C27.9828 51.2269 27.7755 51.3502 27.7755 51.6388V53.8035C27.7852 53.9663 27.8327 54.1245 27.9143 54.2657C27.9958 54.4069 28.1091 54.5271 28.2451 54.6169C28.5075 54.7665 28.7148 54.6458 28.7148 54.3545V52.1898Z" stroke="white" stroke-miterlimit="10"/>
<path d="M28.8171 68.0328C28.8038 67.7858 28.7324 67.5455 28.6089 67.3312C28.4854 67.117 28.3131 66.9348 28.106 66.7996C27.7151 66.5739 27.3976 66.7576 27.3976 67.2115V71.8794C27.411 72.1257 27.4821 72.3653 27.6052 72.5791C27.7282 72.7928 27.8998 72.9747 28.106 73.11C28.4996 73.3382 28.8171 73.152 28.8171 72.7006V68.0328Z" stroke="white" stroke-miterlimit="10"/>
<g style="mix-blend-mode:multiply">
<path d="M92.433 56.0346L127.567 35.75L127.567 121.176L92.433 141.461L92.433 56.0346Z" stroke="#FFE100" stroke-miterlimit="10"/>
<path d="M92.4505 65.1965L127.515 44.952" stroke="#FFE100" stroke-miterlimit="10"/>
<path d="M122.377 55.2315L97.5905 69.5421L97.5905 109.556L122.377 95.2449L122.377 55.2315Z" stroke="#FFE100" stroke-miterlimit="10"/>
<path d="M122.377 100.535L97.5905 114.846L97.5905 122.835L122.377 108.524L122.377 100.535Z" stroke="#FFE100" stroke-miterlimit="10"/>
<path d="M123.55 41.6168L120.487 43.3853L120.487 43.9256L123.55 42.1571L123.55 41.6168Z" fill="#FFE100"/>
<path d="M123.55 42.8069L120.487 44.5754L120.487 45.1157L123.55 43.3472L123.55 42.8069Z" fill="#FFE100"/>
<path d="M123.55 43.9971L120.487 45.7656L120.487 46.3059L123.55 44.5374L123.55 43.9971Z" fill="#FFE100"/>
<path d="M97.5905 69.5421L122.375 95.2462" stroke="#FFE100" stroke-miterlimit="10"/>
<path d="M122.375 55.2328L97.5905 109.556" stroke="#FFE100" stroke-miterlimit="10"/>
<path d="M100.156 54.1653L96.0589 56.5307L96.0589 61.2365L100.156 58.8711L100.156 54.1653Z" stroke="#FFE100" stroke-miterlimit="10"/>
<path d="M96.0589 56.5307L100.156 58.8711" stroke="#FFE100" stroke-miterlimit="10"/>
<path d="M100.156 54.1653L96.0589 61.2365" stroke="#FFE100" stroke-miterlimit="10"/>
<path d="M100.888 115.106L102.51 114.169C102.626 114.09 102.743 114.04 102.853 114.021C102.963 114.003 103.063 114.016 103.147 114.062C103.23 114.107 103.295 114.182 103.337 114.283C103.379 114.384 103.397 114.507 103.39 114.645C103.39 115.233 103.108 115.617 102.767 115.83L102.767 115.864C102.869 115.802 102.97 115.766 103.065 115.756C103.159 115.746 103.244 115.764 103.315 115.808C103.386 115.852 103.44 115.921 103.475 116.011C103.51 116.1 103.525 116.209 103.519 116.33C103.531 116.599 103.447 116.918 103.285 117.216C103.124 117.514 102.898 117.768 102.658 117.921L100.888 118.943L100.888 115.106ZM101.615 116.252L102.337 115.835C102.378 115.816 102.42 115.786 102.459 115.747C102.497 115.709 102.533 115.663 102.562 115.613C102.591 115.562 102.614 115.509 102.628 115.456C102.642 115.404 102.648 115.353 102.644 115.308L102.644 115.141C102.648 115.092 102.642 115.047 102.628 115.011C102.614 114.975 102.591 114.948 102.562 114.931C102.533 114.915 102.497 114.91 102.459 114.916C102.42 114.922 102.378 114.94 102.337 114.968L101.615 115.386L101.615 116.252ZM101.615 117.818L102.449 117.337C102.49 117.318 102.531 117.289 102.571 117.252C102.61 117.214 102.646 117.168 102.675 117.118C102.705 117.068 102.728 117.014 102.743 116.962C102.758 116.909 102.763 116.858 102.76 116.812L102.76 116.624C102.763 116.575 102.757 116.531 102.743 116.495C102.728 116.459 102.705 116.432 102.675 116.416C102.646 116.4 102.61 116.395 102.571 116.402C102.532 116.409 102.49 116.428 102.449 116.457L101.613 116.94L101.615 117.818Z" fill="#FFE100"/>
<path d="M104.767 112.866L104.767 115.215C104.767 115.756 104.939 115.925 105.369 115.677C105.798 115.429 105.973 115.067 105.973 114.519L105.973 112.17L106.68 111.762L106.68 114.027C106.68 115.157 106.328 115.867 105.369 116.421C104.41 116.974 104.058 116.671 104.058 115.541L104.058 113.276L104.767 112.866Z" fill="#FFE100"/>
<path d="M108.791 111.284L108.791 114.38L108.064 114.799L108.064 111.704L107.155 112.229L107.155 111.488L109.691 110.023L109.691 110.765L108.791 111.284Z" fill="#FFE100"/>
<path d="M111.656 109.63L111.656 112.725L110.929 113.145L110.929 110.05L110.02 110.574L110.02 109.833L112.561 108.366L112.561 109.108L111.656 109.63Z" fill="#FFE100"/>
<path d="M112.808 110.142C112.808 108.837 113.392 107.821 114.276 107.311C115.16 106.8 115.746 107.143 115.746 108.445C115.746 109.748 115.162 110.766 114.276 111.278C113.39 111.79 112.808 111.444 112.808 110.142ZM114.976 109.177L114.976 108.611C114.976 108.003 114.713 107.808 114.276 108.06C113.84 108.312 113.583 108.799 113.583 109.415L113.583 109.989C113.583 110.597 113.847 110.792 114.281 110.542C114.715 110.291 114.976 109.785 114.976 109.177Z" fill="#FFE100"/>
<path d="M117.371 107.612L117.051 107.014L117.037 107.022L117.037 109.606L116.355 109.999L116.355 106.163L117.149 105.705L118.057 106.994L118.378 107.579L118.391 107.571L118.391 104.987L119.073 104.593L119.073 108.43L118.287 108.884L117.371 107.612Z" fill="#FFE100"/>
<path d="M102.687 124.585L97.5905 127.528L97.5905 133.382L102.687 130.439L102.687 124.585Z" stroke="#FFE100" stroke-miterlimit="10"/>
<path d="M112.531 118.902L107.434 121.844L107.434 127.699L112.531 124.756L112.531 118.902Z" stroke="#FFE100" stroke-miterlimit="10"/>
<path d="M122.375 113.218L117.278 116.161L117.278 122.015L122.375 119.073L122.375 113.218Z" stroke="#FFE100" stroke-miterlimit="10"/>
</g>
<g style="mix-blend-mode:multiply">
<path d="M93.5947 31.5248L90.5316 33.2933L90.5316 33.8364L93.5947 32.068L93.5947 31.5248Z" fill="#FFE100"/>
<path d="M93.5947 32.7213L90.5316 34.4898L90.5316 35.033L93.5947 33.2645L93.5947 32.7213Z" fill="#FFE100"/>
<path fill-rule="evenodd" clip-rule="evenodd" d="M96.9781 35.725L62.9 55.4L62.9 54.4L96.9781 34.725L96.9781 35.725Z" fill="#FFE100"/>
<path d="M93.5947 33.9178L90.5316 35.6863L90.5316 36.2295L93.5947 34.461L93.5947 33.9178Z" fill="#FFE100"/>
<path d="M90.9656 91.5944L69.0921 104.223C68.2877 104.688 67.6355 105.817 67.6355 106.746L67.6355 111.414C67.6355 112.343 68.2877 112.719 69.0921 112.255L90.9656 99.6261C91.7701 99.1616 92.4222 98.0321 92.4222 97.1032L92.4222 92.4354C92.4222 91.5065 91.7701 91.13 90.9656 91.5944Z" fill="#FFE100" stroke="#FFE100" stroke-miterlimit="10"/>
<path d="M90.6902 46.2084L69.3676 58.519C68.411 59.0712 67.6355 60.4144 67.6355 61.519L67.6355 97.7455C67.6355 98.8501 68.411 99.2978 69.3676 98.7455L90.6902 86.4349C91.6467 85.8827 92.4222 84.5395 92.4222 83.4349L92.4222 47.2084C92.4222 46.1038 91.6468 45.6561 90.6902 46.2084Z" fill="#FFE100" stroke="#FFE100" stroke-miterlimit="10"/>
<path d="M72.9392 107.475L73.4164 106.644C73.52 106.723 73.6487 106.761 73.7935 106.753C73.9383 106.746 74.0958 106.693 74.2549 106.6C74.6094 106.396 74.782 106.115 74.782 105.832C74.782 105.622 74.7048 105.511 74.3935 105.641L74.064 105.782C73.3596 106.083 73.0392 105.872 73.0392 105.224C73.0392 104.534 73.5073 103.784 74.2935 103.33C74.5087 103.194 74.7235 103.112 74.9232 103.09C75.1229 103.068 75.3027 103.106 75.4501 103.202L74.9684 104.045C74.8814 103.974 74.7713 103.942 74.6466 103.95C74.522 103.959 74.3863 104.008 74.2503 104.095C73.9254 104.282 73.7663 104.518 73.7663 104.749C73.7663 104.98 73.8867 105.044 74.164 104.934L74.4935 104.804C75.1752 104.539 75.5092 104.701 75.5092 105.362C75.5092 106.102 75.0388 106.888 74.2071 107.368C73.9691 107.515 73.732 107.601 73.5129 107.62C73.2937 107.638 73.0979 107.589 72.9392 107.475V107.475Z" fill="white"/>
<path d="M77.393 102.351L77.393 105.463L76.6659 105.883L76.6659 102.771L75.7569 103.296L75.7569 102.55L78.2929 101.086L78.2929 101.831L77.393 102.351Z" fill="white"/>
<path d="M80.5401 103.646L80.3129 102.859L79.1972 103.503L78.9586 104.559L78.211 104.991L79.3108 100.499L80.2197 99.9738L81.3059 103.204L80.5401 103.646ZM79.7516 101.008L79.7266 101.022L79.3585 102.699L80.1243 102.257L79.7516 101.008Z" fill="white"/>
<path d="M82.4876 102.522L81.7559 102.944L81.7559 99.0869L83.3465 98.1686C83.9646 97.8117 84.3554 98.0846 84.3554 98.8193C84.3715 99.0458 84.3211 99.3104 84.2117 99.5736C84.1024 99.8367 83.94 100.084 83.7487 100.279L84.4032 101.416L83.5942 101.883L83.0102 100.798L82.4876 101.099L82.4876 102.522ZM83.2534 99.9567C83.299 99.9376 83.3455 99.906 83.3894 99.8645C83.4333 99.8229 83.4734 99.7724 83.507 99.7165C83.5405 99.6607 83.5666 99.601 83.5833 99.5417C83.5999 99.4825 83.6068 99.4253 83.6033 99.3742L83.6033 99.1433C83.6064 99.0886 83.5992 99.0397 83.5824 99C83.5656 98.9603 83.5395 98.9309 83.5061 98.9139C83.4726 98.8968 83.4326 98.8925 83.3889 98.9014C83.3452 98.9102 83.2989 98.9319 83.2534 98.9649L82.4876 99.407L82.4876 100.412L83.2534 99.9567Z" fill="white"/>
<path d="M86.2619 97.2305L86.2619 100.342L85.5348 100.762L85.5348 97.6504L84.6258 98.1751L84.6258 97.43L87.1618 95.9658L87.1618 96.711L86.2619 97.2305Z" fill="white"/>
<path d="M72.7324 117.813C72.7324 116.188 71.5914 115.53 70.184 116.342C68.7765 117.155 67.6355 119.131 67.6355 120.756C67.6355 122.381 68.7765 123.04 70.184 122.227C71.5914 121.415 72.7324 119.439 72.7324 117.813Z" fill="#FFE100"/>
<path d="M82.5762 112.13C82.5762 110.505 81.4352 109.846 80.0278 110.659C78.6203 111.471 77.4793 113.448 77.4793 115.073C77.4793 116.698 78.6203 117.357 80.0278 116.544C81.4352 115.732 82.5762 113.755 82.5762 112.13Z" fill="#FFE100"/>
<path d="M92.42 106.447C92.42 104.822 91.279 104.163 89.8715 104.976C88.4641 105.788 87.3231 107.764 87.3231 109.39C87.3231 111.015 88.4641 111.674 89.8715 110.861C91.279 110.048 92.42 108.072 92.42 106.447Z" fill="#FFE100"/>
<path d="M92.4222 73.4071C91.5812 71.9203 90.3968 70.8532 88.9431 70.2726C87.4894 69.692 85.7977 69.6104 83.9737 70.0328C85.4559 68.1762 86.6115 65.9725 87.2619 63.7621C87.9124 61.5516 88.0216 59.4574 87.5726 57.803C87.1236 56.1485 86.1414 55.0259 84.7777 54.6084C83.4141 54.1909 81.7448 54.5018 80.0277 55.4932C78.3107 56.4845 76.6414 58.1011 75.2777 60.0932C73.9141 62.0853 72.9319 64.3421 72.4829 66.515C72.0339 68.6879 72.143 70.6561 72.7935 72.1154C73.444 73.5747 74.5996 74.4441 76.0818 74.5892C74.2581 76.2728 72.5667 78.3077 71.1134 80.5666C69.6601 82.8256 68.4761 85.2601 67.6355 87.7177L67.6355 97.7456C67.6355 98.8501 68.411 99.2978 69.3676 98.7456L90.6902 86.435C91.6467 85.8827 92.4222 84.5395 92.4222 83.435L92.4222 73.4071Z" fill="#FFE100"/>
<path d="M69.9533 119.23L69.7511 119.347L69.7511 118.985L69.9533 118.868L69.9533 118.674C69.9465 118.612 69.9529 118.541 69.9721 118.467C69.9913 118.393 70.0228 118.318 70.0641 118.247C70.1053 118.177 70.1553 118.113 70.2102 118.061C70.2651 118.008 70.3233 117.968 70.3805 117.945L70.6441 117.793L70.6441 118.155L70.3578 118.32L70.3578 118.635L70.6441 118.469L70.6441 118.832L70.3578 118.997L70.3578 120.288L69.9533 120.521L69.9533 119.23Z" fill="white"/>
<path d="M79.0768 113.194L79.0768 113.126C79.0768 112.992 79.1472 112.854 79.304 112.764C79.4608 112.673 79.5313 112.73 79.5313 112.864L79.5313 112.932C79.5313 113.066 79.4608 113.203 79.304 113.294C79.1472 113.384 79.0768 113.328 79.0768 113.194ZM79.1109 113.581L79.5131 113.349L79.5131 115.002L79.1109 115.234L79.1109 113.581Z" fill="white"/>
<path d="M79.8903 114.784L79.8903 113.131L80.2925 112.899L80.2925 113.18L80.3107 113.169C80.3358 113.058 80.3889 112.942 80.4612 112.843C80.5335 112.744 80.6207 112.666 80.7084 112.622C80.9992 112.454 81.1628 112.599 81.1628 113.013L81.1628 114.05L80.7606 114.282L80.7606 113.282C80.7606 113.072 80.7084 112.997 80.5607 113.083C80.413 113.168 80.3016 113.311 80.3016 113.476L80.3016 114.547L79.8903 114.784Z" fill="white"/>
<path d="M90.0408 108.924C89.9838 108.966 89.9258 108.993 89.8712 109.003C89.8166 109.014 89.7669 109.007 89.7259 108.984C89.6849 108.961 89.6537 108.923 89.6346 108.871C89.6156 108.819 89.6091 108.756 89.6159 108.686L89.6159 107.878L89.4137 107.995L89.4137 107.633L89.5136 107.575C89.6227 107.512 89.6568 107.43 89.6568 107.317L89.6568 107.054L90.0181 106.846L90.0181 107.292L90.3021 107.128L90.3021 107.49L90.0181 107.654L90.0181 108.583L90.2794 108.432L90.2794 108.794L90.0408 108.924Z" fill="white"/>
</g>
<g style="mix-blend-mode:multiply">
<path d="M93.5947 31.5248L90.5316 33.2933L90.5316 33.8364L93.5947 32.068L93.5947 31.5248Z" fill="#2AB2FF"/>
<path d="M93.5947 32.7213L90.5316 34.4898L90.5316 35.033L93.5947 33.2645L93.5947 32.7213Z" fill="#2AB2FF"/>
<path fill-rule="evenodd" clip-rule="evenodd" d="M96.9781 35.725L62.9 55.4L62.9 54.4L96.9781 34.725L96.9781 35.725Z" fill="#2AB2FF"/>
<path d="M92.4222 73.4071C91.5812 71.9203 90.3968 70.8532 88.9431 70.2726C87.4894 69.692 85.7977 69.6104 83.9737 70.0328C85.4559 68.1762 86.6115 65.9725 87.2619 63.7621C87.9124 61.5516 88.0216 59.4574 87.5726 57.803C87.1236 56.1485 86.1414 55.0259 84.7777 54.6084C83.4141 54.1909 81.7448 54.5018 80.0277 55.4932C78.3107 56.4845 76.6414 58.1011 75.2777 60.0932C73.9141 62.0853 72.9319 64.3421 72.4829 66.515C72.0339 68.6879 72.143 70.6561 72.7935 72.1154C73.444 73.5747 74.5996 74.4441 76.0818 74.5892C74.2581 76.2728 72.5667 78.3077 71.1134 80.5666C69.6601 82.8256 68.4761 85.2601 67.6355 87.7177L67.6355 97.7456C67.6355 98.8501 68.411 99.2978 69.3676 98.7456L90.6902 86.435C91.6467 85.8827 92.4222 84.5395 92.4222 83.435L92.4222 73.4071Z" fill="#2AB2FF"/>
<path d="M93.5947 33.9178L90.5316 35.6863L90.5316 36.2295L93.5947 34.461L93.5947 33.9178Z" fill="#2AB2FF"/>
<path d="M90.9656 91.5944L69.0921 104.223C68.2877 104.688 67.6355 105.817 67.6355 106.746L67.6355 111.414C67.6355 112.343 68.2877 112.719 69.0921 112.255L90.9656 99.6261C91.7701 99.1616 92.4222 98.0321 92.4222 97.1032L92.4222 92.4354C92.4222 91.5065 91.7701 91.13 90.9656 91.5944Z" fill="#2AB2FF" stroke="#2AB2FF" stroke-miterlimit="10"/>
<path d="M90.6902 46.2084L69.3676 58.519C68.411 59.0712 67.6355 60.4144 67.6355 61.519L67.6355 97.7455C67.6355 98.8501 68.411 99.2978 69.3676 98.7455L90.6902 86.4349C91.6467 85.8827 92.4222 84.5395 92.4222 83.4349L92.4222 47.2084C92.4222 46.1038 91.6468 45.6561 90.6902 46.2084Z" stroke="#2AB2FF" stroke-miterlimit="10"/>
<path d="M72.9392 107.475L73.4164 106.644C73.52 106.723 73.6487 106.761 73.7935 106.753C73.9383 106.746 74.0958 106.693 74.2549 106.6C74.6094 106.396 74.782 106.115 74.782 105.832C74.782 105.622 74.7048 105.511 74.3935 105.641L74.064 105.782C73.3596 106.083 73.0392 105.872 73.0392 105.224C73.0392 104.534 73.5073 103.784 74.2935 103.33C74.5087 103.194 74.7235 103.112 74.9232 103.09C75.1229 103.068 75.3027 103.106 75.4501 103.202L74.9684 104.045C74.8814 103.974 74.7713 103.942 74.6466 103.95C74.522 103.959 74.3863 104.008 74.2503 104.095C73.9254 104.282 73.7663 104.518 73.7663 104.749C73.7663 104.98 73.8867 105.044 74.164 104.934L74.4935 104.804C75.1752 104.539 75.5092 104.701 75.5092 105.362C75.5092 106.102 75.0388 106.888 74.2071 107.368C73.9691 107.515 73.732 107.601 73.5129 107.62C73.2937 107.638 73.0979 107.589 72.9392 107.475V107.475Z" fill="white"/>
<path d="M77.393 102.351L77.393 105.463L76.6659 105.883L76.6659 102.771L75.7569 103.296L75.7569 102.55L78.2929 101.086L78.2929 101.831L77.393 102.351Z" fill="white"/>
<path d="M80.5401 103.646L80.3129 102.859L79.1972 103.503L78.9586 104.559L78.211 104.991L79.3108 100.499L80.2197 99.9738L81.3059 103.204L80.5401 103.646ZM79.7516 101.008L79.7266 101.022L79.3585 102.699L80.1243 102.257L79.7516 101.008Z" fill="white"/>
<path d="M82.4876 102.522L81.7559 102.944L81.7559 99.0869L83.3465 98.1686C83.9646 97.8117 84.3554 98.0846 84.3554 98.8193C84.3715 99.0458 84.3211 99.3104 84.2117 99.5736C84.1024 99.8367 83.94 100.084 83.7487 100.279L84.4032 101.416L83.5942 101.883L83.0102 100.798L82.4876 101.099L82.4876 102.522ZM83.2534 99.9567C83.299 99.9376 83.3455 99.906 83.3894 99.8645C83.4333 99.8229 83.4734 99.7724 83.507 99.7165C83.5405 99.6607 83.5666 99.601 83.5833 99.5417C83.5999 99.4825 83.6068 99.4253 83.6033 99.3742L83.6033 99.1433C83.6064 99.0886 83.5992 99.0397 83.5824 99C83.5656 98.9603 83.5395 98.9309 83.5061 98.9139C83.4726 98.8968 83.4326 98.8925 83.3889 98.9014C83.3452 98.9102 83.2989 98.9319 83.2534 98.9649L82.4876 99.407L82.4876 100.412L83.2534 99.9567Z" fill="white"/>
<path d="M86.2619 97.2305L86.2619 100.342L85.5348 100.762L85.5348 97.6504L84.6258 98.1751L84.6258 97.43L87.1618 95.9658L87.1618 96.711L86.2619 97.2305Z" fill="white"/>
<path d="M72.7324 117.813C72.7324 116.188 71.5914 115.53 70.184 116.342C68.7765 117.155 67.6355 119.131 67.6355 120.756C67.6355 122.381 68.7765 123.04 70.184 122.227C71.5914 121.415 72.7324 119.439 72.7324 117.813Z" fill="#2AB2FF"/>
<path d="M82.5762 112.13C82.5762 110.505 81.4352 109.846 80.0278 110.659C78.6203 111.471 77.4793 113.448 77.4793 115.073C77.4793 116.698 78.6203 117.357 80.0278 116.544C81.4352 115.732 82.5762 113.755 82.5762 112.13Z" fill="#2AB2FF"/>
<path d="M92.42 106.447C92.42 104.822 91.279 104.163 89.8715 104.976C88.4641 105.788 87.3231 107.764 87.3231 109.39C87.3231 111.015 88.4641 111.674 89.8715 110.861C91.279 110.048 92.42 108.072 92.42 106.447Z" fill="#2AB2FF"/>
<path d="M69.9533 119.23L69.7511 119.347L69.7511 118.985L69.9533 118.868L69.9533 118.674C69.9465 118.612 69.9529 118.541 69.9721 118.467C69.9913 118.393 70.0228 118.318 70.0641 118.247C70.1053 118.177 70.1553 118.113 70.2102 118.061C70.2651 118.008 70.3233 117.968 70.3805 117.945L70.6441 117.793L70.6441 118.155L70.3578 118.32L70.3578 118.635L70.6441 118.469L70.6441 118.832L70.3578 118.997L70.3578 120.288L69.9533 120.521L69.9533 119.23Z" fill="white"/>
<path d="M79.0768 113.194L79.0768 113.126C79.0768 112.992 79.1472 112.854 79.304 112.764C79.4608 112.673 79.5313 112.73 79.5313 112.864L79.5313 112.932C79.5313 113.066 79.4608 113.203 79.304 113.294C79.1472 113.384 79.0768 113.328 79.0768 113.194ZM79.1109 113.581L79.5131 113.349L79.5131 115.002L79.1109 115.234L79.1109 113.581Z" fill="white"/>
<path d="M79.8903 114.784L79.8903 113.131L80.2925 112.899L80.2925 113.18L80.3107 113.169C80.3358 113.058 80.3889 112.942 80.4612 112.843C80.5335 112.744 80.6207 112.666 80.7084 112.622C80.9992 112.454 81.1628 112.599 81.1628 113.013L81.1628 114.05L80.7606 114.282L80.7606 113.282C80.7606 113.072 80.7084 112.997 80.5607 113.083C80.413 113.168 80.3016 113.311 80.3016 113.476L80.3016 114.547L79.8903 114.784Z" fill="white"/>
<path d="M90.0408 108.924C89.9838 108.966 89.9258 108.993 89.8712 109.003C89.8166 109.014 89.7669 109.007 89.7259 108.984C89.6849 108.961 89.6537 108.923 89.6346 108.871C89.6156 108.819 89.6091 108.756 89.6159 108.686L89.6159 107.878L89.4137 107.995L89.4137 107.633L89.5136 107.575C89.6227 107.512 89.6568 107.43 89.6568 107.317L89.6568 107.054L90.0181 106.846L90.0181 107.292L90.3021 107.128L90.3021 107.49L90.0181 107.654L90.0181 108.583L90.2794 108.432L90.2794 108.794L90.0408 108.924Z" fill="white"/>
</g>
<path fill-rule="evenodd" clip-rule="evenodd" d="M70.0535 45.2789L70.0535 47.8399L68.1352 50.2281L68.1352 47.6671L70.0535 45.2789ZM68.3084 47.6825L68.3084 49.7814L69.8803 47.8245L69.8803 45.7255L68.3084 47.6825Z" fill="#FF2A50"/>
<path fill-rule="evenodd" clip-rule="evenodd" d="M66.2514 47.4742L68.1721 47.6457L68.1721 50.2067L66.2514 50.0351L66.2514 47.4742ZM66.4246 47.7206L66.4246 49.8196L67.9989 49.9603L67.9989 47.8612L66.4246 47.7206Z" fill="#2AB2FF"/>
<path fill-rule="evenodd" clip-rule="evenodd" d="M68.1535 45.1322L70.0742 45.3038L68.1535 47.6931L66.2329 47.5215L68.1535 45.1322ZM66.5793 47.3215L68.1535 47.4622L69.7278 45.5038L68.1535 45.3631L66.5793 47.3215Z" fill="#FFE100"/>
</svg>
