<svg id="e329YiXqwPV1" xmlns="http://www.w3.org/2000/svg" xmlns:xlink="http://www.w3.org/1999/xlink" viewBox="0 0 154 154" shape-rendering="geometricPrecision" text-rendering="geometricPrecision"><style><![CDATA[#e329YiXqwPV2_to {animation: e329YiXqwPV2_to__to 6000ms linear infinite normal forwards}@keyframes e329YiXqwPV2_to__to { 0% {transform: translate(47.5px,67.366614px);animation-timing-function: cubic-bezier(0.42,0,0.58,1)} 50% {transform: translate(77.5px,77.366614px);animation-timing-function: cubic-bezier(0.42,0,0.58,1)} 100% {transform: translate(47.5px,67.366614px)}} #e329YiXqwPV10_to {animation: e329YiXqwPV10_to__to 6000ms linear infinite normal forwards}@keyframes e329YiXqwPV10_to__to { 0% {transform: translate(110px,88.605499px);animation-timing-function: cubic-bezier(0.42,0,0.58,1)} 50% {transform: translate(80px,78.605499px);animation-timing-function: cubic-bezier(0.42,0,0.58,1)} 100% {transform: translate(110px,88.605499px)}} #e329YiXqwPV10 {animation: e329YiXqwPV10_c_o 6000ms linear infinite normal forwards}@keyframes e329YiXqwPV10_c_o { 0% {opacity: 1} 25% {opacity: 1;animation-timing-function: cubic-bezier(0.42,0,0.58,1)} 50% {opacity: 0;animation-timing-function: cubic-bezier(0.42,0,0.58,1)} 75% {opacity: 1} 100% {opacity: 1}} #e329YiXqwPV32_to {animation: e329YiXqwPV32_to__to 6000ms linear infinite normal forwards}@keyframes e329YiXqwPV32_to__to { 0% {transform: translate(109.939px,87.050037px);animation-timing-function: cubic-bezier(0.42,0,0.58,1)} 50% {transform: translate(79.939px,77.050037px);animation-timing-function: cubic-bezier(0.42,0,0.58,1)} 100% {transform: translate(109.939px,87.050037px)}} #e329YiXqwPV32 {animation: e329YiXqwPV32_c_o 6000ms linear infinite normal forwards}@keyframes e329YiXqwPV32_c_o { 0% {opacity: 0} 16.666667% {opacity: 0;animation-timing-function: cubic-bezier(0.42,0,0.58,1)} 50% {opacity: 1;animation-timing-function: cubic-bezier(0.42,0,0.58,1)} 83.333333% {opacity: 0} 100% {opacity: 0}}]]></style><g id="e329YiXqwPV2_to" transform="translate(47.5,67.366614)"><g transform="translate(-47.5,-67.366614)"><path d="M32.4154,122.234l-4.8988-2.813C26.5746,118.784,26,117.54,26,115.808v-77.7084c0-3.6734,2.5714-8.1156,5.7437-9.9444L58.3681,12.7845c1.6845-.9734,3.2011-1.0102,4.2507-.2807l4.8594,2.818" fill="#2ab2ff"/><path d="M63.259,15.6078L36.6345,30.9811c-3.1722,1.8367-5.7436,6.2815-5.7436,9.9445v77.7064c0,3.673,2.5714,5.145,5.7436,3.316L63.259,106.583C66.4312,104.746,69,100.285,69,96.6382v-77.7138c0-3.6524-2.5688-5.1481-5.741-3.3166Z" fill="#2ab2ff"/><path d="M63.2223,17.7752l-6.0349,3.4792v1.1545c-.0305.6094-.2041,1.203-.5068,1.7327s-.726.9807-1.2355,1.3163L44.459,31.8024c-.4671.2624-.9131.3122-1.2437.1233s-.5248-.6008-.5248-1.1414v-1.1545l-6.0349,3.4793c-1.2393.8085-2.2706,1.8976-3.0105,3.1791-.7398,1.2814-1.1674,2.7191-1.2481,4.1966v76.8292c0,1.312.4487,2.296,1.249,2.758s1.8813.354,3.0096-.296l26.5483-15.329c1.2401-.808,2.2719-1.898,3.0119-3.18.7399-1.2818,1.167-2.7203,1.2467-4.1984v-76.8348c0-1.312-.4487-2.2959-1.2464-2.7577-.7976-.4618-1.8813-.3516-3.0122.2991h.0184Z" fill="#fff" stroke="#2ab2ff" stroke-miterlimit="10"/><path d="M44.3607,30.7244c.1814-.1182.3324-.2774.4409-.4647s.1713-.3976.1836-.6137c0-.3962-.2808-.5589-.6245-.3595-.181.1184-.3317.2776-.4397.465s-.1704.3975-.1822.6134c0,.3858.2782.5589.6219.3595Z" fill="none" stroke="#fff" stroke-miterlimit="10"/><path d="M28.8171,59.3845c-.0133-.247-.0847-.4873-.2082-.7016-.1235-.2142-.2958-.3964-.5029-.5316-.3909-.2257-.7084-.042-.7084.4119v4.6679c.0134.2463.0845.4859.2076.6997.123.2137.2946.3956.5008.5309.3936.2283.7111.042.7111-.4093v-4.6679Z" fill="none" stroke="#fff" stroke-miterlimit="10"/><path d="M28.7148,52.1898c-.0097-.1627-.0572-.321-.1387-.4622-.0816-.1411-.1949-.2614-.331-.3512-.2623-.1495-.4696-.0262-.4696.2624v2.1647c.0097.1628.0572.321.1388.4622.0815.1412.1948.2614.3308.3512.2624.1496.4697.0289.4697-.2624v-2.1647Z" fill="none" stroke="#fff" stroke-miterlimit="10"/><path d="M28.8171,68.0328c-.0133-.247-.0847-.4873-.2082-.7016-.1235-.2142-.2958-.3964-.5029-.5316-.3909-.2257-.7084-.042-.7084.4119v4.6679c.0134.2463.0845.4859.2076.6997s.2946.3956.5008.5309c.3936.2282.7111.042.7111-.4094v-4.6678Z" fill="none" stroke="#fff" stroke-miterlimit="10"/></g></g><g id="e329YiXqwPV10_to" transform="translate(110,88.605499)"><g id="e329YiXqwPV10" style="mix-blend-mode:multiply" transform="translate(-110,-88.605499)"><path d="M92.433,141.461v-85.4264L127.567,35.75v85.426L92.433,141.461Z" fill="none" stroke="#FBEB5C" stroke-miterlimit="10"/><path d="M92.4505,65.1965L127.515,44.952" fill="none" stroke="#FBEB5C" stroke-miterlimit="10"/><path d="M122.377,55.2315L97.5905,69.5421v40.0139L122.377,95.2449v-40.0134Z" fill="none" stroke="#FBEB5C" stroke-miterlimit="10"/><path d="M122.377,100.535L97.5905,114.846v7.989l24.7865-14.311v-7.989Z" fill="none" stroke="#FBEB5C" stroke-miterlimit="10"/><path d="M123.55,41.6168l-3.063,1.7685v.5403l3.063-1.7685v-.5403Z" fill="#FBEB5C"/><path d="M123.55,42.8069l-3.063,1.7685v.5403l3.063-1.7685v-.5403Z" fill="#FBEB5C"/><path d="M123.55,43.9971l-3.063,1.7685v.5403l3.063-1.7685v-.5403Z" fill="#FBEB5C"/><path d="M97.5905,69.5421L122.375,95.2462" fill="none" stroke="#FBEB5C" stroke-miterlimit="10"/><path d="M122.375,55.2328L97.5905,109.556" fill="none" stroke="#FBEB5C" stroke-miterlimit="10"/><path d="M100.156,54.1653l-4.0971,2.3654v4.7058l4.0971-2.3654v-4.7058Z" fill="none" stroke="#FBEB5C" stroke-miterlimit="10"/><path d="M96.0589,56.5307l4.0971,2.3404" fill="none" stroke="#FBEB5C" stroke-miterlimit="10"/><path d="M100.156,54.1653l-4.0971,7.0712" fill="none" stroke="#FBEB5C" stroke-miterlimit="10"/><path d="M100.888,115.106l1.622-.937c.116-.079.233-.129.343-.148.11-.018.21-.005.294.041.083.045.148.12.19.221s.06.224.053.362c0,.588-.282.972-.623,1.185v.034c.102-.062.203-.098.298-.108.094-.01.179.008.25.052s.125.113.16.203c.035.089.05.198.044.319.012.269-.072.588-.234.886-.161.298-.387.552-.627.705l-1.77,1.022v-3.837Zm.727,1.146l.722-.417c.041-.019.083-.049.122-.088.038-.038.074-.084.103-.134.029-.051.052-.104.066-.157.014-.052.02-.103.016-.148v-.167c.004-.049-.002-.094-.016-.13s-.037-.063-.066-.08c-.029-.016-.065-.021-.103-.015-.039.006-.081.024-.122.052l-.722.418v.866Zm0,1.566l.834-.481c.041-.019.082-.048.122-.085.039-.038.075-.084.104-.134.03-.05.053-.104.068-.156.015-.053.02-.104.017-.15v-.188c.003-.049-.003-.093-.017-.129-.015-.036-.038-.063-.068-.079-.029-.016-.065-.021-.104-.014s-.081.026-.122.055l-.836.483.002.878Z" fill="#FBEB5C"/><path d="M104.767,112.866v2.349c0,.541.172.71.602.462.429-.248.604-.61.604-1.158v-2.349l.707-.408v2.265c0,1.13-.352,1.84-1.311,2.394-.959.553-1.311.25-1.311-.88v-2.265l.709-.41Z" fill="#FBEB5C"/><path d="M108.791,111.284v3.096l-.727.419v-3.095l-.909.525v-.741l2.536-1.465v.742l-.9.519Z" fill="#FBEB5C"/><path d="M111.656,109.63v3.095l-.727.42v-3.095l-.909.524v-.741l2.541-1.467v.742l-.905.522Z" fill="#FBEB5C"/><path d="M112.808,110.142c0-1.305.584-2.321,1.468-2.831.884-.511,1.47-.168,1.47,1.134c0,1.303-.584,2.321-1.47,2.833s-1.468.166-1.468-1.136Zm2.168-.965v-.566c0-.608-.263-.803-.7-.551-.436.252-.693.739-.693,1.355v.574c0,.608.264.803.698.553.434-.251.695-.757.695-1.365Z" fill="#FBEB5C"/><path d="M117.371,107.612l-.32-.598-.014.008v2.584l-.682.393v-3.836l.794-.458.908,1.289.321.585.013-.008v-2.584l.682-.394v3.837l-.786.454-.916-1.272Z" fill="#FBEB5C"/><path d="M102.687,124.585l-5.0965,2.943v5.854l5.0965-2.943v-5.854Z" fill="none" stroke="#FBEB5C" stroke-miterlimit="10"/><path d="M112.531,118.902l-5.097,2.942v5.855l5.097-2.943v-5.854Z" fill="none" stroke="#FBEB5C" stroke-miterlimit="10"/><path d="M122.375,113.218l-5.097,2.943v5.854l5.097-2.942v-5.855Z" fill="none" stroke="#FBEB5C" stroke-miterlimit="10"/></g></g><g id="e329YiXqwPV32_to" transform="translate(109.939,87.050037)"><g id="e329YiXqwPV32" transform="translate(-109.938999,-87.050037)" opacity="0"><g style="mix-blend-mode:multiply"><path d="M123.595,41.5248l-3.063,1.7685v.5431l3.063-1.7684v-.5432Z" fill="#FBEB5C"/><path d="M123.595,42.7213l-3.063,1.7685v.5432l3.063-1.7685v-.5432Z" fill="#FBEB5C"/><path d="M126.978,45.725L92.9,65.4v-1l34.078-19.675v1Z" clip-rule="evenodd" fill="#FBEB5C" fill-rule="evenodd"/><path d="M123.595,43.9178l-3.063,1.7685v.5432l3.063-1.7685v-.5432Z" fill="#FBEB5C"/><path d="M120.966,101.594L99.0921,114.223c-.8044.465-1.4566,1.594-1.4566,2.523v4.668c0,.929.6522,1.305,1.4566.841l21.8739-12.629c.804-.464,1.456-1.594,1.456-2.523v-4.668c0-.929-.652-1.305-1.456-.841Z" fill="#FBEB5C" stroke="#FBEB5C" stroke-miterlimit="10"/><path d="M120.69,56.2084L99.3676,68.519c-.9566.5522-1.7321,1.8954-1.7321,3v36.227c0,1.104.7755,1.552,1.7321,1L120.69,96.4349c.957-.5522,1.732-1.8954,1.732-3v-36.2265c0-1.1046-.775-1.5523-1.732-1Z" fill="#FBEB5C" stroke="#FBEB5C" stroke-miterlimit="10"/><path d="M102.939,117.475l.477-.831c.104.079.233.117.378.109.144-.007.302-.06.461-.153.354-.204.527-.485.527-.768c0-.21-.077-.321-.389-.191l-.329.141c-.704.301-1.025.09-1.025-.558c0-.69.468-1.44,1.254-1.894.216-.136.431-.218.63-.24.2-.022.38.016.527.112l-.482.843c-.087-.071-.197-.103-.321-.095-.125.009-.261.058-.397.145-.325.187-.484.423-.484.654s.121.295.398.185l.329-.13c.682-.265,1.016-.103,1.016.558c0,.74-.47,1.526-1.302,2.006-.238.147-.475.233-.694.252-.219.018-.415-.031-.574-.145Z" fill="#fff"/><path d="M107.393,112.351v3.112l-.727.42v-3.112l-.909.525v-.746l2.536-1.464v.745l-.9.52Z" fill="#fff"/><path d="M110.54,113.646l-.227-.787-1.116.644-.238,1.056-.748.432l1.1-4.492.909-.525l1.086,3.23-.766.442Zm-.788-2.638l-.025.014-.368,1.677.765-.442-.372-1.249Z" fill="#fff"/><path d="M112.488,112.522l-.732.422v-3.857l1.591-.918c.618-.357,1.008-.084,1.008.65.016.227-.034.491-.143.755-.11.263-.272.51-.463.705l.654,1.137-.809.467-.584-1.085-.522.301v1.423Zm.765-2.565c.046-.019.092-.051.136-.093.044-.041.084-.092.118-.147.034-.056.06-.116.076-.175.017-.059.024-.117.02-.168v-.231c.003-.054-.004-.103-.021-.143-.016-.04-.042-.069-.076-.086-.033-.017-.073-.021-.117-.013-.044.009-.09.031-.136.064l-.765.442v1.005l.765-.455Z" fill="#fff"/><path d="M116.262,107.231v3.111l-.727.42v-3.112l-.909.525v-.745l2.536-1.464v.745l-.9.52Z" fill="#fff"/><path d="M102.732,127.813c0-1.625-1.141-2.283-2.548-1.471-1.4075.813-2.5485,2.789-2.5485,4.414s1.141,2.284,2.5485,1.471c1.407-.812,2.548-2.788,2.548-4.414Z" fill="#FBEB5C"/><path d="M112.576,122.13c0-1.625-1.141-2.284-2.548-1.471-1.408.812-2.549,2.789-2.549,4.414s1.141,2.284,2.549,1.471c1.407-.812,2.548-2.789,2.548-4.414Z" fill="#FBEB5C"/><path d="M122.42,116.447c0-1.625-1.141-2.284-2.548-1.471-1.408.812-2.549,2.788-2.549,4.414c0,1.625,1.141,2.284,2.549,1.471c1.407-.813,2.548-2.789,2.548-4.414Z" fill="#FBEB5C"/><path d="M122.422,83.4071c-.841-1.4868-2.025-2.5539-3.479-3.1345s-3.145-.6622-4.969-.2398c1.482-1.8566,2.637-4.0603,3.288-6.2707.65-2.2105.76-4.3047.311-5.9591s-1.432-2.7771-2.795-3.1946c-1.364-.4175-3.033-.1066-4.75.8848-1.717.9913-3.387,2.6079-4.75,4.6-1.364,1.9921-2.346,4.2489-2.795,6.4218s-.34,4.1411.311,5.6004c.65,1.4593,1.806,2.3287,3.288,2.4738-1.824,1.6836-3.515,3.7185-4.969,5.9774-1.4529,2.259-2.6369,4.6935-3.4775,7.1511v10.0283c0,1.104.7755,1.552,1.7321,1L120.69,96.435c.957-.5523,1.732-1.8955,1.732-3v-10.0279Z" fill="#FBEB5C"/><path d="M99.9533,129.23l-.2022.117v-.362l.2022-.117v-.194c-.0068-.062-.0004-.133.0188-.207s.0509-.149.0919-.22c.041-.07.091-.134.146-.186.055-.053.113-.093.171-.116l.263-.152v.362l-.286.165v.315l.286-.166v.363l-.286.165v1.291l-.4047.233v-1.291Z" fill="#fff"/><path d="M109.077,123.194v-.068c0-.134.07-.272.227-.362.157-.091.227-.034.227.1v.068c0,.134-.07.271-.227.362-.157.09-.227.034-.227-.1Zm.034.387l.402-.232v1.653l-.402.232v-1.653Z" fill="#fff"/><path d="M109.89,124.784v-1.653l.403-.232v.281l.018-.011c.025-.111.078-.227.15-.326s.16-.177.247-.221c.291-.168.455-.023.455.391v1.037l-.402.232v-1c0-.21-.053-.285-.2-.199-.148.085-.259.228-.259.393v1.071l-.412.237Z" fill="#fff"/><path d="M120.041,118.924c-.057.042-.115.069-.17.079-.054.011-.104.004-.145-.019s-.072-.061-.091-.113-.026-.115-.019-.185v-.808l-.202.117v-.362l.1-.058c.109-.063.143-.145.143-.258v-.263l.361-.208v.446l.284-.164v.362l-.284.164v.929l.261-.151v.362l-.238.13Z" fill="#fff"/></g><g style="mix-blend-mode:multiply"><path d="M123.595,41.5248l-3.063,1.7685v.5431l3.063-1.7684v-.5432Z" fill="#2ab2ff"/><path d="M123.595,42.7213l-3.063,1.7685v.5432l3.063-1.7685v-.5432Z" fill="#2ab2ff"/><path d="M126.978,45.725L92.9,65.4v-1l34.078-19.675v1Z" clip-rule="evenodd" fill="#2ab2ff" fill-rule="evenodd"/><path d="M122.422,83.4071c-.841-1.4868-2.025-2.5539-3.479-3.1345s-3.145-.6622-4.969-.2398c1.482-1.8566,2.637-4.0603,3.288-6.2707.65-2.2105.76-4.3047.311-5.9591s-1.432-2.7771-2.795-3.1946c-1.364-.4175-3.033-.1066-4.75.8848-1.717.9913-3.387,2.6079-4.75,4.6-1.364,1.9921-2.346,4.2489-2.795,6.4218s-.34,4.1411.311,5.6004c.65,1.4593,1.806,2.3287,3.288,2.4738-1.824,1.6836-3.515,3.7185-4.969,5.9774-1.4529,2.259-2.6369,4.6935-3.4775,7.1511v10.0283c0,1.104.7755,1.552,1.7321,1L120.69,96.435c.957-.5523,1.732-1.8955,1.732-3v-10.0279Z" fill="#2ab2ff"/><path d="M123.595,43.9178l-3.063,1.7685v.5432l3.063-1.7685v-.5432Z" fill="#2ab2ff"/><path d="M120.966,101.594L99.0921,114.223c-.8044.465-1.4566,1.594-1.4566,2.523v4.668c0,.929.6522,1.305,1.4566.841l21.8739-12.629c.804-.464,1.456-1.594,1.456-2.523v-4.668c0-.929-.652-1.305-1.456-.841Z" fill="#2ab2ff" stroke="#2ab2ff" stroke-miterlimit="10"/><path d="M120.69,56.2084L99.3676,68.519c-.9566.5522-1.7321,1.8954-1.7321,3v36.227c0,1.104.7755,1.552,1.7321,1L120.69,96.4349c.957-.5522,1.732-1.8954,1.732-3v-36.2265c0-1.1046-.775-1.5523-1.732-1Z" fill="none" stroke="#2ab2ff" stroke-miterlimit="10"/><path d="M102.939,117.475l.477-.831c.104.079.233.117.378.109.144-.007.302-.06.461-.153.354-.204.527-.485.527-.768c0-.21-.077-.321-.389-.191l-.329.141c-.704.301-1.025.09-1.025-.558c0-.69.468-1.44,1.254-1.894.216-.136.431-.218.63-.24.2-.022.38.016.527.112l-.482.843c-.087-.071-.197-.103-.321-.095-.125.009-.261.058-.397.145-.325.187-.484.423-.484.654s.121.295.398.185l.329-.13c.682-.265,1.016-.103,1.016.558c0,.74-.47,1.526-1.302,2.006-.238.147-.475.233-.694.252-.219.018-.415-.031-.574-.145Z" fill="#fff"/><path d="M107.393,112.351v3.112l-.727.42v-3.112l-.909.525v-.746l2.536-1.464v.745l-.9.52Z" fill="#fff"/><path d="M110.54,113.646l-.227-.787-1.116.644-.238,1.056-.748.432l1.1-4.492.909-.525l1.086,3.23-.766.442Zm-.788-2.638l-.025.014-.368,1.677.765-.442-.372-1.249Z" fill="#fff"/><path d="M112.488,112.522l-.732.422v-3.857l1.591-.918c.618-.357,1.008-.084,1.008.65.016.227-.034.491-.143.755-.11.263-.272.51-.463.705l.654,1.137-.809.467-.584-1.085-.522.301v1.423Zm.765-2.565c.046-.019.092-.051.136-.093.044-.041.084-.092.118-.147.034-.056.06-.116.076-.175.017-.059.024-.117.02-.168v-.231c.003-.054-.004-.103-.021-.143-.016-.04-.042-.069-.076-.086-.033-.017-.073-.021-.117-.013-.044.009-.09.031-.136.064l-.765.442v1.005l.765-.455Z" fill="#fff"/><path d="M116.262,107.231v3.111l-.727.42v-3.112l-.909.525v-.745l2.536-1.464v.745l-.9.52Z" fill="#fff"/><path d="M102.732,127.813c0-1.625-1.141-2.283-2.548-1.471-1.4075.813-2.5485,2.789-2.5485,4.414s1.141,2.284,2.5485,1.471c1.407-.812,2.548-2.788,2.548-4.414Z" fill="#2ab2ff"/><path d="M112.576,122.13c0-1.625-1.141-2.284-2.548-1.471-1.408.812-2.549,2.789-2.549,4.414s1.141,2.284,2.549,1.471c1.407-.812,2.548-2.789,2.548-4.414Z" fill="#2ab2ff"/><path d="M122.42,116.447c0-1.625-1.141-2.284-2.548-1.471-1.408.812-2.549,2.788-2.549,4.414c0,1.625,1.141,2.284,2.549,1.471c1.407-.813,2.548-2.789,2.548-4.414Z" fill="#2ab2ff"/><path d="M99.9533,129.23l-.2022.117v-.362l.2022-.117v-.194c-.0068-.062-.0004-.133.0188-.207s.0509-.149.0919-.22c.041-.07.091-.134.146-.186.055-.053.113-.093.171-.116l.263-.152v.362l-.286.165v.315l.286-.166v.363l-.286.165v1.291l-.4047.233v-1.291Z" fill="#fff"/><path d="M109.077,123.194v-.068c0-.134.07-.272.227-.362.157-.091.227-.034.227.1v.068c0,.134-.07.271-.227.362-.157.09-.227.034-.227-.1Zm.034.387l.402-.232v1.653l-.402.232v-1.653Z" fill="#fff"/><path d="M109.89,124.784v-1.653l.403-.232v.281l.018-.011c.025-.111.078-.227.15-.326s.16-.177.247-.221c.291-.168.455-.023.455.391v1.037l-.402.232v-1c0-.21-.053-.285-.2-.199-.148.085-.259.228-.259.393v1.071l-.412.237Z" fill="#fff"/><path d="M120.041,118.924c-.057.042-.115.069-.17.079-.054.011-.104.004-.145-.019s-.072-.061-.091-.113-.026-.115-.019-.185v-.808l-.202.117v-.362l.1-.058c.109-.063.143-.145.143-.258v-.263l.361-.208v.446l.284-.164v.362l-.284.164v.929l.261-.151v.362l-.238.13Z" fill="#fff"/></g><g style="mix-blend-mode:multiply"><path d="M100.054,55.2789v2.561l-1.9188,2.3882v-2.561l1.9188-2.3882Z" clip-rule="evenodd" fill="#ff2a50" fill-rule="evenodd" stroke="#fff" stroke-width="0.1" stroke-linejoin="round"/><path d="M96.2514,57.4742l1.9207.1715v2.561l-1.9207-.1716v-2.5609Z" clip-rule="evenodd" fill="#2ab2ff" fill-rule="evenodd" stroke="#fff" stroke-width="0.1" stroke-linejoin="round"/><path d="M98.1535,55.1322l1.9205.1716-1.9205,2.3893-1.9206-.1716l1.9206-2.3893Z" clip-rule="evenodd" fill="#FBEB5C" fill-rule="evenodd" stroke="#fff" stroke-width="0.1" stroke-linejoin="round"/></g></g></g></svg>