<svg id="eTSHgKGi1rC1" xmlns="http://www.w3.org/2000/svg" xmlns:xlink="http://www.w3.org/1999/xlink" viewBox="0 0 154 154" shape-rendering="geometricPrecision" text-rendering="geometricPrecision"><style><![CDATA[#eTSHgKGi1rC2_to {animation: eTSHgKGi1rC2_to__to 6000ms linear infinite normal forwards}@keyframes eTSHgKGi1rC2_to__to { 0% {transform: translate(65.898804px,103.23325px);animation-timing-function: cubic-bezier(0.42,0,0.58,1)} 50% {transform: translate(55.898804px,118.23325px);animation-timing-function: cubic-bezier(0.42,0,0.58,1)} 100% {transform: translate(65.900403px,103.230749px)}} #eTSHgKGi1rC14_to {animation: eTSHgKGi1rC14_to__to 6000ms linear infinite normal forwards}@keyframes eTSHgKGi1rC14_to__to { 0% {transform: translate(61.559952px,69.278717px);animation-timing-function: cubic-bezier(0.42,0,0.58,1)} 50% {transform: translate(51.559952px,64.278717px);animation-timing-function: cubic-bezier(0.42,0,0.58,1)} 100% {transform: translate(61.559952px,69.278717px)}} #eTSHgKGi1rC25_to {animation: eTSHgKGi1rC25_to__to 6000ms linear infinite normal forwards}@keyframes eTSHgKGi1rC25_to__to { 0% {transform: translate(92.563499px,85.278519px);animation-timing-function: cubic-bezier(0.42,0,0.58,1)} 50% {transform: translate(102.563499px,90.278519px);animation-timing-function: cubic-bezier(0.42,0,0.58,1)} 100% {transform: translate(92.563499px,85.278481px)}} #eTSHgKGi1rC35_to {animation: eTSHgKGi1rC35_to__to 6000ms linear infinite normal forwards}@keyframes eTSHgKGi1rC35_to__to { 0% {transform: translate(88.607986px,50.622749px);animation-timing-function: cubic-bezier(0.42,0,0.58,1)} 50% {transform: translate(98.607986px,35.622749px);animation-timing-function: cubic-bezier(0.42,0,0.58,1)} 100% {transform: translate(88.608017px,50.622749px)}}]]></style><g id="eTSHgKGi1rC2_to" transform="translate(65.898804,103.23325)"><g style="mix-blend-mode:multiply" transform="translate(-65.898804,-103.23325)"><path d="M85.423,88.7018c-.2761-.1556-.587-.2389-.9039-.242-.695.0186-1.3686.2444-1.9344.6485-.7273.495-1.3587,1.1181-1.8633,1.8388-.2023.2862-.4543.5336-.744.7307-.2251.162-.4934.2533-.7707.2621-.1118.0002-.2222-.0255-.3224-.0752-.1002-.0498-.1875-.1221-.255-.2113-.1529-.219-.2308-.4815-.2221-.7485v-3.4134c.1935-.1647.3967-.3174.6085-.4575.5652-.4056,1.239-.6323,1.9344-.6508.3392.003.6711.099.9594.2776l3.5135,2.041Z" fill="#ffe100"/><path d="M48.8629,95.7553v34.1087l-3.5645-2.075v-34.108l3.5645,2.0743Z" fill="#ffe100"/><path d="M86.4956,91.0737c-.0177.8612-.1986,1.7113-.533,2.5051-.3518.8693-.839,1.6773-1.4435,2.3942-.5343.65-1.1916,1.1881-1.9344,1.5834-.5655.3188-1.2245.4303-1.8633.3154-.2549-.0466-.5181-.0026-.744.1244-.2962.157-.5582.3714-.7707.6307-.2417.2842-.4366.605-.5774.9505-.1359.3171-.2112.6566-.2221,1.0016v12.215L48.8696,129.852v-34.0967l10.578-6.1074c.0748-.0449.1618-.0651.2487-.0577.0265.0035.052.0118.0755.0244.0432.0194.079.0521.1022.0933.0454.0786.0655.1693.0578.2598-.005.1147-.0306.2275-.0756.3331-.4627,1.0037-.7411,2.0825-.8217,3.1848-.0283.4638.0015.9294.0888,1.3858v0c.0737.3985.2165.7811.422,1.1304.1782.3042.4247.5628.7199.7555s.6311.3142.9813.355c.7218.0888,1.5546-.12,2.3941-.6063.9307-.5625,1.7461-1.2965,2.403-2.1632.7283-.933,1.304-1.9757,1.7056-3.0892.3723-.9929.5452-2.0495.5086-3.1092-.0212-.4358-.1065-.8661-.2532-1.277-.1271-.3531-.3226-.6776-.5752-.955v0c-.0489-.072-.0745-.1573-.0733-.2443-.0014-.1115.0182-.2222.0578-.3265.0428-.1156.1027-.2241.1777-.322.0688-.0884.1531-.1637.2487-.2221l10.578-6.1074v12.2259c-.0087.2669.0692.5295.2221.7485.0675.0892.1548.1615.255.2112.1002.0498.2106.0755.3224.0752.2773-.0087.5456-.1.7707-.262.2897-.1971.5417-.4446.744-.7307.5046-.7207,1.136-1.3438,1.8633-1.8389.5658-.404,1.2394-.6299,1.9344-.6485.3169.0032.6278.0865.9039.2421l.0422.0244c.1928.1203.3615.2755.4974.4575.371.5542.554,1.2129.5219,1.8789v0Z" fill="#fff"/><path d="M78.4117,78.679L67.8336,84.7864c-.0956.0584-.1799.1337-.2487.2221-.0749.0979-.1348.2064-.1777.322-.0395.1042-.0591.215-.0577.3265-.0012.087.0244.1723.0733.2443l-3.5223-2.0255-.0356-.0399c-.0505-.0714-.0769-.1569-.0755-.2443-.0002-.1114.0193-.222.0578-.3265.0432-.1161.103-.2253.1776-.3242.0706-.0869.1545-.1618.2488-.2221l10.5802-6.1074l3.5579,2.0676Z" fill="#ffe100"/><path d="M67.747,91.2602c-.4016,1.1135-.9773,2.1562-1.7056,3.0893-.6569.8666-1.4723,1.6007-2.403,2.1631-.8439.4864-1.6723.6952-2.3941.6063-.3502-.0407-.6861-.1622-.9813-.3549s-.5417-.4513-.7199-.7555c-.2055-.3493-.3483-.7319-.422-1.1304.3321-.112.652-.2571.955-.4331.9291-.5647,1.7435-1.2993,2.4008-2.1654.7278-.9325,1.3035-1.9744,1.7056-3.087.3741-.9924.547-2.0493.5086-3.1092-.0202-.4359-.1055-.8664-.2532-1.277-.1202-.3377-.3041-.6491-.5419-.9172l3.5268,2.0343c.2526.2774.448.6019.5752.955.1466.4109.2319.8412.2532,1.277.0373,1.0579-.134,2.1129-.5042,3.1047v0Z" fill="#ffe100"/><path d="M59.7674,89.6146c-.0235-.0126-.0491-.0209-.0755-.0244-.0869-.0074-.1739.0128-.2487.0577L48.8651,95.7553L45.3006,93.681l10.5781-6.1074c.0745-.0456.1617-.0659.2487-.0577.0367.0039.0718.0168.1022.0377l3.5378,2.061Z" fill="#ffe100"/><path d="M85.4629,88.7263l-3.5534-2.0655c-.2883-.1786-.6202-.2746-.9594-.2776-.6961.0184-1.3706.2451-1.9366.6508-.2111.1401-.4136.2929-.6063.4575" fill="none" stroke="#ffe100" stroke-miterlimit="10"/><path d="M78.4117,78.679L67.8336,84.7864c-.0962.0577-.1806.133-.2487.2221-.0758.0973-.1357.206-.1777.322-.0403.1041-.0607.2149-.06.3265-.0004.0872.026.1725.0756.2443.4886.5197.775,1.2925.8328,2.2364.0368,1.06-.1368,2.1167-.5108,3.1092-.4008,1.1134-.9758,2.1561-1.7034,3.0893-.6574.8661-1.4728,1.6-2.403,2.1631-.8462.4864-1.6746.6951-2.3963.6063-.35-.0406-.6857-.162-.9806-.3547-.2948-.1928-.5408-.4515-.7184-.7557-.3909-.6397-.5685-1.5102-.513-2.5163.0783-1.1027.3567-2.1818.8217-3.1847.0449-.1057.0705-.2185.0755-.3332.0078-.0904-.0124-.1811-.0577-.2598-.019-.0317-.0447-.0587-.0755-.0791s-.0657-.0335-.1022-.0386c-.0876-.0074-.1754.0128-.251.0577l-10.578,6.1074v34.1154" fill="none" stroke="#ffe100" stroke-miterlimit="10"/><path d="M48.8629,95.7553L45.3095,93.681" fill="none" stroke="#ffe100" stroke-miterlimit="10"/><path d="M59.7941,89.6301l-3.5535-2.0765c-.0306-.0203-.0656-.0332-.1021-.0377-.0877-.0085-.1758.0118-.251.0577L45.3095,93.681v34.108l3.5534,2.075l29.5377-17.059v-12.215c.0107-.345.0861-.6844.222-1.0015.1408-.3454.3357-.6663.5775-.9505.2127-.2599.4756-.4744.7728-.6307.2253-.1265.4876-.1705.7418-.1244.6389.1151,1.2979.0036,1.8633-.3154.7431-.3947,1.4006-.9329,1.9344-1.5834.6052-.7164,1.0925-1.5245,1.4436-2.3941.3343-.7939.5152-1.644.533-2.5052.0311-.671-.1559-1.3341-.533-1.89-.1676-.2248-.3854-.4073-.636-.5331-.2506-.1257-.5272-.191-.8076-.1909-.695.0189-1.3685.2447-1.9344.6485-.7268.4957-1.3581,1.1187-1.8633,1.8389-.2015.286-.4527.5335-.7418.7307-.226.1618-.495.253-.7728.262-.1119.0003-.2223-.0254-.3225-.0752-.1002-.0497-.1875-.122-.255-.2112-.1528-.219-.2307-.4816-.222-.7485v0-12.237l-3.5534-2.0765-10.5781,6.1074c-.0947.0597-.1787.1347-.2487.2221-.0754.0984-.1354.2077-.1777.3242-.0403.1041-.0607.2149-.06.3265-.0004.0872.026.1725.0756.2443v0c.4885.5175.775,1.2903.8328,2.2342.0376,1.06-.136,2.117-.5108,3.1092-.4013,1.1125-.9763,2.1544-1.7034,3.087-.6575.8667-1.4728,1.6014-2.403,2.1654-.3036.1764-.6243.3215-.9572.4331" fill="none" stroke="#ffe100" stroke-miterlimit="10"/><path d="M63.8694,83.8603l3.5645,2.0566" fill="none" stroke="#ffe100" stroke-miterlimit="10"/></g></g><g id="eTSHgKGi1rC14_to" transform="translate(61.559952,69.278717)"><g style="mix-blend-mode:multiply" transform="translate(-61.559952,-69.278717)"><path d="M60.6638,96.2694l-3.5134-2.0277c-.2556-.161-.4694-.3802-.624-.6396-.3304-.6113-.4712-1.3072-.4043-1.9988.0133-.2536.0445-.5059.0933-.7551l2.9405-1.6968c.2254-.143.4911-.2092.7573-.1887.1109.0138.217.0533.31.1154.0929.062.17.145.2252.2421.1323.2444.1873.5232.1577.7996-.0242.3491-.1122.6909-.2598,1.0082-.3738.7974-.5995,1.656-.6663,2.534-.0672.6917.0735,1.3876.4042,1.9988.1445.2442.3428.4523.5796.6086v0Z" fill="#2ab2ff"/><path d="M77.9311,65.6546c-.0247-.0098-.0511-.0151-.0777-.0156-.0907.0014-.1793.0283-.2554.0778-.0942.0602-.1782.1352-.2487.2221-.3318.4685-.7033.9077-1.1105,1.3125-.3762.3757-.7891.7128-1.2326,1.006-.8461.5553-1.69.8373-2.4429.8218-.3539-.0002-.7028-.083-1.0189-.2419-.3162-.1588-.5909-.3893-.8022-.6731-.2866-.3967-.4822-.8517-.573-1.3326h.0177c.4425-.1537.8634-.3634,1.2526-.624.445-.2922.8588-.6293,1.2348-1.0061.4055-.4063.7769-.8453,1.1105-1.3125.0696-.0886.1546-.1638.2509-.2221.0746-.0512.1627-.0791.2532-.08.0369.0021.0731.0111.1066.0267l3.5356,2.041Z" fill="#2ab2ff"/><path d="M78.1199,65.9855v12.2148L67.5308,84.3099c-.2931.1795-.5499.4122-.7573.6863-.2295.295-.4102.6249-.5353.9771-.1184.3132-.1728.6471-.1599.9817.0024.2587.0951.5085.2621.7062.4231.4961.6588,1.1248.6663,1.7767.0294.8411-.108,1.6797-.4042,2.4674-.318.8806-.7738,1.7052-1.3503,2.443-.5199.6871-1.1658,1.269-1.9033,1.7145-.5661.3632-1.2347.5331-1.9055.4841-.2583-.0279-.5075-.1112-.7307-.2443-.0169-.0084-.0333-.0181-.0488-.0288-.2353-.1568-.432-.3648-.5753-.6085-.3306-.6112-.4713-1.3072-.4042-1.9988.0668-.8781.2926-1.7367.6663-2.5341.1476-.3173.2357-.6591.2599-1.0082.0295-.2764-.0254-.5552-.1577-.7996-.0552-.0971-.1324-.1801-.2253-.2421-.0929-.0621-.1991-.1016-.31-.1154-.2662-.0205-.5318.0458-.7573.1888l-2.9404,1.6967-7.6554,4.4107v-34.1193L78.1022,44.0898v12.2149c-.0048.1147-.0304.2275-.0755.3331-.0475.1141-.1119.2204-.191.3154-.0695.0895-.1554.1648-.2532.222-.0628.0367-.1339.0565-.2066.0578h-.0444c-.6929-.1577-1.5035-.0156-2.3497.4086-.9382.4986-1.7685,1.1779-2.4429,1.9988-.7602.9029-1.3733,1.9199-1.8167,3.0137-.4175,1.0003-.6435,2.07-.6663,3.1537-.0023.3534.0312.7061.1,1.0527.0908.4809.2864.9358.573,1.3325.2113.2838.486.5143.8022.6732.3161.1588.665.2416,1.0189.2418.7529.0156,1.5968-.2665,2.4429-.8217.4435-.2933.8564-.6303,1.2326-1.0061.4072-.4048.7787-.8439,1.1105-1.3125.0705-.0868.1545-.1618.2487-.2221.0761-.0494.1647-.0764.2554-.0777.0266.0005.053.0057.0777.0155.0426.0145.0798.0416.1066.0778.0534.0636.0866.1417.0955.2243v0Z" fill="#fff"/><path d="M78.1044,44.0898L48.5645,61.1439l-3.5623-2.0565l29.551-17.063l3.5512,2.0654Z" fill="#2ab2ff"/><path d="M48.5645,61.144v34.1193l-3.5623-2.0499v-34.126l3.5623,2.0566Z" fill="#2ab2ff"/><path d="M60.7127,96.3026l-3.5534-2.0565c-.2566-.1597-.4707-.3792-.6241-.6396-.3314-.6109-.4722-1.3071-.4042-1.9988.0147-.2533.0451-.5055.0911-.7551" fill="none" stroke="#2ab2ff" stroke-miterlimit="10"/><path d="M77.9356,65.6657l-3.5423-2.0499c-.0333-.0161-.0696-.0252-.1066-.0267-.0904.0013-.1784.0291-.2532.08-.0956.0584-.1799.1336-.2487.2221v0c-.6374.9087-1.4342,1.6942-2.3519,2.3186-.3912.2598-.8135.4695-1.257.624h-.0156" fill="none" stroke="#2ab2ff" stroke-miterlimit="10"/><path d="M48.5645,95.2633v-34.1193" fill="none" stroke="#2ab2ff" stroke-miterlimit="10"/><path d="M48.5645,95.2633l10.5869-6.1119c.2257-.1425.4912-.2087.7573-.1888.1112.0138.2177.0533.311.1154s.1708.145.2265.2422c.131.2449.1866.5231.1599.7995-.0258.3494-.1154.6912-.2643,1.0083-.3728.7977-.5985,1.6561-.6663,2.534-.0693.6918.0715,1.3884.4042,1.9988.1395.2433.3341.4505.5682.6048.2342.1543.5013.2514.7799.2836.6708.0489,1.3394-.121,1.9055-.4842.7371-.4461,1.3829-1.0279,1.9033-1.7145.5759-.7378,1.0309-1.5624,1.3481-2.443.2984-.7871.4358-1.6261.4042-2.4674-.0073-.6519-.2431-1.2807-.6663-1.7767-.1677-.1973-.2612-.4472-.2643-.7062-.0118-.3345.0426-.6681.16-.9816.1258-.3524.3072-.6823.5374-.9772.2113-.2776.4745-.5114.7751-.6885l10.5869-6.1141v-12.2148c.0016-.0867-.0249-.1716-.0755-.2421-.0225-.0293-.0514-.0531-.0845-.0697s-.0695-.0253-.1065-.0258c-.0901.0014-.1779.0284-.2532.0778-.0947.0597-.1787.1347-.2487.2221v0c-.6374.9086-1.4343,1.6942-2.3519,2.3186-.8462.5552-1.6901.8372-2.443.8217-.3541-.0002-.7034-.083-1.0199-.2418-.3165-.1589-.5916-.3894-.8034-.6732-.4442-.5841-.6663-1.4081-.6663-2.3875.0208-1.0838.2469-2.1539.6663-3.1536.4434-1.0938,1.0565-2.1109,1.8166-3.0137.674-.8215,1.5044-1.5009,2.443-1.9988.8439-.4242,1.6568-.5663,2.3497-.4087.0868.0093.1742-.0102.2487-.0555.0986-.057.1853-.1324.2554-.2221.0784-.095.1421-.2013.1888-.3153.0452-.1056.0708-.2185.0755-.3332v-12.2148L74.5554,42L45,59.0874v34.126l3.5645,2.0499Z" fill="none" stroke="#2ab2ff" stroke-miterlimit="10"/><path d="M45,59.0874l3.5645,2.0566L78.1177,44.081" fill="none" stroke="#2ab2ff" stroke-miterlimit="10"/></g></g><g id="eTSHgKGi1rC25_to" transform="translate(92.563499,85.278519)"><g style="mix-blend-mode:multiply" transform="translate(-92.563499,-85.278519)"><path d="M109.127,61.3618v34.1237L79.589,112.54v-12.226c.0041-.114.029-.226.0733-.3312.0474-.1141.1118-.2204.1909-.3153.0699-.09.1567-.1654.2555-.2221.063-.0359.134-.0557.2065-.0578h.04c.6951.1577,1.5057.0178,2.3474-.4042.9391-.4973,1.7696-1.1768,2.443-1.9988.7601-.9004,1.3732-1.9153,1.8167-3.007.4195-.9997.6455-2.0698.6662-3.1537c0-.9772-.2221-1.8033-.6662-2.3852-.211-.2842-.4856-.515-.8019-.6739-.3162-.1589-.6653-.2414-1.0193-.2411-.3989-.0044-.7956.0603-1.1726.191-.4484.1546-.8754.3658-1.2703.6285-.4429.2941-.8557.6311-1.2326,1.0061-.4061.4057-.7775.8448-1.1104,1.3125-.0689.0884-.1531.1637-.2488.2221-.0747.0508-.1628.0786-.2532.0799-.0465-.001-.0918-.0148-.131-.0399-.0226-.0155-.0428-.0342-.0599-.0556-.0506-.0713-.077-.1569-.0756-.2442v-12.206l10.587-6.1118c.2935-.1798.5504-.4134.7573-.6885.2289-.295.4102-.6239.5374-.975.1173-.3143.1716-.6486.1599-.9838-.0036-.2593-.0979-.5092-.2665-.7063-.4214-.497-.6569-1.1251-.6662-1.7767-.028-.839.1101-1.6752.4064-2.4607.3185-.8804.7743-1.7049,1.3503-2.443.5214-.6849,1.1661-1.2663,1.9011-1.7145.5666-.3617,1.235-.5307,1.9055-.4819.2787.0325.546.1297.7805.284.2345.1542.4296.3612.5698.6043.3301.6114.4708,1.3072.4042,1.9988-.0144.2535-.0456.5058-.0933.7551-.1165.6132-.3074,1.2099-.5686,1.7767-.1458.3188-.2338.661-.2598,1.0105-.0268.2758.0288.5533.1599.7973.0551.0973.1322.1803.2251.2424.093.0621.1992.1016.3101.1152.2661.0224.5321-.0431.7573-.1866l10.5829-6.1118Z" fill="#fff"/><path d="M87.6285,90.8351c-.0206,1.0838-.2467,2.154-.6662,3.1536-.4435,1.0917-1.0566,2.1066-1.8167,3.0071-.6734.822-1.5039,1.5015-2.443,1.9988-.8417.4219-1.6523.5618-2.3474.4042h-.04c-.0725.002-.1434.0219-.2065.0577-.0988.0567-.1856.1321-.2554.2221-.0792.0949-.1435.2013-.191.3154-.0443.105-.0692.217-.0733.331v12.226l-3.5534-2.057v-12.2146c.0039-.1148.0295-.2278.0755-.3331.0467-.114.1103-.2203.1888-.3154.0701-.0897.1568-.1651.2554-.222.0745-.0453.1619-.0649.2487-.0556.1895.0424.3832.0632.5774.0622.6206-.0161,1.2289-.1765,1.7767-.4686.9389-.4976,1.7693-1.177,2.443-1.9988.7601-.9005,1.3732-1.9153,1.8167-3.007.4221-.9993.6519-2.0692.6773-3.1537.0027-.3535-.0316-.7063-.1021-1.0527.3769-.1307.7736-.1953,1.1726-.191.3539-.0003.703.0823,1.0193.2412.3162.1589.5908.3896.8018.6738.4109.573.6418,1.3992.6418,2.3764Z" fill="#2ab2ff"/><path d="M109.127,61.3618L98.5375,67.4692c-.2252.1434-.4913.209-.7573.1865-.111-.0136-.2172-.053-.3101-.1151-.093-.0621-.1701-.1451-.2252-.2424-.131-.2441-.1867-.5216-.1599-.7973.0261-.3496.114-.6918.2599-1.0105.2611-.5669.4521-1.1635.5685-1.7767l7.6486-4.4151l3.565,2.0632Z" fill="#2ab2ff"/><path d="M79.7089,90.9439l-3.5645-2.0588c-.0231-.0148-.0434-.0336-.06-.0555-.0509-.0703-.0774-.1553-.0755-.2421v-12.2148l3.5645,2.0565v12.226c-.0015.0874.025.1729.0755.2443.0179.0174.0381.0323.06.0444v0Z" fill="#2ab2ff"/><path d="M96.9406,60.298c-.2125-.1189-.4465-.1944-.6884-.2221-.6705-.0488-1.3389.1202-1.9055.4819-.735.4482-1.3797,1.0296-1.9011,1.7145-.576.7381-1.0318,1.5626-1.3503,2.443-.2964.7877-.4338,1.6263-.4042,2.4674.0093.6516.2448,1.2797.6663,1.7767.1685.1971.2628.4469.2665.7062.0116.3353-.0427.6696-.1599.9839-.1273.351-.3086.68-.5375.9749-.2068.2752-.4638.5087-.7573.6885L79.5734,78.4181L76,76.3616l10.5958-6.1163c.2936-.178.5499-.411.7551-.6863.2317-.2943.4139-.6243.5397-.9772.1174-.3134.1717-.647.1599-.9816-.003-.259-.0965-.5088-.2643-.7062-.4232-.496-.659-1.1248-.6663-1.7767-.0316-.8412.1058-1.6803.4042-2.4674.3172-.8806.7723-1.7051,1.3481-2.443.5204-.6866,1.1662-1.2684,1.9033-1.7145.5661-.3632,1.2347-.5331,1.9055-.4841.2618.0301.5137.1181.7373.2576v0l3.5223,2.0321Z" fill="#2ab2ff"/><path d="M109.124,61.3618L98.5375,67.4692c-.2253.1433-.4913.2088-.7573.1865-.1113-.0136-.2178-.053-.3111-.1151s-.1708-.1451-.2264-.2424c-.1312-.244-.1861-.5218-.1577-.7973.0258-.3499.1146-.6922.2621-1.0105.3727-.797.5984-1.6547.6662-2.5318.0667-.6916-.074-1.3874-.4042-1.9988-.1403-.243-.3354-.4499-.5699-.6041-.2344-.1543-.5016-.2516-.7804-.2843-.6698-.0491-1.3375.12-1.9032.482-.737.4462-1.3828,1.028-1.9033,1.7145-.5767.7376-1.0325,1.5622-1.3503,2.443-.2964.7876-.4338,1.6263-.4042,2.4673.0072.652.243,1.2808.6662,1.7768.167.1976.2597.4474.2621.7062.0117.3352-.0427.6695-.1599.9838-.1264.351-.307.6799-.5352.975-.208.2741-.4647.5075-.7573.6885v0L79.5712,78.4181v12.2259c-.0004.0873.0259.1725.0755.2443.0231.0288.0521.0522.085.0687.033.0165.0692.0256.106.0268.0905-.0009.1786-.0287.2532-.0799.0962-.0577.1806-.1331.2487-.2221v0c.6394-.9078,1.4368-1.6931,2.3541-2.3186.844-.553,1.6901-.8373,2.443-.8195.3543-.0005.7037.082,1.0204.2409.3166.1589.5916.3897.8029.6741.4442.5819.6663,1.408.6663,2.3852-.0228,1.0836-.2488,2.1534-.6663,3.1537-.4434,1.0922-1.0573,2.1072-1.8189,3.007-.6738.8216-1.5042,1.501-2.4429,1.9988-.8417.422-1.6546.5619-2.3475.4042-.0867-.008-.1737.0114-.2487.0555-.0981.0568-.1841.1323-.2532.2221-.0791.095-.1435.2013-.191.3158-.0449.104-.0705.217-.0755.33v12.226" fill="none" stroke="#2ab2ff" stroke-miterlimit="10"/><path d="M76,76.3616l3.5645,2.0565" fill="none" stroke="#2ab2ff" stroke-miterlimit="10"/><path d="M97.9134,63.7137l7.6486-4.4151l3.554,2.0565v34.1304L79.5779,112.54l-3.5534-2.057v-12.2147c.0049-.1147.0305-.2275.0755-.3331.0475-.1141.1118-.2204.191-.3154.0694-.0895.1554-.1649.2531-.2221.0754-.0453.1635-.0648.251-.0555v0c.6907.1577,1.5035.0178,2.3452-.4064.9384-.4984,1.7687-1.1777,2.443-1.9988.7601-.9005,1.3732-1.9153,1.8167-3.0071.4213-.9995.651-2.0693.6774-3.1536.0026-.3535-.0316-.7063-.1022-1.0527" fill="none" stroke="#2ab2ff" stroke-miterlimit="10"/><path d="M79.7089,90.9439l-3.5645-2.0588c-.0231-.0149-.0434-.0337-.06-.0555-.0507-.0705-.0779-.1552-.0777-.2421v-12.2148l10.5891-6.1274c.2931-.1795.5499-.4122.7573-.6863.2295-.295.4102-.6249.5353-.9771.1184-.3132.1728-.6471.1599-.9817-.0024-.2587-.0951-.5085-.2621-.7062-.4231-.4961-.6588-1.1248-.6663-1.7767-.0294-.8411.108-1.6797.4042-2.4674.318-.8806.7738-1.7052,1.3503-2.443.5199-.6871,1.1658-1.269,1.9033-1.7145.5655-.3628,1.2332-.5326,1.9033-.4841.2618.0301.5137.1181.7373.2576v0l3.5534,2.0587" fill="none" stroke="#2ab2ff" stroke-miterlimit="10"/></g></g><g id="eTSHgKGi1rC35_to" transform="translate(88.607986,50.622749)"><g style="mix-blend-mode:multiply" transform="translate(-88.607986,-50.622749)"><path d="M98.2184,65.6237c-.0449.1056-.0705.2184-.0755.3331-.0087.0905.0115.1815.0577.2598.0191.0305.044.0569.0733.0778l-3.5534-2.0543c-.0305-.0211-.0563-.0483-.0755-.08-.0449-.0781-.0658-.1677-.06-.2576.0056-.1148.032-.2277.0778-.3332.2346-.5229.4256-1.0644.5707-1.619.135-.5123.2191-1.0368.251-1.5657.0295-.466-.0003-.934-.0888-1.3925v0c.4657-.1663.9629-.2256,1.4546-.1732.3494.0405.6845.162.9786.3548s.5393.4515.716.7556c.3908.6396.5663,1.5102.5108,2.5141-.0835,1.1022-.3672,2.1799-.8373,3.1803v0Z" fill="#ffe100"/><path d="M109.216,26.0543l-.002.0022-29.5577,17.063L76.094,41.063L105.649,24l3.567,2.0543Z" fill="#ffe100"/><path d="M79.6585,43.1307v12.2148c-.0108.3448-.0861.6845-.2221,1.0016-.1408.3455-.3357.6664-.5774.9505-.2125.2593-.4745.4737-.7707.6308-.2258.127-.489.171-.7439.1243-.6389-.1149-1.2979-.0033-1.8634.3154-.7431.3948-1.4006.933-1.9343,1.5835-.604.7164-1.0911,1.5237-1.4436,2.3919-.3342.7947-.5151,1.6454-.533,2.5073-.0312.6711.1558,1.3341.533,1.89.1436.1898.3223.3504.5263.473l-3.5645-2.0565c-.2057-.1221-.3854-.2836-.5285-.4753-.3772-.5558-.5642-1.2189-.5331-1.8899.018-.8612.1989-1.7112.5331-2.5052.3514-.8687.8387-1.6761,1.4435-2.3919.5331-.6512,1.1907-1.1896,1.9344-1.5834.5655-.3188,1.2244-.4303,1.8633-.3154.2549.0449.5176.001.744-.1244.2962-.157.5582-.3714.7707-.6307.2413-.2853.4362-.6068.5774-.9528.1356-.3164.2109-.6553.2221-.9993v-12.2238l3.5667,2.0655Z" fill="#ffe100"/><path d="M109.216,26.0543v34.1082L98.6315,66.2766c-.0756.0449-.1634.0651-.251.0578-.0371-.0063-.0726-.0199-.1044-.04-.0293-.0209-.0542-.0473-.0733-.0778-.0462-.0783-.0664-.1693-.0577-.2598.005-.1147.0306-.2275.0755-.3331.465-1.0021.7435-2.0806.8217-3.1825.0555-1.0039-.1199-1.8745-.5108-2.5141-.1766-.3041-.4217-.5629-.7159-.7556-.2942-.1928-.6292-.3143-.9786-.3548-.4918-.0524-.989.0068-1.4547.1732-.3264.1099-.6411.252-.9394.4242-.9285.5599-1.7436,1.2891-2.403,2.1498-.7278.9326-1.3035,1.9745-1.7056,3.087-.373.9927-.5458,2.0494-.5086,3.1093.0212.4357.1065.866.2532,1.277.1261.3546.3225.6802.5774.9572.0505.0713.077.1569.0755.2442.0003.1114-.0193.222-.0577.3265-.0431.1166-.1038.226-.1799.3243-.0693.0872-.1526.1623-.2465.2221L79.6585,77.2233v-12.2037c.0087-.2669-.0692-.5295-.2221-.7484-.0674-.0893-.1547-.1616-.2549-.2113-.1002-.0498-.2106-.0755-.3225-.0752-.2772.0087-.5455.1-.7706.262-.2903.1964-.5424.444-.744.7307-.3629.5099-.7857.9744-1.2593,1.3836v0c-.1926.1596-.3943.3079-.604.4442-.5659.4038-1.2395.6296-1.9344.6485-.2804,0-.5569-.0655-.8075-.1912s-.4684-.3081-.6361-.5328c-.3772-.5559-.5642-1.219-.533-1.89.018-.8619.1988-1.7127.533-2.5074.3525-.8682.8397-1.6754,1.4436-2.3919.5338-.6505,1.1912-1.1887,1.9344-1.5834.5654-.3188,1.2244-.4303,1.8633-.3154.2549.0466.5181.0026.744-.1244.2961-.157.5581-.3714.7706-.6307.2417-.2842.4366-.605.5774-.9505.136-.3171.2113-.6568.2221-1.0016v-12.2038L109.214,26.0565l.002-.0022Z" fill="#fff"/><path d="M79.6585,65.0196v12.2259l-3.5667-2.0543v-8.8302c.4736-.4092.8963-.8737,1.2592-1.3836.2016-.2867.4537-.5343.744-.7307.2251-.162.4934-.2533.7707-.262.1118-.0003.2222.0254.3224.0752.1003.0497.1875.122.255.2112.1505.2198.2261.4823.2154.7485v0Z" fill="#ffe100"/><path d="M109.216,26.0543L79.6585,43.1306v12.2149c-.0109.3448-.0862.6845-.2221,1.0016-.1408.3455-.3357.6663-.5774.9505-.2125.2593-.4745.4737-.7706.6307-.2253.1265-.4876.1705-.7418.1244-.6389-.1153-1.298-.0037-1.8633.3154-.7435.3952-1.4016.9333-1.9366,1.5835-.6039.7164-1.0911,1.5236-1.4436,2.3918-.3342.7947-.515,1.6455-.533,2.5074-.0312.671.1558,1.3341.533,1.89.1677.2247.3855.4071.6361.5328s.5271.1912.8075.1912c.6957-.0186,1.37-.2444,1.9366-.6485.7264-.4962,1.3576-1.1191,1.8633-1.8389.2009-.2865.4523-.5341.7418-.7307.2269-.1633.4978-.2546.7773-.262.1118-.0003.2222.0254.3224.0752.1002.0497.1875.122.255.2113.1529.2189.2308.4815.2221.7484v0v12.2259" fill="none" stroke="#ffe100" stroke-miterlimit="10"/><path d="M98.2739,66.2944L94.7205,64.24c-.0313-.0208-.0578-.0481-.0778-.0799-.0449-.078-.065-.1679-.0577-.2576.0048-.1147.0303-.2276.0755-.3332v0c.465-1.0029.7434-2.082.8217-3.1847.0307-.466.0008-.9341-.0888-1.3925v-.0133" fill="none" stroke="#ffe100" stroke-miterlimit="10"/><path d="M76.0896,66.361v8.8302l3.5689,2.0543l10.5869-6.1118c.0951-.0592.1793-.1343.2488-.2221.0762-.0979.1362-.2074.1776-.3243.0404-.1041.0607-.2148.06-.3265.0004-.0872-.0259-.1725-.0755-.2442v0c-.4886-.5175-.7751-1.2904-.8328-2.2342-.0364-1.06.1372-2.1167.5108-3.1093.4013-1.1124.9762-2.1543,1.7034-3.087.6579-.8663,1.4731-1.6009,2.403-2.1653.8439-.482,1.6723-.6907,2.3918-.5975.3498.0402.6853.1616.9799.3544.2946.1927.5401.4517.7169.7561.3886.6396.5663,1.5102.5108,2.514-.0804,1.1016-.3587,2.1797-.8217,3.1825v0c-.0446.1059-.0708.2185-.0778.3332-.0058.0906.015.1809.06.2598.0187.0319.0444.059.0752.0795.0308.0204.0658.0334.1025.0382.0869.0075.174-.0127.2487-.0577l10.589-6.1141v-34.1149L105.647,24L76.094,41.063v12.2259c-.01.3442-.0853.6834-.2221.9994-.1412.346-.336.6675-.5774.9528-.2125.2592-.4745.4736-.7707.6307-.2264.1254-.489.1693-.744.1244-.6388-.1149-1.2978-.0034-1.8633.3153-.7441.3933-1.4018.9317-1.9343,1.5835-.6049.7158-1.0922,1.5232-1.4436,2.3919-.3342.7939-.515,1.6439-.533,2.5051-.0312.6711.1558,1.3341.533,1.89.1423.1916.3212.3532.5263.4753v0l3.5645,2.0565" fill="none" stroke="#ffe100" stroke-miterlimit="10"/><path d="M76.094,41.063l3.5645,2.0676L109.212,26.0565" fill="none" stroke="#ffe100" stroke-miterlimit="10"/></g></g></svg>