<svg width="279" height="279" viewBox="0 0 279 279" fill="none" xmlns="http://www.w3.org/2000/svg">
<path d="M158.783 139.004C158.783 149.928 149.928 158.783 139.004 158.783C128.08 158.783 119.225 149.928 119.225 139.004C119.225 128.08 128.08 119.225 139.004 119.225C149.928 119.225 158.783 128.08 158.783 139.004Z" fill="#FF2A50"/>
<path fill-rule="evenodd" clip-rule="evenodd" d="M197.279 223.146L144.831 275.594C141.613 278.812 136.395 278.812 133.176 275.594L80.7289 223.146C77.5104 219.928 77.5104 214.71 80.7289 211.491C83.9473 208.273 89.1654 208.273 92.3839 211.491L130.763 249.87L130.763 198.341C130.763 193.79 134.452 190.1 139.004 190.1C143.555 190.1 147.245 193.79 147.245 198.341L147.245 249.87L185.624 211.491C188.842 208.273 194.061 208.273 197.279 211.491C200.497 214.71 200.497 219.928 197.279 223.146Z" fill="#212529"/>
<path fill-rule="evenodd" clip-rule="evenodd" d="M54.8614 197.279L2.41384 144.831C-0.804604 141.613 -0.804603 136.395 2.41384 133.176L54.8614 80.7289C58.0798 77.5105 63.298 77.5105 66.5164 80.7289C69.7348 83.9474 69.7348 89.1655 66.5164 92.3839L28.1377 130.763L79.6663 130.763C84.2178 130.763 87.9076 134.452 87.9076 139.004C87.9076 143.556 84.2178 147.245 79.6663 147.245L28.1377 147.245L66.5164 185.624C69.7348 188.842 69.7348 194.061 66.5164 197.279C63.2979 200.497 58.0798 200.497 54.8614 197.279Z" fill="#212529"/>
<path fill-rule="evenodd" clip-rule="evenodd" d="M80.7288 54.8615L133.176 2.41396C136.395 -0.804486 141.613 -0.804486 144.831 2.41396L197.279 54.8615C200.497 58.0799 200.497 63.2981 197.279 66.5165C194.06 69.735 188.842 69.735 185.624 66.5165L147.245 28.1378L147.245 79.6664C147.245 84.2179 143.555 87.9077 139.004 87.9077C134.452 87.9077 130.762 84.2179 130.762 79.6664L130.762 28.1378L92.3838 66.5165C89.1653 69.735 83.9472 69.735 80.7288 66.5165C77.5103 63.2981 77.5103 58.0799 80.7288 54.8615Z" fill="#212529"/>
<path fill-rule="evenodd" clip-rule="evenodd" d="M223.146 80.7288L275.594 133.176C278.812 136.395 278.812 141.613 275.594 144.831L223.146 197.279C219.928 200.497 214.71 200.497 211.491 197.279C208.273 194.06 208.273 188.842 211.491 185.624L249.87 147.245H198.341C193.79 147.245 190.1 143.555 190.1 139.004C190.1 134.452 193.79 130.762 198.341 130.762H249.87L211.491 92.3838C208.273 89.1653 208.273 83.9472 211.491 80.7288C214.71 77.5103 219.928 77.5103 223.146 80.7288Z" fill="#212529"/>
</svg>
