<svg id="eV7IrbT4DRe1" xmlns="http://www.w3.org/2000/svg" xmlns:xlink="http://www.w3.org/1999/xlink" viewBox="0 0 154 154" shape-rendering="geometricPrecision" text-rendering="geometricPrecision">
<style><![CDATA[
#eV7IrbT4DRe2_to {animation: eV7IrbT4DRe2_to__to 6000ms linear infinite normal forwards}@keyframes eV7IrbT4DRe2_to__to { 0% {transform: translate(77px,72px);animation-timing-function: cubic-bezier(0.42,0,0.58,1)} 50% {transform: translate(77px,82px);animation-timing-function: cubic-bezier(0.42,0,0.58,1)} 100% {transform: translate(77px,72px)}} #eV7IrbT4DRe21 {animation: eV7IrbT4DRe21_c_o 6000ms linear infinite normal forwards}@keyframes eV7IrbT4DRe21_c_o { 0% {opacity: 0;animation-timing-function: cubic-bezier(0.42,0,0.58,1)} 80% {opacity: 0;animation-timing-function: cubic-bezier(0.42,0,0.58,1)} 83.333333% {opacity: 1;animation-timing-function: cubic-bezier(0.42,0,0.58,1)} 100% {opacity: 0}} #eV7IrbT4DRe22 {animation: eV7IrbT4DRe22_c_o 6000ms linear infinite normal forwards}@keyframes eV7IrbT4DRe22_c_o { 0% {opacity: 0;animation-timing-function: cubic-bezier(0.42,0,0.58,1)} 76.666667% {opacity: 0;animation-timing-function: cubic-bezier(0.42,0,0.58,1)} 80% {opacity: 1;animation-timing-function: cubic-bezier(0.42,0,0.58,1)} 83.333333% {opacity: 1;animation-timing-function: cubic-bezier(0.42,0,0.58,1)} 100% {opacity: 0}} #eV7IrbT4DRe23 {animation: eV7IrbT4DRe23_c_o 6000ms linear infinite normal forwards}@keyframes eV7IrbT4DRe23_c_o { 0% {opacity: 0;animation-timing-function: cubic-bezier(0.42,0,0.58,1)} 73.333333% {opacity: 0;animation-timing-function: cubic-bezier(0.42,0,0.58,1)} 76.666667% {opacity: 1;animation-timing-function: cubic-bezier(0.42,0,0.58,1)} 83.333333% {opacity: 1;animation-timing-function: cubic-bezier(0.42,0,0.58,1)} 100% {opacity: 0}} #eV7IrbT4DRe24 {animation: eV7IrbT4DRe24_c_o 6000ms linear infinite normal forwards}@keyframes eV7IrbT4DRe24_c_o { 0% {opacity: 0;animation-timing-function: cubic-bezier(0.42,0,0.58,1)} 70% {opacity: 0;animation-timing-function: cubic-bezier(0.42,0,0.58,1)} 73.333333% {opacity: 1;animation-timing-function: cubic-bezier(0.42,0,0.58,1)} 83.333333% {opacity: 1;animation-timing-function: cubic-bezier(0.42,0,0.58,1)} 100% {opacity: 0}} #eV7IrbT4DRe25 {animation: eV7IrbT4DRe25_c_o 6000ms linear infinite normal forwards}@keyframes eV7IrbT4DRe25_c_o { 0% {opacity: 0;animation-timing-function: cubic-bezier(0.42,0,0.58,1)} 66.666667% {opacity: 0;animation-timing-function: cubic-bezier(0.42,0,0.58,1)} 70% {opacity: 1;animation-timing-function: cubic-bezier(0.42,0,0.58,1)} 83.333333% {opacity: 1;animation-timing-function: cubic-bezier(0.42,0,0.58,1)} 100% {opacity: 0}} #eV7IrbT4DRe26 {animation: eV7IrbT4DRe26_c_o 6000ms linear infinite normal forwards}@keyframes eV7IrbT4DRe26_c_o { 0% {opacity: 0;animation-timing-function: cubic-bezier(0.42,0,0.58,1)} 63.333333% {opacity: 0;animation-timing-function: cubic-bezier(0.42,0,0.58,1)} 66.666667% {opacity: 1;animation-timing-function: cubic-bezier(0.42,0,0.58,1)} 83.333333% {opacity: 1;animation-timing-function: cubic-bezier(0.42,0,0.58,1)} 100% {opacity: 0}} #eV7IrbT4DRe27 {animation: eV7IrbT4DRe27_c_o 6000ms linear infinite normal forwards}@keyframes eV7IrbT4DRe27_c_o { 0% {opacity: 0;animation-timing-function: cubic-bezier(0.42,0,0.58,1)} 60% {opacity: 0;animation-timing-function: cubic-bezier(0.42,0,0.58,1)} 63.333333% {opacity: 1;animation-timing-function: cubic-bezier(0.42,0,0.58,1)} 83.333333% {opacity: 1;animation-timing-function: cubic-bezier(0.42,0,0.58,1)} 100% {opacity: 0}} #eV7IrbT4DRe28 {animation: eV7IrbT4DRe28_c_o 6000ms linear infinite normal forwards}@keyframes eV7IrbT4DRe28_c_o { 0% {opacity: 0;animation-timing-function: cubic-bezier(0.42,0,0.58,1)} 56.666667% {opacity: 0;animation-timing-function: cubic-bezier(0.42,0,0.58,1)} 60% {opacity: 1;animation-timing-function: cubic-bezier(0.42,0,0.58,1)} 83.333333% {opacity: 1;animation-timing-function: cubic-bezier(0.42,0,0.58,1)} 100% {opacity: 0}} #eV7IrbT4DRe29 {animation: eV7IrbT4DRe29_c_o 6000ms linear infinite normal forwards}@keyframes eV7IrbT4DRe29_c_o { 0% {opacity: 0;animation-timing-function: cubic-bezier(0.42,0,0.58,1)} 53.333333% {opacity: 0;animation-timing-function: cubic-bezier(0.42,0,0.58,1)} 56.666667% {opacity: 1;animation-timing-function: cubic-bezier(0.42,0,0.58,1)} 83.333333% {opacity: 1;animation-timing-function: cubic-bezier(0.42,0,0.58,1)} 100% {opacity: 0}} #eV7IrbT4DRe30 {animation: eV7IrbT4DRe30_c_o 6000ms linear infinite normal forwards}@keyframes eV7IrbT4DRe30_c_o { 0% {opacity: 0;animation-timing-function: cubic-bezier(0.42,0,0.58,1)} 50% {opacity: 0;animation-timing-function: cubic-bezier(0.42,0,0.58,1)} 53.333333% {opacity: 1;animation-timing-function: cubic-bezier(0.42,0,0.58,1)} 83.333333% {opacity: 1;animation-timing-function: cubic-bezier(0.42,0,0.58,1)} 100% {opacity: 0}} #eV7IrbT4DRe31 {animation: eV7IrbT4DRe31_c_o 6000ms linear infinite normal forwards}@keyframes eV7IrbT4DRe31_c_o { 0% {opacity: 0;animation-timing-function: cubic-bezier(0.42,0,0.58,1)} 46.666667% {opacity: 0;animation-timing-function: cubic-bezier(0.42,0,0.58,1)} 50% {opacity: 1;animation-timing-function: cubic-bezier(0.42,0,0.58,1)} 83.333333% {opacity: 1;animation-timing-function: cubic-bezier(0.42,0,0.58,1)} 100% {opacity: 0}} #eV7IrbT4DRe32 {animation: eV7IrbT4DRe32_c_o 6000ms linear infinite normal forwards}@keyframes eV7IrbT4DRe32_c_o { 0% {opacity: 0;animation-timing-function: cubic-bezier(0.42,0,0.58,1)} 43.333333% {opacity: 0;animation-timing-function: cubic-bezier(0.42,0,0.58,1)} 46.666667% {opacity: 1;animation-timing-function: cubic-bezier(0.42,0,0.58,1)} 83.333333% {opacity: 1;animation-timing-function: cubic-bezier(0.42,0,0.58,1)} 100% {opacity: 0}} #eV7IrbT4DRe33 {animation: eV7IrbT4DRe33_c_o 6000ms linear infinite normal forwards}@keyframes eV7IrbT4DRe33_c_o { 0% {opacity: 0;animation-timing-function: cubic-bezier(0.42,0,0.58,1)} 40% {opacity: 0;animation-timing-function: cubic-bezier(0.42,0,0.58,1)} 43.333333% {opacity: 1;animation-timing-function: cubic-bezier(0.42,0,0.58,1)} 83.333333% {opacity: 1;animation-timing-function: cubic-bezier(0.42,0,0.58,1)} 100% {opacity: 0}} #eV7IrbT4DRe34 {animation: eV7IrbT4DRe34_c_o 6000ms linear infinite normal forwards}@keyframes eV7IrbT4DRe34_c_o { 0% {opacity: 0;animation-timing-function: cubic-bezier(0.42,0,0.58,1)} 36.666667% {opacity: 0;animation-timing-function: cubic-bezier(0.42,0,0.58,1)} 40% {opacity: 1;animation-timing-function: cubic-bezier(0.42,0,0.58,1)} 83.333333% {opacity: 1;animation-timing-function: cubic-bezier(0.42,0,0.58,1)} 100% {opacity: 0}} #eV7IrbT4DRe35 {animation: eV7IrbT4DRe35_c_o 6000ms linear infinite normal forwards}@keyframes eV7IrbT4DRe35_c_o { 0% {opacity: 0;animation-timing-function: cubic-bezier(0.42,0,0.58,1)} 33.333333% {opacity: 0;animation-timing-function: cubic-bezier(0.42,0,0.58,1)} 36.666667% {opacity: 1;animation-timing-function: cubic-bezier(0.42,0,0.58,1)} 83.333333% {opacity: 1;animation-timing-function: cubic-bezier(0.42,0,0.58,1)} 100% {opacity: 0}} #eV7IrbT4DRe36 {animation: eV7IrbT4DRe36_c_o 6000ms linear infinite normal forwards}@keyframes eV7IrbT4DRe36_c_o { 0% {opacity: 0;animation-timing-function: cubic-bezier(0.42,0,0.58,1)} 30% {opacity: 0;animation-timing-function: cubic-bezier(0.42,0,0.58,1)} 33.333333% {opacity: 1;animation-timing-function: cubic-bezier(0.42,0,0.58,1)} 83.333333% {opacity: 1;animation-timing-function: cubic-bezier(0.42,0,0.58,1)} 100% {opacity: 0}} #eV7IrbT4DRe37 {animation: eV7IrbT4DRe37_c_o 6000ms linear infinite normal forwards}@keyframes eV7IrbT4DRe37_c_o { 0% {opacity: 0;animation-timing-function: cubic-bezier(0.42,0,0.58,1)} 26.666667% {opacity: 0;animation-timing-function: cubic-bezier(0.42,0,0.58,1)} 30% {opacity: 1;animation-timing-function: cubic-bezier(0.42,0,0.58,1)} 83.333333% {opacity: 1;animation-timing-function: cubic-bezier(0.42,0,0.58,1)} 100% {opacity: 0}} #eV7IrbT4DRe38 {animation: eV7IrbT4DRe38_c_o 6000ms linear infinite normal forwards}@keyframes eV7IrbT4DRe38_c_o { 0% {opacity: 0;animation-timing-function: cubic-bezier(0.42,0,0.58,1)} 23.333333% {opacity: 0;animation-timing-function: cubic-bezier(0.42,0,0.58,1)} 26.666667% {opacity: 1;animation-timing-function: cubic-bezier(0.42,0,0.58,1)} 83.333333% {opacity: 1;animation-timing-function: cubic-bezier(0.42,0,0.58,1)} 100% {opacity: 0}} #eV7IrbT4DRe39 {animation: eV7IrbT4DRe39_c_o 6000ms linear infinite normal forwards}@keyframes eV7IrbT4DRe39_c_o { 0% {opacity: 0;animation-timing-function: cubic-bezier(0.42,0,0.58,1)} 20% {opacity: 0;animation-timing-function: cubic-bezier(0.42,0,0.58,1)} 23.333333% {opacity: 1;animation-timing-function: cubic-bezier(0.42,0,0.58,1)} 83.333333% {opacity: 1;animation-timing-function: cubic-bezier(0.42,0,0.58,1)} 100% {opacity: 0}} #eV7IrbT4DRe40 {animation: eV7IrbT4DRe40_c_o 6000ms linear infinite normal forwards}@keyframes eV7IrbT4DRe40_c_o { 0% {opacity: 0;animation-timing-function: cubic-bezier(0.42,0,0.58,1)} 16.666667% {opacity: 0;animation-timing-function: cubic-bezier(0.42,0,0.58,1)} 20% {opacity: 1;animation-timing-function: cubic-bezier(0.42,0,0.58,1)} 83.333333% {opacity: 1;animation-timing-function: cubic-bezier(0.42,0,0.58,1)} 100% {opacity: 0}} #eV7IrbT4DRe41 {animation: eV7IrbT4DRe41_c_o 6000ms linear infinite normal forwards}@keyframes eV7IrbT4DRe41_c_o { 0% {opacity: 0;animation-timing-function: cubic-bezier(0.42,0,0.58,1)} 13.333333% {opacity: 0;animation-timing-function: cubic-bezier(0.42,0,0.58,1)} 16.666667% {opacity: 1;animation-timing-function: cubic-bezier(0.42,0,0.58,1)} 83.333333% {opacity: 1;animation-timing-function: cubic-bezier(0.42,0,0.58,1)} 100% {opacity: 0}} #eV7IrbT4DRe42 {animation: eV7IrbT4DRe42_c_o 6000ms linear infinite normal forwards}@keyframes eV7IrbT4DRe42_c_o { 0% {opacity: 0;animation-timing-function: cubic-bezier(0.42,0,0.58,1)} 10% {opacity: 0;animation-timing-function: cubic-bezier(0.42,0,0.58,1)} 13.333333% {opacity: 1;animation-timing-function: cubic-bezier(0.42,0,0.58,1)} 83.333333% {opacity: 1;animation-timing-function: cubic-bezier(0.42,0,0.58,1)} 100% {opacity: 0}} #eV7IrbT4DRe43 {animation: eV7IrbT4DRe43_c_o 6000ms linear infinite normal forwards}@keyframes eV7IrbT4DRe43_c_o { 0% {opacity: 0;animation-timing-function: cubic-bezier(0.42,0,0.58,1)} 6.666667% {opacity: 0;animation-timing-function: cubic-bezier(0.42,0,0.58,1)} 10% {opacity: 1;animation-timing-function: cubic-bezier(0.42,0,0.58,1)} 83.333333% {opacity: 1;animation-timing-function: cubic-bezier(0.42,0,0.58,1)} 100% {opacity: 0}} #eV7IrbT4DRe44 {animation: eV7IrbT4DRe44_c_o 6000ms linear infinite normal forwards}@keyframes eV7IrbT4DRe44_c_o { 0% {opacity: 0;animation-timing-function: cubic-bezier(0.42,0,0.58,1)} 3.333333% {opacity: 0;animation-timing-function: cubic-bezier(0.42,0,0.58,1)} 6.666667% {opacity: 1;animation-timing-function: cubic-bezier(0.42,0,0.58,1)} 83.333333% {opacity: 1;animation-timing-function: cubic-bezier(0.42,0,0.58,1)} 100% {opacity: 0}} #eV7IrbT4DRe45 {animation: eV7IrbT4DRe45_c_o 6000ms linear infinite normal forwards}@keyframes eV7IrbT4DRe45_c_o { 0% {opacity: 0;animation-timing-function: cubic-bezier(0.42,0,0.58,1)} 3.333333% {opacity: 1;animation-timing-function: cubic-bezier(0.42,0,0.58,1)} 83.333333% {opacity: 1;animation-timing-function: cubic-bezier(0.42,0,0.58,1)} 100% {opacity: 0}}
]]></style>
<g id="eV7IrbT4DRe2_to" transform="translate(77,72)"><g transform="translate(-77,-77)"><path d="M92.8157,115.059l-15.3801,8.88c-.7175.414-1.8807.414-2.5982,0L53.7237,111.751c-.7174-.414-.7175-1.086,0-1.5l15.3801-8.879c.7174-.415,1.8807-.415,2.5981-.001l21.1137,12.188c.7175.415.7175,1.086.0001,1.5Z" fill="#2ab2ff" stroke="#2ab2ff"/><path d="M114.954,132.316c.67-.366,1.049-1.182,1.049-2.262L116,65c0-1.1046-.775-2.4477-1.732-3.0001L39.7523,18.9745c-.8951-.5168-1.7555-.6135-2.4008-.2697l-2.4026,1.2801c-.6792.3619-1.0631,1.1814-1.0631,2.2694v65.9835c0,.5523.3878,1.224.8661,1.5001L110.228,133.314c.902.521,1.769.615,2.415.262l2.311-1.26Z" fill="#2ab2ff"/><path d="M111.87,132.265l-.002-65.3415c0-.8284-.582-1.8358-1.299-2.25L35.7139,21.4524c-.7174-.4143-1.299-.0785-1.2989.7499l.0026,65.3419c0,.8284.5816,1.8358,1.2991,2.25L110.571,133.015c.718.415,1.299.079,1.299-.75Z" fill="#fff" stroke="#2ab2ff"/><path d="M112.526,74.9024L34.8827,30.0714" fill="none" stroke="#2ab2ff"/><circle r="1.04598" transform="matrix(.866007 0.500033 0.000038 1.000001 37.6167 27.5417)" fill="#2ab2ff"/><ellipse rx="1.04598" ry="1.04598" transform="matrix(.866007 0.500033 0.000038 1.000001 40.3342 29.1108)" fill="#ffe100"/><ellipse rx="1.04598" ry="1.04598" transform="matrix(.866007 0.500033 0.000038 1.000001 43.0516 30.6799)" fill="#4f9a2c"/><rect width="3.93718" height="2.87308" rx="1" ry="1" transform="matrix(.866007 0.500033 0.000038 1.000001 39.257 43.6743)" fill="#2ab2ff"/><rect width="3.93718" height="2.76667" rx="1" ry="1" transform="matrix(.866007 0.500033 0.000038 1.000001 39.2579 68.1487)" fill="#2ab2ff"/><rect width="3.93718" height="2.76667" rx="1" ry="1" transform="matrix(.866007 0.500033 0.000038 1.000001 39.2574 53.4641)" fill="#2ab2ff"/><rect width="3.93718" height="2.76667" rx="1" ry="1" transform="matrix(.866007 0.500033 0.000038 1.000001 39.2581 72.9371)" fill="#2ab2ff"/><rect width="3.93718" height="2.87308" rx="1" ry="1" transform="matrix(.866007 0.500033 0.000038 1.000001 39.2577 63.1474)" fill="#2ab2ff"/><rect width="3.93718" height="2.87308" rx="1" ry="1" transform="matrix(.866007 0.500033 0.000038 1.000001 39.2585 82.6205)" fill="#2ab2ff"/><rect width="3.93718" height="2.76667" rx="1" ry="1" transform="matrix(.866007 0.500033 0.000038 1.000001 39.2575 58.2525)" fill="#2ab2ff"/><rect width="3.93718" height="2.76667" rx="1" ry="1" transform="matrix(.866007 0.500033 0.000038 1.000001 39.2583 77.7256)" fill="#2ab2ff"/><rect width="3.93718" height="2.76667" rx="1" ry="1" transform="matrix(.866007 0.500033 0.000038 1.000001 39.2571 48.5692)" fill="#2ab2ff"/><rect width="3.93718" height="2.76667" rx="1" ry="1" transform="matrix(.866007 0.500033 0.000038 1.000001 39.2567 38.7795)" fill="#2ab2ff"/><g transform="translate(.346712 0)"><rect id="eV7IrbT4DRe21" width="18.3026" height="2.76667" rx="1" ry="1" transform="matrix(-.866007-.500033-.000038-1.000001 92.4302 116.195)" opacity="0" fill="#ffe100"/><rect id="eV7IrbT4DRe22" width="36.3923" height="2.76667" rx="1" ry="1" transform="matrix(-.866007-.500033-.000038-1.000001 75.3821 106.351)" opacity="0" fill="#2ab2ff"/><rect id="eV7IrbT4DRe23" width="23.6231" height="2.87308" rx="1" ry="1" transform="matrix(.866007 0.500033 0.000038 1.000001 78.8836 100.499)" opacity="0" fill="#2ab2ff"/><rect id="eV7IrbT4DRe24" width="13.7269" height="2.76667" rx="1" ry="1" transform="matrix(.866007 0.500033 0.000038 1.000001 65.798 93.0497)" opacity="0" fill="#ffe100"/><rect id="eV7IrbT4DRe25" width="23.6231" height="2.87308" rx="1" ry="1" transform="matrix(.866007 0.500033 0.000038 1.000001 44.0501 80.386)" opacity="0" fill="#2ab2ff"/><rect id="eV7IrbT4DRe26" width="25.3256" height="2.87308" rx="1" ry="1" transform="matrix(.866007 0.500033 0.000038 1.000001 59.808 84.8026)" opacity="0" fill="#2ab2ff"/><rect id="eV7IrbT4DRe27" width="16.8128" height="2.76667" rx="1" ry="1" transform="matrix(.866007 0.500033 0.000038 1.000001 43.9578 75.6508)" opacity="0" fill="#4f9a2c"/><rect id="eV7IrbT4DRe28" width="23.6231" height="2.76667" rx="1" ry="1" transform="matrix(.866007 0.500033 0.000038 1.000001 84.8731 94.4869)" opacity="0" fill="#4f9a2c"/><rect id="eV7IrbT4DRe29" width="5.10769" height="2.76667" rx="1" ry="1" transform="matrix(.866007 0.500033 0.000038 1.000001 79.2518 91.2412)" opacity="0" fill="#ffe100"/><rect id="eV7IrbT4DRe30" width="13.5141" height="2.76667" rx="1" ry="1" transform="matrix(.866007 0.500033 0.000038 1.000001 66.3506 83.792)" opacity="0" fill="#2ab2ff"/><rect id="eV7IrbT4DRe31" width="24.5808" height="2.76667" rx="1" ry="1" transform="matrix(.866007 0.500033 0.000038 1.000001 43.8655 70.8091)" opacity="0" fill="#ffe100"/><rect id="eV7IrbT4DRe32" width="15.9615" height="2.87308" rx="1" ry="1" transform="matrix(.866007 0.500033 0.000038 1.000001 79.3438 86.2931)" opacity="0" fill="#2ab2ff"/><rect id="eV7IrbT4DRe33" width="24.9" height="2.87308" rx="1" ry="1" transform="matrix(.866007 0.500033 0.000038 1.000001 56.6744 73.2038)" opacity="0" fill="#4f9a2c"/><rect id="eV7IrbT4DRe34" width="13.4077" height="2.87308" rx="1" ry="1" transform="matrix(.866007 0.500033 0.000038 1.000001 43.8653 65.8078)" opacity="0" fill="#2ab2ff"/><rect id="eV7IrbT4DRe35" width="39.4782" height="2.76667" rx="1" ry="1" transform="matrix(.866007 0.500033 0.000038 1.000001 43.8651 60.9129)" opacity="0" fill="#4f9a2c"/><rect id="eV7IrbT4DRe36" width="22.0269" height="2.76667" rx="1" ry="1" transform="matrix(.866007 0.500033 0.000038 1.000001 79.2513 76.5566)" opacity="0" fill="#2ab2ff"/><rect id="eV7IrbT4DRe37" width="10.0026" height="2.76667" rx="1" ry="1" transform="matrix(.866007 0.500033 0.000038 1.000001 69.391 70.8633)" opacity="0" fill="#ffe100"/><rect id="eV7IrbT4DRe38" width="28.0923" height="2.76667" rx="1" ry="1" transform="matrix(.866007 0.500033 0.000038 1.000001 43.865 56.1245)" opacity="0" fill="#2ab2ff"/><rect id="eV7IrbT4DRe39" width="36.3923" height="2.76667" rx="1" ry="1" transform="matrix(.866007 0.500033 0.000038 1.000001 60.9129 61.0732)" opacity="0" fill="#2ab2ff"/><rect id="eV7IrbT4DRe40" width="18.3026" height="2.76667" rx="1" ry="1" transform="matrix(.866007 0.500033 0.000038 1.000001 43.8647 51.2296)" opacity="0" fill="#ffe100"/><rect id="eV7IrbT4DRe41" width="11.8115" height="2.87308" rx="1" ry="1" transform="matrix(.866007 0.500033 0.000038 1.000001 84.8722 70.0126)" opacity="0" fill="#4f9a2c"/><rect id="eV7IrbT4DRe42" width="5.10769" height="2.87308" rx="1" ry="1" transform="matrix(.866007 0.500033 0.000038 1.000001 79.2509 66.7668)" opacity="0" fill="#ffe100"/><rect id="eV7IrbT4DRe43" width="13.5141" height="2.87308" rx="1" ry="1" transform="matrix(.866007 0.500033 0.000038 1.000001 66.3497 59.3176)" opacity="0" fill="#2ab2ff"/><rect id="eV7IrbT4DRe44" width="24.5808" height="2.87308" rx="1" ry="1" transform="matrix(.866007 0.500033 0.000038 1.000001 43.8646 46.3347)" opacity="0" fill="#ffe100"/><rect id="eV7IrbT4DRe45" width="24.5808" height="2.76667" rx="1" ry="1" transform="matrix(.866007 0.500033 0.000038 1.000001 43.8644 41.4399)" opacity="0" fill="#2ab2ff"/></g></g></g></svg>
