<svg width="154" height="154" viewBox="0 0 154 154" fill="none" xmlns="http://www.w3.org/2000/svg">
<g clip-path="url(#clip0_1811_10)">
<rect width="154" height="154" fill="white"/>
<path d="M92.8157 115.059L77.4356 123.939C76.7181 124.353 75.5549 124.353 74.8374 123.939L53.7237 111.751C53.0063 111.337 53.0062 110.665 53.7237 110.251L69.1038 101.372C69.8212 100.957 70.9845 100.957 71.7019 101.371L92.8156 113.559C93.5331 113.974 93.5331 114.645 92.8157 115.059Z" fill="#2AB2FF" stroke="#2AB2FF"/>
<path d="M114.954 132.316C115.624 131.95 116.003 131.134 116.003 130.054L116 65C116 63.8954 115.225 62.5523 114.268 61.9999L39.7523 18.9745C38.8572 18.4577 37.9968 18.361 37.3515 18.7048L34.9489 19.9849C34.2697 20.3468 33.8858 21.1663 33.8858 22.2543L33.8858 88.2378C33.8858 88.7901 34.2736 89.4618 34.7519 89.7379L110.228 133.314C111.13 133.835 111.997 133.929 112.643 133.576L114.954 132.316Z" fill="#2AB2FF"/>
<path d="M111.87 132.265L111.868 66.9235C111.868 66.0951 111.286 65.0877 110.569 64.6735L35.7139 21.4524C34.9965 21.0381 34.4149 21.3739 34.415 22.2023L34.4176 87.5442C34.4176 88.3726 34.9992 89.38 35.7167 89.7942L110.571 133.015C111.289 133.43 111.87 133.094 111.87 132.265Z" fill="white" stroke="#2AB2FF"/>
<path d="M112.526 74.9024L34.8827 30.0714" stroke="#2AB2FF"/>
<circle r="1.04598" transform="matrix(0.866007 0.500033 3.76274e-05 1 37.6167 27.5417)" fill="#2AB2FF"/>
<ellipse rx="1.04598" ry="1.04598" transform="matrix(0.866007 0.500033 3.76469e-05 1 40.3342 29.1108)" fill="#FFE100"/>
<ellipse rx="1.04598" ry="1.04598" transform="matrix(0.866007 0.500033 3.76469e-05 1 43.0516 30.6799)" fill="#4F9A2C"/>
<rect width="3.93718" height="2.87308" rx="1" transform="matrix(0.866007 0.500033 3.76683e-05 1 39.257 43.6743)" fill="#2AB2FF"/>
<rect width="3.93718" height="2.76667" rx="1" transform="matrix(0.866007 0.500033 3.76683e-05 1 39.2579 68.1487)" fill="#2AB2FF"/>
<rect width="3.93718" height="2.76667" rx="1" transform="matrix(0.866007 0.500033 3.76683e-05 1 39.2574 53.4641)" fill="#2AB2FF"/>
<rect width="3.93718" height="2.76667" rx="1" transform="matrix(0.866007 0.500033 3.76683e-05 1 39.2581 72.9371)" fill="#2AB2FF"/>
<rect width="3.93718" height="2.87308" rx="1" transform="matrix(0.866007 0.500033 3.76683e-05 1 39.2577 63.1474)" fill="#2AB2FF"/>
<rect width="3.93718" height="2.87308" rx="1" transform="matrix(0.866007 0.500033 3.76683e-05 1 39.2585 82.6205)" fill="#2AB2FF"/>
<rect width="3.93718" height="2.76667" rx="1" transform="matrix(0.866007 0.500033 3.76683e-05 1 39.2575 58.2525)" fill="#2AB2FF"/>
<rect width="3.93718" height="2.76667" rx="1" transform="matrix(0.866007 0.500033 3.76683e-05 1 39.2583 77.7256)" fill="#2AB2FF"/>
<rect width="3.93718" height="2.76667" rx="1" transform="matrix(0.866007 0.500033 3.76683e-05 1 39.2571 48.5692)" fill="#2AB2FF"/>
<rect width="3.93718" height="2.76667" rx="1" transform="matrix(0.866007 0.500033 3.7683e-05 1 39.2567 38.7795)" fill="#2AB2FF"/>
<rect width="24.5808" height="2.87308" rx="1" transform="matrix(0.866007 0.500033 3.76683e-05 1 43.8646 46.3347)" fill="#FFE100"/>
<rect width="24.5808" height="2.76667" rx="1" transform="matrix(0.866007 0.500033 3.76683e-05 1 43.8655 70.8091)" fill="#FFE100"/>
<rect width="18.3026" height="2.76667" rx="1" transform="matrix(0.866007 0.500033 3.76683e-05 1 43.8647 51.2296)" fill="#FFE100"/>
<rect width="18.3026" height="2.76667" rx="1" transform="matrix(-0.866007 -0.500033 -3.77413e-05 -1 92.4302 116.195)" fill="#FFE100"/>
<rect width="13.7269" height="2.76667" rx="1" transform="matrix(0.866007 0.500033 3.76683e-05 1 65.798 93.0497)" fill="#FFE100"/>
<rect width="5.10769" height="2.87308" rx="1" transform="matrix(0.866007 0.500033 3.76683e-05 1 79.2509 66.7668)" fill="#FFE100"/>
<rect width="5.10769" height="2.76667" rx="1" transform="matrix(0.866007 0.500033 3.76683e-05 1 79.2518 91.2412)" fill="#FFE100"/>
<rect width="10.0026" height="2.76667" rx="1" transform="matrix(0.866007 0.500033 3.76683e-05 1 69.391 70.8633)" fill="#FFE100"/>
<rect width="24.9" height="2.87308" rx="1" transform="matrix(0.866007 0.500033 3.76683e-05 1 56.6744 73.2038)" fill="#4F9A2C"/>
<rect width="16.8128" height="2.76667" rx="1" transform="matrix(0.866007 0.500033 3.76683e-05 1 43.9578 75.6508)" fill="#4F9A2C"/>
<rect width="24.5808" height="2.76667" rx="1" transform="matrix(0.866007 0.500033 3.76683e-05 1 43.8644 41.4399)" fill="#2AB2FF"/>
<rect width="13.5141" height="2.87308" rx="1" transform="matrix(0.866007 0.500033 3.76683e-05 1 66.3497 59.3176)" fill="#2AB2FF"/>
<rect width="13.5141" height="2.76667" rx="1" transform="matrix(0.866007 0.500033 3.76683e-05 1 66.3506 83.792)" fill="#2AB2FF"/>
<rect width="28.0923" height="2.76667" rx="1" transform="matrix(0.866007 0.500033 3.76683e-05 1 43.865 56.1245)" fill="#2AB2FF"/>
<rect width="13.4077" height="2.87308" rx="1" transform="matrix(0.866007 0.500033 3.76683e-05 1 43.8653 65.8078)" fill="#2AB2FF"/>
<rect width="39.4782" height="2.76667" rx="1" transform="matrix(0.866007 0.500033 3.76683e-05 1 43.8651 60.9129)" fill="#4F9A2C"/>
<rect width="36.3923" height="2.76667" rx="1" transform="matrix(0.866007 0.500033 3.76683e-05 1 60.9129 61.0732)" fill="#2AB2FF"/>
<rect width="36.3923" height="2.76667" rx="1" transform="matrix(-0.866007 -0.500033 -3.77413e-05 -1 75.3821 106.351)" fill="#2AB2FF"/>
<rect width="11.8115" height="2.87308" rx="1" transform="matrix(0.866007 0.500033 3.76683e-05 1 84.8722 70.0126)" fill="#4F9A2C"/>
<rect width="23.6231" height="2.87308" rx="1" transform="matrix(0.866007 0.500033 3.76683e-05 1 44.0501 80.386)" fill="#2AB2FF"/>
<rect width="23.6231" height="2.87308" rx="1" transform="matrix(0.866007 0.500033 3.76683e-05 1 78.8836 100.499)" fill="#2AB2FF"/>
<rect width="25.3256" height="2.87308" rx="1" transform="matrix(0.866007 0.500033 3.76683e-05 1 59.808 84.8026)" fill="#2AB2FF"/>
<rect width="23.6231" height="2.76667" rx="1" transform="matrix(0.866007 0.500033 3.76683e-05 1 84.8731 94.4869)" fill="#4F9A2C"/>
<rect width="22.0269" height="2.76667" rx="1" transform="matrix(0.866007 0.500033 3.76683e-05 1 79.2513 76.5566)" fill="#2AB2FF"/>
<rect width="15.9615" height="2.87308" rx="1" transform="matrix(0.866007 0.500033 3.76683e-05 1 79.3438 86.2931)" fill="#2AB2FF"/>
</g>
<defs>
<clipPath id="clip0_1811_10">
<rect width="154" height="154" fill="white"/>
</clipPath>
</defs>
</svg>
