<svg id="eWrZjKXtAgN1" xmlns="http://www.w3.org/2000/svg" xmlns:xlink="http://www.w3.org/1999/xlink" viewBox="0 0 609 395" shape-rendering="geometricPrecision" text-rendering="geometricPrecision"><defs><filter id="eWrZjKXtAgN50-filter" x="-150%" width="400%" y="-150%" height="400%"><feGaussianBlur id="eWrZjKXtAgN50-filter-blur-0" stdDeviation="70,70" result="result"/></filter><filter id="eWrZjKXtAgN100-filter" x="-150%" width="400%" y="-150%" height="400%"><feGaussianBlur id="eWrZjKXtAgN100-filter-blur-0" stdDeviation="70,70" result="result"/></filter><filter id="eWrZjKXtAgN150-filter" x="-150%" width="400%" y="-150%" height="400%"><feGaussianBlur id="eWrZjKXtAgN150-filter-blur-0" stdDeviation="70,70" result="result"/></filter></defs><g id="eWrZjKXtAgN2" style="mix-blend-mode:multiply" transform="translate(0 0.000001)"><path d="M505.122,261.29c2.51-.1,5-.08,7.54.06" fill="none" stroke="#ff2a50" stroke-miterlimit="10"/><path d="M522.392,262.5c6.603,1.131,12.966,3.373,18.82,6.63c18.15,10.48,18.26,27.41.24,37.81s-47.34,10.34-65.49-.14-18.26-27.4-.24-37.81c6.063-3.362,12.671-5.626,19.52-6.69" fill="none" stroke="#ff2a50" stroke-miterlimit="10"/><path d="M471.362,345.37c3.557,6.808,8.913,12.511,15.486,16.488c6.572,3.976,14.11,6.074,21.792,6.065c7.681-.01,15.214-2.126,21.777-6.118s11.905-9.708,15.445-16.525" fill="#ff2a50"/><path d="M471.362,345.37c3.557,6.808,8.913,12.511,15.486,16.488c6.572,3.976,14.11,6.074,21.792,6.065c7.681-.01,15.214-2.126,21.777-6.118s11.905-9.708,15.445-16.525" fill="none" stroke="#ff2a50" stroke-miterlimit="10"/><path d="M561.622,316.37c1.27,11.61-5.55,23.11-15.71,29s-23.61,8.94-37,9c-13.61,0-27.25-3-37.68-9-10.15-5.86-17-17.35-15.71-29" fill="#fff"/><path d="M561.622,316.37c1.27,11.61-5.55,23.11-15.71,29s-23.61,8.94-37,9c-13.61,0-27.25-3-37.68-9-10.15-5.86-17-17.35-15.71-29" fill="none" stroke="#ff2a50" stroke-miterlimit="10"/><path d="M561.622,316.42c.53,8.18-4.58,16.44-15.36,22.66-20.63,11.91-54.2,11.84-75-.16-10.73-6.19-16-14.36-15.65-22.44" fill="#fff"/><path d="M561.622,316.42c.53,8.18-4.58,16.44-15.36,22.66-20.63,11.91-54.2,11.84-75-.16-10.73-6.19-16-14.36-15.65-22.44" fill="none" stroke="#ff2a50" stroke-miterlimit="10"/><path d="M563.812,300.57c1.93,12.51-5.31,25.09-16.26,31.41-10.7,6.18-24.66,9.34-38.64,9.45-14.21,0-28.46-3.16-39.35-9.45s-18.19-18.9-16.25-31.41" fill="#fff"/><path d="M563.812,300.57c1.93,12.51-5.31,25.09-16.26,31.41-10.7,6.18-24.66,9.34-38.64,9.45-14.21,0-28.46-3.16-39.35-9.45s-18.19-18.9-16.25-31.41" fill="none" stroke="#ff2a50" stroke-miterlimit="10"/><path d="M563.092,297.37c3.09,9.93-2,20.51-15.2,28.14-21.55,12.45-56.62,12.37-78.33-.16-13.29-7.67-18.49-18.24-15.58-28.13" fill="#fff"/><path d="M563.092,297.37c3.09,9.93-2,20.51-15.2,28.14-21.55,12.45-56.62,12.37-78.33-.16-13.29-7.67-18.49-18.24-15.58-28.13" fill="none" stroke="#ff2a50" stroke-miterlimit="10"/><path d="M563.5,286.98c1.928,12.56-5.159,24.18-16.097,30.52-10.688,6.2-24.632,9.36-38.597,9.48-14.194,0-28.428-3.17-39.306-9.48s-17.982-17.96-16.044-30.52" fill="#fff"/><path d="M563.5,286.98c1.928,12.56-5.159,24.18-16.097,30.52-10.688,6.2-24.632,9.36-38.597,9.48-14.194,0-28.428-3.17-39.306-9.48s-17.982-17.96-16.044-30.52" fill="none" stroke="#ff2a50" stroke-linejoin="round" stroke-miterlimit="10"/><path d="M563.5,288c0,8.582-6.037,16.447-16.005,22.194-9.955,5.74-23.741,9.306-38.995,9.306s-29.04-3.566-38.995-9.306C459.537,304.447,453.5,296.582,453.5,288s6.037-16.447,16.005-22.194c9.955-5.74,23.741-9.306,38.995-9.306s29.04,3.566,38.995,9.306C557.463,271.553,563.5,279.418,563.5,288Z" fill="#fff" stroke="#ff2a50"/><path d="M554.953,287.693c.094-14.869-20.766-27.054-46.592-27.216s-46.839,11.761-46.932,26.63c-.094,14.87,20.766,27.055,46.592,27.217c25.827.162,46.839-11.761,46.932-26.631Z" fill="#ff2a50" stroke="#ff2a50" stroke-miterlimit="10"/><path d="M551.12,298.203c10.033-10.747,15.596-24.893,15.564-39.576.18-43.715,26.877-87.59,26.877-87.59c7.321-14.499,10.798-30.625,10.1-46.843s-5.548-31.9877-14.087-45.808c-8.54-13.8203-20.485-25.231-34.698-33.1456-14.214-7.9147-30.222-12.0698-46.502-12.0698-16.279,0-32.288,4.1551-46.501,12.0698-14.214,7.9146-26.159,19.3253-34.698,33.1456-8.54,13.8203-13.389,29.59-14.087,45.808s2.779,32.344,10.1,46.843c0,0,26.686,43.885,26.876,87.59-.028,14.684,5.539,28.83,15.574,39.576" fill="none" stroke="#ff2a50" stroke-miterlimit="10"/><path d="M496.912,145.34l6.373,5.31-3.187-6.372-1.062-4.249-1.062-8.497l1.062-8.497l2.124-10.621l2.125-5.311l4.248-7.4347l5.311-4.2485h5.31l-2.124-1.0621-4.248-2.1242-3.187-1.0622-3.186,1.0622-4.249,4.2485-4.248,6.373-2.124,6.372-2.125,8.497-1.062,9.56l1.062,8.497l4.249,9.559Z" fill="#fff"/><path d="M513.906,108.165l-2.124-6.372l4.248,1.062l2.125,3.186l2.124,6.373v9.559l-1.292,8.116-2.957,7.816-4.024,8.763-5.235,7.853-6.673,7.813-3.186-7.435l2.124-2.124l7.435-10.622l3.187-6.372l2.124-6.373l2.124-8.497v-12.746Z" fill="#fff"/><path d="M460.8,170.831l4.96,2.887-4.96-7.136-1.062-4.248v-6.373l2.124-5.311l4.248-5.31l5.311-3.187l6.373-1.062l7.435,1.062-1.063-1.062-5.317-2.276-6.108-1.745-5.189.835-3.566,1.062-6.373,5.311-3.186,4.627-1.062,9.18l2.797,7.779l4.638,4.967Z" fill="#fff"/><path d="M486.291,153.837l-3.952-6.297l3.49,1.745l4.71,4.552l3.187,6.372l1.062,4.249v2.124l-1.106,1.027-6.329,3.222-8.497,2.124-4.249-1.062-4.484-2.538v-.649h6.108l6.873-2.124l6.215-4.208-1.966-5.351-1.062-3.186Z" fill="#fff"/><path d="M514.968,148.526l2.124-3.186l5.311,3.186-4.249,1.062-3.186-1.062Z" fill="#fff"/><path d="M529.458,139.687l-1.746,7.853l7.436-4.325l6.526-5.273l6.108-7.853l5.235-8.726l3.49-7.853l2.008-8.531-1.062-4.249-1.818-1.181-3.491,1.745-.872,4.363-2.316,7.819-4.665,9.632-5.235,6.981-4.97,5.692-4.628,3.906Z" fill="#fff"/><path d="M517.092,145.34l6.373,3.186l4.249-16.994l6.372-13.808l9.559-13.807l11.684-10.6214l4.248-1.0622-5.31-3.1863h-3.187l-4.248,2.1242-6.373,5.3106-7.435,9.5591-7.435,12.746-3.186,14.869-5.311,11.684Z" fill="#fff"/><path d="M514.624,279.299l5.655,3.055-1.292-20.507-.833-19.854-.912-17.666.912-18.446l1.063-26.553l3.186-24.429-6.906.495-2.653,21.81-1.062,28.677-.648,17.573.648,18.539l1.097,19.854l1.745,17.452Z" fill="#fff"/><path d="M491.937,291.514l6.108,3.491.873-11.344l1.745-34.902v-17.452l-.565-30.737L496.3,171.1l-4.699,2.917l2.081,20.642c.873,14.834.873,27.922.873,27.922s.371,12.438,0,27.923c-.341,14.202-1.365,30.157-2.618,41.01Z" fill="#fff"/><path d="M519.217,149.588l4.248-1.062-1.062,6.373h-2.124-8.497l3.186-6.373l4.249,1.062Z" fill="#fff"/><path d="M500.098,162.334l7.435-9.559-6.373-6.373-3.186-12.746l1.062-14.869l4.249-12.746l5.31-7.4348l4.249-3.1864h4.248l4.249,4.2485l3.186,8.4967v9.559v5.311l-2.124,8.497-2.124,6.373-2.124,4.248-4.249,8.497-5.311,7.435-5.31,6.373-4.249,4.249-7.435,5.31-10.621,4.249h-6.373l-7.435-3.187-5.31-6.372-2.124-7.435v-6.373l3.186-6.373l4.248-4.248l4.249-2.125l4.248-1.062h7.435l5.311,2.125l4.248,4.248l3.187,5.311l3.186,6.372l1.062,3.187Zm5.8-19.118l5.536,4.324l1.41-2.2l2.124-4.249l2.124-5.31l1.062-4.249l2.125-7.435v-10.621l-1.063-6.373-3.186-4.248-4.248-1.062-5.311,6.372-3.186,10.622-1.063,9.559l1.063,8.497l2.613,6.373Zm-13.235,13.807l2.125,8.497-1.062,2.124-4.249,2.125-4.248,2.124-5.311,1.062-6.373-1.062-5.31-4.249-3.187-5.31-1.062-5.311l2.647-5.992l4.788-3.567l6.373-1.062l6.372,2.124l4.249,3.186l4.248,5.311Z" clip-rule="evenodd" fill="#fff" fill-rule="evenodd"/><path d="M527.6,147.574c4.581-1.926,8.757-4.697,12.308-8.168c4.12-3.959,7.661-8.476,10.52-13.418c7.085-12.23,9.968-23.792,6.447-25.861-3.521-2.068-12.138,6.248-19.233,18.489-6.713,11.594-9.181,23.336-11.053,34.835v.191c-2.459,15.771-3.915,31.682-4.362,47.637-.805,26.306-.006,52.636,2.394,78.845l-4.159,2.386c-.341-3.84-.656-7.697-.947-11.572-1.999-24.94-2.461-49.978-1.383-74.973.59-13.815,1.975-27.585,4.149-41.242.184-1.124.375-2.248.574-3.373.138-.827.298-1.654.457-2.471c2.054-10.745,5.043-21.088,11.383-32.066c9.298-16.07,21.063-26.6777,26.265-23.6864s1.862,18.4564-7.447,34.5274c-3.166,5.574-7.03,10.725-11.499,15.327-4.321,4.513-9.553,8.06-15.351,10.406" fill="#fff"/><path d="M498.045,295.005l4.363-1.745.872-14.834l1.746-24.432.383-21.56-.383-19.451-.873-22.687-3.49-22.687L496.3,171.1l3.798,26.284c1.062,38.237,0,64.79,0,64.79s-.991,25.75-2.053,32.831Z" fill="#fff"/><path d="M529.344,139.576c1.548-1.152,3.026-2.396,4.426-3.723c4.12-3.959,7.661-8.476,10.52-13.418c4.862-8.401,7.745-16.484,7.936-21.385" fill="none" stroke="#ff2a50" stroke-miterlimit="10"/><path d="M506.1,142.663c2.421-4.27,4.375-8.786,5.83-13.471c1.495-4.704,2.301-9.599,2.394-14.532c0-5.304-.851-9.611-2.245-12.475" fill="none" stroke="#ff2a50" stroke-miterlimit="10"/><path d="M497.314,155.084c1.568-1.773,3.045-3.625,4.425-5.547" fill="none" stroke="#ff2a50" stroke-miterlimit="10"/><path d="M469.261,168.587c2.513.624,5.137.645,7.66.064c4.432-1.063,8.579-3.08,12.148-5.908v0c-1.489-6.184-3.542-11.806-7.319-15.381" fill="none" stroke="#ff2a50" stroke-miterlimit="10"/><path d="M507.866,153.037c-6.382-3.575-9.765-11.148-9.765-22.01c0-15.158,5.968-30.868,13.318-35.1001c7.351-4.2323,13.319,4.6141,13.319,19.7721c0,10.851-3.436,22.371-9.766,33.254-1.12,1.909-2.304,3.769-3.553,5.58-.68.986-1.372,1.941-2.127,2.917-2.617,3.49-5.528,6.751-8.702,9.748-1.436,1.347-2.904,2.599-4.383,3.744-5.149,4.01-10.446,6.513-15.35,7.256-3.964.628-8.024-.121-11.5-2.122-9.308-5.367-12.638-16.972-7.446-25.967c5.191-8.995,17.02-11.869,26.328-6.46c6.383,3.639,9.34,10.608,11.383,18.956" fill="none" stroke="#ff2a50" stroke-miterlimit="10"/><path d="M522.217,154.777c-2.853.649-5.804.739-8.691.265-.718-.128-1.428-.295-2.128-.499" fill="none" stroke="#ff2a50" stroke-miterlimit="10"/><path d="M527.6,147.574c4.581-1.926,8.757-4.697,12.308-8.168c4.12-3.959,7.661-8.476,10.52-13.418c7.085-12.23,9.968-23.792,6.447-25.861-3.521-2.068-12.138,6.248-19.233,18.489-6.713,11.594-9.181,23.336-11.053,34.835v.191c-2.459,15.771-3.915,31.682-4.362,47.637-.805,26.306-.006,52.636,2.394,78.845l-4.159,2.386c-.341-3.84-.656-7.697-.947-11.572-1.999-24.94-2.461-49.978-1.383-74.973.59-13.815,1.975-27.585,4.149-41.242.184-1.124.375-2.248.574-3.373.138-.827.298-1.654.457-2.471c2.054-10.745,5.043-21.088,11.383-32.066c9.298-16.07,21.063-26.6777,26.265-23.6864s1.862,18.4564-7.447,34.5274c-3.166,5.574-7.03,10.725-11.499,15.327-4.321,4.513-9.553,8.06-15.351,10.406" fill="none" stroke="#ff2a50" stroke-linejoin="round" stroke-miterlimit="10"/><path d="M514.972,148.953c2.724.621,5.553.621,8.277,0" fill="none" stroke="#ff2a50" stroke-miterlimit="10"/><path d="M495.207,166.232c-1.808-7.531-4.457-14.213-10.021-17.406-7.084-4.084-15.68-2.45-19.233,3.649s-.638,14.33,6.447,18.435c3.268,1.713,7.055,2.166,10.638,1.273c4.541-1.105,8.78-3.199,12.414-6.131c1.435-1.084,2.809-2.245,4.117-3.479c3.063-2.907,5.835-6.104,8.276-9.547c1.255-1.76,2.447-3.585,3.553-5.462c2.794-4.673,5.026-9.657,6.649-14.851c1.491-4.704,2.294-9.599,2.383-14.532c0-11.541-4.043-18.5627-9.032-15.688-4.989,2.875-9.031,14.543-9.031,26.083-.063,4.046.757,8.056,2.404,11.753c1.362,3.06,3.689,5.593,6.627,7.213" fill="none" stroke="#ff2a50" stroke-miterlimit="10"/><path d="M500.622,167.208c2.266,12.04,3.645,24.228,4.127,36.468c1.234,24.525.426,50.364-1.383,76.554-.29,4.243-.606,8.486-.946,12.728l-4.181,2.377c2.191-27.898,3.34-55.403,2.383-81.603-.543-14.797-1.692-29.329-4.351-42.62v-.149" fill="none" stroke="#ff2a50" stroke-linejoin="round" stroke-miterlimit="10"/><path d="M498.239,295.335l-6.138-3.533c2.191-27.897,3.34-55.402,2.393-81.602-.34-12.022-1.406-24.012-3.191-35.906" fill="none" stroke="#ff2a50" stroke-miterlimit="10"/><path d="M520.43,282.489l-6.128-3.532c-.355-3.84-.674-7.698-.957-11.573-1.994-24.929-2.452-49.956-1.373-74.941.514-12.428,1.682-24.82,3.5-37.125" fill="none" stroke="#ff2a50" stroke-miterlimit="10"/><path d="M489.069,162.7l6.138,3.533" fill="none" stroke="#ff2a50" stroke-miterlimit="10"/><path d="M517.111,145.4l6.138,3.532" fill="none" stroke="#ff2a50" stroke-miterlimit="10"/><path d="M518.185,95.8209l-6.138-3.5322c-1.014-.6405-2.193-.9717-3.393-.9529s-2.369.3869-3.362,1.0589c-7.361,4.243-13.319,19.9423-13.319,35.0993c0,10.862,3.405,18.436,9.766,22.011l6.127,3.532" fill="none" stroke="#ff2a50" stroke-miterlimit="10"/><path d="M560.875,93.1266l-6.138-3.5747c-5.202-2.9912-16.957,7.6161-26.265,23.6861-1.479,2.554-2.828,5.181-4.043,7.871" fill="none" stroke="#ff2a50" stroke-miterlimit="10"/><path d="M468.261,175.472l-6.138-3.533c-8.436-5.632-11.297-16.664-6.287-25.266c5.213-8.974,16.957-11.912,26.265-6.556l6.138,3.532" fill="none" stroke="#ff2a50" stroke-miterlimit="10"/><g style="mix-blend-mode:multiply" opacity="0.25" filter="url(#eWrZjKXtAgN50-filter)"><path d="M551.528,302.025c11.329-12.587,15.642-25.738,15.61-40.919.18-45.198,26.956-90.562,26.956-90.562c7.343-14.991,10.83-31.664,10.13-48.432s-5.564-33.0732-14.129-47.3624c-8.564-14.2892-20.545-26.0871-34.8-34.2703C541.039,32.2961,524.984,28,508.656,28s-32.384,4.2961-46.639,12.4793-26.236,19.9811-34.801,34.2703c-8.564,14.2892-13.428,30.5944-14.128,47.3624s2.787,33.441,10.13,48.432c0,0,26.765,45.374,26.956,90.562-.029,15.182,4.287,28.333,15.62,40.919" fill="#ff2a50"/></g></g><g style="mix-blend-mode:multiply" transform="translate(0 0.000001)"><path d="M302.122,261.29c2.51-.1,5-.08,7.54.06" fill="none" stroke="#ffe100" stroke-miterlimit="10"/><path d="M319.392,262.5c6.603,1.131,12.966,3.373,18.82,6.63c18.15,10.48,18.26,27.41.24,37.81s-47.34,10.34-65.49-.14-18.26-27.4-.24-37.81c6.063-3.362,12.671-5.626,19.52-6.69" fill="none" stroke="#ffe100" stroke-miterlimit="10"/><path d="M268.362,345.37c3.557,6.808,8.913,12.511,15.486,16.488c6.572,3.976,14.11,6.074,21.792,6.065c7.681-.01,15.214-2.126,21.777-6.118s11.905-9.708,15.445-16.525" fill="#ffe100"/><path d="M268.362,345.37c3.557,6.808,8.913,12.511,15.486,16.488c6.572,3.976,14.11,6.074,21.792,6.065c7.681-.01,15.214-2.126,21.777-6.118s11.905-9.708,15.445-16.525" fill="none" stroke="#ffe100" stroke-miterlimit="10"/><path d="M358.622,316.37c1.27,11.61-5.55,23.11-15.71,29s-23.61,8.94-37,9c-13.61,0-27.25-3-37.68-9-10.15-5.86-17-17.35-15.71-29" fill="#fff"/><path d="M358.622,316.37c1.27,11.61-5.55,23.11-15.71,29s-23.61,8.94-37,9c-13.61,0-27.25-3-37.68-9-10.15-5.86-17-17.35-15.71-29" fill="none" stroke="#ffe100" stroke-miterlimit="10"/><path d="M358.622,316.42c.53,8.18-4.58,16.44-15.36,22.66-20.63,11.91-54.2,11.84-75-.16-10.73-6.19-16-14.36-15.65-22.44" fill="#fff"/><path d="M358.622,316.42c.53,8.18-4.58,16.44-15.36,22.66-20.63,11.91-54.2,11.84-75-.16-10.73-6.19-16-14.36-15.65-22.44" fill="none" stroke="#ffe100" stroke-miterlimit="10"/><path d="M360.812,300.57c1.93,12.51-5.31,25.09-16.26,31.41-10.7,6.18-24.66,9.34-38.64,9.45-14.21,0-28.46-3.16-39.35-9.45s-18.19-18.9-16.25-31.41" fill="#fff"/><path d="M360.812,300.57c1.93,12.51-5.31,25.09-16.26,31.41-10.7,6.18-24.66,9.34-38.64,9.45-14.21,0-28.46-3.16-39.35-9.45s-18.19-18.9-16.25-31.41" fill="none" stroke="#ffe100" stroke-miterlimit="10"/><path d="M360.092,297.37c3.09,9.93-2,20.51-15.2,28.14-21.55,12.45-56.62,12.37-78.33-.16-13.29-7.67-18.49-18.24-15.58-28.13" fill="#fff"/><path d="M360.092,297.37c3.09,9.93-2,20.51-15.2,28.14-21.55,12.45-56.62,12.37-78.33-.16-13.29-7.67-18.49-18.24-15.58-28.13" fill="none" stroke="#ffe100" stroke-miterlimit="10"/><path d="M360.5,286.98c1.928,12.56-5.159,24.18-16.097,30.52-10.688,6.2-24.632,9.36-38.597,9.48-14.194,0-28.428-3.17-39.306-9.48s-17.982-17.96-16.044-30.52" fill="#fff"/><path d="M360.5,286.98c1.928,12.56-5.159,24.18-16.097,30.52-10.688,6.2-24.632,9.36-38.597,9.48-14.194,0-28.428-3.17-39.306-9.48s-17.982-17.96-16.044-30.52" fill="none" stroke="#ffe100" stroke-linejoin="round" stroke-miterlimit="10"/><path d="M360.5,288c0,8.582-6.037,16.447-16.005,22.194-9.955,5.74-23.741,9.306-38.995,9.306s-29.04-3.566-38.995-9.306C256.537,304.447,250.5,296.582,250.5,288s6.037-16.447,16.005-22.194c9.955-5.74,23.741-9.306,38.995-9.306s29.04,3.566,38.995,9.306C354.463,271.553,360.5,279.418,360.5,288Z" fill="#fff" stroke="#ffe100"/><path d="M351.953,287.693c.094-14.869-20.766-27.054-46.592-27.216s-46.839,11.761-46.932,26.63c-.094,14.87,20.766,27.055,46.592,27.217c25.827.162,46.839-11.761,46.932-26.631Z" fill="#ffe100" stroke="#ffe100" stroke-miterlimit="10"/><path d="M348.12,298.203c10.033-10.747,15.596-24.893,15.564-39.576.18-43.715,26.877-87.59,26.877-87.59c7.321-14.499,10.798-30.625,10.1-46.843s-5.548-31.9877-14.087-45.808c-8.54-13.8203-20.485-25.231-34.698-33.1456-14.214-7.9147-30.222-12.0698-46.502-12.0698-16.279,0-32.288,4.1551-46.501,12.0698-14.214,7.9146-26.159,19.3253-34.698,33.1456-8.54,13.8203-13.389,29.59-14.087,45.808s2.779,32.344,10.1,46.843c0,0,26.686,43.885,26.876,87.59-.028,14.684,5.539,28.83,15.574,39.576" fill="none" stroke="#ffe100" stroke-miterlimit="10"/><path d="M293.912,145.34l6.373,5.31-3.187-6.372-1.062-4.249-1.062-8.497l1.062-8.497l2.124-10.621l2.125-5.311l4.248-7.4347l5.311-4.2485h5.31l-2.124-1.0621-4.248-2.1242-3.187-1.0622-3.186,1.0622-4.249,4.2485-4.248,6.373-2.124,6.372-2.125,8.497-1.062,9.56l1.062,8.497l4.249,9.559Z" fill="#fff"/><path d="M310.906,108.165l-2.124-6.372l4.248,1.062l2.125,3.186l2.124,6.373v9.559l-1.292,8.116-2.957,7.816-4.024,8.763-5.235,7.853-6.673,7.813-3.186-7.435l2.124-2.124l7.435-10.622l3.187-6.372l2.124-6.373l2.124-8.497v-12.746Z" fill="#fff"/><path d="M257.8,170.831l4.96,2.887-4.96-7.136-1.062-4.248v-6.373l2.124-5.311l4.248-5.31l5.311-3.187l6.373-1.062l7.435,1.062-1.063-1.062-5.317-2.276-6.108-1.745-5.189.835-3.566,1.062-6.373,5.311-3.186,4.627-1.062,9.18l2.797,7.779l4.638,4.967Z" fill="#fff"/><path d="M283.291,153.837l-3.952-6.297l3.49,1.745l4.71,4.552l3.187,6.372l1.062,4.249v2.124l-1.106,1.027-6.329,3.222-8.497,2.124-4.249-1.062-4.484-2.538v-.649h6.108l6.873-2.124l6.215-4.208-1.966-5.351-1.062-3.186Z" fill="#fff"/><path d="M311.968,148.526l2.124-3.186l5.311,3.186-4.249,1.062-3.186-1.062Z" fill="#fff"/><path d="M326.458,139.687l-1.746,7.853l7.436-4.325l6.526-5.273l6.108-7.853l5.235-8.726l3.49-7.853l2.008-8.531-1.062-4.249-1.818-1.181-3.491,1.745-.872,4.363-2.316,7.819-4.665,9.632-5.235,6.981-4.97,5.692-4.628,3.906Z" fill="#fff"/><path d="M314.092,145.34l6.373,3.186l4.249-16.994l6.372-13.808l9.559-13.807l11.684-10.6214l4.248-1.0622-5.31-3.1863h-3.187l-4.248,2.1242-6.373,5.3106-7.435,9.5591-7.435,12.746-3.186,14.869-5.311,11.684Z" fill="#fff"/><path d="M311.624,279.299l5.655,3.055-1.292-20.507-.833-19.854-.912-17.666.912-18.446l1.063-26.553l3.186-24.429-6.906.495-2.653,21.81-1.062,28.677-.648,17.573.648,18.539l1.097,19.854l1.745,17.452Z" fill="#fff"/><path d="M288.937,291.514l6.108,3.491.873-11.344l1.745-34.902v-17.452l-.565-30.737L293.3,171.1l-4.699,2.917l2.081,20.642c.873,14.834.873,27.922.873,27.922s.371,12.438,0,27.923c-.341,14.202-1.365,30.157-2.618,41.01Z" fill="#fff"/><path d="M316.217,149.588l4.248-1.062-1.062,6.373h-2.124-8.497l3.186-6.373l4.249,1.062Z" fill="#fff"/><path d="M297.098,162.334l7.435-9.559-6.373-6.373-3.186-12.746l1.062-14.869l4.249-12.746l5.31-7.4348l4.249-3.1864h4.248l4.249,4.2485l3.186,8.4967v9.559v5.311l-2.124,8.497-2.124,6.373-2.124,4.248-4.249,8.497-5.311,7.435-5.31,6.373-4.249,4.249-7.435,5.31-10.621,4.249h-6.373l-7.435-3.187-5.31-6.372-2.124-7.435v-6.373l3.186-6.373l4.248-4.248l4.249-2.125l4.248-1.062h7.435l5.311,2.125l4.248,4.248l3.187,5.311l3.186,6.372l1.062,3.187Zm5.8-19.118l5.536,4.324l1.41-2.2l2.124-4.249l2.124-5.31l1.062-4.249l2.125-7.435v-10.621l-1.063-6.373-3.186-4.248-4.248-1.062-5.311,6.372-3.186,10.622-1.063,9.559l1.063,8.497l2.613,6.373Zm-13.235,13.807l2.125,8.497-1.062,2.124-4.249,2.125-4.248,2.124-5.311,1.062-6.373-1.062-5.31-4.249-3.187-5.31-1.062-5.311l2.647-5.992l4.788-3.567l6.373-1.062l6.372,2.124l4.249,3.186l4.248,5.311Z" clip-rule="evenodd" fill="#fff" fill-rule="evenodd"/><path d="M324.6,147.574c4.581-1.926,8.757-4.697,12.308-8.168c4.12-3.959,7.661-8.476,10.52-13.418c7.085-12.23,9.968-23.792,6.447-25.861-3.521-2.068-12.138,6.248-19.233,18.489-6.713,11.594-9.181,23.336-11.053,34.835v.191c-2.459,15.771-3.915,31.682-4.362,47.637-.805,26.306-.006,52.636,2.394,78.845l-4.159,2.386c-.341-3.84-.656-7.697-.947-11.572-1.999-24.94-2.461-49.978-1.383-74.973.59-13.815,1.975-27.585,4.149-41.242.184-1.124.375-2.248.574-3.373.138-.827.298-1.654.457-2.471c2.054-10.745,5.043-21.088,11.383-32.066c9.298-16.07,21.063-26.6777,26.265-23.6864s1.862,18.4564-7.447,34.5274c-3.166,5.574-7.03,10.725-11.499,15.327-4.321,4.513-9.553,8.06-15.351,10.406" fill="#fff"/><path d="M295.045,295.005l4.363-1.745.872-14.834l1.746-24.432.383-21.56-.383-19.451-.873-22.687-3.49-22.687L293.3,171.1l3.798,26.284c1.062,38.237,0,64.79,0,64.79s-.991,25.75-2.053,32.831Z" fill="#fff"/><path d="M326.344,139.576c1.548-1.152,3.026-2.396,4.426-3.723c4.12-3.959,7.661-8.476,10.52-13.418c4.862-8.401,7.745-16.484,7.936-21.385" fill="none" stroke="#ffe100" stroke-miterlimit="10"/><path d="M303.1,142.663c2.421-4.27,4.375-8.786,5.83-13.471c1.495-4.704,2.301-9.599,2.394-14.532c0-5.304-.851-9.611-2.245-12.475" fill="none" stroke="#ffe100" stroke-miterlimit="10"/><path d="M294.314,155.084c1.568-1.773,3.045-3.625,4.425-5.547" fill="none" stroke="#ffe100" stroke-miterlimit="10"/><path d="M266.261,168.587c2.513.624,5.137.645,7.66.064c4.432-1.063,8.579-3.08,12.148-5.908v0c-1.489-6.184-3.542-11.806-7.319-15.381" fill="none" stroke="#ffe100" stroke-miterlimit="10"/><path d="M304.866,153.037c-6.382-3.575-9.765-11.148-9.765-22.01c0-15.158,5.968-30.868,13.318-35.1001c7.351-4.2323,13.319,4.6141,13.319,19.7721c0,10.851-3.436,22.371-9.766,33.254-1.12,1.909-2.304,3.769-3.553,5.58-.68.986-1.372,1.941-2.127,2.917-2.617,3.49-5.528,6.751-8.702,9.748-1.436,1.347-2.904,2.599-4.383,3.744-5.149,4.01-10.446,6.513-15.35,7.256-3.964.628-8.024-.121-11.5-2.122-9.308-5.367-12.638-16.972-7.446-25.967c5.191-8.995,17.02-11.869,26.328-6.46c6.383,3.639,9.34,10.608,11.383,18.956" fill="none" stroke="#ffe100" stroke-miterlimit="10"/><path d="M319.217,154.777c-2.853.649-5.804.739-8.691.265-.718-.128-1.428-.295-2.128-.499" fill="none" stroke="#ffe100" stroke-miterlimit="10"/><path d="M324.6,147.574c4.581-1.926,8.757-4.697,12.308-8.168c4.12-3.959,7.661-8.476,10.52-13.418c7.085-12.23,9.968-23.792,6.447-25.861-3.521-2.068-12.138,6.248-19.233,18.489-6.713,11.594-9.181,23.336-11.053,34.835v.191c-2.459,15.771-3.915,31.682-4.362,47.637-.805,26.306-.006,52.636,2.394,78.845l-4.159,2.386c-.341-3.84-.656-7.697-.947-11.572-1.999-24.94-2.461-49.978-1.383-74.973.59-13.815,1.975-27.585,4.149-41.242.184-1.124.375-2.248.574-3.373.138-.827.298-1.654.457-2.471c2.054-10.745,5.043-21.088,11.383-32.066c9.298-16.07,21.063-26.6777,26.265-23.6864s1.862,18.4564-7.447,34.5274c-3.166,5.574-7.03,10.725-11.499,15.327-4.321,4.513-9.553,8.06-15.351,10.406" fill="none" stroke="#ffe100" stroke-linejoin="round" stroke-miterlimit="10"/><path d="M311.972,148.953c2.724.621,5.553.621,8.277,0" fill="none" stroke="#ffe100" stroke-miterlimit="10"/><path d="M292.207,166.232c-1.808-7.531-4.457-14.213-10.021-17.406-7.084-4.084-15.68-2.45-19.233,3.649s-.638,14.33,6.447,18.435c3.268,1.713,7.055,2.166,10.638,1.273c4.541-1.105,8.78-3.199,12.414-6.131c1.435-1.084,2.809-2.245,4.117-3.479c3.063-2.907,5.835-6.104,8.276-9.547c1.255-1.76,2.447-3.585,3.553-5.462c2.794-4.673,5.026-9.657,6.649-14.851c1.491-4.704,2.294-9.599,2.383-14.532c0-11.541-4.043-18.5627-9.032-15.688-4.989,2.875-9.031,14.543-9.031,26.083-.063,4.046.757,8.056,2.404,11.753c1.362,3.06,3.689,5.593,6.627,7.213" fill="none" stroke="#ffe100" stroke-miterlimit="10"/><path d="M297.622,167.208c2.266,12.04,3.645,24.228,4.127,36.468c1.234,24.525.426,50.364-1.383,76.554-.29,4.243-.606,8.486-.946,12.728l-4.181,2.377c2.191-27.898,3.34-55.403,2.383-81.603-.543-14.797-1.692-29.329-4.351-42.62v-.149" fill="none" stroke="#ffe100" stroke-linejoin="round" stroke-miterlimit="10"/><path d="M295.239,295.335l-6.138-3.533c2.191-27.897,3.34-55.402,2.393-81.602-.34-12.022-1.406-24.012-3.191-35.906" fill="none" stroke="#ffe100" stroke-miterlimit="10"/><path d="M317.43,282.489l-6.128-3.532c-.355-3.84-.674-7.698-.957-11.573-1.994-24.929-2.452-49.956-1.373-74.941.514-12.428,1.682-24.82,3.5-37.125" fill="none" stroke="#ffe100" stroke-miterlimit="10"/><path d="M286.069,162.7l6.138,3.533" fill="none" stroke="#ffe100" stroke-miterlimit="10"/><path d="M314.111,145.4l6.138,3.532" fill="none" stroke="#ffe100" stroke-miterlimit="10"/><path d="M315.185,95.8209l-6.138-3.5322c-1.014-.6405-2.193-.9717-3.393-.9529s-2.369.3869-3.362,1.0589c-7.361,4.243-13.319,19.9423-13.319,35.0993c0,10.862,3.405,18.436,9.766,22.011l6.127,3.532" fill="none" stroke="#ffe100" stroke-miterlimit="10"/><path d="M357.875,93.1266l-6.138-3.5747c-5.202-2.9912-16.957,7.6161-26.265,23.6861-1.479,2.554-2.828,5.181-4.043,7.871" fill="none" stroke="#ffe100" stroke-miterlimit="10"/><path d="M265.261,175.472l-6.138-3.533c-8.436-5.632-11.297-16.664-6.287-25.266c5.213-8.974,16.957-11.912,26.265-6.556l6.138,3.532" fill="none" stroke="#ffe100" stroke-miterlimit="10"/><g style="mix-blend-mode:multiply" opacity="0.4" filter="url(#eWrZjKXtAgN100-filter)"><path d="M348.528,302.025c11.329-12.587,15.642-25.738,15.61-40.919.18-45.198,26.956-90.562,26.956-90.562c7.343-14.991,10.83-31.664,10.13-48.432s-5.564-33.0732-14.129-47.3624c-8.564-14.2892-20.545-26.0871-34.8-34.2703C338.039,32.2961,321.984,28,305.656,28s-32.384,4.2961-46.639,12.4793-26.236,19.9811-34.801,34.2703c-8.564,14.2892-13.428,30.5944-14.128,47.3624s2.787,33.441,10.13,48.432c0,0,26.765,45.374,26.956,90.562-.029,15.182,4.287,28.333,15.62,40.919" fill="#ffe100"/></g></g><g id="eWrZjKXtAgN102" style="mix-blend-mode:multiply" transform="translate(.000001 0)"><path d="M97.4537,261.129c2.5191-.101,5.0183-.081,7.5673.06" fill="none" stroke="#2ab2ff" stroke-miterlimit="10"/><path d="M114.786,262.343c6.626,1.136,13.012,3.386,18.887,6.654c18.216,10.518,18.326,27.509.241,37.946s-47.51,10.377-65.7253-.14c-18.2153-10.518-18.3256-27.499-.2408-37.946c6.0842-3.374,12.716-5.647,19.5902-6.715" fill="none" stroke="#2ab2ff" stroke-miterlimit="10"/><path d="M63.5723,345.511c3.5696,6.834,8.945,12.557,15.5413,16.548c6.5962,3.99,14.1606,6.096,21.8704,6.086c7.709-.009,15.268-2.132,21.855-6.139s11.948-9.743,15.501-16.585" fill="#2ab2ff"/><path d="M63.5723,345.511c3.5696,6.834,8.945,12.557,15.5413,16.548c6.5962,3.99,14.1606,6.096,21.8704,6.086c7.709-.009,15.268-2.132,21.855-6.139s11.948-9.743,15.501-16.585" fill="none" stroke="#2ab2ff" stroke-miterlimit="10"/><path d="M154.157,316.407c1.275,11.652-5.57,23.193-15.767,29.104-10.196,5.911-23.695,8.972-37.133,9.033-13.6586,0-27.3477-3.011-37.8152-9.033-10.1866-5.881-17.0612-17.412-15.7666-29.104" fill="#fff"/><path d="M154.157,316.407c1.275,11.652-5.57,23.193-15.767,29.104-10.196,5.911-23.695,8.972-37.133,9.033-13.6586,0-27.3477-3.011-37.8152-9.033-10.1866-5.881-17.0612-17.412-15.7666-29.104" fill="none" stroke="#2ab2ff" stroke-miterlimit="10"/><path d="M154.157,316.457c.532,8.21-4.596,16.499-15.415,22.742-20.704,11.953-54.3952,11.882-75.2701-.161-10.7686-6.212-16.0575-14.412-15.7063-22.521" fill="#fff"/><path d="M154.157,316.457c.532,8.21-4.596,16.499-15.415,22.742-20.704,11.953-54.3952,11.882-75.2701-.161-10.7686-6.212-16.0575-14.412-15.7063-22.521" fill="none" stroke="#2ab2ff" stroke-miterlimit="10"/><path d="M156.355,300.55c1.937,12.555-5.329,25.18-16.319,31.523-10.738,6.202-24.748,9.374-38.779,9.484-14.2607,0-28.562-3.171-39.4911-9.484-10.9292-6.312-18.2555-18.968-16.3085-31.523" fill="#fff"/><path d="M156.355,300.55c1.937,12.555-5.329,25.18-16.319,31.523-10.738,6.202-24.748,9.374-38.779,9.484-14.2607,0-28.562-3.171-39.4911-9.484-10.9292-6.312-18.2555-18.968-16.3085-31.523" fill="none" stroke="#2ab2ff" stroke-miterlimit="10"/><path d="M155.632,297.339c3.101,9.965-2.007,20.583-15.254,28.241-21.628,12.495-56.8241,12.414-78.6122-.161-13.3378-7.697-18.5565-18.305-15.6361-28.231" fill="#fff"/><path d="M155.632,297.339c3.101,9.965-2.007,20.583-15.254,28.241-21.628,12.495-56.8241,12.414-78.6122-.161-13.3378-7.697-18.5565-18.305-15.6361-28.231" fill="none" stroke="#2ab2ff" stroke-miterlimit="10"/><path d="M156.041,286.912c1.935,12.605-5.177,24.267-16.154,30.629-10.727,6.222-24.721,9.394-38.736,9.515-14.2454,0-28.5307-3.182-39.4478-9.515-10.917-6.332-18.0465-18.024-16.1017-30.629" fill="#fff"/><path d="M156.041,286.912c1.935,12.605-5.177,24.267-16.154,30.629-10.727,6.222-24.721,9.394-38.736,9.515-14.2454,0-28.5307-3.182-39.4478-9.515-10.917-6.332-18.0465-18.024-16.1017-30.629" fill="none" stroke="#2ab2ff" stroke-linejoin="round" stroke-miterlimit="10"/><path d="M156.043,287.935c0,8.614-6.059,16.508-16.064,22.276-9.99,5.761-23.826,9.339-39.135,9.339-15.3098,0-29.1454-3.578-39.1363-9.339-10.0042-5.768-16.0638-13.662-16.0638-22.276c0-8.613,6.0596-16.507,16.0638-22.275c9.9909-5.761,23.8265-9.34,39.1363-9.34c15.309,0,29.145,3.579,39.135,9.34c10.005,5.768,16.064,13.662,16.064,22.275Z" fill="#fff" stroke="#2ab2ff"/><path d="M147.464,287.628c.094-14.923-20.841-27.153-46.76-27.315-25.9194-.162-47.0073,11.804-47.1013,26.727s20.8413,27.152,46.7603,27.314c25.919.163,47.007-11.803,47.101-26.726Z" fill="#2ab2ff" stroke="#2ab2ff" stroke-miterlimit="10"/><path d="M143.617,298.175c10.069-10.785,15.652-24.983,15.62-39.718.181-43.873,26.973-87.905,26.973-87.905c7.348-14.551,10.837-30.736,10.137-47.012-.701-16.276-5.568-32.1027-14.138-45.9727s-20.558-25.3218-34.823-33.2649c-14.264-7.9431-30.331-12.1132-46.669-12.1132-16.3378,0-32.404,4.1701-46.6686,12.1132-14.2645,7.9431-26.2526,19.3949-34.8228,33.2649s-13.43719,29.6967-14.13759,45.9727s2.78909,32.461,10.13629,47.012c0,0,26.7827,44.042,26.9734,87.905-.0286,14.736,5.5582,28.934,15.63,39.718" fill="none" stroke="#2ab2ff" stroke-miterlimit="10"/><path d="M89.2138,144.762l6.3957,5.33-3.1979-6.396-1.0659-4.264-1.066-8.527l1.066-8.528l2.1319-10.659l2.1319-5.33l4.2637-7.4618l5.3298-4.2638h5.33l-2.132-1.066-4.264-2.1319-3.198-1.0659-3.1977,1.0659-4.2637,4.2638-4.2638,6.3957-2.1319,6.396-2.1319,8.527-1.066,9.594l1.066,8.527l4.2638,9.594Z" fill="#fff"/><path d="M106.269,107.454l-2.132-6.396l4.264,1.066l2.132,3.198l2.132,6.396v9.593l-1.297,8.145-2.967,7.844-4.038,8.795-5.2548,7.881-6.6965,7.841-3.1978-7.462l2.1319-2.131l7.4616-10.66l3.1976-6.396l2.132-6.395l2.132-8.528v-12.791Z" fill="#fff"/><path d="M52.9716,170.345l4.9782,2.897-4.9782-7.161-1.0659-4.264v-6.396l2.1319-5.329l4.2638-5.33l5.3297-3.198l6.3957-1.066l7.4616,1.066-1.0659-1.066-5.337-2.285-6.13-1.751-5.2077.838-3.5783,1.066-6.3957,5.33-3.1978,4.644-1.066,9.213l2.807,7.807l4.6546,4.985Z" fill="#fff"/><path d="M78.5544,153.289l-3.966-6.319l3.5028,1.752l4.7269,4.567l3.1979,6.396l1.0659,4.264v2.132l-1.1093,1.031-6.3523,3.233-8.5276,2.131-4.2638-1.065-4.5005-2.548v-.65h6.13l6.8981-2.132l6.2375-4.224-1.9737-5.37-1.0659-3.198Z" fill="#fff"/><path d="M107.335,147.96l2.132-3.198l5.329,3.198-4.263,1.066-3.198-1.066Z" fill="#fff"/><path d="M121.876,139.089l-1.751,7.881l7.463-4.34l6.548-5.292l6.13-7.882l5.255-8.757l3.502-7.881l2.016-8.562-1.066-4.2639-1.825-1.1857-3.503,1.7516-.876,4.378-2.324,7.847-4.681,9.668-5.255,7.005-4.987,5.712-4.646,3.921Z" fill="#fff"/><path d="M109.467,144.762l6.395,3.198l4.264-17.055l6.396-13.858l9.593-13.857l11.726-10.6595l4.264-1.066-5.33-3.1978h-3.198l-4.264,2.1319-6.395,5.3297-7.462,9.5937-7.462,12.791-3.197,14.923-5.33,11.726Z" fill="#fff"/><path d="M106.99,279.203l5.675,3.066-1.297-20.581-.835-19.925-.916-17.73.916-18.512l1.066-26.649l3.198-24.517-6.932.497-2.662,21.888-1.066,28.781-.65,17.636.65,18.606l1.101,19.925l1.752,17.515Z" fill="#fff"/><path d="M84.2212,291.462l6.13,3.503.8757-11.384l1.7514-35.028v-17.515l-.5667-30.847-3.8119-29.576-4.7157,2.927l2.0886,20.717c.8757,14.887.8757,28.022.8757,28.022s.3728,12.482,0,28.023c-.3419,14.254-1.3703,30.266-2.6271,41.158Z" fill="#fff"/><path d="M111.599,149.026l4.264-1.066-1.066,6.395h-2.132-8.528l3.198-6.395l4.264,1.066Z" fill="#fff"/><path d="M92.4117,161.817l7.4616-9.593-6.3956-6.396-3.1979-12.792l1.066-14.923l4.2637-12.791l5.3295-7.4618l4.264-3.1978h4.264l4.264,4.2638l3.197,8.5278v9.593v5.33l-2.131,8.528-2.132,6.395-2.132,4.264-4.264,8.528-5.33,7.461-5.3295,6.396-4.2637,4.264-7.4617,5.33-10.6594,4.263h-6.3957l-7.4617-3.198-5.3297-6.395-2.1319-7.462v-6.396l3.1978-6.395l4.2638-4.264l4.2638-2.132l4.2638-1.066h7.4616l5.3298,2.132l4.2638,4.264l3.1978,5.33l3.1979,6.395l1.0659,3.198Zm5.8207-19.187l5.5556,4.34l1.415-2.208l2.132-4.264l2.132-5.33l1.066-4.263l2.131-7.462v-10.66l-1.066-6.395-3.197-4.264-4.264-1.066-5.3299,6.396-3.1978,10.659-1.066,9.594l1.066,8.527l2.6231,6.396ZM84.95,156.487l2.1319,8.528-1.0659,2.132-4.2638,2.132-4.2638,2.132-5.3297,1.065-6.3957-1.065-5.3298-4.264-3.1978-5.33-1.066-5.33l2.6561-6.014l4.8056-3.579l6.3957-1.066l6.3956,2.132l4.2638,3.198l4.2638,5.329Z" clip-rule="evenodd" fill="#fff" fill-rule="evenodd"/><path d="M120.012,147.004c4.598-1.933,8.788-4.714,12.352-8.197c4.135-3.973,7.689-8.506,10.559-13.466c7.11-12.275,10.003-23.878,6.47-25.954-3.534-2.0759-12.182,6.27-19.303,18.555-6.737,11.636-9.213,23.42-11.092,34.96v.192c-2.468,15.828-3.93,31.796-4.378,47.808-.808,26.401-.006,52.825,2.402,79.129l-4.174,2.395c-.342-3.854-.658-7.725-.95-11.614-2.006-25.029-2.469-50.157-1.388-75.243.592-13.865,1.982-27.684,4.164-41.39.185-1.128.377-2.256.576-3.385.139-.83.299-1.661.459-2.48c2.061-10.784,5.061-21.164,11.424-32.182c9.331-16.128,21.139-26.7731,26.359-23.7711c5.221,3.0021,1.868,18.5231-7.473,34.6511-3.178,5.595-7.056,10.764-11.541,15.383-4.336,4.529-9.587,8.088-15.406,10.443" fill="#fff"/><path d="M90.351,294.965l4.3785-1.751.8757-14.887l1.7514-24.52.3848-21.637-.3848-19.521-.8757-22.769-3.5028-22.768-4.3786,3.503l3.8122,26.378c1.0659,38.374,0,65.023,0,65.023s-.9948,25.843-2.0607,32.949Z" fill="#fff"/><path d="M121.763,138.978c1.553-1.157,3.036-2.405,4.441-3.737c4.135-3.973,7.689-8.507,10.559-13.467c4.879-8.431,7.772-16.543,7.964-21.461" fill="none" stroke="#2ab2ff" stroke-miterlimit="10"/><path d="M98.4353,142.075c2.4287-4.285,4.3907-8.817,5.8507-13.519c1.5-4.721,2.309-9.633,2.402-14.585c0-5.322-.854-9.645-2.253-12.519" fill="none" stroke="#2ab2ff" stroke-miterlimit="10"/><path d="M89.6168,154.541c1.574-1.779,3.0564-3.638,4.4413-5.567" fill="none" stroke="#2ab2ff" stroke-miterlimit="10"/><path d="M61.4637,168.093c2.5214.625,5.1554.647,7.6869.064c4.4488-1.067,8.6099-3.091,12.1921-5.93v0c-1.4946-6.206-3.5551-11.848-7.3452-15.436" fill="none" stroke="#2ab2ff" stroke-miterlimit="10"/><path d="M100.208,152.487c-6.4061-3.588-9.8012-11.189-9.8012-22.09c0-15.212,5.9894-30.9781,13.3662-35.2257c7.378-4.2475,13.367,4.6308,13.367,19.8437c0,10.89-3.448,22.451-9.801,33.373-1.124,1.916-2.313,3.783-3.566,5.6-.683.99-1.377,1.948-2.135,2.927-2.6263,3.503-5.548,6.776-8.733,9.783-1.4412,1.352-2.9146,2.609-4.3985,3.758-5.1673,4.024-10.484,6.537-15.4057,7.282-3.978.631-8.0527-.121-11.5409-2.129-9.3417-5.387-12.6833-17.033-7.4734-26.06c5.21-9.028,17.0819-11.913,26.4235-6.484c6.4057,3.652,9.3737,10.646,11.4235,19.024" fill="none" stroke="#2ab2ff" stroke-miterlimit="10"/><path d="M114.61,154.233c-2.863.651-5.825.742-8.723.266-.72-.129-1.433-.296-2.135-.501" fill="none" stroke="#2ab2ff" stroke-miterlimit="10"/><path d="M120.012,147.004c4.598-1.933,8.788-4.714,12.352-8.197c4.135-3.973,7.689-8.506,10.559-13.466c7.11-12.275,10.003-23.878,6.47-25.954-3.534-2.0759-12.182,6.27-19.303,18.555-6.737,11.636-9.213,23.42-11.092,34.96v.192c-2.468,15.828-3.93,31.796-4.378,47.808-.808,26.401-.006,52.825,2.402,79.129l-4.174,2.395c-.342-3.854-.658-7.725-.95-11.614-2.006-25.029-2.469-50.157-1.388-75.243.592-13.865,1.982-27.684,4.164-41.39.185-1.128.377-2.256.576-3.385.139-.83.299-1.661.459-2.48c2.061-10.784,5.061-21.164,11.424-32.182c9.331-16.128,21.139-26.7731,26.359-23.7711c5.221,3.0021,1.868,18.5231-7.473,34.6511-3.178,5.595-7.056,10.764-11.541,15.383-4.336,4.529-9.587,8.088-15.406,10.443" fill="none" stroke="#2ab2ff" stroke-linejoin="round" stroke-miterlimit="10"/><path d="M107.339,148.388c2.734.623,5.573.623,8.306,0" fill="none" stroke="#2ab2ff" stroke-miterlimit="10"/><path d="M87.5031,165.73c-1.815-7.559-4.4733-14.265-10.057-17.47-7.1103-4.098-15.7366-2.459-19.3025,3.663-3.5658,6.121-.6406,14.382,6.4698,18.501c3.2805,1.719,7.0808,2.174,10.6761,1.278c4.5575-1.109,8.8122-3.211,12.4591-6.153c1.44-1.088,2.8193-2.254,4.1317-3.492c3.0741-2.917,5.856-6.126,8.3057-9.581c1.26-1.767,2.456-3.598,3.566-5.482c2.804-4.689,5.044-9.692,6.673-14.904c1.496-4.721,2.302-9.634,2.391-14.584c0-11.583-4.057-18.63-9.064-15.745s-9.0639,14.595-9.0639,26.177c-.0633,4.06.76,8.085,2.4128,11.795c1.3673,3.071,3.7031,5.613,6.6511,7.239" fill="none" stroke="#2ab2ff" stroke-miterlimit="10"/><path d="M92.9371,166.709c2.2741,12.083,3.6585,24.315,4.1423,36.599c1.2384,24.613.4271,50.545-1.3879,76.829-.2918,4.258-.6086,8.516-.9502,12.775l-4.1957,2.384c2.1993-27.997,3.3523-55.601,2.3915-81.896-.5445-14.85-1.6976-29.434-4.3666-42.773v-.149" fill="none" stroke="#2ab2ff" stroke-linejoin="round" stroke-miterlimit="10"/><path d="M90.5456,295.296l-6.1602-3.545c2.1993-27.997,3.3523-55.601,2.4022-81.896-.3417-12.064-1.4112-24.098-3.2029-36.035" fill="none" stroke="#2ab2ff" stroke-miterlimit="10"/><path d="M112.816,282.405l-6.15-3.545c-.355-3.854-.676-7.726-.96-11.615-2.001-25.018-2.461-50.136-1.378-75.21.516-12.473,1.688-24.91,3.513-37.259" fill="none" stroke="#2ab2ff" stroke-miterlimit="10"/><path d="M81.3429,162.185l6.1601,3.545" fill="none" stroke="#2ab2ff" stroke-miterlimit="10"/><path d="M109.485,144.822l6.16,3.545" fill="none" stroke="#2ab2ff" stroke-miterlimit="10"/><path d="M110.564,95.0649l-6.161-3.545c-1.017-.6428-2.201-.9752-3.405-.9562-1.2046.0189-2.3772.3882-3.374,1.0627-7.3879,4.2582-13.3665,20.0136-13.3665,35.2256c0,10.901,3.4164,18.502,9.8007,22.09l6.1498,3.545" fill="none" stroke="#2ab2ff" stroke-miterlimit="10"/><path d="M153.407,92.3609l-6.16-3.5875c-5.221-3.0021-17.018,7.6434-26.36,23.7716-1.484,2.563-2.838,5.2-4.057,7.899" fill="none" stroke="#2ab2ff" stroke-miterlimit="10"/><path d="M60.4602,175.002l-6.1601-3.545c-8.4662-5.653-11.3381-16.724-6.3096-25.357c5.2313-9.007,17.0178-11.955,26.3594-6.579l6.1601,3.545" fill="none" stroke="#2ab2ff" stroke-miterlimit="10"/><g style="mix-blend-mode:multiply" opacity="0.4" filter="url(#eWrZjKXtAgN150-filter)"><path d="M144.026,302.011c11.37-12.633,15.699-25.831,15.666-41.066.182-45.361,27.054-90.888,27.054-90.888c7.368-15.045,10.868-31.778,10.166-48.606-.703-16.829-5.584-33.1926-14.18-47.5332-8.595-14.3406-20.619-26.181-34.925-34.3936C133.5,31.3116,117.386,27,101,27c-16.3864,0-32.5,4.3116-46.8067,12.5242s-26.3302,20.053-34.9257,34.3936-13.47686,30.7042-14.17933,47.5332c-.70248,16.828,2.79733,33.561,10.16623,48.606c0,0,26.8618,45.537,27.0531,90.888-.0288,15.237,4.3028,28.434,15.6761,41.066" fill="#2ab2ff"/></g></g><script><![CDATA[!function(t,n){"object"==typeof exports&&"undefined"!=typeof module?module.exports=n():"function"==typeof define&&define.amd?define(n):((t="undefined"!=typeof globalThis?globalThis:t||self).__SVGATOR_PLAYER__=t.__SVGATOR_PLAYER__||{},t.__SVGATOR_PLAYER__["7c8cb2ed"]=n())}(this,(function(){"use strict";function t(t,n){var e=Object.keys(t);if(Object.getOwnPropertySymbols){var r=Object.getOwnPropertySymbols(t);n&&(r=r.filter((function(n){return Object.getOwnPropertyDescriptor(t,n).enumerable}))),e.push.apply(e,r)}return e}function n(n){for(var e=1;e<arguments.length;e++){var r=null!=arguments[e]?arguments[e]:{};e%2?t(Object(r),!0).forEach((function(t){o(n,t,r[t])})):Object.getOwnPropertyDescriptors?Object.defineProperties(n,Object.getOwnPropertyDescriptors(r)):t(Object(r)).forEach((function(t){Object.defineProperty(n,t,Object.getOwnPropertyDescriptor(r,t))}))}return n}function e(t){return(e="function"==typeof Symbol&&"symbol"==typeof Symbol.iterator?function(t){return typeof t}:function(t){return t&&"function"==typeof Symbol&&t.constructor===Symbol&&t!==Symbol.prototype?"symbol":typeof t})(t)}function r(t,n){if(!(t instanceof n))throw new TypeError("Cannot call a class as a function")}function i(t,n){for(var e=0;e<n.length;e++){var r=n[e];r.enumerable=r.enumerable||!1,r.configurable=!0,"value"in r&&(r.writable=!0),Object.defineProperty(t,r.key,r)}}function u(t,n,e){return n&&i(t.prototype,n),e&&i(t,e),t}function o(t,n,e){return n in t?Object.defineProperty(t,n,{value:e,enumerable:!0,configurable:!0,writable:!0}):t[n]=e,t}function a(t){return(a=Object.setPrototypeOf?Object.getPrototypeOf:function(t){return t.__proto__||Object.getPrototypeOf(t)})(t)}function l(t,n){return(l=Object.setPrototypeOf||function(t,n){return t.__proto__=n,t})(t,n)}function f(){if("undefined"==typeof Reflect||!Reflect.construct)return!1;if(Reflect.construct.sham)return!1;if("function"==typeof Proxy)return!0;try{return Boolean.prototype.valueOf.call(Reflect.construct(Boolean,[],(function(){}))),!0}catch(t){return!1}}function s(t,n,e){return(s=f()?Reflect.construct:function(t,n,e){var r=[null];r.push.apply(r,n);var i=new(Function.bind.apply(t,r));return e&&l(i,e.prototype),i}).apply(null,arguments)}function c(t,n){if(n&&("object"==typeof n||"function"==typeof n))return n;if(void 0!==n)throw new TypeError("Derived constructors may only return object or undefined");return function(t){if(void 0===t)throw new ReferenceError("this hasn't been initialised - super() hasn't been called");return t}(t)}function h(t,n,e){return(h="undefined"!=typeof Reflect&&Reflect.get?Reflect.get:function(t,n,e){var r=function(t,n){for(;!Object.prototype.hasOwnProperty.call(t,n)&&null!==(t=a(t)););return t}(t,n);if(r){var i=Object.getOwnPropertyDescriptor(r,n);return i.get?i.get.call(e):i.value}})(t,n,e||t)}function v(t){return function(t){if(Array.isArray(t))return y(t)}(t)||function(t){if("undefined"!=typeof Symbol&&null!=t[Symbol.iterator]||null!=t["@@iterator"])return Array.from(t)}(t)||function(t,n){if(!t)return;if("string"==typeof t)return y(t,n);var e=Object.prototype.toString.call(t).slice(8,-1);"Object"===e&&t.constructor&&(e=t.constructor.name);if("Map"===e||"Set"===e)return Array.from(t);if("Arguments"===e||/^(?:Ui|I)nt(?:8|16|32)(?:Clamped)?Array$/.test(e))return y(t,n)}(t)||function(){throw new TypeError("Invalid attempt to spread non-iterable instance.\nIn order to be iterable, non-array objects must have a [Symbol.iterator]() method.")}()}function y(t,n){(null==n||n>t.length)&&(n=t.length);for(var e=0,r=new Array(n);e<n;e++)r[e]=t[e];return r}Number.isInteger||(Number.isInteger=function(t){return"number"==typeof t&&isFinite(t)&&Math.floor(t)===t}),Number.EPSILON||(Number.EPSILON=2220446049250313e-31);var g=d(Math.pow(10,-6));function d(t){var n=arguments.length>1&&void 0!==arguments[1]?arguments[1]:6;if(Number.isInteger(t))return t;var e=Math.pow(10,n);return Math.round((+t+Number.EPSILON)*e)/e}function p(t,n){var e=arguments.length>2&&void 0!==arguments[2]?arguments[2]:g;return Math.abs(t-n)<e}var m=Math.PI/180;function b(t){return t}function A(t,n,e){var r=1-e;return 3*e*r*(t*r+n*e)+e*e*e}function w(){var t=arguments.length>0&&void 0!==arguments[0]?arguments[0]:0,n=arguments.length>1&&void 0!==arguments[1]?arguments[1]:0,e=arguments.length>2&&void 0!==arguments[2]?arguments[2]:1,r=arguments.length>3&&void 0!==arguments[3]?arguments[3]:1;return t<0||t>1||e<0||e>1?null:p(t,n)&&p(e,r)?b:function(i){if(i<=0)return t>0?i*n/t:0===n&&e>0?i*r/e:0;if(i>=1)return e<1?1+(i-1)*(r-1)/(e-1):1===e&&t<1?1+(i-1)*(n-1)/(t-1):1;for(var u,o=0,a=1;o<a;){var l=A(t,e,u=(o+a)/2);if(p(i,l))break;l<i?o=u:a=u}return A(n,r,u)}}function x(){return 1}function k(t){return 1===t?1:0}function _(){var t=arguments.length>0&&void 0!==arguments[0]?arguments[0]:1,n=arguments.length>1&&void 0!==arguments[1]?arguments[1]:0;if(1===t){if(0===n)return k;if(1===n)return x}var e=1/t;return function(t){return t>=1?1:(t+=n*e)-t%e}}var S=Math.sin,O=Math.cos,j=Math.acos,E=Math.asin,M=Math.tan,P=Math.atan2,I=Math.PI/180,R=180/Math.PI,B=Math.sqrt,F=function(){function t(){var n=arguments.length>0&&void 0!==arguments[0]?arguments[0]:1,e=arguments.length>1&&void 0!==arguments[1]?arguments[1]:0,i=arguments.length>2&&void 0!==arguments[2]?arguments[2]:0,u=arguments.length>3&&void 0!==arguments[3]?arguments[3]:1,o=arguments.length>4&&void 0!==arguments[4]?arguments[4]:0,a=arguments.length>5&&void 0!==arguments[5]?arguments[5]:0;r(this,t),this.m=[n,e,i,u,o,a],this.i=null,this.w=null,this.s=null}return u(t,[{key:"determinant",get:function(){var t=this.m;return t[0]*t[3]-t[1]*t[2]}},{key:"isIdentity",get:function(){if(null===this.i){var t=this.m;this.i=1===t[0]&&0===t[1]&&0===t[2]&&1===t[3]&&0===t[4]&&0===t[5]}return this.i}},{key:"point",value:function(t,n){var e=this.m;return{x:e[0]*t+e[2]*n+e[4],y:e[1]*t+e[3]*n+e[5]}}},{key:"translateSelf",value:function(){var t=arguments.length>0&&void 0!==arguments[0]?arguments[0]:0,n=arguments.length>1&&void 0!==arguments[1]?arguments[1]:0;if(!t&&!n)return this;var e=this.m;return e[4]+=e[0]*t+e[2]*n,e[5]+=e[1]*t+e[3]*n,this.w=this.s=this.i=null,this}},{key:"rotateSelf",value:function(){var t=arguments.length>0&&void 0!==arguments[0]?arguments[0]:0;if(t%=360){var n=S(t*=I),e=O(t),r=this.m,i=r[0],u=r[1];r[0]=i*e+r[2]*n,r[1]=u*e+r[3]*n,r[2]=r[2]*e-i*n,r[3]=r[3]*e-u*n,this.w=this.s=this.i=null}return this}},{key:"scaleSelf",value:function(){var t=arguments.length>0&&void 0!==arguments[0]?arguments[0]:1,n=arguments.length>1&&void 0!==arguments[1]?arguments[1]:1;if(1!==t||1!==n){var e=this.m;e[0]*=t,e[1]*=t,e[2]*=n,e[3]*=n,this.w=this.s=this.i=null}return this}},{key:"skewSelf",value:function(t,n){if(n%=360,(t%=360)||n){var e=this.m,r=e[0],i=e[1],u=e[2],o=e[3];t&&(t=M(t*I),e[2]+=r*t,e[3]+=i*t),n&&(n=M(n*I),e[0]+=u*n,e[1]+=o*n),this.w=this.s=this.i=null}return this}},{key:"resetSelf",value:function(){var t=arguments.length>0&&void 0!==arguments[0]?arguments[0]:1,n=arguments.length>1&&void 0!==arguments[1]?arguments[1]:0,e=arguments.length>2&&void 0!==arguments[2]?arguments[2]:0,r=arguments.length>3&&void 0!==arguments[3]?arguments[3]:1,i=arguments.length>4&&void 0!==arguments[4]?arguments[4]:0,u=arguments.length>5&&void 0!==arguments[5]?arguments[5]:0,o=this.m;return o[0]=t,o[1]=n,o[2]=e,o[3]=r,o[4]=i,o[5]=u,this.w=this.s=this.i=null,this}},{key:"recomposeSelf",value:function(){var t=arguments.length>0&&void 0!==arguments[0]?arguments[0]:null,n=arguments.length>1&&void 0!==arguments[1]?arguments[1]:null,e=arguments.length>2&&void 0!==arguments[2]?arguments[2]:null,r=arguments.length>3&&void 0!==arguments[3]?arguments[3]:null,i=arguments.length>4&&void 0!==arguments[4]?arguments[4]:null;return this.isIdentity||this.resetSelf(),t&&(t.x||t.y)&&this.translateSelf(t.x,t.y),n&&this.rotateSelf(n),e&&(e.x&&this.skewSelf(e.x,0),e.y&&this.skewSelf(0,e.y)),!r||1===r.x&&1===r.y||this.scaleSelf(r.x,r.y),i&&(i.x||i.y)&&this.translateSelf(i.x,i.y),this}},{key:"decompose",value:function(){var t=arguments.length>0&&void 0!==arguments[0]?arguments[0]:0,n=arguments.length>1&&void 0!==arguments[1]?arguments[1]:0,e=this.m,r=e[0]*e[0]+e[1]*e[1],i=[[e[0],e[1]],[e[2],e[3]]],u=B(r);if(0===u)return{origin:{x:d(e[4]),y:d(e[5])},translate:{x:d(t),y:d(n)},scale:{x:0,y:0},skew:{x:0,y:0},rotate:0};i[0][0]/=u,i[0][1]/=u;var o=e[0]*e[3]-e[1]*e[2]<0;o&&(u=-u);var a=i[0][0]*i[1][0]+i[0][1]*i[1][1];i[1][0]-=i[0][0]*a,i[1][1]-=i[0][1]*a;var l=B(i[1][0]*i[1][0]+i[1][1]*i[1][1]);if(0===l)return{origin:{x:d(e[4]),y:d(e[5])},translate:{x:d(t),y:d(n)},scale:{x:d(u),y:0},skew:{x:0,y:0},rotate:0};i[1][0]/=l,i[1][1]/=l,a/=l;var f=0;return i[1][1]<0?(f=j(i[1][1])*R,i[0][1]<0&&(f=360-f)):f=E(i[0][1])*R,o&&(f=-f),a=P(a,B(i[0][0]*i[0][0]+i[0][1]*i[0][1]))*R,o&&(a=-a),{origin:{x:d(e[4]),y:d(e[5])},translate:{x:d(t),y:d(n)},scale:{x:d(u),y:d(l)},skew:{x:d(a),y:0},rotate:d(f)}}},{key:"clone",value:function(){var t=this.m;return new this.constructor(t[0],t[1],t[2],t[3],t[4],t[5])}},{key:"toString",value:function(){var t=arguments.length>0&&void 0!==arguments[0]?arguments[0]:" ";if(null===this.s){var n=this.m.map((function(t){return d(t)}));1===n[0]&&0===n[1]&&0===n[2]&&1===n[3]?this.s="translate("+n[4]+t+n[5]+")":this.s="matrix("+n.join(t)+")"}return this.s}}],[{key:"create",value:function(t){return t?Array.isArray(t)?s(this,v(t)):t instanceof this?t.clone():(new this).recomposeSelf(t.origin,t.rotate,t.skew,t.scale,t.translate):new this}}]),t}();function N(t,n,e){return t>=.5?e:n}function T(t,n,e){return 0===t||n===e?n:t*(e-n)+n}function q(t,n,e){var r=T(t,n,e);return r<=0?0:r}function L(t,n,e){var r=T(t,n,e);return r<=0?0:r>=1?1:r}function C(t,n,e){return 0===t?n:1===t?e:{x:T(t,n.x,e.x),y:T(t,n.y,e.y)}}function D(t,n,e){return 0===t?n:1===t?e:{x:q(t,n.x,e.x),y:q(t,n.y,e.y)}}function V(t,n,e){var r=function(t,n,e){return Math.round(T(t,n,e))}(t,n,e);return r<=0?0:r>=255?255:r}function z(t,n,e){return 0===t?n:1===t?e:{r:V(t,n.r,e.r),g:V(t,n.g,e.g),b:V(t,n.b,e.b),a:T(t,null==n.a?1:n.a,null==e.a?1:e.a)}}function G(t,n,e){var r=n.length;if(r!==e.length)return N(t,n,e);for(var i=new Array(r),u=0;u<r;u++)i[u]=T(t,n[u],e[u]);return i}function Y(t,n){for(var e=[],r=0;r<t;r++)e.push(n);return e}function $(t,n){if(--n<=0)return t;var e=(t=Object.assign([],t)).length;do{for(var r=0;r<e;r++)t.push(t[r])}while(--n>0);return t}var U,Q=function(){function t(n){r(this,t),this.list=n,this.length=n.length}return u(t,[{key:"setAttribute",value:function(t,n){for(var e=this.list,r=0;r<this.length;r++)e[r].setAttribute(t,n)}},{key:"removeAttribute",value:function(t){for(var n=this.list,e=0;e<this.length;e++)n[e].removeAttribute(t)}},{key:"style",value:function(t,n){for(var e=this.list,r=0;r<this.length;r++)e[r].style[t]=n}}]),t}(),H=/-./g,J=function(t,n){return n.toUpperCase()};function Z(t){return"function"==typeof t?t:N}function K(t){return t?"function"==typeof t?t:Array.isArray(t)?function(t){var n=arguments.length>1&&void 0!==arguments[1]?arguments[1]:b;if(!Array.isArray(t))return n;switch(t.length){case 1:return _(t[0])||n;case 2:return _(t[0],t[1])||n;case 4:return w(t[0],t[1],t[2],t[3])||n}return n}(t,null):function(t,n){var e=arguments.length>2&&void 0!==arguments[2]?arguments[2]:b;switch(t){case"linear":return b;case"steps":return _(n.steps||1,n.jump||0)||e;case"bezier":case"cubic-bezier":return w(n.x1||0,n.y1||0,n.x2||0,n.y2||0)||e}return e}(t.type,t.value,null):null}function W(t,n,e){var r=arguments.length>3&&void 0!==arguments[3]&&arguments[3],i=n.length-1;if(t<=n[0].t)return r?[0,0,n[0].v]:n[0].v;if(t>=n[i].t)return r?[i,1,n[i].v]:n[i].v;var u,o=n[0],a=null;for(u=1;u<=i;u++){if(!(t>n[u].t)){a=n[u];break}o=n[u]}return null==a?r?[i,1,n[i].v]:n[i].v:o.t===a.t?r?[u,1,a.v]:a.v:(t=(t-o.t)/(a.t-o.t),o.e&&(t=o.e(t)),r?[u,t,e(t,o.v,a.v)]:e(t,o.v,a.v))}function X(t,n){var e=arguments.length>2&&void 0!==arguments[2]?arguments[2]:null;return t&&t.length?"function"!=typeof n?null:("function"!=typeof e&&(e=null),function(r){var i=W(r,t,n);return null!=i&&e&&(i=e(i)),i}):null}function tt(t,n){return t.t-n.t}function nt(t,n,r,i,u){var o,a="@"===r[0],l="#"===r[0],f=U[r],s=N;switch(a?(o=r.substr(1),r=o.replace(H,J)):l&&(r=r.substr(1)),e(f)){case"function":if(s=f(i,u,W,K,r,a,n,t),l)return s;break;case"string":s=X(i,Z(f));break;case"object":if((s=X(i,Z(f.i),f.f))&&"function"==typeof f.u)return f.u(n,s,r,a,t)}return s?function(t,n,e){if(arguments.length>3&&void 0!==arguments[3]&&arguments[3])return t instanceof Q?function(r){return t.style(n,e(r))}:function(r){return t.style[n]=e(r)};if(Array.isArray(n)){var r=n.length;return function(i){var u=e(i);if(null==u)for(var o=0;o<r;o++)t[o].removeAttribute(n);else for(var a=0;a<r;a++)t[a].setAttribute(n,u)}}return function(r){var i=e(r);null==i?t.removeAttribute(n):t.setAttribute(n,i)}}(n,r,s,a):null}function et(t,n,r,i){if(!i||"object"!==e(i))return null;var u=null,o=null;return Array.isArray(i)?o=function(t){if(!t||!t.length)return null;for(var n=0;n<t.length;n++)t[n].e&&(t[n].e=K(t[n].e));return t.sort(tt)}(i):(o=i.keys,u=i.data||null),o?nt(t,n,r,o,u):null}function rt(t,n,e){if(!e)return null;var r=[];for(var i in e)if(e.hasOwnProperty(i)){var u=et(t,n,i,e[i]);u&&r.push(u)}return r.length?r:null}function it(t,n){if(!n.settings.duration||n.settings.duration<0)return null;var e,r,i,u,o,a=function(t,n){if(!n)return null;var e=[];if(Array.isArray(n))for(var r=n.length,i=0;i<r;i++){var u=n[i];if(2===u.length){var o=null;if("string"==typeof u[0])o=t.getElementById(u[0]);else if(Array.isArray(u[0])){o=[];for(var a=0;a<u[0].length;a++)if("string"==typeof u[0][a]){var l=t.getElementById(u[0][a]);l&&o.push(l)}o=o.length?1===o.length?o[0]:new Q(o):null}if(o){var f=rt(t,o,u[1]);f&&(e=e.concat(f))}}}else for(var s in n)if(n.hasOwnProperty(s)){var c=t.getElementById(s);if(c){var h=rt(t,c,n[s]);h&&(e=e.concat(h))}}return e.length?e:null}(t,n.elements);return a?(e=a,r=n.settings,i=r.duration,u=e.length,o=null,function(t,n){var a=r.iterations||1/0,l=(r.alternate&&a%2==0)^r.direction>0?i:0,f=t%i,s=1+(t-f)/i;n*=r.direction,r.alternate&&s%2==0&&(n=-n);var c=!1;if(s>a)f=l,c=!0,-1===r.fill&&(f=r.direction>0?0:i);else if(n<0&&(f=i-f),f===o)return!1;o=f;for(var h=0;h<u;h++)e[h](f);return c}):null}function ut(t,n){if(U=n,!t||!t.root||!Array.isArray(t.animations))return null;var e=function(t){for(var n=document.getElementsByTagName("svg"),e=0;e<n.length;e++)if(n[e].id===t.root&&!n[e].svgatorAnimation)return n[e].svgatorAnimation=!0,n[e];return null}(t);if(!e)return null;var r=t.animations.map((function(t){return it(e,t)})).filter((function(t){return!!t}));return r.length?{svg:e,animations:r,animationSettings:t.animationSettings,options:t.options||void 0}:null}function ot(t){return+("0x"+(t.replace(/[^0-9a-fA-F]+/g,"")||27))}function at(t,n,e){return!t||!e||n>t.length?t:t.substring(0,n)+at(t.substring(n+1),e,e)}function lt(t){var n=arguments.length>1&&void 0!==arguments[1]?arguments[1]:27;return!t||t%n?t%n:lt(t/n,n)}function ft(t,n,e){if(t&&t.length){var r=ot(e),i=ot(n),u=lt(r)+5,o=at(t,lt(r,5),u);return o=o.replace(/\x7c$/g,"==").replace(/\x2f$/g,"="),o=function(t,n,e){var r=+("0x"+t.substring(0,4));t=t.substring(4);for(var i=n%r+e%27,u=[],o=0;o<t.length;o+=2)if("|"!==t[o]){var a=+("0x"+t[o]+t[o+1])-i;u.push(a)}else{var l=+("0x"+t.substring(o+1,o+1+4))-i;o+=3,u.push(l)}return String.fromCharCode.apply(String,u)}(o=(o=atob(o)).replace(/[\x41-\x5A]/g,""),i,r),o=JSON.parse(o)}}var st=[{key:"alternate",def:!1},{key:"fill",def:1},{key:"iterations",def:0},{key:"direction",def:1},{key:"speed",def:1},{key:"fps",def:100}],ct=function(){function t(n,e){var i=this,u=arguments.length>2&&void 0!==arguments[2]?arguments[2]:null;r(this,t),this._id=0,this._running=!1,this._rollingBack=!1,this._animations=n,this._settings=e,(!u||u<"2022-05-02")&&delete this._settings.speed,st.forEach((function(t){i._settings[t.key]=i._settings[t.key]||t.def})),this.duration=e.duration,this.offset=e.offset||0,this.rollbackStartOffset=0}return u(t,[{key:"alternate",get:function(){return this._settings.alternate}},{key:"fill",get:function(){return this._settings.fill}},{key:"iterations",get:function(){return this._settings.iterations}},{key:"direction",get:function(){return this._settings.direction}},{key:"speed",get:function(){return this._settings.speed}},{key:"fps",get:function(){return this._settings.fps}},{key:"maxFiniteDuration",get:function(){return this.iterations>0?this.iterations*this.duration:this.duration}},{key:"_apply",value:function(t){for(var n=arguments.length>1&&void 0!==arguments[1]?arguments[1]:{},e=this._animations,r=e.length,i=0,u=0;u<r;u++)n[u]?i++:(n[u]=e[u](t,1),n[u]&&i++);return i}},{key:"_rollback",value:function(t){var n=this,e=1/0,r=null;this.rollbackStartOffset=t,this._rollingBack=!0,this._running=!0;this._id=window.requestAnimationFrame((function i(u){if(n._rollingBack){null==r&&(r=u);var o=Math.round(t-(u-r)*n.speed);if(o>n.duration&&e!==1/0){var a=!!n.alternate&&o/n.duration%2>1,l=o%n.duration;o=(l+=a?n.duration:0)||n.duration}var f=(n.fps?1e3/n.fps:0)*n.speed,s=Math.max(0,o);s<e-f&&(n.offset=s,e=s,n._apply(s));var c=n.iterations>0&&-1===n.fill&&o>=n.maxFiniteDuration;(o<=0||n.offset<o||c)&&n.stop(),n._id=window.requestAnimationFrame(i)}}))}},{key:"_start",value:function(){var t=this,n=arguments.length>0&&void 0!==arguments[0]?arguments[0]:0,e=-1/0,r=null,i={};this._running=!0;var u=function u(o){null==r&&(r=o);var a=Math.round((o-r)*t.speed+n),l=(t.fps?1e3/t.fps:0)*t.speed;if(a>e+l&&!t._rollingBack&&(t.offset=a,e=a,t._apply(a,i)===t._animations.length))return void t.pause(!0);t._id=window.requestAnimationFrame(u)};this._id=window.requestAnimationFrame(u)}},{key:"_pause",value:function(){this._id&&window.cancelAnimationFrame(this._id),this._running=!1}},{key:"play",value:function(){if(!this._running)return this._rollingBack?this._rollback(this.offset):this._start(this.offset)}},{key:"stop",value:function(){this._pause(),this.offset=0,this.rollbackStartOffset=0,this._rollingBack=!1,this._apply(0)}},{key:"reachedToEnd",value:function(){return this.iterations>0&&this.offset>=this.iterations*this.duration}},{key:"restart",value:function(){var t=arguments.length>0&&void 0!==arguments[0]&&arguments[0];this.stop(t),this.play(t)}},{key:"pause",value:function(){this._pause()}},{key:"reverse",value:function(){this.direction=-this.direction}}],[{key:"build",value:function(t,n){delete t.animationSettings,t.options=ft(t.options,t.root,"7c8cb2ed"),t.animations.map((function(n){n.settings=ft(n.s,t.root,"7c8cb2ed"),delete n.s,t.animationSettings||(t.animationSettings=n.settings)}));var e=t.version;if(!(t=ut(t,n)))return null;var r=t.options||{},i=new this(t.animations,t.animationSettings,e);return{el:t.svg,options:r,player:i}}},{key:"push",value:function(t){return this.build(t)}},{key:"init",value:function(){var t=this,n=window.__SVGATOR_PLAYER__&&window.__SVGATOR_PLAYER__["7c8cb2ed"];Array.isArray(n)&&n.splice(0).forEach((function(n){return t.build(n)}))}}]),t}();function ht(t){return d(t)+""}function vt(t){var n=arguments.length>1&&void 0!==arguments[1]?arguments[1]:" ";return t&&t.length?t.map(ht).join(n):""}function yt(t){return ht(t.x)+","+ht(t.y)}function gt(t){if(!t)return"transparent";if(null==t.a||t.a>=1){var n=function(t){return 1===(t=parseInt(t).toString(16)).length?"0"+t:t},e=function(t){return t.charAt(0)===t.charAt(1)},r=n(t.r),i=n(t.g),u=n(t.b);return e(r)&&e(i)&&e(u)&&(r=r.charAt(0),i=i.charAt(0),u=u.charAt(0)),"#"+r+i+u}return"rgba("+t.r+","+t.g+","+t.b+","+t.a+")"}function dt(t){return t?"url(#"+t+")":"none"}!function(){for(var t=0,n=["ms","moz","webkit","o"],e=0;e<n.length&&!window.requestAnimationFrame;++e)window.requestAnimationFrame=window[n[e]+"RequestAnimationFrame"],window.cancelAnimationFrame=window[n[e]+"CancelAnimationFrame"]||window[n[e]+"CancelRequestAnimationFrame"];window.requestAnimationFrame||(window.requestAnimationFrame=function(n){var e=Date.now(),r=Math.max(0,16-(e-t)),i=window.setTimeout((function(){n(e+r)}),r);return t=e+r,i},window.cancelAnimationFrame=window.clearTimeout)}();var pt={f:null,i:D,u:function(t,n){return function(e){var r=n(e);t.setAttribute("rx",ht(r.x)),t.setAttribute("ry",ht(r.y))}}},mt={f:null,i:function(t,n,e){return 0===t?n:1===t?e:{width:q(t,n.width,e.width),height:q(t,n.height,e.height)}},u:function(t,n){return function(e){var r=n(e);t.setAttribute("width",ht(r.width)),t.setAttribute("height",ht(r.height))}}};Object.freeze({M:2,L:2,Z:0,H:1,V:1,C:6,Q:4,T:2,S:4,A:7});var bt={},At=null;function wt(t){var n=function(){if(At)return At;if("object"!==("undefined"==typeof document?"undefined":e(document))||!document.createElementNS)return{};var t=document.createElementNS("http://www.w3.org/2000/svg","svg");return t&&t.style?(t.style.position="absolute",t.style.opacity="0.01",t.style.zIndex="-9999",t.style.left="-9999px",t.style.width="1px",t.style.height="1px",At={svg:t}):{}}().svg;if(!n)return function(t){return null};var r=document.createElementNS(n.namespaceURI,"path");r.setAttributeNS(null,"d",t),r.setAttributeNS(null,"fill","none"),r.setAttributeNS(null,"stroke","none"),n.appendChild(r);var i=r.getTotalLength();return function(t){var n=r.getPointAtLength(i*t);return{x:n.x,y:n.y}}}function xt(t){return bt[t]?bt[t]:bt[t]=wt(t)}function kt(t,n,e,r){if(!t||!r)return!1;var i=["M",t.x,t.y];if(n&&e&&(i.push("C"),i.push(n.x),i.push(n.y),i.push(e.x),i.push(e.y)),n?!e:e){var u=n||e;i.push("Q"),i.push(u.x),i.push(u.y)}return n||e||i.push("L"),i.push(r.x),i.push(r.y),i.join(" ")}function _t(t,n,e,r){var i=arguments.length>4&&void 0!==arguments[4]?arguments[4]:1,u=kt(t,n,e,r),o=xt(u);try{return o(i)}catch(t){return null}}function St(t,n,e){return t+(n-t)*e}function Ot(t,n,e){var r=arguments.length>3&&void 0!==arguments[3]&&arguments[3],i={x:St(t.x,n.x,e),y:St(t.y,n.y,e)};return r&&(i.a=jt(t,n)),i}function jt(t,n){return Math.atan2(n.y-t.y,n.x-t.x)}function Et(t,n,e,r){var i=1-r;return i*i*t+2*i*r*n+r*r*e}function Mt(t,n,e,r){return 2*(1-r)*(n-t)+2*r*(e-n)}function Pt(t,n,e,r){var i=arguments.length>4&&void 0!==arguments[4]&&arguments[4],u=_t(t,n,null,e,r);return u||(u={x:Et(t.x,n.x,e.x,r),y:Et(t.y,n.y,e.y,r)}),i&&(u.a=It(t,n,e,r)),u}function It(t,n,e,r){return Math.atan2(Mt(t.y,n.y,e.y,r),Mt(t.x,n.x,e.x,r))}function Rt(t,n,e,r,i){var u=i*i;return i*u*(r-t+3*(n-e))+3*u*(t+e-2*n)+3*i*(n-t)+t}function Bt(t,n,e,r,i){var u=1-i;return 3*(u*u*(n-t)+2*u*i*(e-n)+i*i*(r-e))}function Ft(t,n,e,r,i){var u=arguments.length>5&&void 0!==arguments[5]&&arguments[5],o=_t(t,n,e,r,i);return o||(o={x:Rt(t.x,n.x,e.x,r.x,i),y:Rt(t.y,n.y,e.y,r.y,i)}),u&&(o.a=Nt(t,n,e,r,i)),o}function Nt(t,n,e,r,i){return Math.atan2(Bt(t.y,n.y,e.y,r.y,i),Bt(t.x,n.x,e.x,r.x,i))}function Tt(t,n,e){var r=arguments.length>3&&void 0!==arguments[3]&&arguments[3];if(Lt(n)){if(Ct(e))return Pt(n,e.start,e,t,r)}else if(Lt(e)){if(Dt(n))return Pt(n,n.end,e,t,r)}else{if(Dt(n))return Ct(e)?Ft(n,n.end,e.start,e,t,r):Pt(n,n.end,e,t,r);if(Ct(e))return Pt(n,e.start,e,t,r)}return Ot(n,e,t,r)}function qt(t,n,e){var r=Tt(t,n,e,!0);return r.a=function(t){return arguments.length>1&&void 0!==arguments[1]&&arguments[1]?t+Math.PI:t}(r.a)/m,r}function Lt(t){return!t.type||"corner"===t.type}function Ct(t){return null!=t.start&&!Lt(t)}function Dt(t){return null!=t.end&&!Lt(t)}var Vt=new F;var zt={f:function(t){return t?t.join(" "):""},i:function(t,n,r){if(0===t)return n;if(1===t)return r;var i=n.length;if(i!==r.length)return N(t,n,r);for(var u,o=new Array(i),a=0;a<i;a++){if((u=e(n[a]))!==e(r[a]))return N(t,n,r);if("number"===u)o[a]=T(t,n[a],r[a]);else{if(n[a]!==r[a])return N(t,n,r);o[a]=n[a]}}return o}},Gt={f:null,i:G,u:function(t,n){return function(e){var r=n(e);t.setAttribute("x1",ht(r[0])),t.setAttribute("y1",ht(r[1])),t.setAttribute("x2",ht(r[2])),t.setAttribute("y2",ht(r[3]))}}},Yt={f:ht,i:T},$t={f:ht,i:L},Ut={f:function(t){var n=arguments.length>1&&void 0!==arguments[1]?arguments[1]:" ";return t&&t.length>0&&(t=t.map((function(t){return d(t,4)}))),vt(t,n)},i:function(t,n,e){var r,i,u,o=n.length,a=e.length;if(o!==a)if(0===o)n=Y(o=a,0);else if(0===a)a=o,e=Y(o,0);else{var l=(u=(r=o)*(i=a)/function(t,n){for(var e;n;)e=n,n=t%n,t=e;return t||1}(r,i))<0?-u:u;n=$(n,Math.floor(l/o)),e=$(e,Math.floor(l/a)),o=a=l}for(var f=[],s=0;s<o;s++)f.push(d(q(t,n[s],e[s])));return f}};function Qt(t,n,e){return t.map((function(t){return function(t,n,e){var r=t.v;if(!r||"g"!==r.t||r.s||!r.v||!r.r)return t;var i=e.getElementById(r.r),u=i&&i.querySelectorAll("stop")||[];return r.s=r.v.map((function(t,n){var e=u[n]&&u[n].getAttribute("offset");return{c:t,o:e=d(parseInt(e)/100)}})),delete r.v,t}(t,0,e)}))}var Ht={gt:"gradientTransform",c:{x:"cx",y:"cy"},rd:"r",f:{x:"x1",y:"y1"},to:{x:"x2",y:"y2"}};function Jt(t,n,r,i,u,o,a,l){return Qt(t,0,l),n=function(t,n,e){for(var r,i,u,o=t.length-1,a={},l=0;l<=o;l++)(r=t[l]).e&&(r.e=n(r.e)),r.v&&"g"===(i=r.v).t&&i.r&&(u=e.getElementById(i.r))&&(a[i.r]={e:u,s:u.querySelectorAll("stop")});return a}(t,i,l),function(i){var u=r(i,t,Zt);if(!u)return"none";if("c"===u.t)return gt(u.v);if("g"===u.t){if(!n[u.r])return dt(u.r);var o=n[u.r];return function(t,n){for(var e=t.s,r=e.length;r<n.length;r++){var i=e[e.length-1].cloneNode();i.id=Xt(i.id),t.e.appendChild(i),e=t.s=t.e.querySelectorAll("stop")}for(var u=0,o=e.length,a=n.length-1;u<o;u++)e[u].setAttribute("stop-color",gt(n[Math.min(u,a)].c)),e[u].setAttribute("offset",n[Math.min(u,a)].o)}(o,u.s),Object.keys(Ht).forEach((function(t){if(void 0!==u[t])if("object"!==e(Ht[t])){var n,r="gt"===t?(n=u[t],Array.isArray(n)?"matrix("+n.join(" ")+")":""):u[t],i=Ht[t];o.e.setAttribute(i,r)}else Object.keys(Ht[t]).forEach((function(n){if(void 0!==u[t][n]){var e=u[t][n],r=Ht[t][n];o.e.setAttribute(r,e)}}))})),dt(u.r)}return"none"}}function Zt(t,e,r){if(0===t)return e;if(1===t)return r;if(e&&r){var i=e.t;if(i===r.t)switch(e.t){case"c":return{t:i,v:z(t,e.v,r.v)};case"g":if(e.r===r.r){var u={t:i,s:Kt(t,e.s,r.s),r:e.r};return e.gt&&r.gt&&(u.gt=G(t,e.gt,r.gt)),e.c?(u.c=C(t,e.c,r.c),u.rd=q(t,e.rd,r.rd)):e.f&&(u.f=C(t,e.f,r.f),u.to=C(t,e.to,r.to)),u}}if("c"===e.t&&"g"===r.t||"c"===r.t&&"g"===e.t){var o="c"===e.t?e:r,a="g"===e.t?n({},e):n({},r),l=a.s.map((function(t){return{c:o.v,o:t.o}}));return a.s="c"===e.t?Kt(t,l,a.s):Kt(t,a.s,l),a}}return N(t,e,r)}function Kt(t,n,e){if(n.length===e.length)return n.map((function(n,r){return Wt(t,n,e[r])}));for(var r=Math.max(n.length,e.length),i=[],u=0;u<r;u++){var o=Wt(t,n[Math.min(u,n.length-1)],e[Math.min(u,e.length-1)]);i.push(o)}return i}function Wt(t,n,e){return{o:L(t,n.o,e.o||0),c:z(t,n.c,e.c||{})}}function Xt(t){return t.replace(/-fill-([0-9]+)$/,(function(t,n){return"-fill-"+(+n+1)}))}var tn={blur:D,brightness:q,contrast:q,"drop-shadow":function(t,n,e){return 0===t?n:1===t?e:{blur:D(t,n.blur,e.blur),offset:C(t,n.offset,e.offset),color:z(t,n.color,e.color)}},grayscale:q,"hue-rotate":T,invert:q,opacity:q,saturate:q,sepia:q};function nn(t,n,e){if(0===t)return n;if(1===t)return e;var r=n.length;if(r!==e.length)return N(t,n,e);for(var i,u=[],o=0;o<r;o++){if(n[o].type!==e[o].type)return n;if(!(i=tn[n[o].type]))return N(t,n,e);u.push({type:n.type,value:i(t,n[o].value,e[o].value)})}return u}var en={blur:function(t){return t?function(n){t.setAttribute("stdDeviation",yt(n))}:null},brightness:function(t,n,e){return(t=un(e,n))?function(n){n=ht(n),t.map((function(t){return t.setAttribute("slope",n)}))}:null},contrast:function(t,n,e){return(t=un(e,n))?function(n){var e=ht((1-n)/2);n=ht(n),t.map((function(t){t.setAttribute("slope",n),t.setAttribute("intercept",e)}))}:null},"drop-shadow":function(t,n,e){var r=e.getElementById(n+"-blur");if(!r)return null;var i=e.getElementById(n+"-offset");if(!i)return null;var u=e.getElementById(n+"-flood");return u?function(t){r.setAttribute("stdDeviation",yt(t.blur)),i.setAttribute("dx",ht(t.offset.x)),i.setAttribute("dy",ht(t.offset.y)),u.setAttribute("flood-color",gt(t.color))}:null},grayscale:function(t){return t?function(n){t.setAttribute("values",vt(function(t){return[.2126+.7874*(t=1-t),.7152-.7152*t,.0722-.0722*t,0,0,.2126-.2126*t,.7152+.2848*t,.0722-.0722*t,0,0,.2126-.2126*t,.7152-.7152*t,.0722+.9278*t,0,0,0,0,0,1,0]}(n)))}:null},"hue-rotate":function(t){return t?function(n){return t.setAttribute("values",ht(n))}:null},invert:function(t,n,e){return(t=un(e,n))?function(n){n=ht(n)+" "+ht(1-n),t.map((function(t){return t.setAttribute("tableValues",n)}))}:null},opacity:function(t,n,e){return(t=e.getElementById(n+"-A"))?function(n){return t.setAttribute("tableValues","0 "+ht(n))}:null},saturate:function(t){return t?function(n){return t.setAttribute("values",ht(n))}:null},sepia:function(t){return t?function(n){return t.setAttribute("values",vt(function(t){return[.393+.607*(t=1-t),.769-.769*t,.189-.189*t,0,0,.349-.349*t,.686+.314*t,.168-.168*t,0,0,.272-.272*t,.534-.534*t,.131+.869*t,0,0,0,0,0,1,0]}(n)))}:null}};var rn=["R","G","B"];function un(t,n){var e=rn.map((function(e){return t.getElementById(n+"-"+e)||null}));return-1!==e.indexOf(null)?null:e}var on={fill:Jt,"fill-opacity":$t,stroke:Jt,"stroke-opacity":$t,"stroke-width":Yt,"stroke-dashoffset":{f:ht,i:T},"stroke-dasharray":Ut,opacity:$t,transform:function(t,n,r,i){if(!(t=function(t,n){if(!t||"object"!==e(t))return null;var r=!1;for(var i in t)t.hasOwnProperty(i)&&(t[i]&&t[i].length?(t[i].forEach((function(t){t.e&&(t.e=n(t.e))})),r=!0):delete t[i]);return r?t:null}(t,i)))return null;var u=function(e,i,u){var o=arguments.length>3&&void 0!==arguments[3]?arguments[3]:null;return t[e]?r(i,t[e],u):n&&n[e]?n[e]:o};return n&&n.a&&t.o?function(n){var e=r(n,t.o,qt);return Vt.recomposeSelf(e,u("r",n,T,0)+e.a,u("k",n,C),u("s",n,C),u("t",n,C)).toString()}:function(t){return Vt.recomposeSelf(u("o",t,Tt,null),u("r",t,T,0),u("k",t,C),u("s",t,C),u("t",t,C)).toString()}},"#filter":function(t,n,e,r,i,u,o,a){if(!n.items||!t||!t.length)return null;var l=function(t,n){var e=(t=t.map((function(t){return t&&en[t[0]]?(n.getElementById(t[1]),en[t[0]](n.getElementById(t[1]),t[1],n)):null}))).length;return function(n){for(var r=0;r<e;r++)t[r]&&t[r](n[r].value)}}(n.items,a);return l?(t=function(t,n){return t.map((function(t){return t.e=n(t.e),t}))}(t,r),function(n){l(e(n,t,nn))}):null},"#line":Gt,points:{f:vt,i:G},d:zt,r:Yt,"#size":mt,"#radius":pt,_:function(t,n){if(Array.isArray(t))for(var e=0;e<t.length;e++)this[t[e]]=n;else this[t]=n}},an=function(t){!function(t,n){if("function"!=typeof n&&null!==n)throw new TypeError("Super expression must either be null or a function");t.prototype=Object.create(n&&n.prototype,{constructor:{value:t,writable:!0,configurable:!0}}),n&&l(t,n)}(o,t);var n,e,i=(n=o,e=f(),function(){var t,r=a(n);if(e){var i=a(this).constructor;t=Reflect.construct(r,arguments,i)}else t=r.apply(this,arguments);return c(this,t)});function o(){return r(this,o),i.apply(this,arguments)}return u(o,null,[{key:"build",value:function(t){var n=h(a(o),"build",this).call(this,t,on);if(!n)return null;n.el,n.options,function(t,n,e){t.play()}(n.player)}}]),o}(ct);return an.init(),an}));
(function(s,i,o,w,a,b){w[o]=w[o]||{};w[o][s]=w[o][s]||[];w[o][s].push(i);})('7c8cb2ed',{"root":"eWrZjKXtAgN1","version":"2022-05-04","animations":[{"elements":{"eWrZjKXtAgN2":{"transform":{"data":{"t":{"x":-508.655991,"y":-197.961517}},"keys":{"o":[{"t":0,"v":{"x":508.655991,"y":197.961518,"type":"corner"},"e":[0.42,0,0.58,1]},{"t":5000,"v":{"x":100.65596,"y":197.961518,"type":"corner"},"e":[0.42,0,0.58,1]},{"t":10000,"v":{"x":508.65596,"y":197.961518,"type":"corner"}}]}}},"eWrZjKXtAgN102":{"transform":{"data":{"t":{"x":-101.000077,"y":-197.57251}},"keys":{"o":[{"t":0,"v":{"x":101.000078,"y":197.57251,"type":"corner"},"e":[0.42,0,0.58,1]},{"t":5000,"v":{"x":509.000076,"y":197.57251,"type":"corner"},"e":[0.42,0,0.58,1]},{"t":10000,"v":{"x":101.000076,"y":197.57251,"type":"corner"}}]}}}},"s":"MDA1NNGJmNjZhOGI5R2I2YTViOGFkHYjNiMjY2N2U3NTc0NzQ3NDc0RNzA2NmE4YWRYYjZhOWE3QWI4MYWRiM2IyQzY2N2U3NTcwNjZOWYWRiOGE5YjZhNWI4YWRiM2IyNYjc2NjdlTDc0NzBJNjZhYVhhVZGIwYjA2NjdlNzU3MEQ2NmE1OYjBiOGE5YjZiMmE1TWI4YTk2XNjdlYWFhNWIwYjdhOTcwNjZiTN2I0YTlhOWE4VDY2N2VINzVjCMQ|"}],"options":"MDAxYMDhmMzY4Nzg4NzU4Njg4MzY0LZTM2ODA4Mzc1NzgzNjkx"},'__SVGATOR_PLAYER__',window)]]></script></svg>