<svg width="192" height="283" viewBox="0 0 192 283" fill="none" xmlns="http://www.w3.org/2000/svg">
<g clip-path="url(#clip0_1902_2039)">
<path d="M138.59 266.22C148.62 255.445 154.182 241.261 154.15 226.54C154.33 182.71 181.02 138.72 181.02 138.72C188.339 124.183 191.815 108.015 191.117 91.7541C190.42 75.4937 185.571 59.6824 177.034 45.8258C168.497 31.9693 156.555 20.5286 142.345 12.5932C128.135 4.65777 112.13 0.49173 95.855 0.49173C79.5795 0.49173 63.575 4.65777 49.3652 12.5932C35.1554 20.5286 23.2133 31.9693 14.676 45.8258C6.13868 59.6824 1.29036 75.4937 0.592644 91.7541C-0.105075 108.015 3.37104 124.183 10.69 138.72C10.69 138.72 37.37 182.72 37.56 226.54C37.5314 241.262 43.0968 255.446 53.13 266.22" stroke="#FF2A50" stroke-miterlimit="10"/>
<path d="M128.49 273.96C130.16 272.839 131.668 271.493 132.97 269.96" stroke="#FF2A50" stroke-miterlimit="10"/>
<path d="M138.53 259.49C139.812 255.055 140.432 250.456 140.37 245.84C140.51 207.28 160.88 180.26 160.88 180.26C166.47 170.67 169.13 157.94 168.59 143.26C168.05 128.58 164.36 112.54 157.84 96.56C151.256 80.4693 142.329 65.4402 131.35 51.96C120.5 38.7 108.28 27.96 95.85 20.8C83.42 13.64 71.2 10.24 60.35 10.97C55.1808 11.2308 50.1312 12.6191 45.5552 15.0375C40.9791 17.4559 36.9875 20.846 33.86 24.97C27.35 33.42 23.64 45.23 23.11 59.26C22.58 73.29 25.23 89.07 30.82 105.12C30.82 105.12 51.19 155.64 51.34 194.39C51.34 204.05 53.68 214.82 58.05 225.39" stroke="#FF2A50" stroke-miterlimit="10" stroke-dasharray="11.98 11.98"/>
<path d="M60.49 230.96C61.35 232.753 62.2633 234.53 63.23 236.29" stroke="#FF2A50" stroke-miterlimit="10"/>
<path d="M128.46 236.3C129.46 234.54 130.35 232.76 131.2 230.96" stroke="#FF2A50" stroke-miterlimit="10"/>
<path d="M135.75 219.89C138.664 211.719 140.215 203.124 140.34 194.45C140.48 155.72 160.85 105.18 160.85 105.18C166.44 89.13 169.09 73.35 168.56 59.32C168.03 45.29 164.33 33.48 157.81 25.03C154.681 20.9075 150.689 17.5185 146.113 15.1002C141.538 12.6819 136.489 11.2928 131.32 11.03C120.47 10.3 108.25 13.68 95.82 20.86C83.39 28.04 71.17 38.76 60.32 52.02C49.3406 65.5002 40.4142 80.5293 33.83 96.62C27.31 112.62 23.61 128.68 23.08 143.32C22.55 157.96 25.2 170.69 30.79 180.32C30.79 180.32 51.16 207.32 51.31 245.91C51.31 253.42 52.71 259.91 55.39 265.11" stroke="#FF2A50" stroke-miterlimit="10" stroke-dasharray="11.98 11.98"/>
<path d="M58.72 270.01C60.0249 271.54 61.532 272.886 63.2 274.01" stroke="#FF2A50" stroke-miterlimit="10"/>
<path d="M142.146 255.425C142.239 240.657 121.581 228.555 96.0049 228.394C70.4291 228.234 49.6205 240.075 49.5278 254.843C49.435 269.611 70.0931 281.713 95.6689 281.873C121.245 282.034 142.053 270.193 142.146 255.425Z" stroke="#FF2A50" stroke-miterlimit="10"/>
<path d="M115.59 117.12C117.045 116.033 118.434 114.861 119.75 113.61C123.623 109.878 126.952 105.619 129.64 100.96C134.21 93.04 136.92 85.42 137.1 80.8" stroke="#FF2A50" stroke-miterlimit="10"/>
<path d="M93.74 120.03C96.0152 116.005 97.8523 111.747 99.22 107.33C100.625 102.895 101.383 98.2811 101.47 93.63C101.47 88.63 100.67 84.57 99.36 81.87" stroke="#FF2A50" stroke-miterlimit="10"/>
<path d="M85.48 131.74C86.9543 130.068 88.3427 128.323 89.64 126.51" stroke="#FF2A50" stroke-miterlimit="10"/>
<path d="M59.11 144.47C61.4717 145.058 63.9388 145.078 66.31 144.53C70.477 143.528 74.3746 141.627 77.73 138.96V138.96C76.33 133.13 74.4 127.83 70.85 124.46" stroke="#FF2A50" stroke-miterlimit="10"/>
<path d="M95.4 129.81C89.4 126.44 86.22 119.3 86.22 109.06C86.22 94.77 91.83 79.96 98.74 75.97C105.65 71.98 111.26 80.32 111.26 94.61C111.26 104.84 108.03 115.7 102.08 125.96C101.027 127.76 99.9134 129.513 98.74 131.22C98.1 132.15 97.45 133.05 96.74 133.97C94.2799 137.261 91.5433 140.335 88.56 143.16C87.21 144.43 85.83 145.61 84.44 146.69C79.6 150.47 74.62 152.83 70.01 153.53C66.284 154.123 62.4674 153.417 59.2 151.53C50.45 146.47 47.32 135.53 52.2 127.05C57.08 118.57 68.2 115.86 76.95 120.96C82.95 124.39 85.73 130.96 87.65 138.83" stroke="#FF2A50" stroke-miterlimit="10"/>
<path d="M108.89 131.45C106.209 132.062 103.434 132.147 100.72 131.7C100.045 131.579 99.3777 131.422 98.72 131.23" stroke="#FF2A50" stroke-miterlimit="10"/>
<path d="M113.95 124.66C118.257 122.844 122.182 120.232 125.52 116.96C129.393 113.228 132.722 108.969 135.41 104.31C142.07 92.78 144.78 81.88 141.47 79.93C138.16 77.98 130.06 85.82 123.39 97.36C117.08 108.29 114.76 119.36 113 130.2V130.38C110.689 145.249 109.319 160.249 108.9 175.29C108.143 200.089 108.894 224.912 111.15 249.62L107.24 251.87C106.92 248.25 106.623 244.613 106.35 240.96C104.471 217.449 104.037 193.844 105.05 170.28C105.605 157.256 106.907 144.275 108.95 131.4C109.123 130.34 109.303 129.28 109.49 128.22C109.62 127.44 109.77 126.66 109.92 125.89C111.85 115.76 114.66 106.01 120.62 95.66C129.36 80.51 140.42 70.51 145.31 73.33C150.2 76.15 147.06 90.73 138.31 105.88C135.334 111.135 131.701 115.991 127.5 120.33C123.439 124.584 118.52 127.928 113.07 130.14" stroke="#FF2A50" stroke-miterlimit="10"/>
<path d="M102.08 125.96C104.64 126.545 107.3 126.545 109.86 125.96" stroke="#FF2A50" stroke-miterlimit="10"/>
<path d="M83.5 142.25C81.8 135.15 79.31 128.85 74.08 125.84C67.42 121.99 59.34 123.53 56 129.28C52.66 135.03 55.4 142.79 62.06 146.66C65.1328 148.275 68.6924 148.702 72.06 147.86C76.3288 146.818 80.3141 144.844 83.73 142.08C85.0788 141.058 86.3708 139.963 87.6 138.8C90.4795 136.06 93.0851 133.046 95.38 129.8C96.56 128.14 97.68 126.42 98.72 124.65C101.347 120.245 103.445 115.546 104.97 110.65C106.372 106.215 107.126 101.601 107.21 96.95C107.21 86.07 103.41 79.45 98.72 82.16C94.03 84.87 90.23 95.87 90.23 106.75C90.1707 110.564 90.9419 114.344 92.49 117.83C93.7707 120.715 95.9582 123.102 98.72 124.63" stroke="#FF2A50" stroke-miterlimit="10"/>
<path d="M88.59 143.17C90.7201 154.52 92.0169 166.011 92.47 177.55C93.63 200.67 92.87 225.03 91.17 249.72C90.8967 253.72 90.6 257.72 90.28 261.72L86.35 263.96C88.41 237.66 89.49 211.73 88.59 187.03C88.08 173.08 87 159.38 84.5 146.85V146.71" stroke="#FF2A50" stroke-miterlimit="10"/>
<path d="M86.35 263.96L80.58 260.63C82.64 234.33 83.72 208.4 82.83 183.7C82.51 172.367 81.5082 161.063 79.83 149.85" stroke="#FF2A50" stroke-miterlimit="10"/>
<path d="M107.21 251.85L101.45 248.52C101.117 244.9 100.817 241.263 100.55 237.61C98.6761 214.109 98.2452 190.514 99.26 166.96C99.743 155.244 100.841 143.561 102.55 131.96" stroke="#FF2A50" stroke-miterlimit="10"/>
<path d="M77.73 138.92L83.5 142.25" stroke="#FF2A50" stroke-miterlimit="10"/>
<path d="M104.09 122.61L109.86 125.94" stroke="#FF2A50" stroke-miterlimit="10"/>
<path d="M105.1 75.87L99.33 72.54C98.3769 71.9362 97.2682 71.6239 96.1401 71.6417C95.012 71.6595 93.9136 72.0065 92.98 72.64C86.06 76.64 80.46 91.44 80.46 105.73C80.46 115.97 83.66 123.11 89.64 126.48L95.4 129.81" stroke="#FF2A50" stroke-miterlimit="10"/>
<path d="M145.23 73.33L139.46 69.96C134.57 67.14 123.52 77.14 114.77 92.29C113.38 94.698 112.111 97.1744 110.97 99.71" stroke="#FF2A50" stroke-miterlimit="10"/>
<path d="M58.17 150.96L52.4 147.63C44.47 142.32 41.78 131.92 46.49 123.81C51.39 115.35 62.43 112.58 71.18 117.63L76.95 120.96" stroke="#FF2A50" stroke-miterlimit="10"/>
</g>
<defs>
<clipPath id="clip0_1902_2039">
<rect width="191.7" height="282.37" fill="white"/>
</clipPath>
</defs>
</svg>
