<svg width="43" height="43" viewBox="0 0 43 43" fill="none" xmlns="http://www.w3.org/2000/svg">
<g clip-path="url(#clip0_1841_281)">
<path d="M0.269404 23.7983L21.4998 35.8785L21.4998 42.9845L0.269411 30.9043L0.269404 23.7983Z" fill="#F2879A"/>
<path d="M0.269404 12.0916L21.4998 24.1718L21.4998 31.2778L0.269411 19.1976L0.269404 12.0916Z" fill="#F2879A"/>
<path d="M42.7305 19.2016L21.5001 7.12142L21.5001 0.0154356L42.7305 12.0956L42.7305 19.2016Z" fill="#F2879A"/>
<path d="M42.7305 30.9083L21.5001 18.8281L21.5001 11.7221L42.7305 23.8023L42.7305 30.9083Z" fill="#F2879A"/>
<path d="M21.5002 11.7217L0.269762 23.8019L0.269764 30.9079L21.5002 18.8277L21.5002 11.7217Z" fill="#FF2A50"/>
<path d="M21.5 0.0151134L0.26961 12.0953L0.269611 19.2013L21.5 7.12109L21.5 0.0151134Z" fill="#FF2A50"/>
<path d="M21.4998 31.2781L42.7303 19.1979L42.7303 12.092L21.4999 24.1721L21.4998 31.2781Z" fill="#FF2A50"/>
<path d="M21.4998 42.9848L42.7303 30.9046L42.7303 23.7987L21.4999 35.8788L21.4998 42.9848Z" fill="#FF2A50"/>
</g>
<defs>
<clipPath id="clip0_1841_281">
<rect width="43" height="43" fill="white"/>
</clipPath>
</defs>
</svg>
