<svg width="43" height="43" viewBox="0 0 43 43" fill="none" xmlns="http://www.w3.org/2000/svg">
<g clip-path="url(#clip0_1882_28)">
<path fill-rule="evenodd" clip-rule="evenodd" d="M0.301459 23.6491C0.266358 23.6691 0.24663 23.6962 0.246629 23.7245L0.246632 30.7623C0.246631 30.8054 0.292054 30.8442 0.361738 30.8607C0.431422 30.8772 0.511661 30.8681 0.565075 30.8377L21.5921 18.8733C21.6272 18.8533 21.6469 18.8262 21.6469 18.7979L21.6469 11.76C21.6469 11.717 21.6015 11.6782 21.5318 11.6617C21.4621 11.6452 21.3819 11.6543 21.3285 11.6847L0.301459 23.6491ZM21.2736 12.0166L21.2736 18.7538L0.619904 30.5058L0.619903 23.7686L21.2736 12.0166Z" fill="black"/>
<path fill-rule="evenodd" clip-rule="evenodd" d="M0.301337 12.0546C0.266236 12.0745 0.246508 12.1017 0.246507 12.1299L0.24651 19.1678C0.246509 19.2109 0.291931 19.2497 0.361616 19.2662C0.4313 19.2827 0.511539 19.2736 0.564953 19.2432L21.5919 7.27879C21.627 7.25882 21.6468 7.2317 21.6468 7.20342L21.6468 0.165531C21.6468 0.122496 21.6014 0.0836923 21.5317 0.0671984C21.462 0.0507044 21.3817 0.0597642 21.3283 0.090157L0.301337 12.0546ZM21.2735 0.422101L21.2735 7.15924L0.619782 18.9113L0.619781 12.1741L21.2735 0.422101Z" fill="black"/>
<path fill-rule="evenodd" clip-rule="evenodd" d="M21.5917 35.6099C21.6268 35.6298 21.6465 35.657 21.6465 35.6852L21.6465 42.7231C21.6465 42.7662 21.6011 42.805 21.5314 42.8215C21.4617 42.838 21.3815 42.8289 21.3281 42.7985L0.3011 30.8341C0.265998 30.8141 0.246271 30.787 0.246271 30.7587L0.246263 23.7208C0.246263 23.6778 0.291685 23.639 0.361369 23.6225C0.431053 23.606 0.511292 23.6151 0.564707 23.6455L21.5917 35.6099ZM0.619537 23.9774L0.619544 30.7145L21.2733 42.4666L21.2733 35.7294L0.619537 23.9774Z" fill="black"/>
<path fill-rule="evenodd" clip-rule="evenodd" d="M21.5917 24.0154C21.6268 24.0353 21.6465 24.0624 21.6465 24.0907L21.6465 31.1286C21.6465 31.1717 21.6011 31.2105 21.5314 31.227C21.4617 31.2434 21.3815 31.2344 21.3281 31.204L0.3011 19.2396C0.265998 19.2196 0.246271 19.1925 0.246271 19.1642L0.246263 12.1263C0.246263 12.0833 0.291685 12.0445 0.361369 12.028C0.431053 12.0115 0.511292 12.0205 0.564707 12.0509L21.5917 24.0154ZM0.619537 12.3829L0.619544 19.12L21.2733 30.872L21.2733 24.1349L0.619537 12.3829Z" fill="black"/>
<path fill-rule="evenodd" clip-rule="evenodd" d="M42.6187 30.8345C42.6538 30.8145 42.6735 30.7874 42.6735 30.7591L42.6735 23.7212C42.6735 23.6782 42.6281 23.6394 42.5584 23.6229C42.4887 23.6064 42.4085 23.6154 42.3551 23.6458L21.3281 35.6102C21.293 35.6302 21.2733 35.6573 21.2733 35.6856L21.2732 42.7235C21.2732 42.7665 21.3187 42.8053 21.3883 42.8218C21.458 42.8383 21.5383 42.8293 21.5917 42.7989L42.6187 30.8345ZM21.6465 42.4669L21.6465 35.7298L42.3002 23.9778L42.3002 30.7149L21.6465 42.4669Z" fill="black"/>
<path fill-rule="evenodd" clip-rule="evenodd" d="M42.6187 19.2399C42.6538 19.22 42.6735 19.1928 42.6735 19.1646L42.6735 12.1267C42.6735 12.0836 42.6281 12.0448 42.5584 12.0283C42.4887 12.0118 42.4085 12.0209 42.3551 12.0513L21.3281 24.0157C21.293 24.0357 21.2733 24.0628 21.2733 24.0911L21.2732 31.129C21.2732 31.172 21.3187 31.2108 21.3883 31.2273C21.458 31.2438 21.5383 31.2347 21.5917 31.2043L42.6187 19.2399ZM21.6465 30.8724L21.6465 24.1352L42.3002 12.3832L42.3002 19.1204L21.6465 30.8724Z" fill="black"/>
<path fill-rule="evenodd" clip-rule="evenodd" d="M21.3283 18.8736C21.2932 18.8537 21.2735 18.8266 21.2735 18.7983L21.2735 11.7604C21.2735 11.7173 21.3189 11.6785 21.3886 11.662C21.4583 11.6456 21.5385 11.6546 21.5919 11.685L42.6189 23.6494C42.654 23.6694 42.6737 23.6965 42.6737 23.7248L42.6737 30.7627C42.6737 30.8057 42.6283 30.8445 42.5586 30.861C42.4889 30.8775 42.4087 30.8685 42.3553 30.8381L21.3283 18.8736ZM42.3004 30.5061L42.3004 23.769L21.6467 12.0169L21.6467 18.7541L42.3004 30.5061Z" fill="black"/>
<path fill-rule="evenodd" clip-rule="evenodd" d="M21.3283 7.27919C21.2932 7.25922 21.2735 7.2321 21.2735 7.20382L21.2735 0.165927C21.2735 0.122891 21.3189 0.0840878 21.3886 0.0675941C21.4583 0.0511004 21.5385 0.0601596 21.5919 0.0905527L42.6189 12.055C42.654 12.0749 42.6737 12.1021 42.6737 12.1303L42.6737 19.1682C42.6737 19.2113 42.6283 19.2501 42.5586 19.2666C42.4889 19.2831 42.4087 19.274 42.3553 19.2436L21.3283 7.27919ZM42.3004 18.9117L42.3004 12.1745L21.6467 0.422497L21.6467 7.15964L42.3004 18.9117Z" fill="black"/>
</g>
<defs>
<clipPath id="clip0_1882_28">
<rect width="43" height="43" fill="black"/>
</clipPath>
</defs>
</svg>
