<svg width="100" height="145" viewBox="0 0 100 145" fill="none" xmlns="http://www.w3.org/2000/svg">
<path d="M72.9313 129.3C72.9778 121.925 62.6326 115.882 49.8247 115.802C37.0168 115.722 26.5962 121.635 26.5498 129.009C26.5033 136.383 36.8485 142.426 49.6564 142.506C62.4643 142.587 72.8849 136.674 72.9313 129.3Z" fill="#FF2A50" stroke="#FF2A50" stroke-width="0.5" stroke-miterlimit="10"/>
<path d="M44.2279 59.5887L47.379 62.2146L45.8034 59.0635L45.2783 56.9628L44.7531 52.7614L45.2783 48.56L46.3286 43.3083L47.379 40.6824L49.4797 37.0062L52.1055 34.9055H54.7314L53.6811 34.3803L51.5804 33.33L50.0048 32.8048L48.4293 33.33L46.3286 35.4307L44.2279 38.5817L43.1776 41.7328L42.1272 45.9342L41.6021 50.6607L42.1272 54.8621L44.2279 59.5887Z" fill="white"/>
<path d="M52.6308 41.2076L51.5804 38.0565L53.6811 38.5817L54.7315 40.1572L55.7818 43.3083V48.0349L53.6811 55.9125L50.0049 62.7397L45.8035 67.9915L44.228 64.3153L45.2783 63.2649L48.9545 58.0132L50.5301 54.8621L51.5804 51.7111L52.6308 47.5097V41.2076Z" fill="white"/>
<path d="M26.3721 72.1929L27.9476 72.7181L26.3721 70.0922L25.8469 67.9915V64.8404L26.8973 62.2146L28.998 59.5887L31.6238 58.0132L34.7749 57.488L38.4511 58.0132L37.9259 57.488L35.3 56.4376L33.1993 55.9125H30.5735L27.9476 56.4376L24.7966 59.0635L23.221 62.2146L22.6959 65.8908L24.2714 69.567L26.3721 72.1929Z" fill="white"/>
<path d="M38.9762 63.7901L37.4007 61.1642L39.5014 62.2146L41.0769 63.7901L42.6524 66.9411L43.1776 69.0418V70.0922L42.1273 71.1425L39.5014 72.1929L35.3 73.2432L33.1993 72.7181L31.6238 71.6677L35.3 70.6174L37.9259 69.567L40.5517 68.5167L40.0266 67.4663L39.5014 65.3656L38.9762 63.7901Z" fill="white"/>
<path d="M53.1559 61.1642L54.2063 59.5887L56.8322 61.1642L54.7315 61.6894L53.1559 61.1642Z" fill="white"/>
<path d="M60.5084 55.9125L59.4581 61.1642L63.1343 58.5383L67.3357 54.3369L72.0623 48.0349L73.1126 44.3586L74.6881 39.6321L74.1629 37.5314L72.5874 37.0062L71.5371 38.0565V39.6321L69.9616 43.8335L65.235 51.7111L62.6091 54.8621L60.5084 55.9125Z" fill="white"/>
<path d="M54.2062 59.5887L57.3573 61.1642L59.458 52.7614L62.609 45.9342L67.3356 39.1069L73.1125 33.8552L75.2132 33.33L72.5873 31.7545H71.0118L68.9111 32.8048L65.7601 35.4307L62.0839 40.1572L58.4076 46.4593L56.8321 53.8118L54.2062 59.5887Z" fill="white"/>
<path d="M52.6307 125.761L55.7818 127.336L54.7314 107.38V89.5236L55.2566 76.3943L56.8321 64.3153H53.6811L52.1056 75.3439L51.5804 89.5236V107.38L52.6307 125.761Z" fill="white"/>
<path d="M41.6021 132.063L44.7531 133.638L45.2783 123.66L46.3286 103.703L45.8034 86.8978L44.2279 71.6677L41.6021 73.7684L42.6524 90.574V114.207C42.6524 114.207 42.1272 128.562 41.6021 132.063Z" fill="white"/>
<path d="M55.2567 61.6894L57.3574 61.1642L56.8322 64.3153H55.7818H51.5804L53.156 61.1642L55.2567 61.6894Z" fill="white"/>
<path fill-rule="evenodd" clip-rule="evenodd" d="M45.8035 67.9915L49.4797 63.2649L46.3287 60.1139L44.7531 53.8118L45.2783 46.4594L47.379 40.1573L50.0049 36.481L52.1056 34.9055H54.2063L56.307 37.0062L57.8825 41.2076V45.9342V48.5601L56.8321 52.7614L55.7818 55.9125L54.7315 58.0132L52.6308 62.2146L50.0049 65.8908L47.379 69.0418L45.2783 71.1425L41.6021 73.7684L36.3503 75.8691H33.1993L29.5231 74.2936L26.8972 71.1425L25.8469 67.4663V64.3153L27.4224 61.1642L29.5231 59.0635L31.6238 58.0132L33.7245 57.488H37.4007L40.0266 58.5384L42.1273 60.6391L43.7028 63.2649L45.2783 66.416L45.8035 67.9915ZM48.9545 58.5384L51.0552 60.6391L52.1056 59.5887L53.1559 57.488L54.2063 54.8621L54.7315 52.7614L55.7818 49.0852V43.8335L55.2566 40.6824L53.6811 38.5817L51.5804 38.0566L48.9545 41.2076L47.379 46.4593L46.8538 51.1859L47.379 55.3873L48.9545 58.5384ZM42.1273 65.3656L43.1776 69.567L42.6524 70.6174L40.5517 71.6677L38.451 72.718L35.8252 73.2432L32.6741 72.718L30.0482 70.6174L28.4727 67.9915L27.9476 65.3656L28.9979 63.2649L31.6238 60.639L34.7748 60.1139L37.9259 61.1642L40.0266 62.7397L42.1273 65.3656Z" fill="white"/>
<path d="M59.4016 60.6935C61.6669 59.7411 63.7317 58.3709 65.4874 56.655C67.5246 54.6974 69.2758 52.4639 70.6895 50.0202C74.1926 43.9729 75.6181 38.256 73.877 37.2333C72.136 36.2105 67.8754 40.3225 64.367 46.375C61.048 52.1077 59.8277 57.9138 58.9019 63.5992V63.6936C57.6862 71.492 56.966 79.3592 56.7453 87.2483C56.3471 100.255 56.7423 113.274 57.9288 126.233L55.8722 127.413C55.7039 125.515 55.5478 123.607 55.404 121.691C54.4159 109.36 54.1876 96.9798 54.7203 84.6206C55.0121 77.7897 55.697 70.9812 56.7716 64.2286C56.8628 63.6726 56.9575 63.1166 57.0557 62.5607C57.1241 62.1516 57.203 61.7425 57.2819 61.3386C58.297 56.0256 59.7751 50.9119 62.91 45.4834C67.5072 37.5375 73.3247 32.2926 75.8969 33.7716C78.469 35.2507 76.8173 42.8977 72.2149 50.8437C70.6494 53.6001 68.7387 56.1468 66.5289 58.4225C64.3926 60.6539 61.8055 62.4077 58.9387 63.5677" fill="white"/>
<path d="M44.7532 133.113L46.8539 132.588L47.3791 122.61L48.4294 102.653L47.9043 85.8474L46.3288 70.6174L43.7029 72.7181L45.8036 85.3223C46.3288 104.229 45.8036 117.358 45.8036 117.358C45.8036 117.358 45.2784 129.612 44.7532 133.113Z" fill="white"/>
<path d="M60.2643 56.7389C61.0296 56.169 61.7603 55.5542 62.4524 54.8979C64.4896 52.9403 66.2408 50.7069 67.6545 48.2632C70.0583 44.1092 71.4838 40.1126 71.5784 37.6895" stroke="#FF2A50" stroke-width="0.5" stroke-miterlimit="10"/>
<path d="M48.7713 58.2651C49.968 56.1539 50.9344 53.9208 51.6538 51.6041C52.3927 49.2782 52.7913 46.8581 52.8372 44.4187C52.8372 41.7963 52.4165 39.6668 51.7274 38.2507" stroke="#FF2A50" stroke-width="0.5" stroke-miterlimit="10"/>
<path d="M44.4266 64.4069C45.2021 63.53 45.9324 62.6145 46.6147 61.6638" stroke="#FF2A50" stroke-width="0.5" stroke-miterlimit="10"/>
<path d="M30.556 71.0836C31.7983 71.3917 33.096 71.4025 34.3432 71.1151C36.535 70.5893 38.5852 69.5923 40.3501 68.1937V68.1937C39.6137 65.1359 38.5985 62.3561 36.7312 60.5886" stroke="#FF2A50" stroke-width="0.5" stroke-miterlimit="10"/>
<path d="M49.6444 63.3946C46.4885 61.6271 44.8158 57.8823 44.8158 52.5115C44.8158 45.0166 47.7666 37.249 51.4013 35.1563C55.0359 33.0636 57.9867 37.4378 57.9867 44.9327C57.9867 50.2982 56.2878 55.9941 53.1581 61.3754C52.604 62.3194 52.0184 63.239 51.4013 64.1341C51.0646 64.6219 50.7227 65.094 50.3493 65.5765C49.0553 67.3024 47.6158 68.9149 46.0466 70.3965C45.3365 71.0626 44.6107 71.6815 43.8795 72.2479C41.3337 74.2305 38.7142 75.4683 36.2894 75.8354C34.3295 76.1463 32.322 75.776 30.6034 74.7865C26.0009 72.1326 24.3545 66.3947 26.9214 61.947C29.4883 57.4994 35.3373 56.078 39.9398 58.7529C43.0958 60.5519 44.5581 63.9978 45.568 68.1255" stroke="#FF2A50" stroke-width="0.5" stroke-miterlimit="10"/>
<path d="M56.7401 64.2548C55.3297 64.5759 53.8702 64.6204 52.4427 64.3859C52.0879 64.3226 51.7367 64.2403 51.3907 64.1394" stroke="#FF2A50" stroke-width="0.5" stroke-miterlimit="10"/>
<path d="M59.4016 60.6935C61.6669 59.7411 63.7317 58.3709 65.4874 56.655C67.5246 54.6974 69.2758 52.4639 70.6895 50.0202C74.1926 43.9729 75.6181 38.256 73.877 37.2333C72.136 36.2105 67.8754 40.3225 64.367 46.375C61.048 52.1077 59.8277 57.9138 58.9019 63.5992V63.6936C57.6862 71.492 56.966 79.3592 56.7453 87.2483C56.3471 100.255 56.7423 113.274 57.9288 126.233L55.8722 127.413C55.7039 125.515 55.5478 123.607 55.404 121.691C54.4159 109.36 54.1876 96.9798 54.7203 84.6206C55.0121 77.7897 55.697 70.9812 56.7716 64.2286C56.8628 63.6726 56.9575 63.1166 57.0557 62.5607C57.1241 62.1516 57.203 61.7425 57.2819 61.3386C58.297 56.0256 59.7751 50.9119 62.91 45.4834C67.5072 37.5375 73.3247 32.2926 75.8969 33.7716C78.469 35.2507 76.8173 42.8977 72.2149 50.8437C70.6494 53.6001 68.7387 56.1468 66.5289 58.4225C64.3926 60.6539 61.8055 62.4077 58.9387 63.5677" stroke="#FF2A50" stroke-width="0.5" stroke-miterlimit="10" stroke-linejoin="round"/>
<path d="M53.1581 61.3753C54.5048 61.6824 55.9036 61.6824 57.2503 61.3753" stroke="#FF2A50" stroke-width="0.5" stroke-miterlimit="10"/>
<path d="M43.3851 69.9192C42.4909 66.1954 41.1812 62.8911 38.4302 61.3124C34.9271 59.2931 30.677 60.1008 28.9202 63.1166C27.1634 66.1324 28.6046 70.2024 32.1077 72.2322C33.724 73.0791 35.5963 73.3031 37.3677 72.8616C39.613 72.315 41.7093 71.2798 43.5061 69.8301C44.2155 69.294 44.8951 68.7197 45.5417 68.1097C47.0562 66.6725 48.4268 65.0916 49.6339 63.3894C50.2546 62.5187 50.8437 61.6166 51.3907 60.6883C52.7724 58.3781 53.8758 55.9135 54.6782 53.3455C55.4156 51.0193 55.8125 48.5992 55.8565 46.16C55.8565 40.4536 53.8577 36.9815 51.3907 38.4028C48.9238 39.8242 46.925 45.5935 46.925 51.3C46.8938 53.3001 47.2995 55.2831 48.1138 57.1113C48.7874 58.6242 49.938 59.8765 51.3907 60.6778" stroke="#FF2A50" stroke-width="0.5" stroke-miterlimit="10"/>
<path d="M46.0623 70.4018C47.1828 76.3547 47.8648 82.3814 48.1032 88.4336C48.7134 100.56 48.3136 113.336 47.4194 126.286C47.2756 128.384 47.1196 130.482 46.9513 132.58L44.8841 133.754C45.9677 119.96 46.5357 106.361 46.0623 93.4057C45.7941 86.0891 45.226 78.9037 43.911 72.3319V72.2584" stroke="#FF2A50" stroke-width="0.5" stroke-miterlimit="10" stroke-linejoin="round"/>
<path d="M44.8841 133.754L41.8491 132.008C42.9327 118.214 43.5008 104.614 43.0326 91.6592C42.8643 85.715 42.3374 79.7864 41.4547 73.9053" stroke="#FF2A50" stroke-width="0.5" stroke-miterlimit="10"/>
<path d="M55.8564 127.403L52.8267 125.656C52.6513 123.758 52.4935 121.85 52.3533 119.934C51.3676 107.608 51.141 95.2332 51.6747 82.8793C51.9288 76.7343 52.5064 70.6068 53.4053 64.5223" stroke="#FF2A50" stroke-width="0.5" stroke-miterlimit="10"/>
<path d="M40.3501 68.1727L43.3851 69.9192" stroke="#FF2A50" stroke-width="0.5" stroke-miterlimit="10"/>
<path d="M54.2154 59.6183L57.2504 61.3649" stroke="#FF2A50" stroke-width="0.5" stroke-miterlimit="10"/>
<path d="M54.7466 35.1038L51.7116 33.3573C51.2103 33.0406 50.6271 32.8768 50.0337 32.8861C49.4403 32.8955 48.8626 33.0775 48.3715 33.4097C44.7316 35.5077 41.7861 43.2701 41.7861 50.765C41.7861 56.1357 43.4693 59.8806 46.6147 61.6481L49.6445 63.3946" stroke="#FF2A50" stroke-width="0.5" stroke-miterlimit="10"/>
<path d="M75.8548 33.7716L72.8198 32.0041C70.2477 30.525 64.4354 35.7699 59.833 43.7159C59.1016 44.9788 58.4345 46.2777 57.8342 47.6076" stroke="#FF2A50" stroke-width="0.5" stroke-miterlimit="10"/>
<path d="M30.0616 74.4875L27.0266 72.741C22.8554 69.9559 21.4405 64.5013 23.9179 60.2477C26.4953 55.8105 32.3023 54.3577 36.9048 57.0064L39.9398 58.7529" stroke="#FF2A50" stroke-width="0.5" stroke-miterlimit="10"/>
<path d="M71.1506 134.69C76.1736 129.309 78.9589 122.227 78.9427 114.876C79.0329 92.9897 92.3988 71.0236 92.3988 71.0236C96.064 63.7646 97.8047 55.691 97.4553 47.5714C97.1059 39.4518 94.678 31.5566 90.4027 24.6374C86.1273 17.7181 80.1469 12.0053 73.0309 8.0428C65.9149 4.08029 57.9001 2 49.7496 2C41.5992 2 33.5844 4.08029 26.4683 8.0428C19.3523 12.0053 13.3719 17.7181 9.09659 24.6374C4.82126 31.5566 2.39331 39.4518 2.0439 47.5714C1.6945 55.691 3.43527 63.7646 7.10048 71.0236C7.10048 71.0236 20.4613 92.9947 20.5565 114.876C20.5422 122.228 23.3293 129.31 28.3537 134.69" stroke="#FF2A50" stroke-width="0.5" stroke-miterlimit="10"/>
<path d="M96.723 43.021C96.8452 43.6743 96.9277 44.3345 96.969 45.0007L96.7195 45.0161C96.7398 45.3426 96.75 45.6706 96.75 46C96.75 46.3294 96.7398 46.6574 96.7195 46.9839L96.969 46.9994C96.9277 47.6656 96.8452 48.3257 96.7229 48.979L96.4772 48.933C96.357 49.5754 96.1977 50.2112 96.0007 50.8397L96.2393 50.9145C96.0416 51.5453 95.8065 52.1687 95.5353 52.7837L95.3066 52.6829C95.0449 53.2765 94.7491 53.8626 94.4203 54.4404L94.6376 54.5641C94.3129 55.1347 93.9567 55.6971 93.5701 56.2505L93.3651 56.1074C92.9931 56.6399 92.5924 57.1644 92.1641 57.6802L92.3564 57.8399C91.9382 58.3434 91.4942 58.8385 91.0253 59.3245L90.8454 59.1509C90.3947 59.618 89.9207 60.0768 89.4241 60.5269L89.592 60.7121C89.1061 61.1525 88.5991 61.5843 88.0718 62.007L87.9154 61.812C87.4069 62.2196 86.8792 62.6189 86.3331 63.0094L86.4785 63.2128C85.9441 63.595 85.3922 63.9687 84.8237 64.3335L84.6886 64.1231C84.1386 64.476 83.5728 64.8207 82.9916 65.1568L83.1168 65.3732C82.5478 65.7022 81.9645 66.023 81.3673 66.335L81.2516 66.1135C80.6717 66.4165 80.0787 66.7114 79.473 66.9978L79.5799 67.2238C78.9848 67.5052 78.3777 67.7785 77.759 68.0432L77.6607 67.8134C77.0577 68.0714 76.4437 68.3214 75.8191 68.563L75.9093 68.7962C75.2944 69.0341 74.6693 69.2639 74.0345 69.4854L73.9521 69.2493C73.3317 69.4658 72.7018 69.6743 72.0631 69.8746L72.1379 70.1132C71.5085 70.3105 70.8706 70.4998 70.2245 70.681L70.1571 70.4403C69.5241 70.6177 68.8832 70.7873 68.2348 70.9488L68.2952 71.1914C67.6545 71.3509 67.0066 71.5025 66.3517 71.646L66.2982 71.4018C65.6552 71.5427 65.0054 71.6757 64.3493 71.8007L64.396 72.0463C63.7467 72.17 63.0912 72.2858 62.4298 72.3936L62.3896 72.1468C61.739 72.2528 61.0826 72.351 60.4208 72.4412L60.4546 72.6889C59.7988 72.7783 59.1377 72.8598 58.4717 72.9333L58.4443 72.6848C57.7881 72.7572 57.127 72.8218 56.4615 72.8784L56.4826 73.1275C55.8228 73.1837 55.1586 73.2319 54.4903 73.2722L54.4752 73.0227C53.8169 73.0624 53.1546 73.0942 52.4885 73.1182L52.4975 73.368C51.8359 73.3918 51.1707 73.4078 50.502 73.4158L50.499 73.1658C50.1669 73.1698 49.8338 73.1717 49.5 73.1717C49.1662 73.1717 48.8331 73.1698 48.5009 73.1658L48.498 73.4158C47.8293 73.4078 47.1641 73.3918 46.5025 73.368L46.5115 73.1182C45.8454 73.0942 45.1831 73.0624 44.5247 73.0227L44.5097 73.2722C43.8414 73.2319 43.1771 73.1837 42.5173 73.1275L42.5385 72.8784C41.873 72.8218 41.2119 72.7572 40.5557 72.6848L40.5283 72.9333C39.8623 72.8598 39.2012 72.7783 38.5454 72.6889L38.5792 72.4412C37.9174 72.351 37.261 72.2528 36.6104 72.1468L36.5702 72.3936C35.9088 72.2858 35.2533 72.17 34.6039 72.0463L34.6507 71.8007C33.9946 71.6757 33.3448 71.5427 32.7018 71.4018L32.6483 71.646C31.9934 71.5025 31.3455 71.3509 30.7048 71.1914L30.7652 70.9488C30.1168 70.7873 29.4759 70.6177 28.843 70.4403L28.7755 70.681C28.1294 70.4998 27.4915 70.3105 26.8622 70.1132L26.9369 69.8746C26.2982 69.6743 25.6683 69.4658 25.0479 69.2494L24.9655 69.4854C24.3307 69.2639 23.7056 69.0341 23.0907 68.7962L23.1809 68.563C22.5563 68.3214 21.9423 68.0714 21.3394 67.8134L21.241 68.0432C20.6223 67.7785 20.0152 67.5052 19.4201 67.2238L19.527 66.9978C18.9213 66.7114 18.3283 66.4165 17.7484 66.1135L17.6327 66.335C17.0355 66.023 16.4522 65.7022 15.8832 65.3732L16.0084 65.1568C15.4272 64.8207 14.8614 64.476 14.3114 64.1231L14.1763 64.3335C13.6078 63.9687 13.0559 63.595 12.5215 63.2128L12.6669 63.0094C12.1208 62.6189 11.5931 62.2196 11.0846 61.812L10.9282 62.007C10.4009 61.5842 9.89388 61.1525 9.40803 60.7121L9.57591 60.5269C9.07934 60.0768 8.60527 59.618 8.15458 59.1509L7.97467 59.3245C7.50578 58.8385 7.06174 58.3434 6.64355 57.8399L6.83588 57.6801C6.40758 57.1644 6.0069 56.6399 5.63488 56.1074L5.42993 56.2505C5.04331 55.6971 4.68707 55.1347 4.36239 54.564L4.57968 54.4404C4.2509 53.8625 3.95508 53.2765 3.69343 52.6829L3.46467 52.7837C3.19354 52.1687 2.95843 51.5453 2.7607 50.9145L2.99926 50.8397C2.80226 50.2112 2.64299 49.5753 2.52278 48.933L2.27705 48.979C2.1548 48.3257 2.0723 47.6655 2.03096 46.9993L2.28048 46.9839C2.26022 46.6574 2.25 46.3294 2.25 46C2.25 45.6706 2.26022 45.3426 2.28048 45.0161L2.03096 45.0006C2.0723 44.3344 2.1548 43.6743 2.27705 43.021L2.52279 43.067C2.64299 42.4246 2.80226 41.7888 2.99926 41.1603L2.76071 41.0855C2.95844 40.4546 3.19355 39.8313 3.46467 39.2163L3.69343 39.3171C3.95509 38.7235 4.2509 38.1374 4.57968 37.5596L4.36239 37.4359C4.68707 36.8653 5.04332 36.3029 5.42994 35.7494L5.63488 35.8926C6.00691 35.3601 6.40759 34.8356 6.83589 34.3198L6.64356 34.1601C7.06175 33.6566 7.50579 33.1615 7.97468 32.6755L8.15458 32.8491C8.60528 32.382 9.07935 31.9232 9.57592 31.4731L9.40804 31.2879C9.89388 30.8475 10.4009 30.4157 10.9282 29.993L11.0846 30.188C11.5931 29.7804 12.1208 29.3811 12.6669 28.9906L12.5215 28.7872C13.0559 28.405 13.6078 28.0313 14.1763 27.6665L14.3114 27.8769C14.8614 27.5239 15.4272 27.1793 16.0084 26.8432L15.8832 26.6268C16.4522 26.2978 17.0355 25.977 17.6327 25.665L17.7484 25.8865C18.3283 25.5835 18.9213 25.2886 19.527 25.0022L19.4201 24.7762C20.0152 24.4948 20.6223 24.2215 21.241 23.9568L21.3393 24.1866C21.9423 23.9286 22.5563 23.6786 23.1809 23.437L23.0907 23.2038C23.7056 22.9659 24.3307 22.7361 24.9655 22.5146L25.0479 22.7506C25.6683 22.5342 26.2982 22.3257 26.9369 22.1254L26.8621 21.8868C27.4915 21.6895 28.1294 21.5001 28.7755 21.319L28.8429 21.5597C29.4759 21.3823 30.1168 21.2127 30.7652 21.0512L30.7048 20.8086C31.3455 20.6491 31.9934 20.4975 32.6483 20.354L32.7018 20.5982C33.3448 20.4573 33.9946 20.3243 34.6507 20.1993L34.6039 19.9537C35.2533 19.83 35.9088 19.7142 36.5702 19.6064L36.6104 19.8532C37.261 19.7472 37.9174 19.649 38.5792 19.5588L38.5454 19.3111C39.2012 19.2217 39.8623 19.1402 40.5283 19.0667L40.5557 19.3152C41.2119 19.2428 41.873 19.1782 42.5385 19.1216L42.5174 18.8725C43.1772 18.8163 43.8414 18.7681 44.5097 18.7278L44.5248 18.9773C45.1831 18.9376 45.8454 18.9057 46.5115 18.8818L46.5025 18.632C47.1641 18.6082 47.8293 18.5922 48.498 18.5842L48.501 18.8342C48.8331 18.8302 49.1662 18.8282 49.5 18.8282C49.8338 18.8282 50.1669 18.8302 50.4991 18.8342L50.502 18.5842C51.1707 18.5922 51.8359 18.6082 52.4975 18.632L52.4885 18.8818C53.1546 18.9057 53.8169 18.9376 54.4753 18.9773L54.4903 18.7278C55.1586 18.7681 55.8229 18.8163 56.4827 18.8725L56.4615 19.1216C57.127 19.1782 57.7881 19.2428 58.4443 19.3152L58.4717 19.0667C59.1377 19.1402 59.7988 19.2217 60.4546 19.3111L60.4208 19.5588C61.0826 19.649 61.739 19.7472 62.3896 19.8532L62.4298 19.6064C63.0912 19.7142 63.7467 19.83 64.3961 19.9537L64.3493 20.1993C65.0054 20.3243 65.6552 20.4573 66.2982 20.5982L66.3517 20.354C67.0066 20.4975 67.6545 20.6491 68.2952 20.8086L68.2348 21.0512C68.8832 21.2127 69.5241 21.3823 70.157 21.5597L70.2245 21.319C70.8706 21.5001 71.5085 21.6895 72.1378 21.8868L72.0631 22.1254C72.7018 22.3256 73.3317 22.5342 73.9521 22.7506L74.0345 22.5146C74.6693 22.7361 75.2943 22.9659 75.9093 23.2038L75.8191 23.437C76.4437 23.6786 77.0577 23.9286 77.6606 24.1866L77.759 23.9568C78.3777 24.2215 78.9848 24.4948 79.5799 24.7762L79.473 25.0022C80.0787 25.2886 80.6717 25.5835 81.2515 25.8865L81.3673 25.665C81.9645 25.977 82.5478 26.2978 83.1168 26.6268L82.9916 26.8432C83.5728 27.1793 84.1386 27.5239 84.6886 27.8769L84.8237 27.6665C85.3922 28.0313 85.9441 28.405 86.4785 28.7872L86.3331 28.9906C86.8792 29.3811 87.4069 29.7804 87.9154 30.188L88.0718 29.993C88.5991 30.4158 89.1061 30.8475 89.592 31.2879L89.4241 31.4731C89.9207 31.9232 90.3947 32.382 90.8454 32.8491L91.0253 32.6755C91.4942 33.1615 91.9383 33.6566 92.3564 34.1601L92.1641 34.3199C92.5924 34.8356 92.9931 35.3601 93.3651 35.8926L93.5701 35.7495C93.9567 36.3029 94.3129 36.8653 94.6376 37.4359L94.4203 37.5596C94.7491 38.1374 95.0449 38.7235 95.3066 39.3171L95.5353 39.2163C95.8065 39.8313 96.0416 40.4547 96.2393 41.0855L96.0007 41.1603C96.1977 41.7888 96.357 42.4247 96.4772 43.067L96.723 43.021Z" stroke="#FF2A50" stroke-width="0.5" stroke-dasharray="2 2"/>
<path d="M70 54.7916C81.3862 58.7574 89 65.9674 89 74.204C89 86.7162 71.43 96.8594 49.7563 96.8594C28.0827 96.8594 10.5127 86.7162 10.5127 74.204C10.5127 63.3268 23.7908 54.24 41.5 52.0509M64 53.0871C63.1797 52.9025 62.346 52.7335 61.5 52.5805M51.5 51.5706C50.9219 51.556 50.3406 51.5486 49.7563 51.5486C48.8297 51.5486 47.9106 51.5672 47 51.6037" stroke="#FF2A50" stroke-width="0.5" stroke-dasharray="2 2"/>
<path d="M86.6517 25.5C86.6517 25.8214 86.6393 26.1411 86.6146 26.459L86.8638 26.4783C86.8133 27.1302 86.7124 27.7745 86.5635 28.41L86.3201 28.353C86.175 28.9718 85.9834 29.5826 85.7471 30.184L85.9798 30.2755C85.7442 30.8751 85.4652 31.4653 85.1448 32.0448L84.926 31.9238C84.6205 32.4763 84.2765 33.0195 83.8955 33.5522L84.0989 33.6976C83.7269 34.218 83.3205 34.728 82.8814 35.2269L82.6937 35.0617C82.2753 35.537 81.8265 36.0025 81.3486 36.4571L81.5209 36.6382C81.0581 37.0784 80.5687 37.5084 80.054 37.9272L79.8962 37.7332C79.4032 38.1343 78.8866 38.5254 78.3473 38.9057L78.4914 39.11C77.9679 39.4791 77.4237 39.838 76.8596 40.186L76.7283 39.9732C76.1862 40.3078 75.6253 40.6323 75.0468 40.9464L75.1661 41.1661C74.6004 41.4732 74.018 41.7702 73.4199 42.0566L73.3119 41.8311C72.7358 42.107 72.1448 42.373 71.5397 42.6287L71.6371 42.859C71.0442 43.1096 70.438 43.3503 69.8193 43.5807L69.732 43.3464C69.131 43.5702 68.518 43.7843 67.8936 43.9882L67.9712 44.2258C67.3575 44.4263 66.7329 44.617 66.0981 44.7976L66.0297 44.5571C65.411 44.7331 64.7825 44.8994 64.1448 45.0557L64.2043 45.2985C63.577 45.4523 62.9408 45.5965 62.2964 45.7307L62.2455 45.4859C61.6155 45.6171 60.9776 45.7387 60.3322 45.8504L60.3749 46.0968C59.7375 46.2071 59.093 46.3079 58.4418 46.3988L58.4072 46.1511C57.7688 46.2402 57.1239 46.3198 56.473 46.3896L56.4996 46.6381C55.8556 46.7072 55.2058 46.7666 54.5507 46.8162L54.5318 46.5669C53.8882 46.6157 53.2394 46.6549 52.5859 46.6843L52.5971 46.9341C51.9495 46.9633 51.2973 46.9829 50.6408 46.9927L50.6371 46.7427C50.3122 46.7476 49.9863 46.75 49.6594 46.75C49.3325 46.75 49.0066 46.7476 48.6817 46.7427L48.6779 46.9927C48.0215 46.9829 47.3692 46.9633 46.7217 46.9341L46.7329 46.6843C46.0793 46.6549 45.4305 46.6157 44.787 46.5669L44.7681 46.8162C44.1129 46.7666 43.4631 46.7072 42.8192 46.6381L42.8458 46.3896C42.1949 46.3198 41.55 46.2402 40.9116 46.1511L40.877 46.3988C40.2258 46.3079 39.5812 46.2071 38.9439 46.0968L38.9865 45.8504C38.3412 45.7387 37.7033 45.6171 37.0733 45.4859L37.0224 45.7307C36.3779 45.5965 35.7418 45.4523 35.1144 45.2985L35.174 45.0557C34.5363 44.8994 33.9078 44.7331 33.2891 44.5571L33.2207 44.7976C32.5859 44.617 31.9613 44.4263 31.3476 44.2258L31.4252 43.9882C30.8008 43.7843 30.1877 43.5702 29.5867 43.3464L29.4995 43.5807C28.8807 43.3503 28.2746 43.1096 27.6817 42.859L27.779 42.6287C27.174 42.373 26.583 42.107 26.0069 41.8311L25.8989 42.0566C25.3008 41.7702 24.7184 41.4732 24.1527 41.1661L24.272 40.9464C23.6934 40.6323 23.1326 40.3078 22.5904 39.9732L22.4592 40.186C21.8951 39.838 21.3508 39.4791 20.8274 39.11L20.9715 38.9057C20.4322 38.5254 19.9155 38.1343 19.4226 37.7332L19.2648 37.9271C18.7501 37.5083 18.2607 37.0784 17.7979 36.6382L17.9702 36.4571C17.4923 36.0025 17.0435 35.537 16.6251 35.0617L16.4374 35.2269C15.9983 34.728 15.5919 34.218 15.2199 33.6976L15.4232 33.5522C15.0423 33.0195 14.6983 32.4763 14.3928 31.9238L14.174 32.0448C13.8536 31.4653 13.5746 30.8751 13.339 30.2755L13.5717 30.184C13.3354 29.5826 13.1437 28.9718 12.9987 28.353L12.7553 28.41C12.6063 27.7745 12.5055 27.1302 12.4549 26.4783L12.7042 26.459C12.6795 26.1411 12.6671 25.8214 12.6671 25.5C12.6671 25.1418 12.6825 24.7858 12.7131 24.432L12.464 24.4104C12.5268 23.6848 12.6518 22.9686 12.8362 22.2637L13.0781 22.3269C13.257 21.6427 13.493 20.9687 13.7834 20.3065L13.5545 20.2061C13.8419 19.5507 14.1815 18.9074 14.5705 18.2775L14.7832 18.4089C15.1522 17.8116 15.5666 17.226 16.0244 16.6536L15.8292 16.4975C16.2738 15.9416 16.7582 15.3986 17.2805 14.8696L17.4584 15.0452C17.9527 14.5445 18.4816 14.0562 19.0433 13.5813L18.8819 13.3903C19.4259 12.9305 20 12.4834 20.6026 12.0501L20.7485 12.2531C21.0386 12.0445 21.3353 11.8391 21.6386 11.637C21.9283 11.444 22.2238 11.2522 22.5252 11.0618L22.3917 10.8505C22.9793 10.4792 23.5887 10.1134 24.2185 9.75501L24.3422 9.9723C24.9443 9.62966 25.5653 9.29374 26.2042 8.96614L26.0902 8.74368C26.7122 8.42474 27.351 8.11368 28.0056 7.81197L28.1102 8.03902C28.7426 7.74756 29.3898 7.46486 30.051 7.19226L29.9557 6.96113C30.6041 6.69383 31.2658 6.4362 31.94 6.18948L32.0259 6.42426C32.6824 6.18405 33.3508 5.95423 34.0305 5.73597L33.954 5.49795C34.6231 5.28309 35.3029 5.07938 35.9928 4.88792L36.0597 5.12881C36.7343 4.94158 37.4187 4.76612 38.112 4.60346L38.0549 4.36007C38.7404 4.19926 39.4346 4.0509 40.1369 3.91599L40.1841 4.1615C40.8726 4.02924 41.5689 3.90996 42.2725 3.80462L42.2354 3.55737C42.9324 3.453 43.6365 3.36223 44.347 3.28597L44.3737 3.53454C45.0712 3.45968 45.7749 3.39886 46.4842 3.35297L46.4681 3.10349C47.1717 3.05797 47.8808 3.02704 48.595 3.01155L48.6004 3.2615C48.9522 3.25387 49.3052 3.25 49.6594 3.25C50.0136 3.25 50.3666 3.25387 50.7184 3.2615L50.7238 3.01155C51.438 3.02704 52.1471 3.05797 52.8507 3.10349L52.8345 3.35297C53.5439 3.39886 54.2476 3.45968 54.9451 3.53454L54.9718 3.28597C55.6823 3.36223 56.3863 3.453 57.0833 3.55737L57.0463 3.80462C57.7498 3.90996 58.4462 4.02924 59.1347 4.1615L59.1818 3.91599C59.8842 4.0509 60.5784 4.19926 61.2638 4.36007L61.2067 4.60346C61.9001 4.76612 62.5844 4.94158 63.2591 5.12881L63.3259 4.88792C64.0159 5.07938 64.6957 5.28309 65.3647 5.49795L65.2883 5.73598C65.9679 5.95423 66.6364 6.18405 67.2929 6.42426L67.3788 6.18948C68.053 6.4362 68.7147 6.69383 69.3631 6.96113L69.2678 7.19226C69.929 7.46486 70.5762 7.74756 71.2086 8.03902L71.3132 7.81197C71.9678 8.11368 72.6066 8.42474 73.2286 8.74368L73.1145 8.96614C73.7534 9.29374 74.3745 9.62966 74.9766 9.9723L75.1002 9.75501C75.7301 10.1134 76.3394 10.4792 76.9271 10.8505L76.7936 11.0618C77.0949 11.2522 77.3905 11.444 77.6801 11.637C77.9835 11.8391 78.2802 12.0445 78.5703 12.2531L78.7162 12.0501C79.3188 12.4834 79.8929 12.9305 80.4368 13.3903L80.2754 13.5813C80.8372 14.0562 81.3661 14.5445 81.8604 15.0452L82.0383 14.8696C82.5605 15.3986 83.045 15.9416 83.4896 16.4975L83.2943 16.6536C83.7522 17.226 84.1666 17.8116 84.5355 18.4089L84.7482 18.2775C85.1373 18.9074 85.4768 19.5507 85.7643 20.2061L85.5353 20.3065C85.8258 20.9687 86.0618 21.6427 86.2407 22.3269L86.4826 22.2637C86.6669 22.9686 86.792 23.6848 86.8547 24.4104L86.6057 24.432C86.6362 24.7858 86.6517 25.1418 86.6517 25.5Z" stroke="#FF2A50" stroke-width="0.5" stroke-dasharray="2 2"/>
<path d="M60.8723 14.331C61.2605 14.8739 61.5338 15.4511 61.6748 16.0526L61.4314 16.1096C61.4997 16.4011 61.5349 16.6983 61.5349 17C61.5349 17.3017 61.4997 17.5989 61.4314 17.8904L61.6748 17.9474C61.5338 18.5489 61.2605 19.1261 60.8723 19.669L60.669 19.5236C60.3338 19.9924 59.9066 20.438 59.3976 20.8521L59.5554 21.046C59.0864 21.4276 58.5529 21.7809 57.964 22.1006L57.8447 21.8809C57.3192 22.1662 56.7473 22.4248 56.1359 22.6525L56.2232 22.8867C55.6456 23.1018 55.0344 23.2893 54.395 23.446L54.3355 23.2032C53.7419 23.3487 53.1233 23.4675 52.4843 23.5566L52.5188 23.8042C51.9016 23.8904 51.266 23.9493 50.6159 23.9785L50.6047 23.7288C50.2929 23.7428 49.9776 23.75 49.6595 23.75C49.3413 23.75 49.0261 23.7428 48.7142 23.7288L48.703 23.9785C48.053 23.9493 47.4173 23.8904 46.8001 23.8042L46.8346 23.5566C46.1956 23.4675 45.577 23.3487 44.9834 23.2032L44.9239 23.446C44.2846 23.2893 43.6733 23.1018 43.0958 22.8867L43.183 22.6525C42.5716 22.4248 41.9998 22.1662 41.4742 21.8809L41.355 22.1006C40.7661 21.7809 40.2325 21.4276 39.7635 21.046L39.9213 20.8521C39.4123 20.438 38.9851 19.9924 38.65 19.5236L38.4466 19.669C38.0585 19.1261 37.7852 18.5489 37.6442 17.9474L37.8876 17.8904C37.8193 17.5989 37.7841 17.3017 37.7841 17C37.7841 16.6983 37.8193 16.4011 37.8876 16.1096L37.6442 16.0526C37.7852 15.4511 38.0585 14.8739 38.4466 14.331L38.65 14.4764C38.9851 14.0076 39.4123 13.562 39.9213 13.1479L39.7635 12.954C40.2325 12.5724 40.7661 12.2191 41.355 11.8994L41.4742 12.1191C41.9998 11.8338 42.5716 11.5752 43.183 11.3475L43.0958 11.1133C43.6733 10.8982 44.2846 10.7107 44.9239 10.554L44.9834 10.7968C45.577 10.6513 46.1956 10.5325 46.8346 10.4434L46.8001 10.1958C47.4173 10.1096 48.053 10.0507 48.703 10.0215L48.7142 10.2712C49.0261 10.2572 49.3413 10.25 49.6595 10.25C49.9776 10.25 50.2929 10.2572 50.6047 10.2712L50.6159 10.0215C51.266 10.0507 51.9016 10.1096 52.5188 10.1958L52.4843 10.4434C53.1233 10.5325 53.7419 10.6513 54.3355 10.7968L54.395 10.554C55.0344 10.7107 55.6456 10.8982 56.2232 11.1133L56.1359 11.3475C56.7474 11.5752 57.3192 11.8338 57.8447 12.1191L57.964 11.8994C58.5529 12.2191 59.0864 12.5724 59.5554 12.954L59.3976 13.1479C59.9066 13.562 60.3338 14.0076 60.669 14.4764L60.8723 14.331Z" stroke="#FF2A50" stroke-width="0.5" stroke-dasharray="2 2"/>
<path d="M42.4354 84.5C29.1815 86.3706 19.3459 93.2722 19.3459 101.5C19.3459 111.165 32.9177 119 49.6594 119C66.4011 119 79.9729 111.165 79.9729 101.5C79.9729 93.2722 70.1373 86.3706 56.8835 84.5M48 84.0258C48.5494 84.0087 49.1026 84 49.6594 84C50.2162 84 50.7694 84.0087 51.3188 84.0258" stroke="#FF2A50" stroke-width="0.5" stroke-dasharray="2 2"/>
</svg>
