<svg width="43" height="45" viewBox="0 0 43 45" fill="none" xmlns="http://www.w3.org/2000/svg">
<g clip-path="url(#clip0_1882_28)">
<path fill-rule="evenodd" clip-rule="evenodd" d="M0.301459 24.6491C0.266358 24.6691 0.24663 24.6962 0.246629 24.7245L0.246632 31.7623C0.246631 31.8054 0.292054 31.8442 0.361738 31.8607C0.431422 31.8772 0.511661 31.8681 0.565075 31.8377L21.5921 19.8733C21.6272 19.8533 21.6469 19.8262 21.6469 19.7979L21.6469 12.76C21.6469 12.717 21.6015 12.6782 21.5318 12.6617C21.4621 12.6452 21.3819 12.6543 21.3285 12.6847L0.301459 24.6491ZM21.2736 13.0166L21.2736 19.7538L0.619904 31.5058L0.619903 24.7686L21.2736 13.0166Z" fill="#FF2A50" stroke="#FF2A50" stroke-width="0.1" stroke-linejoin="round"/>
<path fill-rule="evenodd" clip-rule="evenodd" d="M0.301337 13.0546C0.266236 13.0745 0.246508 13.1017 0.246507 13.1299L0.24651 20.1678C0.246509 20.2109 0.291931 20.2497 0.361616 20.2662C0.4313 20.2827 0.511539 20.2736 0.564953 20.2432L21.5919 8.27879C21.627 8.25882 21.6468 8.2317 21.6468 8.20342L21.6468 1.16553C21.6468 1.1225 21.6014 1.08369 21.5317 1.0672C21.462 1.0507 21.3817 1.05976 21.3283 1.09016L0.301337 13.0546ZM21.2735 1.4221L21.2735 8.15924L0.619782 19.9113L0.619781 13.1741L21.2735 1.4221Z" fill="#FF2A50" stroke="#FF2A50" stroke-width="0.1" stroke-linejoin="round"/>
<path fill-rule="evenodd" clip-rule="evenodd" d="M21.5917 36.6099C21.6268 36.6298 21.6465 36.657 21.6465 36.6852L21.6465 43.7231C21.6465 43.7662 21.6011 43.805 21.5314 43.8215C21.4617 43.838 21.3815 43.8289 21.3281 43.7985L0.3011 31.8341C0.265998 31.8141 0.246271 31.787 0.246271 31.7587L0.246263 24.7208C0.246263 24.6778 0.291685 24.639 0.361369 24.6225C0.431053 24.606 0.511292 24.6151 0.564707 24.6455L21.5917 36.6099ZM0.619537 24.9774L0.619544 31.7145L21.2733 43.4666L21.2733 36.7294L0.619537 24.9774Z" fill="#FF2A50" stroke="#FF2A50" stroke-width="0.1" stroke-linejoin="round"/>
<path fill-rule="evenodd" clip-rule="evenodd" d="M21.5917 25.0154C21.6268 25.0353 21.6465 25.0624 21.6465 25.0907L21.6465 32.1286C21.6465 32.1717 21.6011 32.2105 21.5314 32.227C21.4617 32.2434 21.3815 32.2344 21.3281 32.204L0.3011 20.2396C0.265998 20.2196 0.246271 20.1925 0.246271 20.1642L0.246263 13.1263C0.246263 13.0833 0.291685 13.0445 0.361369 13.028C0.431053 13.0115 0.511292 13.0205 0.564707 13.0509L21.5917 25.0154ZM0.619537 13.3829L0.619544 20.12L21.2733 31.872L21.2733 25.1349L0.619537 13.3829Z" fill="#FF2A50" stroke="#FF2A50" stroke-width="0.1" stroke-linejoin="round"/>
<path fill-rule="evenodd" clip-rule="evenodd" d="M42.6187 31.8345C42.6538 31.8145 42.6735 31.7874 42.6735 31.7591L42.6735 24.7212C42.6735 24.6782 42.6281 24.6394 42.5584 24.6229C42.4887 24.6064 42.4085 24.6154 42.3551 24.6458L21.3281 36.6102C21.293 36.6302 21.2733 36.6573 21.2733 36.6856L21.2732 43.7235C21.2732 43.7665 21.3187 43.8053 21.3883 43.8218C21.458 43.8383 21.5383 43.8293 21.5917 43.7989L42.6187 31.8345ZM21.6465 43.4669L21.6465 36.7298L42.3002 24.9778L42.3002 31.7149L21.6465 43.4669Z" fill="#FF2A50" stroke="#FF2A50" stroke-width="0.1" stroke-linejoin="round"/>
<path fill-rule="evenodd" clip-rule="evenodd" d="M42.6187 20.2399C42.6538 20.22 42.6735 20.1928 42.6735 20.1646L42.6735 13.1267C42.6735 13.0836 42.6281 13.0448 42.5584 13.0283C42.4887 13.0118 42.4085 13.0209 42.3551 13.0513L21.3281 25.0157C21.293 25.0357 21.2733 25.0628 21.2733 25.0911L21.2732 32.129C21.2732 32.172 21.3187 32.2108 21.3883 32.2273C21.458 32.2438 21.5383 32.2347 21.5917 32.2043L42.6187 20.2399ZM21.6465 31.8724L21.6465 25.1352L42.3002 13.3832L42.3002 20.1204L21.6465 31.8724Z" fill="#FF2A50" stroke="#FF2A50" stroke-width="0.1" stroke-linejoin="round"/>
<path fill-rule="evenodd" clip-rule="evenodd" d="M21.3283 19.8736C21.2932 19.8537 21.2735 19.8266 21.2735 19.7983L21.2735 12.7604C21.2735 12.7173 21.3189 12.6785 21.3886 12.662C21.4583 12.6456 21.5385 12.6546 21.5919 12.685L42.6189 24.6494C42.654 24.6694 42.6737 24.6965 42.6737 24.7248L42.6737 31.7627C42.6737 31.8057 42.6283 31.8445 42.5586 31.861C42.4889 31.8775 42.4087 31.8685 42.3553 31.8381L21.3283 19.8736ZM42.3004 31.5061L42.3004 24.769L21.6467 13.0169L21.6467 19.7541L42.3004 31.5061Z" fill="#FF2A50" stroke="#FF2A50" stroke-width="0.1" stroke-linejoin="round"/>
<path fill-rule="evenodd" clip-rule="evenodd" d="M21.3283 8.27919C21.2932 8.25922 21.2735 8.2321 21.2735 8.20382L21.2735 1.16593C21.2735 1.12289 21.3189 1.08409 21.3886 1.06759C21.4583 1.0511 21.5385 1.06016 21.5919 1.09055L42.6189 13.055C42.654 13.0749 42.6737 13.1021 42.6737 13.1303L42.6737 20.1682C42.6737 20.2113 42.6283 20.2501 42.5586 20.2666C42.4889 20.2831 42.4087 20.274 42.3553 20.2436L21.3283 8.27919ZM42.3004 19.9117L42.3004 13.1745L21.6467 1.4225L21.6467 8.15964L42.3004 19.9117Z" fill="#FF2A50" stroke="#FF2A50" stroke-width="0.1" stroke-linejoin="round"/>
</g>
<defs>
<clipPath id="clip0_1882_28">
<rect width="43" height="45" fill="white"/>
</clipPath>
</defs>
</svg>
