<svg width="341" height="233" viewBox="0 0 341 233" fill="none" xmlns="http://www.w3.org/2000/svg">
<g clip-path="url(#clip0_2020_8565)">
<g style="mix-blend-mode:multiply">
<path d="M83.9569 182.675C84.0113 174.048 71.9081 166.978 56.9236 166.884C41.9391 166.79 29.7477 173.708 29.6933 182.335C29.639 190.963 41.7422 198.033 56.7267 198.127C71.7112 198.221 83.9026 191.303 83.9569 182.675Z" fill="#2AB2FF" stroke="#2AB2FF" stroke-width="0.4" stroke-miterlimit="10"/>
<path d="M81.6379 188.773C87.4591 182.538 90.687 174.33 90.6682 165.811C90.7727 140.447 106.262 114.991 106.262 114.991C110.51 106.578 112.527 97.222 112.122 87.8123C111.717 78.4026 108.904 69.2528 103.949 61.2342C98.9944 53.2156 92.0637 46.5951 83.817 42.0029C75.5703 37.4108 66.2821 35 56.8366 35C47.3911 35 38.1028 37.4108 29.8561 42.0029C21.6094 46.5951 14.6788 53.2156 9.72417 61.2342C4.76953 69.2528 1.9558 78.4026 1.55088 87.8123C1.14596 97.222 3.16333 106.578 7.4109 114.991C7.4109 114.991 22.8947 140.453 23.0049 165.811C22.9884 174.331 26.2183 182.538 32.041 188.773" stroke="#2AB2FF" stroke-width="0.4" stroke-miterlimit="10"/>
</g>
<path d="M197.457 182.675C197.511 174.048 185.408 166.978 170.424 166.884C155.439 166.79 143.248 173.708 143.193 182.335C143.139 190.963 155.242 198.033 170.227 198.127C185.211 198.221 197.403 191.303 197.457 182.675Z" fill="#FFE100" stroke="#FFE100" stroke-width="0.4" stroke-miterlimit="10"/>
<path d="M195.138 188.773C200.959 182.538 204.187 174.33 204.168 165.811C204.273 140.447 219.762 114.991 219.762 114.991C224.01 106.578 226.027 97.222 225.622 87.8123C225.217 78.4026 222.404 69.2528 217.449 61.2342C212.494 53.2156 205.564 46.5951 197.317 42.0029C189.07 37.4108 179.782 35 170.337 35C160.891 35 151.603 37.4108 143.356 42.0029C135.109 46.5951 128.179 53.2156 123.224 61.2342C118.27 69.2528 115.456 78.4026 115.051 87.8123C114.646 97.222 116.663 106.578 120.911 114.991C120.911 114.991 136.395 140.453 136.505 165.811C136.488 174.331 139.718 182.538 145.541 188.773" stroke="#FFE100" stroke-width="0.4" stroke-miterlimit="10"/>
<path d="M311.457 182.675C311.511 174.048 299.408 166.978 284.424 166.884C269.439 166.79 257.248 173.708 257.193 182.335C257.139 190.963 269.242 198.033 284.227 198.127C299.211 198.221 311.403 191.303 311.457 182.675Z" fill="#FF2A50" stroke="#FF2A50" stroke-width="0.4" stroke-miterlimit="10"/>
<path d="M309.138 188.773C314.959 182.538 318.187 174.33 318.168 165.811C318.273 140.447 333.762 114.991 333.762 114.991C338.01 106.578 340.027 97.222 339.622 87.8123C339.217 78.4026 336.404 69.2528 331.449 61.2342C326.494 53.2156 319.564 46.5951 311.317 42.0029C303.07 37.4108 293.782 35 284.337 35C274.891 35 265.603 37.4108 257.356 42.0029C249.109 46.5951 242.179 53.2156 237.224 61.2342C232.27 69.2528 229.456 78.4026 229.051 87.8123C228.646 97.222 230.663 106.578 234.911 114.991C234.911 114.991 250.395 140.453 250.505 165.811C250.488 174.331 253.718 182.538 259.541 188.773" stroke="#FF2A50" stroke-width="0.4" stroke-miterlimit="10"/>
<path d="M50.3551 100.661L54.0526 103.743L52.2039 100.045L51.5876 97.58L50.9714 92.65L51.5876 87.72L52.8201 81.5575L54.0526 78.4763L56.5176 74.1625L59.5989 71.6975H62.6801L61.4476 71.0813L58.9826 69.8488L57.1339 69.2325L55.2851 69.8488L52.8201 72.3138L50.3551 76.0113L49.1226 79.7088L47.8901 84.6388L47.2739 90.185L47.8901 95.115L50.3551 100.661Z" fill="white"/>
<path d="M60.2152 79.0925L58.9827 75.395L61.4477 76.0113L62.6802 77.86L63.9127 81.5575V87.1038L63.1631 91.8127L61.4477 96.3475L59.113 101.432L56.0754 105.988L52.2039 110.521L50.3552 106.208L51.5877 104.975L55.9014 98.8125L57.7502 95.115L58.9827 91.4175L60.2152 86.4875V79.0925Z" fill="white"/>
<path d="M29.4027 115.451L32.2807 117.126L29.4027 112.986L28.7864 110.521V106.824L30.0189 103.743L32.4839 100.661L35.5652 98.8125L39.2627 98.1963L43.5765 98.8125L42.9602 98.1963L39.8747 96.8754L36.3309 95.8629L33.3202 96.3475L31.2514 96.9638L27.5539 100.045L25.7052 102.73L25.0889 108.056L26.7117 112.57L29.4027 115.451Z" fill="white"/>
<path d="M44.1927 105.591L41.8998 101.938L43.9249 102.951L46.6577 105.591L48.5064 109.289L49.1227 111.754V112.986L48.4813 113.582L44.8089 115.451L39.8789 116.684L37.4139 116.068L34.8121 114.595V114.219H38.356L42.3439 112.986L45.95 110.545L44.8089 107.44L44.1927 105.591Z" fill="white"/>
<path d="M60.8314 102.51L62.0639 100.661L65.1452 102.51L62.6802 103.126L60.8314 102.51Z" fill="white"/>
<path d="M69.2384 97.3817L68.2258 101.938L72.5403 99.4288L76.3261 96.3691L79.87 91.8127L82.9076 86.75L84.9327 82.1936L86.0978 77.2438L85.4815 74.7788L84.4264 74.0933L82.4014 75.1058L81.8951 77.6372L80.5515 82.1738L77.8449 87.7626L74.8073 91.8127L71.924 95.115L69.2384 97.3817Z" fill="white"/>
<path d="M62.0638 100.661L65.7613 102.51L68.2264 92.65L71.9239 84.6388L77.4701 76.6275L84.2489 70.465L86.7139 69.8488L83.6326 68H81.7839L79.3189 69.2325L75.6214 72.3138L71.3076 77.86L66.9938 85.255L65.1451 93.8825L62.0638 100.661Z" fill="white"/>
<path d="M60.6318 178.385L63.9126 180.158L63.1631 168.259L62.6801 156.74L62.1506 146.49L62.6801 135.788L63.2964 120.381L65.1451 106.208L61.138 106.495L59.5989 119.149L58.9826 135.788L58.6067 145.984L58.9826 156.74L59.6192 168.259L60.6318 178.385Z" fill="white"/>
<path d="M47.4688 185.473L51.0127 187.498L51.5189 180.916L52.5315 160.665V150.54L52.2039 132.706L50.0001 115.607L47.2739 117.3L48.4813 129.277C48.9876 137.883 48.9876 145.477 48.9876 145.477C48.9876 145.477 49.2031 152.693 48.9876 161.678C48.7899 169.918 48.1954 179.175 47.4688 185.473Z" fill="white"/>
<path d="M63.2965 103.126L65.7615 102.51L65.1452 106.208H63.9127H58.9827L60.8315 102.51L63.2965 103.126Z" fill="white"/>
<path fill-rule="evenodd" clip-rule="evenodd" d="M52.204 110.521L56.5177 104.975L52.8202 101.278L50.9715 93.8825L51.5877 85.255L54.0527 77.86L57.134 73.5463L59.599 71.6975H62.064L64.529 74.1625L66.3777 79.0925V84.6388V87.72L65.1452 92.65L63.9127 96.3475L62.6802 98.8125L60.2152 103.743L57.134 108.056L54.0527 111.754L51.5877 114.219L47.274 117.3L41.1115 119.765H37.414L33.1002 117.916L30.0189 114.219L28.7864 109.905V106.208L30.6352 102.51L33.1002 100.045L35.5652 98.8125L38.0302 98.1963H42.344L45.4252 99.4288L47.8902 101.894L49.739 104.975L51.5877 108.673L52.204 110.521ZM55.5692 99.4288L58.7808 101.938L59.5989 100.661L60.8314 98.1963L62.0639 95.115L62.6802 92.65L63.9127 88.3363V82.1738L63.2964 78.4763L61.4477 76.0113L58.9827 75.395L55.9014 79.0925L54.0527 85.255L53.4364 90.8013L54.0527 95.7313L55.5692 99.4288ZM47.8902 107.44L49.1227 112.37L48.5065 113.603L46.0415 114.835L43.5765 116.068L40.4952 116.684L36.7977 116.068L33.7165 113.603L31.8677 110.521L31.2515 107.44L32.787 103.963L35.5652 101.894L39.2627 101.278L42.9602 102.51L45.4252 104.359L47.8902 107.44Z" fill="white"/>
<path d="M68.1603 101.958C70.8185 100.84 73.2412 99.2323 75.3015 97.2188C77.692 94.9217 79.7469 92.3009 81.4057 89.4334C85.5164 82.3374 87.189 75.629 85.146 74.4289C83.1031 73.2288 78.1036 78.0539 73.9868 85.1561C70.0922 91.8829 68.6602 98.6959 67.5739 105.367V105.478C66.1474 114.629 65.3022 123.86 65.0434 133.118C64.576 148.38 65.0398 163.657 66.4321 178.864L64.0188 180.248C63.8213 178.02 63.6382 175.782 63.4695 173.534C62.3099 159.064 62.042 144.537 62.6671 130.034C63.0095 122.019 63.8132 114.029 65.0742 106.106C65.1812 105.453 65.2923 104.801 65.4075 104.149C65.4878 103.669 65.5803 103.189 65.6729 102.715C66.8641 96.4802 68.5985 90.4797 72.2771 84.1098C77.6716 74.7859 84.498 68.6314 87.5162 70.367C90.5343 72.1025 88.5963 81.0757 83.1956 90.3997C81.3587 93.6341 79.1167 96.6224 76.5236 99.2928C74.0168 101.911 70.981 103.969 67.6171 105.33" fill="white"/>
<path d="M51.0127 187.498L53.544 186.485L54.0503 177.879L55.0628 163.703L55.2853 151.194L55.0628 139.908L54.5565 126.745L52.5315 113.582L50.0001 115.607L52.204 130.858C52.8203 153.043 52.204 168.449 52.204 168.449C52.204 168.449 51.6289 183.389 51.0127 187.498Z" fill="white"/>
<path d="M69.1725 97.3172C70.0705 96.6485 70.9279 95.9272 71.7401 95.157C74.1306 92.8599 76.1855 90.2392 77.8444 87.3717C80.665 82.4974 82.3377 77.8077 82.4488 74.9643" stroke="#2AB2FF" stroke-width="0.4" stroke-miterlimit="10"/>
<path d="M55.6864 99.1082C57.0907 96.6308 58.2246 94.0104 59.0687 91.292C59.9358 88.5627 60.4036 85.723 60.4575 82.8605C60.4575 79.7833 59.9637 77.2846 59.1551 75.6229" stroke="#2AB2FF" stroke-width="0.4" stroke-miterlimit="10"/>
<path d="M50.5882 106.315C51.4982 105.286 52.3551 104.212 53.1558 103.096" stroke="#2AB2FF" stroke-width="0.4" stroke-miterlimit="10"/>
<path d="M34.3122 114.15C35.7699 114.511 37.2926 114.524 38.7561 114.187C41.3281 113.57 43.7338 112.4 45.8047 110.759V110.759C44.9406 107.171 43.7494 103.909 41.5583 101.835" stroke="#2AB2FF" stroke-width="0.4" stroke-miterlimit="10"/>
<path d="M56.7109 105.127C53.0076 103.053 51.0449 98.6589 51.0449 92.3568C51.0449 83.5621 54.5075 74.4474 58.7724 71.9917C63.0374 69.5361 66.4999 74.6689 66.4999 83.4636C66.4999 89.7596 64.5063 96.4433 60.8339 102.758C60.1838 103.866 59.4966 104.945 58.7724 105.995C58.3774 106.567 57.9762 107.121 57.538 107.687C56.0196 109.713 54.3305 111.605 52.4891 113.343C51.6559 114.125 50.8041 114.851 49.9462 115.516C46.9589 117.842 43.8852 119.295 41.0398 119.726C38.74 120.09 36.3844 119.656 34.3677 118.495C28.9671 115.381 27.0352 108.648 30.0472 103.429C33.0592 98.2096 39.9226 96.5418 45.3233 99.6805C49.0266 101.792 50.7424 105.835 51.9275 110.679" stroke="#2AB2FF" stroke-width="0.4" stroke-miterlimit="10"/>
<path d="M65.0372 106.137C63.3822 106.513 61.6695 106.566 59.9945 106.29C59.5781 106.216 59.1661 106.12 58.7601 106.001" stroke="#2AB2FF" stroke-width="0.4" stroke-miterlimit="10"/>
<path d="M68.1603 101.958C70.8185 100.84 73.2412 99.2323 75.3015 97.2188C77.692 94.9217 79.7469 92.3009 81.4057 89.4334C85.5164 82.3374 87.189 75.629 85.146 74.4289C83.1031 73.2288 78.1036 78.0539 73.9868 85.1561C70.0922 91.8829 68.6602 98.6959 67.5739 105.367V105.478C66.1474 114.629 65.3022 123.86 65.0434 133.118C64.576 148.38 65.0398 163.657 66.4321 178.864L64.0188 180.248C63.8213 178.02 63.6382 175.782 63.4695 173.534C62.3099 159.064 62.042 144.537 62.6671 130.034C63.0095 122.019 63.8132 114.029 65.0742 106.106C65.1812 105.453 65.2923 104.801 65.4075 104.149C65.4878 103.669 65.5803 103.189 65.6729 102.715C66.8641 96.4802 68.5985 90.4797 72.2771 84.1098C77.6716 74.7859 84.498 68.6314 87.5162 70.367C90.5343 72.1025 88.5963 81.0757 83.1956 90.3997C81.3587 93.6341 79.1167 96.6224 76.5236 99.2928C74.0168 101.911 70.981 103.969 67.6171 105.33" stroke="#2AB2FF" stroke-width="0.4" stroke-miterlimit="10" stroke-linejoin="round"/>
<path d="M60.834 102.758C62.4142 103.118 64.0557 103.118 65.6359 102.758" stroke="#2AB2FF" stroke-width="0.4" stroke-miterlimit="10"/>
<path d="M49.3661 112.783C48.3169 108.414 46.78 104.536 43.552 102.684C39.4413 100.314 34.4542 101.262 32.3927 104.801C30.3312 108.34 32.0224 113.116 36.133 115.497C38.0296 116.491 40.2267 116.754 42.3052 116.236C44.9399 115.595 47.3997 114.38 49.5081 112.679C50.3406 112.05 51.138 111.376 51.8967 110.66C53.674 108.974 55.2822 107.119 56.6987 105.121C57.427 104.099 58.1182 103.041 58.7601 101.952C60.3814 99.2408 61.6762 96.3487 62.6177 93.3353C63.483 90.6058 63.9487 87.766 64.0003 84.9038C64.0003 78.2077 61.6549 74.1335 58.7601 75.8014C55.8654 77.4692 53.52 84.2391 53.52 90.9351C53.4834 93.2821 53.9594 95.609 54.9149 97.7542C55.7054 99.5296 57.0555 100.999 58.7601 101.939" stroke="#2AB2FF" stroke-width="0.4" stroke-miterlimit="10"/>
<path d="M52.5077 113.35C53.8224 120.335 54.6228 127.407 54.9025 134.509C55.6185 148.738 55.1494 163.73 54.1001 178.925C53.9314 181.387 53.7483 183.849 53.5508 186.31L51.1251 187.689C52.3966 171.503 53.0632 155.544 52.5077 140.343C52.1929 131.757 51.5263 123.326 49.9833 115.614V115.528" stroke="#2AB2FF" stroke-width="0.4" stroke-miterlimit="10" stroke-linejoin="round"/>
<path d="M51.1251 187.689L47.5638 185.64C48.8353 169.453 49.5019 153.495 48.9525 138.294C48.755 131.319 48.1367 124.362 47.1009 117.461" stroke="#2AB2FF" stroke-width="0.4" stroke-miterlimit="10"/>
<path d="M64.0002 180.236L60.4451 178.187C60.2393 175.959 60.0542 173.72 59.8896 171.472C58.7329 157.008 58.467 142.487 59.0934 127.991C59.3915 120.78 60.0693 113.59 61.124 106.45" stroke="#2AB2FF" stroke-width="0.4" stroke-miterlimit="10"/>
<path d="M45.8048 110.734L49.3661 112.783" stroke="#2AB2FF" stroke-width="0.4" stroke-miterlimit="10"/>
<path d="M62.0746 100.696L65.636 102.745" stroke="#2AB2FF" stroke-width="0.4" stroke-miterlimit="10"/>
<path d="M62.698 71.9302L59.1367 69.8808C58.5484 69.5092 57.8641 69.317 57.1678 69.3279C56.4715 69.3389 55.7936 69.5524 55.2173 69.9423C50.9462 72.4041 47.4898 81.5127 47.4898 90.3074C47.4898 96.6095 49.4649 101.004 53.1558 103.078L56.711 105.127" stroke="#2AB2FF" stroke-width="0.4" stroke-miterlimit="10"/>
<path d="M87.4667 70.367L83.9054 68.2929C80.8872 66.5574 74.067 72.7118 68.6664 82.0358C67.8082 83.5178 67.0253 85.0419 66.3209 86.6024" stroke="#2AB2FF" stroke-width="0.4" stroke-miterlimit="10"/>
<path d="M33.732 118.144L30.1707 116.094C25.2762 112.826 23.6159 106.426 26.5229 101.435C29.5473 96.2279 36.3614 94.5232 41.762 97.6312L45.3233 99.6806" stroke="#2AB2FF" stroke-width="0.4" stroke-miterlimit="10"/>
<path d="M163.855 100.661L167.553 103.743L165.704 100.045L165.088 97.58L164.471 92.65L165.088 87.72L166.32 81.5575L167.553 78.4763L170.018 74.1625L173.099 71.6975H176.18L174.948 71.0813L172.483 69.8488L170.634 69.2325L168.785 69.8488L166.32 72.3138L163.855 76.0113L162.623 79.7088L161.39 84.6388L160.774 90.185L161.39 95.115L163.855 100.661Z" fill="white"/>
<path d="M173.715 79.0925L172.483 75.395L174.948 76.0113L176.18 77.86L177.413 81.5575V87.1038L176.663 91.8127L174.948 96.3475L172.613 101.432L169.575 105.988L165.704 110.521L163.855 106.208L165.088 104.975L169.401 98.8125L171.25 95.115L172.483 91.4175L173.715 86.4875V79.0925Z" fill="white"/>
<path d="M142.903 115.451L145.781 117.126L142.903 112.986L142.286 110.521V106.824L143.519 103.743L145.984 100.661L149.065 98.8125L152.763 98.1963L157.076 98.8125L156.46 98.1963L153.375 96.8754L149.831 95.8629L146.82 96.3475L144.751 96.9638L141.054 100.045L139.205 102.73L138.589 108.056L140.212 112.57L142.903 115.451Z" fill="white"/>
<path d="M157.693 105.591L155.4 101.938L157.425 102.951L160.158 105.591L162.006 109.289L162.623 111.754V112.986L161.981 113.582L158.309 115.451L153.379 116.684L150.914 116.068L148.312 114.595V114.219H151.856L155.844 112.986L159.45 110.545L158.309 107.44L157.693 105.591Z" fill="white"/>
<path d="M174.331 102.51L175.564 100.661L178.645 102.51L176.18 103.126L174.331 102.51Z" fill="white"/>
<path d="M182.738 97.3817L181.726 101.938L186.04 99.4288L189.826 96.3691L193.37 91.8127L196.408 86.75L198.433 82.1936L199.598 77.2438L198.982 74.7788L197.926 74.0933L195.901 75.1058L195.395 77.6372L194.052 82.1738L191.345 87.7626L188.307 91.8127L185.424 95.115L182.738 97.3817Z" fill="white"/>
<path d="M175.564 100.661L179.261 102.51L181.726 92.65L185.424 84.6388L190.97 76.6275L197.749 70.465L200.214 69.8488L197.133 68H195.284L192.819 69.2325L189.121 72.3138L184.808 77.86L180.494 85.255L178.645 93.8825L175.564 100.661Z" fill="white"/>
<path d="M174.132 178.385L177.413 180.158L176.663 168.259L176.18 156.74L175.651 146.49L176.18 135.788L176.796 120.381L178.645 106.208L174.638 106.495L173.099 119.149L172.483 135.788L172.107 145.984L172.483 156.74L173.119 168.259L174.132 178.385Z" fill="white"/>
<path d="M160.969 185.473L164.513 187.498L165.019 180.916L166.031 160.665V150.54L165.704 132.706L163.5 115.607L160.774 117.3L161.981 129.277C162.488 137.883 162.488 145.477 162.488 145.477C162.488 145.477 162.703 152.693 162.488 161.678C162.29 169.918 161.695 179.175 160.969 185.473Z" fill="white"/>
<path d="M176.796 103.126L179.261 102.51L178.645 106.208H177.413H172.483L174.331 102.51L176.796 103.126Z" fill="white"/>
<path fill-rule="evenodd" clip-rule="evenodd" d="M165.704 110.521L170.018 104.975L166.32 101.278L164.471 93.8825L165.088 85.255L167.553 77.86L170.634 73.5463L173.099 71.6975H175.564L178.029 74.1625L179.878 79.0925V84.6388V87.72L178.645 92.65L177.413 96.3475L176.18 98.8125L173.715 103.743L170.634 108.056L167.553 111.754L165.088 114.219L160.774 117.3L154.611 119.765H150.914L146.6 117.916L143.519 114.219L142.286 109.905V106.208L144.135 102.51L146.6 100.045L149.065 98.8125L151.53 98.1963H155.844L158.925 99.4288L161.39 101.894L163.239 104.975L165.088 108.673L165.704 110.521ZM169.069 99.4288L172.281 101.938L173.099 100.661L174.331 98.1963L175.564 95.115L176.18 92.65L177.413 88.3363V82.1738L176.796 78.4763L174.948 76.0113L172.483 75.395L169.401 79.0925L167.553 85.255L166.936 90.8013L167.553 95.7313L169.069 99.4288ZM161.39 107.44L162.623 112.37L162.006 113.603L159.541 114.835L157.076 116.068L153.995 116.684L150.298 116.068L147.216 113.603L145.368 110.521L144.751 107.44L146.287 103.963L149.065 101.894L152.763 101.278L156.46 102.51L158.925 104.359L161.39 107.44Z" fill="white"/>
<path d="M181.66 101.958C184.318 100.84 186.741 99.2323 188.801 97.2188C191.192 94.9217 193.247 92.3009 194.906 89.4334C199.016 82.3374 200.689 75.629 198.646 74.4289C196.603 73.2288 191.604 78.0539 187.487 85.1561C183.592 91.8829 182.16 98.6959 181.074 105.367V105.478C179.647 114.629 178.802 123.86 178.543 133.118C178.076 148.38 178.54 163.657 179.932 178.864L177.519 180.248C177.321 178.02 177.138 175.782 176.969 173.534C175.81 159.064 175.542 144.537 176.167 130.034C176.51 122.019 177.313 114.029 178.574 106.106C178.681 105.453 178.792 104.801 178.908 104.149C178.988 103.669 179.08 103.189 179.173 102.715C180.364 96.4802 182.099 90.4797 185.777 84.1098C191.172 74.7859 197.998 68.6314 201.016 70.367C204.034 72.1025 202.096 81.0757 196.696 90.3997C194.859 93.6341 192.617 96.6224 190.024 99.2928C187.517 101.911 184.481 103.969 181.117 105.33" fill="white"/>
<path d="M164.513 187.498L167.044 186.485L167.55 177.879L168.563 163.703L168.785 151.194L168.563 139.908L168.057 126.745L166.031 113.582L163.5 115.607L165.704 130.858C166.32 153.043 165.704 168.449 165.704 168.449C165.704 168.449 165.129 183.389 164.513 187.498Z" fill="white"/>
<path d="M182.672 97.3172C183.571 96.6485 184.428 95.9272 185.24 95.157C187.631 92.8599 189.685 90.2392 191.344 87.3717C194.165 82.4974 195.838 77.8077 195.949 74.9643" stroke="#FFE100" stroke-width="0.4" stroke-miterlimit="10"/>
<path d="M169.186 99.1082C170.591 96.6308 171.725 94.0104 172.569 91.292C173.436 88.5627 173.904 85.723 173.957 82.8605C173.957 79.7833 173.464 77.2846 172.655 75.6229" stroke="#FFE100" stroke-width="0.4" stroke-miterlimit="10"/>
<path d="M164.088 106.315C164.998 105.286 165.855 104.212 166.656 103.096" stroke="#FFE100" stroke-width="0.4" stroke-miterlimit="10"/>
<path d="M147.812 114.15C149.27 114.511 150.793 114.524 152.256 114.187C154.828 113.57 157.234 112.4 159.305 110.759V110.759C158.441 107.171 157.249 103.909 155.058 101.835" stroke="#FFE100" stroke-width="0.4" stroke-miterlimit="10"/>
<path d="M170.211 105.127C166.508 103.053 164.545 98.6589 164.545 92.3568C164.545 83.5621 168.007 74.4474 172.272 71.9917C176.537 69.5361 180 74.6689 180 83.4636C180 89.7596 178.006 96.4433 174.334 102.758C173.684 103.866 172.997 104.945 172.272 105.995C171.877 106.567 171.476 107.121 171.038 107.687C169.52 109.713 167.83 111.605 165.989 113.343C165.156 114.125 164.304 114.851 163.446 115.516C160.459 117.842 157.385 119.295 154.54 119.726C152.24 120.09 149.884 119.656 147.868 118.495C142.467 115.381 140.535 108.648 143.547 103.429C146.559 98.2096 153.423 96.5418 158.823 99.6805C162.527 101.792 164.242 105.835 165.427 110.679" stroke="#FFE100" stroke-width="0.4" stroke-miterlimit="10"/>
<path d="M178.537 106.137C176.882 106.513 175.169 106.566 173.495 106.29C173.078 106.216 172.666 106.12 172.26 106.001" stroke="#FFE100" stroke-width="0.4" stroke-miterlimit="10"/>
<path d="M181.66 101.958C184.318 100.84 186.741 99.2323 188.801 97.2188C191.192 94.9217 193.247 92.3009 194.906 89.4334C199.016 82.3374 200.689 75.629 198.646 74.4289C196.603 73.2288 191.604 78.0539 187.487 85.1561C183.592 91.8829 182.16 98.6959 181.074 105.367V105.478C179.647 114.629 178.802 123.86 178.543 133.118C178.076 148.38 178.54 163.657 179.932 178.864L177.519 180.248C177.321 178.02 177.138 175.782 176.969 173.534C175.81 159.064 175.542 144.537 176.167 130.034C176.51 122.019 177.313 114.029 178.574 106.106C178.681 105.453 178.792 104.801 178.908 104.149C178.988 103.669 179.08 103.189 179.173 102.715C180.364 96.4802 182.099 90.4797 185.777 84.1098C191.172 74.7859 197.998 68.6314 201.016 70.367C204.034 72.1025 202.096 81.0757 196.696 90.3997C194.859 93.6341 192.617 96.6224 190.024 99.2928C187.517 101.911 184.481 103.969 181.117 105.33" stroke="#FFE100" stroke-width="0.4" stroke-miterlimit="10" stroke-linejoin="round"/>
<path d="M174.334 102.758C175.914 103.118 177.556 103.118 179.136 102.758" stroke="#FFE100" stroke-width="0.4" stroke-miterlimit="10"/>
<path d="M162.866 112.783C161.817 108.414 160.28 104.536 157.052 102.684C152.941 100.314 147.954 101.262 145.893 104.801C143.831 108.34 145.522 113.116 149.633 115.497C151.53 116.491 153.727 116.754 155.805 116.236C158.44 115.595 160.9 114.38 163.008 112.679C163.841 112.05 164.638 111.376 165.397 110.66C167.174 108.974 168.782 107.119 170.199 105.121C170.927 104.099 171.618 103.041 172.26 101.952C173.881 99.2408 175.176 96.3487 176.118 93.3353C176.983 90.6058 177.449 87.766 177.5 84.9038C177.5 78.2077 175.155 74.1335 172.26 75.8014C169.365 77.4692 167.02 84.2391 167.02 90.9351C166.983 93.2821 167.459 95.609 168.415 97.7542C169.205 99.5296 170.556 100.999 172.26 101.939" stroke="#FFE100" stroke-width="0.4" stroke-miterlimit="10"/>
<path d="M166.008 113.35C167.322 120.335 168.123 127.407 168.402 134.509C169.118 148.738 168.649 163.73 167.6 178.925C167.431 181.387 167.248 183.849 167.051 186.31L164.625 187.689C165.897 171.503 166.563 155.544 166.008 140.343C165.693 131.757 165.026 123.326 163.483 115.614V115.528" stroke="#FFE100" stroke-width="0.4" stroke-miterlimit="10" stroke-linejoin="round"/>
<path d="M164.625 187.689L161.064 185.64C162.335 169.453 163.002 153.495 162.453 138.294C162.255 131.319 161.637 124.362 160.601 117.461" stroke="#FFE100" stroke-width="0.4" stroke-miterlimit="10"/>
<path d="M177.5 180.236L173.945 178.187C173.739 175.959 173.554 173.72 173.39 171.472C172.233 157.008 171.967 142.487 172.593 127.991C172.891 120.78 173.569 113.59 174.624 106.45" stroke="#FFE100" stroke-width="0.4" stroke-miterlimit="10"/>
<path d="M159.305 110.734L162.866 112.783" stroke="#FFE100" stroke-width="0.4" stroke-miterlimit="10"/>
<path d="M175.575 100.696L179.136 102.745" stroke="#FFE100" stroke-width="0.4" stroke-miterlimit="10"/>
<path d="M176.198 71.9302L172.637 69.8808C172.048 69.5092 171.364 69.317 170.668 69.3279C169.971 69.3389 169.294 69.5524 168.717 69.9423C164.446 72.4041 160.99 81.5127 160.99 90.3074C160.99 96.6095 162.965 101.004 166.656 103.078L170.211 105.127" stroke="#FFE100" stroke-width="0.4" stroke-miterlimit="10"/>
<path d="M200.967 70.367L197.405 68.2929C194.387 66.5574 187.567 72.7118 182.166 82.0358C181.308 83.5178 180.525 85.0419 179.821 86.6024" stroke="#FFE100" stroke-width="0.4" stroke-miterlimit="10"/>
<path d="M147.232 118.144L143.671 116.094C138.776 112.826 137.116 106.426 140.023 101.435C143.047 96.2279 149.861 94.5232 155.262 97.6312L158.823 99.6806" stroke="#FFE100" stroke-width="0.4" stroke-miterlimit="10"/>
<path d="M277.855 100.661L281.553 103.743L279.704 100.045L279.088 97.58L278.471 92.65L279.088 87.72L280.32 81.5575L281.553 78.4763L284.018 74.1625L287.099 71.6975H290.18L288.948 71.0813L286.483 69.8488L284.634 69.2325L282.785 69.8488L280.32 72.3138L277.855 76.0113L276.623 79.7088L275.39 84.6388L274.774 90.185L275.39 95.115L277.855 100.661Z" fill="white"/>
<path d="M287.715 79.0925L286.483 75.395L288.948 76.0113L290.18 77.86L291.413 81.5575V87.1038L290.663 91.8127L288.948 96.3475L286.613 101.432L283.575 105.988L279.704 110.521L277.855 106.208L279.088 104.975L283.401 98.8125L285.25 95.115L286.483 91.4175L287.715 86.4875V79.0925Z" fill="white"/>
<path d="M256.903 115.451L259.781 117.126L256.903 112.986L256.286 110.521V106.824L257.519 103.743L259.984 100.661L263.065 98.8125L266.763 98.1963L271.076 98.8125L270.46 98.1963L267.375 96.8754L263.831 95.8629L260.82 96.3475L258.751 96.9638L255.054 100.045L253.205 102.73L252.589 108.056L254.212 112.57L256.903 115.451Z" fill="white"/>
<path d="M271.693 105.591L269.4 101.938L271.425 102.951L274.158 105.591L276.006 109.289L276.623 111.754V112.986L275.981 113.582L272.309 115.451L267.379 116.684L264.914 116.068L262.312 114.595V114.219H265.856L269.844 112.986L273.45 110.545L272.309 107.44L271.693 105.591Z" fill="white"/>
<path d="M288.331 102.51L289.564 100.661L292.645 102.51L290.18 103.126L288.331 102.51Z" fill="white"/>
<path d="M296.738 97.3817L295.726 101.938L300.04 99.4288L303.826 96.3691L307.37 91.8127L310.408 86.75L312.433 82.1936L313.598 77.2438L312.982 74.7788L311.926 74.0933L309.901 75.1058L309.395 77.6372L308.052 82.1738L305.345 87.7626L302.307 91.8127L299.424 95.115L296.738 97.3817Z" fill="white"/>
<path d="M289.564 100.661L293.261 102.51L295.726 92.65L299.424 84.6388L304.97 76.6275L311.749 70.465L314.214 69.8488L311.133 68H309.284L306.819 69.2325L303.121 72.3138L298.808 77.86L294.494 85.255L292.645 93.8825L289.564 100.661Z" fill="white"/>
<path d="M288.132 178.385L291.413 180.158L290.663 168.259L290.18 156.74L289.651 146.49L290.18 135.788L290.796 120.381L292.645 106.208L288.638 106.495L287.099 119.149L286.483 135.788L286.107 145.984L286.483 156.74L287.119 168.259L288.132 178.385Z" fill="white"/>
<path d="M274.969 185.473L278.513 187.498L279.019 180.916L280.031 160.665V150.54L279.704 132.706L277.5 115.607L274.774 117.3L275.981 129.277C276.488 137.883 276.488 145.477 276.488 145.477C276.488 145.477 276.703 152.693 276.488 161.678C276.29 169.918 275.695 179.175 274.969 185.473Z" fill="white"/>
<path d="M290.796 103.126L293.261 102.51L292.645 106.208H291.413H286.483L288.331 102.51L290.796 103.126Z" fill="white"/>
<path fill-rule="evenodd" clip-rule="evenodd" d="M279.704 110.521L284.018 104.975L280.32 101.278L278.471 93.8825L279.088 85.255L281.553 77.86L284.634 73.5463L287.099 71.6975H289.564L292.029 74.1625L293.878 79.0925V84.6388V87.72L292.645 92.65L291.413 96.3475L290.18 98.8125L287.715 103.743L284.634 108.056L281.553 111.754L279.088 114.219L274.774 117.3L268.611 119.765H264.914L260.6 117.916L257.519 114.219L256.286 109.905V106.208L258.135 102.51L260.6 100.045L263.065 98.8125L265.53 98.1963H269.844L272.925 99.4288L275.39 101.894L277.239 104.975L279.088 108.673L279.704 110.521ZM283.069 99.4288L286.281 101.938L287.099 100.661L288.331 98.1963L289.564 95.115L290.18 92.65L291.413 88.3363V82.1738L290.796 78.4763L288.948 76.0113L286.483 75.395L283.401 79.0925L281.553 85.255L280.936 90.8013L281.553 95.7313L283.069 99.4288ZM275.39 107.44L276.623 112.37L276.006 113.603L273.541 114.835L271.076 116.068L267.995 116.684L264.298 116.068L261.216 113.603L259.368 110.521L258.751 107.44L260.287 103.963L263.065 101.894L266.763 101.278L270.46 102.51L272.925 104.359L275.39 107.44Z" fill="white"/>
<path d="M295.66 101.958C298.318 100.84 300.741 99.2323 302.801 97.2188C305.192 94.9217 307.247 92.3009 308.906 89.4334C313.016 82.3374 314.689 75.629 312.646 74.4289C310.603 73.2288 305.604 78.0539 301.487 85.1561C297.592 91.8829 296.16 98.6959 295.074 105.367V105.478C293.647 114.629 292.802 123.86 292.543 133.118C292.076 148.38 292.54 163.657 293.932 178.864L291.519 180.248C291.321 178.02 291.138 175.782 290.969 173.534C289.81 159.064 289.542 144.537 290.167 130.034C290.51 122.019 291.313 114.029 292.574 106.106C292.681 105.453 292.792 104.801 292.908 104.149C292.988 103.669 293.08 103.189 293.173 102.715C294.364 96.4802 296.099 90.4797 299.777 84.1098C305.172 74.7859 311.998 68.6314 315.016 70.367C318.034 72.1025 316.096 81.0757 310.696 90.3997C308.859 93.6341 306.617 96.6224 304.024 99.2928C301.517 101.911 298.481 103.969 295.117 105.33" fill="white"/>
<path d="M278.513 187.498L281.044 186.485L281.55 177.879L282.563 163.703L282.785 151.194L282.563 139.908L282.057 126.745L280.031 113.582L277.5 115.607L279.704 130.858C280.32 153.043 279.704 168.449 279.704 168.449C279.704 168.449 279.129 183.389 278.513 187.498Z" fill="white"/>
<path d="M296.672 97.3172C297.571 96.6485 298.428 95.9272 299.24 95.157C301.631 92.8599 303.685 90.2392 305.344 87.3717C308.165 82.4974 309.838 77.8077 309.949 74.9643" stroke="#FF2A50" stroke-width="0.4" stroke-miterlimit="10"/>
<path d="M283.186 99.1082C284.591 96.6308 285.725 94.0104 286.569 91.292C287.436 88.5627 287.904 85.723 287.957 82.8605C287.957 79.7833 287.464 77.2846 286.655 75.6229" stroke="#FF2A50" stroke-width="0.4" stroke-miterlimit="10"/>
<path d="M278.088 106.315C278.998 105.286 279.855 104.212 280.656 103.096" stroke="#FF2A50" stroke-width="0.4" stroke-miterlimit="10"/>
<path d="M261.812 114.15C263.27 114.511 264.793 114.524 266.256 114.187C268.828 113.57 271.234 112.4 273.305 110.759V110.759C272.441 107.171 271.249 103.909 269.058 101.835" stroke="#FF2A50" stroke-width="0.4" stroke-miterlimit="10"/>
<path d="M284.211 105.127C280.508 103.053 278.545 98.6589 278.545 92.3568C278.545 83.5621 282.007 74.4474 286.272 71.9917C290.537 69.5361 294 74.6689 294 83.4636C294 89.7596 292.006 96.4433 288.334 102.758C287.684 103.866 286.997 104.945 286.272 105.995C285.877 106.567 285.476 107.121 285.038 107.687C283.52 109.713 281.83 111.605 279.989 113.343C279.156 114.125 278.304 114.851 277.446 115.516C274.459 117.842 271.385 119.295 268.54 119.726C266.24 120.09 263.884 119.656 261.868 118.495C256.467 115.381 254.535 108.648 257.547 103.429C260.559 98.2096 267.423 96.5418 272.823 99.6805C276.527 101.792 278.242 105.835 279.427 110.679" stroke="#FF2A50" stroke-width="0.4" stroke-miterlimit="10"/>
<path d="M292.537 106.137C290.882 106.513 289.169 106.566 287.495 106.29C287.078 106.216 286.666 106.12 286.26 106.001" stroke="#FF2A50" stroke-width="0.4" stroke-miterlimit="10"/>
<path d="M295.66 101.958C298.318 100.84 300.741 99.2323 302.801 97.2188C305.192 94.9217 307.247 92.3009 308.906 89.4334C313.016 82.3374 314.689 75.629 312.646 74.4289C310.603 73.2288 305.604 78.0539 301.487 85.1561C297.592 91.8829 296.16 98.6959 295.074 105.367V105.478C293.647 114.629 292.802 123.86 292.543 133.118C292.076 148.38 292.54 163.657 293.932 178.864L291.519 180.248C291.321 178.02 291.138 175.782 290.969 173.534C289.81 159.064 289.542 144.537 290.167 130.034C290.51 122.019 291.313 114.029 292.574 106.106C292.681 105.453 292.792 104.801 292.908 104.149C292.988 103.669 293.08 103.189 293.173 102.715C294.364 96.4802 296.099 90.4797 299.777 84.1098C305.172 74.7859 311.998 68.6314 315.016 70.367C318.034 72.1025 316.096 81.0757 310.696 90.3997C308.859 93.6341 306.617 96.6224 304.024 99.2928C301.517 101.911 298.481 103.969 295.117 105.33" stroke="#FF2A50" stroke-width="0.4" stroke-miterlimit="10" stroke-linejoin="round"/>
<path d="M288.334 102.758C289.914 103.118 291.556 103.118 293.136 102.758" stroke="#FF2A50" stroke-width="0.4" stroke-miterlimit="10"/>
<path d="M276.866 112.783C275.817 108.414 274.28 104.536 271.052 102.684C266.941 100.314 261.954 101.262 259.893 104.801C257.831 108.34 259.522 113.116 263.633 115.497C265.53 116.491 267.727 116.754 269.805 116.236C272.44 115.595 274.9 114.38 277.008 112.679C277.841 112.05 278.638 111.376 279.397 110.66C281.174 108.974 282.782 107.119 284.199 105.121C284.927 104.099 285.618 103.041 286.26 101.952C287.881 99.2408 289.176 96.3487 290.118 93.3353C290.983 90.6058 291.449 87.766 291.5 84.9038C291.5 78.2077 289.155 74.1335 286.26 75.8014C283.365 77.4692 281.02 84.2391 281.02 90.9351C280.983 93.2821 281.459 95.609 282.415 97.7542C283.205 99.5296 284.556 100.999 286.26 101.939" stroke="#FF2A50" stroke-width="0.4" stroke-miterlimit="10"/>
<path d="M280.008 113.35C281.322 120.335 282.123 127.407 282.402 134.509C283.118 148.738 282.649 163.73 281.6 178.925C281.431 181.387 281.248 183.849 281.051 186.31L278.625 187.689C279.897 171.503 280.563 155.544 280.008 140.343C279.693 131.757 279.026 123.326 277.483 115.614V115.528" stroke="#FF2A50" stroke-width="0.4" stroke-miterlimit="10" stroke-linejoin="round"/>
<path d="M278.625 187.689L275.064 185.64C276.335 169.453 277.002 153.495 276.453 138.294C276.255 131.319 275.637 124.362 274.601 117.461" stroke="#FF2A50" stroke-width="0.4" stroke-miterlimit="10"/>
<path d="M291.5 180.236L287.945 178.187C287.739 175.959 287.554 173.72 287.39 171.472C286.233 157.008 285.967 142.487 286.593 127.991C286.891 120.78 287.569 113.59 288.624 106.45" stroke="#FF2A50" stroke-width="0.4" stroke-miterlimit="10"/>
<path d="M273.305 110.734L276.866 112.783" stroke="#FF2A50" stroke-width="0.4" stroke-miterlimit="10"/>
<path d="M289.575 100.696L293.136 102.745" stroke="#FF2A50" stroke-width="0.4" stroke-miterlimit="10"/>
<path d="M290.198 71.9302L286.637 69.8808C286.048 69.5092 285.364 69.317 284.668 69.3279C283.971 69.3389 283.294 69.5524 282.717 69.9423C278.446 72.4041 274.99 81.5127 274.99 90.3074C274.99 96.6095 276.965 101.004 280.656 103.078L284.211 105.127" stroke="#FF2A50" stroke-width="0.4" stroke-miterlimit="10"/>
<path d="M314.967 70.367L311.405 68.2929C308.387 66.5574 301.567 72.7118 296.166 82.0358C295.308 83.5178 294.525 85.0419 293.821 86.6024" stroke="#FF2A50" stroke-width="0.4" stroke-miterlimit="10"/>
<path d="M261.232 118.144L257.671 116.094C252.776 112.826 251.116 106.426 254.023 101.435C257.047 96.2279 263.861 94.5232 269.262 97.6312L272.823 99.6806" stroke="#FF2A50" stroke-width="0.4" stroke-miterlimit="10"/>
<g style="mix-blend-mode:hard-light" opacity="0.9" filter="url(#filter0_f_2020_8565)">
<path d="M195.375 192.861C201.948 185.472 204.45 177.752 204.432 168.841C204.536 142.308 220.072 115.678 220.072 115.678C224.332 106.878 226.355 97.0901 225.949 87.2466C225.543 77.4032 222.721 67.8317 217.752 59.4435C212.782 51.0552 205.831 44.1295 197.56 39.3257C189.289 34.522 179.973 32 170.5 32C161.027 32 151.711 34.522 143.44 39.3257C135.169 44.1295 128.218 51.0552 123.248 59.4435C118.279 67.8317 115.457 77.4032 115.051 87.2466C114.645 97.0901 116.668 106.878 120.928 115.678C120.928 115.678 136.458 142.314 136.568 168.841C136.552 177.753 139.056 185.473 145.631 192.861" fill="#FBEB5C"/>
</g>
<g style="mix-blend-mode:hard-light" opacity="0.3" filter="url(#filter1_f_2020_8565)">
<path d="M80.4264 192.056C86.8813 184.795 89.3386 177.21 89.3202 168.454C89.423 142.384 104.678 116.218 104.678 116.218C108.862 107.572 110.849 97.9548 110.45 88.283C110.051 78.6112 107.28 69.2067 102.4 60.9648C97.5204 52.7229 90.6946 45.918 82.5726 41.198C74.4505 36.478 65.3027 34 56 34C46.6973 34 37.5495 36.478 29.4274 41.198C21.3054 45.918 14.4796 52.7229 9.59984 60.9648C4.7201 69.2067 1.94891 78.6112 1.55011 88.283C1.15131 97.9548 3.13818 107.572 7.32154 116.218C7.32154 116.218 22.5712 142.39 22.6798 168.454C22.6635 177.211 25.1226 184.796 31.5793 192.056" fill="#2AB2FF"/>
</g>
<g style="mix-blend-mode:hard-light" opacity="0.3" filter="url(#filter2_f_2020_8565)">
<path d="M309.375 190.991C315.948 183.687 318.45 176.057 318.432 167.249C318.536 141.025 334.072 114.705 334.072 114.705C338.332 106.007 340.355 96.3332 339.949 86.6042C339.543 76.8752 336.721 67.415 331.752 59.1243C326.782 50.8337 319.831 43.9885 311.56 39.2406C303.289 34.4926 293.973 32 284.5 32C275.027 32 265.711 34.4926 257.44 39.2406C249.169 43.9885 242.218 50.8337 237.248 59.1243C232.279 67.415 229.457 76.8752 229.051 86.6042C228.645 96.3332 230.668 106.007 234.928 114.705C234.928 114.705 250.458 141.031 250.568 167.249C250.552 176.058 253.056 183.688 259.631 190.991" fill="#FF2A50"/>
</g>
</g>
<defs>
<filter id="filter0_f_2020_8565" x="45" y="-38" width="251" height="312" filterUnits="userSpaceOnUse" color-interpolation-filters="sRGB">
<feFlood flood-opacity="0" result="BackgroundImageFix"/>
<feBlend mode="normal" in="SourceGraphic" in2="BackgroundImageFix" result="shape"/>
<feGaussianBlur stdDeviation="35" result="effect1_foregroundBlur_2020_8565"/>
</filter>
<filter id="filter1_f_2020_8565" x="-68.5" y="-36" width="249" height="309" filterUnits="userSpaceOnUse" color-interpolation-filters="sRGB">
<feFlood flood-opacity="0" result="BackgroundImageFix"/>
<feBlend mode="normal" in="SourceGraphic" in2="BackgroundImageFix" result="shape"/>
<feGaussianBlur stdDeviation="35" result="effect1_foregroundBlur_2020_8565"/>
</filter>
<filter id="filter2_f_2020_8565" x="159" y="-38" width="251" height="310" filterUnits="userSpaceOnUse" color-interpolation-filters="sRGB">
<feFlood flood-opacity="0" result="BackgroundImageFix"/>
<feBlend mode="normal" in="SourceGraphic" in2="BackgroundImageFix" result="shape"/>
<feGaussianBlur stdDeviation="35" result="effect1_foregroundBlur_2020_8565"/>
</filter>
<clipPath id="clip0_2020_8565">
<rect width="341" height="233" fill="white"/>
</clipPath>
</defs>
</svg>
