<svg width="193" height="337" viewBox="0 0 193 337" fill="none" xmlns="http://www.w3.org/2000/svg">
<path d="M93.1223 229.29C95.6323 229.19 98.1223 229.21 100.662 229.35" stroke="#FF2A50" stroke-miterlimit="10"/>
<path d="M110.392 230.5C116.995 231.631 123.358 233.873 129.212 237.13C147.362 247.61 147.472 264.54 129.452 274.94C111.432 285.34 82.1123 285.28 63.9623 274.8C45.8123 264.32 45.7023 247.4 63.7223 236.99C69.7847 233.628 76.3927 231.364 83.2423 230.3" stroke="#FF2A50" stroke-miterlimit="10"/>
<path d="M59.3623 313.37C62.9192 320.178 68.2753 325.881 74.8479 329.858C81.4205 333.834 88.9578 335.932 96.6396 335.923C104.321 335.913 111.854 333.797 118.417 329.805C124.98 325.813 130.322 320.097 133.862 313.28" fill="white"/>
<path d="M59.3623 313.37C62.9192 320.178 68.2753 325.881 74.8479 329.858C81.4205 333.834 88.9578 335.932 96.6396 335.923C104.321 335.913 111.854 333.797 118.417 329.805C124.98 325.813 130.322 320.097 133.862 313.28" stroke="#FF2A50" stroke-miterlimit="10"/>
<path d="M149.622 284.37C150.892 295.98 144.072 307.48 133.912 313.37C123.752 319.26 110.302 322.31 96.9123 322.37C83.3023 322.37 69.6623 319.37 59.2323 313.37C49.0823 307.51 42.2323 296.02 43.5223 284.37" fill="white"/>
<path d="M149.622 284.37C150.892 295.98 144.072 307.48 133.912 313.37C123.752 319.26 110.302 322.31 96.9123 322.37C83.3023 322.37 69.6623 319.37 59.2323 313.37C49.0823 307.51 42.2323 296.02 43.5223 284.37" stroke="#FF2A50" stroke-miterlimit="10"/>
<path d="M149.622 284.42C150.152 292.6 145.042 300.86 134.262 307.08C113.632 318.99 80.0623 318.92 59.2623 306.92C48.5323 300.73 43.2623 292.56 43.6123 284.48" fill="white"/>
<path d="M149.622 284.42C150.152 292.6 145.042 300.86 134.262 307.08C113.632 318.99 80.0623 318.92 59.2623 306.92C48.5323 300.73 43.2623 292.56 43.6123 284.48" stroke="#FF2A50" stroke-miterlimit="10"/>
<path d="M151.812 268.57C153.742 281.08 146.502 293.66 135.552 299.98C124.852 306.16 110.892 309.32 96.9124 309.43C82.7024 309.43 68.4524 306.27 57.5624 299.98C46.6724 293.69 39.3724 281.08 41.3124 268.57" fill="white"/>
<path d="M151.812 268.57C153.742 281.08 146.502 293.66 135.552 299.98C124.852 306.16 110.892 309.32 96.9124 309.43C82.7024 309.43 68.4524 306.27 57.5624 299.98C46.6724 293.69 39.3724 281.08 41.3124 268.57" stroke="#FF2A50" stroke-miterlimit="10"/>
<path d="M151.092 265.37C154.182 275.3 149.092 285.88 135.892 293.51C114.342 305.96 79.2723 305.88 57.5623 293.35C44.2723 285.68 39.0723 275.11 41.9823 265.22" fill="white"/>
<path d="M151.092 265.37C154.182 275.3 149.092 285.88 135.892 293.51C114.342 305.96 79.2723 305.88 57.5623 293.35C44.2723 285.68 39.0723 275.11 41.9823 265.22" stroke="#FF2A50" stroke-miterlimit="10"/>
<path d="M151.5 254.98C153.428 267.54 146.341 279.16 135.403 285.5C124.715 291.7 110.771 294.86 96.8062 294.98C82.612 294.98 68.3778 291.81 57.5 285.5C46.6221 279.19 39.5182 267.54 41.456 254.98" fill="white"/>
<path d="M151.5 254.98C153.428 267.54 146.341 279.16 135.403 285.5C124.715 291.7 110.771 294.86 96.8062 294.98C82.612 294.98 68.3778 291.81 57.5 285.5C46.6221 279.19 39.5182 267.54 41.456 254.98" stroke="#FF2A50" stroke-miterlimit="10" stroke-linejoin="round"/>
<path d="M151.5 256C151.5 264.582 145.463 272.447 135.495 278.194C125.54 283.934 111.754 287.5 96.5 287.5C81.2457 287.5 67.4601 283.934 57.5053 278.194C47.5372 272.447 41.5 264.582 41.5 256C41.5 247.418 47.5372 239.553 57.5053 233.806C67.4601 228.066 81.2457 224.5 96.5 224.5C111.754 224.5 125.54 228.066 135.495 233.806C145.463 239.553 151.5 247.418 151.5 256Z" fill="white" stroke="#FF2A50"/>
<path d="M142.953 255.693C143.047 240.824 122.187 228.639 96.3607 228.477C70.5345 228.315 49.5223 240.238 49.4286 255.107C49.3349 269.977 70.1952 282.162 96.0214 282.324C121.848 282.486 142.86 270.563 142.953 255.693Z" fill="white" stroke="#FF2A50" stroke-miterlimit="10"/>
<path d="M139.12 266.203C149.153 255.456 154.716 241.31 154.684 226.627C154.864 182.912 181.561 139.037 181.561 139.037C188.882 124.538 192.359 108.412 191.661 92.1941C190.963 75.9762 186.113 60.2063 177.574 46.386C169.034 32.5657 157.089 21.155 142.876 13.2404C128.662 5.32572 112.654 1.17059 96.3742 1.17059C80.0946 1.17059 64.086 5.32572 49.8726 13.2404C35.6592 21.155 23.7141 32.5657 15.1746 46.386C6.63513 60.2063 1.78559 75.9762 1.08769 92.1941C0.389796 108.412 3.86679 124.538 11.1876 139.037C11.1876 139.037 37.8744 182.922 38.0644 226.627C38.0358 241.311 43.6027 255.457 53.6384 266.203" stroke="#FF2A50" stroke-miterlimit="10"/>
<path d="M84.912 113.34L91.2847 118.65L88.0983 112.278L87.0362 108.029L85.9741 99.5321L87.0362 91.0351L89.1605 80.4138L91.2847 75.1032L95.5332 67.6683L100.844 63.4198H106.154L104.03 62.3577L99.7817 60.2334L96.5953 59.1713L93.409 60.2334L89.1605 64.4819L84.912 70.8547L82.7877 77.2275L80.6634 85.7245L79.6013 95.2836L80.6634 103.781L84.912 113.34Z" fill="white"/>
<path d="M101.906 76.1653L99.7818 69.7926L104.03 70.8547L106.155 74.0411L108.279 80.4138V89.973L106.987 98.089L104.03 105.905L100.006 114.668L94.7709 122.521L88.0984 130.334L84.912 122.899L87.0362 120.775L94.4711 110.153L97.6575 103.781L99.7818 97.4079L101.906 88.9109V76.1653Z" fill="white"/>
<path d="M48.7996 138.831L53.76 141.718L48.7996 134.582L47.7375 130.334V123.961L49.8618 118.65L54.1103 113.34L59.4209 110.153L65.7937 109.091L73.2285 110.153L72.1664 109.091L66.8485 106.815L60.7406 105.07L55.5515 105.905L51.986 106.967L45.6133 112.278L42.4269 116.905L41.3647 126.085L44.1617 133.864L48.7996 138.831Z" fill="white"/>
<path d="M74.2907 121.837L70.3389 115.54L73.8292 117.286L78.5392 121.837L81.7256 128.209L82.7877 132.458V134.582L81.6823 135.609L75.3528 138.831L66.8558 140.955L62.6073 139.893L58.1229 137.355V136.707H64.2309L71.1043 134.582L77.3195 130.374L75.3528 125.023L74.2907 121.837Z" fill="white"/>
<path d="M102.968 116.526L105.092 113.34L110.403 116.526L106.154 117.588L102.968 116.526Z" fill="white"/>
<path d="M117.458 107.687L115.712 115.54L123.148 111.216L129.674 105.942L135.782 98.089L141.017 89.3633L144.507 81.5101L146.515 72.979L145.453 68.7304L143.635 67.549L140.144 69.2942L139.272 73.657L136.956 81.476L132.291 91.1084L127.056 98.089L122.086 103.781L117.458 107.687Z" fill="white"/>
<path d="M105.092 113.34L111.465 116.526L115.714 99.5321L122.086 85.7245L131.645 71.9168L143.329 61.2956L147.577 60.2334L142.267 57.0471H139.08L134.832 59.1713L128.459 64.4819L121.024 74.0411L113.589 86.7866L110.403 101.656L105.092 113.34Z" fill="white"/>
<path d="M102.624 247.298L108.279 250.354L106.987 229.847L106.154 209.993L105.242 192.327L106.154 173.881L107.217 147.328L110.403 122.899L103.497 123.394L100.844 145.204L99.7817 173.881L99.1338 191.454L99.7817 209.993L100.879 229.847L102.624 247.298Z" fill="white"/>
<path d="M79.9373 259.514L86.0453 263.005L86.9178 251.661L88.663 216.759V199.307L88.0983 168.57L84.3001 139.1L79.6013 142.017L81.6824 162.659C82.555 177.493 82.555 190.581 82.555 190.581C82.555 190.581 82.9264 203.019 82.555 218.504C82.2143 232.706 81.1896 248.661 79.9373 259.514Z" fill="white"/>
<path d="M107.217 117.588L111.465 116.526L110.403 122.899H108.279H99.7817L102.968 116.526L107.217 117.588Z" fill="white"/>
<path fill-rule="evenodd" clip-rule="evenodd" d="M88.0984 130.334L95.5332 120.775L89.1605 114.402L85.9741 101.656L87.0362 86.7866L91.2847 74.0411L96.5954 66.6062L100.844 63.4198H105.092L109.341 67.6683L112.527 76.1653V85.7245V91.0351L110.403 99.5321L108.279 105.905L106.155 110.153L101.906 118.65L96.5954 126.085L91.2847 132.458L87.0362 136.707L79.6013 142.017L68.9801 146.266H62.6073L55.1724 143.079L49.8618 136.707L47.7375 129.272V122.899L50.9239 116.526L55.1724 112.278L59.4209 110.153L63.6694 109.091H71.1043L76.415 111.216L80.6635 115.464L83.8499 120.775L87.0362 127.147L88.0984 130.334ZM93.8982 111.216L99.4335 115.54L100.844 113.34L102.968 109.091L105.092 103.781L106.154 99.5321L108.279 92.0972V81.476L107.216 75.1032L104.03 70.8547L99.7815 69.7926L94.4709 76.1653L91.2845 86.7866L90.2224 96.3457L91.2845 104.843L93.8982 111.216ZM80.6635 125.023L82.7877 133.52L81.7256 135.644L77.4771 137.769L73.2286 139.893L67.9179 140.955L61.5452 139.893L56.2345 135.644L53.0482 130.334L51.986 125.023L54.6326 119.031L59.4209 115.464L65.7937 114.402L72.1664 116.526L76.4149 119.712L80.6635 125.023Z" fill="white"/>
<path d="M115.6 115.574C120.181 113.648 124.357 110.877 127.908 107.406C132.028 103.447 135.569 98.9304 138.428 93.9882C145.513 81.7579 148.396 70.1959 144.875 68.1275C141.354 66.0591 132.737 74.3752 125.642 86.6161C118.929 98.2099 116.461 109.952 114.589 121.451V121.642C112.13 137.413 110.674 153.324 110.227 169.279C109.422 195.585 110.221 221.915 112.621 248.124L108.462 250.51C108.121 246.67 107.806 242.813 107.515 238.938C105.516 213.998 105.054 188.96 106.132 163.965C106.722 150.15 108.107 136.38 110.281 122.723C110.465 121.599 110.656 120.475 110.855 119.35C110.993 118.523 111.153 117.696 111.312 116.879C113.366 106.134 116.355 95.7914 122.695 84.8128C131.993 68.7427 143.758 58.1354 148.96 61.1266C154.162 64.1179 150.822 79.5834 141.513 95.6535C138.347 101.228 134.483 106.379 130.014 110.981C125.693 115.494 120.461 119.041 114.663 121.387" fill="white"/>
<path d="M86.0449 263.005L90.4078 261.26L91.2804 246.426L93.0255 221.994L93.4089 200.434L93.0255 180.983L92.1529 158.296L88.6627 135.61L84.2998 139.1L88.0983 165.384C89.1604 203.621 88.0983 230.174 88.0983 230.174C88.0983 230.174 87.1071 255.924 86.0449 263.005Z" fill="white"/>
<path d="M117.344 107.576C118.892 106.424 120.37 105.18 121.77 103.853C125.89 99.8939 129.431 95.3769 132.29 90.4347C137.152 82.0337 140.035 73.9509 140.226 69.0503" stroke="#FF2A50" stroke-miterlimit="10"/>
<path d="M94.1005 110.663C96.5208 106.393 98.4751 101.877 99.93 97.1916C101.425 92.4875 102.231 87.5931 102.324 82.6595C102.324 77.3559 101.473 73.0493 100.079 70.1853" stroke="#FF2A50" stroke-miterlimit="10"/>
<path d="M85.3136 123.084C86.8819 121.311 88.359 119.459 89.739 117.537" stroke="#FF2A50" stroke-miterlimit="10"/>
<path d="M57.2614 136.587C59.7737 137.211 62.3982 137.232 64.9206 136.651C69.3535 135.588 73.4997 133.571 77.0691 130.743V130.743C75.5798 124.559 73.5267 118.937 69.7502 115.362" stroke="#FF2A50" stroke-miterlimit="10"/>
<path d="M95.8663 121.037C89.4836 117.462 86.1007 109.889 86.1007 99.0267C86.1007 83.8688 92.0686 68.1593 99.4194 63.9269C106.77 59.6946 112.738 68.5411 112.738 83.699C112.738 94.5504 109.302 106.07 102.972 116.953C101.852 118.862 100.668 120.722 99.4194 122.533C98.7385 123.519 98.0471 124.474 97.2918 125.45C94.6747 128.94 91.7635 132.201 88.59 135.198C87.1538 136.545 85.6858 137.797 84.2072 138.942C79.0584 142.952 73.7608 145.455 68.8567 146.198C64.8929 146.826 60.8329 146.077 57.3571 144.076C48.049 138.709 44.7193 127.104 49.9106 118.109C55.1019 109.114 66.9312 106.24 76.2394 111.649C82.6221 115.288 85.5795 122.257 87.6219 130.605" stroke="#FF2A50" stroke-miterlimit="10"/>
<path d="M110.217 122.777C107.364 123.426 104.413 123.516 101.526 123.042C100.808 122.914 100.098 122.747 99.3981 122.543" stroke="#FF2A50" stroke-miterlimit="10"/>
<path d="M115.6 115.574C120.181 113.648 124.357 110.877 127.908 107.406C132.028 103.447 135.569 98.9304 138.428 93.9882C145.513 81.7579 148.396 70.1959 144.875 68.1275C141.354 66.0591 132.737 74.3752 125.642 86.6161C118.929 98.2099 116.461 109.952 114.589 121.451V121.642C112.13 137.413 110.674 153.324 110.227 169.279C109.422 195.585 110.221 221.915 112.621 248.124L108.462 250.51C108.121 246.67 107.806 242.813 107.515 238.938C105.516 213.998 105.054 188.96 106.132 163.965C106.722 150.15 108.107 136.38 110.281 122.723C110.465 121.599 110.656 120.475 110.855 119.35C110.993 118.523 111.153 117.696 111.312 116.879C113.366 106.134 116.355 95.7914 122.695 84.8128C131.993 68.7427 143.758 58.1354 148.96 61.1266C154.162 64.1179 150.822 79.5834 141.513 95.6535C138.347 101.228 134.483 106.379 130.014 110.981C125.693 115.494 120.461 119.041 114.663 121.387" stroke="#FF2A50" stroke-miterlimit="10" stroke-linejoin="round"/>
<path d="M102.972 116.953C105.696 117.574 108.525 117.574 111.249 116.953" stroke="#FF2A50" stroke-miterlimit="10"/>
<path d="M83.2073 134.232C81.3989 126.701 78.75 120.019 73.1864 116.826C66.1016 112.742 57.5062 114.376 53.9531 120.475C50.4001 126.574 53.3148 134.805 60.3997 138.91C63.6685 140.623 67.4552 141.076 71.0376 140.183C75.5786 139.078 79.8182 136.984 83.452 134.052C84.8868 132.968 86.2612 131.807 87.5688 130.573C90.632 127.666 93.4038 124.469 95.8451 121.026C97.1004 119.266 98.2918 117.441 99.3982 115.564C102.192 110.891 104.424 105.907 106.047 100.713C107.538 96.0088 108.341 91.1143 108.43 86.1812C108.43 74.6404 104.387 67.6183 99.3982 70.4929C94.409 73.3675 90.3666 85.0356 90.3666 96.5764C90.3035 100.622 91.1239 104.632 92.7708 108.329C94.1331 111.389 96.4602 113.922 99.3982 115.542" stroke="#FF2A50" stroke-miterlimit="10"/>
<path d="M88.6218 135.208C90.8877 147.248 92.2672 159.436 92.7493 171.676C93.9833 196.201 93.1748 222.04 91.3664 248.23C91.0756 252.473 90.76 256.716 90.4196 260.959L86.2389 263.335C88.4303 235.437 89.5792 207.932 88.6218 181.732C88.0793 166.935 86.9303 152.403 84.2709 139.112V138.963" stroke="#FF2A50" stroke-miterlimit="10" stroke-linejoin="round"/>
<path d="M86.239 263.335L80.1009 259.802C82.2923 231.905 83.4412 204.4 82.4945 178.2C82.154 166.178 81.0883 154.188 79.3031 142.294" stroke="#FF2A50" stroke-miterlimit="10"/>
<path d="M108.43 250.489L102.302 246.957C101.947 243.117 101.628 239.259 101.345 235.384C99.3512 210.455 98.8929 185.428 99.9724 160.443C100.486 148.015 101.654 135.623 103.472 123.318" stroke="#FF2A50" stroke-miterlimit="10"/>
<path d="M77.0692 130.7L83.2073 134.233" stroke="#FF2A50" stroke-miterlimit="10"/>
<path d="M105.111 113.4L111.249 116.932" stroke="#FF2A50" stroke-miterlimit="10"/>
<path d="M106.185 63.8209L100.047 60.2887C99.0332 59.6482 97.8537 59.317 96.6537 59.3358C95.4536 59.3547 94.2852 59.7227 93.292 60.3947C85.9306 64.6377 79.9734 80.3366 79.9734 95.4945C79.9734 106.356 83.3775 113.93 89.739 117.505L95.8664 121.037" stroke="#FF2A50" stroke-miterlimit="10"/>
<path d="M148.875 61.1266L142.737 57.5519C137.535 54.5607 125.78 65.168 116.472 81.2382C114.993 83.7924 113.644 86.4192 112.429 89.1088" stroke="#FF2A50" stroke-miterlimit="10"/>
<path d="M56.2614 143.471L50.1233 139.939C41.6875 134.307 38.8259 123.275 43.8363 114.673C49.0489 105.699 60.7931 102.76 70.1013 108.117L76.2393 111.649" stroke="#FF2A50" stroke-miterlimit="10"/>
</svg>
