<svg width="82" height="86" viewBox="0 0 41 43" fill="none" xmlns="http://www.w3.org/2000/svg">
<g clip-path="url(#clip0_1841_281)">
<path d="M20.5002 11.7766L0.0112538 23.4349L0.0112553 30.2927L20.5002 18.6344L20.5002 11.7766Z" fill="#FF2A50"/>
<path d="M20.5001 0.478849L0.0111317 12.1371L0.0111332 18.9949L20.5 7.33664L20.5001 0.478849Z" fill="#FF2A50"/>
<g opacity="0.5">
<path d="M0.0109295 23.4314L20.4999 35.0896L20.4999 41.9474L0.0109367 30.2892L0.0109295 23.4314Z" fill="#FF2A50"/>
</g>
<g opacity="0.5">
<path d="M0.0109295 12.1336L20.4999 23.7918L20.4999 30.6496L0.0109367 18.9914L0.0109295 12.1336Z" fill="#FF2A50"/>
</g>
<path d="M20.4998 41.9478L40.9887 30.2895L40.9887 23.4317L20.4998 35.09L20.4998 41.9478Z" fill="#FF2A50"/>
<path d="M20.4998 30.6499L40.9887 18.9917L40.9887 12.1339L20.4998 23.7921L20.4998 30.6499Z" fill="#FF2A50"/>
<g opacity="0.5">
<path d="M40.9889 30.293L20.5 18.6348L20.5 11.777L40.9889 23.4352L40.9889 30.293Z" fill="#FF2A50"/>
</g>
<g opacity="0.5">
<path d="M40.9889 18.9952L20.5 7.33698L20.5 0.479189L40.9889 12.1374L40.9889 18.9952Z" fill="#FF2A50"/>
</g>
</g>
<defs>
<clipPath id="clip0_1841_281">
<rect width="82" height="86" />
</clipPath>
</defs>
</svg>
