<svg width="341" height="233" viewBox="0 0 341 233" fill="none" xmlns="http://www.w3.org/2000/svg">
<g clip-path="url(#clip0_2020_8565)">
<path d="M311.362 182.675C311.416 174.048 299.313 166.978 284.329 166.884C269.344 166.79 257.153 173.708 257.098 182.335C257.044 190.963 269.147 198.033 284.132 198.127C299.116 198.221 311.308 191.303 311.362 182.675Z" fill="#FF2A50" stroke="#FF2A50" stroke-width="0.4" stroke-miterlimit="10"/>
<path d="M309.138 188.773C314.959 182.538 318.187 174.33 318.168 165.811C318.273 140.447 333.762 114.991 333.762 114.991C338.01 106.578 340.027 97.222 339.622 87.8123C339.217 78.4026 336.404 69.2528 331.449 61.2342C326.494 53.2156 319.564 46.5951 311.317 42.0029C303.07 37.4108 293.782 35 284.337 35C274.891 35 265.603 37.4108 257.356 42.0029C249.109 46.5951 242.179 53.2156 237.224 61.2342C232.27 69.2528 229.456 78.4026 229.051 87.8123C228.646 97.222 230.663 106.578 234.911 114.991C234.911 114.991 250.395 140.453 250.505 165.811C250.488 174.331 253.718 182.538 259.541 188.773" stroke="#FF2A50" stroke-width="0.4" stroke-miterlimit="10"/>
<path d="M278.266 100.661L281.964 103.743L280.115 100.045L279.499 97.58L278.882 92.65L279.499 87.72L280.731 81.5575L281.964 78.4763L284.429 74.1625L287.51 71.6975H290.591L289.359 71.0813L286.894 69.8488L285.045 69.2325L283.196 69.8488L280.731 72.3138L278.266 76.0113L277.034 79.7088L275.801 84.6388L275.185 90.185L275.801 95.115L278.266 100.661Z" fill="white"/>
<path d="M288.126 79.0925L286.894 75.395L289.359 76.0113L290.591 77.86L291.824 81.5575V87.1038L291.074 91.8127L289.359 96.3475L287.024 101.432L283.986 105.988L280.115 110.521L278.266 106.208L279.499 104.975L283.812 98.8125L285.661 95.115L286.894 91.4175L288.126 86.4875V79.0925Z" fill="white"/>
<path d="M257.314 115.451L260.192 117.126L257.314 112.986L256.698 110.521V106.824L257.93 103.743L260.395 100.661L263.476 98.8125L267.174 98.1963L271.488 98.8125L270.871 98.1963L267.786 96.8754L264.242 95.8629L261.231 96.3475L259.163 96.9638L255.465 100.045L253.616 102.73L253 108.056L254.623 112.57L257.314 115.451Z" fill="white"/>
<path d="M272.104 105.591L269.811 101.938L271.836 102.951L274.569 105.591L276.418 109.289L277.034 111.754V112.986L276.392 113.582L272.72 115.451L267.79 116.684L265.325 116.068L262.723 114.595V114.219H266.267L270.255 112.986L273.861 110.545L272.72 107.44L272.104 105.591Z" fill="white"/>
<path d="M288.742 102.51L289.975 100.661L293.056 102.51L290.591 103.126L288.742 102.51Z" fill="white"/>
<path d="M297.149 97.3817L296.137 101.938L300.451 99.4288L304.237 96.3691L307.781 91.8127L310.819 86.75L312.844 82.1936L314.009 77.2438L313.393 74.7788L312.338 74.0933L310.312 75.1058L309.806 77.6372L308.463 82.1738L305.756 87.7626L302.718 91.8127L299.835 95.115L297.149 97.3817Z" fill="white"/>
<path d="M289.975 100.661L293.672 102.51L296.137 92.65L299.835 84.6388L305.381 76.6275L312.16 70.465L314.625 69.8488L311.544 68H309.695L307.23 69.2325L303.532 72.3138L299.219 77.86L294.905 85.255L293.056 93.8825L289.975 100.661Z" fill="white"/>
<path d="M288.543 178.385L291.824 180.158L291.074 168.259L290.591 156.74L290.062 146.49L290.591 135.788L291.207 120.381L293.056 106.208L289.049 106.495L287.51 119.149L286.894 135.788L286.518 145.984L286.894 156.74L287.53 168.259L288.543 178.385Z" fill="white"/>
<path d="M275.38 185.473L278.924 187.498L279.43 180.916L280.443 160.665V150.54L280.115 132.706L277.911 115.607L275.185 117.3L276.392 129.277C276.899 137.883 276.899 145.477 276.899 145.477C276.899 145.477 277.114 152.693 276.899 161.678C276.701 169.918 276.106 179.175 275.38 185.473Z" fill="white"/>
<path d="M291.208 103.126L293.673 102.51L293.056 106.208H291.824H286.894L288.743 102.51L291.208 103.126Z" fill="white"/>
<path fill-rule="evenodd" clip-rule="evenodd" d="M280.115 110.521L284.429 104.975L280.731 101.278L278.883 93.8825L279.499 85.255L281.964 77.86L285.045 73.5463L287.51 71.6975H289.975L292.44 74.1625L294.289 79.0925V84.6388V87.72L293.056 92.65L291.824 96.3475L290.591 98.8125L288.126 103.743L285.045 108.056L281.964 111.754L279.499 114.219L275.185 117.3L269.023 119.765H265.325L261.011 117.916L257.93 114.219L256.698 109.905V106.208L258.546 102.51L261.011 100.045L263.476 98.8125L265.941 98.1963H270.255L273.336 99.4288L275.801 101.894L277.65 104.975L279.499 108.673L280.115 110.521ZM283.48 99.4288L286.692 101.938L287.51 100.661L288.743 98.1963L289.975 95.115L290.591 92.65L291.824 88.3363V82.1738L291.208 78.4763L289.359 76.0113L286.894 75.395L283.812 79.0925L281.964 85.255L281.347 90.8013L281.964 95.7313L283.48 99.4288ZM275.801 107.44L277.034 112.37L276.418 113.603L273.953 114.835L271.488 116.068L268.406 116.684L264.709 116.068L261.628 113.603L259.779 110.521L259.163 107.44L260.698 103.963L263.476 101.894L267.174 101.278L270.871 102.51L273.336 104.359L275.801 107.44Z" fill="white"/>
<path d="M296.071 101.958C298.73 100.84 301.152 99.2323 303.213 97.2188C305.603 94.9217 307.658 92.3009 309.317 89.4334C313.427 82.3374 315.1 75.629 313.057 74.4289C311.014 73.2288 306.015 78.0539 301.898 85.1561C298.003 91.8829 296.571 98.6959 295.485 105.367V105.478C294.059 114.629 293.213 123.86 292.954 133.118C292.487 148.38 292.951 163.657 294.343 178.864L291.93 180.248C291.732 178.02 291.549 175.782 291.381 173.534C290.221 159.064 289.953 144.537 290.578 130.034C290.921 122.019 291.724 114.029 292.985 106.106C293.092 105.453 293.203 104.801 293.319 104.149C293.399 103.669 293.491 103.189 293.584 102.715C294.775 96.4802 296.51 90.4797 300.188 84.1098C305.583 74.7859 312.409 68.6314 315.427 70.367C318.445 72.1025 316.507 81.0757 311.107 90.3997C309.27 93.6341 307.028 96.6224 304.435 99.2928C301.928 101.911 298.892 103.969 295.528 105.33" fill="white"/>
<path d="M278.924 187.498L281.455 186.485L281.961 177.879L282.974 163.703L283.196 151.194L282.974 139.908L282.468 126.745L280.443 113.582L277.911 115.607L280.115 130.858C280.731 153.043 280.115 168.449 280.115 168.449C280.115 168.449 279.54 183.389 278.924 187.498Z" fill="white"/>
<path d="M297.084 97.3172C297.982 96.6485 298.839 95.9272 299.651 95.157C302.042 92.8599 304.097 90.2392 305.755 87.3717C308.576 82.4974 310.249 77.8077 310.36 74.9643" stroke="#FF2A50" stroke-width="0.4" stroke-miterlimit="10"/>
<path d="M283.597 99.1082C285.002 96.6308 286.136 94.0104 286.98 91.292C287.847 88.5627 288.315 85.723 288.369 82.8605C288.369 79.7833 287.875 77.2846 287.066 75.6229" stroke="#FF2A50" stroke-width="0.4" stroke-miterlimit="10"/>
<path d="M278.499 106.315C279.409 105.286 280.266 104.212 281.067 103.096" stroke="#FF2A50" stroke-width="0.4" stroke-miterlimit="10"/>
<path d="M262.223 114.15C263.681 114.511 265.204 114.524 266.667 114.187C269.239 113.57 271.645 112.4 273.716 110.759V110.759C272.852 107.171 271.66 103.909 269.469 101.835" stroke="#FF2A50" stroke-width="0.4" stroke-miterlimit="10"/>
<path d="M284.622 105.127C280.919 103.053 278.956 98.6589 278.956 92.3568C278.956 83.5621 282.419 74.4474 286.683 71.9917C290.948 69.5361 294.411 74.6689 294.411 83.4636C294.411 89.7596 292.417 96.4433 288.745 102.758C288.095 103.866 287.408 104.945 286.683 105.995C286.288 106.567 285.887 107.121 285.449 107.687C283.931 109.713 282.242 111.605 280.4 113.343C279.567 114.125 278.715 114.851 277.857 115.516C274.87 117.842 271.796 119.295 268.951 119.726C266.651 120.09 264.295 119.656 262.279 118.495C256.878 115.381 254.946 108.648 257.958 103.429C260.97 98.2096 267.834 96.5418 273.234 99.6805C276.938 101.792 278.654 105.835 279.839 110.679" stroke="#FF2A50" stroke-width="0.4" stroke-miterlimit="10"/>
<path d="M292.948 106.137C291.293 106.513 289.581 106.566 287.906 106.29C287.489 106.216 287.077 106.12 286.671 106.001" stroke="#FF2A50" stroke-width="0.4" stroke-miterlimit="10"/>
<path d="M296.071 101.958C298.73 100.84 301.152 99.2323 303.213 97.2188C305.603 94.9217 307.658 92.3009 309.317 89.4334C313.427 82.3374 315.1 75.629 313.057 74.4289C311.014 73.2288 306.015 78.0539 301.898 85.1561C298.003 91.8829 296.571 98.6959 295.485 105.367V105.478C294.059 114.629 293.213 123.86 292.954 133.118C292.487 148.38 292.951 163.657 294.343 178.864L291.93 180.248C291.732 178.02 291.549 175.782 291.381 173.534C290.221 159.064 289.953 144.537 290.578 130.034C290.921 122.019 291.724 114.029 292.985 106.106C293.092 105.453 293.203 104.801 293.319 104.149C293.399 103.669 293.491 103.189 293.584 102.715C294.775 96.4802 296.51 90.4797 300.188 84.1098C305.583 74.7859 312.409 68.6314 315.427 70.367C318.445 72.1025 316.507 81.0757 311.107 90.3997C309.27 93.6341 307.028 96.6224 304.435 99.2928C301.928 101.911 298.892 103.969 295.528 105.33" stroke="#FF2A50" stroke-width="0.4" stroke-miterlimit="10" stroke-linejoin="round"/>
<path d="M288.745 102.758C290.325 103.118 291.967 103.118 293.547 102.758" stroke="#FF2A50" stroke-width="0.4" stroke-miterlimit="10"/>
<path d="M277.277 112.783C276.228 108.414 274.691 104.536 271.463 102.684C267.352 100.314 262.365 101.262 260.304 104.801C258.242 108.34 259.933 113.116 264.044 115.497C265.941 116.491 268.138 116.754 270.216 116.236C272.851 115.595 275.311 114.38 277.419 112.679C278.252 112.05 279.049 111.376 279.808 110.66C281.585 108.974 283.193 107.119 284.61 105.121C285.338 104.099 286.029 103.041 286.671 101.952C288.292 99.2408 289.587 96.3487 290.529 93.3353C291.394 90.6058 291.86 87.766 291.911 84.9038C291.911 78.2077 289.566 74.1335 286.671 75.8014C283.776 77.4692 281.431 84.2391 281.431 90.9351C281.394 93.2821 281.87 95.609 282.826 97.7542C283.616 99.5296 284.967 100.999 286.671 101.939" stroke="#FF2A50" stroke-width="0.4" stroke-miterlimit="10"/>
<path d="M280.419 113.35C281.733 120.335 282.534 127.407 282.814 134.509C283.53 148.738 283.06 163.73 282.011 178.925C281.842 181.387 281.659 183.849 281.462 186.31L279.036 187.689C280.308 171.503 280.974 155.544 280.419 140.343C280.104 131.757 279.437 123.326 277.894 115.614V115.528" stroke="#FF2A50" stroke-width="0.4" stroke-miterlimit="10" stroke-linejoin="round"/>
<path d="M279.036 187.689L275.475 185.64C276.746 169.453 277.413 153.495 276.864 138.294C276.666 131.319 276.048 124.362 275.012 117.461" stroke="#FF2A50" stroke-width="0.4" stroke-miterlimit="10"/>
<path d="M291.911 180.236L288.356 178.187C288.15 175.959 287.965 173.72 287.801 171.472C286.644 157.008 286.378 142.487 287.004 127.991C287.303 120.78 287.98 113.59 289.035 106.45" stroke="#FF2A50" stroke-width="0.4" stroke-miterlimit="10"/>
<path d="M273.716 110.734L277.277 112.783" stroke="#FF2A50" stroke-width="0.4" stroke-miterlimit="10"/>
<path d="M289.986 100.696L293.547 102.745" stroke="#FF2A50" stroke-width="0.4" stroke-miterlimit="10"/>
<path d="M290.609 71.9302L287.048 69.8808C286.459 69.5092 285.775 69.317 285.079 69.3279C284.383 69.3389 283.705 69.5524 283.128 69.9423C278.857 72.4041 275.401 81.5127 275.401 90.3074C275.401 96.6095 277.376 101.004 281.067 103.078L284.622 105.127" stroke="#FF2A50" stroke-width="0.4" stroke-miterlimit="10"/>
<path d="M315.378 70.367L311.816 68.2929C308.798 66.5574 301.978 72.7118 296.577 82.0358C295.719 83.5178 294.936 85.0419 294.232 86.6024" stroke="#FF2A50" stroke-width="0.4" stroke-miterlimit="10"/>
<path d="M261.643 118.144L258.082 116.094C253.187 112.826 251.527 106.426 254.434 101.435C257.458 96.2279 264.272 94.5232 269.673 97.6312L273.234 99.6806" stroke="#FF2A50" stroke-width="0.4" stroke-miterlimit="10"/>
<g style="mix-blend-mode:multiply" opacity="0.15" filter="url(#filter0_f_2020_8565)">
<path d="M309.375 190.991C315.948 183.687 318.45 176.057 318.432 167.249C318.536 141.025 334.072 114.705 334.072 114.705C338.332 106.007 340.355 96.3332 339.949 86.6042C339.543 76.8752 336.721 67.415 331.752 59.1243C326.782 50.8337 319.831 43.9885 311.56 39.2406C303.289 34.4926 293.973 32 284.5 32C275.027 32 265.711 34.4926 257.44 39.2406C249.169 43.9885 242.218 50.8337 237.248 59.1243C232.279 67.415 229.457 76.8752 229.051 86.6042C228.645 96.3332 230.668 106.007 234.928 114.705C234.928 114.705 250.458 141.031 250.568 167.249C250.552 176.058 253.056 183.688 259.631 190.991" fill="#FF2A50"/>
</g>
<path d="M197.662 182.675C197.716 174.048 185.613 166.978 170.629 166.884C155.644 166.79 143.453 173.708 143.398 182.335C143.344 190.963 155.447 198.033 170.432 198.127C185.416 198.221 197.608 191.303 197.662 182.675Z" fill="#FFE100" stroke="#FFE100" stroke-width="0.4" stroke-miterlimit="10"/>
<path d="M195.438 188.773C201.259 182.538 204.487 174.33 204.468 165.811C204.573 140.447 220.062 114.991 220.062 114.991C224.31 106.578 226.327 97.222 225.922 87.8123C225.517 78.4026 222.704 69.2528 217.749 61.2342C212.794 53.2156 205.864 46.5951 197.617 42.0029C189.37 37.4108 180.082 35 170.637 35C161.191 35 151.903 37.4108 143.656 42.0029C135.409 46.5951 128.479 53.2156 123.524 61.2342C118.57 69.2528 115.756 78.4026 115.351 87.8123C114.946 97.222 116.963 106.578 121.211 114.991C121.211 114.991 136.695 140.453 136.805 165.811C136.788 174.331 140.018 182.538 145.841 188.773" stroke="#FFE100" stroke-width="0.4" stroke-miterlimit="10"/>
<path d="M164.566 100.661L168.264 103.743L166.415 100.045L165.799 97.58L165.182 92.65L165.799 87.72L167.031 81.5575L168.264 78.4763L170.729 74.1625L173.81 71.6975H176.891L175.659 71.0813L173.194 69.8488L171.345 69.2325L169.496 69.8488L167.031 72.3138L164.566 76.0113L163.334 79.7088L162.101 84.6388L161.485 90.185L162.101 95.115L164.566 100.661Z" fill="white"/>
<path d="M174.426 79.0925L173.194 75.395L175.659 76.0113L176.891 77.86L178.124 81.5575V87.1038L177.374 91.8127L175.659 96.3475L173.324 101.432L170.286 105.988L166.415 110.521L164.566 106.208L165.799 104.975L170.112 98.8125L171.961 95.115L173.194 91.4175L174.426 86.4875V79.0925Z" fill="white"/>
<path d="M143.614 115.451L146.492 117.126L143.614 112.986L142.997 110.521V106.824L144.23 103.743L146.695 100.661L149.776 98.8125L153.474 98.1963L157.788 98.8125L157.171 98.1963L154.086 96.8754L150.542 95.8629L147.531 96.3475L145.462 96.9638L141.765 100.045L139.916 102.73L139.3 108.056L140.923 112.57L143.614 115.451Z" fill="white"/>
<path d="M158.404 105.591L156.111 101.938L158.136 102.951L160.869 105.591L162.717 109.289L163.334 111.754V112.986L162.692 113.582L159.02 115.451L154.09 116.684L151.625 116.068L149.023 114.595V114.219H152.567L156.555 112.986L160.161 110.545L159.02 107.44L158.404 105.591Z" fill="white"/>
<path d="M175.042 102.51L176.275 100.661L179.356 102.51L176.891 103.126L175.042 102.51Z" fill="white"/>
<path d="M183.449 97.3817L182.437 101.938L186.751 99.4288L190.537 96.3691L194.081 91.8127L197.119 86.75L199.144 82.1936L200.309 77.2438L199.693 74.7788L198.638 74.0933L196.612 75.1058L196.106 77.6372L194.763 82.1738L192.056 87.7626L189.018 91.8127L186.135 95.115L183.449 97.3817Z" fill="white"/>
<path d="M176.275 100.661L179.972 102.51L182.437 92.65L186.135 84.6388L191.681 76.6275L198.46 70.465L200.925 69.8488L197.844 68H195.995L193.53 69.2325L189.832 72.3138L185.519 77.86L181.205 85.255L179.356 93.8825L176.275 100.661Z" fill="white"/>
<path d="M174.843 178.385L178.124 180.158L177.374 168.259L176.891 156.74L176.362 146.49L176.891 135.788L177.507 120.381L179.356 106.208L175.349 106.495L173.81 119.149L173.194 135.788L172.818 145.984L173.194 156.74L173.83 168.259L174.843 178.385Z" fill="white"/>
<path d="M161.68 185.473L165.224 187.498L165.73 180.916L166.743 160.665V150.54L166.415 132.706L164.211 115.607L161.485 117.3L162.692 129.277C163.199 137.883 163.199 145.477 163.199 145.477C163.199 145.477 163.414 152.693 163.199 161.678C163.001 169.918 162.406 179.175 161.68 185.473Z" fill="white"/>
<path d="M177.508 103.126L179.973 102.51L179.356 106.208H178.124H173.194L175.043 102.51L177.508 103.126Z" fill="white"/>
<path fill-rule="evenodd" clip-rule="evenodd" d="M166.415 110.521L170.729 104.975L167.031 101.278L165.183 93.8825L165.799 85.255L168.264 77.86L171.345 73.5463L173.81 71.6975H176.275L178.74 74.1625L180.589 79.0925V84.6388V87.72L179.356 92.65L178.124 96.3475L176.891 98.8125L174.426 103.743L171.345 108.056L168.264 111.754L165.799 114.219L161.485 117.3L155.323 119.765H151.625L147.311 117.916L144.23 114.219L142.997 109.905V106.208L144.846 102.51L147.311 100.045L149.776 98.8125L152.241 98.1963H156.555L159.636 99.4288L162.101 101.894L163.95 104.975L165.799 108.673L166.415 110.521ZM169.78 99.4288L172.992 101.938L173.81 100.661L175.042 98.1963L176.275 95.115L176.891 92.65L178.124 88.3363V82.1738L177.507 78.4763L175.659 76.0113L173.194 75.395L170.112 79.0925L168.264 85.255L167.647 90.8013L168.264 95.7313L169.78 99.4288ZM162.101 107.44L163.334 112.37L162.718 113.603L160.253 114.835L157.788 116.068L154.706 116.684L151.009 116.068L147.928 113.603L146.079 110.521L145.463 107.44L146.998 103.963L149.776 101.894L153.474 101.278L157.171 102.51L159.636 104.359L162.101 107.44Z" fill="white"/>
<path d="M182.371 101.958C185.03 100.84 187.452 99.2323 189.513 97.2188C191.903 94.9217 193.958 92.3009 195.617 89.4334C199.727 82.3374 201.4 75.629 199.357 74.4289C197.314 73.2288 192.315 78.0539 188.198 85.1561C184.303 91.8829 182.871 98.6959 181.785 105.367V105.478C180.358 114.629 179.513 123.86 179.254 133.118C178.787 148.38 179.251 163.657 180.643 178.864L178.23 180.248C178.032 178.02 177.849 175.782 177.681 173.534C176.521 159.064 176.253 144.537 176.878 130.034C177.221 122.019 178.024 114.029 179.285 106.106C179.392 105.453 179.503 104.801 179.619 104.149C179.699 103.669 179.791 103.189 179.884 102.715C181.075 96.4802 182.81 90.4797 186.488 84.1098C191.883 74.7859 198.709 68.6314 201.727 70.367C204.745 72.1025 202.807 81.0757 197.407 90.3997C195.57 93.6341 193.328 96.6224 190.735 99.2928C188.228 101.911 185.192 103.969 181.828 105.33" fill="white"/>
<path d="M165.224 187.498L167.755 186.485L168.261 177.879L169.274 163.703L169.496 151.194L169.274 139.908L168.768 126.745L166.743 113.582L164.211 115.607L166.415 130.858C167.031 153.043 166.415 168.449 166.415 168.449C166.415 168.449 165.84 183.389 165.224 187.498Z" fill="white"/>
<path d="M183.384 97.3172C184.282 96.6485 185.139 95.9272 185.951 95.157C188.342 92.8599 190.397 90.2392 192.055 87.3717C194.876 82.4974 196.549 77.8077 196.66 74.9643" stroke="#FFE100" stroke-width="0.4" stroke-miterlimit="10"/>
<path d="M169.897 99.1082C171.302 96.6308 172.436 94.0104 173.28 91.292C174.147 88.5627 174.615 85.723 174.669 82.8605C174.669 79.7833 174.175 77.2846 173.366 75.6229" stroke="#FFE100" stroke-width="0.4" stroke-miterlimit="10"/>
<path d="M164.799 106.315C165.709 105.286 166.566 104.212 167.367 103.096" stroke="#FFE100" stroke-width="0.4" stroke-miterlimit="10"/>
<path d="M148.523 114.15C149.981 114.511 151.504 114.524 152.967 114.187C155.539 113.57 157.945 112.4 160.016 110.759V110.759C159.152 107.171 157.96 103.909 155.769 101.835" stroke="#FFE100" stroke-width="0.4" stroke-miterlimit="10"/>
<path d="M170.922 105.127C167.219 103.053 165.256 98.6589 165.256 92.3568C165.256 83.5621 168.719 74.4474 172.983 71.9917C177.248 69.5361 180.711 74.6689 180.711 83.4636C180.711 89.7596 178.717 96.4433 175.045 102.758C174.395 103.866 173.708 104.945 172.983 105.995C172.588 106.567 172.187 107.121 171.749 107.687C170.231 109.713 168.542 111.605 166.7 113.343C165.867 114.125 165.015 114.851 164.157 115.516C161.17 117.842 158.096 119.295 155.251 119.726C152.951 120.09 150.595 119.656 148.579 118.495C143.178 115.381 141.246 108.648 144.258 103.429C147.27 98.2096 154.134 96.5418 159.534 99.6805C163.238 101.792 164.953 105.835 166.139 110.679" stroke="#FFE100" stroke-width="0.4" stroke-miterlimit="10"/>
<path d="M179.248 106.137C177.593 106.513 175.881 106.566 174.206 106.29C173.789 106.216 173.377 106.12 172.971 106.001" stroke="#FFE100" stroke-width="0.4" stroke-miterlimit="10"/>
<path d="M182.371 101.958C185.03 100.84 187.452 99.2323 189.513 97.2188C191.903 94.9217 193.958 92.3009 195.617 89.4334C199.727 82.3374 201.4 75.629 199.357 74.4289C197.314 73.2288 192.315 78.0539 188.198 85.1561C184.303 91.8829 182.871 98.6959 181.785 105.367V105.478C180.358 114.629 179.513 123.86 179.254 133.118C178.787 148.38 179.251 163.657 180.643 178.864L178.23 180.248C178.032 178.02 177.849 175.782 177.681 173.534C176.521 159.064 176.253 144.537 176.878 130.034C177.221 122.019 178.024 114.029 179.285 106.106C179.392 105.453 179.503 104.801 179.619 104.149C179.699 103.669 179.791 103.189 179.884 102.715C181.075 96.4802 182.81 90.4797 186.488 84.1098C191.883 74.7859 198.709 68.6314 201.727 70.367C204.745 72.1025 202.807 81.0757 197.407 90.3997C195.57 93.6341 193.328 96.6224 190.735 99.2928C188.228 101.911 185.192 103.969 181.828 105.33" stroke="#FFE100" stroke-width="0.4" stroke-miterlimit="10" stroke-linejoin="round"/>
<path d="M175.045 102.758C176.625 103.118 178.267 103.118 179.847 102.758" stroke="#FFE100" stroke-width="0.4" stroke-miterlimit="10"/>
<path d="M163.577 112.783C162.528 108.414 160.991 104.536 157.763 102.684C153.652 100.314 148.665 101.262 146.604 104.801C144.542 108.34 146.233 113.116 150.344 115.497C152.241 116.491 154.438 116.754 156.516 116.236C159.151 115.595 161.611 114.38 163.719 112.679C164.552 112.05 165.349 111.376 166.108 110.66C167.885 108.974 169.493 107.119 170.91 105.121C171.638 104.099 172.329 103.041 172.971 101.952C174.592 99.2408 175.887 96.3487 176.829 93.3353C177.694 90.6058 178.16 87.766 178.211 84.9038C178.211 78.2077 175.866 74.1335 172.971 75.8014C170.076 77.4692 167.731 84.2391 167.731 90.9351C167.694 93.2821 168.17 95.609 169.126 97.7542C169.916 99.5296 171.267 100.999 172.971 101.939" stroke="#FFE100" stroke-width="0.4" stroke-miterlimit="10"/>
<path d="M166.719 113.35C168.033 120.335 168.834 127.407 169.114 134.509C169.83 148.738 169.36 163.73 168.311 178.925C168.142 181.387 167.959 183.849 167.762 186.31L165.336 187.689C166.608 171.503 167.274 155.544 166.719 140.343C166.404 131.757 165.737 123.326 164.194 115.614V115.528" stroke="#FFE100" stroke-width="0.4" stroke-miterlimit="10" stroke-linejoin="round"/>
<path d="M165.336 187.689L161.775 185.64C163.046 169.453 163.713 153.495 163.164 138.294C162.966 131.319 162.348 124.362 161.312 117.461" stroke="#FFE100" stroke-width="0.4" stroke-miterlimit="10"/>
<path d="M178.211 180.236L174.656 178.187C174.45 175.959 174.265 173.72 174.101 171.472C172.944 157.008 172.678 142.487 173.304 127.991C173.603 120.78 174.28 113.59 175.335 106.45" stroke="#FFE100" stroke-width="0.4" stroke-miterlimit="10"/>
<path d="M160.016 110.734L163.577 112.783" stroke="#FFE100" stroke-width="0.4" stroke-miterlimit="10"/>
<path d="M176.286 100.696L179.847 102.745" stroke="#FFE100" stroke-width="0.4" stroke-miterlimit="10"/>
<path d="M176.909 71.9302L173.348 69.8808C172.759 69.5092 172.075 69.317 171.379 69.3279C170.683 69.3389 170.005 69.5524 169.428 69.9423C165.157 72.4041 161.701 81.5127 161.701 90.3074C161.701 96.6095 163.676 101.004 167.367 103.078L170.922 105.127" stroke="#FFE100" stroke-width="0.4" stroke-miterlimit="10"/>
<path d="M201.678 70.367L198.116 68.2929C195.098 66.5574 188.278 72.7118 182.877 82.0358C182.019 83.5178 181.236 85.0419 180.532 86.6024" stroke="#FFE100" stroke-width="0.4" stroke-miterlimit="10"/>
<path d="M147.943 118.144L144.382 116.094C139.487 112.826 137.827 106.426 140.734 101.435C143.758 96.2279 150.572 94.5232 155.973 97.6312L159.534 99.6806" stroke="#FFE100" stroke-width="0.4" stroke-miterlimit="10"/>
<g style="mix-blend-mode:multiply" opacity="0.35" filter="url(#filter1_f_2020_8565)">
<path d="M195.675 190.991C202.248 183.687 204.75 176.057 204.732 167.249C204.836 141.025 220.372 114.705 220.372 114.705C224.632 106.007 226.655 96.3332 226.249 86.6042C225.843 76.8752 223.021 67.415 218.052 59.1243C213.082 50.8337 206.131 43.9885 197.86 39.2406C189.589 34.4926 180.273 32 170.8 32C161.327 32 152.011 34.4926 143.74 39.2406C135.469 43.9885 128.518 50.8337 123.548 59.1243C118.579 67.415 115.757 76.8752 115.351 86.6042C114.945 96.3332 116.968 106.007 121.228 114.705C121.228 114.705 136.758 141.031 136.868 167.249C136.852 176.058 139.356 183.688 145.931 190.991" fill="#FFE100"/>
</g>
<path d="M83.7621 182.675C83.8164 174.048 71.7132 166.978 56.7287 166.884C41.7442 166.79 29.5528 173.708 29.4985 182.335C29.4441 190.963 41.5474 198.033 56.5318 198.127C71.5163 198.221 83.7077 191.303 83.7621 182.675Z" fill="#2AB2FF" stroke="#2AB2FF" stroke-width="0.4" stroke-miterlimit="10"/>
<path d="M81.538 188.773C87.3591 182.538 90.587 174.33 90.5682 165.811C90.6727 140.447 106.162 114.991 106.162 114.991C110.41 106.578 112.427 97.222 112.022 87.8123C111.617 78.4026 108.804 69.2528 103.849 61.2342C98.8944 53.2156 91.9638 46.5951 83.7171 42.0029C75.4704 37.4108 66.1821 35 56.7366 35C47.2911 35 38.0028 37.4108 29.7561 42.0029C21.5094 46.5951 14.5788 53.2156 9.62419 61.2342C4.66956 69.2528 1.85583 78.4026 1.4509 87.8123C1.04598 97.222 3.06335 106.578 7.31092 114.991C7.31092 114.991 22.7947 140.453 22.905 165.811C22.8884 174.331 26.1183 182.538 31.9411 188.773" stroke="#2AB2FF" stroke-width="0.4" stroke-miterlimit="10"/>
<path d="M50.6662 100.661L54.3637 103.743L52.515 100.045L51.8987 97.58L51.2825 92.65L51.8987 87.72L53.1312 81.5575L54.3637 78.4763L56.8287 74.1625L59.91 71.6975H62.9912L61.7587 71.0813L59.2937 69.8488L57.445 69.2325L55.5962 69.8488L53.1312 72.3138L50.6662 76.0113L49.4337 79.7088L48.2012 84.6388L47.585 90.185L48.2012 95.115L50.6662 100.661Z" fill="white"/>
<path d="M60.5263 79.0925L59.2938 75.395L61.7588 76.0113L62.9913 77.86L64.2238 81.5575V87.1038L63.4742 91.8127L61.7588 96.3475L59.4241 101.432L56.3864 105.988L52.515 110.521L50.6663 106.208L51.8988 104.975L56.2125 98.8125L58.0613 95.115L59.2938 91.4175L60.5263 86.4875V79.0925Z" fill="white"/>
<path d="M29.7138 115.451L32.5918 117.126L29.7138 112.986L29.0975 110.521V106.824L30.33 103.743L32.795 100.661L35.8763 98.8125L39.5738 98.1963L43.8876 98.8125L43.2713 98.1963L40.1858 96.8754L36.642 95.8629L33.6312 96.3475L31.5625 96.9638L27.865 100.045L26.0163 102.73L25.4 108.056L27.0228 112.57L29.7138 115.451Z" fill="white"/>
<path d="M44.5038 105.591L42.2109 101.938L44.236 102.951L46.9688 105.591L48.8175 109.289L49.4338 111.754V112.986L48.7924 113.582L45.12 115.451L40.19 116.684L37.725 116.068L35.1232 114.595V114.219H38.6671L42.655 112.986L46.2611 110.545L45.12 107.44L44.5038 105.591Z" fill="white"/>
<path d="M61.1425 102.51L62.375 100.661L65.4562 102.51L62.9912 103.126L61.1425 102.51Z" fill="white"/>
<path d="M69.5495 97.3817L68.5369 101.938L72.8514 99.4288L76.6372 96.3691L80.1811 91.8127L83.2187 86.75L85.2438 82.1936L86.4089 77.2438L85.7926 74.7788L84.7375 74.0933L82.7125 75.1058L82.2062 77.6372L80.8626 82.1738L78.156 87.7626L75.1184 91.8127L72.2351 95.115L69.5495 97.3817Z" fill="white"/>
<path d="M62.3749 100.661L66.0724 102.51L68.5374 92.65L72.235 84.6388L77.7812 76.6275L84.56 70.465L87.025 69.8488L83.9437 68H82.095L79.63 69.2325L75.9325 72.3138L71.6187 77.86L67.3049 85.255L65.4562 93.8825L62.3749 100.661Z" fill="white"/>
<path d="M60.9429 178.385L64.2237 180.158L63.4742 168.259L62.9912 156.74L62.4617 146.49L62.9912 135.788L63.6075 120.381L65.4562 106.208L61.4491 106.495L59.91 119.149L59.2937 135.788L58.9178 145.984L59.2937 156.74L59.9303 168.259L60.9429 178.385Z" fill="white"/>
<path d="M47.7799 185.473L51.3238 187.498L51.83 180.916L52.8426 160.665V150.54L52.515 132.706L50.3112 115.607L47.585 117.3L48.7924 129.277C49.2987 137.883 49.2987 145.477 49.2987 145.477C49.2987 145.477 49.5142 152.693 49.2987 161.678C49.101 169.918 48.5065 179.175 47.7799 185.473Z" fill="white"/>
<path d="M63.6076 103.126L66.0726 102.51L65.4563 106.208H64.2238H59.2938L61.1426 102.51L63.6076 103.126Z" fill="white"/>
<path fill-rule="evenodd" clip-rule="evenodd" d="M52.5151 110.521L56.8288 104.975L53.1313 101.278L51.2826 93.8825L51.8988 85.255L54.3638 77.86L57.4451 73.5463L59.9101 71.6975H62.3751L64.8401 74.1625L66.6888 79.0925V84.6388V87.72L65.4563 92.65L64.2238 96.3475L62.9913 98.8125L60.5263 103.743L57.4451 108.056L54.3638 111.754L51.8988 114.219L47.5851 117.3L41.4226 119.765H37.725L33.4113 117.916L30.33 114.219L29.0975 109.905V106.208L30.9463 102.51L33.4113 100.045L35.8763 98.8125L38.3413 98.1963H42.6551L45.7363 99.4288L48.2013 101.894L50.0501 104.975L51.8988 108.673L52.5151 110.521ZM55.8803 99.4288L59.0919 101.938L59.91 100.661L61.1425 98.1963L62.375 95.115L62.9913 92.65L64.2238 88.3363V82.1738L63.6075 78.4763L61.7588 76.0113L59.2938 75.395L56.2125 79.0925L54.3638 85.255L53.7475 90.8013L54.3638 95.7313L55.8803 99.4288ZM48.2013 107.44L49.4338 112.37L48.8176 113.603L46.3526 114.835L43.8876 116.068L40.8063 116.684L37.1088 116.068L34.0276 113.603L32.1788 110.521L31.5626 107.44L33.0981 103.963L35.8763 101.894L39.5738 101.278L43.2713 102.51L45.7363 104.359L48.2013 107.44Z" fill="white"/>
<path d="M68.4714 101.958C71.1296 100.84 73.5523 99.2323 75.6126 97.2188C78.0031 94.9217 80.0579 92.3009 81.7168 89.4334C85.8275 82.3374 87.5001 75.629 85.4571 74.4289C83.4142 73.2288 78.4147 78.0539 74.2979 85.1561C70.4033 91.8829 68.9713 98.6959 67.885 105.367V105.478C66.4585 114.629 65.6133 123.86 65.3545 133.118C64.8871 148.38 65.3509 163.657 66.7432 178.864L64.3299 180.248C64.1324 178.02 63.9493 175.782 63.7805 173.534C62.621 159.064 62.3531 144.537 62.9782 130.034C63.3206 122.019 64.1243 114.029 65.3853 106.106C65.4923 105.453 65.6034 104.801 65.7186 104.149C65.7989 103.669 65.8914 103.189 65.984 102.715C67.1752 96.4802 68.9096 90.4797 72.5882 84.1098C77.9827 74.7859 84.8091 68.6314 87.8272 70.367C90.8454 72.1025 88.9074 81.0757 83.5067 90.3997C81.6698 93.6341 79.4278 96.6224 76.8346 99.2928C74.3279 101.911 71.2921 103.969 67.9282 105.33" fill="white"/>
<path d="M51.3238 187.498L53.8551 186.485L54.3614 177.879L55.3739 163.703L55.5964 151.194L55.3739 139.908L54.8676 126.745L52.8426 113.582L50.3112 115.607L52.5151 130.858C53.1314 153.043 52.5151 168.449 52.5151 168.449C52.5151 168.449 51.94 183.389 51.3238 187.498Z" fill="white"/>
<path d="M69.4836 97.3172C70.3816 96.6485 71.239 95.9272 72.0512 95.157C74.4417 92.8599 76.4966 90.2392 78.1554 87.3717C80.9761 82.4974 82.6488 77.8077 82.7599 74.9643" stroke="#2AB2FF" stroke-width="0.4" stroke-miterlimit="10"/>
<path d="M55.9975 99.1082C57.4018 96.6308 58.5357 94.0104 59.3798 91.292C60.2469 88.5627 60.7147 85.723 60.7686 82.8605C60.7686 79.7833 60.2748 77.2846 59.4662 75.6229" stroke="#2AB2FF" stroke-width="0.4" stroke-miterlimit="10"/>
<path d="M50.8993 106.315C51.8093 105.286 52.6662 104.212 53.4669 103.096" stroke="#2AB2FF" stroke-width="0.4" stroke-miterlimit="10"/>
<path d="M34.6233 114.15C36.081 114.511 37.6037 114.524 39.0672 114.187C41.6392 113.57 44.0449 112.4 46.1158 110.759V110.759C45.2517 107.171 44.0605 103.909 41.8694 101.835" stroke="#2AB2FF" stroke-width="0.4" stroke-miterlimit="10"/>
<path d="M57.022 105.127C53.3187 103.053 51.356 98.6589 51.356 92.3568C51.356 83.5621 54.8185 74.4474 59.0835 71.9917C63.3485 69.5361 66.811 74.6689 66.811 83.4636C66.811 89.7596 64.8174 96.4433 61.145 102.758C60.4949 103.866 59.8077 104.945 59.0835 105.995C58.6885 106.567 58.2873 107.121 57.8491 107.687C56.3307 109.713 54.6416 111.605 52.8002 113.343C51.967 114.125 51.1152 114.851 50.2573 115.516C47.27 117.842 44.1963 119.295 41.3509 119.726C39.0511 120.09 36.6955 119.656 34.6788 118.495C29.2782 115.381 27.3463 108.648 30.3583 103.429C33.3703 98.2096 40.2337 96.5418 45.6344 99.6805C49.3377 101.792 51.0535 105.835 52.2386 110.679" stroke="#2AB2FF" stroke-width="0.4" stroke-miterlimit="10"/>
<path d="M65.3483 106.137C63.6933 106.513 61.9806 106.566 60.3056 106.29C59.8892 106.216 59.4771 106.12 59.0712 106.001" stroke="#2AB2FF" stroke-width="0.4" stroke-miterlimit="10"/>
<path d="M68.4714 101.958C71.1296 100.84 73.5523 99.2323 75.6126 97.2188C78.0031 94.9217 80.0579 92.3009 81.7168 89.4334C85.8275 82.3374 87.5001 75.629 85.4571 74.4289C83.4142 73.2288 78.4147 78.0539 74.2979 85.1561C70.4033 91.8829 68.9713 98.6959 67.885 105.367V105.478C66.4585 114.629 65.6133 123.86 65.3545 133.118C64.8871 148.38 65.3509 163.657 66.7432 178.864L64.3299 180.248C64.1324 178.02 63.9493 175.782 63.7805 173.534C62.621 159.064 62.3531 144.537 62.9782 130.034C63.3206 122.019 64.1243 114.029 65.3853 106.106C65.4923 105.453 65.6034 104.801 65.7186 104.149C65.7989 103.669 65.8914 103.189 65.984 102.715C67.1752 96.4802 68.9096 90.4797 72.5882 84.1098C77.9827 74.7859 84.8091 68.6314 87.8272 70.367C90.8454 72.1025 88.9074 81.0757 83.5067 90.3997C81.6698 93.6341 79.4278 96.6224 76.8346 99.2928C74.3279 101.911 71.2921 103.969 67.9282 105.33" stroke="#2AB2FF" stroke-width="0.4" stroke-miterlimit="10" stroke-linejoin="round"/>
<path d="M61.1451 102.758C62.7253 103.118 64.3668 103.118 65.947 102.758" stroke="#2AB2FF" stroke-width="0.4" stroke-miterlimit="10"/>
<path d="M49.6772 112.783C48.628 108.414 47.0911 104.536 43.8631 102.684C39.7524 100.314 34.7653 101.262 32.7038 104.801C30.6423 108.34 32.3335 113.116 36.4441 115.497C38.3407 116.491 40.5378 116.754 42.6163 116.236C45.251 115.595 47.7108 114.38 49.8192 112.679C50.6517 112.05 51.4491 111.376 52.2078 110.66C53.9851 108.974 55.5933 107.119 57.0097 105.121C57.7381 104.099 58.4293 103.041 59.0712 101.952C60.6925 99.2408 61.9873 96.3487 62.9288 93.3353C63.7941 90.6058 64.2598 87.766 64.3114 84.9038C64.3114 78.2077 61.966 74.1335 59.0712 75.8014C56.1765 77.4692 53.8311 84.2391 53.8311 90.9351C53.7945 93.2821 54.2705 95.609 55.226 97.7542C56.0165 99.5296 57.3666 100.999 59.0712 101.939" stroke="#2AB2FF" stroke-width="0.4" stroke-miterlimit="10"/>
<path d="M52.8188 113.35C54.1335 120.335 54.9339 127.407 55.2136 134.509C55.9295 148.738 55.4605 163.73 54.4112 178.925C54.2425 181.387 54.0594 183.849 53.8619 186.31L51.4362 187.689C52.7077 171.503 53.3743 155.544 52.8188 140.343C52.504 131.757 51.8374 123.326 50.2944 115.614V115.528" stroke="#2AB2FF" stroke-width="0.4" stroke-miterlimit="10" stroke-linejoin="round"/>
<path d="M51.4362 187.689L47.8749 185.64C49.1464 169.453 49.813 153.495 49.2636 138.294C49.0661 131.319 48.4478 124.362 47.412 117.461" stroke="#2AB2FF" stroke-width="0.4" stroke-miterlimit="10"/>
<path d="M64.3113 180.236L60.7562 178.187C60.5504 175.959 60.3653 173.72 60.2007 171.472C59.044 157.008 58.7781 142.487 59.4045 127.991C59.7026 120.78 60.3804 113.59 61.4351 106.45" stroke="#2AB2FF" stroke-width="0.4" stroke-miterlimit="10"/>
<path d="M46.1159 110.734L49.6772 112.783" stroke="#2AB2FF" stroke-width="0.4" stroke-miterlimit="10"/>
<path d="M62.3857 100.696L65.9471 102.745" stroke="#2AB2FF" stroke-width="0.4" stroke-miterlimit="10"/>
<path d="M63.0091 71.9302L59.4478 69.8808C58.8595 69.5092 58.1752 69.317 57.4789 69.3279C56.7826 69.3389 56.1047 69.5524 55.5284 69.9423C51.2573 72.4041 47.8009 81.5127 47.8009 90.3074C47.8009 96.6095 49.776 101.004 53.4669 103.078L57.0221 105.127" stroke="#2AB2FF" stroke-width="0.4" stroke-miterlimit="10"/>
<path d="M87.7778 70.367L84.2165 68.2929C81.1983 66.5574 74.3781 72.7118 68.9774 82.0358C68.1192 83.5178 67.3364 85.0419 66.632 86.6024" stroke="#2AB2FF" stroke-width="0.4" stroke-miterlimit="10"/>
<path d="M34.0431 118.144L30.4818 116.094C25.5873 112.826 23.927 106.426 26.834 101.435C29.8584 96.2279 36.6725 94.5232 42.0731 97.6312L45.6344 99.6806" stroke="#2AB2FF" stroke-width="0.4" stroke-miterlimit="10"/>
<g style="mix-blend-mode:multiply" opacity="0.25" filter="url(#filter2_f_2020_8565)">
<path d="M81.7746 190.991C88.3479 183.687 90.8504 176.057 90.8316 167.249C90.9363 141.025 106.472 114.705 106.472 114.705C110.732 106.007 112.755 96.3332 112.349 86.6042C111.943 76.8752 109.121 67.415 104.152 59.1243C99.1823 50.8337 92.2312 43.9885 83.9602 39.2406C75.6891 34.4926 66.3734 32 56.9 32C47.4266 32 38.1109 34.4926 29.8399 39.2406C21.5688 43.9885 14.6177 50.8337 9.64848 59.1243C4.67921 67.415 1.85717 76.8752 1.45105 86.6042C1.04494 96.3332 3.06826 106.007 7.32838 114.705C7.32838 114.705 22.8579 141.031 22.9685 167.249C22.9518 176.058 25.456 183.688 32.0312 190.991" fill="#2AB2FF"/>
</g>
</g>
<defs>
<filter id="filter0_f_2020_8565" x="159" y="-38" width="251" height="310" filterUnits="userSpaceOnUse" color-interpolation-filters="sRGB">
<feFlood flood-opacity="0" result="BackgroundImageFix"/>
<feBlend mode="normal" in="SourceGraphic" in2="BackgroundImageFix" result="shape"/>
<feGaussianBlur stdDeviation="35" result="effect1_foregroundBlur_2020_8565"/>
</filter>
<filter id="filter1_f_2020_8565" x="45.3" y="-38" width="251" height="310" filterUnits="userSpaceOnUse" color-interpolation-filters="sRGB">
<feFlood flood-opacity="0" result="BackgroundImageFix"/>
<feBlend mode="normal" in="SourceGraphic" in2="BackgroundImageFix" result="shape"/>
<feGaussianBlur stdDeviation="35" result="effect1_foregroundBlur_2020_8565"/>
</filter>
<filter id="filter2_f_2020_8565" x="-68.6" y="-38" width="251" height="310" filterUnits="userSpaceOnUse" color-interpolation-filters="sRGB">
<feFlood flood-opacity="0" result="BackgroundImageFix"/>
<feBlend mode="normal" in="SourceGraphic" in2="BackgroundImageFix" result="shape"/>
<feGaussianBlur stdDeviation="35" result="effect1_foregroundBlur_2020_8565"/>
</filter>
<clipPath id="clip0_2020_8565">
<rect width="341" height="233" fill="white"/>
</clipPath>
</defs>
</svg>
