<svg width="341" height="233" viewBox="0 0 341 233" fill="none" xmlns="http://www.w3.org/2000/svg">
<g clip-path="url(#clip0_2020_8565)">
<rect width="341" height="233" fill="white"/>
<g style="mix-blend-mode:hard-light" opacity="0.8" filter="url(#filter0_f_2020_8565)">
<path d="M259.719 195.343C266.648 187.61 269.285 179.531 269.266 170.205C269.376 142.438 285.751 114.57 285.751 114.57C290.242 105.36 292.374 95.1175 291.946 84.8162C291.518 74.5149 288.544 64.4983 283.306 55.7199C278.068 46.9415 270.741 39.6937 262.023 34.6665C253.305 29.6393 243.485 27 233.5 27C223.515 27 213.695 29.6393 204.977 34.6665C196.259 39.6937 188.932 46.9415 183.694 55.7199C178.456 64.4983 175.482 74.5149 175.054 84.8162C174.626 95.1175 176.758 105.36 181.249 114.57C181.249 114.57 197.618 142.445 197.734 170.205C197.717 179.532 200.356 187.611 207.287 195.343" fill="#FBEB5C"/>
</g>
<g style="mix-blend-mode:hard-light" opacity="0.8" filter="url(#filter1_f_2020_8565)">
<path d="M259.719 195.343C266.648 187.61 269.285 179.531 269.266 170.205C269.376 142.438 285.751 114.57 285.751 114.57C290.242 105.36 292.374 95.1175 291.946 84.8162C291.518 74.5149 288.544 64.4983 283.306 55.7199C278.068 46.9415 270.741 39.6937 262.023 34.6665C253.305 29.6393 243.485 27 233.5 27C223.515 27 213.695 29.6393 204.977 34.6665C196.259 39.6937 188.932 46.9415 183.694 55.7199C178.456 64.4983 175.482 74.5149 175.054 84.8162C174.626 95.1175 176.758 105.36 181.249 114.57C181.249 114.57 197.618 142.445 197.734 170.205C197.717 179.532 200.356 187.611 207.287 195.343" fill="#FBEB5C"/>
</g>
<g style="mix-blend-mode:hard-light" opacity="0.4" filter="url(#filter2_f_2020_8565)">
<path d="M196.719 195.343C203.648 187.61 206.285 179.531 206.266 170.205C206.376 142.438 222.751 114.57 222.751 114.57C227.242 105.36 229.374 95.1175 228.946 84.8162C228.518 74.5149 225.544 64.4983 220.306 55.7199C215.068 46.9415 207.741 39.6937 199.023 34.6665C190.305 29.6393 180.485 27 170.5 27C160.515 27 150.695 29.6393 141.977 34.6665C133.259 39.6937 125.932 46.9415 120.694 55.7199C115.456 64.4983 112.482 74.5149 112.054 84.8162C111.626 95.1175 113.758 105.36 118.249 114.57C118.249 114.57 134.618 142.445 134.734 170.205C134.717 179.532 137.356 187.611 144.287 195.343" fill="#FF2A50"/>
</g>
<g style="mix-blend-mode:hard-light" opacity="0.3" filter="url(#filter3_f_2020_8565)">
<path d="M132.719 195.343C139.648 187.61 142.285 179.531 142.266 170.205C142.376 142.438 158.751 114.57 158.751 114.57C163.242 105.36 165.374 95.1175 164.946 84.8162C164.518 74.5149 161.544 64.4983 156.306 55.7199C151.068 46.9415 143.741 39.6937 135.023 34.6665C126.305 29.6393 116.485 27 106.5 27C96.5145 27 86.6953 29.6393 77.9772 34.6665C69.259 39.6937 61.9322 46.9415 56.6943 55.7199C51.4564 64.4983 48.4819 74.5149 48.0538 84.8162C47.6257 95.1175 49.7584 105.36 54.2488 114.57C54.2488 114.57 70.6177 142.445 70.7343 170.205C70.7168 179.532 73.3563 187.611 80.287 195.343" fill="#2AB2FF"/>
</g>
<g style="mix-blend-mode:multiply">
<path d="M152.457 182.675C152.511 174.048 140.408 166.978 125.424 166.884C110.439 166.79 98.2477 173.708 98.1933 182.335C98.139 190.963 110.242 198.033 125.227 198.127C140.211 198.221 152.403 191.303 152.457 182.675Z" fill="#2AB2FF" stroke="#2AB2FF" stroke-width="0.4" stroke-miterlimit="10"/>
<path d="M118.855 100.661L122.553 103.743L120.704 100.045L120.088 97.58L119.471 92.65L120.088 87.72L121.32 81.5575L122.553 78.4763L125.018 74.1625L128.099 71.6975H131.18L129.948 71.0813L127.483 69.8488L125.634 69.2325L123.785 69.8488L121.32 72.3138L118.855 76.0113L117.623 79.7088L116.39 84.6388L115.774 90.185L116.39 95.115L118.855 100.661Z" fill="white"/>
<path d="M128.715 79.0925L127.483 75.395L129.948 76.0113L131.18 77.86L132.413 81.5575V87.1038L131.663 91.8127L129.948 96.3475L127.613 101.432L124.575 105.988L120.704 110.521L118.855 106.208L120.088 104.975L124.401 98.8125L126.25 95.115L127.483 91.4175L128.715 86.4875V79.0925Z" fill="white"/>
<path d="M97.9027 115.451L100.781 117.126L97.9027 112.986L97.2864 110.521V106.824L98.5189 103.743L100.984 100.661L104.065 98.8125L107.763 98.1963L112.076 98.8125L111.46 98.1963L108.375 96.8754L104.831 95.8629L101.82 96.3475L99.7514 96.9638L96.0539 100.045L94.2052 102.73L93.5889 108.056L95.2117 112.57L97.9027 115.451Z" fill="white"/>
<path d="M112.693 105.591L110.4 101.938L112.425 102.951L115.158 105.591L117.006 109.289L117.623 111.754V112.986L116.981 113.582L113.309 115.451L108.379 116.684L105.914 116.068L103.312 114.595V114.219H106.856L110.844 112.986L114.45 110.545L113.309 107.44L112.693 105.591Z" fill="white"/>
<path d="M129.331 102.51L130.564 100.661L133.645 102.51L131.18 103.126L129.331 102.51Z" fill="white"/>
<path d="M137.738 97.3817L136.726 101.938L141.04 99.4288L144.826 96.3691L148.37 91.8127L151.408 86.75L153.433 82.1936L154.598 77.2438L153.982 74.7788L152.926 74.0933L150.901 75.1058L150.395 77.6372L149.052 82.1738L146.345 87.7626L143.307 91.8127L140.424 95.115L137.738 97.3817Z" fill="white"/>
<path d="M130.564 100.661L134.261 102.51L136.726 92.65L140.424 84.6388L145.97 76.6275L152.749 70.465L155.214 69.8488L152.133 68H150.284L147.819 69.2325L144.121 72.3138L139.808 77.86L135.494 85.255L133.645 93.8825L130.564 100.661Z" fill="white"/>
<path d="M129.132 178.385L132.413 180.158L131.663 168.259L131.18 156.74L130.651 146.49L131.18 135.788L131.796 120.381L133.645 106.208L129.638 106.495L128.099 119.149L127.483 135.788L127.107 145.984L127.483 156.74L128.119 168.259L129.132 178.385Z" fill="white"/>
<path d="M115.969 185.473L119.513 187.498L120.019 180.916L121.031 160.665V150.54L120.704 132.706L118.5 115.607L115.774 117.3L116.981 129.277C117.488 137.883 117.488 145.477 117.488 145.477C117.488 145.477 117.703 152.693 117.488 161.678C117.29 169.918 116.695 179.175 115.969 185.473Z" fill="white"/>
<path d="M131.796 103.126L134.261 102.51L133.645 106.208H132.413H127.483L129.331 102.51L131.796 103.126Z" fill="white"/>
<path fill-rule="evenodd" clip-rule="evenodd" d="M120.704 110.521L125.018 104.975L121.32 101.278L119.471 93.8825L120.088 85.255L122.553 77.86L125.634 73.5463L128.099 71.6975H130.564L133.029 74.1625L134.878 79.0925V84.6388V87.72L133.645 92.65L132.413 96.3475L131.18 98.8125L128.715 103.743L125.634 108.056L122.553 111.754L120.088 114.219L115.774 117.3L109.611 119.765H105.914L101.6 117.916L98.5189 114.219L97.2864 109.905V106.208L99.1352 102.51L101.6 100.045L104.065 98.8125L106.53 98.1963H110.844L113.925 99.4288L116.39 101.894L118.239 104.975L120.088 108.673L120.704 110.521ZM124.069 99.4288L127.281 101.938L128.099 100.661L129.331 98.1963L130.564 95.115L131.18 92.65L132.413 88.3363V82.1738L131.796 78.4763L129.948 76.0113L127.483 75.395L124.401 79.0925L122.553 85.255L121.936 90.8013L122.553 95.7313L124.069 99.4288ZM116.39 107.44L117.623 112.37L117.006 113.603L114.541 114.835L112.076 116.068L108.995 116.684L105.298 116.068L102.216 113.603L100.368 110.521L99.7515 107.44L101.287 103.963L104.065 101.894L107.763 101.278L111.46 102.51L113.925 104.359L116.39 107.44Z" fill="white"/>
<path d="M136.66 101.958C139.318 100.84 141.741 99.2323 143.801 97.2188C146.192 94.9217 148.247 92.3009 149.906 89.4334C154.016 82.3374 155.689 75.629 153.646 74.4289C151.603 73.2288 146.604 78.0539 142.487 85.1561C138.592 91.8829 137.16 98.6959 136.074 105.367V105.478C134.647 114.629 133.802 123.86 133.543 133.118C133.076 148.38 133.54 163.657 134.932 178.864L132.519 180.248C132.321 178.02 132.138 175.782 131.969 173.534C130.81 159.064 130.542 144.537 131.167 130.034C131.51 122.019 132.313 114.029 133.574 106.106C133.681 105.453 133.792 104.801 133.908 104.149C133.988 103.669 134.08 103.189 134.173 102.715C135.364 96.4802 137.099 90.4797 140.777 84.1098C146.172 74.7859 152.998 68.6314 156.016 70.367C159.034 72.1025 157.096 81.0757 151.696 90.3997C149.859 93.6341 147.617 96.6224 145.024 99.2928C142.517 101.911 139.481 103.969 136.117 105.33" fill="white"/>
<path d="M119.513 187.498L122.044 186.485L122.55 177.879L123.563 163.703L123.785 151.194L123.563 139.908L123.057 126.745L121.031 113.582L118.5 115.607L120.704 130.858C121.32 153.043 120.704 168.449 120.704 168.449C120.704 168.449 120.129 183.389 119.513 187.498Z" fill="white"/>
<path d="M137.672 97.3172C138.571 96.6485 139.428 95.9272 140.24 95.157C142.631 92.8599 144.685 90.2392 146.344 87.3717C149.165 82.4974 150.838 77.8077 150.949 74.9643" stroke="#2AB2FF" stroke-width="0.4" stroke-miterlimit="10"/>
<path d="M124.186 99.1082C125.591 96.6308 126.725 94.0104 127.569 91.292C128.436 88.5627 128.904 85.723 128.957 82.8605C128.957 79.7833 128.464 77.2846 127.655 75.6229" stroke="#2AB2FF" stroke-width="0.4" stroke-miterlimit="10"/>
<path d="M119.088 106.315C119.998 105.286 120.855 104.212 121.656 103.096" stroke="#2AB2FF" stroke-width="0.4" stroke-miterlimit="10"/>
<path d="M102.812 114.15C104.27 114.511 105.793 114.524 107.256 114.187C109.828 113.57 112.234 112.4 114.305 110.759V110.759C113.441 107.171 112.249 103.909 110.058 101.835" stroke="#2AB2FF" stroke-width="0.4" stroke-miterlimit="10"/>
<path d="M125.211 105.127C121.508 103.053 119.545 98.6589 119.545 92.3568C119.545 83.5621 123.007 74.4474 127.272 71.9917C131.537 69.5361 135 74.6689 135 83.4636C135 89.7596 133.006 96.4433 129.334 102.758C128.684 103.866 127.997 104.945 127.272 105.995C126.877 106.567 126.476 107.121 126.038 107.687C124.52 109.713 122.83 111.605 120.989 113.343C120.156 114.125 119.304 114.851 118.446 115.516C115.459 117.842 112.385 119.295 109.54 119.726C107.24 120.09 104.884 119.656 102.868 118.495C97.4671 115.381 95.5352 108.648 98.5472 103.429C101.559 98.2096 108.423 96.5418 113.823 99.6805C117.527 101.792 119.242 105.835 120.427 110.679" stroke="#2AB2FF" stroke-width="0.4" stroke-miterlimit="10"/>
<path d="M133.537 106.137C131.882 106.513 130.169 106.566 128.495 106.29C128.078 106.216 127.666 106.12 127.26 106.001" stroke="#2AB2FF" stroke-width="0.4" stroke-miterlimit="10"/>
<path d="M136.66 101.958C139.318 100.84 141.741 99.2323 143.801 97.2188C146.192 94.9217 148.247 92.3009 149.906 89.4334C154.016 82.3374 155.689 75.629 153.646 74.4289C151.603 73.2288 146.604 78.0539 142.487 85.1561C138.592 91.8829 137.16 98.6959 136.074 105.367V105.478C134.647 114.629 133.802 123.86 133.543 133.118C133.076 148.38 133.54 163.657 134.932 178.864L132.519 180.248C132.321 178.02 132.138 175.782 131.969 173.534C130.81 159.064 130.542 144.537 131.167 130.034C131.51 122.019 132.313 114.029 133.574 106.106C133.681 105.453 133.792 104.801 133.908 104.149C133.988 103.669 134.08 103.189 134.173 102.715C135.364 96.4802 137.099 90.4797 140.777 84.1098C146.172 74.7859 152.998 68.6314 156.016 70.367C159.034 72.1025 157.096 81.0757 151.696 90.3997C149.859 93.6341 147.617 96.6224 145.024 99.2928C142.517 101.911 139.481 103.969 136.117 105.33" stroke="#2AB2FF" stroke-width="0.4" stroke-miterlimit="10" stroke-linejoin="round"/>
<path d="M129.334 102.758C130.914 103.118 132.556 103.118 134.136 102.758" stroke="#2AB2FF" stroke-width="0.4" stroke-miterlimit="10"/>
<path d="M117.866 112.783C116.817 108.414 115.28 104.536 112.052 102.684C107.941 100.314 102.954 101.262 100.893 104.801C98.8312 108.34 100.522 113.116 104.633 115.497C106.53 116.491 108.727 116.754 110.805 116.236C113.44 115.595 115.9 114.38 118.008 112.679C118.841 112.05 119.638 111.376 120.397 110.66C122.174 108.974 123.782 107.119 125.199 105.121C125.927 104.099 126.618 103.041 127.26 101.952C128.881 99.2408 130.176 96.3487 131.118 93.3353C131.983 90.6058 132.449 87.766 132.5 84.9038C132.5 78.2077 130.155 74.1335 127.26 75.8014C124.365 77.4692 122.02 84.2391 122.02 90.9351C121.983 93.2821 122.459 95.609 123.415 97.7542C124.205 99.5296 125.556 100.999 127.26 101.939" stroke="#2AB2FF" stroke-width="0.4" stroke-miterlimit="10"/>
<path d="M121.008 113.35C122.322 120.335 123.123 127.407 123.402 134.509C124.118 148.738 123.649 163.73 122.6 178.925C122.431 181.387 122.248 183.849 122.051 186.31L119.625 187.689C120.897 171.503 121.563 155.544 121.008 140.343C120.693 131.757 120.026 123.326 118.483 115.614V115.528" stroke="#2AB2FF" stroke-width="0.4" stroke-miterlimit="10" stroke-linejoin="round"/>
<path d="M119.625 187.689L116.064 185.64C117.335 169.453 118.002 153.495 117.453 138.294C117.255 131.319 116.637 124.362 115.601 117.461" stroke="#2AB2FF" stroke-width="0.4" stroke-miterlimit="10"/>
<path d="M132.5 180.236L128.945 178.187C128.739 175.959 128.554 173.72 128.39 171.472C127.233 157.008 126.967 142.487 127.593 127.991C127.891 120.78 128.569 113.59 129.624 106.45" stroke="#2AB2FF" stroke-width="0.4" stroke-miterlimit="10"/>
<path d="M114.305 110.734L117.866 112.783" stroke="#2AB2FF" stroke-width="0.4" stroke-miterlimit="10"/>
<path d="M130.575 100.696L134.136 102.745" stroke="#2AB2FF" stroke-width="0.4" stroke-miterlimit="10"/>
<path d="M131.198 71.9302L127.637 69.8808C127.048 69.5092 126.364 69.317 125.668 69.3279C124.971 69.3389 124.294 69.5524 123.717 69.9423C119.446 72.4041 115.99 81.5127 115.99 90.3074C115.99 96.6095 117.965 101.004 121.656 103.078L125.211 105.127" stroke="#2AB2FF" stroke-width="0.4" stroke-miterlimit="10"/>
<path d="M155.967 70.367L152.405 68.2929C149.387 66.5574 142.567 72.7118 137.166 82.0358C136.308 83.5178 135.525 85.0419 134.821 86.6024" stroke="#2AB2FF" stroke-width="0.4" stroke-miterlimit="10"/>
<path d="M102.232 118.144L98.6707 116.094C93.7762 112.826 92.1159 106.426 95.0229 101.435C98.0473 96.2279 104.861 94.5232 110.262 97.6312L113.823 99.6806" stroke="#2AB2FF" stroke-width="0.4" stroke-miterlimit="10"/>
<path d="M150.138 188.773C155.959 182.538 159.187 174.33 159.168 165.811C159.273 140.447 174.762 114.991 174.762 114.991C179.01 106.578 181.027 97.222 180.622 87.8123C180.217 78.4026 177.404 69.2528 172.449 61.2342C167.494 53.2156 160.564 46.5951 152.317 42.0029C144.07 37.4108 134.782 35 125.337 35C115.891 35 106.603 37.4108 98.3561 42.0029C90.1094 46.5951 83.1788 53.2156 78.2242 61.2342C73.2695 69.2528 70.4558 78.4026 70.0509 87.8123C69.646 97.222 71.6633 106.578 75.9109 114.991C75.9109 114.991 91.3947 140.453 91.5049 165.811C91.4884 174.331 94.7183 182.538 100.541 188.773" stroke="#2AB2FF" stroke-width="0.4" stroke-miterlimit="10"/>
</g>
<g style="mix-blend-mode:multiply">
<path d="M197.457 182.675C197.511 174.048 185.408 166.978 170.424 166.884C155.439 166.79 143.248 173.708 143.193 182.335C143.139 190.963 155.242 198.033 170.227 198.127C185.211 198.221 197.403 191.303 197.457 182.675Z" fill="#FF2A50" stroke="#FF2A50" stroke-width="0.4" stroke-miterlimit="10"/>
<path d="M163.855 100.661L167.553 103.743L165.704 100.045L165.088 97.58L164.471 92.65L165.088 87.72L166.32 81.5575L167.553 78.4763L170.018 74.1625L173.099 71.6975H176.18L174.948 71.0813L172.483 69.8488L170.634 69.2325L168.785 69.8488L166.32 72.3138L163.855 76.0113L162.623 79.7088L161.39 84.6388L160.774 90.185L161.39 95.115L163.855 100.661Z" fill="white"/>
<path d="M173.715 79.0925L172.483 75.395L174.948 76.0113L176.18 77.86L177.413 81.5575V87.1038L176.663 91.8127L174.948 96.3475L172.613 101.432L169.575 105.988L165.704 110.521L163.855 106.208L165.088 104.975L169.401 98.8125L171.25 95.115L172.483 91.4175L173.715 86.4875V79.0925Z" fill="white"/>
<path d="M142.903 115.451L145.781 117.126L142.903 112.986L142.286 110.521V106.824L143.519 103.743L145.984 100.661L149.065 98.8125L152.763 98.1963L157.076 98.8125L156.46 98.1963L153.375 96.8754L149.831 95.8629L146.82 96.3475L144.751 96.9638L141.054 100.045L139.205 102.73L138.589 108.056L140.212 112.57L142.903 115.451Z" fill="white"/>
<path d="M157.693 105.591L155.4 101.938L157.425 102.951L160.158 105.591L162.006 109.289L162.623 111.754V112.986L161.981 113.582L158.309 115.451L153.379 116.684L150.914 116.068L148.312 114.595V114.219H151.856L155.844 112.986L159.45 110.545L158.309 107.44L157.693 105.591Z" fill="white"/>
<path d="M174.331 102.51L175.564 100.661L178.645 102.51L176.18 103.126L174.331 102.51Z" fill="white"/>
<path d="M182.738 97.3817L181.726 101.938L186.04 99.4288L189.826 96.3691L193.37 91.8127L196.408 86.75L198.433 82.1936L199.598 77.2438L198.982 74.7788L197.926 74.0933L195.901 75.1058L195.395 77.6372L194.052 82.1738L191.345 87.7626L188.307 91.8127L185.424 95.115L182.738 97.3817Z" fill="white"/>
<path d="M175.564 100.661L179.261 102.51L181.726 92.65L185.424 84.6388L190.97 76.6275L197.749 70.465L200.214 69.8488L197.133 68H195.284L192.819 69.2325L189.121 72.3138L184.808 77.86L180.494 85.255L178.645 93.8825L175.564 100.661Z" fill="white"/>
<path d="M174.132 178.385L177.413 180.158L176.663 168.259L176.18 156.74L175.651 146.49L176.18 135.788L176.796 120.381L178.645 106.208L174.638 106.495L173.099 119.149L172.483 135.788L172.107 145.984L172.483 156.74L173.119 168.259L174.132 178.385Z" fill="white"/>
<path d="M160.969 185.473L164.513 187.498L165.019 180.916L166.031 160.665V150.54L165.704 132.706L163.5 115.607L160.774 117.3L161.981 129.277C162.488 137.883 162.488 145.477 162.488 145.477C162.488 145.477 162.703 152.693 162.488 161.678C162.29 169.918 161.695 179.175 160.969 185.473Z" fill="white"/>
<path d="M176.796 103.126L179.261 102.51L178.645 106.208H177.413H172.483L174.331 102.51L176.796 103.126Z" fill="white"/>
<path fill-rule="evenodd" clip-rule="evenodd" d="M165.704 110.521L170.018 104.975L166.32 101.278L164.471 93.8825L165.088 85.255L167.553 77.86L170.634 73.5463L173.099 71.6975H175.564L178.029 74.1625L179.878 79.0925V84.6388V87.72L178.645 92.65L177.413 96.3475L176.18 98.8125L173.715 103.743L170.634 108.056L167.553 111.754L165.088 114.219L160.774 117.3L154.611 119.765H150.914L146.6 117.916L143.519 114.219L142.286 109.905V106.208L144.135 102.51L146.6 100.045L149.065 98.8125L151.53 98.1963H155.844L158.925 99.4288L161.39 101.894L163.239 104.975L165.088 108.673L165.704 110.521ZM169.069 99.4288L172.281 101.938L173.099 100.661L174.331 98.1963L175.564 95.115L176.18 92.65L177.413 88.3363V82.1738L176.796 78.4763L174.948 76.0113L172.483 75.395L169.401 79.0925L167.553 85.255L166.936 90.8013L167.553 95.7313L169.069 99.4288ZM161.39 107.44L162.623 112.37L162.006 113.603L159.541 114.835L157.076 116.068L153.995 116.684L150.298 116.068L147.216 113.603L145.368 110.521L144.751 107.44L146.287 103.963L149.065 101.894L152.763 101.278L156.46 102.51L158.925 104.359L161.39 107.44Z" fill="white"/>
<path d="M181.66 101.958C184.318 100.84 186.741 99.2323 188.801 97.2188C191.192 94.9217 193.247 92.3009 194.906 89.4334C199.016 82.3374 200.689 75.629 198.646 74.4289C196.603 73.2288 191.604 78.0539 187.487 85.1561C183.592 91.8829 182.16 98.6959 181.074 105.367V105.478C179.647 114.629 178.802 123.86 178.543 133.118C178.076 148.38 178.54 163.657 179.932 178.864L177.519 180.248C177.321 178.02 177.138 175.782 176.969 173.534C175.81 159.064 175.542 144.537 176.167 130.034C176.51 122.019 177.313 114.029 178.574 106.106C178.681 105.453 178.792 104.801 178.908 104.149C178.988 103.669 179.08 103.189 179.173 102.715C180.364 96.4802 182.099 90.4797 185.777 84.1098C191.172 74.7859 197.998 68.6314 201.016 70.367C204.034 72.1025 202.096 81.0757 196.696 90.3997C194.859 93.6341 192.617 96.6224 190.024 99.2928C187.517 101.911 184.481 103.969 181.117 105.33" fill="white"/>
<path d="M164.513 187.498L167.044 186.485L167.55 177.879L168.563 163.703L168.785 151.194L168.563 139.908L168.057 126.745L166.031 113.582L163.5 115.607L165.704 130.858C166.32 153.043 165.704 168.449 165.704 168.449C165.704 168.449 165.129 183.389 164.513 187.498Z" fill="white"/>
<path d="M182.672 97.3172C183.571 96.6485 184.428 95.9272 185.24 95.157C187.631 92.8599 189.685 90.2392 191.344 87.3717C194.165 82.4974 195.838 77.8077 195.949 74.9643" stroke="#FF2A50" stroke-width="0.4" stroke-miterlimit="10"/>
<path d="M169.186 99.1082C170.591 96.6308 171.725 94.0104 172.569 91.292C173.436 88.5627 173.904 85.723 173.957 82.8605C173.957 79.7833 173.464 77.2846 172.655 75.6229" stroke="#FF2A50" stroke-width="0.4" stroke-miterlimit="10"/>
<path d="M164.088 106.315C164.998 105.286 165.855 104.212 166.656 103.096" stroke="#FF2A50" stroke-width="0.4" stroke-miterlimit="10"/>
<path d="M147.812 114.15C149.27 114.511 150.793 114.524 152.256 114.187C154.828 113.57 157.234 112.4 159.305 110.759V110.759C158.441 107.171 157.249 103.909 155.058 101.835" stroke="#FF2A50" stroke-width="0.4" stroke-miterlimit="10"/>
<path d="M170.211 105.127C166.508 103.053 164.545 98.6589 164.545 92.3568C164.545 83.5621 168.007 74.4474 172.272 71.9917C176.537 69.5361 180 74.6689 180 83.4636C180 89.7596 178.006 96.4433 174.334 102.758C173.684 103.866 172.997 104.945 172.272 105.995C171.877 106.567 171.476 107.121 171.038 107.687C169.52 109.713 167.83 111.605 165.989 113.343C165.156 114.125 164.304 114.851 163.446 115.516C160.459 117.842 157.385 119.295 154.54 119.726C152.24 120.09 149.884 119.656 147.868 118.495C142.467 115.381 140.535 108.648 143.547 103.429C146.559 98.2096 153.423 96.5418 158.823 99.6805C162.527 101.792 164.242 105.835 165.427 110.679" stroke="#FF2A50" stroke-width="0.4" stroke-miterlimit="10"/>
<path d="M178.537 106.137C176.882 106.513 175.169 106.566 173.495 106.29C173.078 106.216 172.666 106.12 172.26 106.001" stroke="#FF2A50" stroke-width="0.4" stroke-miterlimit="10"/>
<path d="M181.66 101.958C184.318 100.84 186.741 99.2323 188.801 97.2188C191.192 94.9217 193.247 92.3009 194.906 89.4334C199.016 82.3374 200.689 75.629 198.646 74.4289C196.603 73.2288 191.604 78.0539 187.487 85.1561C183.592 91.8829 182.16 98.6959 181.074 105.367V105.478C179.647 114.629 178.802 123.86 178.543 133.118C178.076 148.38 178.54 163.657 179.932 178.864L177.519 180.248C177.321 178.02 177.138 175.782 176.969 173.534C175.81 159.064 175.542 144.537 176.167 130.034C176.51 122.019 177.313 114.029 178.574 106.106C178.681 105.453 178.792 104.801 178.908 104.149C178.988 103.669 179.08 103.189 179.173 102.715C180.364 96.4802 182.099 90.4797 185.777 84.1098C191.172 74.7859 197.998 68.6314 201.016 70.367C204.034 72.1025 202.096 81.0757 196.696 90.3997C194.859 93.6341 192.617 96.6224 190.024 99.2928C187.517 101.911 184.481 103.969 181.117 105.33" stroke="#FF2A50" stroke-width="0.4" stroke-miterlimit="10" stroke-linejoin="round"/>
<path d="M174.334 102.758C175.914 103.118 177.556 103.118 179.136 102.758" stroke="#FF2A50" stroke-width="0.4" stroke-miterlimit="10"/>
<path d="M162.866 112.783C161.817 108.414 160.28 104.536 157.052 102.684C152.941 100.314 147.954 101.262 145.893 104.801C143.831 108.34 145.522 113.116 149.633 115.497C151.53 116.491 153.727 116.754 155.805 116.236C158.44 115.595 160.9 114.38 163.008 112.679C163.841 112.05 164.638 111.376 165.397 110.66C167.174 108.974 168.782 107.119 170.199 105.121C170.927 104.099 171.618 103.041 172.26 101.952C173.881 99.2408 175.176 96.3487 176.118 93.3353C176.983 90.6058 177.449 87.766 177.5 84.9038C177.5 78.2077 175.155 74.1335 172.26 75.8014C169.365 77.4692 167.02 84.2391 167.02 90.9351C166.983 93.2821 167.459 95.609 168.415 97.7542C169.205 99.5296 170.556 100.999 172.26 101.939" stroke="#FF2A50" stroke-width="0.4" stroke-miterlimit="10"/>
<path d="M166.008 113.35C167.322 120.335 168.123 127.407 168.402 134.509C169.118 148.738 168.649 163.73 167.6 178.925C167.431 181.387 167.248 183.849 167.051 186.31L164.625 187.689C165.897 171.503 166.563 155.544 166.008 140.343C165.693 131.757 165.026 123.326 163.483 115.614V115.528" stroke="#FF2A50" stroke-width="0.4" stroke-miterlimit="10" stroke-linejoin="round"/>
<path d="M164.625 187.689L161.064 185.64C162.335 169.453 163.002 153.495 162.453 138.294C162.255 131.319 161.637 124.362 160.601 117.461" stroke="#FF2A50" stroke-width="0.4" stroke-miterlimit="10"/>
<path d="M177.5 180.236L173.945 178.187C173.739 175.959 173.554 173.72 173.39 171.472C172.233 157.008 171.967 142.487 172.593 127.991C172.891 120.78 173.569 113.59 174.624 106.45" stroke="#FF2A50" stroke-width="0.4" stroke-miterlimit="10"/>
<path d="M159.305 110.734L162.866 112.783" stroke="#FF2A50" stroke-width="0.4" stroke-miterlimit="10"/>
<path d="M175.575 100.696L179.136 102.745" stroke="#FF2A50" stroke-width="0.4" stroke-miterlimit="10"/>
<path d="M176.198 71.9302L172.637 69.8808C172.048 69.5092 171.364 69.317 170.668 69.3279C169.971 69.3389 169.294 69.5524 168.717 69.9423C164.446 72.4041 160.99 81.5127 160.99 90.3074C160.99 96.6095 162.965 101.004 166.656 103.078L170.211 105.127" stroke="#FF2A50" stroke-width="0.4" stroke-miterlimit="10"/>
<path d="M200.967 70.367L197.405 68.2929C194.387 66.5574 187.567 72.7118 182.166 82.0358C181.308 83.5178 180.525 85.0419 179.821 86.6024" stroke="#FF2A50" stroke-width="0.4" stroke-miterlimit="10"/>
<path d="M147.232 118.144L143.671 116.094C138.776 112.826 137.116 106.426 140.023 101.435C143.047 96.2279 149.861 94.5232 155.262 97.6312L158.823 99.6806" stroke="#FF2A50" stroke-width="0.4" stroke-miterlimit="10"/>
<path d="M195.138 188.773C200.959 182.538 204.187 174.33 204.168 165.811C204.273 140.447 219.762 114.991 219.762 114.991C224.01 106.578 226.027 97.222 225.622 87.8123C225.217 78.4026 222.404 69.2528 217.449 61.2342C212.494 53.2156 205.564 46.5951 197.317 42.0029C189.07 37.4108 179.782 35 170.337 35C160.891 35 151.603 37.4108 143.356 42.0029C135.109 46.5951 128.179 53.2156 123.224 61.2342C118.27 69.2528 115.456 78.4026 115.051 87.8123C114.646 97.222 116.663 106.578 120.911 114.991C120.911 114.991 136.395 140.453 136.505 165.811C136.488 174.331 139.718 182.538 145.541 188.773" stroke="#FF2A50" stroke-width="0.4" stroke-miterlimit="10"/>
</g>
<g style="mix-blend-mode:multiply">
<path d="M243.457 182.675C243.511 174.048 231.408 166.978 216.424 166.884C201.439 166.79 189.248 173.708 189.193 182.335C189.139 190.963 201.242 198.033 216.227 198.127C231.211 198.221 243.403 191.303 243.457 182.675Z" fill="#FFE100" stroke="#FFE100" stroke-width="0.4" stroke-miterlimit="10"/>
<path d="M209.855 100.661L213.553 103.743L211.704 100.045L211.088 97.58L210.471 92.65L211.088 87.72L212.32 81.5575L213.553 78.4763L216.018 74.1625L219.099 71.6975H222.18L220.948 71.0813L218.483 69.8488L216.634 69.2325L214.785 69.8488L212.32 72.3138L209.855 76.0113L208.623 79.7088L207.39 84.6388L206.774 90.185L207.39 95.115L209.855 100.661Z" fill="white"/>
<path d="M219.715 79.0925L218.483 75.395L220.948 76.0113L222.18 77.86L223.413 81.5575V87.1038L222.663 91.8127L220.948 96.3475L218.613 101.432L215.575 105.988L211.704 110.521L209.855 106.208L211.088 104.975L215.401 98.8125L217.25 95.115L218.483 91.4175L219.715 86.4875V79.0925Z" fill="white"/>
<path d="M188.903 115.451L191.781 117.126L188.903 112.986L188.286 110.521V106.824L189.519 103.743L191.984 100.661L195.065 98.8125L198.763 98.1963L203.076 98.8125L202.46 98.1963L199.375 96.8754L195.831 95.8629L192.82 96.3475L190.751 96.9638L187.054 100.045L185.205 102.73L184.589 108.056L186.212 112.57L188.903 115.451Z" fill="white"/>
<path d="M203.693 105.591L201.4 101.938L203.425 102.951L206.158 105.591L208.006 109.289L208.623 111.754V112.986L207.981 113.582L204.309 115.451L199.379 116.684L196.914 116.068L194.312 114.595V114.219H197.856L201.844 112.986L205.45 110.545L204.309 107.44L203.693 105.591Z" fill="white"/>
<path d="M220.331 102.51L221.564 100.661L224.645 102.51L222.18 103.126L220.331 102.51Z" fill="white"/>
<path d="M228.738 97.3817L227.726 101.938L232.04 99.4288L235.826 96.3691L239.37 91.8127L242.408 86.75L244.433 82.1936L245.598 77.2438L244.982 74.7788L243.926 74.0933L241.901 75.1058L241.395 77.6372L240.052 82.1738L237.345 87.7626L234.307 91.8127L231.424 95.115L228.738 97.3817Z" fill="white"/>
<path d="M221.564 100.661L225.261 102.51L227.726 92.65L231.424 84.6388L236.97 76.6275L243.749 70.465L246.214 69.8488L243.133 68H241.284L238.819 69.2325L235.121 72.3138L230.808 77.86L226.494 85.255L224.645 93.8825L221.564 100.661Z" fill="white"/>
<path d="M220.132 178.385L223.413 180.158L222.663 168.259L222.18 156.74L221.651 146.49L222.18 135.788L222.796 120.381L224.645 106.208L220.638 106.495L219.099 119.149L218.483 135.788L218.107 145.984L218.483 156.74L219.119 168.259L220.132 178.385Z" fill="white"/>
<path d="M206.969 185.473L210.513 187.498L211.019 180.916L212.031 160.665V150.54L211.704 132.706L209.5 115.607L206.774 117.3L207.981 129.277C208.488 137.883 208.488 145.477 208.488 145.477C208.488 145.477 208.703 152.693 208.488 161.678C208.29 169.918 207.695 179.175 206.969 185.473Z" fill="white"/>
<path d="M222.796 103.126L225.261 102.51L224.645 106.208H223.413H218.483L220.331 102.51L222.796 103.126Z" fill="white"/>
<path fill-rule="evenodd" clip-rule="evenodd" d="M211.704 110.521L216.018 104.975L212.32 101.278L210.471 93.8825L211.088 85.255L213.553 77.86L216.634 73.5463L219.099 71.6975H221.564L224.029 74.1625L225.878 79.0925V84.6388V87.72L224.645 92.65L223.413 96.3475L222.18 98.8125L219.715 103.743L216.634 108.056L213.553 111.754L211.088 114.219L206.774 117.3L200.611 119.765H196.914L192.6 117.916L189.519 114.219L188.286 109.905V106.208L190.135 102.51L192.6 100.045L195.065 98.8125L197.53 98.1963H201.844L204.925 99.4288L207.39 101.894L209.239 104.975L211.088 108.673L211.704 110.521ZM215.069 99.4288L218.281 101.938L219.099 100.661L220.331 98.1963L221.564 95.115L222.18 92.65L223.413 88.3363V82.1738L222.796 78.4763L220.948 76.0113L218.483 75.395L215.401 79.0925L213.553 85.255L212.936 90.8013L213.553 95.7313L215.069 99.4288ZM207.39 107.44L208.623 112.37L208.006 113.603L205.541 114.835L203.076 116.068L199.995 116.684L196.298 116.068L193.216 113.603L191.368 110.521L190.751 107.44L192.287 103.963L195.065 101.894L198.763 101.278L202.46 102.51L204.925 104.359L207.39 107.44Z" fill="white"/>
<path d="M227.66 101.958C230.318 100.84 232.741 99.2323 234.801 97.2188C237.192 94.9217 239.247 92.3009 240.906 89.4334C245.016 82.3374 246.689 75.629 244.646 74.4289C242.603 73.2288 237.604 78.0539 233.487 85.1561C229.592 91.8829 228.16 98.6959 227.074 105.367V105.478C225.647 114.629 224.802 123.86 224.543 133.118C224.076 148.38 224.54 163.657 225.932 178.864L223.519 180.248C223.321 178.02 223.138 175.782 222.969 173.534C221.81 159.064 221.542 144.537 222.167 130.034C222.51 122.019 223.313 114.029 224.574 106.106C224.681 105.453 224.792 104.801 224.908 104.149C224.988 103.669 225.08 103.189 225.173 102.715C226.364 96.4802 228.099 90.4797 231.777 84.1098C237.172 74.7859 243.998 68.6314 247.016 70.367C250.034 72.1025 248.096 81.0757 242.696 90.3997C240.859 93.6341 238.617 96.6224 236.024 99.2928C233.517 101.911 230.481 103.969 227.117 105.33" fill="white"/>
<path d="M210.513 187.498L213.044 186.485L213.55 177.879L214.563 163.703L214.785 151.194L214.563 139.908L214.057 126.745L212.031 113.582L209.5 115.607L211.704 130.858C212.32 153.043 211.704 168.449 211.704 168.449C211.704 168.449 211.129 183.389 210.513 187.498Z" fill="white"/>
<path d="M228.672 97.3172C229.571 96.6485 230.428 95.9272 231.24 95.157C233.631 92.8599 235.685 90.2392 237.344 87.3717C240.165 82.4974 241.838 77.8077 241.949 74.9643" stroke="#FFE100" stroke-width="0.4" stroke-miterlimit="10"/>
<path d="M215.186 99.1082C216.591 96.6308 217.725 94.0104 218.569 91.292C219.436 88.5627 219.904 85.723 219.957 82.8605C219.957 79.7833 219.464 77.2846 218.655 75.6229" stroke="#FFE100" stroke-width="0.4" stroke-miterlimit="10"/>
<path d="M210.088 106.315C210.998 105.286 211.855 104.212 212.656 103.096" stroke="#FFE100" stroke-width="0.4" stroke-miterlimit="10"/>
<path d="M193.812 114.15C195.27 114.511 196.793 114.524 198.256 114.187C200.828 113.57 203.234 112.4 205.305 110.759V110.759C204.441 107.171 203.249 103.909 201.058 101.835" stroke="#FFE100" stroke-width="0.4" stroke-miterlimit="10"/>
<path d="M216.211 105.127C212.508 103.053 210.545 98.6589 210.545 92.3568C210.545 83.5621 214.007 74.4474 218.272 71.9917C222.537 69.5361 226 74.6689 226 83.4636C226 89.7596 224.006 96.4433 220.334 102.758C219.684 103.866 218.997 104.945 218.272 105.995C217.877 106.567 217.476 107.121 217.038 107.687C215.52 109.713 213.83 111.605 211.989 113.343C211.156 114.125 210.304 114.851 209.446 115.516C206.459 117.842 203.385 119.295 200.54 119.726C198.24 120.09 195.884 119.656 193.868 118.495C188.467 115.381 186.535 108.648 189.547 103.429C192.559 98.2096 199.423 96.5418 204.823 99.6805C208.527 101.792 210.242 105.835 211.427 110.679" stroke="#FFE100" stroke-width="0.4" stroke-miterlimit="10"/>
<path d="M224.537 106.137C222.882 106.513 221.169 106.566 219.495 106.29C219.078 106.216 218.666 106.12 218.26 106.001" stroke="#FFE100" stroke-width="0.4" stroke-miterlimit="10"/>
<path d="M227.66 101.958C230.318 100.84 232.741 99.2323 234.801 97.2188C237.192 94.9217 239.247 92.3009 240.906 89.4334C245.016 82.3374 246.689 75.629 244.646 74.4289C242.603 73.2288 237.604 78.0539 233.487 85.1561C229.592 91.8829 228.16 98.6959 227.074 105.367V105.478C225.647 114.629 224.802 123.86 224.543 133.118C224.076 148.38 224.54 163.657 225.932 178.864L223.519 180.248C223.321 178.02 223.138 175.782 222.969 173.534C221.81 159.064 221.542 144.537 222.167 130.034C222.51 122.019 223.313 114.029 224.574 106.106C224.681 105.453 224.792 104.801 224.908 104.149C224.988 103.669 225.08 103.189 225.173 102.715C226.364 96.4802 228.099 90.4797 231.777 84.1098C237.172 74.7859 243.998 68.6314 247.016 70.367C250.034 72.1025 248.096 81.0757 242.696 90.3997C240.859 93.6341 238.617 96.6224 236.024 99.2928C233.517 101.911 230.481 103.969 227.117 105.33" stroke="#FFE100" stroke-width="0.4" stroke-miterlimit="10" stroke-linejoin="round"/>
<path d="M220.334 102.758C221.914 103.118 223.556 103.118 225.136 102.758" stroke="#FFE100" stroke-width="0.4" stroke-miterlimit="10"/>
<path d="M208.866 112.783C207.817 108.414 206.28 104.536 203.052 102.684C198.941 100.314 193.954 101.262 191.893 104.801C189.831 108.34 191.522 113.116 195.633 115.497C197.53 116.491 199.727 116.754 201.805 116.236C204.44 115.595 206.9 114.38 209.008 112.679C209.841 112.05 210.638 111.376 211.397 110.66C213.174 108.974 214.782 107.119 216.199 105.121C216.927 104.099 217.618 103.041 218.26 101.952C219.881 99.2408 221.176 96.3487 222.118 93.3353C222.983 90.6058 223.449 87.766 223.5 84.9038C223.5 78.2077 221.155 74.1335 218.26 75.8014C215.365 77.4692 213.02 84.2391 213.02 90.9351C212.983 93.2821 213.459 95.609 214.415 97.7542C215.205 99.5296 216.556 100.999 218.26 101.939" stroke="#FFE100" stroke-width="0.4" stroke-miterlimit="10"/>
<path d="M212.008 113.35C213.322 120.335 214.123 127.407 214.402 134.509C215.118 148.738 214.649 163.73 213.6 178.925C213.431 181.387 213.248 183.849 213.051 186.31L210.625 187.689C211.897 171.503 212.563 155.544 212.008 140.343C211.693 131.757 211.026 123.326 209.483 115.614V115.528" stroke="#FFE100" stroke-width="0.4" stroke-miterlimit="10" stroke-linejoin="round"/>
<path d="M210.625 187.689L207.064 185.64C208.335 169.453 209.002 153.495 208.453 138.294C208.255 131.319 207.637 124.362 206.601 117.461" stroke="#FFE100" stroke-width="0.4" stroke-miterlimit="10"/>
<path d="M223.5 180.236L219.945 178.187C219.739 175.959 219.554 173.72 219.39 171.472C218.233 157.008 217.967 142.487 218.593 127.991C218.891 120.78 219.569 113.59 220.624 106.45" stroke="#FFE100" stroke-width="0.4" stroke-miterlimit="10"/>
<path d="M205.305 110.734L208.866 112.783" stroke="#FFE100" stroke-width="0.4" stroke-miterlimit="10"/>
<path d="M221.575 100.696L225.136 102.745" stroke="#FFE100" stroke-width="0.4" stroke-miterlimit="10"/>
<path d="M222.198 71.9302L218.637 69.8808C218.048 69.5092 217.364 69.317 216.668 69.3279C215.971 69.3389 215.294 69.5524 214.717 69.9423C210.446 72.4041 206.99 81.5127 206.99 90.3074C206.99 96.6095 208.965 101.004 212.656 103.078L216.211 105.127" stroke="#FFE100" stroke-width="0.4" stroke-miterlimit="10"/>
<path d="M246.967 70.367L243.405 68.2929C240.387 66.5574 233.567 72.7118 228.166 82.0358C227.308 83.5178 226.525 85.0419 225.821 86.6024" stroke="#FFE100" stroke-width="0.4" stroke-miterlimit="10"/>
<path d="M193.232 118.144L189.671 116.094C184.776 112.826 183.116 106.426 186.023 101.435C189.047 96.2279 195.861 94.5232 201.262 97.6312L204.823 99.6806" stroke="#FFE100" stroke-width="0.4" stroke-miterlimit="10"/>
<path d="M241.138 188.773C246.959 182.538 250.187 174.33 250.168 165.811C250.273 140.447 265.762 114.991 265.762 114.991C270.01 106.578 272.027 97.222 271.622 87.8123C271.217 78.4026 268.404 69.2528 263.449 61.2342C258.494 53.2156 251.564 46.5951 243.317 42.0029C235.07 37.4108 225.782 35 216.337 35C206.891 35 197.603 37.4108 189.356 42.0029C181.109 46.5951 174.179 53.2156 169.224 61.2342C164.27 69.2528 161.456 78.4026 161.051 87.8123C160.646 97.222 162.663 106.578 166.911 114.991C166.911 114.991 182.395 140.453 182.505 165.811C182.488 174.331 185.718 182.538 191.541 188.773" stroke="#FFE100" stroke-width="0.4" stroke-miterlimit="10"/>
</g>
</g>
<defs>
<filter id="filter0_f_2020_8565" x="105" y="-43" width="257" height="320" filterUnits="userSpaceOnUse" color-interpolation-filters="sRGB">
<feFlood flood-opacity="0" result="BackgroundImageFix"/>
<feBlend mode="normal" in="SourceGraphic" in2="BackgroundImageFix" result="shape"/>
<feGaussianBlur stdDeviation="35" result="effect1_foregroundBlur_2020_8565"/>
</filter>
<filter id="filter1_f_2020_8565" x="105" y="-43" width="257" height="320" filterUnits="userSpaceOnUse" color-interpolation-filters="sRGB">
<feFlood flood-opacity="0" result="BackgroundImageFix"/>
<feBlend mode="normal" in="SourceGraphic" in2="BackgroundImageFix" result="shape"/>
<feGaussianBlur stdDeviation="35" result="effect1_foregroundBlur_2020_8565"/>
</filter>
<filter id="filter2_f_2020_8565" x="42" y="-43" width="257" height="320" filterUnits="userSpaceOnUse" color-interpolation-filters="sRGB">
<feFlood flood-opacity="0" result="BackgroundImageFix"/>
<feBlend mode="normal" in="SourceGraphic" in2="BackgroundImageFix" result="shape"/>
<feGaussianBlur stdDeviation="35" result="effect1_foregroundBlur_2020_8565"/>
</filter>
<filter id="filter3_f_2020_8565" x="-22" y="-43" width="257" height="320" filterUnits="userSpaceOnUse" color-interpolation-filters="sRGB">
<feFlood flood-opacity="0" result="BackgroundImageFix"/>
<feBlend mode="normal" in="SourceGraphic" in2="BackgroundImageFix" result="shape"/>
<feGaussianBlur stdDeviation="35" result="effect1_foregroundBlur_2020_8565"/>
</filter>
<clipPath id="clip0_2020_8565">
<rect width="341" height="233" fill="white"/>
</clipPath>
</defs>
</svg>
